G04*
G04 #@! TF.GenerationSoftware,Altium Limited,Altium Designer,25.8.1 (18)*
G04*
G04 Layer_Physical_Order=6*
G04 Layer_Color=16711833*
%FSLAX44Y44*%
%MOMM*%
G71*
G04*
G04 #@! TF.SameCoordinates,37F76D8F-5CFF-45E6-8087-183E8FF2E641*
G04*
G04*
G04 #@! TF.FilePolarity,Positive*
G04*
G01*
G75*
%ADD11C,0.2000*%
%ADD12C,0.3000*%
%ADD13C,0.1000*%
%ADD15C,0.1500*%
%ADD17C,0.1250*%
%ADD147C,0.1600*%
%ADD151C,0.3000*%
%ADD153C,7.0000*%
%ADD154C,1.5300*%
%ADD155C,0.7600*%
%ADD156C,1.6500*%
%ADD158C,1.1900*%
%ADD159R,1.5300X1.5300*%
%ADD160C,0.4000*%
%ADD161C,1.0000*%
%ADD162C,4.4000*%
%ADD163C,0.1200*%
G36*
X354642Y843503D02*
X354798Y843371D01*
X354958Y843255D01*
X355120Y843154D01*
X355286Y843069D01*
X355455Y842999D01*
X355626Y842945D01*
X355801Y842906D01*
X355979Y842883D01*
X356160Y842875D01*
Y841625D01*
X355979Y841617D01*
X355801Y841594D01*
X355626Y841555D01*
X355455Y841501D01*
X355286Y841431D01*
X355120Y841346D01*
X354958Y841245D01*
X354798Y841129D01*
X354642Y840997D01*
X354488Y840850D01*
Y843650D01*
X354642Y843503D01*
D02*
G37*
G36*
X723959Y842166D02*
X724255Y841915D01*
X724397Y841813D01*
X724533Y841727D01*
X724666Y841657D01*
X724794Y841603D01*
X724917Y841564D01*
X725036Y841542D01*
X725150Y841535D01*
X723170Y839555D01*
X723163Y839669D01*
X723141Y839788D01*
X723102Y839911D01*
X723048Y840039D01*
X722978Y840172D01*
X722892Y840309D01*
X722790Y840450D01*
X722672Y840596D01*
X722390Y840901D01*
X723804Y842315D01*
X723959Y842166D01*
D02*
G37*
G36*
X759302Y834260D02*
X759148Y834407D01*
X758992Y834539D01*
X758832Y834655D01*
X758670Y834756D01*
X758504Y834841D01*
X758335Y834911D01*
X758164Y834965D01*
X757989Y835004D01*
X757811Y835027D01*
X757630Y835035D01*
Y836285D01*
X757811Y836293D01*
X757989Y836316D01*
X758164Y836355D01*
X758335Y836409D01*
X758504Y836479D01*
X758670Y836564D01*
X758832Y836665D01*
X758992Y836781D01*
X759148Y836913D01*
X759302Y837060D01*
Y834260D01*
D02*
G37*
G36*
X239920Y818896D02*
X239666Y818606D01*
X239441Y818274D01*
X239245Y817900D01*
X239078Y817482D01*
X238939Y817022D01*
X238829Y816519D01*
X238748Y815974D01*
X238696Y815386D01*
X238678Y814082D01*
X233638Y818940D01*
X234321Y818959D01*
X235555Y819073D01*
X236106Y819169D01*
X236612Y819290D01*
X237074Y819438D01*
X237492Y819611D01*
X237865Y819809D01*
X238194Y820034D01*
X238479Y820284D01*
X239920Y818896D01*
D02*
G37*
G36*
X465650Y815761D02*
X465794Y815654D01*
X465945Y815564D01*
X466102Y815493D01*
X466265Y815440D01*
X466435Y815406D01*
X466611Y815389D01*
X466793Y815391D01*
X466981Y815411D01*
X467176Y815450D01*
X465690Y813077D01*
X465638Y813293D01*
X465512Y813696D01*
X465438Y813882D01*
X465357Y814058D01*
X465268Y814225D01*
X465173Y814381D01*
X465070Y814527D01*
X464960Y814663D01*
X464843Y814789D01*
X465512Y815888D01*
X465650Y815761D01*
D02*
G37*
G36*
X416654Y813280D02*
X416531Y813147D01*
X416422Y813004D01*
X416326Y812853D01*
X416243Y812694D01*
X416173Y812525D01*
X416116Y812348D01*
X416072Y812161D01*
X416042Y811966D01*
X416024Y811763D01*
X416020Y811550D01*
X414040Y813530D01*
X414253Y813534D01*
X414456Y813552D01*
X414651Y813582D01*
X414838Y813626D01*
X415015Y813683D01*
X415184Y813753D01*
X415343Y813836D01*
X415494Y813932D01*
X415637Y814042D01*
X415770Y814164D01*
X416654Y813280D01*
D02*
G37*
G36*
X421821Y812279D02*
X421969Y812143D01*
X422122Y812023D01*
X422279Y811919D01*
X422440Y811830D01*
X422606Y811758D01*
X422776Y811702D01*
X422950Y811662D01*
X423128Y811638D01*
X423310Y811630D01*
X423245Y810380D01*
X423066Y810372D01*
X422888Y810350D01*
X422713Y810313D01*
X422539Y810261D01*
X422368Y810194D01*
X422198Y810112D01*
X422030Y810015D01*
X421864Y809903D01*
X421700Y809777D01*
X421538Y809635D01*
X421676Y812432D01*
X421821Y812279D01*
D02*
G37*
G36*
X497260Y810113D02*
X497048Y810108D01*
X496844Y810091D01*
X496649Y810060D01*
X496463Y810016D01*
X496285Y809960D01*
X496117Y809890D01*
X495957Y809807D01*
X495806Y809710D01*
X495664Y809601D01*
X495531Y809479D01*
X494647Y810363D01*
X494769Y810496D01*
X494878Y810638D01*
X494974Y810789D01*
X495057Y810949D01*
X495127Y811117D01*
X495184Y811295D01*
X495228Y811481D01*
X495259Y811676D01*
X495276Y811880D01*
X495280Y812093D01*
X497260Y810113D01*
D02*
G37*
G36*
X759466Y772696D02*
X759356Y772558D01*
X759258Y772413D01*
X759174Y772261D01*
X759102Y772102D01*
X759044Y771936D01*
X758998Y771763D01*
X758966Y771583D01*
X758947Y771396D01*
X758940Y771201D01*
X757440D01*
X757433Y771396D01*
X757414Y771583D01*
X757382Y771763D01*
X757336Y771936D01*
X757278Y772102D01*
X757206Y772261D01*
X757122Y772413D01*
X757024Y772558D01*
X756914Y772696D01*
X756790Y772827D01*
X759590D01*
X759466Y772696D01*
D02*
G37*
G36*
X764892Y772497D02*
X764759Y772382D01*
X764639Y772257D01*
X764534Y772123D01*
X764443Y771981D01*
X764366Y771830D01*
X764302Y771669D01*
X764253Y771500D01*
X764218Y771322D01*
X764197Y771135D01*
X764190Y770939D01*
X762690Y771110D01*
X762684Y771303D01*
X762667Y771490D01*
X762638Y771671D01*
X762597Y771848D01*
X762544Y772018D01*
X762480Y772184D01*
X762405Y772344D01*
X762317Y772498D01*
X762218Y772647D01*
X762108Y772791D01*
X764892Y772497D01*
D02*
G37*
G36*
X720097Y754091D02*
X719986Y753953D01*
X719889Y753808D01*
X719804Y753656D01*
X719733Y753497D01*
X719674Y753331D01*
X719629Y753158D01*
X719596Y752977D01*
X719576Y752790D01*
X719570Y752596D01*
X718070D01*
X718064Y752790D01*
X718044Y752977D01*
X718011Y753158D01*
X717966Y753331D01*
X717907Y753497D01*
X717836Y753656D01*
X717751Y753808D01*
X717654Y753953D01*
X717543Y754091D01*
X717420Y754222D01*
X720220D01*
X720097Y754091D01*
D02*
G37*
G36*
X714846D02*
X714736Y753953D01*
X714639Y753808D01*
X714554Y753656D01*
X714482Y753497D01*
X714424Y753331D01*
X714379Y753158D01*
X714346Y752977D01*
X714326Y752790D01*
X714320Y752596D01*
X712820D01*
X712813Y752790D01*
X712794Y752977D01*
X712762Y753158D01*
X712716Y753331D01*
X712657Y753497D01*
X712586Y753656D01*
X712502Y753808D01*
X712404Y753953D01*
X712293Y754091D01*
X712170Y754222D01*
X714970D01*
X714846Y754091D01*
D02*
G37*
G36*
X594156Y729371D02*
X594312Y729239D01*
X594472Y729123D01*
X594634Y729022D01*
X594800Y728937D01*
X594968Y728867D01*
X595140Y728813D01*
X595315Y728774D01*
X595493Y728751D01*
X595674Y728743D01*
Y727493D01*
X595493Y727486D01*
X595315Y727462D01*
X595140Y727424D01*
X594968Y727369D01*
X594800Y727300D01*
X594634Y727214D01*
X594472Y727114D01*
X594312Y726997D01*
X594156Y726866D01*
X594002Y726718D01*
Y729518D01*
X594156Y729371D01*
D02*
G37*
G36*
X585580Y724910D02*
X585367Y724906D01*
X585163Y724888D01*
X584968Y724858D01*
X584782Y724814D01*
X584605Y724757D01*
X584436Y724687D01*
X584276Y724604D01*
X584125Y724508D01*
X583983Y724399D01*
X583850Y724276D01*
X582966Y725160D01*
X583088Y725294D01*
X583198Y725436D01*
X583294Y725587D01*
X583377Y725747D01*
X583447Y725915D01*
X583504Y726093D01*
X583547Y726279D01*
X583578Y726474D01*
X583596Y726678D01*
X583600Y726890D01*
X585580Y724910D01*
D02*
G37*
G36*
X687225Y723369D02*
X687072Y723516D01*
X686915Y723648D01*
X686756Y723764D01*
X686593Y723865D01*
X686428Y723950D01*
X686259Y724020D01*
X686087Y724074D01*
X685912Y724113D01*
X685734Y724136D01*
X685554Y724144D01*
Y725394D01*
X685734Y725401D01*
X685912Y725425D01*
X686087Y725463D01*
X686259Y725518D01*
X686428Y725587D01*
X686593Y725673D01*
X686756Y725773D01*
X686915Y725890D01*
X687072Y726021D01*
X687225Y726169D01*
Y723369D01*
D02*
G37*
G36*
X625487Y724524D02*
X625625Y724124D01*
X625704Y723939D01*
X625880Y723599D01*
X625977Y723444D01*
X626081Y723299D01*
X626191Y723165D01*
X626307Y723040D01*
X625674Y721906D01*
X625535Y722032D01*
X625390Y722140D01*
X625240Y722228D01*
X625084Y722298D01*
X624922Y722348D01*
X624754Y722380D01*
X624580Y722392D01*
X624401Y722386D01*
X624216Y722361D01*
X624025Y722316D01*
X625427Y724740D01*
X625487Y724524D01*
D02*
G37*
G36*
X347969Y721797D02*
X348125Y721665D01*
X348285Y721549D01*
X348448Y721448D01*
X348613Y721363D01*
X348782Y721293D01*
X348954Y721239D01*
X349128Y721200D01*
X349306Y721177D01*
X349487Y721169D01*
Y719919D01*
X349306Y719911D01*
X349128Y719888D01*
X348954Y719849D01*
X348782Y719795D01*
X348613Y719725D01*
X348448Y719640D01*
X348285Y719539D01*
X348125Y719423D01*
X347969Y719291D01*
X347816Y719144D01*
Y721944D01*
X347969Y721797D01*
D02*
G37*
G36*
X786113Y710888D02*
X785981Y710732D01*
X785865Y710572D01*
X785764Y710410D01*
X785679Y710244D01*
X785609Y710075D01*
X785555Y709904D01*
X785516Y709729D01*
X785493Y709551D01*
X785485Y709370D01*
X784235D01*
X784227Y709551D01*
X784204Y709729D01*
X784165Y709904D01*
X784111Y710075D01*
X784041Y710244D01*
X783956Y710410D01*
X783855Y710572D01*
X783739Y710732D01*
X783607Y710888D01*
X783460Y711042D01*
X786260D01*
X786113Y710888D01*
D02*
G37*
G36*
X677402Y697527D02*
X677277Y697687D01*
X677144Y697831D01*
X677006Y697958D01*
X676860Y698067D01*
X676708Y698160D01*
X676550Y698236D01*
X676385Y698295D01*
X676213Y698337D01*
X676034Y698363D01*
X675849Y698371D01*
X676047Y699621D01*
X676222Y699628D01*
X676398Y699648D01*
X676574Y699682D01*
X676751Y699729D01*
X676927Y699790D01*
X677105Y699864D01*
X677282Y699952D01*
X677460Y700053D01*
X677638Y700168D01*
X677817Y700296D01*
X677402Y697527D01*
D02*
G37*
G36*
X515191Y683403D02*
X515348Y683271D01*
X515507Y683155D01*
X515670Y683054D01*
X515835Y682969D01*
X516004Y682899D01*
X516176Y682845D01*
X516351Y682806D01*
X516529Y682783D01*
X516709Y682775D01*
Y681525D01*
X516529Y681517D01*
X516351Y681494D01*
X516176Y681455D01*
X516004Y681401D01*
X515835Y681331D01*
X515670Y681246D01*
X515507Y681145D01*
X515348Y681029D01*
X515191Y680897D01*
X515038Y680750D01*
Y683550D01*
X515191Y683403D01*
D02*
G37*
G36*
X157306Y673686D02*
X157280Y673684D01*
X157244Y673669D01*
X157198Y673641D01*
X157142Y673601D01*
X156998Y673482D01*
X156705Y673208D01*
X156587Y673091D01*
X155703Y673975D01*
X155786Y674060D01*
X155972Y674276D01*
X156013Y674335D01*
X156044Y674388D01*
X156064Y674434D01*
X156074Y674474D01*
X156074Y674508D01*
X156063Y674535D01*
X157306Y673686D01*
D02*
G37*
G36*
X161570Y657876D02*
X161701Y657774D01*
X161840Y657684D01*
X161987Y657606D01*
X162143Y657540D01*
X162308Y657486D01*
X162482Y657444D01*
X162663Y657414D01*
X162854Y657396D01*
X163053Y657390D01*
Y655790D01*
X162854Y655784D01*
X162663Y655766D01*
X162482Y655736D01*
X162308Y655694D01*
X162143Y655640D01*
X161987Y655574D01*
X161840Y655496D01*
X161701Y655406D01*
X161570Y655304D01*
X161448Y655190D01*
Y657990D01*
X161570Y657876D01*
D02*
G37*
G36*
X209016Y652593D02*
X209036Y652429D01*
X209070Y652267D01*
X209119Y652107D01*
X209183Y651950D01*
X209262Y651796D01*
X209354Y651643D01*
X209462Y651493D01*
X209584Y651346D01*
X209720Y651201D01*
X208589Y650070D01*
X208444Y650206D01*
X208297Y650328D01*
X208147Y650435D01*
X207994Y650528D01*
X207840Y650607D01*
X207683Y650670D01*
X207523Y650720D01*
X207361Y650754D01*
X207197Y650775D01*
X207030Y650780D01*
X209010Y652760D01*
X209016Y652593D01*
D02*
G37*
G36*
X476562Y650223D02*
X476718Y650091D01*
X476878Y649975D01*
X477040Y649874D01*
X477206Y649789D01*
X477375Y649719D01*
X477546Y649665D01*
X477721Y649626D01*
X477899Y649603D01*
X478080Y649595D01*
Y648345D01*
X477899Y648337D01*
X477721Y648314D01*
X477546Y648275D01*
X477375Y648221D01*
X477206Y648151D01*
X477040Y648066D01*
X476878Y647965D01*
X476718Y647849D01*
X476562Y647717D01*
X476408Y647570D01*
Y650370D01*
X476562Y650223D01*
D02*
G37*
G36*
X161273Y648658D02*
X161141Y648502D01*
X161025Y648342D01*
X160924Y648180D01*
X160839Y648014D01*
X160769Y647845D01*
X160715Y647674D01*
X160676Y647499D01*
X160653Y647321D01*
X160645Y647140D01*
X159395D01*
X159387Y647321D01*
X159364Y647499D01*
X159325Y647674D01*
X159271Y647845D01*
X159201Y648014D01*
X159116Y648180D01*
X159015Y648342D01*
X158899Y648502D01*
X158767Y648658D01*
X158620Y648812D01*
X161420D01*
X161273Y648658D01*
D02*
G37*
G36*
X712589Y648395D02*
X712724Y648253D01*
X712866Y648127D01*
X713013Y648018D01*
X713167Y647926D01*
X713327Y647851D01*
X713493Y647792D01*
X713665Y647750D01*
X713844Y647725D01*
X714028Y647717D01*
X713857Y646467D01*
X713680Y646460D01*
X713504Y646439D01*
X713328Y646405D01*
X713152Y646357D01*
X712976Y646295D01*
X712800Y646219D01*
X712625Y646129D01*
X712449Y646026D01*
X712273Y645909D01*
X712098Y645778D01*
X712460Y648554D01*
X712589Y648395D01*
D02*
G37*
G36*
X702152Y645030D02*
X701998Y645177D01*
X701842Y645309D01*
X701682Y645425D01*
X701520Y645526D01*
X701354Y645611D01*
X701185Y645681D01*
X701014Y645735D01*
X700839Y645774D01*
X700661Y645797D01*
X700480Y645805D01*
Y647055D01*
X700661Y647063D01*
X700839Y647086D01*
X701014Y647125D01*
X701185Y647179D01*
X701354Y647249D01*
X701520Y647334D01*
X701682Y647435D01*
X701842Y647551D01*
X701998Y647683D01*
X702152Y647830D01*
Y645030D01*
D02*
G37*
G36*
X336392Y642490D02*
X336270Y642604D01*
X336139Y642706D01*
X336000Y642796D01*
X335853Y642874D01*
X335696Y642940D01*
X335532Y642994D01*
X335358Y643036D01*
X335177Y643066D01*
X334986Y643084D01*
X334787Y643090D01*
Y644690D01*
X334986Y644696D01*
X335177Y644714D01*
X335358Y644744D01*
X335532Y644786D01*
X335696Y644840D01*
X335853Y644906D01*
X336000Y644984D01*
X336139Y645074D01*
X336270Y645176D01*
X336392Y645290D01*
Y642490D01*
D02*
G37*
G36*
X343516Y641274D02*
X343637Y641127D01*
X343767Y640998D01*
X343905Y640885D01*
X344051Y640790D01*
X344205Y640713D01*
X344367Y640652D01*
X344537Y640609D01*
X344716Y640583D01*
X344902Y640575D01*
X344619Y639325D01*
X344447Y639318D01*
X344272Y639300D01*
X344096Y639268D01*
X343919Y639225D01*
X343739Y639168D01*
X343558Y639100D01*
X343376Y639019D01*
X343005Y638819D01*
X342817Y638700D01*
X343402Y641438D01*
X343516Y641274D01*
D02*
G37*
G36*
X323709Y633582D02*
X323586Y633695D01*
X323454Y633796D01*
X323314Y633885D01*
X323166Y633962D01*
X323009Y634027D01*
X322843Y634080D01*
X322670Y634122D01*
X322487Y634151D01*
X322297Y634169D01*
X322098Y634175D01*
X322076Y635775D01*
X322276Y635781D01*
X322466Y635799D01*
X322648Y635830D01*
X322821Y635872D01*
X322985Y635927D01*
X323140Y635994D01*
X323287Y636073D01*
X323425Y636164D01*
X323554Y636267D01*
X323674Y636382D01*
X323709Y633582D01*
D02*
G37*
G36*
X317077Y629525D02*
X316955Y629639D01*
X316824Y629741D01*
X316685Y629831D01*
X316538Y629909D01*
X316382Y629975D01*
X316217Y630029D01*
X316043Y630071D01*
X315862Y630101D01*
X315671Y630119D01*
X315472Y630125D01*
Y631725D01*
X315671Y631731D01*
X315862Y631749D01*
X316043Y631779D01*
X316217Y631821D01*
X316382Y631875D01*
X316538Y631941D01*
X316685Y632019D01*
X316824Y632109D01*
X316955Y632211D01*
X317077Y632325D01*
Y629525D01*
D02*
G37*
G36*
X593593Y627173D02*
X593381Y627169D01*
X593177Y627152D01*
X592982Y627121D01*
X592796Y627077D01*
X592618Y627020D01*
X592450Y626950D01*
X592290Y626867D01*
X592139Y626771D01*
X591997Y626662D01*
X591863Y626539D01*
X590979Y627423D01*
X591102Y627557D01*
X591211Y627699D01*
X591307Y627850D01*
X591390Y628010D01*
X591460Y628178D01*
X591517Y628356D01*
X591561Y628542D01*
X591592Y628737D01*
X591609Y628941D01*
X591613Y629153D01*
X593593Y627173D01*
D02*
G37*
G36*
X173000Y628666D02*
X173131Y628564D01*
X173270Y628474D01*
X173417Y628396D01*
X173573Y628330D01*
X173738Y628276D01*
X173912Y628234D01*
X174093Y628204D01*
X174284Y628186D01*
X174483Y628180D01*
Y626580D01*
X174284Y626574D01*
X174093Y626556D01*
X173912Y626526D01*
X173738Y626484D01*
X173573Y626430D01*
X173417Y626364D01*
X173270Y626286D01*
X173131Y626196D01*
X173000Y626094D01*
X172878Y625980D01*
Y628780D01*
X173000Y628666D01*
D02*
G37*
G36*
X562005Y620734D02*
X561852Y620882D01*
X561695Y621013D01*
X561536Y621129D01*
X561373Y621230D01*
X561208Y621315D01*
X561039Y621385D01*
X560867Y621440D01*
X560692Y621478D01*
X560515Y621502D01*
X560334Y621509D01*
Y622759D01*
X560515Y622767D01*
X560692Y622790D01*
X560867Y622829D01*
X561039Y622883D01*
X561208Y622953D01*
X561373Y623038D01*
X561536Y623139D01*
X561695Y623255D01*
X561852Y623387D01*
X562005Y623534D01*
Y620734D01*
D02*
G37*
G36*
X169197Y614550D02*
X169061Y614407D01*
X168822Y614116D01*
X168719Y613967D01*
X168627Y613817D01*
X168546Y613665D01*
X168477Y613511D01*
X168418Y613354D01*
X168371Y613196D01*
X168335Y613037D01*
X166783Y615367D01*
X166942Y615342D01*
X167100Y615336D01*
X167257Y615347D01*
X167412Y615376D01*
X167566Y615424D01*
X167718Y615489D01*
X167870Y615573D01*
X168020Y615674D01*
X168168Y615793D01*
X168315Y615931D01*
X169197Y614550D01*
D02*
G37*
G36*
X346122Y610805D02*
X346000Y610919D01*
X345869Y611021D01*
X345730Y611111D01*
X345583Y611189D01*
X345426Y611255D01*
X345262Y611309D01*
X345088Y611351D01*
X344907Y611381D01*
X344716Y611399D01*
X344517Y611405D01*
Y613005D01*
X344716Y613011D01*
X344907Y613029D01*
X345088Y613059D01*
X345262Y613101D01*
X345426Y613155D01*
X345583Y613221D01*
X345730Y613299D01*
X345869Y613389D01*
X346000Y613491D01*
X346122Y613605D01*
Y610805D01*
D02*
G37*
G36*
X527233Y605110D02*
X527080Y605257D01*
X526923Y605389D01*
X526764Y605505D01*
X526601Y605606D01*
X526436Y605691D01*
X526267Y605761D01*
X526095Y605815D01*
X525920Y605854D01*
X525743Y605877D01*
X525562Y605885D01*
Y607135D01*
X525743Y607143D01*
X525920Y607166D01*
X526095Y607205D01*
X526267Y607259D01*
X526436Y607329D01*
X526601Y607414D01*
X526764Y607515D01*
X526923Y607631D01*
X527080Y607763D01*
X527233Y607910D01*
Y605110D01*
D02*
G37*
G36*
X531129Y602075D02*
X530302Y602045D01*
Y603295D01*
X530789Y603322D01*
X531129Y602075D01*
D02*
G37*
G36*
X360267Y598144D02*
X360145Y598010D01*
X360036Y597868D01*
X359940Y597717D01*
X359856Y597557D01*
X359787Y597389D01*
X359730Y597211D01*
X359686Y597025D01*
X359655Y596830D01*
X359638Y596626D01*
X359633Y596414D01*
X357654Y598394D01*
X357866Y598398D01*
X358070Y598415D01*
X358265Y598446D01*
X358451Y598490D01*
X358629Y598547D01*
X358797Y598616D01*
X358957Y598700D01*
X359108Y598796D01*
X359250Y598905D01*
X359384Y599027D01*
X360267Y598144D01*
D02*
G37*
G36*
X346593Y593901D02*
X346468Y593764D01*
X346360Y593619D01*
X346270Y593468D01*
X346197Y593311D01*
X346142Y593146D01*
X346104Y592975D01*
X346084Y592797D01*
X346081Y592612D01*
X346096Y592421D01*
X346129Y592223D01*
X343806Y593787D01*
X344023Y593832D01*
X344427Y593946D01*
X344614Y594016D01*
X344791Y594093D01*
X344958Y594179D01*
X345116Y594273D01*
X345263Y594375D01*
X345400Y594485D01*
X345527Y594603D01*
X346593Y593901D01*
D02*
G37*
G36*
X361596Y572080D02*
X361474Y572194D01*
X361344Y572296D01*
X361205Y572386D01*
X361057Y572464D01*
X360901Y572530D01*
X360736Y572584D01*
X360563Y572626D01*
X360381Y572656D01*
X360190Y572674D01*
X359991Y572680D01*
Y574280D01*
X360190Y574286D01*
X360381Y574304D01*
X360563Y574334D01*
X360736Y574376D01*
X360901Y574430D01*
X361057Y574496D01*
X361205Y574574D01*
X361344Y574664D01*
X361474Y574766D01*
X361596Y574880D01*
Y572080D01*
D02*
G37*
G36*
X618091Y569697D02*
X618108Y569494D01*
X618139Y569299D01*
X618183Y569113D01*
X618240Y568935D01*
X618310Y568767D01*
X618393Y568607D01*
X618489Y568456D01*
X618598Y568314D01*
X618721Y568180D01*
X617837Y567296D01*
X617703Y567419D01*
X617561Y567528D01*
X617410Y567624D01*
X617250Y567707D01*
X617082Y567777D01*
X616904Y567834D01*
X616718Y567878D01*
X616523Y567908D01*
X616319Y567926D01*
X616107Y567930D01*
X618087Y569910D01*
X618091Y569697D01*
D02*
G37*
G36*
X293477Y567109D02*
X293340Y566964D01*
X293218Y566816D01*
X293111Y566666D01*
X293018Y566514D01*
X292940Y566359D01*
X292876Y566202D01*
X292827Y566043D01*
X292792Y565881D01*
X292772Y565717D01*
X292766Y565550D01*
X290786Y567530D01*
X290953Y567535D01*
X291118Y567555D01*
X291280Y567590D01*
X291439Y567639D01*
X291596Y567703D01*
X291751Y567781D01*
X291903Y567874D01*
X292053Y567982D01*
X292201Y568104D01*
X292346Y568240D01*
X293477Y567109D01*
D02*
G37*
G36*
X646893Y556195D02*
X646740Y556342D01*
X646583Y556474D01*
X646424Y556590D01*
X646261Y556691D01*
X646096Y556776D01*
X645927Y556846D01*
X645755Y556900D01*
X645580Y556939D01*
X645403Y556962D01*
X645222Y556970D01*
Y558220D01*
X645403Y558228D01*
X645580Y558251D01*
X645755Y558290D01*
X645927Y558344D01*
X646096Y558414D01*
X646261Y558499D01*
X646424Y558600D01*
X646583Y558716D01*
X646740Y558848D01*
X646893Y558995D01*
Y556195D01*
D02*
G37*
G36*
X689115Y554963D02*
X688924Y555008D01*
X688740Y555034D01*
X688561Y555042D01*
X688388Y555029D01*
X688221Y554998D01*
X688059Y554948D01*
X687903Y554879D01*
X687753Y554790D01*
X687608Y554683D01*
X687469Y554556D01*
X686841Y555696D01*
X686957Y555821D01*
X687067Y555955D01*
X687171Y556099D01*
X687268Y556254D01*
X687360Y556418D01*
X687445Y556593D01*
X687598Y556973D01*
X687665Y557179D01*
X687725Y557394D01*
X689115Y554963D01*
D02*
G37*
G36*
X725150Y554260D02*
X724983Y554254D01*
X724819Y554234D01*
X724657Y554200D01*
X724497Y554151D01*
X724340Y554087D01*
X724185Y554008D01*
X724033Y553915D01*
X723883Y553808D01*
X723736Y553686D01*
X723591Y553550D01*
X722460Y554681D01*
X722596Y554826D01*
X722718Y554973D01*
X722825Y555123D01*
X722918Y555275D01*
X722997Y555430D01*
X723061Y555587D01*
X723110Y555747D01*
X723144Y555909D01*
X723165Y556073D01*
X723170Y556240D01*
X725150Y554260D01*
D02*
G37*
G36*
X554178Y554762D02*
X554313Y554619D01*
X554455Y554494D01*
X554602Y554385D01*
X554756Y554293D01*
X554916Y554217D01*
X555082Y554159D01*
X555254Y554117D01*
X555432Y554092D01*
X555617Y554083D01*
X555443Y552833D01*
X555266Y552826D01*
X555090Y552806D01*
X554914Y552771D01*
X554738Y552723D01*
X554562Y552661D01*
X554386Y552585D01*
X554210Y552496D01*
X554035Y552393D01*
X553859Y552276D01*
X553683Y552145D01*
X554049Y554921D01*
X554178Y554762D01*
D02*
G37*
G36*
X742914Y550415D02*
X742701Y550410D01*
X742497Y550392D01*
X742302Y550362D01*
X742116Y550318D01*
X741938Y550261D01*
X741770Y550191D01*
X741610Y550108D01*
X741459Y550012D01*
X741317Y549903D01*
X741184Y549780D01*
X740300Y550664D01*
X740422Y550798D01*
X740531Y550940D01*
X740627Y551091D01*
X740711Y551250D01*
X740780Y551419D01*
X740837Y551596D01*
X740881Y551783D01*
X740912Y551978D01*
X740929Y552182D01*
X740933Y552394D01*
X742914Y550415D01*
D02*
G37*
G36*
X498784Y550726D02*
X498914Y550624D01*
X499053Y550533D01*
X499201Y550456D01*
X499357Y550390D01*
X499522Y550336D01*
X499695Y550294D01*
X499877Y550263D01*
X500067Y550246D01*
X500266Y550239D01*
Y548639D01*
X500067Y548633D01*
X499877Y548615D01*
X499695Y548586D01*
X499522Y548544D01*
X499357Y548489D01*
X499201Y548424D01*
X499053Y548345D01*
X498914Y548256D01*
X498784Y548153D01*
X498662Y548040D01*
Y550840D01*
X498784Y550726D01*
D02*
G37*
G36*
X488549Y540757D02*
X488412Y540612D01*
X488290Y540465D01*
X488183Y540315D01*
X488090Y540163D01*
X488011Y540008D01*
X487948Y539851D01*
X487898Y539691D01*
X487864Y539529D01*
X487844Y539365D01*
X487838Y539198D01*
X485858Y541178D01*
X486025Y541184D01*
X486189Y541204D01*
X486351Y541238D01*
X486511Y541288D01*
X486668Y541351D01*
X486823Y541430D01*
X486975Y541523D01*
X487125Y541630D01*
X487272Y541752D01*
X487417Y541889D01*
X488549Y540757D01*
D02*
G37*
G36*
X736442Y530730D02*
X736288Y530877D01*
X736132Y531009D01*
X735972Y531125D01*
X735810Y531226D01*
X735644Y531311D01*
X735475Y531381D01*
X735304Y531435D01*
X735129Y531474D01*
X734951Y531497D01*
X734770Y531505D01*
Y532755D01*
X734951Y532763D01*
X735129Y532786D01*
X735304Y532825D01*
X735475Y532879D01*
X735644Y532949D01*
X735810Y533034D01*
X735972Y533135D01*
X736132Y533251D01*
X736288Y533383D01*
X736442Y533530D01*
Y530730D01*
D02*
G37*
G36*
X496161Y529510D02*
X496008Y529657D01*
X495852Y529789D01*
X495692Y529905D01*
X495529Y530006D01*
X495364Y530091D01*
X495195Y530161D01*
X495023Y530215D01*
X494849Y530254D01*
X494671Y530277D01*
X494490Y530285D01*
Y531535D01*
X494671Y531543D01*
X494849Y531566D01*
X495023Y531605D01*
X495195Y531659D01*
X495364Y531729D01*
X495529Y531814D01*
X495692Y531915D01*
X495852Y532031D01*
X496008Y532163D01*
X496161Y532310D01*
Y529510D01*
D02*
G37*
G36*
X363833Y531210D02*
X363711Y531076D01*
X363602Y530934D01*
X363506Y530783D01*
X363423Y530623D01*
X363353Y530455D01*
X363296Y530277D01*
X363252Y530091D01*
X363221Y529896D01*
X363204Y529692D01*
X363200Y529480D01*
X361220Y531460D01*
X361432Y531464D01*
X361636Y531482D01*
X361831Y531512D01*
X362017Y531556D01*
X362195Y531613D01*
X362363Y531683D01*
X362523Y531766D01*
X362674Y531862D01*
X362816Y531971D01*
X362949Y532094D01*
X363833Y531210D01*
D02*
G37*
G36*
X415679Y528722D02*
X415525Y528869D01*
X415369Y529001D01*
X415209Y529117D01*
X415047Y529218D01*
X414881Y529303D01*
X414712Y529373D01*
X414541Y529427D01*
X414366Y529466D01*
X414188Y529489D01*
X414007Y529497D01*
Y530747D01*
X414188Y530755D01*
X414366Y530778D01*
X414541Y530817D01*
X414712Y530871D01*
X414881Y530941D01*
X415047Y531026D01*
X415209Y531127D01*
X415369Y531243D01*
X415525Y531375D01*
X415679Y531522D01*
Y528722D01*
D02*
G37*
G36*
X382582Y531253D02*
X382738Y531121D01*
X382898Y531005D01*
X383060Y530904D01*
X383226Y530819D01*
X383395Y530749D01*
X383566Y530695D01*
X383741Y530656D01*
X383919Y530633D01*
X384100Y530625D01*
Y529375D01*
X383919Y529367D01*
X383741Y529344D01*
X383566Y529305D01*
X383395Y529251D01*
X383226Y529181D01*
X383060Y529096D01*
X382898Y528995D01*
X382738Y528879D01*
X382582Y528747D01*
X382428Y528600D01*
Y531400D01*
X382582Y531253D01*
D02*
G37*
G36*
X510420Y526774D02*
X510236Y526897D01*
X509872Y527104D01*
X509691Y527188D01*
X509512Y527259D01*
X509333Y527318D01*
X509156Y527363D01*
X508980Y527396D01*
X508805Y527415D01*
X508631Y527421D01*
X508387Y528671D01*
X508573Y528680D01*
X508751Y528706D01*
X508922Y528748D01*
X509086Y528808D01*
X509242Y528885D01*
X509390Y528979D01*
X509532Y529091D01*
X509665Y529219D01*
X509792Y529365D01*
X509911Y529527D01*
X510420Y526774D01*
D02*
G37*
G36*
X539746Y528472D02*
X539882Y528362D01*
X540027Y528259D01*
X540182Y528162D01*
X540348Y528073D01*
X540524Y527990D01*
X540905Y527845D01*
X541111Y527782D01*
X541328Y527726D01*
X538930Y526279D01*
X538971Y526472D01*
X538994Y526659D01*
X538998Y526840D01*
X538984Y527015D01*
X538950Y527184D01*
X538899Y527346D01*
X538828Y527503D01*
X538739Y527654D01*
X538632Y527798D01*
X538505Y527937D01*
X539621Y528589D01*
X539746Y528472D01*
D02*
G37*
G36*
X410137Y528358D02*
X410260Y528212D01*
X410390Y528082D01*
X410529Y527970D01*
X410676Y527876D01*
X410830Y527798D01*
X410993Y527738D01*
X411163Y527695D01*
X411342Y527669D01*
X411528Y527660D01*
X411256Y526410D01*
X411083Y526404D01*
X410908Y526385D01*
X410732Y526353D01*
X410554Y526309D01*
X410375Y526252D01*
X410195Y526183D01*
X410013Y526101D01*
X409829Y526006D01*
X409457Y525779D01*
X410022Y528522D01*
X410137Y528358D01*
D02*
G37*
G36*
X373257Y526853D02*
X373142Y526725D01*
X373044Y526585D01*
X372961Y526434D01*
X372894Y526272D01*
X372843Y526097D01*
X372808Y525912D01*
X372789Y525715D01*
X372786Y525507D01*
X372799Y525287D01*
X372827Y525056D01*
X370585Y526732D01*
X370840Y526771D01*
X371304Y526871D01*
X371513Y526932D01*
X371706Y527001D01*
X371885Y527077D01*
X372048Y527160D01*
X372195Y527251D01*
X372327Y527349D01*
X372444Y527455D01*
X373257Y526853D01*
D02*
G37*
G36*
X382582Y526003D02*
X382738Y525871D01*
X382898Y525755D01*
X383060Y525654D01*
X383226Y525569D01*
X383395Y525499D01*
X383566Y525445D01*
X383741Y525406D01*
X383919Y525383D01*
X384100Y525375D01*
Y524125D01*
X383919Y524117D01*
X383741Y524094D01*
X383566Y524055D01*
X383395Y524001D01*
X383226Y523931D01*
X383060Y523846D01*
X382898Y523745D01*
X382738Y523629D01*
X382582Y523497D01*
X382428Y523350D01*
Y526150D01*
X382582Y526003D01*
D02*
G37*
G36*
X470577Y525599D02*
X470721Y525491D01*
X470872Y525399D01*
X471031Y525324D01*
X471197Y525265D01*
X471370Y525222D01*
X471551Y525196D01*
X471739Y525187D01*
X471935Y525194D01*
X472137Y525217D01*
X470457Y522977D01*
X470423Y523194D01*
X470326Y523598D01*
X470264Y523786D01*
X470192Y523964D01*
X470110Y524132D01*
X470019Y524290D01*
X469919Y524439D01*
X469809Y524578D01*
X469689Y524707D01*
X470440Y525724D01*
X470577Y525599D01*
D02*
G37*
G36*
X414782Y520877D02*
X414673Y521042D01*
X414556Y521190D01*
X414430Y521321D01*
X414295Y521434D01*
X414152Y521529D01*
X413999Y521608D01*
X413839Y521669D01*
X413669Y521712D01*
X413491Y521738D01*
X413304Y521747D01*
X413622Y522997D01*
X413793Y523003D01*
X413967Y523021D01*
X414143Y523051D01*
X414321Y523093D01*
X414501Y523148D01*
X414683Y523214D01*
X414868Y523292D01*
X415244Y523485D01*
X415435Y523600D01*
X414782Y520877D01*
D02*
G37*
G36*
X429199Y522933D02*
X429356Y522801D01*
X429515Y522685D01*
X429678Y522584D01*
X429843Y522499D01*
X430012Y522429D01*
X430184Y522375D01*
X430359Y522336D01*
X430536Y522313D01*
X430717Y522305D01*
Y521055D01*
X430536Y521047D01*
X430359Y521024D01*
X430184Y520985D01*
X430012Y520931D01*
X429843Y520861D01*
X429678Y520776D01*
X429515Y520675D01*
X429356Y520559D01*
X429199Y520427D01*
X429046Y520280D01*
Y523080D01*
X429199Y522933D01*
D02*
G37*
G36*
X836418Y522217D02*
X836565Y522095D01*
X836715Y521987D01*
X836867Y521894D01*
X837022Y521816D01*
X837179Y521752D01*
X837339Y521703D01*
X837501Y521668D01*
X837665Y521648D01*
X837832Y521643D01*
X835852Y519663D01*
X835846Y519830D01*
X835826Y519994D01*
X835791Y520156D01*
X835742Y520315D01*
X835678Y520473D01*
X835600Y520627D01*
X835507Y520779D01*
X835400Y520929D01*
X835278Y521077D01*
X835142Y521222D01*
X836273Y522353D01*
X836418Y522217D01*
D02*
G37*
G36*
X523069Y521867D02*
X523212Y521758D01*
X523363Y521662D01*
X523522Y521579D01*
X523691Y521509D01*
X523868Y521452D01*
X524055Y521408D01*
X524250Y521377D01*
X524454Y521360D01*
X524666Y521356D01*
X522686Y519376D01*
X522682Y519588D01*
X522664Y519792D01*
X522634Y519987D01*
X522590Y520173D01*
X522533Y520351D01*
X522463Y520519D01*
X522380Y520679D01*
X522284Y520830D01*
X522175Y520972D01*
X522052Y521106D01*
X522936Y521990D01*
X523069Y521867D01*
D02*
G37*
G36*
X608744Y519336D02*
X608570Y519469D01*
X608396Y519588D01*
X608222Y519693D01*
X608048Y519784D01*
X607873Y519860D01*
X607697Y519923D01*
X607522Y519972D01*
X607346Y520007D01*
X607169Y520028D01*
X606993Y520035D01*
X606838Y521285D01*
X607022Y521293D01*
X607200Y521318D01*
X607373Y521360D01*
X607540Y521418D01*
X607701Y521493D01*
X607855Y521585D01*
X608005Y521693D01*
X608148Y521818D01*
X608286Y521959D01*
X608417Y522117D01*
X608744Y519336D01*
D02*
G37*
G36*
X447774Y521737D02*
X447792Y521534D01*
X447822Y521339D01*
X447866Y521152D01*
X447923Y520975D01*
X447993Y520806D01*
X448076Y520647D01*
X448172Y520496D01*
X448282Y520353D01*
X448404Y520220D01*
X447520Y519336D01*
X447387Y519459D01*
X447244Y519568D01*
X447093Y519664D01*
X446934Y519747D01*
X446765Y519817D01*
X446588Y519874D01*
X446401Y519918D01*
X446206Y519948D01*
X446003Y519966D01*
X445790Y519970D01*
X447770Y521950D01*
X447774Y521737D01*
D02*
G37*
G36*
X478457Y520076D02*
X478484Y519909D01*
X478529Y519741D01*
X478592Y519572D01*
X478673Y519402D01*
X478772Y519230D01*
X478889Y519058D01*
X479024Y518884D01*
X479177Y518709D01*
X479348Y518534D01*
X476548D01*
X476719Y518709D01*
X477007Y519058D01*
X477124Y519230D01*
X477223Y519402D01*
X477304Y519572D01*
X477367Y519741D01*
X477412Y519909D01*
X477439Y520076D01*
X477448Y520242D01*
X478448D01*
X478457Y520076D01*
D02*
G37*
G36*
X514636Y518410D02*
X514482Y518557D01*
X514326Y518689D01*
X514166Y518805D01*
X514003Y518906D01*
X513838Y518991D01*
X513669Y519061D01*
X513497Y519115D01*
X513323Y519154D01*
X513145Y519177D01*
X512964Y519185D01*
Y520435D01*
X513145Y520443D01*
X513323Y520466D01*
X513497Y520505D01*
X513669Y520559D01*
X513838Y520629D01*
X514003Y520714D01*
X514166Y520815D01*
X514326Y520931D01*
X514482Y521063D01*
X514636Y521210D01*
Y518410D01*
D02*
G37*
G36*
X497304Y516657D02*
X497322Y516454D01*
X497352Y516259D01*
X497396Y516072D01*
X497453Y515895D01*
X497523Y515726D01*
X497606Y515567D01*
X497702Y515416D01*
X497812Y515273D01*
X497934Y515140D01*
X497050Y514256D01*
X496917Y514379D01*
X496774Y514488D01*
X496623Y514584D01*
X496464Y514667D01*
X496295Y514737D01*
X496118Y514794D01*
X495932Y514838D01*
X495736Y514868D01*
X495533Y514886D01*
X495320Y514890D01*
X497300Y516870D01*
X497304Y516657D01*
D02*
G37*
G36*
X401407Y513890D02*
X401241Y514029D01*
X401074Y514153D01*
X400906Y514263D01*
X400736Y514358D01*
X400565Y514439D01*
X400392Y514505D01*
X400218Y514556D01*
X400042Y514593D01*
X399865Y514615D01*
X399687Y514622D01*
X399595Y515872D01*
X399778Y515880D01*
X399957Y515904D01*
X400130Y515945D01*
X400299Y516002D01*
X400463Y516075D01*
X400623Y516164D01*
X400778Y516269D01*
X400928Y516391D01*
X401073Y516529D01*
X401214Y516683D01*
X401407Y513890D01*
D02*
G37*
G36*
X448339Y514938D02*
X448479Y514538D01*
X448558Y514353D01*
X448735Y514013D01*
X448832Y513859D01*
X448936Y513714D01*
X449046Y513580D01*
X449162Y513456D01*
X448534Y512316D01*
X448395Y512443D01*
X448251Y512550D01*
X448100Y512638D01*
X447944Y512708D01*
X447783Y512758D01*
X447615Y512789D01*
X447442Y512801D01*
X447263Y512794D01*
X447079Y512768D01*
X446889Y512723D01*
X448278Y515154D01*
X448339Y514938D01*
D02*
G37*
G36*
X432768Y513884D02*
X432785Y513680D01*
X432816Y513485D01*
X432859Y513299D01*
X432916Y513122D01*
X432986Y512953D01*
X433069Y512793D01*
X433165Y512642D01*
X433275Y512500D01*
X433397Y512367D01*
X432513Y511483D01*
X432380Y511605D01*
X432238Y511715D01*
X432087Y511811D01*
X431927Y511894D01*
X431758Y511964D01*
X431581Y512021D01*
X431395Y512064D01*
X431200Y512095D01*
X430996Y512112D01*
X430783Y512117D01*
X432763Y514097D01*
X432768Y513884D01*
D02*
G37*
G36*
X337800Y509810D02*
X337581Y509806D01*
X337371Y509789D01*
X337172Y509759D01*
X336982Y509716D01*
X336802Y509660D01*
X336631Y509592D01*
X336470Y509510D01*
X336319Y509416D01*
X336178Y509308D01*
X336047Y509188D01*
X335198Y510037D01*
X335318Y510168D01*
X335426Y510309D01*
X335520Y510460D01*
X335602Y510621D01*
X335670Y510792D01*
X335726Y510972D01*
X335769Y511162D01*
X335799Y511361D01*
X335816Y511571D01*
X335820Y511790D01*
X337800Y509810D01*
D02*
G37*
G36*
X668439Y508137D02*
X668573Y508027D01*
X668718Y507924D01*
X668873Y507826D01*
X669037Y507735D01*
X669212Y507649D01*
X669592Y507498D01*
X669798Y507431D01*
X670013Y507371D01*
X667585Y505977D01*
X667630Y506167D01*
X667655Y506352D01*
X667662Y506531D01*
X667650Y506704D01*
X667619Y506872D01*
X667568Y507034D01*
X667499Y507190D01*
X667411Y507340D01*
X667303Y507485D01*
X667177Y507623D01*
X668315Y508253D01*
X668439Y508137D01*
D02*
G37*
G36*
X367777Y507955D02*
X367812Y507748D01*
X367858Y507551D01*
X367914Y507364D01*
X367981Y507185D01*
X368059Y507017D01*
X368147Y506858D01*
X368246Y506708D01*
X368356Y506568D01*
X368477Y506437D01*
X367682Y505464D01*
X367546Y505588D01*
X367403Y505697D01*
X367251Y505790D01*
X367092Y505868D01*
X366925Y505930D01*
X366750Y505977D01*
X366567Y506009D01*
X366376Y506025D01*
X366177Y506026D01*
X365971Y506011D01*
X367753Y508171D01*
X367777Y507955D01*
D02*
G37*
G36*
X277816Y504008D02*
X277976Y503872D01*
X278139Y503752D01*
X278303Y503648D01*
X278470Y503560D01*
X278639Y503488D01*
X278811Y503432D01*
X278984Y503392D01*
X279160Y503368D01*
X279338Y503360D01*
Y502160D01*
X279160Y502152D01*
X278984Y502128D01*
X278811Y502088D01*
X278639Y502032D01*
X278470Y501960D01*
X278303Y501872D01*
X278139Y501768D01*
X277976Y501648D01*
X277816Y501512D01*
X277658Y501360D01*
Y504160D01*
X277816Y504008D01*
D02*
G37*
G36*
X667046Y502739D02*
X667189Y502629D01*
X667340Y502534D01*
X667500Y502452D01*
X667668Y502384D01*
X667845Y502329D01*
X668031Y502288D01*
X668225Y502261D01*
X668428Y502247D01*
X668639Y502247D01*
X666701Y500226D01*
X666693Y500440D01*
X666671Y500644D01*
X666637Y500840D01*
X666591Y501027D01*
X666532Y501204D01*
X666460Y501373D01*
X666376Y501533D01*
X666279Y501684D01*
X666170Y501825D01*
X666048Y501958D01*
X666912Y502861D01*
X667046Y502739D01*
D02*
G37*
G36*
X243652Y497729D02*
X243536Y497603D01*
X243426Y497468D01*
X243323Y497323D01*
X243226Y497167D01*
X243136Y497002D01*
X243053Y496826D01*
X242907Y496445D01*
X242845Y496239D01*
X242789Y496023D01*
X241346Y498422D01*
X241539Y498381D01*
X241725Y498358D01*
X241906Y498354D01*
X242080Y498368D01*
X242249Y498401D01*
X242412Y498453D01*
X242568Y498523D01*
X242719Y498612D01*
X242864Y498720D01*
X243002Y498846D01*
X243652Y497729D01*
D02*
G37*
G36*
X589665Y498470D02*
X590025Y498258D01*
X590204Y498172D01*
X590382Y498099D01*
X590560Y498040D01*
X590737Y497993D01*
X590913Y497960D01*
X591088Y497940D01*
X591263Y497934D01*
X591482Y496684D01*
X591296Y496675D01*
X591118Y496650D01*
X590946Y496607D01*
X590782Y496548D01*
X590624Y496471D01*
X590474Y496378D01*
X590330Y496267D01*
X590194Y496140D01*
X590064Y495995D01*
X589942Y495834D01*
X589484Y498596D01*
X589665Y498470D01*
D02*
G37*
G36*
X563722Y495170D02*
X563568Y495317D01*
X563412Y495449D01*
X563252Y495565D01*
X563090Y495666D01*
X562924Y495751D01*
X562755Y495821D01*
X562584Y495875D01*
X562409Y495914D01*
X562231Y495937D01*
X562050Y495945D01*
Y497195D01*
X562231Y497203D01*
X562409Y497226D01*
X562584Y497265D01*
X562755Y497319D01*
X562924Y497389D01*
X563090Y497474D01*
X563252Y497575D01*
X563412Y497691D01*
X563568Y497823D01*
X563722Y497970D01*
Y495170D01*
D02*
G37*
G36*
X248587Y494162D02*
X248465Y494029D01*
X248356Y493886D01*
X248260Y493736D01*
X248176Y493576D01*
X248106Y493407D01*
X248050Y493230D01*
X248006Y493044D01*
X247975Y492849D01*
X247958Y492645D01*
X247953Y492432D01*
X245973Y494412D01*
X246186Y494416D01*
X246390Y494434D01*
X246585Y494464D01*
X246771Y494508D01*
X246949Y494565D01*
X247117Y494635D01*
X247277Y494718D01*
X247428Y494814D01*
X247570Y494924D01*
X247703Y495046D01*
X248587Y494162D01*
D02*
G37*
G36*
X464054Y488943D02*
X463875Y489112D01*
X463522Y489398D01*
X463348Y489514D01*
X463175Y489612D01*
X463004Y489692D01*
X462834Y489755D01*
X462666Y489799D01*
X462499Y489826D01*
X462334Y489835D01*
X462320Y490835D01*
X462487Y490844D01*
X462654Y490871D01*
X462822Y490917D01*
X462990Y490980D01*
X463159Y491062D01*
X463330Y491162D01*
X463500Y491280D01*
X463672Y491416D01*
X463844Y491570D01*
X464017Y491743D01*
X464054Y488943D01*
D02*
G37*
G36*
X343630Y489035D02*
X343653Y488857D01*
X343692Y488682D01*
X343746Y488511D01*
X343816Y488342D01*
X343901Y488176D01*
X344002Y488014D01*
X344118Y487854D01*
X344250Y487698D01*
X344397Y487544D01*
X341597D01*
X341745Y487698D01*
X341876Y487854D01*
X341993Y488014D01*
X342093Y488176D01*
X342179Y488342D01*
X342248Y488511D01*
X342303Y488682D01*
X342341Y488857D01*
X342365Y489035D01*
X342372Y489216D01*
X343622D01*
X343630Y489035D01*
D02*
G37*
G36*
X631522Y488231D02*
X631359Y488113D01*
X631213Y487988D01*
X631084Y487856D01*
X630973Y487716D01*
X630878Y487568D01*
X630801Y487412D01*
X630741Y487249D01*
X630698Y487079D01*
X630672Y486900D01*
X630664Y486714D01*
X629414Y486970D01*
X629407Y487143D01*
X629388Y487318D01*
X629356Y487494D01*
X629311Y487672D01*
X629254Y487850D01*
X629183Y488030D01*
X629100Y488211D01*
X629003Y488394D01*
X628773Y488763D01*
X631522Y488231D01*
D02*
G37*
G36*
X637571Y488693D02*
X637267Y488036D01*
X637192Y487839D01*
X637084Y487476D01*
X637050Y487311D01*
X637030Y487156D01*
X637023Y487012D01*
X636023Y486700D01*
X636013Y486877D01*
X635983Y487045D01*
X635933Y487207D01*
X635862Y487361D01*
X635772Y487507D01*
X635661Y487646D01*
X635530Y487778D01*
X635380Y487903D01*
X635209Y488019D01*
X635018Y488129D01*
X637700Y488933D01*
X637571Y488693D01*
D02*
G37*
G36*
X618470Y486950D02*
X618257Y486946D01*
X618054Y486928D01*
X617859Y486898D01*
X617672Y486854D01*
X617495Y486797D01*
X617326Y486727D01*
X617167Y486644D01*
X617016Y486548D01*
X616873Y486438D01*
X616740Y486316D01*
X615856Y487200D01*
X615979Y487333D01*
X616088Y487476D01*
X616184Y487627D01*
X616267Y487786D01*
X616337Y487955D01*
X616394Y488132D01*
X616438Y488318D01*
X616468Y488514D01*
X616486Y488717D01*
X616490Y488930D01*
X618470Y486950D01*
D02*
G37*
G36*
X552292Y483740D02*
X552138Y483887D01*
X551982Y484019D01*
X551822Y484135D01*
X551660Y484236D01*
X551494Y484321D01*
X551325Y484391D01*
X551154Y484445D01*
X550979Y484484D01*
X550801Y484507D01*
X550620Y484515D01*
Y485765D01*
X550801Y485773D01*
X550979Y485796D01*
X551154Y485835D01*
X551325Y485889D01*
X551494Y485959D01*
X551660Y486044D01*
X551822Y486145D01*
X551982Y486261D01*
X552138Y486393D01*
X552292Y486540D01*
Y483740D01*
D02*
G37*
G36*
X509963Y480442D02*
X509986Y480264D01*
X510025Y480089D01*
X510079Y479917D01*
X510149Y479749D01*
X510234Y479583D01*
X510335Y479420D01*
X510451Y479261D01*
X510583Y479104D01*
X510730Y478951D01*
X507930D01*
X508077Y479104D01*
X508209Y479261D01*
X508325Y479420D01*
X508426Y479583D01*
X508511Y479749D01*
X508581Y479917D01*
X508635Y480089D01*
X508674Y480264D01*
X508697Y480442D01*
X508705Y480622D01*
X509955D01*
X509963Y480442D01*
D02*
G37*
G36*
X514403Y480767D02*
X514429Y480589D01*
X514473Y480425D01*
X514535Y480273D01*
X514615Y480134D01*
X514713Y480009D01*
X514828Y479896D01*
X514961Y479797D01*
X515112Y479710D01*
X515280Y479637D01*
X512721Y478517D01*
X512801Y478727D01*
X512936Y479160D01*
X512991Y479382D01*
X513076Y479838D01*
X513106Y480072D01*
X513139Y480551D01*
X513144Y480796D01*
X514394Y480958D01*
X514403Y480767D01*
D02*
G37*
G36*
X544406Y477176D02*
X544423Y476972D01*
X544454Y476777D01*
X544498Y476591D01*
X544555Y476413D01*
X544624Y476245D01*
X544708Y476085D01*
X544804Y475934D01*
X544913Y475792D01*
X545036Y475658D01*
X544152Y474775D01*
X544018Y474897D01*
X543876Y475006D01*
X543725Y475102D01*
X543565Y475185D01*
X543397Y475255D01*
X543219Y475312D01*
X543033Y475356D01*
X542838Y475387D01*
X542634Y475404D01*
X542422Y475408D01*
X544402Y477388D01*
X544406Y477176D01*
D02*
G37*
G36*
X230791Y476880D02*
X230948Y476749D01*
X231108Y476632D01*
X231270Y476532D01*
X231436Y476446D01*
X231604Y476377D01*
X231776Y476323D01*
X231951Y476284D01*
X232129Y476260D01*
X232310Y476253D01*
Y475003D01*
X232129Y474995D01*
X231951Y474972D01*
X231776Y474933D01*
X231604Y474879D01*
X231436Y474809D01*
X231270Y474724D01*
X231108Y474623D01*
X230948Y474507D01*
X230791Y474375D01*
X230638Y474228D01*
Y477028D01*
X230791Y476880D01*
D02*
G37*
G36*
X481366Y472368D02*
X481234Y472211D01*
X481118Y472052D01*
X481017Y471889D01*
X480932Y471724D01*
X480862Y471555D01*
X480808Y471383D01*
X480769Y471208D01*
X480746Y471031D01*
X480738Y470850D01*
X479488D01*
X479480Y471031D01*
X479457Y471208D01*
X479418Y471383D01*
X479364Y471555D01*
X479294Y471724D01*
X479209Y471889D01*
X479108Y472052D01*
X478992Y472211D01*
X478860Y472368D01*
X478713Y472521D01*
X481513D01*
X481366Y472368D01*
D02*
G37*
G36*
X342977Y471230D02*
X342765Y471226D01*
X342561Y471208D01*
X342366Y471178D01*
X342180Y471134D01*
X342002Y471077D01*
X341834Y471007D01*
X341674Y470924D01*
X341523Y470828D01*
X341381Y470719D01*
X341247Y470596D01*
X340364Y471480D01*
X340486Y471613D01*
X340595Y471756D01*
X340691Y471907D01*
X340774Y472066D01*
X340844Y472235D01*
X340901Y472412D01*
X340945Y472598D01*
X340976Y472794D01*
X340993Y472997D01*
X340998Y473210D01*
X342977Y471230D01*
D02*
G37*
G36*
X538769Y460969D02*
X538647Y460835D01*
X538538Y460693D01*
X538442Y460542D01*
X538358Y460382D01*
X538289Y460214D01*
X538232Y460036D01*
X538188Y459850D01*
X538157Y459655D01*
X538140Y459451D01*
X538135Y459239D01*
X536156Y461218D01*
X536368Y461223D01*
X536572Y461240D01*
X536767Y461271D01*
X536953Y461315D01*
X537131Y461372D01*
X537299Y461441D01*
X537459Y461525D01*
X537610Y461621D01*
X537752Y461730D01*
X537886Y461852D01*
X538769Y460969D01*
D02*
G37*
G36*
X600247Y456524D02*
X600026Y456569D01*
X599814Y456596D01*
X599613Y456605D01*
X599422Y456596D01*
X599241Y456570D01*
X599070Y456525D01*
X598909Y456463D01*
X598759Y456382D01*
X598618Y456284D01*
X598488Y456168D01*
X597948Y457041D01*
X598049Y457153D01*
X598146Y457281D01*
X598238Y457426D01*
X598326Y457587D01*
X598409Y457764D01*
X598487Y457957D01*
X598631Y458393D01*
X598695Y458635D01*
X598755Y458894D01*
X600247Y456524D01*
D02*
G37*
G36*
X342685Y455935D02*
X342472Y455931D01*
X342268Y455913D01*
X342073Y455882D01*
X341887Y455839D01*
X341710Y455782D01*
X341541Y455712D01*
X341381Y455629D01*
X341230Y455533D01*
X341088Y455423D01*
X340955Y455301D01*
X340071Y456185D01*
X340193Y456318D01*
X340302Y456460D01*
X340398Y456611D01*
X340482Y456771D01*
X340552Y456940D01*
X340608Y457117D01*
X340652Y457303D01*
X340683Y457498D01*
X340700Y457702D01*
X340705Y457915D01*
X342685Y455935D01*
D02*
G37*
G36*
X644677Y454898D02*
X644463Y454886D01*
X644258Y454862D01*
X644062Y454826D01*
X643875Y454777D01*
X643697Y454716D01*
X643528Y454644D01*
X643369Y454558D01*
X643218Y454461D01*
X643076Y454352D01*
X642944Y454230D01*
X642027Y455080D01*
X642150Y455215D01*
X642259Y455357D01*
X642354Y455508D01*
X642435Y455668D01*
X642502Y455836D01*
X642555Y456013D01*
X642594Y456198D01*
X642619Y456392D01*
X642630Y456594D01*
X642627Y456805D01*
X644677Y454898D01*
D02*
G37*
G36*
X628630Y452660D02*
X628417Y452656D01*
X628214Y452638D01*
X628018Y452608D01*
X627832Y452564D01*
X627655Y452507D01*
X627486Y452437D01*
X627327Y452354D01*
X627176Y452258D01*
X627033Y452149D01*
X626900Y452026D01*
X626016Y452910D01*
X626138Y453043D01*
X626248Y453186D01*
X626344Y453337D01*
X626427Y453496D01*
X626497Y453665D01*
X626554Y453842D01*
X626598Y454029D01*
X626628Y454224D01*
X626646Y454427D01*
X626650Y454640D01*
X628630Y452660D01*
D02*
G37*
G36*
X550578Y452851D02*
X550574Y452729D01*
X550585Y452607D01*
X550611Y452485D01*
X550652Y452362D01*
X550708Y452240D01*
X550778Y452117D01*
X550864Y451995D01*
X550964Y451872D01*
X551079Y451750D01*
X550372Y451043D01*
X550254Y451153D01*
X550135Y451249D01*
X550017Y451329D01*
X549898Y451394D01*
X549779Y451444D01*
X549660Y451478D01*
X549541Y451498D01*
X549422Y451502D01*
X549302Y451491D01*
X549183Y451465D01*
X550596Y452973D01*
X550578Y452851D01*
D02*
G37*
G36*
X264244Y453486D02*
X264400Y453354D01*
X264560Y453238D01*
X264722Y453137D01*
X264888Y453052D01*
X265057Y452982D01*
X265229Y452928D01*
X265403Y452889D01*
X265581Y452866D01*
X265762Y452858D01*
Y451608D01*
X265581Y451600D01*
X265403Y451577D01*
X265229Y451538D01*
X265057Y451484D01*
X264888Y451414D01*
X264722Y451329D01*
X264560Y451228D01*
X264400Y451112D01*
X264244Y450980D01*
X264090Y450833D01*
Y453633D01*
X264244Y453486D01*
D02*
G37*
G36*
X140480Y447579D02*
X140498Y447375D01*
X140528Y447180D01*
X140572Y446994D01*
X140629Y446817D01*
X140699Y446648D01*
X140782Y446488D01*
X140878Y446338D01*
X140987Y446195D01*
X141110Y446062D01*
X140226Y445178D01*
X140093Y445300D01*
X139950Y445410D01*
X139799Y445506D01*
X139640Y445589D01*
X139471Y445659D01*
X139294Y445716D01*
X139107Y445760D01*
X138912Y445790D01*
X138709Y445808D01*
X138496Y445812D01*
X140476Y447792D01*
X140480Y447579D01*
D02*
G37*
G36*
X420872Y438174D02*
X420761Y438050D01*
X420662Y437913D01*
X420575Y437763D01*
X420500Y437598D01*
X420437Y437421D01*
X420386Y437230D01*
X420346Y437025D01*
X420319Y436807D01*
X420304Y436575D01*
X420300Y436330D01*
X418320Y438310D01*
X418566Y438313D01*
X419016Y438356D01*
X419220Y438395D01*
X419412Y438446D01*
X419589Y438509D01*
X419753Y438584D01*
X419904Y438671D01*
X420041Y438770D01*
X420165Y438881D01*
X420872Y438174D01*
D02*
G37*
G36*
X306805Y436693D02*
X306826Y436529D01*
X306860Y436367D01*
X306910Y436207D01*
X306973Y436050D01*
X307052Y435896D01*
X307145Y435743D01*
X307252Y435593D01*
X307374Y435446D01*
X307510Y435301D01*
X306379Y434170D01*
X306234Y434306D01*
X306087Y434428D01*
X305937Y434535D01*
X305784Y434628D01*
X305630Y434707D01*
X305473Y434771D01*
X305313Y434820D01*
X305151Y434854D01*
X304987Y434874D01*
X304820Y434880D01*
X306800Y436860D01*
X306805Y436693D01*
D02*
G37*
G36*
X725012Y432940D02*
X724858Y433087D01*
X724702Y433219D01*
X724542Y433335D01*
X724380Y433436D01*
X724214Y433521D01*
X724045Y433591D01*
X723874Y433645D01*
X723699Y433684D01*
X723521Y433707D01*
X723340Y433715D01*
Y434965D01*
X723521Y434973D01*
X723699Y434996D01*
X723874Y435035D01*
X724045Y435089D01*
X724214Y435159D01*
X724380Y435244D01*
X724542Y435345D01*
X724702Y435461D01*
X724858Y435593D01*
X725012Y435740D01*
Y432940D01*
D02*
G37*
G36*
X547831Y431264D02*
X547724Y431146D01*
X547626Y431012D01*
X547536Y430864D01*
X547454Y430700D01*
X547381Y430522D01*
X547316Y430328D01*
X547260Y430120D01*
X547211Y429897D01*
X547140Y429405D01*
X545398Y431597D01*
X545633Y431575D01*
X545855Y431567D01*
X546066Y431575D01*
X546265Y431598D01*
X546451Y431637D01*
X546627Y431690D01*
X546790Y431758D01*
X546941Y431842D01*
X547080Y431941D01*
X547208Y432055D01*
X547831Y431264D01*
D02*
G37*
G36*
X349105Y433890D02*
X349254Y433770D01*
X349403Y433670D01*
X349554Y433588D01*
X349706Y433525D01*
X349858Y433480D01*
X350012Y433453D01*
X350167Y433446D01*
X350323Y433457D01*
X350480Y433486D01*
X349007Y431105D01*
X348967Y431261D01*
X348915Y431417D01*
X348853Y431570D01*
X348780Y431722D01*
X348697Y431872D01*
X348603Y432021D01*
X348498Y432169D01*
X348257Y432459D01*
X348121Y432601D01*
X348957Y434027D01*
X349105Y433890D01*
D02*
G37*
G36*
X818963Y428369D02*
X818986Y428191D01*
X819025Y428016D01*
X819079Y427845D01*
X819149Y427676D01*
X819234Y427510D01*
X819335Y427348D01*
X819451Y427188D01*
X819583Y427032D01*
X819730Y426878D01*
X816930D01*
X817077Y427032D01*
X817209Y427188D01*
X817325Y427348D01*
X817426Y427510D01*
X817511Y427676D01*
X817581Y427845D01*
X817635Y428016D01*
X817674Y428191D01*
X817697Y428369D01*
X817705Y428550D01*
X818955D01*
X818963Y428369D01*
D02*
G37*
G36*
X559821Y426864D02*
X559593Y426898D01*
X559375Y426915D01*
X559169Y426916D01*
X558974Y426900D01*
X558790Y426868D01*
X558616Y426819D01*
X558454Y426753D01*
X558303Y426671D01*
X558163Y426573D01*
X558034Y426458D01*
X557452Y427289D01*
X557556Y427405D01*
X557654Y427536D01*
X557745Y427682D01*
X557830Y427845D01*
X557908Y428023D01*
X557980Y428217D01*
X558045Y428426D01*
X558155Y428891D01*
X558200Y429147D01*
X559821Y426864D01*
D02*
G37*
G36*
X272069Y428368D02*
X272086Y428164D01*
X272117Y427969D01*
X272161Y427783D01*
X272218Y427606D01*
X272287Y427437D01*
X272370Y427277D01*
X272467Y427126D01*
X272576Y426984D01*
X272698Y426851D01*
X271814Y425967D01*
X271681Y426089D01*
X271539Y426199D01*
X271388Y426295D01*
X271228Y426378D01*
X271060Y426448D01*
X270882Y426505D01*
X270696Y426548D01*
X270501Y426579D01*
X270297Y426596D01*
X270084Y426601D01*
X272064Y428581D01*
X272069Y428368D01*
D02*
G37*
G36*
X822963Y427962D02*
X823106Y427852D01*
X823257Y427756D01*
X823416Y427673D01*
X823585Y427603D01*
X823762Y427546D01*
X823949Y427502D01*
X824144Y427472D01*
X824347Y427454D01*
X824560Y427450D01*
X822580Y425470D01*
X822576Y425683D01*
X822558Y425886D01*
X822528Y426082D01*
X822484Y426268D01*
X822427Y426445D01*
X822357Y426614D01*
X822274Y426773D01*
X822178Y426924D01*
X822069Y427067D01*
X821946Y427200D01*
X822830Y428084D01*
X822963Y427962D01*
D02*
G37*
G36*
X329627Y423580D02*
X329770Y423470D01*
X329921Y423374D01*
X330080Y423291D01*
X330249Y423221D01*
X330426Y423164D01*
X330612Y423121D01*
X330807Y423090D01*
X331011Y423073D01*
X331224Y423068D01*
X329244Y421088D01*
X329240Y421301D01*
X329222Y421505D01*
X329192Y421700D01*
X329148Y421886D01*
X329091Y422063D01*
X329021Y422232D01*
X328938Y422392D01*
X328842Y422543D01*
X328732Y422685D01*
X328610Y422818D01*
X329494Y423702D01*
X329627Y423580D01*
D02*
G37*
G36*
X492029Y422386D02*
X492038Y422184D01*
X492062Y421991D01*
X492100Y421806D01*
X492152Y421630D01*
X492218Y421462D01*
X492299Y421302D01*
X492394Y421151D01*
X492503Y421008D01*
X492626Y420873D01*
X491700Y420032D01*
X491568Y420153D01*
X491426Y420263D01*
X491276Y420360D01*
X491116Y420446D01*
X490948Y420519D01*
X490770Y420581D01*
X490583Y420631D01*
X490386Y420668D01*
X490181Y420694D01*
X489966Y420708D01*
X492034Y422596D01*
X492029Y422386D01*
D02*
G37*
G36*
X491942Y416066D02*
X491960Y415862D01*
X491990Y415667D01*
X492034Y415480D01*
X492091Y415303D01*
X492161Y415135D01*
X492244Y414975D01*
X492340Y414824D01*
X492449Y414682D01*
X492572Y414548D01*
X491688Y413664D01*
X491555Y413787D01*
X491412Y413896D01*
X491261Y413992D01*
X491102Y414075D01*
X490933Y414145D01*
X490756Y414202D01*
X490569Y414246D01*
X490374Y414276D01*
X490171Y414294D01*
X489958Y414298D01*
X491938Y416278D01*
X491942Y416066D01*
D02*
G37*
G36*
X330281Y414795D02*
X330153Y414633D01*
X330039Y414469D01*
X329941Y414303D01*
X329858Y414134D01*
X329790Y413963D01*
X329738Y413790D01*
X329700Y413615D01*
X329677Y413438D01*
X329670Y413258D01*
X328420Y413212D01*
X328412Y413394D01*
X328388Y413572D01*
X328348Y413747D01*
X328293Y413917D01*
X328221Y414083D01*
X328134Y414246D01*
X328031Y414405D01*
X327912Y414560D01*
X327777Y414711D01*
X327626Y414858D01*
X330424Y414954D01*
X330281Y414795D01*
D02*
G37*
G36*
X321148Y413960D02*
X321339Y413800D01*
X321427Y413739D01*
X321508Y413692D01*
X321585Y413658D01*
X321655Y413637D01*
X321721Y413629D01*
X321780Y413634D01*
X321835Y413653D01*
X320754Y412270D01*
X320757Y412326D01*
X320747Y412389D01*
X320723Y412460D01*
X320685Y412539D01*
X320633Y412626D01*
X320566Y412720D01*
X320486Y412823D01*
X320283Y413051D01*
X320161Y413176D01*
X321045Y414060D01*
X321148Y413960D01*
D02*
G37*
G36*
X696136Y411272D02*
X696014Y411386D01*
X695884Y411488D01*
X695745Y411578D01*
X695597Y411656D01*
X695441Y411722D01*
X695276Y411776D01*
X695103Y411818D01*
X694921Y411848D01*
X694730Y411866D01*
X694531Y411872D01*
Y413472D01*
X694730Y413478D01*
X694921Y413496D01*
X695103Y413526D01*
X695276Y413568D01*
X695441Y413622D01*
X695597Y413688D01*
X695745Y413766D01*
X695884Y413856D01*
X696014Y413958D01*
X696136Y414072D01*
Y411272D01*
D02*
G37*
G36*
X598623Y410598D02*
X598487Y410454D01*
X598363Y410308D01*
X598252Y410160D01*
X598153Y410009D01*
X598067Y409856D01*
X597993Y409701D01*
X597932Y409543D01*
X597884Y409383D01*
X597848Y409220D01*
X597824Y409055D01*
X596081Y411246D01*
X596245Y411234D01*
X596407Y411238D01*
X596567Y411259D01*
X596725Y411297D01*
X596881Y411351D01*
X597036Y411422D01*
X597188Y411509D01*
X597338Y411613D01*
X597486Y411733D01*
X597632Y411870D01*
X598623Y410598D01*
D02*
G37*
G36*
X316634Y409446D02*
X316825Y409286D01*
X316913Y409225D01*
X316994Y409178D01*
X317071Y409144D01*
X317141Y409123D01*
X317207Y409115D01*
X317266Y409120D01*
X317321Y409139D01*
X316239Y407756D01*
X316243Y407812D01*
X316233Y407875D01*
X316209Y407946D01*
X316171Y408025D01*
X316119Y408112D01*
X316052Y408206D01*
X315972Y408309D01*
X315769Y408537D01*
X315647Y408662D01*
X316530Y409546D01*
X316634Y409446D01*
D02*
G37*
G36*
X206729Y408150D02*
X206606Y408017D01*
X206497Y407874D01*
X206401Y407723D01*
X206318Y407564D01*
X206248Y407395D01*
X206191Y407218D01*
X206147Y407032D01*
X206117Y406836D01*
X206099Y406633D01*
X206095Y406420D01*
X204115Y408400D01*
X204327Y408404D01*
X204531Y408422D01*
X204726Y408452D01*
X204912Y408496D01*
X205090Y408553D01*
X205258Y408623D01*
X205418Y408706D01*
X205569Y408802D01*
X205711Y408912D01*
X205845Y409034D01*
X206729Y408150D01*
D02*
G37*
G36*
X245547Y397089D02*
X245425Y396955D01*
X245316Y396813D01*
X245219Y396662D01*
X245136Y396502D01*
X245066Y396334D01*
X245010Y396156D01*
X244966Y395970D01*
X244935Y395775D01*
X244918Y395571D01*
X244913Y395359D01*
X242934Y397338D01*
X243146Y397343D01*
X243350Y397360D01*
X243545Y397391D01*
X243731Y397435D01*
X243909Y397491D01*
X244077Y397561D01*
X244237Y397645D01*
X244388Y397741D01*
X244530Y397850D01*
X244663Y397972D01*
X245547Y397089D01*
D02*
G37*
G36*
X302629Y394240D02*
X302416Y394236D01*
X302212Y394218D01*
X302017Y394188D01*
X301831Y394144D01*
X301653Y394087D01*
X301485Y394017D01*
X301325Y393934D01*
X301174Y393838D01*
X301032Y393728D01*
X300899Y393606D01*
X300015Y394490D01*
X300137Y394623D01*
X300247Y394766D01*
X300343Y394917D01*
X300426Y395076D01*
X300496Y395245D01*
X300553Y395422D01*
X300596Y395608D01*
X300627Y395804D01*
X300644Y396007D01*
X300649Y396220D01*
X302629Y394240D01*
D02*
G37*
G36*
X458429Y394636D02*
X458141Y394287D01*
X458024Y394115D01*
X457925Y393944D01*
X457844Y393773D01*
X457781Y393604D01*
X457736Y393436D01*
X457709Y393269D01*
X457700Y393103D01*
X456700D01*
X456691Y393269D01*
X456664Y393436D01*
X456619Y393604D01*
X456556Y393773D01*
X456475Y393944D01*
X456376Y394115D01*
X456259Y394287D01*
X456124Y394461D01*
X455971Y394636D01*
X455800Y394812D01*
X458600D01*
X458429Y394636D01*
D02*
G37*
G36*
X252528Y388337D02*
X252406Y388205D01*
X252297Y388063D01*
X252200Y387913D01*
X252115Y387753D01*
X252042Y387584D01*
X251982Y387406D01*
X251934Y387219D01*
X251899Y387023D01*
X251876Y386818D01*
X251865Y386604D01*
X249948Y388645D01*
X250159Y388643D01*
X250361Y388655D01*
X250555Y388681D01*
X250741Y388721D01*
X250917Y388774D01*
X251086Y388842D01*
X251245Y388923D01*
X251397Y389018D01*
X251539Y389127D01*
X251674Y389250D01*
X252528Y388337D01*
D02*
G37*
G36*
X326232Y387220D02*
X326078Y387367D01*
X325922Y387499D01*
X325762Y387615D01*
X325600Y387716D01*
X325434Y387801D01*
X325265Y387871D01*
X325094Y387925D01*
X324919Y387964D01*
X324741Y387987D01*
X324560Y387995D01*
Y389245D01*
X324741Y389253D01*
X324919Y389276D01*
X325094Y389315D01*
X325265Y389369D01*
X325434Y389439D01*
X325600Y389524D01*
X325762Y389625D01*
X325922Y389741D01*
X326078Y389873D01*
X326232Y390020D01*
Y387220D01*
D02*
G37*
G36*
X475121Y379512D02*
X475258Y379413D01*
X475409Y379326D01*
X475573Y379251D01*
X475751Y379188D01*
X475942Y379137D01*
X476147Y379098D01*
X476365Y379071D01*
X476597Y379055D01*
X476842Y379052D01*
X474862Y377072D01*
X474859Y377317D01*
X474816Y377767D01*
X474777Y377972D01*
X474725Y378163D01*
X474662Y378341D01*
X474587Y378505D01*
X474500Y378655D01*
X474401Y378792D01*
X474291Y378916D01*
X474998Y379623D01*
X475121Y379512D01*
D02*
G37*
G36*
X379798Y361311D02*
X379689Y361189D01*
X379590Y361053D01*
X379502Y360903D01*
X379425Y360739D01*
X379358Y360561D01*
X379303Y360368D01*
X379258Y360162D01*
X379224Y359942D01*
X379201Y359708D01*
X379189Y359460D01*
X377282Y361510D01*
X377524Y361505D01*
X377754Y361513D01*
X377970Y361534D01*
X378173Y361568D01*
X378363Y361615D01*
X378540Y361675D01*
X378704Y361748D01*
X378855Y361834D01*
X378993Y361933D01*
X379118Y362045D01*
X379798Y361311D01*
D02*
G37*
G36*
X261612Y357831D02*
X261477Y357928D01*
X261335Y358014D01*
X261186Y358091D01*
X261030Y358158D01*
X260868Y358214D01*
X260698Y358260D01*
X260521Y358295D01*
X260337Y358321D01*
X260146Y358336D01*
X259949Y358341D01*
X259711Y359941D01*
X259911Y359948D01*
X260101Y359968D01*
X260281Y360001D01*
X260449Y360047D01*
X260607Y360107D01*
X260754Y360180D01*
X260891Y360267D01*
X261016Y360366D01*
X261131Y360479D01*
X261236Y360605D01*
X261612Y357831D01*
D02*
G37*
G36*
X240153Y358728D02*
X240177Y358550D01*
X240215Y358375D01*
X240270Y358203D01*
X240339Y358035D01*
X240424Y357869D01*
X240525Y357706D01*
X240641Y357547D01*
X240773Y357390D01*
X240921Y357237D01*
X238120D01*
X238268Y357390D01*
X238400Y357547D01*
X238516Y357706D01*
X238617Y357869D01*
X238702Y358035D01*
X238771Y358203D01*
X238826Y358375D01*
X238864Y358550D01*
X238888Y358728D01*
X238895Y358909D01*
X240145D01*
X240153Y358728D01*
D02*
G37*
G36*
X272556Y348526D02*
X272598Y348076D01*
X272638Y347871D01*
X272689Y347680D01*
X272752Y347502D01*
X272827Y347338D01*
X272914Y347188D01*
X273013Y347050D01*
X273124Y346927D01*
X272417Y346220D01*
X272293Y346331D01*
X272156Y346429D01*
X272005Y346516D01*
X271841Y346591D01*
X271663Y346655D01*
X271472Y346706D01*
X271268Y346745D01*
X271049Y346772D01*
X270818Y346788D01*
X270572Y346791D01*
X272552Y348771D01*
X272556Y348526D01*
D02*
G37*
G36*
X134932Y346693D02*
X135088Y346561D01*
X135248Y346445D01*
X135410Y346344D01*
X135576Y346259D01*
X135745Y346189D01*
X135916Y346135D01*
X136091Y346096D01*
X136269Y346073D01*
X136450Y346065D01*
Y344815D01*
X136269Y344807D01*
X136091Y344784D01*
X135916Y344745D01*
X135745Y344691D01*
X135576Y344621D01*
X135410Y344536D01*
X135248Y344435D01*
X135088Y344319D01*
X134932Y344187D01*
X134778Y344040D01*
Y346840D01*
X134932Y346693D01*
D02*
G37*
G36*
X236500Y345456D02*
X236631Y345354D01*
X236770Y345264D01*
X236917Y345186D01*
X237073Y345120D01*
X237238Y345066D01*
X237412Y345024D01*
X237593Y344994D01*
X237784Y344976D01*
X237983Y344970D01*
Y343370D01*
X237784Y343364D01*
X237593Y343346D01*
X237412Y343316D01*
X237238Y343274D01*
X237073Y343220D01*
X236917Y343154D01*
X236770Y343076D01*
X236631Y342986D01*
X236500Y342884D01*
X236378Y342770D01*
Y345570D01*
X236500Y345456D01*
D02*
G37*
G36*
X345727Y342118D02*
X345482Y342115D01*
X345032Y342072D01*
X344827Y342033D01*
X344636Y341982D01*
X344459Y341918D01*
X344294Y341843D01*
X344144Y341757D01*
X344007Y341658D01*
X343883Y341547D01*
X343176Y342254D01*
X343287Y342377D01*
X343386Y342514D01*
X343473Y342665D01*
X343548Y342829D01*
X343611Y343007D01*
X343662Y343198D01*
X343701Y343403D01*
X343729Y343621D01*
X343744Y343853D01*
X343747Y344098D01*
X345727Y342118D01*
D02*
G37*
G36*
X470186Y341415D02*
X470204Y341211D01*
X470234Y341016D01*
X470278Y340830D01*
X470335Y340653D01*
X470405Y340484D01*
X470488Y340324D01*
X470584Y340173D01*
X470694Y340031D01*
X470816Y339898D01*
X469932Y339014D01*
X469799Y339136D01*
X469657Y339245D01*
X469506Y339342D01*
X469346Y339425D01*
X469177Y339495D01*
X469000Y339552D01*
X468814Y339595D01*
X468619Y339626D01*
X468415Y339643D01*
X468202Y339648D01*
X470182Y341628D01*
X470186Y341415D01*
D02*
G37*
G36*
X219826Y336985D02*
X219725Y337112D01*
X219612Y337226D01*
X219488Y337327D01*
X219353Y337414D01*
X219207Y337488D01*
X219050Y337548D01*
X218883Y337595D01*
X218704Y337629D01*
X218514Y337649D01*
X218313Y337655D01*
X218582Y339255D01*
X218780Y339260D01*
X218971Y339275D01*
X219155Y339300D01*
X219332Y339335D01*
X219502Y339380D01*
X219666Y339434D01*
X219822Y339499D01*
X219972Y339574D01*
X220115Y339658D01*
X220251Y339752D01*
X219826Y336985D01*
D02*
G37*
G36*
X237782Y330855D02*
X237660Y330969D01*
X237530Y331071D01*
X237391Y331161D01*
X237243Y331239D01*
X237087Y331305D01*
X236922Y331359D01*
X236749Y331401D01*
X236567Y331431D01*
X236376Y331449D01*
X236177Y331455D01*
Y333055D01*
X236376Y333061D01*
X236567Y333079D01*
X236749Y333109D01*
X236922Y333151D01*
X237087Y333205D01*
X237243Y333271D01*
X237391Y333349D01*
X237530Y333439D01*
X237660Y333541D01*
X237782Y333655D01*
Y330855D01*
D02*
G37*
G36*
X263811Y332073D02*
X263865Y331620D01*
X263909Y331414D01*
X263963Y331222D01*
X264029Y331044D01*
X264106Y330880D01*
X264194Y330729D01*
X264293Y330593D01*
X264403Y330471D01*
X263717Y329742D01*
X263592Y329854D01*
X263455Y329953D01*
X263304Y330039D01*
X263140Y330112D01*
X262962Y330172D01*
X262772Y330220D01*
X262569Y330255D01*
X262352Y330277D01*
X262123Y330286D01*
X261880Y330283D01*
X263800Y332321D01*
X263811Y332073D01*
D02*
G37*
G36*
X690860Y324390D02*
X690647Y324386D01*
X690444Y324368D01*
X690248Y324338D01*
X690062Y324294D01*
X689885Y324237D01*
X689716Y324167D01*
X689557Y324084D01*
X689406Y323988D01*
X689263Y323879D01*
X689130Y323756D01*
X688246Y324640D01*
X688369Y324773D01*
X688478Y324916D01*
X688574Y325067D01*
X688657Y325226D01*
X688727Y325395D01*
X688784Y325572D01*
X688828Y325759D01*
X688858Y325954D01*
X688876Y326157D01*
X688880Y326370D01*
X690860Y324390D01*
D02*
G37*
G36*
X153133Y324855D02*
X153176Y324405D01*
X153215Y324200D01*
X153266Y324009D01*
X153330Y323831D01*
X153405Y323667D01*
X153492Y323516D01*
X153590Y323379D01*
X153701Y323256D01*
X152994Y322549D01*
X152871Y322659D01*
X152734Y322758D01*
X152583Y322845D01*
X152419Y322920D01*
X152241Y322984D01*
X152050Y323035D01*
X151845Y323074D01*
X151627Y323101D01*
X151395Y323117D01*
X151150Y323120D01*
X153130Y325100D01*
X153133Y324855D01*
D02*
G37*
G36*
X442653Y320033D02*
X442665Y319830D01*
X442691Y319636D01*
X442732Y319451D01*
X442785Y319274D01*
X442853Y319106D01*
X442934Y318946D01*
X443030Y318795D01*
X443139Y318652D01*
X443262Y318518D01*
X442351Y317661D01*
X442218Y317783D01*
X442076Y317892D01*
X441926Y317990D01*
X441766Y318074D01*
X441597Y318147D01*
X441419Y318207D01*
X441233Y318254D01*
X441037Y318289D01*
X440832Y318312D01*
X440618Y318323D01*
X442655Y320244D01*
X442653Y320033D01*
D02*
G37*
G36*
X203491Y317059D02*
X203529Y316897D01*
X203580Y316737D01*
X203643Y316580D01*
X203718Y316425D01*
X203805Y316272D01*
X203905Y316122D01*
X204017Y315974D01*
X204141Y315828D01*
X204277Y315685D01*
X203309Y314390D01*
X203163Y314527D01*
X203014Y314647D01*
X202864Y314750D01*
X202712Y314837D01*
X202558Y314906D01*
X202402Y314959D01*
X202245Y314995D01*
X202085Y315014D01*
X201924Y315016D01*
X201761Y315001D01*
X203465Y317223D01*
X203491Y317059D01*
D02*
G37*
G36*
X688276Y312267D02*
X688122Y312414D01*
X687966Y312546D01*
X687806Y312663D01*
X687644Y312763D01*
X687478Y312848D01*
X687309Y312918D01*
X687138Y312973D01*
X686963Y313011D01*
X686785Y313034D01*
X686604Y313042D01*
Y314292D01*
X686785Y314300D01*
X686963Y314323D01*
X687138Y314362D01*
X687309Y314416D01*
X687478Y314486D01*
X687644Y314571D01*
X687806Y314672D01*
X687966Y314788D01*
X688122Y314920D01*
X688276Y315067D01*
Y312267D01*
D02*
G37*
G36*
X218549Y309190D02*
X218427Y309304D01*
X218297Y309406D01*
X218158Y309496D01*
X218010Y309574D01*
X217854Y309640D01*
X217689Y309694D01*
X217516Y309736D01*
X217334Y309766D01*
X217143Y309784D01*
X216944Y309790D01*
Y311390D01*
X217143Y311396D01*
X217334Y311414D01*
X217516Y311444D01*
X217689Y311486D01*
X217854Y311540D01*
X218010Y311606D01*
X218158Y311684D01*
X218297Y311774D01*
X218427Y311876D01*
X218549Y311990D01*
Y309190D01*
D02*
G37*
G36*
X684372Y308392D02*
X684218Y308539D01*
X684062Y308671D01*
X683902Y308787D01*
X683740Y308888D01*
X683574Y308973D01*
X683405Y309043D01*
X683234Y309097D01*
X683059Y309136D01*
X682881Y309159D01*
X682700Y309167D01*
Y310417D01*
X682881Y310425D01*
X683059Y310448D01*
X683234Y310487D01*
X683405Y310541D01*
X683574Y310611D01*
X683740Y310696D01*
X683902Y310797D01*
X684062Y310913D01*
X684218Y311045D01*
X684372Y311192D01*
Y308392D01*
D02*
G37*
G36*
X796514Y301980D02*
X796412Y301849D01*
X796322Y301710D01*
X796244Y301563D01*
X796178Y301406D01*
X796124Y301242D01*
X796082Y301068D01*
X796052Y300886D01*
X796034Y300696D01*
X796028Y300497D01*
X794428D01*
X794422Y300696D01*
X794404Y300886D01*
X794374Y301068D01*
X794332Y301242D01*
X794278Y301406D01*
X794212Y301563D01*
X794134Y301710D01*
X794044Y301849D01*
X793942Y301980D01*
X793828Y302102D01*
X796628D01*
X796514Y301980D01*
D02*
G37*
G36*
X788441Y302262D02*
X788588Y302140D01*
X788738Y302032D01*
X788891Y301940D01*
X789045Y301861D01*
X789202Y301797D01*
X789362Y301748D01*
X789524Y301713D01*
X789688Y301693D01*
X789855Y301688D01*
X787875Y299708D01*
X787869Y299875D01*
X787849Y300039D01*
X787815Y300201D01*
X787765Y300361D01*
X787702Y300518D01*
X787623Y300672D01*
X787531Y300825D01*
X787423Y300974D01*
X787301Y301122D01*
X787165Y301267D01*
X788296Y302398D01*
X788441Y302262D01*
D02*
G37*
G36*
X249751Y299568D02*
X249585Y299743D01*
X249418Y299900D01*
X249251Y300038D01*
X249084Y300158D01*
X248917Y300259D01*
X248750Y300343D01*
X248583Y300407D01*
X248415Y300453D01*
X248248Y300481D01*
X248080Y300490D01*
X248122Y301490D01*
X248286Y301499D01*
X248452Y301525D01*
X248620Y301569D01*
X248791Y301630D01*
X248964Y301709D01*
X249140Y301805D01*
X249318Y301919D01*
X249498Y302050D01*
X249681Y302199D01*
X249866Y302365D01*
X249751Y299568D01*
D02*
G37*
G36*
X382906Y300315D02*
X383062Y300184D01*
X383222Y300068D01*
X383384Y299967D01*
X383550Y299881D01*
X383718Y299812D01*
X383890Y299757D01*
X384065Y299719D01*
X384243Y299695D01*
X384424Y299688D01*
Y298438D01*
X384243Y298430D01*
X384065Y298407D01*
X383890Y298368D01*
X383718Y298314D01*
X383550Y298244D01*
X383384Y298159D01*
X383222Y298058D01*
X383062Y297942D01*
X382906Y297810D01*
X382752Y297663D01*
Y300463D01*
X382906Y300315D01*
D02*
G37*
G36*
X462806Y299100D02*
X462945Y299001D01*
X463096Y298917D01*
X463259Y298848D01*
X463435Y298793D01*
X463623Y298753D01*
X463822Y298728D01*
X464034Y298717D01*
X464258Y298722D01*
X464494Y298741D01*
X462718Y296576D01*
X462690Y296829D01*
X462609Y297289D01*
X462555Y297497D01*
X462492Y297690D01*
X462420Y297869D01*
X462339Y298032D01*
X462250Y298181D01*
X462151Y298315D01*
X462044Y298435D01*
X462679Y299214D01*
X462806Y299100D01*
D02*
G37*
G36*
X201886Y294202D02*
X201719Y294196D01*
X201555Y294176D01*
X201393Y294141D01*
X201233Y294092D01*
X201076Y294028D01*
X200921Y293950D01*
X200769Y293857D01*
X200619Y293750D01*
X200472Y293628D01*
X200327Y293491D01*
X199195Y294623D01*
X199332Y294768D01*
X199454Y294915D01*
X199561Y295065D01*
X199654Y295217D01*
X199733Y295372D01*
X199796Y295529D01*
X199846Y295688D01*
X199880Y295850D01*
X199900Y296015D01*
X199906Y296182D01*
X201886Y294202D01*
D02*
G37*
G36*
X840214Y293384D02*
X840370Y293252D01*
X840530Y293136D01*
X840692Y293035D01*
X840858Y292950D01*
X841027Y292880D01*
X841198Y292826D01*
X841373Y292787D01*
X841551Y292764D01*
X841732Y292756D01*
Y291506D01*
X841551Y291499D01*
X841373Y291475D01*
X841198Y291437D01*
X841027Y291382D01*
X840858Y291313D01*
X840692Y291227D01*
X840530Y291126D01*
X840370Y291010D01*
X840214Y290879D01*
X840060Y290731D01*
Y293531D01*
X840214Y293384D01*
D02*
G37*
G36*
X239363Y289767D02*
X239499Y289671D01*
X239642Y289586D01*
X239794Y289512D01*
X239953Y289450D01*
X240120Y289399D01*
X240295Y289359D01*
X240478Y289331D01*
X240669Y289314D01*
X240867Y289308D01*
X240963Y287708D01*
X240763Y287702D01*
X240573Y287683D01*
X240392Y287651D01*
X240220Y287607D01*
X240058Y287551D01*
X239906Y287481D01*
X239762Y287400D01*
X239628Y287305D01*
X239504Y287198D01*
X239389Y287079D01*
X239235Y289875D01*
X239363Y289767D01*
D02*
G37*
G36*
X839837Y288498D02*
X840219Y288314D01*
X840406Y288240D01*
X840771Y288125D01*
X840949Y288084D01*
X841125Y288055D01*
X841298Y288038D01*
X841468Y288032D01*
X841830Y286782D01*
X841642Y286774D01*
X841464Y286747D01*
X841295Y286704D01*
X841135Y286642D01*
X840986Y286563D01*
X840845Y286467D01*
X840714Y286353D01*
X840593Y286222D01*
X840481Y286073D01*
X840378Y285906D01*
X839642Y288608D01*
X839837Y288498D01*
D02*
G37*
G36*
X460808Y285059D02*
X460704Y285185D01*
X460590Y285298D01*
X460464Y285398D01*
X460328Y285485D01*
X460182Y285558D01*
X460024Y285618D01*
X459856Y285664D01*
X459677Y285698D01*
X459487Y285718D01*
X459286Y285724D01*
X459531Y287324D01*
X459729Y287329D01*
X459920Y287345D01*
X460104Y287370D01*
X460281Y287405D01*
X460451Y287451D01*
X460614Y287507D01*
X460770Y287573D01*
X460919Y287649D01*
X461061Y287735D01*
X461196Y287832D01*
X460808Y285059D01*
D02*
G37*
G36*
X301294Y282376D02*
X301709Y282131D01*
X301906Y282032D01*
X302278Y281879D01*
X302453Y281825D01*
X302621Y281787D01*
X302782Y281764D01*
X302935Y281756D01*
X303136Y280756D01*
X302963Y280746D01*
X302794Y280717D01*
X302630Y280668D01*
X302470Y280599D01*
X302315Y280510D01*
X302165Y280402D01*
X302019Y280274D01*
X301877Y280127D01*
X301741Y279960D01*
X301609Y279773D01*
X301075Y282522D01*
X301294Y282376D01*
D02*
G37*
G36*
X470309Y278081D02*
X470440Y277979D01*
X470579Y277889D01*
X470726Y277811D01*
X470883Y277745D01*
X471047Y277691D01*
X471221Y277649D01*
X471403Y277619D01*
X471593Y277601D01*
X471792Y277595D01*
Y275995D01*
X471593Y275989D01*
X471403Y275971D01*
X471221Y275941D01*
X471047Y275899D01*
X470883Y275845D01*
X470726Y275779D01*
X470579Y275701D01*
X470440Y275611D01*
X470309Y275509D01*
X470187Y275395D01*
Y278195D01*
X470309Y278081D01*
D02*
G37*
G36*
X318919Y269657D02*
X318857Y269592D01*
X318759Y269476D01*
X318723Y269424D01*
X318696Y269377D01*
X318678Y269334D01*
X318668Y269295D01*
X318668Y269261D01*
X318676Y269231D01*
X318693Y269205D01*
X317540Y269827D01*
X317568Y269829D01*
X317604Y269842D01*
X317649Y269867D01*
X317703Y269904D01*
X317766Y269952D01*
X317918Y270082D01*
X318212Y270364D01*
X318919Y269657D01*
D02*
G37*
G36*
X406570Y270024D02*
X406434Y269879D01*
X406312Y269732D01*
X406204Y269582D01*
X406112Y269430D01*
X406033Y269275D01*
X405970Y269118D01*
X405920Y268959D01*
X405886Y268797D01*
X405866Y268632D01*
X405860Y268465D01*
X403880Y270445D01*
X404047Y270451D01*
X404211Y270471D01*
X404373Y270506D01*
X404533Y270555D01*
X404690Y270619D01*
X404845Y270697D01*
X404997Y270790D01*
X405147Y270897D01*
X405294Y271019D01*
X405439Y271156D01*
X406570Y270024D01*
D02*
G37*
G36*
X253159Y269114D02*
X252995Y269088D01*
X252833Y269049D01*
X252674Y268998D01*
X252516Y268934D01*
X252362Y268859D01*
X252209Y268772D01*
X252059Y268672D01*
X251911Y268560D01*
X251765Y268436D01*
X251621Y268300D01*
X250323Y269264D01*
X250460Y269411D01*
X250580Y269559D01*
X250684Y269709D01*
X250770Y269861D01*
X250839Y270015D01*
X250892Y270171D01*
X250927Y270328D01*
X250946Y270488D01*
X250948Y270649D01*
X250932Y270812D01*
X253159Y269114D01*
D02*
G37*
G36*
X323581Y270693D02*
X324220Y270372D01*
X324414Y270294D01*
X324776Y270180D01*
X324942Y270144D01*
X325100Y270123D01*
X325248Y270115D01*
X325516Y269115D01*
X325340Y269105D01*
X325172Y269075D01*
X325009Y269025D01*
X324853Y268956D01*
X324703Y268866D01*
X324560Y268756D01*
X324422Y268626D01*
X324291Y268476D01*
X324167Y268307D01*
X324049Y268117D01*
X323349Y270828D01*
X323581Y270693D01*
D02*
G37*
G36*
X271225Y270036D02*
X271202Y269889D01*
X271199Y269741D01*
X271216Y269594D01*
X271253Y269446D01*
X271311Y269298D01*
X271388Y269149D01*
X271486Y269001D01*
X271605Y268853D01*
X271743Y268704D01*
X270161Y268024D01*
X270018Y268162D01*
X269734Y268409D01*
X269592Y268519D01*
X269308Y268710D01*
X269166Y268791D01*
X268883Y268926D01*
X268741Y268979D01*
X271269Y270183D01*
X271225Y270036D01*
D02*
G37*
G36*
X383331Y262903D02*
X383207Y263091D01*
X383078Y263260D01*
X382942Y263409D01*
X382801Y263538D01*
X382655Y263647D01*
X382503Y263736D01*
X382345Y263806D01*
X382182Y263856D01*
X382013Y263885D01*
X381839Y263895D01*
X382078Y264895D01*
X382228Y264903D01*
X382387Y264925D01*
X382555Y264961D01*
X382731Y265013D01*
X382915Y265079D01*
X383107Y265160D01*
X383517Y265366D01*
X383735Y265491D01*
X383961Y265631D01*
X383331Y262903D01*
D02*
G37*
G36*
X389894Y264132D02*
X389921Y263964D01*
X389968Y263797D01*
X390032Y263630D01*
X390116Y263463D01*
X390217Y263296D01*
X390337Y263130D01*
X390476Y262964D01*
X390634Y262799D01*
X390809Y262633D01*
X388012Y262504D01*
X388178Y262690D01*
X388457Y263055D01*
X388570Y263234D01*
X388666Y263410D01*
X388745Y263583D01*
X388806Y263754D01*
X388849Y263923D01*
X388876Y264089D01*
X388884Y264252D01*
X389884Y264300D01*
X389894Y264132D01*
D02*
G37*
G36*
X396280Y264129D02*
X396404Y264034D01*
X396545Y263941D01*
X396703Y263850D01*
X396878Y263761D01*
X397280Y263589D01*
X397506Y263507D01*
X398011Y263347D01*
X395546Y262018D01*
X395604Y262231D01*
X395642Y262434D01*
X395660Y262629D01*
X395660Y262814D01*
X395639Y262991D01*
X395600Y263159D01*
X395541Y263317D01*
X395462Y263467D01*
X395364Y263608D01*
X395246Y263739D01*
X396174Y264226D01*
X396280Y264129D01*
D02*
G37*
G36*
X838372Y263384D02*
X838528Y263252D01*
X838688Y263136D01*
X838850Y263035D01*
X839016Y262950D01*
X839185Y262880D01*
X839356Y262826D01*
X839531Y262787D01*
X839709Y262764D01*
X839890Y262756D01*
Y261506D01*
X839709Y261499D01*
X839531Y261475D01*
X839356Y261437D01*
X839185Y261382D01*
X839016Y261313D01*
X838850Y261227D01*
X838688Y261127D01*
X838528Y261010D01*
X838372Y260879D01*
X838218Y260731D01*
Y263531D01*
X838372Y263384D01*
D02*
G37*
G36*
X405161Y258776D02*
X404940Y258822D01*
X404729Y258850D01*
X404528Y258860D01*
X404337Y258851D01*
X404156Y258825D01*
X403985Y258780D01*
X403825Y258718D01*
X403674Y258638D01*
X403534Y258540D01*
X403403Y258423D01*
X402866Y259300D01*
X402967Y259411D01*
X403064Y259539D01*
X403156Y259684D01*
X403244Y259844D01*
X403328Y260021D01*
X403406Y260215D01*
X403551Y260650D01*
X403617Y260893D01*
X403678Y261152D01*
X405161Y258776D01*
D02*
G37*
G36*
X839261Y256782D02*
X838787Y256772D01*
X838455Y257990D01*
X839261Y258032D01*
Y256782D01*
D02*
G37*
G36*
X319320Y257331D02*
X319378Y256877D01*
X319423Y256670D01*
X319478Y256478D01*
X319545Y256300D01*
X319622Y256136D01*
X319710Y255986D01*
X319809Y255850D01*
X319918Y255728D01*
X319239Y254993D01*
X319114Y255105D01*
X318976Y255204D01*
X318825Y255290D01*
X318661Y255362D01*
X318484Y255422D01*
X318294Y255469D01*
X318091Y255503D01*
X317875Y255523D01*
X317646Y255531D01*
X317404Y255526D01*
X319308Y257579D01*
X319320Y257331D01*
D02*
G37*
G36*
X189965Y238389D02*
X189986Y238225D01*
X190020Y238063D01*
X190070Y237903D01*
X190133Y237746D01*
X190212Y237591D01*
X190305Y237439D01*
X190412Y237289D01*
X190534Y237142D01*
X190670Y236997D01*
X189539Y235865D01*
X189394Y236002D01*
X189247Y236124D01*
X189097Y236231D01*
X188944Y236324D01*
X188790Y236402D01*
X188633Y236466D01*
X188473Y236515D01*
X188311Y236550D01*
X188147Y236570D01*
X187980Y236576D01*
X189960Y238556D01*
X189965Y238389D01*
D02*
G37*
G36*
X270331Y236377D02*
X270467Y236282D01*
X270611Y236197D01*
X270763Y236124D01*
X270923Y236062D01*
X271090Y236012D01*
X271265Y235972D01*
X271448Y235944D01*
X271639Y235927D01*
X271837Y235922D01*
X271944Y234322D01*
X271744Y234315D01*
X271554Y234296D01*
X271373Y234265D01*
X271202Y234221D01*
X271040Y234163D01*
X270888Y234094D01*
X270745Y234012D01*
X270611Y233917D01*
X270487Y233810D01*
X270373Y233689D01*
X270203Y236484D01*
X270331Y236377D01*
D02*
G37*
G36*
X739300Y227380D02*
X739087Y227376D01*
X738884Y227358D01*
X738689Y227328D01*
X738502Y227284D01*
X738325Y227227D01*
X738156Y227157D01*
X737997Y227074D01*
X737846Y226978D01*
X737703Y226869D01*
X737570Y226746D01*
X736686Y227630D01*
X736809Y227763D01*
X736918Y227906D01*
X737014Y228057D01*
X737097Y228216D01*
X737167Y228385D01*
X737224Y228562D01*
X737268Y228748D01*
X737298Y228944D01*
X737316Y229147D01*
X737320Y229360D01*
X739300Y227380D01*
D02*
G37*
G36*
X128213Y227413D02*
X128231Y227223D01*
X128261Y227041D01*
X128303Y226868D01*
X128357Y226703D01*
X128423Y226547D01*
X128501Y226399D01*
X128591Y226260D01*
X128693Y226129D01*
X128807Y226008D01*
X126007D01*
X126121Y226129D01*
X126223Y226260D01*
X126313Y226399D01*
X126391Y226547D01*
X126457Y226703D01*
X126511Y226868D01*
X126553Y227041D01*
X126583Y227223D01*
X126601Y227413D01*
X126607Y227612D01*
X128207D01*
X128213Y227413D01*
D02*
G37*
G36*
X880176Y211872D02*
X880058Y211755D01*
X879952Y211630D01*
X879858Y211495D01*
X879777Y211350D01*
X879709Y211197D01*
X879652Y211034D01*
X879609Y210862D01*
X879578Y210681D01*
X879559Y210491D01*
X879553Y210291D01*
X877953Y210368D01*
X877947Y210566D01*
X877930Y210757D01*
X877901Y210939D01*
X877861Y211114D01*
X877809Y211281D01*
X877746Y211439D01*
X877672Y211590D01*
X877586Y211733D01*
X877488Y211867D01*
X877379Y211994D01*
X880176Y211872D01*
D02*
G37*
G36*
X885363Y211818D02*
X885241Y211707D01*
X885132Y211586D01*
X885035Y211455D01*
X884952Y211314D01*
X884881Y211163D01*
X884823Y211003D01*
X884778Y210832D01*
X884746Y210652D01*
X884726Y210462D01*
X884720Y210262D01*
X883120Y210411D01*
X883114Y210609D01*
X883098Y210800D01*
X883071Y210983D01*
X883033Y211159D01*
X882983Y211327D01*
X882923Y211488D01*
X882852Y211641D01*
X882770Y211787D01*
X882678Y211925D01*
X882574Y212056D01*
X885363Y211818D01*
D02*
G37*
G36*
X349934Y196150D02*
X350065Y196048D01*
X350204Y195958D01*
X350351Y195880D01*
X350507Y195814D01*
X350672Y195760D01*
X350845Y195718D01*
X351027Y195688D01*
X351218Y195670D01*
X351417Y195664D01*
Y194064D01*
X351218Y194058D01*
X351027Y194040D01*
X350845Y194010D01*
X350672Y193968D01*
X350507Y193914D01*
X350351Y193848D01*
X350204Y193770D01*
X350065Y193680D01*
X349934Y193578D01*
X349812Y193464D01*
Y196264D01*
X349934Y196150D01*
D02*
G37*
G36*
X289217Y193367D02*
X289095Y193234D01*
X288985Y193092D01*
X288889Y192941D01*
X288806Y192781D01*
X288736Y192612D01*
X288679Y192435D01*
X288636Y192249D01*
X288605Y192054D01*
X288588Y191850D01*
X288583Y191637D01*
X286603Y193617D01*
X286816Y193622D01*
X287020Y193639D01*
X287215Y193670D01*
X287401Y193713D01*
X287578Y193770D01*
X287747Y193840D01*
X287907Y193923D01*
X288058Y194019D01*
X288200Y194129D01*
X288333Y194251D01*
X289217Y193367D01*
D02*
G37*
G36*
X389206Y162551D02*
X389207Y162390D01*
X389226Y162230D01*
X389262Y162073D01*
X389315Y161917D01*
X389384Y161763D01*
X389471Y161611D01*
X389574Y161461D01*
X389694Y161312D01*
X389831Y161166D01*
X388536Y160198D01*
X388393Y160334D01*
X388247Y160459D01*
X388099Y160570D01*
X387949Y160670D01*
X387796Y160757D01*
X387641Y160832D01*
X387484Y160895D01*
X387324Y160946D01*
X387162Y160984D01*
X386998Y161011D01*
X389220Y162714D01*
X389206Y162551D01*
D02*
G37*
G36*
X631032Y124270D02*
X630910Y124384D01*
X630779Y124486D01*
X630640Y124576D01*
X630493Y124654D01*
X630336Y124720D01*
X630172Y124774D01*
X629998Y124816D01*
X629817Y124846D01*
X629626Y124864D01*
X629427Y124870D01*
Y126470D01*
X629626Y126476D01*
X629817Y126494D01*
X629998Y126524D01*
X630172Y126566D01*
X630336Y126620D01*
X630493Y126686D01*
X630640Y126764D01*
X630779Y126854D01*
X630910Y126956D01*
X631032Y127070D01*
Y124270D01*
D02*
G37*
G36*
X402264Y123900D02*
X402196Y123800D01*
X402136Y123686D01*
X402084Y123557D01*
X402040Y123413D01*
X402004Y123256D01*
X401976Y123084D01*
X401956Y122898D01*
X401940Y122482D01*
X399940D01*
X399936Y122697D01*
X399904Y123084D01*
X399876Y123256D01*
X399840Y123413D01*
X399796Y123557D01*
X399744Y123686D01*
X399684Y123800D01*
X399616Y123900D01*
X399540Y123986D01*
X402340D01*
X402264Y123900D01*
D02*
G37*
G36*
X327127Y114713D02*
X327149Y114595D01*
X327188Y114471D01*
X327242Y114344D01*
X327312Y114211D01*
X327398Y114074D01*
X327500Y113933D01*
X327618Y113787D01*
X327900Y113482D01*
X326486Y112067D01*
X326331Y112217D01*
X326035Y112468D01*
X325894Y112570D01*
X325757Y112655D01*
X325624Y112726D01*
X325496Y112780D01*
X325373Y112818D01*
X325254Y112841D01*
X325140Y112848D01*
X327120Y114828D01*
X327127Y114713D01*
D02*
G37*
G36*
X382482Y114476D02*
X382504Y114358D01*
X382543Y114234D01*
X382597Y114106D01*
X382667Y113974D01*
X382753Y113837D01*
X382855Y113696D01*
X382972Y113550D01*
X383255Y113244D01*
X381841Y111830D01*
X381686Y111980D01*
X381390Y112231D01*
X381248Y112332D01*
X381111Y112418D01*
X380979Y112488D01*
X380851Y112543D01*
X380728Y112581D01*
X380609Y112604D01*
X380495Y112611D01*
X382475Y114591D01*
X382482Y114476D01*
D02*
G37*
G36*
X363957Y114166D02*
X363979Y114047D01*
X364018Y113924D01*
X364072Y113796D01*
X364142Y113663D01*
X364228Y113526D01*
X364330Y113385D01*
X364448Y113239D01*
X364730Y112934D01*
X363316Y111520D01*
X363161Y111669D01*
X362865Y111920D01*
X362724Y112022D01*
X362587Y112108D01*
X362454Y112178D01*
X362326Y112232D01*
X362203Y112271D01*
X362084Y112293D01*
X361970Y112300D01*
X363950Y114280D01*
X363957Y114166D01*
D02*
G37*
G36*
X240764Y102637D02*
X240782Y102434D01*
X240812Y102239D01*
X240856Y102052D01*
X240913Y101875D01*
X240983Y101706D01*
X241066Y101547D01*
X241162Y101396D01*
X241271Y101253D01*
X241394Y101120D01*
X240510Y100236D01*
X240377Y100358D01*
X240234Y100468D01*
X240083Y100564D01*
X239924Y100647D01*
X239755Y100717D01*
X239578Y100774D01*
X239391Y100818D01*
X239196Y100848D01*
X238993Y100866D01*
X238780Y100870D01*
X240760Y102850D01*
X240764Y102637D01*
D02*
G37*
G36*
X683323Y100366D02*
X683619Y100115D01*
X683761Y100014D01*
X683898Y99928D01*
X684030Y99858D01*
X684158Y99803D01*
X684281Y99765D01*
X684400Y99742D01*
X684514Y99735D01*
X682534Y97755D01*
X682527Y97870D01*
X682505Y97989D01*
X682466Y98112D01*
X682412Y98240D01*
X682342Y98372D01*
X682256Y98509D01*
X682154Y98650D01*
X682037Y98796D01*
X681754Y99102D01*
X683168Y100516D01*
X683323Y100366D01*
D02*
G37*
G36*
X402432Y94117D02*
X402278Y94265D01*
X402122Y94396D01*
X401962Y94513D01*
X401800Y94614D01*
X401634Y94699D01*
X401465Y94768D01*
X401294Y94823D01*
X401119Y94861D01*
X400941Y94885D01*
X400760Y94893D01*
Y96143D01*
X400941Y96150D01*
X401119Y96173D01*
X401294Y96212D01*
X401465Y96266D01*
X401634Y96336D01*
X401800Y96421D01*
X401962Y96522D01*
X402122Y96638D01*
X402278Y96770D01*
X402432Y96917D01*
Y94117D01*
D02*
G37*
G36*
X693563Y96137D02*
X693859Y95884D01*
X693999Y95780D01*
X694135Y95693D01*
X694267Y95620D01*
X694393Y95563D01*
X694515Y95521D01*
X694632Y95495D01*
X694744Y95485D01*
X692692Y93579D01*
X692689Y93695D01*
X692670Y93815D01*
X692635Y93940D01*
X692584Y94068D01*
X692516Y94201D01*
X692432Y94339D01*
X692331Y94481D01*
X692215Y94627D01*
X691933Y94933D01*
X693408Y96286D01*
X693563Y96137D01*
D02*
G37*
G36*
X677271Y91586D02*
X677703Y91221D01*
X677836Y91129D01*
X677963Y91051D01*
X678084Y90988D01*
X678199Y90939D01*
X678309Y90906D01*
X678413Y90886D01*
X676199Y89173D01*
X676206Y89290D01*
X676196Y89411D01*
X676168Y89536D01*
X676124Y89666D01*
X676061Y89800D01*
X675982Y89938D01*
X675885Y90080D01*
X675771Y90227D01*
X675640Y90377D01*
X675492Y90533D01*
X677116Y91737D01*
X677271Y91586D01*
D02*
G37*
G36*
X688399Y87281D02*
X688695Y87030D01*
X688837Y86928D01*
X688973Y86842D01*
X689106Y86772D01*
X689234Y86718D01*
X689357Y86679D01*
X689476Y86657D01*
X689590Y86650D01*
X687610Y84670D01*
X687603Y84784D01*
X687581Y84903D01*
X687542Y85026D01*
X687488Y85154D01*
X687418Y85287D01*
X687332Y85423D01*
X687230Y85565D01*
X687112Y85711D01*
X686830Y86016D01*
X688244Y87430D01*
X688399Y87281D01*
D02*
G37*
G36*
X231891Y73223D02*
X231890Y73025D01*
X231904Y72835D01*
X231935Y72653D01*
X231980Y72478D01*
X232042Y72311D01*
X232119Y72152D01*
X232212Y72000D01*
X232320Y71857D01*
X232444Y71721D01*
X231459Y70938D01*
X231329Y71058D01*
X231189Y71168D01*
X231040Y71268D01*
X230881Y71357D01*
X230713Y71435D01*
X230535Y71504D01*
X230347Y71562D01*
X230150Y71610D01*
X229943Y71647D01*
X229726Y71674D01*
X231908Y73429D01*
X231891Y73223D01*
D02*
G37*
G36*
X214888Y61833D02*
X215018Y61731D01*
X215157Y61641D01*
X215305Y61563D01*
X215461Y61497D01*
X215626Y61443D01*
X215799Y61401D01*
X215981Y61371D01*
X216172Y61353D01*
X216371Y61347D01*
Y59747D01*
X216172Y59741D01*
X215981Y59723D01*
X215799Y59693D01*
X215626Y59651D01*
X215461Y59597D01*
X215305Y59531D01*
X215157Y59453D01*
X215018Y59363D01*
X214888Y59261D01*
X214766Y59147D01*
Y61947D01*
X214888Y61833D01*
D02*
G37*
G36*
X214769Y56262D02*
X214899Y56160D01*
X215038Y56070D01*
X215186Y55992D01*
X215342Y55926D01*
X215507Y55872D01*
X215680Y55830D01*
X215862Y55800D01*
X216053Y55782D01*
X216252Y55776D01*
Y54176D01*
X216053Y54170D01*
X215862Y54152D01*
X215680Y54122D01*
X215507Y54080D01*
X215342Y54026D01*
X215186Y53960D01*
X215038Y53882D01*
X214899Y53792D01*
X214769Y53690D01*
X214647Y53576D01*
Y56376D01*
X214769Y56262D01*
D02*
G37*
D11*
X361950Y114300D02*
X373232Y103018D01*
X325120Y114848D02*
X340200Y99768D01*
X678180Y88900D02*
Y89258D01*
X667671Y99768D02*
X678180Y89258D01*
X672224Y103018D02*
X685858Y89383D01*
X400940Y117494D02*
Y125414D01*
Y117494D02*
X407944Y110490D01*
X373232Y103018D02*
X672224D01*
X388818Y106267D02*
X676002D01*
X407944Y110490D02*
X677790D01*
X340200Y99768D02*
X667671D01*
X677790Y110490D02*
X694690Y93590D01*
X715075Y849630D02*
X725170Y839535D01*
X685858Y88402D02*
Y89383D01*
Y88402D02*
X689610Y84650D01*
X694690Y93485D02*
Y93590D01*
X676002Y106267D02*
X684534Y97735D01*
X380475Y114611D02*
X388818Y106267D01*
X269240Y849630D02*
X715075D01*
X233680Y813940D02*
Y814070D01*
X269240Y849630D01*
D12*
X296944Y163594D02*
X332964Y199614D01*
X284232Y163594D02*
X296944D01*
X786130Y190597D02*
Y203200D01*
X332964Y199614D02*
X378577D01*
X435356Y142835D02*
X474980D01*
X685800D02*
X738368D01*
X474980D02*
X685800D01*
X378577Y199614D02*
X435356Y142835D01*
X738368D02*
X786130Y190597D01*
X691250Y519530D02*
X691350Y519630D01*
X666850Y519530D02*
X691250D01*
X666750Y519430D02*
X666850Y519530D01*
X515848Y582180D02*
X692107D01*
X695320Y578967D01*
X695970D01*
X503898Y570230D02*
X515848Y582180D01*
X454660Y570230D02*
X503898D01*
D13*
X464433Y296752D02*
X464710D01*
X459345Y301840D02*
X464433Y296752D01*
X321653Y273756D02*
X380730D01*
X322316Y269116D02*
X322815Y269615D01*
X326435D01*
X318566Y270669D02*
X321653Y273756D01*
X318566Y270010D02*
Y270669D01*
X317220Y268664D02*
X318566Y270010D01*
X317220Y267853D02*
Y268664D01*
X326435Y269615D02*
X327162Y270343D01*
X317416Y257523D02*
X321968Y252971D01*
X317309Y257523D02*
X317416D01*
X327162Y270343D02*
X375062D01*
X321968Y252971D02*
X397245D01*
X175260Y300990D02*
X251154D01*
X550726Y451396D02*
X557708D01*
X548640Y453390D02*
X548732D01*
X550726Y451396D01*
X544830Y413960D02*
X559702Y428832D01*
X560176D01*
X600083Y458470D02*
X600373D01*
X595769Y454155D02*
X600083Y458470D01*
X594708Y454155D02*
X595769D01*
X593958Y454905D02*
X594708Y454155D01*
X593958Y454905D02*
Y462476D01*
X593208Y463226D02*
X593958Y462476D01*
X589708Y463226D02*
X593208D01*
X588958Y462476D02*
X589708Y463226D01*
X588958Y449720D02*
Y462476D01*
X588208Y448970D02*
X588958Y449720D01*
X584708Y448970D02*
X588208D01*
X583958Y449720D02*
X584708Y448970D01*
X583958Y449720D02*
Y465784D01*
X583208Y466534D02*
X583958Y465784D01*
X579708Y466534D02*
X583208D01*
X578958Y465784D02*
X579708Y466534D01*
X578958Y449720D02*
Y465784D01*
X578208Y448970D02*
X578958Y449720D01*
X574708Y448970D02*
X578208D01*
X573958Y449720D02*
X574708Y448970D01*
X573958Y449720D02*
Y465784D01*
X573208Y466534D02*
X573958Y465784D01*
X569708Y466534D02*
X573208D01*
X568958Y465784D02*
X569708Y466534D01*
X568958Y449720D02*
Y465784D01*
X568208Y448970D02*
X568958Y449720D01*
X564708Y448970D02*
X568208D01*
X563958Y449720D02*
X564708Y448970D01*
X563958Y449720D02*
Y465784D01*
X563208Y466534D02*
X563958Y465784D01*
X559708Y466534D02*
X563208D01*
X558958Y465784D02*
X559708Y466534D01*
X558958Y452146D02*
Y465784D01*
X558208Y451396D02*
X558958Y452146D01*
X557708Y451396D02*
X558208D01*
X600373Y458470D02*
X600710D01*
X636523Y468837D02*
Y489325D01*
X614406Y446720D02*
X636523Y468837D01*
X562580Y446720D02*
X614406D01*
X545472Y429612D02*
X562580Y446720D01*
X537995Y407125D02*
X544830Y413960D01*
X487664Y407125D02*
X537995D01*
X545151Y429612D02*
X545472D01*
X346340Y281256D02*
X378437D01*
X404994Y260720D02*
X405631D01*
X378437Y281256D02*
X397456Y262237D01*
Y261425D02*
Y262237D01*
X397245Y252971D02*
X404994Y260720D01*
X251154Y300990D02*
X251236Y300908D01*
X300321Y281256D02*
X346340D01*
X299940Y280875D02*
X300321Y281256D01*
X380730Y273756D02*
X389384Y265102D01*
X472303Y391764D02*
X487664Y407125D01*
X427528Y453002D02*
X436492D01*
X438150Y454660D02*
Y476250D01*
X421640Y447114D02*
X427528Y453002D01*
X436492D02*
X438150Y454660D01*
X421640Y439649D02*
Y447114D01*
X403673Y347618D02*
X425864Y325426D01*
X389890Y347618D02*
X403673D01*
X346340D02*
X389890D01*
X344298D02*
X346340D01*
X337350Y340670D02*
X344298Y347618D01*
X278673Y340670D02*
X337350D01*
X271364Y347980D02*
X278673Y340670D01*
X270552Y348791D02*
X271364Y347980D01*
X338326Y336696D02*
X345747Y344118D01*
X294872Y336696D02*
X338326D01*
X288024Y329849D02*
X294872Y336696D01*
X264317Y329849D02*
X288024D01*
X261885Y332281D02*
X264317Y329849D01*
X261801Y332281D02*
X261885D01*
X370851Y525154D02*
X379618Y533921D01*
X468114D01*
X477948Y524087D01*
X370851Y524750D02*
Y525154D01*
X389384Y261234D02*
X389477Y261142D01*
X389384Y261234D02*
Y265102D01*
X465437Y490335D02*
X465463Y490362D01*
X443345Y490335D02*
X465437D01*
X477948Y517105D02*
Y524087D01*
X377190Y359512D02*
X377292D01*
X379730Y361950D01*
X389890D01*
X442977Y301840D02*
X459345D01*
X425864Y318953D02*
X442977Y301840D01*
X425864Y318953D02*
Y322580D01*
Y325426D01*
X151130Y325120D02*
X175260Y300990D01*
X381010Y264395D02*
X384588D01*
X385038Y263945D01*
X635949Y489899D02*
X636523Y489325D01*
X375062Y270343D02*
X381010Y264395D01*
X438150Y476250D02*
Y485140D01*
X443345Y490335D01*
X418301Y436310D02*
X421640Y439649D01*
X389890Y361950D02*
X394799D01*
X415272Y382423D01*
X450385Y382490D02*
X454858D01*
X448100Y380205D02*
X450385Y382490D01*
X441393Y380205D02*
X448100D01*
X457200Y384832D02*
Y396240D01*
X472303Y381611D02*
Y391764D01*
Y381611D02*
X476862Y377052D01*
X454858Y382490D02*
X457200Y384832D01*
X439175Y382423D02*
X441393Y380205D01*
X415272Y382423D02*
X439175D01*
D15*
X719699Y748679D02*
X731391D01*
X748523Y765810D01*
X718820Y749557D02*
X719699Y748679D01*
X717677Y745929D02*
X732531D01*
X749662Y763060D01*
X715445Y748161D02*
X717677Y745929D01*
X718820Y749557D02*
Y755650D01*
X713570Y750036D02*
X715445Y748161D01*
X713570Y750036D02*
Y755650D01*
X715445Y748161D02*
Y748161D01*
X763440Y768441D02*
Y773855D01*
X763650Y774065D01*
X758190Y767080D02*
Y774255D01*
X758059Y763060D02*
X763440Y768441D01*
X749662Y763060D02*
X758059D01*
X756920Y765810D02*
X758190Y767080D01*
X748523Y765810D02*
X756920D01*
D17*
X532257Y535069D02*
X540867Y526459D01*
Y525780D02*
Y526459D01*
X838632Y286881D02*
X839158Y287407D01*
X842402D02*
X842876Y287881D01*
X845281Y292131D02*
X848917Y288495D01*
X839158Y287407D02*
X842402D01*
X838632Y292131D02*
X845281D01*
X842876Y287881D02*
X844934D01*
X628422Y557595D02*
X648322D01*
X659299Y503876D02*
X721678Y441497D01*
X657953Y500626D02*
X720332Y438247D01*
X568793Y492695D02*
X580205Y504107D01*
X570139Y489445D02*
X581551Y500857D01*
X611564Y511376D02*
X710766D01*
X579169Y506607D02*
X609262D01*
X611604Y517018D02*
X611811Y517225D01*
X704395Y513876D02*
X742933Y552414D01*
X608458Y503876D02*
X659299D01*
X609262Y506607D02*
X609493Y506376D01*
X608227Y504107D02*
X608458Y503876D01*
X607112Y500626D02*
X657953D01*
X581551Y500857D02*
X606881D01*
X710766Y511376D02*
X731520Y532130D01*
X609493Y506376D02*
X662514D01*
X666808Y508876D02*
X669510Y506174D01*
X611811Y517225D02*
X613679D01*
X569995Y508040D02*
X576062Y514107D01*
X610529Y508876D02*
X666808D01*
X577098Y511607D02*
X611333D01*
X575545Y520660D02*
X609766D01*
X612600Y513876D02*
X704395D01*
X662514Y506376D02*
X668642Y500248D01*
X613679Y517225D02*
X614205Y517751D01*
X609766Y520660D02*
X609999Y520893D01*
X612369Y514107D02*
X612600Y513876D01*
X576062Y514107D02*
X612369D01*
X575438Y517018D02*
X611604D01*
X606881Y500857D02*
X607112Y500626D01*
X571031Y505540D02*
X577098Y511607D01*
X573102Y500540D02*
X579169Y506607D01*
X610298Y509107D02*
X610529Y508876D01*
X578134Y509107D02*
X610298D01*
X611333Y511607D02*
X611564Y511376D01*
X580205Y504107D02*
X608227D01*
X572067Y503040D02*
X578134Y509107D01*
X568960Y510540D02*
X575438Y517018D01*
X742933Y552414D02*
Y552414D01*
X133350Y345440D02*
X229671D01*
X721678Y441497D02*
X792090D01*
X811509D01*
X509330Y477523D02*
Y485096D01*
X516929Y492695D02*
X568793D01*
X509330Y485096D02*
X516929Y492695D01*
X811509Y441497D02*
X814927Y438079D01*
X821671Y428359D02*
Y431335D01*
X814927Y438079D02*
X821671Y431335D01*
Y428359D02*
X824580Y425450D01*
X792090Y438247D02*
X797965D01*
X798753Y437459D01*
Y428394D02*
Y437459D01*
Y428394D02*
X799540Y427607D01*
X803215D01*
X804003Y428394D01*
Y437459D01*
X804790Y438247D01*
X810163D01*
X812629Y435781D01*
X720332Y438247D02*
X792090D01*
X513769Y479316D02*
Y484938D01*
X514574Y477766D02*
Y478510D01*
X513769Y479316D02*
X514574Y478510D01*
X513769Y484938D02*
X518275Y489445D01*
X570139D01*
X812629Y435781D02*
X818330Y430080D01*
Y425450D02*
Y430080D01*
X581660Y617220D02*
X593090Y628650D01*
X632833Y724769D02*
X688653D01*
X544830Y467913D02*
X545826Y468909D01*
X536136Y459219D02*
X544830Y467913D01*
X440656Y320239D02*
Y320322D01*
X443355Y316657D02*
Y317541D01*
Y316657D02*
X446344Y313667D01*
X440656Y320239D02*
X443355Y317541D01*
X657481Y497309D02*
X720449Y434340D01*
X588631Y497309D02*
X657481D01*
X612830Y438840D02*
X615318Y441329D01*
Y442442D01*
X615318Y442442D02*
X615318Y442442D01*
X615318Y442442D02*
Y443556D01*
X617917Y446155D01*
X619031D01*
X623917Y441268D01*
X625031D01*
X627630Y443867D01*
Y444980D01*
X623857Y448753D02*
X627630Y444980D01*
X623857Y448753D02*
Y449867D01*
X624299Y450309D01*
X612790Y438800D02*
X612830Y438840D01*
X624299Y450309D02*
X628650Y454660D01*
X559819Y438800D02*
X612790D01*
X544830Y420148D02*
X557390Y432707D01*
X620538D02*
X644625Y456795D01*
X557390Y432707D02*
X620538D01*
X544830Y423811D02*
X559819Y438800D01*
X532519Y411500D02*
X544830Y423811D01*
X582496Y472804D02*
X586082D01*
X581708Y473592D02*
X582496Y472804D01*
X581708Y473592D02*
Y482729D01*
X580921Y483516D02*
X581708Y482729D01*
X577246Y483516D02*
X580921D01*
X576458Y482729D02*
X577246Y483516D01*
X576458Y472196D02*
Y482729D01*
X575671Y471409D02*
X576458Y472196D01*
X571996Y471409D02*
X575671D01*
X571208Y472196D02*
X571996Y471409D01*
X571208Y472196D02*
Y483742D01*
X570421Y484530D02*
X571208Y483742D01*
X566746Y484530D02*
X570421D01*
X565958Y483742D02*
X566746Y484530D01*
X565958Y473592D02*
Y483742D01*
X565171Y472804D02*
X565958Y473592D01*
X564546Y472804D02*
X565171D01*
X547005D02*
X564546D01*
X586082D02*
X602345D01*
X614361Y484821D02*
X615170Y485630D01*
X614361Y483708D02*
Y484821D01*
Y483708D02*
X620757Y477312D01*
Y476198D02*
Y477312D01*
X618159Y473600D02*
X620757Y476198D01*
X617045Y473600D02*
X618159D01*
X602042Y488603D02*
X617045Y473600D01*
X600928Y488603D02*
X602042D01*
X598329Y486004D02*
X600928Y488603D01*
X598329Y484891D02*
Y486004D01*
Y484891D02*
X605823Y477397D01*
Y476283D02*
Y477397D01*
X605381Y475841D02*
X605823Y476283D01*
X615170Y485630D02*
X618490Y488950D01*
X602345Y472804D02*
X605381Y475841D01*
X545826Y468909D02*
X617004D01*
X630039Y481944D01*
X542402Y477408D02*
X547005Y472804D01*
X501115Y411500D02*
X532519D01*
X490037Y422579D02*
X501115Y411500D01*
X533932Y409250D02*
X544830Y420148D01*
X496986Y409250D02*
X533932D01*
X644625Y456795D02*
Y456897D01*
X552932Y553458D02*
X685487D01*
X552668Y553194D02*
X552932Y553458D01*
X685487D02*
X688916Y556887D01*
X731520Y532130D02*
X737870D01*
X513610Y682150D02*
X522130D01*
X510265Y609636D02*
X517266Y602635D01*
X511370Y613435D02*
X518296Y606510D01*
X528662D01*
X260505Y403465D02*
X320676D01*
X329045Y411833D01*
X239520Y382481D02*
X260505Y403465D01*
X296482Y390073D02*
X302649Y396240D01*
X301289Y388620D02*
X327660D01*
X279219Y366550D02*
X301289Y388620D01*
X242913Y395339D02*
X256679Y409104D01*
X407917Y299063D02*
X408854Y298126D01*
X381324Y299063D02*
X407917D01*
X321284Y226318D02*
X474980D01*
X286583Y191617D02*
X321284Y226318D01*
X474980D02*
X685800D01*
X489938Y416298D02*
X496986Y409250D01*
X490037Y422579D02*
Y422707D01*
X588304Y496982D02*
X588631Y497309D01*
X567924Y513040D02*
X575545Y520660D01*
X453694Y508040D02*
X569995D01*
X448230Y505540D02*
X571031D01*
X441840Y503040D02*
X572067D01*
X379570Y500540D02*
X573102D01*
X378460Y496570D02*
X565150D01*
X457200Y510540D02*
X568960D01*
X499150Y513040D02*
X567924D01*
X381000Y524750D02*
X405549D01*
X398235Y514622D02*
X398860Y515247D01*
X402597D02*
X402735Y515385D01*
X406371Y524101D02*
X408100Y522372D01*
X406197Y524101D02*
X406371D01*
X359360Y514622D02*
X398235D01*
X398860Y515247D02*
X402597D01*
X408340Y527439D02*
X408744Y527035D01*
X395470Y530000D02*
X396783Y531314D01*
X405549Y524750D02*
X406197Y524101D01*
X408744Y527035D02*
X414714D01*
X396783Y531314D02*
X410557D01*
X408100Y522372D02*
X416031D01*
X410557Y531314D02*
X411748Y530122D01*
X417107D01*
X338700Y493962D02*
X359360Y514622D01*
X381000Y530000D02*
X395470D01*
X414714Y527035D02*
X415502Y526247D01*
X361200Y529460D02*
X373036Y541296D01*
X375882Y538796D02*
X470133D01*
X347744Y543796D02*
X472204D01*
X373036Y541296D02*
X471169D01*
X345247Y546293D02*
X347744Y543796D01*
X348779Y546296D02*
X473240D01*
X364476Y527391D02*
X375882Y538796D01*
X366976Y526355D02*
X376917Y536296D01*
X469098D01*
X346282Y548793D02*
X348779Y546296D01*
X415502Y526247D02*
X469033D01*
X469098Y536296D02*
X483359Y522035D01*
X470133Y538796D02*
X484394Y524535D01*
X471169Y541296D02*
X485430Y527035D01*
X472204Y543796D02*
X485090Y530910D01*
X473240Y546296D02*
X484467Y535069D01*
X445770Y521970D02*
X457200Y510540D01*
X416031Y522372D02*
X416497Y521905D01*
X366030Y508000D02*
X368635Y505395D01*
X369635D02*
X378460Y496570D01*
X368635Y505395D02*
X369635D01*
X430763Y514117D02*
X441840Y503040D01*
X447087Y514647D02*
X453694Y508040D01*
X368235Y511875D02*
X379570Y500540D01*
X432090Y521680D02*
X448230Y505540D01*
X495300Y516890D02*
X499150Y513040D01*
X480113Y470067D02*
Y473950D01*
Y470067D02*
X480731Y469449D01*
Y467313D02*
Y469449D01*
X492370Y464243D02*
X501945Y473819D01*
X528429D02*
X539750Y485140D01*
X501945Y473819D02*
X528429D01*
X483801Y464243D02*
X492370D01*
X480731Y467313D02*
X483801Y464243D01*
X366976Y526221D02*
Y526355D01*
X364476Y527256D02*
Y527391D01*
X342997Y494723D02*
X360149Y511875D01*
X365760Y508000D02*
X366030D01*
X360149Y511875D02*
X368235D01*
X408854Y298126D02*
X409913Y298126D01*
X736258Y226318D02*
X739320Y229380D01*
X685800Y226318D02*
X736258D01*
X519507Y524535D02*
X524686Y519356D01*
X500452Y519810D02*
X516064D01*
X484394Y524535D02*
X519507D01*
X498227Y522035D02*
X500452Y519810D01*
X483359Y522035D02*
X498227D01*
X156145Y580455D02*
X188251Y548349D01*
X160020Y580204D02*
Y650240D01*
X157730Y675118D02*
Y675640D01*
X156145Y673533D02*
X157730Y675118D01*
X156145Y580455D02*
Y673533D01*
X624220Y724243D02*
X627037Y721426D01*
X623490Y724243D02*
X624220D01*
X627037Y721426D02*
X652717D01*
X592574Y728118D02*
X629483D01*
X274550Y424115D02*
X328197D01*
X270065Y428601D02*
X274550Y424115D01*
X328197D02*
X331244Y421068D01*
X256679Y409104D02*
X316089D01*
X253380Y390073D02*
X296482D01*
X249954Y386647D02*
X253380Y390073D01*
X316089Y409104D02*
X317852Y407340D01*
X318196D01*
X249865Y386647D02*
X249954D01*
X239520Y355809D02*
Y382481D01*
X260208Y366550D02*
X279219D01*
X160020Y580204D02*
X189375Y550849D01*
X266801D02*
X268857Y548793D01*
X189375Y550849D02*
X266801D01*
X267777Y546293D02*
X345247D01*
X188251Y548349D02*
X265721D01*
X268857Y548793D02*
X346282D01*
X265721Y548349D02*
X267777Y546293D01*
X144328Y441960D02*
X326730D01*
X342705Y457935D01*
X138476Y447812D02*
X144328Y441960D01*
X322366Y411854D02*
X322710D01*
X320603Y413618D02*
X322366Y411854D01*
X204095Y406400D02*
X211313Y413618D01*
X320603D01*
X294473Y454005D02*
X323772D01*
X342997Y473230D01*
Y486116D02*
Y494723D01*
X447961Y292877D02*
X468745D01*
X417288Y302522D02*
X438316D01*
X447961Y292877D01*
X412892Y298126D02*
X417288Y302522D01*
X409913Y298126D02*
X412892D01*
X468745Y292877D02*
X485660Y309792D01*
X446344Y313667D02*
X689704D01*
X293533Y496385D02*
X293611Y496462D01*
X337218D01*
X245954Y492412D02*
X249926Y496385D01*
X241527Y496487D02*
X243925Y498885D01*
X240843Y496487D02*
X241527D01*
X290122Y498962D02*
X336182D01*
X249926Y496385D02*
X293533D01*
X243925Y498885D02*
X290045D01*
X290122Y498962D01*
X297019Y492760D02*
X298221Y493962D01*
X239408Y475628D02*
X256540Y492760D01*
X297019D01*
X298221Y493962D02*
X338700D01*
X337218Y496462D02*
X366976Y526221D01*
X336182Y498962D02*
X364476Y527256D01*
X229210Y475628D02*
X239408D01*
X342131Y639950D02*
X523370D01*
X546100Y617220D01*
X370876Y609636D02*
X510265D01*
X357634Y596394D02*
X370876Y609636D01*
X341713Y640368D02*
X342131Y639950D01*
X233481Y349250D02*
X242907D01*
X779905Y168435D02*
X822842Y211373D01*
Y261502D01*
X842459Y276860D02*
X845667Y280067D01*
Y287149D01*
X848917Y278721D02*
Y288495D01*
X844934Y287881D02*
X845667Y287149D01*
X843806Y273610D02*
X848917Y278721D01*
X822842Y261502D02*
X838200Y276860D01*
X826092Y210026D02*
Y260156D01*
X839546Y273610D01*
X781251Y165185D02*
X826092Y210026D01*
X845260Y221062D02*
Y257688D01*
X842010Y222409D02*
Y256342D01*
X441544Y720544D02*
X579234D01*
X439755Y718755D02*
X441544Y720544D01*
X579234D02*
X585600Y726910D01*
X436545Y718755D02*
X439755D01*
X474980Y334850D02*
X476800Y333029D01*
X468182Y341648D02*
X474980Y334850D01*
X476800Y322580D02*
Y333029D01*
Y320242D02*
Y322580D01*
X434756Y720544D02*
X436545Y718755D01*
X346387Y720544D02*
X434756D01*
X446485Y806450D02*
X491618D01*
X441930Y811005D02*
X446485Y806450D01*
X420279Y811005D02*
X441930D01*
X414020Y811530D02*
X419045Y816555D01*
X463960D01*
X467010Y813505D01*
X491618Y806450D02*
X497280Y812113D01*
X420181Y811104D02*
X420279Y811005D01*
X353060Y842250D02*
X716975D01*
X723565Y835660D01*
X760730D01*
X688916Y556887D02*
X689660D01*
X479360Y317682D02*
X682172D01*
X476800Y320242D02*
X479360Y317682D01*
X720449Y434340D02*
X726440D01*
X616087Y569930D02*
X628422Y557595D01*
X669510Y505435D02*
Y506174D01*
X630039Y489519D02*
X630419Y489899D01*
X630039Y481944D02*
Y489519D01*
X678726Y698996D02*
X679022Y698700D01*
X652717Y721426D02*
X675147Y698996D01*
X678726D01*
X782287Y162685D02*
X842010Y222409D01*
X777825Y153627D02*
Y153826D01*
X783434Y159435D01*
X783633D01*
X768825Y157554D02*
X779706Y168435D01*
X768825Y157355D02*
Y157554D01*
X779706Y168435D02*
X779905D01*
X742145Y130675D02*
X768825Y157355D01*
X782088Y162685D02*
X782287D01*
X745873Y121675D02*
X777825Y153627D01*
X774575Y154973D02*
Y155172D01*
X743491Y127425D02*
X772075Y156009D01*
Y156208D02*
X781052Y165185D01*
X744526Y124925D02*
X774575Y154973D01*
Y155172D02*
X782088Y162685D01*
X783633Y159435D02*
X845260Y221062D01*
X772075Y156009D02*
Y156208D01*
X781052Y165185D02*
X781251D01*
X484467Y535069D02*
X532257D01*
X472040Y523240D02*
X472440D01*
X469033Y526247D02*
X472040Y523240D01*
X328976Y416334D02*
X329045Y416265D01*
Y411833D02*
Y416265D01*
X446343Y514647D02*
X447087D01*
X427617Y521680D02*
X432090D01*
X365243Y613435D02*
X511370D01*
X344170Y592362D02*
X365243Y613435D01*
X344170Y591820D02*
Y592362D01*
X474980Y648970D02*
X518160D01*
X544996Y622134D01*
X557271Y717291D02*
X649893D01*
X522130Y682150D02*
X557271Y717291D01*
X530302Y602670D02*
X532259D01*
X532785Y603196D01*
X530267Y602635D02*
X530302Y602670D01*
X517266Y602635D02*
X530267D01*
X649893Y717291D02*
X668474Y698710D01*
X629483Y728118D02*
X632833Y724769D01*
X668474Y649376D02*
Y698710D01*
Y649376D02*
X671420Y646430D01*
X246112Y95518D02*
X403860D01*
X238760Y102870D02*
X246112Y95518D01*
X234326Y60824D02*
X684491D01*
X236707Y66574D02*
X682110D01*
X238053Y69824D02*
X680763D01*
X235672Y64074D02*
X683145D01*
X745342Y121675D02*
X745873D01*
X683145Y64074D02*
X743996Y124925D01*
X742961Y127425D02*
X743491D01*
X680763Y69824D02*
X741614Y130675D01*
X682110Y66574D02*
X742961Y127425D01*
X741614Y130675D02*
X742145D01*
X684491Y60824D02*
X745342Y121675D01*
X743996Y124925D02*
X744526D01*
X710862Y647350D02*
X711121Y647092D01*
X757853D01*
X784860Y674099D02*
Y712470D01*
X757853Y647092D02*
X784860Y674099D01*
X671420Y646430D02*
X703580D01*
X539750Y485140D02*
X553720D01*
X230405Y64744D02*
X234326Y60824D01*
X262662Y452233D02*
X292701D01*
X467010Y813505D02*
X467643D01*
X292701Y452233D02*
X294473Y454005D01*
X485660Y309792D02*
X685800D01*
X682172Y317682D02*
X690880Y326390D01*
X229671Y345440D02*
X233481Y349250D01*
X242907D02*
X260208Y366550D01*
X544996Y622134D02*
X563434D01*
X546100Y617220D02*
X581660D01*
X499195Y527035D02*
X500206Y528046D01*
X485430Y527035D02*
X499195D01*
X485090Y530910D02*
X497590D01*
X511206Y528046D02*
X511570Y528410D01*
X500206Y528046D02*
X511206D01*
X227330Y69099D02*
X228074D01*
X229922Y73359D02*
X236707Y66574D01*
X228074Y69099D02*
X229179Y67994D01*
X229922Y73359D02*
Y73664D01*
X229179Y67994D02*
X231751D01*
X228806Y64744D02*
X230405D01*
X236472Y71405D02*
X238053Y69824D01*
X235946Y73397D02*
X236472Y72871D01*
X231751Y67994D02*
X235672Y64074D01*
X227702Y63640D02*
X228806Y64744D01*
X236472Y71405D02*
Y72871D01*
X226958Y63640D02*
X227702D01*
X838200Y276860D02*
X842459D01*
X836790Y262131D02*
X840817D01*
X837316Y257407D02*
X839261D01*
X840817Y262131D02*
X845260Y257688D01*
X836790Y256881D02*
X837316Y257407D01*
X839546Y273610D02*
X843806D01*
X839261Y257407D02*
X839585Y257732D01*
X840620D02*
X842010Y256342D01*
X839585Y257732D02*
X840620D01*
D147*
X795228Y187740D02*
Y303530D01*
X195006Y273949D02*
Y289302D01*
X201906Y296202D01*
X201479Y316981D02*
X201849D01*
X208240Y310590D02*
X219977D01*
X201849Y316981D02*
X208240Y310590D01*
X883920Y213190D02*
X884090Y213360D01*
X878753Y213273D02*
X878840Y213360D01*
X878753Y184063D02*
Y213273D01*
X883920Y185200D02*
Y213190D01*
X269850Y269466D02*
X290754Y248562D01*
X269391Y270871D02*
X269850Y270411D01*
Y269466D02*
Y270411D01*
X290754Y248562D02*
X355733D01*
X268984Y235122D02*
X355830D01*
X268862Y235000D02*
X268984Y235122D01*
X812817Y544678D02*
X837852Y519643D01*
X772072Y544678D02*
X812817D01*
X262570Y359141D02*
X262839Y359410D01*
X256582Y359141D02*
X262570D01*
X350309Y431544D02*
X350959D01*
X347824Y434030D02*
X350309Y431544D01*
X332149Y434030D02*
X347824D01*
X403860Y268445D02*
X415150Y279736D01*
X387240Y162626D02*
Y162996D01*
Y162626D02*
X424196Y125670D01*
X721120Y540780D02*
X740170Y559830D01*
X490460Y543800D02*
X574323D01*
X577343Y540780D01*
X721120D01*
X609574Y550783D02*
X719693D01*
X608231Y549440D02*
X609574Y550783D01*
X497233Y549440D02*
X608231D01*
X719693Y550783D02*
X725170Y556260D01*
X127407Y224579D02*
Y309281D01*
X156581Y338455D02*
X221147D01*
X127407Y309281D02*
X156581Y338455D01*
X355830Y235122D02*
X358690Y237981D01*
Y245604D01*
X355733Y248562D02*
X358690Y245604D01*
X252912Y270721D02*
Y271099D01*
X237886Y288398D02*
X237995Y288508D01*
X243086D01*
X247965Y283629D01*
X248860Y266670D02*
X252912Y270721D01*
X195006Y273949D02*
X202285Y266670D01*
X248860D01*
X304800Y436880D02*
X309930Y431750D01*
X424196Y125670D02*
X632460D01*
X195586Y230950D02*
X482828D01*
X187960Y238576D02*
X195586Y230950D01*
X346340Y284675D02*
X430850D01*
X264929D02*
X346340D01*
X263882Y283629D02*
X264929Y284675D01*
X257440Y283629D02*
X263882D01*
X247965D02*
X257440D01*
X308678Y627620D02*
X324093Y612205D01*
X249856Y627620D02*
X308678D01*
X249066Y626830D02*
X249856Y627620D01*
X180346Y626830D02*
X249066D01*
X179165Y629680D02*
X247886D01*
X249131Y630925D01*
X318505D01*
X485838Y539178D02*
X490460Y543800D01*
X457216Y287324D02*
X458017Y286524D01*
X462139D02*
X462416Y286247D01*
X433500Y287324D02*
X457216D01*
X458017Y286524D02*
X462139D01*
X482828Y230950D02*
X486550Y234672D01*
Y263473D01*
X473228Y276795D02*
X486550Y263473D01*
X468759Y276795D02*
X473228D01*
X348384Y194864D02*
X371245D01*
X432759Y133350D01*
X160020Y656590D02*
X196850D01*
X766150Y158662D02*
X795228Y187740D01*
X756920Y559830D02*
X772072Y544678D01*
X462616Y279736D02*
X474980Y292100D01*
X488622Y305742D01*
X415150Y279736D02*
X462616D01*
X488622Y305742D02*
X687477D01*
X430850Y284675D02*
X433500Y287324D01*
X329870Y431750D02*
X332149Y434030D01*
X309930Y431750D02*
X329870D01*
X290811Y313360D02*
X292217Y311954D01*
X282824Y313292D02*
X286043D01*
X292217Y310368D02*
Y311954D01*
X286111Y313360D02*
X290811D01*
X286043Y313292D02*
X286111Y313360D01*
X292217Y310368D02*
X292676Y309909D01*
X596155Y409261D02*
X599565Y412672D01*
X595835Y409261D02*
X596155D01*
X599565Y412672D02*
X697564D01*
X740170Y559830D02*
X756920D01*
X215169Y322510D02*
Y325984D01*
X221440Y332255D01*
X224130Y313549D02*
X257440D01*
X258353D01*
X221440Y332255D02*
X239210D01*
X215169Y322510D02*
X224130Y313549D01*
X258353D02*
X258610Y313292D01*
X210510Y649280D02*
X293836D01*
X207010Y652780D02*
X210510Y649280D01*
X207010Y646430D02*
X291896D01*
X303351Y634975D02*
X325095D01*
X291896Y646430D02*
X303351Y634975D01*
X196850Y656590D02*
X207010Y646430D01*
X298717Y573480D02*
X363024D01*
X290767Y565530D02*
X298717Y573480D01*
X325095Y634975D02*
X325120Y635000D01*
X299226Y643890D02*
X337820D01*
X293836Y649280D02*
X299226Y643890D01*
X166926Y613410D02*
X180346Y626830D01*
X176865Y627380D02*
X179165Y629680D01*
X171450Y627380D02*
X176865D01*
X324093Y612205D02*
X347550D01*
X234950Y344170D02*
X241610D01*
X256582Y359141D01*
X221147Y338455D02*
X221451Y338152D01*
X258610Y313292D02*
X260244D01*
X261234Y312302D01*
Y305545D02*
Y312302D01*
Y305545D02*
X262224Y304555D01*
X266844D01*
X267834Y305545D01*
Y315491D01*
X268824Y316481D01*
X273444D01*
X274434Y315491D01*
Y302556D02*
Y315491D01*
Y302556D02*
X275424Y301566D01*
X280044D01*
X281034Y302556D01*
Y312302D01*
X282024Y313292D01*
X282824D01*
X741037Y133350D02*
X766150Y158463D01*
X780500Y152519D02*
Y152718D01*
X785921Y153910D02*
X797871Y165860D01*
X783350Y151538D02*
X785723Y153910D01*
X784741Y156760D02*
X796691Y168710D01*
X784542Y156760D02*
X784741D01*
X742429Y110418D02*
X783350Y151339D01*
X766150Y158463D02*
Y158662D01*
X783350Y151339D02*
Y151538D01*
X785723Y153910D02*
X785921D01*
X741410Y113429D02*
X780500Y152519D01*
Y152718D02*
X784542Y156760D01*
X432759Y133350D02*
X741037D01*
X782423Y307140D02*
X789875Y299688D01*
X687477Y305742D02*
X688875Y307140D01*
X782423D01*
X213219Y54976D02*
X686457D01*
X226721Y58149D02*
X685599D01*
X740880Y113429D02*
X741410D01*
X741899Y110418D02*
X742429D01*
X685599Y58149D02*
X740880Y113429D01*
X686457Y54976D02*
X741899Y110418D01*
X797871Y165860D02*
X864581D01*
X796691Y168710D02*
X863400D01*
X224323Y60547D02*
X226721Y58149D01*
X213338Y60547D02*
X224323D01*
X166370Y613410D02*
X166926D01*
X864581Y165860D02*
X883920Y185200D01*
X863400Y168710D02*
X878753Y184063D01*
D151*
X727560Y630370D02*
D03*
Y604370D02*
D03*
Y617370D02*
D03*
Y591370D02*
D03*
X740560D02*
D03*
Y617370D02*
D03*
Y604370D02*
D03*
Y630370D02*
D03*
D153*
X169000Y826700D02*
D03*
X757200Y386000D02*
D03*
Y46000D02*
D03*
X167200D02*
D03*
X816400Y484100D02*
D03*
Y826700D02*
D03*
X169000Y484100D02*
D03*
X167200Y386000D02*
D03*
D154*
X61100Y723000D02*
D03*
X35700D02*
D03*
X61100Y519800D02*
D03*
X35700Y494400D02*
D03*
Y519800D02*
D03*
X61100Y494400D02*
D03*
X86500Y672200D02*
D03*
X111900Y646800D02*
D03*
X86500Y697600D02*
D03*
X111900D02*
D03*
X86500Y291200D02*
D03*
X111900Y672200D02*
D03*
Y621400D02*
D03*
X86500Y596000D02*
D03*
X111900D02*
D03*
Y316600D02*
D03*
Y291200D02*
D03*
Y265800D02*
D03*
Y240400D02*
D03*
X86500Y189600D02*
D03*
X111900Y443600D02*
D03*
Y469000D02*
D03*
Y392800D02*
D03*
Y418200D02*
D03*
Y164200D02*
D03*
X86500Y316600D02*
D03*
X111900Y342000D02*
D03*
X86500D02*
D03*
X111900Y367400D02*
D03*
X86500D02*
D03*
Y392800D02*
D03*
Y443600D02*
D03*
Y418200D02*
D03*
Y469000D02*
D03*
X111900Y494400D02*
D03*
X86500D02*
D03*
X111900Y519800D02*
D03*
X86500D02*
D03*
X111900Y545200D02*
D03*
X86500D02*
D03*
X111900Y570600D02*
D03*
X86500D02*
D03*
Y621400D02*
D03*
Y646800D02*
D03*
X111900Y723000D02*
D03*
X86500D02*
D03*
X111900Y748400D02*
D03*
X86500D02*
D03*
X111900Y773800D02*
D03*
X86500D02*
D03*
Y138800D02*
D03*
Y164200D02*
D03*
X111900Y189600D02*
D03*
Y215000D02*
D03*
X86500D02*
D03*
Y265800D02*
D03*
Y240400D02*
D03*
X35700D02*
D03*
Y291200D02*
D03*
Y265800D02*
D03*
X61100D02*
D03*
Y240400D02*
D03*
X35700Y215000D02*
D03*
X61100D02*
D03*
X35700Y189600D02*
D03*
X61100D02*
D03*
X35700Y164200D02*
D03*
X61100D02*
D03*
X35700Y138800D02*
D03*
Y773800D02*
D03*
X61100D02*
D03*
X35700Y748400D02*
D03*
X61100D02*
D03*
X35700Y672200D02*
D03*
X61100D02*
D03*
X35700Y646800D02*
D03*
X61100D02*
D03*
Y621400D02*
D03*
X35700D02*
D03*
Y570600D02*
D03*
Y596000D02*
D03*
X61100D02*
D03*
Y570600D02*
D03*
X35700Y545200D02*
D03*
X61100D02*
D03*
X35700Y392800D02*
D03*
X61100D02*
D03*
X35700Y367400D02*
D03*
X61100D02*
D03*
X35700Y342000D02*
D03*
X61100D02*
D03*
X35700Y316600D02*
D03*
X61100D02*
D03*
Y291200D02*
D03*
Y469000D02*
D03*
X35700D02*
D03*
X61100Y443600D02*
D03*
X35700D02*
D03*
Y697600D02*
D03*
X61100D02*
D03*
X35700Y418200D02*
D03*
X61100D02*
D03*
D155*
X166150Y742100D02*
D03*
Y582100D02*
D03*
D156*
X825540Y744220D02*
D03*
Y769620D02*
D03*
D158*
X194200Y111000D02*
D03*
Y201000D02*
D03*
D159*
X111900Y138800D02*
D03*
X61100D02*
D03*
D160*
X401457Y439277D02*
D03*
X540867Y525780D02*
D03*
X875030Y140970D02*
D03*
X487229Y93505D02*
D03*
X587018Y91186D02*
D03*
X562202Y91440D02*
D03*
X556952D02*
D03*
X416642Y318876D02*
D03*
X421792Y321926D02*
D03*
X386080Y331470D02*
D03*
X389890Y335280D02*
D03*
X592268Y91186D02*
D03*
X464710Y296752D02*
D03*
X473710Y283210D02*
D03*
X792480Y623570D02*
D03*
X777240D02*
D03*
X784860D02*
D03*
X792480Y617220D02*
D03*
X61431Y12710D02*
D03*
X70431D02*
D03*
X34431D02*
D03*
X52431D02*
D03*
X43431D02*
D03*
X106431D02*
D03*
X115431D02*
D03*
X79431D02*
D03*
X97431D02*
D03*
X88431D02*
D03*
X25484Y13685D02*
D03*
X10170Y34065D02*
D03*
X17654Y18123D02*
D03*
X12229Y25304D02*
D03*
X151431Y12710D02*
D03*
X124431D02*
D03*
X142431D02*
D03*
X133431D02*
D03*
X187430D02*
D03*
X196430D02*
D03*
X160431D02*
D03*
X178431D02*
D03*
X169431D02*
D03*
X201502Y20145D02*
D03*
X208221Y26133D02*
D03*
X216873Y28611D02*
D03*
X10170Y70065D02*
D03*
Y97065D02*
D03*
Y79065D02*
D03*
Y88065D02*
D03*
Y52065D02*
D03*
Y43065D02*
D03*
Y61065D02*
D03*
X178274Y258242D02*
D03*
X214426Y276966D02*
D03*
X243873Y28710D02*
D03*
X225873D02*
D03*
X234873D02*
D03*
X279873D02*
D03*
X252873D02*
D03*
X270873D02*
D03*
X261873D02*
D03*
X288873D02*
D03*
X297873D02*
D03*
X315872D02*
D03*
X324873D02*
D03*
X306873D02*
D03*
X269753Y320281D02*
D03*
X270916Y297560D02*
D03*
X254493Y374058D02*
D03*
X240490Y388930D02*
D03*
X297869Y294477D02*
D03*
X302685Y319560D02*
D03*
X292685Y324560D02*
D03*
X312629Y293755D02*
D03*
X313862Y308383D02*
D03*
X322923Y329122D02*
D03*
X307688Y332022D02*
D03*
X333872Y28710D02*
D03*
X351872D02*
D03*
X342872D02*
D03*
X360872D02*
D03*
X369872D02*
D03*
X378872D02*
D03*
X414872D02*
D03*
X387872D02*
D03*
X405872D02*
D03*
X396872D02*
D03*
X397720Y337443D02*
D03*
X423872Y28710D02*
D03*
X422413Y91941D02*
D03*
X432872Y28710D02*
D03*
X441872D02*
D03*
X428331Y288725D02*
D03*
X428050Y331298D02*
D03*
X447040Y261620D02*
D03*
X468872Y28710D02*
D03*
X477872D02*
D03*
X450872D02*
D03*
X459872D02*
D03*
X452120Y257810D02*
D03*
X468570Y331298D02*
D03*
X444300Y357920D02*
D03*
X455156Y351015D02*
D03*
X477210Y351298D02*
D03*
X398401Y360603D02*
D03*
X395672Y380260D02*
D03*
X417953Y387450D02*
D03*
X424800Y364298D02*
D03*
X431301Y377298D02*
D03*
X405300Y415787D02*
D03*
X444106Y370502D02*
D03*
X463864Y377234D02*
D03*
X483862Y377484D02*
D03*
X444300Y416298D02*
D03*
Y422798D02*
D03*
X465437Y403236D02*
D03*
X469921Y403888D02*
D03*
X484034Y421641D02*
D03*
X231787Y581418D02*
D03*
X255385Y604815D02*
D03*
X246041Y621020D02*
D03*
X225780Y653610D02*
D03*
X235863Y653999D02*
D03*
X265863D02*
D03*
X266700Y635000D02*
D03*
X276863Y613910D02*
D03*
X335818Y541527D02*
D03*
X335816Y553187D02*
D03*
X305830Y582308D02*
D03*
X309880Y600710D02*
D03*
X340559Y580743D02*
D03*
X275590Y642380D02*
D03*
X267237D02*
D03*
X305785Y652483D02*
D03*
X285863Y653999D02*
D03*
X10171Y819627D02*
D03*
Y846627D02*
D03*
Y828627D02*
D03*
Y837627D02*
D03*
X215900Y779780D02*
D03*
X10171Y864627D02*
D03*
Y855627D02*
D03*
X237237Y662981D02*
D03*
X247237D02*
D03*
X10375Y873625D02*
D03*
X13495Y882066D02*
D03*
X19710Y888577D02*
D03*
X28030Y892007D02*
D03*
X127023Y892366D02*
D03*
X163023D02*
D03*
X172023D02*
D03*
X136023D02*
D03*
X154023D02*
D03*
X145023D02*
D03*
X64023D02*
D03*
X73023D02*
D03*
X37023D02*
D03*
X55023D02*
D03*
X46023D02*
D03*
X109023D02*
D03*
X118023D02*
D03*
X82023D02*
D03*
X100023D02*
D03*
X91023D02*
D03*
X210990Y877618D02*
D03*
X219902Y876364D02*
D03*
X228902Y876364D02*
D03*
X237902Y876364D02*
D03*
X246902Y876364D02*
D03*
X181023Y892366D02*
D03*
X190023D02*
D03*
X198744Y890143D02*
D03*
X203387Y882433D02*
D03*
X287237Y662981D02*
D03*
X267237D02*
D03*
X296356Y662621D02*
D03*
X260350Y795020D02*
D03*
X272094Y695804D02*
D03*
X292415Y696268D02*
D03*
X261620Y736600D02*
D03*
X297990Y755835D02*
D03*
X309397D02*
D03*
X332211D02*
D03*
X342637Y703580D02*
D03*
X320804Y755835D02*
D03*
X330780Y802257D02*
D03*
X330949Y808730D02*
D03*
X255902Y876364D02*
D03*
X264902Y876364D02*
D03*
X273902Y876364D02*
D03*
X282902Y876364D02*
D03*
X291902Y876364D02*
D03*
X300902Y876365D02*
D03*
X309902Y876365D02*
D03*
X318902Y876365D02*
D03*
X327902Y876365D02*
D03*
X336902Y876365D02*
D03*
X398470Y464820D02*
D03*
X424556Y436043D02*
D03*
X437800Y448661D02*
D03*
X350520Y567398D02*
D03*
Y561340D02*
D03*
X397202Y595687D02*
D03*
X417891Y559919D02*
D03*
X428216Y469786D02*
D03*
X420573Y597767D02*
D03*
X444300Y442298D02*
D03*
X469107Y432010D02*
D03*
X480801Y449798D02*
D03*
X453737Y453822D02*
D03*
X448000Y471170D02*
D03*
X469719Y467700D02*
D03*
X342637Y698500D02*
D03*
X386080Y675640D02*
D03*
X379730Y725740D02*
D03*
X349250Y740410D02*
D03*
X380722Y731798D02*
D03*
X359410Y793750D02*
D03*
X387350Y732790D02*
D03*
X396948Y829038D02*
D03*
X345902Y876365D02*
D03*
X354902Y876365D02*
D03*
X363902Y876365D02*
D03*
X372902Y876365D02*
D03*
X381902Y876365D02*
D03*
X390902Y876365D02*
D03*
X399902Y876365D02*
D03*
X408902Y876366D02*
D03*
X438150Y722630D02*
D03*
X419100Y789940D02*
D03*
X444392Y774219D02*
D03*
X454270Y812680D02*
D03*
X417902Y876366D02*
D03*
X453902D02*
D03*
X462902D02*
D03*
X426902D02*
D03*
X444902D02*
D03*
X435902D02*
D03*
X471902D02*
D03*
X474980Y861060D02*
D03*
X480902Y876366D02*
D03*
X486872Y28710D02*
D03*
X504872D02*
D03*
X495872D02*
D03*
X513872Y28711D02*
D03*
X522872Y28711D02*
D03*
X531872Y28711D02*
D03*
X540872Y28711D02*
D03*
X549872Y28711D02*
D03*
X558872Y28711D02*
D03*
X567872Y28711D02*
D03*
X576872Y28711D02*
D03*
X579050Y188048D02*
D03*
Y196048D02*
D03*
Y172048D02*
D03*
Y212048D02*
D03*
X579321Y267947D02*
D03*
X585872Y28711D02*
D03*
X594872Y28711D02*
D03*
X603872Y28711D02*
D03*
X612872Y28712D02*
D03*
X605050Y168048D02*
D03*
X621872Y28712D02*
D03*
X630872Y28712D02*
D03*
X639872Y28712D02*
D03*
X637051Y192048D02*
D03*
X589050Y200048D02*
D03*
X589080Y256100D02*
D03*
X637050Y200048D02*
D03*
X637050Y216048D02*
D03*
X597050Y232048D02*
D03*
X637050Y232048D02*
D03*
X486475Y326798D02*
D03*
X495696Y358726D02*
D03*
X506332Y340721D02*
D03*
X508767Y369984D02*
D03*
X489800Y377298D02*
D03*
X502920Y370840D02*
D03*
X496753Y400360D02*
D03*
X528626Y331687D02*
D03*
X543123Y341452D02*
D03*
X540550Y361048D02*
D03*
X544175Y279622D02*
D03*
X579050Y284048D02*
D03*
X516040Y387048D02*
D03*
X519298Y415292D02*
D03*
X539050Y380802D02*
D03*
X536041Y399991D02*
D03*
X535918Y420677D02*
D03*
X648872Y28712D02*
D03*
X657872Y28712D02*
D03*
X666872Y28712D02*
D03*
X675872Y28712D02*
D03*
X684872Y28712D02*
D03*
X693872Y28712D02*
D03*
X649051Y158048D02*
D03*
X655051Y172048D02*
D03*
X702872Y28712D02*
D03*
X711872Y28712D02*
D03*
X821685Y12710D02*
D03*
X830685D02*
D03*
X794685D02*
D03*
X812685D02*
D03*
X803685D02*
D03*
X866685D02*
D03*
X875685D02*
D03*
X839685D02*
D03*
X857685D02*
D03*
X848685D02*
D03*
X740685D02*
D03*
X720652Y26738D02*
D03*
X731693Y13090D02*
D03*
X727720Y21165D02*
D03*
X776685Y12710D02*
D03*
X785685D02*
D03*
X749685D02*
D03*
X767685D02*
D03*
X758685D02*
D03*
X884685D02*
D03*
X893685D02*
D03*
X902669Y13241D02*
D03*
X910898Y16887D02*
D03*
X916874Y23616D02*
D03*
X919681Y32167D02*
D03*
X919829Y41166D02*
D03*
Y68166D02*
D03*
Y50166D02*
D03*
Y59166D02*
D03*
Y122166D02*
D03*
X906356Y142856D02*
D03*
X919829Y131166D02*
D03*
X912304Y136102D02*
D03*
X919829Y86166D02*
D03*
Y77166D02*
D03*
Y113166D02*
D03*
Y95166D02*
D03*
Y104166D02*
D03*
X903829Y169519D02*
D03*
X903919Y151520D02*
D03*
X903829Y160519D02*
D03*
Y196519D02*
D03*
Y178519D02*
D03*
Y187519D02*
D03*
X655051Y252048D02*
D03*
Y212048D02*
D03*
Y204048D02*
D03*
X655086Y268061D02*
D03*
X655333Y284500D02*
D03*
X711959Y391931D02*
D03*
X903829Y214519D02*
D03*
Y205519D02*
D03*
Y241519D02*
D03*
Y223519D02*
D03*
Y232519D02*
D03*
Y268519D02*
D03*
Y259519D02*
D03*
Y250519D02*
D03*
X903829Y331519D02*
D03*
Y313519D02*
D03*
Y277519D02*
D03*
Y304519D02*
D03*
Y286519D02*
D03*
Y295519D02*
D03*
Y349519D02*
D03*
Y358519D02*
D03*
Y367519D02*
D03*
Y394519D02*
D03*
Y376519D02*
D03*
Y385519D02*
D03*
X903829Y403519D02*
D03*
Y412519D02*
D03*
X496373Y422734D02*
D03*
X495800Y442307D02*
D03*
X503524Y428644D02*
D03*
X508620Y429298D02*
D03*
X487474Y561713D02*
D03*
X505940Y466904D02*
D03*
X491838Y473710D02*
D03*
X537056Y439189D02*
D03*
X599490Y590550D02*
D03*
X634468Y521011D02*
D03*
X613410Y590550D02*
D03*
X572670Y692377D02*
D03*
X567935D02*
D03*
X507722Y789470D02*
D03*
X489902Y876366D02*
D03*
X498902D02*
D03*
X503287Y802045D02*
D03*
X516902Y876366D02*
D03*
X507902D02*
D03*
X567257Y795118D02*
D03*
X579902Y876366D02*
D03*
X525902D02*
D03*
X543902D02*
D03*
X534902D02*
D03*
X552902D02*
D03*
X570902D02*
D03*
X561902D02*
D03*
X587307Y632509D02*
D03*
X599490Y601980D02*
D03*
Y596900D02*
D03*
Y607060D02*
D03*
X593739Y703960D02*
D03*
Y679960D02*
D03*
Y691960D02*
D03*
X605739Y679960D02*
D03*
X605740Y691958D02*
D03*
X613410Y596900D02*
D03*
Y607060D02*
D03*
Y601980D02*
D03*
X620800Y631664D02*
D03*
X617739Y703960D02*
D03*
Y691960D02*
D03*
Y679960D02*
D03*
X643545Y692377D02*
D03*
X638810D02*
D03*
X605740Y703960D02*
D03*
X598995Y750808D02*
D03*
X588901Y876366D02*
D03*
X598170Y828040D02*
D03*
X597901Y876366D02*
D03*
X611088Y783399D02*
D03*
X606902Y876366D02*
D03*
X613127Y809895D02*
D03*
X615901Y876366D02*
D03*
X624902D02*
D03*
X642901D02*
D03*
X633901D02*
D03*
X786648Y536006D02*
D03*
X788670Y657860D02*
D03*
X903829Y439519D02*
D03*
Y430519D02*
D03*
Y511519D02*
D03*
X793133Y556991D02*
D03*
Y551093D02*
D03*
X793081Y568785D02*
D03*
Y562888D02*
D03*
X903829Y493519D02*
D03*
Y484519D02*
D03*
Y448519D02*
D03*
Y421519D02*
D03*
Y475519D02*
D03*
Y457519D02*
D03*
Y466519D02*
D03*
Y502519D02*
D03*
X903829Y538519D02*
D03*
Y520519D02*
D03*
Y529519D02*
D03*
Y565519D02*
D03*
Y547519D02*
D03*
Y556519D02*
D03*
X829310Y631190D02*
D03*
X838318Y630771D02*
D03*
X798830Y674370D02*
D03*
Y665480D02*
D03*
Y683260D02*
D03*
X829422Y645698D02*
D03*
X838318Y645771D02*
D03*
X903829Y619519D02*
D03*
Y583519D02*
D03*
Y574519D02*
D03*
Y610518D02*
D03*
Y592519D02*
D03*
Y601519D02*
D03*
Y628518D02*
D03*
X903829Y691518D02*
D03*
Y655518D02*
D03*
Y637519D02*
D03*
Y646518D02*
D03*
Y682518D02*
D03*
Y664518D02*
D03*
Y673518D02*
D03*
X711426Y707241D02*
D03*
X716280Y697230D02*
D03*
X675640Y795020D02*
D03*
X736600Y783590D02*
D03*
Y797560D02*
D03*
Y803910D02*
D03*
Y791210D02*
D03*
X657860Y831850D02*
D03*
X696901Y876366D02*
D03*
X705901Y876366D02*
D03*
X717550Y833120D02*
D03*
X651901Y876366D02*
D03*
X660901D02*
D03*
X687901D02*
D03*
X669901D02*
D03*
X678901D02*
D03*
X714897Y876650D02*
D03*
X723279Y879928D02*
D03*
X748030Y842010D02*
D03*
X729410Y886516D02*
D03*
X763250Y892366D02*
D03*
X736250D02*
D03*
X754250D02*
D03*
X745250D02*
D03*
X786130Y718820D02*
D03*
X800100Y697230D02*
D03*
X788011Y770750D02*
D03*
X807720Y721360D02*
D03*
X810078Y707572D02*
D03*
X903829Y700518D02*
D03*
Y727518D02*
D03*
Y709518D02*
D03*
Y718518D02*
D03*
Y745518D02*
D03*
Y736518D02*
D03*
Y754518D02*
D03*
X904767Y763469D02*
D03*
X909184Y771311D02*
D03*
X775970Y795020D02*
D03*
X880250Y892366D02*
D03*
X889250D02*
D03*
X853250D02*
D03*
X871250D02*
D03*
X862250D02*
D03*
X799250D02*
D03*
X808250D02*
D03*
X772250D02*
D03*
X790250D02*
D03*
X781250D02*
D03*
X835250D02*
D03*
X844250D02*
D03*
X817250D02*
D03*
X826250D02*
D03*
X898250Y892388D02*
D03*
X916575Y776447D02*
D03*
X919829Y829837D02*
D03*
Y856837D02*
D03*
Y838837D02*
D03*
Y847837D02*
D03*
Y793837D02*
D03*
Y784837D02*
D03*
Y820837D02*
D03*
Y802837D02*
D03*
Y811837D02*
D03*
X909253Y889212D02*
D03*
X915867Y883108D02*
D03*
X919829Y865837D02*
D03*
X919391Y874827D02*
D03*
X303331Y431480D02*
D03*
X271425Y394717D02*
D03*
X251236Y294637D02*
D03*
X447201Y330626D02*
D03*
X528813Y467772D02*
D03*
X312932Y523381D02*
D03*
X450979Y403340D02*
D03*
X425129Y430057D02*
D03*
X424623Y413850D02*
D03*
X398331Y400818D02*
D03*
X193142Y312375D02*
D03*
X549910Y478790D02*
D03*
X539610Y469298D02*
D03*
X675640Y424180D02*
D03*
X707390Y412750D02*
D03*
Y419100D02*
D03*
X723014Y283215D02*
D03*
X603200Y569517D02*
D03*
X903829Y322519D02*
D03*
Y340519D02*
D03*
X845930Y551070D02*
D03*
X838200Y201449D02*
D03*
X838200Y195580D02*
D03*
X838632Y286881D02*
D03*
Y292131D02*
D03*
X840835Y376482D02*
D03*
X459740Y773430D02*
D03*
X453390D02*
D03*
X525363Y479680D02*
D03*
X814070Y327660D02*
D03*
X808707Y293305D02*
D03*
X795228Y303530D02*
D03*
X283622Y169768D02*
D03*
X284232Y163594D02*
D03*
X317220Y267853D02*
D03*
X322316Y269116D02*
D03*
X317309Y257523D02*
D03*
X334500Y306915D02*
D03*
X331681Y314742D02*
D03*
X297322Y258143D02*
D03*
X327362Y257426D02*
D03*
X287685Y308560D02*
D03*
X361950Y114300D02*
D03*
X317554Y275549D02*
D03*
X302571Y258025D02*
D03*
X305957Y267967D02*
D03*
X311205Y268109D02*
D03*
X289560Y201930D02*
D03*
X589881Y569681D02*
D03*
X722630Y289560D02*
D03*
X648322Y557595D02*
D03*
X622705Y518784D02*
D03*
X609999Y520893D02*
D03*
X614205Y517751D02*
D03*
X834130Y113360D02*
D03*
X201906Y296202D02*
D03*
X188064Y292152D02*
D03*
X745490Y547829D02*
D03*
X742933Y552414D02*
D03*
X201479Y316981D02*
D03*
X219977Y310590D02*
D03*
X214328Y86360D02*
D03*
X754380Y220980D02*
D03*
Y214630D02*
D03*
X748030D02*
D03*
X741680D02*
D03*
X748030Y220980D02*
D03*
X688060D02*
D03*
X681710Y214630D02*
D03*
Y220980D02*
D03*
X688060Y214630D02*
D03*
X694410D02*
D03*
X372893Y165256D02*
D03*
X787400Y149860D02*
D03*
X878840Y213360D02*
D03*
X884090D02*
D03*
X129540Y656590D02*
D03*
Y699770D02*
D03*
Y723900D02*
D03*
X475647Y764158D02*
D03*
X381569Y550990D02*
D03*
X355600Y626110D02*
D03*
X360680D02*
D03*
X491490Y716280D02*
D03*
X518156Y811842D02*
D03*
X172740Y752321D02*
D03*
X788110Y349674D02*
D03*
X819150Y396240D02*
D03*
X811909Y593291D02*
D03*
X825491Y522352D02*
D03*
X732790Y416560D02*
D03*
X184479Y437102D02*
D03*
X199390Y214630D02*
D03*
X136412Y123058D02*
D03*
X186690Y256540D02*
D03*
X365760Y626110D02*
D03*
X569602Y768609D02*
D03*
X618490Y765810D02*
D03*
X654818Y767301D02*
D03*
X628766Y520303D02*
D03*
X487275Y796750D02*
D03*
X557087Y769323D02*
D03*
X204916Y276582D02*
D03*
X482028Y542988D02*
D03*
X676910Y767080D02*
D03*
X365760Y631190D02*
D03*
X360680D02*
D03*
X355600D02*
D03*
X365760Y621030D02*
D03*
X360680D02*
D03*
X355600D02*
D03*
X838010Y421447D02*
D03*
X509330Y477523D02*
D03*
X824580Y425450D02*
D03*
X818330Y425450D02*
D03*
X514574Y477766D02*
D03*
X325120Y114848D02*
D03*
X287223Y268829D02*
D03*
X284724Y264160D02*
D03*
X294527Y280089D02*
D03*
X268862Y235000D02*
D03*
X269391Y270871D02*
D03*
X760730Y259080D02*
D03*
X755332D02*
D03*
X749935D02*
D03*
X744538D02*
D03*
X739140D02*
D03*
X786130Y203200D02*
D03*
X837852Y519643D02*
D03*
X252730Y782320D02*
D03*
X485170Y517194D02*
D03*
X362015Y653406D02*
D03*
X509231Y422648D02*
D03*
X480843Y491009D02*
D03*
X314070Y357740D02*
D03*
X452024Y389812D02*
D03*
X451825Y377669D02*
D03*
X428082Y344745D02*
D03*
X424570Y423058D02*
D03*
X432545Y415207D02*
D03*
X415843Y413685D02*
D03*
X411480Y416127D02*
D03*
X371915Y334127D02*
D03*
X371946Y328827D02*
D03*
X372125Y323580D02*
D03*
X593613Y629173D02*
D03*
X262839Y359410D02*
D03*
X687070Y119380D02*
D03*
X633730Y116264D02*
D03*
X678180Y88900D02*
D03*
X400940Y125414D02*
D03*
X350959Y431544D02*
D03*
X688653Y724769D02*
D03*
X675640Y731943D02*
D03*
Y737870D02*
D03*
Y749723D02*
D03*
Y743797D02*
D03*
X386080Y279400D02*
D03*
X403860Y268445D02*
D03*
X549911Y463637D02*
D03*
X553530Y458884D02*
D03*
X536136Y459219D02*
D03*
X548640Y453390D02*
D03*
X547060Y442377D02*
D03*
X515300Y448798D02*
D03*
X483715Y428201D02*
D03*
X450016Y448424D02*
D03*
X706076Y498700D02*
D03*
X726434D02*
D03*
X719648D02*
D03*
X712862D02*
D03*
X699290D02*
D03*
X387240Y162996D02*
D03*
X617293Y751290D02*
D03*
X611644Y751357D02*
D03*
X418454Y455216D02*
D03*
X443674Y324309D02*
D03*
X440656Y320322D02*
D03*
X560176Y428832D02*
D03*
X588303Y442675D02*
D03*
X603250D02*
D03*
X600710Y458470D02*
D03*
X597819Y465034D02*
D03*
X659130Y546100D02*
D03*
X695970Y578967D02*
D03*
X691350Y519630D02*
D03*
X666750Y519430D02*
D03*
X362723Y261042D02*
D03*
X350520Y262663D02*
D03*
X344170D02*
D03*
X347980Y277506D02*
D03*
X397456Y261425D02*
D03*
X405631Y260720D02*
D03*
X140970Y559348D02*
D03*
X237886Y288398D02*
D03*
X251236Y289092D02*
D03*
X252912Y271099D02*
D03*
X251236Y300908D02*
D03*
X263162Y271671D02*
D03*
X273176Y280583D02*
D03*
X513610Y682150D02*
D03*
X515244Y616908D02*
D03*
Y623258D02*
D03*
X505128Y603378D02*
D03*
X511335Y603086D02*
D03*
X514661Y757879D02*
D03*
X269471Y399590D02*
D03*
X334010Y383540D02*
D03*
X327660Y388620D02*
D03*
X302649Y396240D02*
D03*
X304800Y436880D02*
D03*
X345497Y352218D02*
D03*
X242913Y402182D02*
D03*
Y395339D02*
D03*
X381324Y299063D02*
D03*
X456383Y147966D02*
D03*
X455930Y242570D02*
D03*
X461010Y153670D02*
D03*
X449021Y235000D02*
D03*
X460226Y247271D02*
D03*
X299940Y280875D02*
D03*
X342900Y277756D02*
D03*
X242053Y306432D02*
D03*
X318392Y293853D02*
D03*
X313798Y298616D02*
D03*
X300418Y268118D02*
D03*
X527403Y362386D02*
D03*
X299956Y358138D02*
D03*
X312420Y199390D02*
D03*
X515800Y357798D02*
D03*
X629050Y232048D02*
D03*
Y240048D02*
D03*
X515800Y364298D02*
D03*
X501800Y415942D02*
D03*
X392678Y679973D02*
D03*
X389933Y687776D02*
D03*
X367030Y702310D02*
D03*
Y707390D02*
D03*
X361950Y702310D02*
D03*
Y707390D02*
D03*
X356935D02*
D03*
Y702310D02*
D03*
X226984Y379474D02*
D03*
X588304Y496982D02*
D03*
X588645Y489924D02*
D03*
X590936Y485190D02*
D03*
X589280Y480060D02*
D03*
X595367Y489053D02*
D03*
X599335Y492490D02*
D03*
X565150Y496570D02*
D03*
Y516915D02*
D03*
X668429Y418017D02*
D03*
X285750Y623570D02*
D03*
X267560Y372697D02*
D03*
X263810Y378292D02*
D03*
X431301Y448661D02*
D03*
X430390Y457571D02*
D03*
X321310Y344170D02*
D03*
X331200Y353662D02*
D03*
X287020Y356870D02*
D03*
X281770D02*
D03*
X372109Y318330D02*
D03*
X372783Y307717D02*
D03*
X372772Y312979D02*
D03*
X271625Y333349D02*
D03*
X266589Y341836D02*
D03*
X270552Y348791D02*
D03*
X261817Y327281D02*
D03*
X404766Y520226D02*
D03*
X398100Y520020D02*
D03*
X408340Y527439D02*
D03*
X402735Y515385D02*
D03*
X451738Y530122D02*
D03*
X466344D02*
D03*
X485838Y539178D02*
D03*
X457849Y530122D02*
D03*
X445770Y521970D02*
D03*
X412205Y518497D02*
D03*
X416497Y521905D02*
D03*
X486550Y455798D02*
D03*
X480113Y473950D02*
D03*
X497910Y477534D02*
D03*
X503251Y477470D02*
D03*
X412486Y448660D02*
D03*
X405300Y462310D02*
D03*
X522674Y420260D02*
D03*
X502800Y422661D02*
D03*
X490037Y422707D02*
D03*
X489938Y416298D02*
D03*
X489696Y403048D02*
D03*
X483342Y416393D02*
D03*
X489804Y429402D02*
D03*
X489800Y435798D02*
D03*
X495924Y429298D02*
D03*
X644625Y456897D02*
D03*
X628650Y454660D02*
D03*
X361200Y529460D02*
D03*
X370851Y524750D02*
D03*
X365760Y508000D02*
D03*
X368300Y302260D02*
D03*
X462416Y286247D02*
D03*
X459740Y256540D02*
D03*
X464490Y261878D02*
D03*
X389477Y261142D02*
D03*
X465463Y490362D02*
D03*
X465490Y485085D02*
D03*
X477948Y517105D02*
D03*
X520086Y479706D02*
D03*
X495300Y516890D02*
D03*
X516064Y519810D02*
D03*
X524686Y519356D02*
D03*
X553126Y519439D02*
D03*
X348384Y194864D02*
D03*
X299720Y777240D02*
D03*
X308610D02*
D03*
X317500Y778510D02*
D03*
X521594Y616908D02*
D03*
Y623258D02*
D03*
X160020Y650240D02*
D03*
Y656590D02*
D03*
X161386Y664700D02*
D03*
X623490Y724243D02*
D03*
X598170Y657860D02*
D03*
X586680Y659300D02*
D03*
Y654050D02*
D03*
X574040Y684150D02*
D03*
Y699770D02*
D03*
X477210Y344798D02*
D03*
X468759Y276795D02*
D03*
X341846Y532190D02*
D03*
X389890Y657860D02*
D03*
X373380Y660400D02*
D03*
X377190Y665480D02*
D03*
X262788Y352308D02*
D03*
X292676Y309909D02*
D03*
X204095Y406400D02*
D03*
X249865Y386647D02*
D03*
X318196Y407340D02*
D03*
X595835Y409261D02*
D03*
X322710Y411854D02*
D03*
X377190Y359512D02*
D03*
X345747Y344118D02*
D03*
X342997Y473230D02*
D03*
Y486116D02*
D03*
X428130Y296752D02*
D03*
X432601Y322283D02*
D03*
X435886Y181610D02*
D03*
X261801Y332281D02*
D03*
X254765Y336186D02*
D03*
X239210Y332255D02*
D03*
X247015Y323498D02*
D03*
X264953Y293624D02*
D03*
X292884Y294863D02*
D03*
X255936Y309499D02*
D03*
X290805Y508831D02*
D03*
X276230Y502760D02*
D03*
X226300Y603250D02*
D03*
X312420Y490087D02*
D03*
X296909Y622780D02*
D03*
X290767Y565530D02*
D03*
X280430Y565150D02*
D03*
X271552Y581660D02*
D03*
X252173Y581173D02*
D03*
X241251Y581472D02*
D03*
X245954Y492412D02*
D03*
X240843Y496487D02*
D03*
X197735Y544474D02*
D03*
X202960Y543967D02*
D03*
X212090Y621030D02*
D03*
X318505Y630925D02*
D03*
X295910Y595630D02*
D03*
X193040Y581660D02*
D03*
X343618Y755835D02*
D03*
X366432D02*
D03*
X367030Y712470D02*
D03*
X361950D02*
D03*
X355025Y755835D02*
D03*
X356935Y712470D02*
D03*
X320040Y689610D02*
D03*
X309330Y608330D02*
D03*
X296781Y581859D02*
D03*
X296627Y672483D02*
D03*
X296041Y652803D02*
D03*
X275176Y755835D02*
D03*
X286583D02*
D03*
X287059Y672803D02*
D03*
X277059D02*
D03*
X267059D02*
D03*
X263769Y755835D02*
D03*
X252362Y754046D02*
D03*
X257059Y672803D02*
D03*
X237059D02*
D03*
X227059D02*
D03*
X247059D02*
D03*
X246041Y653330D02*
D03*
X285932Y613564D02*
D03*
X255990Y613090D02*
D03*
X227059Y614177D02*
D03*
X317500Y508000D02*
D03*
X229210Y475628D02*
D03*
X322962Y486536D02*
D03*
X332740Y477520D02*
D03*
X333600Y482699D02*
D03*
X308610Y594360D02*
D03*
X222250Y618490D02*
D03*
X337820Y643890D02*
D03*
X341713Y640368D02*
D03*
X325120Y635000D02*
D03*
X267025Y594710D02*
D03*
X266966Y613334D02*
D03*
X246380Y601980D02*
D03*
X227870Y634137D02*
D03*
X633190Y807946D02*
D03*
X239520Y355809D02*
D03*
X234950Y344170D02*
D03*
X382945Y352012D02*
D03*
X271256Y376650D02*
D03*
X221451Y338152D02*
D03*
X151130Y294640D02*
D03*
X237490Y270720D02*
D03*
X127407Y224579D02*
D03*
X133350Y213360D02*
D03*
X199220Y235000D02*
D03*
X204470D02*
D03*
X292650Y319545D02*
D03*
X821690Y609600D02*
D03*
X816440D02*
D03*
X836829Y609892D02*
D03*
X831535Y609804D02*
D03*
X462345Y758190D02*
D03*
X468182Y341648D02*
D03*
X444310Y383793D02*
D03*
X559120Y671652D02*
D03*
X544830Y766528D02*
D03*
X568960Y679070D02*
D03*
X567075Y712926D02*
D03*
X642325Y679070D02*
D03*
X689660Y556887D02*
D03*
X846903Y522459D02*
D03*
X846839Y533400D02*
D03*
X790602Y758190D02*
D03*
X372658Y290458D02*
D03*
Y296164D02*
D03*
X647812Y518138D02*
D03*
X656598Y489340D02*
D03*
X638857Y518129D02*
D03*
X627590Y657183D02*
D03*
X669510Y505435D02*
D03*
X668701Y500248D02*
D03*
X385038Y263945D02*
D03*
X468706Y251633D02*
D03*
X676473Y558882D02*
D03*
X643061Y489000D02*
D03*
X646477Y492986D02*
D03*
X630419Y489899D02*
D03*
X635949D02*
D03*
X618490Y488950D02*
D03*
X737870Y532130D02*
D03*
X533422Y538921D02*
D03*
X545151Y429612D02*
D03*
X592466Y751191D02*
D03*
X607711Y732033D02*
D03*
X631465Y751565D02*
D03*
X625521Y751984D02*
D03*
X687070Y826770D02*
D03*
X687328Y797061D02*
D03*
X753988Y741680D02*
D03*
X725170Y839535D02*
D03*
X679022Y698700D02*
D03*
X612238Y791172D02*
D03*
X656590Y803910D02*
D03*
X688340Y701867D02*
D03*
X346387Y720544D02*
D03*
X381000Y524750D02*
D03*
X585600Y726910D02*
D03*
X632460Y125670D02*
D03*
X635667Y121514D02*
D03*
X729617Y137400D02*
D03*
X464705Y93520D02*
D03*
X470104D02*
D03*
X364490Y163830D02*
D03*
X376074Y170882D02*
D03*
X394432Y213537D02*
D03*
X328930Y163830D02*
D03*
X257219Y348870D02*
D03*
X454671Y555783D02*
D03*
X138476Y447812D02*
D03*
X491731Y538944D02*
D03*
X520700D02*
D03*
X504190Y539750D02*
D03*
X527149Y538944D02*
D03*
X472440Y523240D02*
D03*
X666750Y574040D02*
D03*
X661670Y568960D02*
D03*
Y574040D02*
D03*
X671830D02*
D03*
X666750Y568960D02*
D03*
X661670Y563880D02*
D03*
X746189Y423241D02*
D03*
X753110Y427990D02*
D03*
X845820Y542290D02*
D03*
X473326Y770315D02*
D03*
X589350Y766528D02*
D03*
X331244Y421068D02*
D03*
X328976Y416334D02*
D03*
X353060Y842250D02*
D03*
X367030Y670560D02*
D03*
X381000Y530000D02*
D03*
X446343Y514647D02*
D03*
X417107Y530122D02*
D03*
X427617Y521680D02*
D03*
X347275Y779230D02*
D03*
X640040Y656368D02*
D03*
Y650618D02*
D03*
X640164Y644992D02*
D03*
X417345Y579833D02*
D03*
X580682Y570130D02*
D03*
X454660Y570230D02*
D03*
X653172Y672426D02*
D03*
X650268Y632460D02*
D03*
X645018D02*
D03*
X356870Y666750D02*
D03*
X344170Y591820D02*
D03*
X347550Y612205D02*
D03*
X357634Y596394D02*
D03*
X448671Y739000D02*
D03*
X342705Y457935D02*
D03*
X568960Y704850D02*
D03*
X522409Y700117D02*
D03*
X516059D02*
D03*
Y693767D02*
D03*
X522409D02*
D03*
X528662Y606510D02*
D03*
X532785Y603196D02*
D03*
X604520Y629920D02*
D03*
X613354Y631721D02*
D03*
X627260Y632089D02*
D03*
X648337Y712368D02*
D03*
X642520Y704850D02*
D03*
X689610Y84650D02*
D03*
X694690Y93485D02*
D03*
X684534Y97735D02*
D03*
X533111Y92364D02*
D03*
X781364Y301230D02*
D03*
X752675Y303090D02*
D03*
X734060Y334010D02*
D03*
Y325175D02*
D03*
Y316341D02*
D03*
X741680Y316285D02*
D03*
Y325120D02*
D03*
Y333955D02*
D03*
X702310Y725826D02*
D03*
Y720742D02*
D03*
X333403Y346144D02*
D03*
X411987Y90933D02*
D03*
X403860Y95518D02*
D03*
X736109Y98533D02*
D03*
X286583Y191617D02*
D03*
X714231Y45847D02*
D03*
X875030Y96520D02*
D03*
X786548Y101451D02*
D03*
X792798Y96201D02*
D03*
X296685Y299483D02*
D03*
X246838Y255607D02*
D03*
X224790Y261620D02*
D03*
X308685Y299509D02*
D03*
X303685Y299560D02*
D03*
X763650Y774065D02*
D03*
X758190Y774255D02*
D03*
X713570Y755650D02*
D03*
X718820D02*
D03*
X702310Y730909D02*
D03*
X725170Y758190D02*
D03*
X730609Y765218D02*
D03*
X735877Y765210D02*
D03*
X761460Y207242D02*
D03*
X756210D02*
D03*
X743659Y695089D02*
D03*
X739320Y229380D02*
D03*
X477055Y410033D02*
D03*
X469837Y395614D02*
D03*
X467051Y368609D02*
D03*
X454325Y363764D02*
D03*
X676771Y569016D02*
D03*
X676473Y563880D02*
D03*
X710862Y647350D02*
D03*
X592574Y728118D02*
D03*
X694690Y673100D02*
D03*
X703580Y646430D02*
D03*
X676910Y574040D02*
D03*
X539750D02*
D03*
X546100D02*
D03*
Y568960D02*
D03*
X539750D02*
D03*
X455207Y576403D02*
D03*
X697564Y412672D02*
D03*
X463800Y390298D02*
D03*
X445008Y397051D02*
D03*
X444357Y390051D02*
D03*
X679450Y662940D02*
D03*
X684530D02*
D03*
X689610D02*
D03*
X694690D02*
D03*
X679450Y668020D02*
D03*
X684530D02*
D03*
X689610D02*
D03*
X694690D02*
D03*
X689610Y673100D02*
D03*
X684530D02*
D03*
X679450D02*
D03*
X553720Y485140D02*
D03*
X539750Y558800D02*
D03*
X546100D02*
D03*
Y563880D02*
D03*
X539750D02*
D03*
X523033Y400180D02*
D03*
X380475Y114611D02*
D03*
X481952Y93520D02*
D03*
X308610Y140970D02*
D03*
X337820Y511810D02*
D03*
X295910Y458470D02*
D03*
X262662Y452233D02*
D03*
X337820Y520700D02*
D03*
X309555Y448940D02*
D03*
X368005Y210842D02*
D03*
X369717Y215805D02*
D03*
X209240Y254960D02*
D03*
X214800Y255270D02*
D03*
X187960Y238576D02*
D03*
X209846Y147320D02*
D03*
X180340Y120650D02*
D03*
X238760Y102870D02*
D03*
X420181Y811104D02*
D03*
X497280Y812113D02*
D03*
X449580Y664210D02*
D03*
X467643Y813505D02*
D03*
X414020Y811530D02*
D03*
X413676Y676305D02*
D03*
X439420Y806450D02*
D03*
X400348Y821052D02*
D03*
X427618Y834762D02*
D03*
X151130Y325120D02*
D03*
X518160Y91440D02*
D03*
X511810D02*
D03*
X825322Y352946D02*
D03*
X378246Y387741D02*
D03*
X689704Y313667D02*
D03*
X685800Y309792D02*
D03*
X681542Y300866D02*
D03*
X690880Y326390D02*
D03*
X638770Y737492D02*
D03*
Y731742D02*
D03*
Y743242D02*
D03*
X661670Y787500D02*
D03*
X133350Y345440D02*
D03*
X518160Y671830D02*
D03*
Y666750D02*
D03*
X523240Y671830D02*
D03*
Y666750D02*
D03*
X528320Y671830D02*
D03*
X523240Y661670D02*
D03*
X518160D02*
D03*
X533400D02*
D03*
Y666750D02*
D03*
Y671830D02*
D03*
X528320Y661670D02*
D03*
Y666750D02*
D03*
X568960Y699770D02*
D03*
Y684150D02*
D03*
X637440D02*
D03*
X642520D02*
D03*
Y699770D02*
D03*
X637440D02*
D03*
X468630Y758190D02*
D03*
X535700Y743797D02*
D03*
Y737870D02*
D03*
Y731943D02*
D03*
X671830Y568960D02*
D03*
Y563880D02*
D03*
Y558800D02*
D03*
X661670D02*
D03*
X666750Y563880D02*
D03*
Y558800D02*
D03*
X195580Y165165D02*
D03*
X200725Y151130D02*
D03*
X696229Y397241D02*
D03*
X616087Y569930D02*
D03*
X568390Y632460D02*
D03*
X563140D02*
D03*
X559792Y408998D02*
D03*
X566109Y413061D02*
D03*
X318862Y308383D02*
D03*
X331631Y328903D02*
D03*
X360680Y140970D02*
D03*
X292685Y329560D02*
D03*
X238203Y435504D02*
D03*
X233085Y434337D02*
D03*
X474980Y648970D02*
D03*
X572440Y646138D02*
D03*
X563434Y622134D02*
D03*
X467672Y516510D02*
D03*
X497590Y530910D02*
D03*
X511570Y528410D02*
D03*
X430763Y514117D02*
D03*
X760730Y835660D02*
D03*
X659130Y809347D02*
D03*
X269240Y457200D02*
D03*
X214630Y78740D02*
D03*
X229922Y73664D02*
D03*
X227330Y69099D02*
D03*
X226958Y63640D02*
D03*
X235946Y73397D02*
D03*
X572440Y657638D02*
D03*
Y651888D02*
D03*
X699296Y492760D02*
D03*
X596559Y417003D02*
D03*
X726440Y434340D02*
D03*
X533400Y773430D02*
D03*
X725170Y556260D02*
D03*
X497233Y549440D02*
D03*
X390792Y437876D02*
D03*
X441740Y586751D02*
D03*
X454986Y589841D02*
D03*
X424504Y455262D02*
D03*
X425140Y442298D02*
D03*
X417985Y442122D02*
D03*
X411726Y429612D02*
D03*
X450800Y416298D02*
D03*
X457200Y416560D02*
D03*
X411060Y471170D02*
D03*
X552450Y553720D02*
D03*
X784860Y712470D02*
D03*
X789875Y299688D02*
D03*
X535700Y749723D02*
D03*
X595170Y779979D02*
D03*
X770890Y648970D02*
D03*
X776140D02*
D03*
X356935Y578321D02*
D03*
X502768Y344840D02*
D03*
X486387Y339933D02*
D03*
X509300Y351298D02*
D03*
X515800Y345056D02*
D03*
Y351298D02*
D03*
X495693Y351454D02*
D03*
X502713Y351232D02*
D03*
X347780Y217696D02*
D03*
X348975Y535940D02*
D03*
Y527699D02*
D03*
X259080Y424180D02*
D03*
X416732Y570103D02*
D03*
X370110Y565498D02*
D03*
X374065Y559153D02*
D03*
X363024Y573480D02*
D03*
X352850Y554538D02*
D03*
X224650Y191014D02*
D03*
X213549Y185641D02*
D03*
X712868Y492760D02*
D03*
X719654D02*
D03*
X726440D02*
D03*
X706082D02*
D03*
X207010Y652780D02*
D03*
X166370Y613410D02*
D03*
X171461Y638113D02*
D03*
X171450Y627380D02*
D03*
X171211Y632869D02*
D03*
X166214Y592200D02*
D03*
X171450Y591820D02*
D03*
X836790Y256881D02*
D03*
Y262131D02*
D03*
X213219Y54976D02*
D03*
X157730Y675640D02*
D03*
Y688340D02*
D03*
X167640Y701040D02*
D03*
X213338Y60547D02*
D03*
X868546Y184362D02*
D03*
Y191848D02*
D03*
Y214306D02*
D03*
Y206820D02*
D03*
X809639Y274941D02*
D03*
X810337Y280144D02*
D03*
X270065Y428601D02*
D03*
X878840Y290830D02*
D03*
Y284480D02*
D03*
X810260Y288290D02*
D03*
X246380Y214630D02*
D03*
X786130Y579120D02*
D03*
X515797Y422802D02*
D03*
X447621Y344724D02*
D03*
X457040Y403732D02*
D03*
X457200Y396240D02*
D03*
X463940Y409701D02*
D03*
X588302Y417381D02*
D03*
X411300Y439810D02*
D03*
X396584Y442180D02*
D03*
X391984Y416599D02*
D03*
X523901Y439172D02*
D03*
X522300Y449310D02*
D03*
X508301Y448443D02*
D03*
X502676Y448525D02*
D03*
X502920Y441960D02*
D03*
X489412Y442521D02*
D03*
X542402Y477408D02*
D03*
X516028Y442036D02*
D03*
X418301Y436310D02*
D03*
X476800Y390298D02*
D03*
Y383798D02*
D03*
X476862Y377052D02*
D03*
X483301Y370798D02*
D03*
X467118Y455510D02*
D03*
X448310Y478790D02*
D03*
X448576Y456479D02*
D03*
X480801Y437387D02*
D03*
X800100Y604520D02*
D03*
X792480D02*
D03*
X800100Y610870D02*
D03*
X792480D02*
D03*
X800100Y617220D02*
D03*
Y623570D02*
D03*
X395479Y389074D02*
D03*
X452468Y435915D02*
D03*
X529027Y461798D02*
D03*
X463822Y383735D02*
D03*
X427503Y386941D02*
D03*
X505789Y455981D02*
D03*
X281940Y779780D02*
D03*
X270510D02*
D03*
X336550Y779230D02*
D03*
X292493Y779780D02*
D03*
X348168Y211254D02*
D03*
X360829Y211290D02*
D03*
X311508Y315737D02*
D03*
X297683Y314560D02*
D03*
X297685Y309560D02*
D03*
Y304560D02*
D03*
X302685Y314560D02*
D03*
Y309560D02*
D03*
Y304560D02*
D03*
X655051Y240048D02*
D03*
X516312Y429298D02*
D03*
X470376Y409738D02*
D03*
X495880Y461809D02*
D03*
X496050Y455436D02*
D03*
X285990Y683512D02*
D03*
X529590Y326390D02*
D03*
X444419Y435728D02*
D03*
X516169Y435672D02*
D03*
X437800Y377810D02*
D03*
X435682Y400016D02*
D03*
X427622Y392750D02*
D03*
X424800Y377298D02*
D03*
Y370798D02*
D03*
X418218Y351352D02*
D03*
X405741Y364146D02*
D03*
X411827Y351464D02*
D03*
X418301Y376787D02*
D03*
X444500Y364490D02*
D03*
X437898Y344398D02*
D03*
X437777Y338185D02*
D03*
X431800Y352547D02*
D03*
X444245Y350851D02*
D03*
X430789Y422798D02*
D03*
X451507Y396953D02*
D03*
X287685Y289560D02*
D03*
X297670Y319569D02*
D03*
X308862Y308383D02*
D03*
X302685Y324560D02*
D03*
X312585Y324945D02*
D03*
X431301Y364298D02*
D03*
X437800D02*
D03*
X508620Y442163D02*
D03*
X579050Y260048D02*
D03*
X655156Y260018D02*
D03*
X589050Y216048D02*
D03*
X503300Y386873D02*
D03*
X506050Y327798D02*
D03*
X579050Y276048D02*
D03*
X502977Y357498D02*
D03*
X489800Y370798D02*
D03*
X525550Y380802D02*
D03*
X483301Y383798D02*
D03*
X509300Y357798D02*
D03*
X496301Y364298D02*
D03*
X589050Y232048D02*
D03*
X637051Y240048D02*
D03*
X543952Y297991D02*
D03*
X641050Y158048D02*
D03*
X655051Y180048D02*
D03*
X645051Y192048D02*
D03*
X579050Y164048D02*
D03*
X655051Y220048D02*
D03*
X629050Y208048D02*
D03*
X655051Y196048D02*
D03*
X476572Y364070D02*
D03*
X528801Y338298D02*
D03*
X579050Y204048D02*
D03*
Y180048D02*
D03*
X589050Y184048D02*
D03*
Y176048D02*
D03*
X655333Y275596D02*
D03*
X437800Y435798D02*
D03*
X431301Y442298D02*
D03*
X408118Y380298D02*
D03*
X410282Y361978D02*
D03*
X444300Y429298D02*
D03*
X431301Y357798D02*
D03*
X424800D02*
D03*
X411407Y399993D02*
D03*
X405575Y338751D02*
D03*
X472190Y358024D02*
D03*
X572440Y731742D02*
D03*
Y737492D02*
D03*
Y743242D02*
D03*
X597050Y240048D02*
D03*
X645050Y248048D02*
D03*
X579050Y220048D02*
D03*
X534759Y341183D02*
D03*
X605050Y232048D02*
D03*
X589050Y248048D02*
D03*
X522051Y351548D02*
D03*
X645050Y232048D02*
D03*
X605050Y240048D02*
D03*
X484072Y364804D02*
D03*
X596800Y255798D02*
D03*
X521050Y386873D02*
D03*
X645050Y256048D02*
D03*
X489775Y351261D02*
D03*
X597051Y248048D02*
D03*
X515800Y370798D02*
D03*
X629051Y248048D02*
D03*
X483301Y396798D02*
D03*
X655051Y295798D02*
D03*
X528496Y351679D02*
D03*
X597050Y288048D02*
D03*
X637050Y256048D02*
D03*
X509074Y377484D02*
D03*
X652551Y280048D02*
D03*
X483301Y390298D02*
D03*
X522300Y364298D02*
D03*
X637051Y248048D02*
D03*
X597050Y280048D02*
D03*
X655051Y289798D02*
D03*
X528496Y344631D02*
D03*
X589311Y280048D02*
D03*
X645050Y272048D02*
D03*
X496403Y383764D02*
D03*
X589050Y272048D02*
D03*
X496301Y377298D02*
D03*
X645050Y264048D02*
D03*
X589050Y264048D02*
D03*
X597050Y272048D02*
D03*
X637050Y264048D02*
D03*
X502574Y377234D02*
D03*
X597050Y264048D02*
D03*
X702310Y715659D02*
D03*
X731583Y658307D02*
D03*
X755532Y658270D02*
D03*
X731415Y682810D02*
D03*
X755708Y682997D02*
D03*
X759558Y735455D02*
D03*
X765128Y741680D02*
D03*
X861060Y688340D02*
D03*
Y673368D02*
D03*
Y680854D02*
D03*
X868546Y688340D02*
D03*
Y673368D02*
D03*
Y680854D02*
D03*
X861060Y695826D02*
D03*
X868546D02*
D03*
X861060Y665882D02*
D03*
X868546D02*
D03*
X861060Y214306D02*
D03*
Y206820D02*
D03*
Y191848D02*
D03*
Y184362D02*
D03*
X753110Y694690D02*
D03*
X718003Y705348D02*
D03*
D161*
X233680Y813940D02*
D03*
D162*
X893000Y50000D02*
D03*
Y850000D02*
D03*
X35700Y824600D02*
D03*
Y88000D02*
D03*
D163*
X276230Y502760D02*
X328770D01*
X337820Y511810D01*
M02*
