G04*
G04 #@! TF.GenerationSoftware,Altium Limited,Altium Designer,25.8.1 (18)*
G04*
G04 Layer_Physical_Order=5*
G04 Layer_Color=16776960*
%FSLAX44Y44*%
%MOMM*%
G71*
G04*
G04 #@! TF.SameCoordinates,D09B6DD5-DBDD-4AA5-AC43-53CFEDB9B48D*
G04*
G04*
G04 #@! TF.FilePolarity,Positive*
G04*
G01*
G75*
%ADD11C,0.2000*%
%ADD12C,0.3000*%
%ADD138C,0.4000*%
%ADD147C,0.7600*%
%ADD149C,7.0000*%
%ADD150C,0.3000*%
%ADD151C,1.5300*%
%ADD152C,1.6500*%
%ADD154C,1.1900*%
%ADD155R,1.5300X1.5300*%
%ADD156C,0.4000*%
%ADD157C,1.0000*%
%ADD158C,4.4000*%
G36*
X371468Y766038D02*
Y748515D01*
X372085Y695185D01*
X347981Y694697D01*
X335632Y682348D01*
Y646299D01*
X335065Y645731D01*
X334570Y644537D01*
Y643243D01*
X335065Y642049D01*
X335632Y641481D01*
Y556437D01*
X335170D01*
X333976Y555942D01*
X333061Y555028D01*
X332566Y553833D01*
Y552540D01*
X332732Y552140D01*
X332064Y551140D01*
X185550D01*
Y707526D01*
X260344Y782320D01*
X267147D01*
X267630Y781320D01*
X267260Y780426D01*
Y779134D01*
X267755Y777939D01*
X268669Y777025D01*
X269863Y776530D01*
X271157D01*
X272351Y777025D01*
X273265Y777939D01*
X273760Y779134D01*
Y780426D01*
X273390Y781320D01*
X273873Y782320D01*
X278577D01*
X279060Y781320D01*
X278690Y780426D01*
Y779134D01*
X279185Y777939D01*
X280099Y777025D01*
X281294Y776530D01*
X282586D01*
X283781Y777025D01*
X284695Y777939D01*
X285190Y779134D01*
Y780426D01*
X284820Y781320D01*
X285303Y782320D01*
X289130D01*
X289613Y781320D01*
X289243Y780426D01*
Y779134D01*
X289737Y777939D01*
X290652Y777025D01*
X291846Y776530D01*
X293139D01*
X294334Y777025D01*
X295248Y777939D01*
X295743Y779134D01*
Y780426D01*
X295373Y781320D01*
X295856Y782320D01*
X315592Y782320D01*
X315791Y781320D01*
X315659Y781265D01*
X314745Y780351D01*
X314250Y779156D01*
Y777863D01*
X314745Y776669D01*
X315659Y775755D01*
X316854Y775260D01*
X318146D01*
X319341Y775755D01*
X320255Y776669D01*
X320750Y777863D01*
Y779156D01*
X320255Y780351D01*
X319341Y781265D01*
X319209Y781320D01*
X319408Y782320D01*
X333630D01*
X334044Y781320D01*
X333795Y781071D01*
X333300Y779876D01*
Y778584D01*
X333795Y777389D01*
X334709Y776475D01*
X335904Y775980D01*
X337197D01*
X338391Y776475D01*
X339305Y777389D01*
X339800Y778584D01*
Y779876D01*
X339305Y781071D01*
X339056Y781320D01*
X339470Y782320D01*
X344355D01*
X344769Y781320D01*
X344520Y781071D01*
X344025Y779876D01*
Y778584D01*
X344520Y777389D01*
X345434Y776475D01*
X346628Y775980D01*
X347921D01*
X349116Y776475D01*
X350030Y777389D01*
X350525Y778584D01*
Y779876D01*
X350030Y781071D01*
X349781Y781320D01*
X350195Y782320D01*
X352569D01*
X371468Y766038D01*
D02*
G37*
G36*
X680230Y702800D02*
X679674Y701958D01*
X679666Y701950D01*
X678376D01*
X677181Y701455D01*
X676267Y700541D01*
X675772Y699346D01*
Y698054D01*
X676267Y696859D01*
X677181Y695945D01*
X678376Y695450D01*
X679669D01*
X680863Y695945D01*
X681777Y696859D01*
X682272Y698054D01*
Y699344D01*
X682280Y699352D01*
X683122Y699908D01*
X734168Y648862D01*
Y501525D01*
Y429058D01*
X717475Y412365D01*
Y367105D01*
X750570Y334010D01*
Y317593D01*
X747068Y314091D01*
X724668D01*
X724596Y314020D01*
X688460Y350156D01*
Y483208D01*
Y516509D01*
X689460Y516923D01*
X689509Y516874D01*
X690704Y516380D01*
X691996D01*
X693191Y516874D01*
X694105Y517789D01*
X694600Y518983D01*
Y520276D01*
X694105Y521470D01*
X693191Y522385D01*
X691996Y522879D01*
X690704D01*
X689509Y522385D01*
X689460Y522336D01*
X688460Y522750D01*
Y553267D01*
X689014Y553637D01*
X690306D01*
X691501Y554132D01*
X692415Y555046D01*
X692910Y556241D01*
Y557534D01*
X692415Y558728D01*
X691501Y559642D01*
X690306Y560137D01*
X689014D01*
X688460Y560507D01*
Y594240D01*
X669813Y612887D01*
X459740D01*
Y705770D01*
X544125D01*
X568630Y730275D01*
X569611Y730080D01*
X569685Y729901D01*
X570599Y728987D01*
X571794Y728492D01*
X573086D01*
X574281Y728987D01*
X575195Y729901D01*
X575690Y731096D01*
Y732389D01*
X575195Y733583D01*
X574814Y733964D01*
X574364Y734617D01*
X574814Y735271D01*
X575195Y735651D01*
X575690Y736846D01*
Y737335D01*
X576030Y737675D01*
X635520D01*
Y736846D01*
X636015Y735651D01*
X636395Y735271D01*
X636846Y734617D01*
X636395Y733964D01*
X636015Y733583D01*
X635520Y732389D01*
Y731096D01*
X636015Y729901D01*
X636929Y728987D01*
X638124Y728492D01*
X639417D01*
X640611Y728987D01*
X641525Y729901D01*
X642020Y731096D01*
Y732389D01*
X641525Y733583D01*
X641144Y733964D01*
X640694Y734617D01*
X641144Y735271D01*
X641525Y735651D01*
X642020Y736846D01*
Y737675D01*
X645355D01*
X680230Y702800D01*
D02*
G37*
G36*
X415084Y583476D02*
X415306Y583006D01*
X415391Y582476D01*
X414589Y581674D01*
X414095Y580480D01*
Y579187D01*
X414589Y577992D01*
X415504Y577078D01*
X416698Y576583D01*
X417991D01*
X419185Y577078D01*
X420100Y577992D01*
X420594Y579187D01*
Y580480D01*
X420100Y581674D01*
X419298Y582476D01*
X419383Y583006D01*
X419605Y583476D01*
X549202Y583476D01*
X550131Y583476D01*
X551954Y583113D01*
X553671Y582402D01*
X555216Y581369D01*
X556531Y580055D01*
X557563Y578509D01*
X558274Y576792D01*
X558637Y574969D01*
X558636Y574039D01*
X558636D01*
X558636Y574039D01*
X558637Y569093D01*
X558638Y568226D01*
X558301Y566526D01*
X557638Y564925D01*
X556708Y563535D01*
X556061Y562873D01*
X556061Y562873D01*
X556061Y562873D01*
X549865Y556677D01*
X549486Y556260D01*
X548861Y555325D01*
X548430Y554286D01*
X548290Y553577D01*
X548212Y553183D01*
X548185Y552621D01*
X548185Y552621D01*
X548185Y552621D01*
X548185Y481593D01*
X548069Y481545D01*
X547155Y480631D01*
X546660Y479436D01*
Y478144D01*
X547155Y476949D01*
X548069Y476035D01*
X548185Y475987D01*
Y466440D01*
X548069Y466392D01*
X547155Y465478D01*
X546660Y464283D01*
Y462991D01*
X547155Y461796D01*
X548069Y460882D01*
X548185Y460834D01*
Y456640D01*
X547994D01*
X546799Y456145D01*
X545885Y455231D01*
X545390Y454036D01*
Y452743D01*
X545885Y451549D01*
X546799Y450635D01*
X547994Y450140D01*
X548185D01*
Y445946D01*
X547706Y445627D01*
X546413D01*
X545219Y445132D01*
X544305Y444218D01*
X543810Y443023D01*
Y441730D01*
X544305Y440536D01*
X545219Y439622D01*
X546413Y439127D01*
X547185D01*
X548185Y438325D01*
Y432589D01*
X547185Y432175D01*
X546992Y432367D01*
X545798Y432862D01*
X544505D01*
X543310Y432367D01*
X542396Y431453D01*
X541901Y430259D01*
Y428966D01*
X542396Y427771D01*
X543310Y426857D01*
X544505Y426362D01*
X545798D01*
X546992Y426857D01*
X547185Y427049D01*
X548185Y426635D01*
X548185Y334560D01*
X530229Y334560D01*
X530030Y335560D01*
X530500Y335755D01*
X531344Y336599D01*
X531800Y337701D01*
Y338484D01*
X532798Y338901D01*
X533060Y338639D01*
X534162Y338183D01*
X535356D01*
X536458Y338639D01*
X537302Y339483D01*
X537759Y340586D01*
Y341779D01*
X537302Y342882D01*
X536458Y343726D01*
X535356Y344183D01*
X534162D01*
X533060Y343726D01*
X532216Y342882D01*
X531759Y341779D01*
Y341258D01*
X530832Y340820D01*
X530344Y341145D01*
X530339Y341180D01*
X530295Y342188D01*
X531039Y342932D01*
X531496Y344034D01*
Y345228D01*
X531039Y346330D01*
X530195Y347174D01*
X529092Y347631D01*
X527899D01*
X526796Y347174D01*
X525952Y346330D01*
X525496Y345228D01*
Y344034D01*
X525952Y342932D01*
X526796Y342088D01*
X527147Y341943D01*
Y340860D01*
X527101Y340841D01*
X526257Y339998D01*
X525801Y338895D01*
Y337701D01*
X526257Y336599D01*
X527101Y335755D01*
X527548Y335570D01*
X527560Y335502D01*
X527372Y334560D01*
X445689Y334560D01*
X445050Y334560D01*
X444134Y334305D01*
X438862D01*
X438663Y335305D01*
X439477Y335642D01*
X440321Y336485D01*
X440777Y337588D01*
Y338782D01*
X440321Y339884D01*
X439477Y340728D01*
X439483Y341808D01*
X439597Y341855D01*
X440441Y342699D01*
X440898Y343801D01*
Y344995D01*
X440441Y346097D01*
X439597Y346941D01*
X438494Y347398D01*
X437301D01*
X436198Y346941D01*
X435354Y346097D01*
X434898Y344995D01*
Y343801D01*
X435354Y342699D01*
X436198Y341855D01*
X436192Y340775D01*
X436078Y340728D01*
X435234Y339884D01*
X434777Y338782D01*
Y337588D01*
X435234Y336485D01*
X436078Y335642D01*
X436892Y335305D01*
X436693Y334305D01*
X400238Y334305D01*
X399824Y335305D01*
X400263Y335744D01*
X400720Y336847D01*
Y338040D01*
X400263Y339143D01*
X399419Y339987D01*
X398317Y340443D01*
X397123D01*
X396021Y339987D01*
X395177Y339143D01*
X394720Y338040D01*
Y336847D01*
X395177Y335744D01*
X395616Y335305D01*
X395202Y334305D01*
X393143D01*
X392890Y334683D01*
Y335877D01*
X392433Y336979D01*
X391589Y337823D01*
X390487Y338280D01*
X389293D01*
X388191Y337823D01*
X387997Y337630D01*
X387016Y337825D01*
X386496Y339081D01*
X386496Y340267D01*
Y583476D01*
X415084Y583476D01*
D02*
G37*
G36*
X291257Y328160D02*
X291171Y328236D01*
X291071Y328304D01*
X290957Y328364D01*
X290828Y328416D01*
X290685Y328460D01*
X290527Y328496D01*
X290355Y328524D01*
X290169Y328544D01*
X289753Y328560D01*
Y330560D01*
X289968Y330564D01*
X290355Y330596D01*
X290527Y330624D01*
X290685Y330660D01*
X290828Y330704D01*
X290957Y330756D01*
X291071Y330816D01*
X291171Y330884D01*
X291257Y330960D01*
Y328160D01*
D02*
G37*
G36*
X314099Y326269D02*
X314199Y326201D01*
X314313Y326141D01*
X314442Y326089D01*
X314585Y326045D01*
X314743Y326009D01*
X314914Y325981D01*
X315101Y325961D01*
X315517Y325945D01*
Y323945D01*
X315302Y323941D01*
X314914Y323909D01*
X314743Y323881D01*
X314585Y323845D01*
X314442Y323801D01*
X314313Y323749D01*
X314199Y323689D01*
X314099Y323621D01*
X314013Y323545D01*
Y326345D01*
X314099Y326269D01*
D02*
G37*
G36*
X311157Y323545D02*
X311071Y323621D01*
X310971Y323689D01*
X310856Y323749D01*
X310728Y323801D01*
X310585Y323845D01*
X310427Y323881D01*
X310255Y323909D01*
X310069Y323929D01*
X309653Y323945D01*
Y325945D01*
X309868Y325949D01*
X310255Y325981D01*
X310427Y326009D01*
X310585Y326045D01*
X310728Y326089D01*
X310856Y326141D01*
X310971Y326201D01*
X311071Y326269D01*
X311157Y326345D01*
Y323545D01*
D02*
G37*
G36*
X303901Y326159D02*
X304000Y326114D01*
X304114Y326074D01*
X304243Y326040D01*
X304387Y326011D01*
X304719Y325969D01*
X304907Y325956D01*
X305328Y325945D01*
X305788Y323945D01*
X305573Y323940D01*
X305191Y323901D01*
X305024Y323867D01*
X304873Y323824D01*
X304738Y323771D01*
X304618Y323708D01*
X304515Y323635D01*
X304428Y323553D01*
X304356Y323461D01*
X303817Y326209D01*
X303901Y326159D01*
D02*
G37*
G36*
X298673Y322286D02*
X298705Y321899D01*
X298734Y321727D01*
X298769Y321569D01*
X298813Y321426D01*
X298866Y321297D01*
X298925Y321183D01*
X298993Y321083D01*
X299069Y320997D01*
X296269D01*
X296346Y321083D01*
X296413Y321183D01*
X296473Y321297D01*
X296525Y321426D01*
X296569Y321569D01*
X296605Y321727D01*
X296633Y321899D01*
X296653Y322085D01*
X296670Y322501D01*
X298669D01*
X298673Y322286D01*
D02*
G37*
G36*
X291222Y318145D02*
X291136Y318221D01*
X291036Y318289D01*
X290921Y318349D01*
X290793Y318401D01*
X290650Y318445D01*
X290492Y318481D01*
X290320Y318509D01*
X290134Y318529D01*
X289718Y318545D01*
Y320545D01*
X289933Y320549D01*
X290320Y320581D01*
X290492Y320609D01*
X290650Y320645D01*
X290793Y320689D01*
X290921Y320741D01*
X291036Y320801D01*
X291136Y320869D01*
X291222Y320945D01*
Y318145D01*
D02*
G37*
G36*
X288786Y306890D02*
X288694Y306819D01*
X288612Y306731D01*
X288539Y306627D01*
X288476Y306508D01*
X288423Y306373D01*
X288380Y306222D01*
X288346Y306054D01*
X288322Y305871D01*
X288307Y305672D01*
X288302Y305458D01*
X286302Y305915D01*
X286300Y306133D01*
X286260Y306697D01*
X286236Y306856D01*
X286173Y307129D01*
X286133Y307243D01*
X286088Y307342D01*
X286038Y307426D01*
X288786Y306890D01*
D02*
G37*
G36*
X315427Y299796D02*
X315523Y299720D01*
X315633Y299653D01*
X315758Y299595D01*
X315898Y299546D01*
X316053Y299506D01*
X316223Y299475D01*
X316408Y299453D01*
X316608Y299439D01*
X316823Y299435D01*
X316612Y297435D01*
X316396Y297431D01*
X316007Y297404D01*
X315833Y297380D01*
X315674Y297349D01*
X315530Y297311D01*
X315399Y297267D01*
X315283Y297216D01*
X315181Y297157D01*
X315093Y297092D01*
X315347Y299881D01*
X315427Y299796D01*
D02*
G37*
G36*
X325172Y299787D02*
X324929Y299516D01*
X324741Y299244D01*
X324609Y298970D01*
X324532Y298695D01*
X324511Y298419D01*
X324545Y298142D01*
X324634Y297864D01*
X324778Y297584D01*
X324978Y297303D01*
X325233Y297020D01*
X323405Y296021D01*
X323116Y296289D01*
X322816Y296530D01*
X322504Y296742D01*
X322180Y296926D01*
X321844Y297081D01*
X321497Y297208D01*
X321138Y297307D01*
X320767Y297378D01*
X320385Y297421D01*
X319991Y297435D01*
Y299435D01*
X320385Y299449D01*
X320767Y299491D01*
X321138Y299562D01*
X321497Y299661D01*
X321844Y299788D01*
X322180Y299944D01*
X322504Y300128D01*
X322816Y300340D01*
X323116Y300580D01*
X323405Y300849D01*
X325172Y299787D01*
D02*
G37*
G36*
X291673Y297494D02*
X291969Y297243D01*
X292110Y297141D01*
X292247Y297055D01*
X292380Y296985D01*
X292507Y296931D01*
X292631Y296893D01*
X292750Y296870D01*
X292864Y296863D01*
X290884Y294883D01*
X290877Y294998D01*
X290854Y295116D01*
X290816Y295240D01*
X290762Y295367D01*
X290692Y295500D01*
X290606Y295637D01*
X290504Y295778D01*
X290386Y295924D01*
X290103Y296229D01*
X291518Y297644D01*
X291673Y297494D01*
D02*
G37*
G36*
X286474Y292191D02*
X286770Y291940D01*
X286912Y291838D01*
X287048Y291752D01*
X287181Y291682D01*
X287309Y291628D01*
X287432Y291589D01*
X287551Y291567D01*
X287665Y291560D01*
X285685Y289580D01*
X285678Y289694D01*
X285656Y289813D01*
X285617Y289936D01*
X285563Y290064D01*
X285493Y290197D01*
X285407Y290333D01*
X285305Y290475D01*
X285187Y290621D01*
X284905Y290926D01*
X286319Y292340D01*
X286474Y292191D01*
D02*
G37*
G36*
X875030Y175260D02*
X854710D01*
Y698500D01*
X875030D01*
Y175260D01*
D02*
G37*
%LPC*%
G36*
X332857Y759085D02*
X331564D01*
X330370Y758590D01*
X329456Y757676D01*
X328961Y756481D01*
Y755189D01*
X329456Y753994D01*
X330370Y753080D01*
X331564Y752585D01*
X332857D01*
X334052Y753080D01*
X334966Y753994D01*
X335461Y755189D01*
Y756481D01*
X334966Y757676D01*
X334052Y758590D01*
X332857Y759085D01*
D02*
G37*
G36*
X321450D02*
X320158D01*
X318963Y758590D01*
X318049Y757676D01*
X317554Y756481D01*
Y755189D01*
X318049Y753994D01*
X318963Y753080D01*
X320158Y752585D01*
X321450D01*
X322645Y753080D01*
X323559Y753994D01*
X324054Y755189D01*
Y756481D01*
X323559Y757676D01*
X322645Y758590D01*
X321450Y759085D01*
D02*
G37*
G36*
X310043D02*
X308750D01*
X307556Y758590D01*
X306642Y757676D01*
X306147Y756481D01*
Y755189D01*
X306642Y753994D01*
X307556Y753080D01*
X308750Y752585D01*
X310043D01*
X311238Y753080D01*
X312152Y753994D01*
X312647Y755189D01*
Y756481D01*
X312152Y757676D01*
X311238Y758590D01*
X310043Y759085D01*
D02*
G37*
G36*
X298636D02*
X297344D01*
X296149Y758590D01*
X295235Y757676D01*
X294740Y756481D01*
Y755189D01*
X295235Y753994D01*
X296149Y753080D01*
X297344Y752585D01*
X298636D01*
X299831Y753080D01*
X300745Y753994D01*
X301240Y755189D01*
Y756481D01*
X300745Y757676D01*
X299831Y758590D01*
X298636Y759085D01*
D02*
G37*
G36*
X349897Y743660D02*
X348604D01*
X347409Y743165D01*
X346495Y742251D01*
X346000Y741057D01*
Y739763D01*
X346495Y738569D01*
X347409Y737655D01*
X348604Y737160D01*
X349897D01*
X351091Y737655D01*
X352005Y738569D01*
X352500Y739763D01*
Y741057D01*
X352005Y742251D01*
X351091Y743165D01*
X349897Y743660D01*
D02*
G37*
G36*
X262267Y739850D02*
X260973D01*
X259779Y739355D01*
X258865Y738441D01*
X258370Y737246D01*
Y735954D01*
X258865Y734759D01*
X259779Y733845D01*
X260973Y733350D01*
X262267D01*
X263461Y733845D01*
X264375Y734759D01*
X264870Y735954D01*
Y737246D01*
X264375Y738441D01*
X263461Y739355D01*
X262267Y739850D01*
D02*
G37*
G36*
X347034Y723794D02*
X345741D01*
X344546Y723299D01*
X343632Y722385D01*
X343137Y721191D01*
Y719898D01*
X343632Y718703D01*
X344546Y717789D01*
X345741Y717294D01*
X347034D01*
X348228Y717789D01*
X349142Y718703D01*
X349637Y719898D01*
Y721191D01*
X349142Y722385D01*
X348228Y723299D01*
X347034Y723794D01*
D02*
G37*
G36*
X343284Y706830D02*
X341991D01*
X340796Y706335D01*
X339882Y705421D01*
X339387Y704227D01*
Y702934D01*
X339882Y701739D01*
X340581Y701040D01*
X339882Y700341D01*
X339387Y699146D01*
Y697853D01*
X339882Y696659D01*
X340796Y695745D01*
X341991Y695250D01*
X343284D01*
X344478Y695745D01*
X345392Y696659D01*
X345887Y697853D01*
Y699146D01*
X345392Y700341D01*
X344693Y701040D01*
X345392Y701739D01*
X345887Y702934D01*
Y704227D01*
X345392Y705421D01*
X344478Y706335D01*
X343284Y706830D01*
D02*
G37*
G36*
X293061Y699518D02*
X291768D01*
X290574Y699023D01*
X289660Y698109D01*
X289165Y696914D01*
Y695621D01*
X289660Y694427D01*
X290574Y693512D01*
X291768Y693018D01*
X293061D01*
X294256Y693512D01*
X295170Y694427D01*
X295665Y695621D01*
Y696914D01*
X295170Y698109D01*
X294256Y699023D01*
X293061Y699518D01*
D02*
G37*
G36*
X272741Y699054D02*
X271448D01*
X270254Y698560D01*
X269339Y697645D01*
X268845Y696451D01*
Y695158D01*
X269339Y693963D01*
X270254Y693049D01*
X271448Y692554D01*
X272741D01*
X273936Y693049D01*
X274850Y693963D01*
X275345Y695158D01*
Y696451D01*
X274850Y697645D01*
X273936Y698560D01*
X272741Y699054D01*
D02*
G37*
G36*
X286637Y686762D02*
X285344D01*
X284149Y686267D01*
X283235Y685353D01*
X282740Y684159D01*
Y682866D01*
X283235Y681671D01*
X284149Y680757D01*
X285344Y680262D01*
X286637D01*
X287831Y680757D01*
X288745Y681671D01*
X289240Y682866D01*
Y684159D01*
X288745Y685353D01*
X287831Y686267D01*
X286637Y686762D01*
D02*
G37*
G36*
X287883Y666231D02*
X286590D01*
X285396Y665736D01*
X284481Y664822D01*
X283987Y663627D01*
Y662334D01*
X284481Y661140D01*
X285396Y660225D01*
X286590Y659731D01*
X287883D01*
X289078Y660225D01*
X289992Y661140D01*
X290487Y662334D01*
Y663627D01*
X289992Y664822D01*
X289078Y665736D01*
X287883Y666231D01*
D02*
G37*
G36*
X267883D02*
X266590D01*
X265396Y665736D01*
X264481Y664822D01*
X263987Y663627D01*
Y662334D01*
X264481Y661140D01*
X265396Y660225D01*
X266590Y659731D01*
X267883D01*
X269078Y660225D01*
X269992Y661140D01*
X270487Y662334D01*
Y663627D01*
X269992Y664822D01*
X269078Y665736D01*
X267883Y666231D01*
D02*
G37*
G36*
X247883D02*
X246590D01*
X245396Y665736D01*
X244481Y664822D01*
X243987Y663627D01*
Y662334D01*
X244481Y661140D01*
X245396Y660225D01*
X246590Y659731D01*
X247883D01*
X249078Y660225D01*
X249992Y661140D01*
X250487Y662334D01*
Y663627D01*
X249992Y664822D01*
X249078Y665736D01*
X247883Y666231D01*
D02*
G37*
G36*
X237883D02*
X236590D01*
X235396Y665736D01*
X234481Y664822D01*
X233987Y663627D01*
Y662334D01*
X234481Y661140D01*
X235396Y660225D01*
X236590Y659731D01*
X237883D01*
X239078Y660225D01*
X239992Y661140D01*
X240487Y662334D01*
Y663627D01*
X239992Y664822D01*
X239078Y665736D01*
X237883Y666231D01*
D02*
G37*
G36*
X297002Y665871D02*
X295709D01*
X294515Y665377D01*
X293601Y664462D01*
X293106Y663268D01*
Y661975D01*
X293601Y660780D01*
X294515Y659866D01*
X295709Y659371D01*
X297002D01*
X298197Y659866D01*
X299111Y660780D01*
X299606Y661975D01*
Y663268D01*
X299111Y664462D01*
X298197Y665377D01*
X297002Y665871D01*
D02*
G37*
G36*
X286510Y657249D02*
X285217D01*
X284022Y656755D01*
X283108Y655840D01*
X282613Y654646D01*
Y653353D01*
X283108Y652158D01*
X284022Y651244D01*
X285217Y650749D01*
X286510D01*
X287704Y651244D01*
X288619Y652158D01*
X289113Y653353D01*
Y654646D01*
X288619Y655840D01*
X287704Y656755D01*
X286510Y657249D01*
D02*
G37*
G36*
X266510D02*
X265217D01*
X264022Y656755D01*
X263108Y655840D01*
X262613Y654646D01*
Y653353D01*
X263108Y652158D01*
X264022Y651244D01*
X265217Y650749D01*
X266510D01*
X267704Y651244D01*
X268619Y652158D01*
X269113Y653353D01*
Y654646D01*
X268619Y655840D01*
X267704Y656755D01*
X266510Y657249D01*
D02*
G37*
G36*
X236510D02*
X235217D01*
X234022Y656755D01*
X233108Y655840D01*
X232613Y654646D01*
Y653353D01*
X233108Y652158D01*
X234022Y651244D01*
X235217Y650749D01*
X236510D01*
X237704Y651244D01*
X238619Y652158D01*
X239113Y653353D01*
Y654646D01*
X238619Y655840D01*
X237704Y656755D01*
X236510Y657249D01*
D02*
G37*
G36*
X226427Y656860D02*
X225134D01*
X223939Y656365D01*
X223025Y655451D01*
X222530Y654257D01*
Y652964D01*
X223025Y651769D01*
X223939Y650855D01*
X225134Y650360D01*
X226427D01*
X227621Y650855D01*
X228535Y651769D01*
X229030Y652964D01*
Y654257D01*
X228535Y655451D01*
X227621Y656365D01*
X226427Y656860D01*
D02*
G37*
G36*
X207656Y656030D02*
X206364D01*
X205169Y655535D01*
X204255Y654621D01*
X203760Y653427D01*
Y652133D01*
X204255Y650939D01*
X205169Y650025D01*
X206364Y649530D01*
X207656D01*
X208851Y650025D01*
X209765Y650939D01*
X210260Y652133D01*
Y653427D01*
X209765Y654621D01*
X208851Y655535D01*
X207656Y656030D01*
D02*
G37*
G36*
X306432Y655733D02*
X305139D01*
X303944Y655239D01*
X303030Y654324D01*
X302535Y653130D01*
Y651837D01*
X303030Y650642D01*
X303944Y649728D01*
X305139Y649233D01*
X306432D01*
X307626Y649728D01*
X308541Y650642D01*
X309035Y651837D01*
Y653130D01*
X308541Y654324D01*
X307626Y655239D01*
X306432Y655733D01*
D02*
G37*
G36*
X287261Y644592D02*
X285968D01*
X284774Y644097D01*
X283859Y643183D01*
X283365Y641988D01*
Y640695D01*
X283859Y639501D01*
X284774Y638586D01*
X285968Y638092D01*
X287261D01*
X288456Y638586D01*
X289370Y639501D01*
X289865Y640695D01*
Y641988D01*
X289370Y643183D01*
X288456Y644097D01*
X287261Y644592D01*
D02*
G37*
G36*
X325766Y638250D02*
X324473D01*
X323279Y637755D01*
X322365Y636841D01*
X321870Y635647D01*
Y634353D01*
X322365Y633159D01*
X323279Y632245D01*
X324473Y631750D01*
X325766D01*
X326961Y632245D01*
X327875Y633159D01*
X328370Y634353D01*
Y635647D01*
X327875Y636841D01*
X326961Y637755D01*
X325766Y638250D01*
D02*
G37*
G36*
X267883Y645630D02*
X266590D01*
X265396Y645135D01*
X264481Y644221D01*
X263987Y643027D01*
Y641733D01*
X264481Y640539D01*
X265396Y639625D01*
X266300Y639250D01*
X266101Y638250D01*
X266054D01*
X264859Y637755D01*
X263945Y636841D01*
X263450Y635647D01*
Y634353D01*
X263945Y633159D01*
X264859Y632245D01*
X266054Y631750D01*
X267346D01*
X268541Y632245D01*
X269455Y633159D01*
X269950Y634353D01*
Y635647D01*
X269455Y636841D01*
X268541Y637755D01*
X267636Y638130D01*
X267835Y639130D01*
X267883D01*
X269078Y639625D01*
X269992Y640539D01*
X270487Y641733D01*
Y643027D01*
X269992Y644221D01*
X269078Y645135D01*
X267883Y645630D01*
D02*
G37*
G36*
X276236D02*
X274944D01*
X273749Y645135D01*
X272835Y644221D01*
X272340Y643027D01*
Y641733D01*
X272835Y640539D01*
X273749Y639625D01*
X274944Y639130D01*
X275262D01*
X275270Y639130D01*
X275338Y638158D01*
X274143Y637663D01*
X273229Y636749D01*
X272734Y635555D01*
Y634262D01*
X273229Y633067D01*
X274143Y632153D01*
X275338Y631658D01*
X276630D01*
X277825Y632153D01*
X278739Y633067D01*
X279234Y634262D01*
Y635555D01*
X278739Y636749D01*
X277825Y637663D01*
X276630Y638158D01*
X276312D01*
X276304Y638158D01*
X276236Y639130D01*
X277431Y639625D01*
X278345Y640539D01*
X278840Y641733D01*
Y643027D01*
X278345Y644221D01*
X277431Y645135D01*
X276236Y645630D01*
D02*
G37*
G36*
X228517Y637387D02*
X227224D01*
X226029Y636892D01*
X225115Y635978D01*
X224620Y634783D01*
Y633490D01*
X225115Y632296D01*
X226029Y631381D01*
X227224Y630887D01*
X228517D01*
X229711Y631381D01*
X230626Y632296D01*
X231120Y633490D01*
Y634783D01*
X230626Y635978D01*
X229711Y636892D01*
X228517Y637387D01*
D02*
G37*
G36*
X319152Y634175D02*
X317859D01*
X316664Y633680D01*
X315750Y632766D01*
X315255Y631572D01*
Y630279D01*
X315750Y629084D01*
X316664Y628170D01*
X317859Y627675D01*
X319152D01*
X320346Y628170D01*
X321260Y629084D01*
X321755Y630279D01*
Y631572D01*
X321260Y632766D01*
X320346Y633680D01*
X319152Y634175D01*
D02*
G37*
G36*
X286397Y626820D02*
X285103D01*
X283909Y626325D01*
X282995Y625411D01*
X282500Y624216D01*
Y622924D01*
X282995Y621729D01*
X283909Y620815D01*
X285103Y620320D01*
X286397D01*
X287591Y620815D01*
X288505Y621729D01*
X289000Y622924D01*
Y624216D01*
X288505Y625411D01*
X287591Y626325D01*
X286397Y626820D01*
D02*
G37*
G36*
X297556Y626030D02*
X296263D01*
X295068Y625535D01*
X294154Y624621D01*
X293659Y623426D01*
Y622133D01*
X294154Y620939D01*
X295068Y620025D01*
X296263Y619530D01*
X297556D01*
X298750Y620025D01*
X299664Y620939D01*
X300159Y622133D01*
Y623426D01*
X299664Y624621D01*
X298750Y625535D01*
X297556Y626030D01*
D02*
G37*
G36*
X246687Y624270D02*
X245394D01*
X244200Y623775D01*
X243285Y622861D01*
X242791Y621666D01*
Y620373D01*
X243285Y619179D01*
X244200Y618265D01*
X245394Y617770D01*
X246687D01*
X247882Y618265D01*
X248796Y619179D01*
X249291Y620373D01*
Y621666D01*
X248796Y622861D01*
X247882Y623775D01*
X246687Y624270D01*
D02*
G37*
G36*
X222896Y621740D02*
X221604D01*
X220409Y621245D01*
X219495Y620331D01*
X219000Y619137D01*
Y617844D01*
X219495Y616649D01*
X220409Y615735D01*
X221604Y615240D01*
X222896D01*
X224091Y615735D01*
X225005Y616649D01*
X225500Y617844D01*
Y619137D01*
X225005Y620331D01*
X224091Y621245D01*
X222896Y621740D01*
D02*
G37*
G36*
X277510Y617160D02*
X276217D01*
X275023Y616665D01*
X274108Y615751D01*
X273613Y614556D01*
Y613264D01*
X274108Y612069D01*
X275023Y611155D01*
X276217Y610660D01*
X277510D01*
X278704Y611155D01*
X279619Y612069D01*
X280114Y613264D01*
Y614556D01*
X279619Y615751D01*
X278704Y616665D01*
X277510Y617160D01*
D02*
G37*
G36*
X267612Y616584D02*
X266320D01*
X265125Y616089D01*
X264211Y615175D01*
X263716Y613980D01*
Y612687D01*
X264211Y611493D01*
X265125Y610578D01*
X266320Y610084D01*
X267612D01*
X268807Y610578D01*
X269721Y611493D01*
X270216Y612687D01*
Y613980D01*
X269721Y615175D01*
X268807Y616089D01*
X267612Y616584D01*
D02*
G37*
G36*
X256031Y608065D02*
X254738D01*
X253544Y607570D01*
X252630Y606656D01*
X252135Y605461D01*
Y604168D01*
X252630Y602974D01*
X253544Y602060D01*
X254738Y601565D01*
X256031D01*
X257226Y602060D01*
X258140Y602974D01*
X258635Y604168D01*
Y605461D01*
X258140Y606656D01*
X257226Y607570D01*
X256031Y608065D01*
D02*
G37*
G36*
X226947Y606500D02*
X225653D01*
X224459Y606005D01*
X223545Y605091D01*
X223050Y603896D01*
Y602603D01*
X223545Y601409D01*
X224459Y600495D01*
X225653Y600000D01*
X226947D01*
X228141Y600495D01*
X229055Y601409D01*
X229550Y602603D01*
Y603896D01*
X229055Y605091D01*
X228141Y606005D01*
X226947Y606500D01*
D02*
G37*
G36*
X247027Y605230D02*
X245734D01*
X244539Y604735D01*
X243625Y603821D01*
X243130Y602626D01*
Y601334D01*
X243625Y600139D01*
X244539Y599225D01*
X245734Y598730D01*
X247027D01*
X248221Y599225D01*
X249135Y600139D01*
X249630Y601334D01*
Y602626D01*
X249135Y603821D01*
X248221Y604735D01*
X247027Y605230D01*
D02*
G37*
G36*
X296556Y598880D02*
X295264D01*
X294069Y598385D01*
X293155Y597471D01*
X292660Y596277D01*
Y594983D01*
X293155Y593789D01*
X294069Y592875D01*
X295264Y592380D01*
X296556D01*
X297751Y592875D01*
X298665Y593789D01*
X299160Y594983D01*
Y596277D01*
X298665Y597471D01*
X297751Y598385D01*
X296556Y598880D01*
D02*
G37*
G36*
X267697Y598009D02*
X266404D01*
X265209Y597515D01*
X264295Y596600D01*
X263800Y595406D01*
Y594113D01*
X264295Y592918D01*
X265209Y592004D01*
X266404Y591509D01*
X267697D01*
X268891Y592004D01*
X269806Y592918D01*
X270300Y594113D01*
Y595406D01*
X269806Y596600D01*
X268891Y597515D01*
X267697Y598009D01*
D02*
G37*
G36*
X310527Y603960D02*
X309233D01*
X308039Y603465D01*
X307125Y602551D01*
X306630Y601357D01*
Y600064D01*
X307125Y598869D01*
X307495Y598498D01*
X307261Y597319D01*
X306769Y597115D01*
X305855Y596201D01*
X305360Y595006D01*
Y593713D01*
X305855Y592519D01*
X306769Y591605D01*
X307964Y591110D01*
X309256D01*
X310451Y591605D01*
X311365Y592519D01*
X311860Y593713D01*
Y595006D01*
X311365Y596201D01*
X310995Y596572D01*
X311229Y597751D01*
X311721Y597955D01*
X312635Y598869D01*
X313130Y600064D01*
Y601357D01*
X312635Y602551D01*
X311721Y603465D01*
X310527Y603960D01*
D02*
G37*
G36*
X306476Y585558D02*
X305184D01*
X303989Y585063D01*
X303075Y584149D01*
X302580Y582954D01*
Y581661D01*
X303075Y580467D01*
X303989Y579553D01*
X305184Y579058D01*
X306476D01*
X307671Y579553D01*
X308585Y580467D01*
X309080Y581661D01*
Y582954D01*
X308585Y584149D01*
X307671Y585063D01*
X306476Y585558D01*
D02*
G37*
G36*
X272199Y584910D02*
X270906D01*
X269711Y584415D01*
X268797Y583501D01*
X268302Y582307D01*
Y581013D01*
X268797Y579819D01*
X269711Y578905D01*
X270906Y578410D01*
X272199D01*
X273393Y578905D01*
X274307Y579819D01*
X274802Y581013D01*
Y582307D01*
X274307Y583501D01*
X273393Y584415D01*
X272199Y584910D01*
D02*
G37*
G36*
X252722Y584708D02*
X251429D01*
X250234Y584213D01*
X249320Y583299D01*
X248825Y582104D01*
Y580812D01*
X249320Y579617D01*
X250234Y578703D01*
X251429Y578208D01*
X252722D01*
X253916Y578703D01*
X254830Y579617D01*
X255325Y580812D01*
Y582104D01*
X254830Y583299D01*
X253916Y584213D01*
X252722Y584708D01*
D02*
G37*
G36*
X232433Y584668D02*
X231141D01*
X229946Y584173D01*
X229032Y583259D01*
X228537Y582065D01*
Y580772D01*
X229032Y579577D01*
X229946Y578663D01*
X231141Y578168D01*
X232433D01*
X233628Y578663D01*
X234542Y579577D01*
X235037Y580772D01*
Y582065D01*
X234542Y583259D01*
X233628Y584173D01*
X232433Y584668D01*
D02*
G37*
G36*
X291413Y568780D02*
X290120D01*
X288925Y568285D01*
X288011Y567371D01*
X287516Y566176D01*
Y564883D01*
X288011Y563689D01*
X288925Y562775D01*
X290120Y562280D01*
X291413D01*
X292607Y562775D01*
X293522Y563689D01*
X294016Y564883D01*
Y566176D01*
X293522Y567371D01*
X292607Y568285D01*
X291413Y568780D01*
D02*
G37*
G36*
X593220Y731368D02*
X591927D01*
X590733Y730874D01*
X589819Y729959D01*
X589378Y728895D01*
X588893Y728770D01*
X588329Y728777D01*
X587441Y729666D01*
X586246Y730160D01*
X584953D01*
X583759Y729666D01*
X582845Y728751D01*
X582350Y727557D01*
Y726264D01*
X582845Y725069D01*
X583759Y724155D01*
X584953Y723660D01*
X586246D01*
X587441Y724155D01*
X588355Y725069D01*
X588796Y726133D01*
X589280Y726258D01*
X589845Y726251D01*
X590733Y725363D01*
X591927Y724868D01*
X593220D01*
X594415Y725363D01*
X595329Y726277D01*
X595824Y727472D01*
Y728765D01*
X595329Y729959D01*
X594415Y730874D01*
X593220Y731368D01*
D02*
G37*
G36*
X624136Y727493D02*
X622844D01*
X621649Y726999D01*
X620735Y726084D01*
X620240Y724890D01*
Y723597D01*
X620735Y722402D01*
X621649Y721488D01*
X622844Y720993D01*
X624136D01*
X625331Y721488D01*
X626245Y722402D01*
X626740Y723597D01*
Y724890D01*
X626245Y726084D01*
X625331Y726999D01*
X624136Y727493D01*
D02*
G37*
G36*
X643166Y708100D02*
X641873D01*
X640679Y707605D01*
X639765Y706691D01*
X639270Y705497D01*
Y704203D01*
X639566Y703490D01*
X638800Y702724D01*
X638086Y703020D01*
X636794D01*
X635599Y702525D01*
X634685Y701611D01*
X634190Y700416D01*
Y699124D01*
X634685Y697929D01*
X635599Y697015D01*
X636794Y696520D01*
X637382D01*
X637706Y696520D01*
X637905Y695520D01*
X637591Y695390D01*
X636969Y695132D01*
X636055Y694218D01*
X635560Y693024D01*
Y691731D01*
X636055Y690536D01*
X636969Y689622D01*
X638163Y689127D01*
X639456D01*
X640651Y689622D01*
X641178Y690148D01*
X641704Y689622D01*
X642898Y689127D01*
X644191D01*
X645386Y689622D01*
X646300Y690536D01*
X646795Y691731D01*
Y693024D01*
X646300Y694218D01*
X645386Y695132D01*
X644518Y695492D01*
X644191Y695627D01*
X643614Y695680D01*
X643425Y696627D01*
X644361Y697015D01*
X645275Y697929D01*
X645770Y699124D01*
Y700416D01*
X645275Y701611D01*
X644576Y702310D01*
X645275Y703009D01*
X645770Y704203D01*
Y705497D01*
X645275Y706691D01*
X644361Y707605D01*
X643166Y708100D01*
D02*
G37*
G36*
X618386Y707210D02*
X617093D01*
X615898Y706715D01*
X614984Y705801D01*
X614489Y704606D01*
Y703314D01*
X614984Y702119D01*
X615898Y701205D01*
X617093Y700710D01*
X618386D01*
X619580Y701205D01*
X620495Y702119D01*
X620989Y703314D01*
Y704606D01*
X620495Y705801D01*
X619580Y706715D01*
X618386Y707210D01*
D02*
G37*
G36*
X606386D02*
X605093D01*
X603899Y706715D01*
X602985Y705801D01*
X602490Y704606D01*
Y703314D01*
X602985Y702119D01*
X603899Y701205D01*
X605093Y700710D01*
X606386D01*
X607581Y701205D01*
X608495Y702119D01*
X608990Y703314D01*
Y704606D01*
X608495Y705801D01*
X607581Y706715D01*
X606386Y707210D01*
D02*
G37*
G36*
X594386D02*
X593093D01*
X591898Y706715D01*
X590984Y705801D01*
X590489Y704606D01*
Y703314D01*
X590984Y702119D01*
X591898Y701205D01*
X593093Y700710D01*
X594386D01*
X595580Y701205D01*
X596495Y702119D01*
X596989Y703314D01*
Y704606D01*
X596495Y705801D01*
X595580Y706715D01*
X594386Y707210D01*
D02*
G37*
G36*
X569607Y708100D02*
X568313D01*
X567119Y707605D01*
X566205Y706691D01*
X565710Y705497D01*
Y704203D01*
X566205Y703009D01*
X566904Y702310D01*
X566205Y701611D01*
X565710Y700416D01*
Y699124D01*
X566205Y697929D01*
X567119Y697015D01*
X568055Y696627D01*
X567866Y695680D01*
X567289Y695627D01*
X566962Y695492D01*
X566094Y695132D01*
X565180Y694218D01*
X564685Y693024D01*
Y691731D01*
X565180Y690536D01*
X566094Y689622D01*
X567289Y689127D01*
X568581D01*
X569776Y689622D01*
X570303Y690148D01*
X570829Y689622D01*
X572024Y689127D01*
X573316D01*
X574511Y689622D01*
X575425Y690536D01*
X575920Y691731D01*
Y693024D01*
X575425Y694218D01*
X574511Y695132D01*
X573889Y695390D01*
X573575Y695520D01*
X573774Y696520D01*
X574098Y696520D01*
X574687D01*
X575881Y697015D01*
X576795Y697929D01*
X577290Y699124D01*
Y700416D01*
X576795Y701611D01*
X575881Y702525D01*
X574687Y703020D01*
X573394D01*
X572680Y702724D01*
X571914Y703490D01*
X572210Y704203D01*
Y705497D01*
X571715Y706691D01*
X570801Y707605D01*
X569607Y708100D01*
D02*
G37*
G36*
X618386Y695210D02*
X617093D01*
X615898Y694715D01*
X614984Y693801D01*
X614489Y692607D01*
Y691314D01*
X614984Y690119D01*
X615898Y689205D01*
X617093Y688710D01*
X618386D01*
X619580Y689205D01*
X620495Y690119D01*
X620989Y691314D01*
Y692607D01*
X620495Y693801D01*
X619580Y694715D01*
X618386Y695210D01*
D02*
G37*
G36*
X594386D02*
X593093D01*
X591898Y694715D01*
X590984Y693801D01*
X590489Y692607D01*
Y691314D01*
X590984Y690119D01*
X591898Y689205D01*
X593093Y688710D01*
X594386D01*
X595580Y689205D01*
X596495Y690119D01*
X596989Y691314D01*
Y692607D01*
X596495Y693801D01*
X595580Y694715D01*
X594386Y695210D01*
D02*
G37*
G36*
X606386Y695208D02*
X605093D01*
X603899Y694714D01*
X602985Y693799D01*
X602490Y692605D01*
Y691312D01*
X602985Y690117D01*
X603899Y689203D01*
X605093Y688708D01*
X606386D01*
X607581Y689203D01*
X608495Y690117D01*
X608990Y691312D01*
Y692605D01*
X608495Y693799D01*
X607581Y694714D01*
X606386Y695208D01*
D02*
G37*
G36*
X643166Y687400D02*
X641873D01*
X640679Y686905D01*
X639980Y686206D01*
X639281Y686905D01*
X638086Y687400D01*
X636794D01*
X635599Y686905D01*
X634685Y685991D01*
X634190Y684797D01*
Y683504D01*
X634685Y682309D01*
X635599Y681395D01*
X636794Y680900D01*
X638086D01*
X638565Y681098D01*
X639330Y680333D01*
X639075Y679716D01*
Y678424D01*
X639570Y677229D01*
X640484Y676315D01*
X641678Y675820D01*
X642971D01*
X644166Y676315D01*
X645080Y677229D01*
X645575Y678424D01*
Y679716D01*
X645080Y680911D01*
X644479Y681512D01*
X645275Y682309D01*
X645770Y683504D01*
Y684797D01*
X645275Y685991D01*
X644361Y686905D01*
X643166Y687400D01*
D02*
G37*
G36*
X574687D02*
X573394D01*
X572199Y686905D01*
X571500Y686206D01*
X570801Y686905D01*
X569607Y687400D01*
X568313D01*
X567119Y686905D01*
X566205Y685991D01*
X565710Y684797D01*
Y683504D01*
X566205Y682309D01*
X566904Y681610D01*
X566205Y680911D01*
X565710Y679716D01*
Y678424D01*
X566205Y677229D01*
X567119Y676315D01*
X568313Y675820D01*
X569607D01*
X570801Y676315D01*
X571715Y677229D01*
X572210Y678424D01*
Y679716D01*
X571914Y680430D01*
X572680Y681196D01*
X573394Y680900D01*
X574687D01*
X575881Y681395D01*
X576795Y682309D01*
X577290Y683504D01*
Y684797D01*
X576795Y685991D01*
X575881Y686905D01*
X574687Y687400D01*
D02*
G37*
G36*
X514256Y685400D02*
X512963D01*
X511768Y684905D01*
X510854Y683991D01*
X510359Y682796D01*
Y681504D01*
X510854Y680309D01*
X511768Y679395D01*
X512963Y678900D01*
X514256D01*
X515451Y679395D01*
X516365Y680309D01*
X516860Y681504D01*
Y682796D01*
X516365Y683991D01*
X515451Y684905D01*
X514256Y685400D01*
D02*
G37*
G36*
X618386Y683210D02*
X617093D01*
X615898Y682715D01*
X614984Y681801D01*
X614489Y680607D01*
Y679314D01*
X614984Y678119D01*
X615898Y677205D01*
X617093Y676710D01*
X618386D01*
X619580Y677205D01*
X620495Y678119D01*
X620989Y679314D01*
Y680607D01*
X620495Y681801D01*
X619580Y682715D01*
X618386Y683210D01*
D02*
G37*
G36*
X606386D02*
X605093D01*
X603898Y682715D01*
X602984Y681801D01*
X602489Y680607D01*
Y679314D01*
X602984Y678119D01*
X603898Y677205D01*
X605093Y676710D01*
X606386D01*
X607580Y677205D01*
X608495Y678119D01*
X608989Y679314D01*
Y680607D01*
X608495Y681801D01*
X607580Y682715D01*
X606386Y683210D01*
D02*
G37*
G36*
X594386D02*
X593093D01*
X591898Y682715D01*
X590984Y681801D01*
X590489Y680607D01*
Y679314D01*
X590984Y678119D01*
X591898Y677205D01*
X593093Y676710D01*
X594386D01*
X595580Y677205D01*
X596495Y678119D01*
X596989Y679314D01*
Y680607D01*
X596495Y681801D01*
X595580Y682715D01*
X594386Y683210D01*
D02*
G37*
G36*
X695337Y676350D02*
X694044D01*
X692849Y675855D01*
X692150Y675156D01*
X691451Y675855D01*
X690257Y676350D01*
X688963D01*
X687769Y675855D01*
X687070Y675156D01*
X686371Y675855D01*
X685176Y676350D01*
X683884D01*
X682689Y675855D01*
X681990Y675156D01*
X681291Y675855D01*
X680097Y676350D01*
X678803D01*
X677609Y675855D01*
X676695Y674941D01*
X676200Y673746D01*
Y672454D01*
X676695Y671259D01*
X677394Y670560D01*
X676695Y669861D01*
X676200Y668667D01*
Y667374D01*
X676695Y666179D01*
X677394Y665480D01*
X676695Y664781D01*
X676200Y663587D01*
Y662293D01*
X676695Y661099D01*
X677609Y660185D01*
X678803Y659690D01*
X680097D01*
X681291Y660185D01*
X681990Y660884D01*
X682689Y660185D01*
X683884Y659690D01*
X685176D01*
X686371Y660185D01*
X687070Y660884D01*
X687769Y660185D01*
X688963Y659690D01*
X690257D01*
X691451Y660185D01*
X692150Y660884D01*
X692849Y660185D01*
X694044Y659690D01*
X695337D01*
X696531Y660185D01*
X697445Y661099D01*
X697940Y662293D01*
Y663587D01*
X697445Y664781D01*
X696746Y665480D01*
X697445Y666179D01*
X697940Y667374D01*
Y668667D01*
X697445Y669861D01*
X696746Y670560D01*
X697445Y671259D01*
X697940Y672454D01*
Y673746D01*
X697445Y674941D01*
X696531Y675855D01*
X695337Y676350D01*
D02*
G37*
G36*
X534047Y675080D02*
X532753D01*
X531559Y674585D01*
X530860Y673886D01*
X530161Y674585D01*
X528966Y675080D01*
X527673D01*
X526479Y674585D01*
X525780Y673886D01*
X525081Y674585D01*
X523886Y675080D01*
X522593D01*
X521399Y674585D01*
X520700Y673886D01*
X520001Y674585D01*
X518806Y675080D01*
X517514D01*
X516319Y674585D01*
X515405Y673671D01*
X514910Y672477D01*
Y671183D01*
X515405Y669989D01*
X516104Y669290D01*
X515405Y668591D01*
X514910Y667396D01*
Y666104D01*
X515405Y664909D01*
X516104Y664210D01*
X515405Y663511D01*
X514910Y662317D01*
Y661023D01*
X515405Y659829D01*
X516319Y658915D01*
X517514Y658420D01*
X518806D01*
X520001Y658915D01*
X520700Y659614D01*
X521399Y658915D01*
X522593Y658420D01*
X523886D01*
X525081Y658915D01*
X525780Y659614D01*
X526479Y658915D01*
X527673Y658420D01*
X528966D01*
X530161Y658915D01*
X530860Y659614D01*
X531559Y658915D01*
X532753Y658420D01*
X534047D01*
X535241Y658915D01*
X536155Y659829D01*
X536650Y661023D01*
Y662317D01*
X536155Y663511D01*
X535456Y664210D01*
X536155Y664909D01*
X536650Y666104D01*
Y667396D01*
X536155Y668591D01*
X535456Y669290D01*
X536155Y669989D01*
X536650Y671183D01*
Y672477D01*
X536155Y673671D01*
X535241Y674585D01*
X534047Y675080D01*
D02*
G37*
G36*
X598816Y661110D02*
X597523D01*
X596329Y660615D01*
X595415Y659701D01*
X594920Y658506D01*
Y657214D01*
X595415Y656019D01*
X596329Y655105D01*
X597523Y654610D01*
X598816D01*
X600011Y655105D01*
X600925Y656019D01*
X601420Y657214D01*
Y658506D01*
X600925Y659701D01*
X600011Y660615D01*
X598816Y661110D01*
D02*
G37*
G36*
X628237Y660433D02*
X626944D01*
X625749Y659938D01*
X624835Y659024D01*
X624340Y657830D01*
Y656537D01*
X624835Y655342D01*
X625749Y654428D01*
X626944Y653933D01*
X628237D01*
X629431Y654428D01*
X630346Y655342D01*
X630840Y656537D01*
Y657830D01*
X630346Y659024D01*
X629431Y659938D01*
X628237Y660433D01*
D02*
G37*
G36*
X587327Y662550D02*
X586034D01*
X584839Y662055D01*
X583925Y661141D01*
X583430Y659947D01*
Y658653D01*
X583925Y657459D01*
X584709Y656675D01*
X583925Y655891D01*
X583430Y654697D01*
Y653403D01*
X583925Y652209D01*
X584839Y651295D01*
X586034Y650800D01*
X587327D01*
X588521Y651295D01*
X589435Y652209D01*
X589930Y653403D01*
Y654697D01*
X589435Y655891D01*
X588651Y656675D01*
X589435Y657459D01*
X589930Y658653D01*
Y659947D01*
X589435Y661141D01*
X588521Y662055D01*
X587327Y662550D01*
D02*
G37*
G36*
X711509Y650601D02*
X710216D01*
X709021Y650106D01*
X708107Y649192D01*
X707612Y647997D01*
Y647801D01*
X706612Y647602D01*
X706335Y648271D01*
X705421Y649185D01*
X704227Y649680D01*
X702934D01*
X701739Y649185D01*
X700825Y648271D01*
X700330Y647076D01*
Y645783D01*
X700825Y644589D01*
X701739Y643675D01*
X702934Y643180D01*
X704227D01*
X705421Y643675D01*
X706335Y644589D01*
X706830Y645783D01*
Y645980D01*
X707830Y646179D01*
X708107Y645510D01*
X709021Y644595D01*
X710216Y644100D01*
X711509D01*
X712703Y644595D01*
X713618Y645510D01*
X714112Y646704D01*
Y647997D01*
X713618Y649192D01*
X712703Y650106D01*
X711509Y650601D01*
D02*
G37*
G36*
X475626Y652220D02*
X474333D01*
X473139Y651725D01*
X472225Y650811D01*
X471730Y649616D01*
Y648324D01*
X472225Y647129D01*
X473139Y646215D01*
X474333Y645720D01*
X475626D01*
X476821Y646215D01*
X477735Y647129D01*
X478230Y648324D01*
Y649616D01*
X477735Y650811D01*
X476821Y651725D01*
X475626Y652220D01*
D02*
G37*
G36*
X573086Y660888D02*
X571794D01*
X570599Y660393D01*
X569685Y659479D01*
X569190Y658284D01*
Y656991D01*
X569685Y655797D01*
X570065Y655416D01*
X570516Y654763D01*
X570065Y654109D01*
X569685Y653729D01*
X569190Y652534D01*
Y651241D01*
X569685Y650047D01*
X570065Y649666D01*
X570516Y649013D01*
X570065Y648359D01*
X569685Y647979D01*
X569190Y646784D01*
Y645491D01*
X569685Y644297D01*
X570599Y643382D01*
X571794Y642888D01*
X573086D01*
X574281Y643382D01*
X575195Y644297D01*
X575690Y645491D01*
Y646784D01*
X575195Y647979D01*
X574814Y648359D01*
X574364Y649013D01*
X574814Y649666D01*
X575195Y650047D01*
X575690Y651241D01*
Y652534D01*
X575195Y653729D01*
X574814Y654109D01*
X574364Y654763D01*
X574814Y655416D01*
X575195Y655797D01*
X575690Y656991D01*
Y658284D01*
X575195Y659479D01*
X574281Y660393D01*
X573086Y660888D01*
D02*
G37*
G36*
X640686Y659618D02*
X639394D01*
X638199Y659123D01*
X637285Y658209D01*
X636790Y657014D01*
Y655721D01*
X637285Y654527D01*
X637665Y654146D01*
X638116Y653493D01*
X637665Y652839D01*
X637285Y652459D01*
X636790Y651264D01*
Y649971D01*
X637285Y648777D01*
X638199Y647862D01*
X637665Y647089D01*
X637409Y646833D01*
X636914Y645638D01*
Y644345D01*
X637409Y643151D01*
X638323Y642237D01*
X639518Y641742D01*
X640811D01*
X642005Y642237D01*
X642920Y643151D01*
X643414Y644345D01*
Y645638D01*
X642920Y646833D01*
X642005Y647747D01*
X642539Y648520D01*
X642795Y648777D01*
X643290Y649971D01*
Y651264D01*
X642795Y652459D01*
X642414Y652839D01*
X641964Y653493D01*
X642414Y654146D01*
X642795Y654527D01*
X643290Y655721D01*
Y657014D01*
X642795Y658209D01*
X641881Y659123D01*
X640686Y659618D01*
D02*
G37*
G36*
X650914Y635710D02*
X649621D01*
X648427Y635215D01*
X647643Y634431D01*
X646859Y635215D01*
X645664Y635710D01*
X644371D01*
X643177Y635215D01*
X642262Y634301D01*
X641768Y633106D01*
Y631814D01*
X642262Y630619D01*
X643177Y629705D01*
X644371Y629210D01*
X645664D01*
X646859Y629705D01*
X647643Y630489D01*
X648427Y629705D01*
X649621Y629210D01*
X650914D01*
X652109Y629705D01*
X653023Y630619D01*
X653518Y631814D01*
Y633106D01*
X653023Y634301D01*
X652109Y635215D01*
X650914Y635710D01*
D02*
G37*
G36*
X569037D02*
X567744D01*
X566549Y635215D01*
X565765Y634431D01*
X564981Y635215D01*
X563787Y635710D01*
X562494D01*
X561299Y635215D01*
X560385Y634301D01*
X559890Y633106D01*
Y631814D01*
X560385Y630619D01*
X561299Y629705D01*
X562494Y629210D01*
X563787D01*
X564981Y629705D01*
X565765Y630489D01*
X566549Y629705D01*
X567744Y629210D01*
X569037D01*
X570231Y629705D01*
X571146Y630619D01*
X571640Y631814D01*
Y633106D01*
X571146Y634301D01*
X570231Y635215D01*
X569037Y635710D01*
D02*
G37*
G36*
X621446Y634913D02*
X620153D01*
X618959Y634419D01*
X618044Y633504D01*
X617550Y632310D01*
Y631017D01*
X618044Y629823D01*
X618959Y628908D01*
X620153Y628413D01*
X621446D01*
X622641Y628908D01*
X623555Y629823D01*
X624050Y631017D01*
Y632310D01*
X623555Y633504D01*
X622641Y634419D01*
X621446Y634913D01*
D02*
G37*
G36*
X728107Y633120D02*
X727013D01*
X726002Y632701D01*
X725229Y631928D01*
X724810Y630917D01*
Y629823D01*
X725229Y628812D01*
X726002Y628039D01*
X727013Y627620D01*
X728107D01*
X729118Y628039D01*
X729891Y628812D01*
X730310Y629823D01*
Y630917D01*
X729891Y631928D01*
X729118Y632701D01*
X728107Y633120D01*
D02*
G37*
G36*
X605167Y633170D02*
X603873D01*
X602679Y632675D01*
X601765Y631761D01*
X601270Y630566D01*
Y629273D01*
X601765Y628079D01*
X602679Y627165D01*
X603873Y626670D01*
X605167D01*
X606361Y627165D01*
X607275Y628079D01*
X607770Y629273D01*
Y630566D01*
X607275Y631761D01*
X606361Y632675D01*
X605167Y633170D01*
D02*
G37*
G36*
X587953Y635759D02*
X586660D01*
X585466Y635265D01*
X584552Y634350D01*
X584057Y633156D01*
Y631863D01*
X584552Y630668D01*
X585466Y629754D01*
X586660Y629259D01*
X587953D01*
X589148Y629754D01*
X589439Y630046D01*
X589579Y630011D01*
X590363Y629555D01*
Y628527D01*
X590858Y627332D01*
X591772Y626418D01*
X592967Y625923D01*
X594260D01*
X595454Y626418D01*
X596369Y627332D01*
X596863Y628527D01*
Y629820D01*
X596369Y631014D01*
X595454Y631929D01*
X594260Y632423D01*
X592967D01*
X591772Y631929D01*
X591481Y631637D01*
X591341Y631671D01*
X590557Y632127D01*
Y633156D01*
X590062Y634350D01*
X589148Y635265D01*
X587953Y635759D01*
D02*
G37*
G36*
X564080Y625384D02*
X562787D01*
X561593Y624889D01*
X560678Y623975D01*
X560184Y622781D01*
Y621488D01*
X560678Y620293D01*
X561593Y619379D01*
X562787Y618884D01*
X564080D01*
X565275Y619379D01*
X566189Y620293D01*
X566684Y621488D01*
Y622781D01*
X566189Y623975D01*
X565275Y624889D01*
X564080Y625384D01*
D02*
G37*
G36*
X728107Y620120D02*
X727013D01*
X726002Y619701D01*
X725229Y618928D01*
X724810Y617917D01*
Y616823D01*
X725229Y615812D01*
X726002Y615039D01*
X727013Y614620D01*
X728107D01*
X729118Y615039D01*
X729891Y615812D01*
X730310Y616823D01*
Y617917D01*
X729891Y618928D01*
X729118Y619701D01*
X728107Y620120D01*
D02*
G37*
G36*
Y607120D02*
X727013D01*
X726002Y606701D01*
X725229Y605928D01*
X724810Y604917D01*
Y603823D01*
X725229Y602812D01*
X726002Y602039D01*
X727013Y601620D01*
X728107D01*
X729118Y602039D01*
X729891Y602812D01*
X730310Y603823D01*
Y604917D01*
X729891Y605928D01*
X729118Y606701D01*
X728107Y607120D01*
D02*
G37*
G36*
Y594120D02*
X727013D01*
X726002Y593701D01*
X725229Y592928D01*
X724810Y591917D01*
Y590823D01*
X725229Y589812D01*
X726002Y589039D01*
X727013Y588620D01*
X728107D01*
X729118Y589039D01*
X729891Y589812D01*
X730310Y590823D01*
Y591917D01*
X729891Y592928D01*
X729118Y593701D01*
X728107Y594120D01*
D02*
G37*
G36*
X696616Y582217D02*
X695323D01*
X694129Y581722D01*
X693215Y580808D01*
X692720Y579613D01*
Y578320D01*
X693215Y577126D01*
X694129Y576212D01*
X695323Y575717D01*
X696616D01*
X697811Y576212D01*
X698725Y577126D01*
X699220Y578320D01*
Y579613D01*
X698725Y580808D01*
X697811Y581722D01*
X696616Y582217D01*
D02*
G37*
G36*
X725816Y559510D02*
X724523D01*
X723329Y559015D01*
X722415Y558101D01*
X721920Y556907D01*
Y555614D01*
X722415Y554419D01*
X723329Y553505D01*
X724523Y553010D01*
X725816D01*
X727011Y553505D01*
X727925Y554419D01*
X728420Y555614D01*
Y556907D01*
X727925Y558101D01*
X727011Y559015D01*
X725816Y559510D01*
D02*
G37*
G36*
X727086Y437590D02*
X725794D01*
X724599Y437095D01*
X723685Y436181D01*
X723190Y434986D01*
Y433694D01*
X723685Y432499D01*
X724599Y431585D01*
X725794Y431090D01*
X727086D01*
X728281Y431585D01*
X729195Y432499D01*
X729690Y433694D01*
Y434986D01*
X729195Y436181D01*
X728281Y437095D01*
X727086Y437590D01*
D02*
G37*
G36*
X708036Y422350D02*
X706743D01*
X705549Y421855D01*
X704635Y420941D01*
X704140Y419747D01*
Y418453D01*
X704635Y417259D01*
X705377Y416516D01*
X705478Y415925D01*
X705377Y415334D01*
X704635Y414591D01*
X704140Y413396D01*
Y412104D01*
X704635Y410909D01*
X705549Y409995D01*
X706743Y409500D01*
X708036D01*
X709231Y409995D01*
X710145Y410909D01*
X710640Y412104D01*
Y413396D01*
X710145Y414591D01*
X709403Y415334D01*
X709302Y415925D01*
X709403Y416516D01*
X710145Y417259D01*
X710640Y418453D01*
Y419747D01*
X710145Y420941D01*
X709231Y421855D01*
X708036Y422350D01*
D02*
G37*
G36*
X698211Y415922D02*
X696918D01*
X695723Y415427D01*
X694809Y414513D01*
X694314Y413318D01*
Y412025D01*
X694809Y410831D01*
X695723Y409917D01*
X696918Y409422D01*
X698211D01*
X699405Y409917D01*
X700320Y410831D01*
X700814Y412025D01*
Y413318D01*
X700320Y414513D01*
X699405Y415427D01*
X698211Y415922D01*
D02*
G37*
G36*
X712606Y395181D02*
X711313D01*
X710118Y394686D01*
X709204Y393772D01*
X708709Y392577D01*
Y391284D01*
X709204Y390090D01*
X710118Y389176D01*
X711313Y388681D01*
X712606D01*
X713800Y389176D01*
X714714Y390090D01*
X715209Y391284D01*
Y392577D01*
X714714Y393772D01*
X713800Y394686D01*
X712606Y395181D01*
D02*
G37*
G36*
X697877Y393140D02*
X696583D01*
X695389Y392645D01*
X694475Y391731D01*
X693980Y390536D01*
Y389244D01*
X694475Y388049D01*
X695389Y387135D01*
X696583Y386640D01*
X697877D01*
X699071Y387135D01*
X699985Y388049D01*
X700480Y389244D01*
Y390536D01*
X699985Y391731D01*
X699071Y392645D01*
X697877Y393140D01*
D02*
G37*
G36*
X455854Y579652D02*
X454561D01*
X453366Y579158D01*
X452452Y578243D01*
X451957Y577049D01*
Y575756D01*
X452452Y574562D01*
X452909Y574105D01*
X452820Y572996D01*
X452770Y572937D01*
X451905Y572071D01*
X451410Y570877D01*
Y569584D01*
X451905Y568389D01*
X452819Y567475D01*
X454013Y566980D01*
X455307D01*
X456501Y567475D01*
X457415Y568389D01*
X457910Y569584D01*
Y570877D01*
X457415Y572071D01*
X456959Y572528D01*
X457048Y573637D01*
X457097Y573696D01*
X457963Y574562D01*
X458457Y575756D01*
Y577049D01*
X457963Y578243D01*
X457048Y579158D01*
X455854Y579652D01*
D02*
G37*
G36*
X417379Y573353D02*
X416086D01*
X414891Y572859D01*
X413977Y571944D01*
X413482Y570750D01*
Y569457D01*
X413977Y568262D01*
X414891Y567348D01*
X416086Y566853D01*
X417379D01*
X418573Y567348D01*
X419487Y568262D01*
X419982Y569457D01*
Y570750D01*
X419487Y571944D01*
X418573Y572859D01*
X417379Y573353D01*
D02*
G37*
G36*
X488120Y564963D02*
X486828D01*
X485633Y564468D01*
X484719Y563554D01*
X484224Y562359D01*
Y561067D01*
X484719Y559872D01*
X485633Y558958D01*
X486828Y558463D01*
X488120D01*
X489315Y558958D01*
X490229Y559872D01*
X490724Y561067D01*
Y562359D01*
X490229Y563554D01*
X489315Y564468D01*
X488120Y564963D01*
D02*
G37*
G36*
X418537Y563169D02*
X417245D01*
X416050Y562674D01*
X415136Y561760D01*
X414641Y560565D01*
Y559272D01*
X415136Y558078D01*
X416050Y557163D01*
X417245Y556669D01*
X418537D01*
X419732Y557163D01*
X420646Y558078D01*
X421141Y559272D01*
Y560565D01*
X420646Y561760D01*
X419732Y562674D01*
X418537Y563169D01*
D02*
G37*
G36*
X455317Y559033D02*
X454024D01*
X452830Y558538D01*
X451916Y557624D01*
X451421Y556429D01*
Y555136D01*
X451916Y553942D01*
X452830Y553028D01*
X454024Y552533D01*
X455317D01*
X456512Y553028D01*
X457426Y553942D01*
X457921Y555136D01*
Y556429D01*
X457426Y557624D01*
X456512Y558538D01*
X455317Y559033D01*
D02*
G37*
G36*
X497880Y552690D02*
X496587D01*
X495392Y552195D01*
X494478Y551281D01*
X493983Y550086D01*
Y548793D01*
X494478Y547598D01*
X495392Y546684D01*
X496587Y546189D01*
X497880D01*
X499074Y546684D01*
X499989Y547598D01*
X500484Y548793D01*
Y550086D01*
X499989Y551281D01*
X499074Y552195D01*
X497880Y552690D01*
D02*
G37*
G36*
X527795Y542194D02*
X526502D01*
X525308Y541699D01*
X524495Y540887D01*
X523924Y540831D01*
X523353Y540887D01*
X522541Y541699D01*
X521347Y542194D01*
X520053D01*
X518859Y541699D01*
X517945Y540785D01*
X517450Y539591D01*
Y538298D01*
X517945Y537103D01*
X518859Y536189D01*
X520053Y535694D01*
X521347D01*
X522541Y536189D01*
X523353Y537001D01*
X523924Y537057D01*
X524495Y537001D01*
X525308Y536189D01*
X526502Y535694D01*
X527795D01*
X528990Y536189D01*
X529671Y536870D01*
X530305Y537004D01*
X530886Y536861D01*
X531581Y536166D01*
X532775Y535671D01*
X534068D01*
X535263Y536166D01*
X536177Y537080D01*
X536672Y538275D01*
Y539568D01*
X536177Y540762D01*
X535263Y541676D01*
X534068Y542171D01*
X532775D01*
X531581Y541676D01*
X530899Y540995D01*
X530265Y540861D01*
X529684Y541005D01*
X528990Y541699D01*
X527795Y542194D01*
D02*
G37*
G36*
X504837Y543000D02*
X503544D01*
X502349Y542505D01*
X501435Y541591D01*
X500940Y540396D01*
Y539104D01*
X501435Y537909D01*
X502349Y536995D01*
X503544Y536500D01*
X504837D01*
X506031Y536995D01*
X506945Y537909D01*
X507440Y539104D01*
Y540396D01*
X506945Y541591D01*
X506031Y542505D01*
X504837Y543000D01*
D02*
G37*
G36*
X482675Y546238D02*
X481382D01*
X480187Y545743D01*
X479273Y544829D01*
X478778Y543635D01*
Y542342D01*
X479273Y541147D01*
X480187Y540233D01*
X481382Y539738D01*
X482588D01*
Y538532D01*
X483083Y537337D01*
X483997Y536423D01*
X485192Y535928D01*
X486485D01*
X487679Y536423D01*
X488030Y536773D01*
X488914Y537082D01*
X489321Y536758D01*
X489890Y536189D01*
X491084Y535694D01*
X492377D01*
X493572Y536189D01*
X494486Y537103D01*
X494981Y538298D01*
Y539591D01*
X494486Y540785D01*
X493572Y541699D01*
X492377Y542194D01*
X491084D01*
X489890Y541699D01*
X489539Y541349D01*
X488655Y541040D01*
X488248Y541364D01*
X487679Y541933D01*
X486485Y542428D01*
X485278D01*
Y543635D01*
X484783Y544829D01*
X483869Y545743D01*
X482675Y546238D01*
D02*
G37*
G36*
X458496Y533372D02*
X457203D01*
X456008Y532877D01*
X455434Y532303D01*
X454794Y532072D01*
X454153Y532303D01*
X453579Y532877D01*
X452384Y533372D01*
X451091D01*
X449897Y532877D01*
X448983Y531963D01*
X448488Y530768D01*
Y529476D01*
X448983Y528281D01*
X449897Y527367D01*
X451091Y526872D01*
X452384D01*
X453579Y527367D01*
X454153Y527940D01*
X454794Y528172D01*
X455434Y527940D01*
X456008Y527367D01*
X457203Y526872D01*
X458496D01*
X459690Y527367D01*
X460605Y528281D01*
X461099Y529476D01*
Y530768D01*
X460605Y531963D01*
X459690Y532877D01*
X458496Y533372D01*
D02*
G37*
G36*
X498236Y534160D02*
X496943D01*
X495749Y533665D01*
X494835Y532751D01*
X494340Y531557D01*
Y530264D01*
X494835Y529069D01*
X495749Y528155D01*
X496943Y527660D01*
X498236D01*
X499431Y528155D01*
X500345Y529069D01*
X500840Y530264D01*
Y531557D01*
X500345Y532751D01*
X499431Y533665D01*
X498236Y534160D01*
D02*
G37*
G36*
X466991Y533372D02*
X465698D01*
X464503Y532877D01*
X463589Y531963D01*
X463094Y530768D01*
Y529476D01*
X463589Y528281D01*
X464503Y527367D01*
X465698Y526872D01*
X466991D01*
X468185Y527367D01*
X469099Y528281D01*
X469594Y529476D01*
Y530768D01*
X469099Y531963D01*
X468185Y532877D01*
X466991Y533372D01*
D02*
G37*
G36*
X417753D02*
X416461D01*
X415266Y532877D01*
X414352Y531963D01*
X413857Y530768D01*
Y529476D01*
X414352Y528281D01*
X415266Y527367D01*
X416461Y526872D01*
X417753D01*
X418948Y527367D01*
X419862Y528281D01*
X420357Y529476D01*
Y530768D01*
X419862Y531963D01*
X418948Y532877D01*
X417753Y533372D01*
D02*
G37*
G36*
X512216Y531660D02*
X510923D01*
X509729Y531165D01*
X508815Y530251D01*
X508320Y529057D01*
Y527764D01*
X508815Y526569D01*
X509729Y525655D01*
X510923Y525160D01*
X512216D01*
X513411Y525655D01*
X514325Y526569D01*
X514820Y527764D01*
Y529057D01*
X514325Y530251D01*
X513411Y531165D01*
X512216Y531660D01*
D02*
G37*
G36*
X408987Y530689D02*
X407694D01*
X406499Y530194D01*
X405585Y529280D01*
X405090Y528085D01*
Y526792D01*
X405585Y525597D01*
X406499Y524683D01*
X407694Y524188D01*
X408987D01*
X410181Y524683D01*
X411096Y525597D01*
X411590Y526792D01*
Y528085D01*
X411096Y529280D01*
X410181Y530194D01*
X408987Y530689D01*
D02*
G37*
G36*
X541513Y529030D02*
X540220D01*
X539026Y528535D01*
X538112Y527621D01*
X537617Y526427D01*
Y525134D01*
X538112Y523939D01*
X539026Y523025D01*
X540220Y522530D01*
X541513D01*
X542708Y523025D01*
X543622Y523939D01*
X544117Y525134D01*
Y526427D01*
X543622Y527621D01*
X542708Y528535D01*
X541513Y529030D01*
D02*
G37*
G36*
X405412Y523476D02*
X404119D01*
X402925Y522982D01*
X402010Y522067D01*
X401931Y521876D01*
X400855Y521861D01*
X399941Y522775D01*
X398746Y523270D01*
X397454D01*
X396259Y522775D01*
X395345Y521861D01*
X394850Y520667D01*
Y519374D01*
X395345Y518179D01*
X396259Y517265D01*
X397454Y516770D01*
X398746D01*
X399485Y516031D01*
Y514738D01*
X399980Y513544D01*
X400894Y512630D01*
X402089Y512135D01*
X403382D01*
X404576Y512630D01*
X405490Y513544D01*
X405985Y514738D01*
Y516031D01*
X405567Y517041D01*
X406607Y517471D01*
X407521Y518385D01*
X408016Y519580D01*
Y520873D01*
X407521Y522067D01*
X406607Y522982D01*
X405412Y523476D01*
D02*
G37*
G36*
X473087Y526490D02*
X471794D01*
X470599Y525995D01*
X469685Y525081D01*
X469190Y523886D01*
Y522593D01*
X469685Y521399D01*
X470599Y520485D01*
X471794Y519990D01*
X473087D01*
X474281Y520485D01*
X475195Y521399D01*
X475690Y522593D01*
Y523886D01*
X475195Y525081D01*
X474281Y525995D01*
X473087Y526490D01*
D02*
G37*
G36*
X428264Y524930D02*
X426971D01*
X425776Y524435D01*
X424862Y523521D01*
X424367Y522327D01*
Y521034D01*
X424862Y519839D01*
X425776Y518925D01*
X426971Y518430D01*
X428264D01*
X429458Y518925D01*
X430373Y519839D01*
X430867Y521034D01*
Y522327D01*
X430373Y523521D01*
X429458Y524435D01*
X428264Y524930D01*
D02*
G37*
G36*
X485817Y520444D02*
X484524D01*
X483329Y519949D01*
X482415Y519035D01*
X482082Y518230D01*
X481000D01*
X480703Y518946D01*
X479789Y519860D01*
X478594Y520355D01*
X477301D01*
X476107Y519860D01*
X475193Y518946D01*
X474698Y517752D01*
Y516459D01*
X475193Y515264D01*
X476107Y514350D01*
X477301Y513855D01*
X478594D01*
X479789Y514350D01*
X480703Y515264D01*
X481036Y516069D01*
X482119D01*
X482415Y515353D01*
X483329Y514438D01*
X484524Y513944D01*
X485817D01*
X487011Y514438D01*
X487926Y515353D01*
X488420Y516547D01*
Y517840D01*
X487926Y519035D01*
X487011Y519949D01*
X485817Y520444D01*
D02*
G37*
G36*
X516710Y523060D02*
X515417D01*
X514223Y522565D01*
X513309Y521651D01*
X512814Y520456D01*
Y519164D01*
X513309Y517969D01*
X514223Y517055D01*
X515417Y516560D01*
X516710D01*
X517905Y517055D01*
X518819Y517969D01*
X519314Y519164D01*
Y520456D01*
X518819Y521651D01*
X517905Y522565D01*
X516710Y523060D01*
D02*
G37*
G36*
X525333Y522606D02*
X524040D01*
X522845Y522111D01*
X521931Y521197D01*
X521436Y520002D01*
Y518709D01*
X521931Y517515D01*
X522845Y516600D01*
X524040Y516106D01*
X525333D01*
X526527Y516600D01*
X527441Y517515D01*
X527936Y518709D01*
Y520002D01*
X527441Y521197D01*
X526527Y522111D01*
X525333Y522606D01*
D02*
G37*
G36*
X417144Y525155D02*
X415851D01*
X414656Y524660D01*
X413742Y523746D01*
X413288Y522649D01*
X412852Y521747D01*
X411559D01*
X410364Y521252D01*
X409450Y520338D01*
X408955Y519143D01*
Y517850D01*
X409450Y516656D01*
X410364Y515742D01*
X411559Y515247D01*
X412852D01*
X414046Y515742D01*
X414961Y516656D01*
X415415Y517753D01*
X415851Y518655D01*
X417144D01*
X418338Y519150D01*
X419253Y520064D01*
X419747Y521259D01*
Y522551D01*
X419253Y523746D01*
X418338Y524660D01*
X417144Y525155D01*
D02*
G37*
G36*
X495947Y520140D02*
X494654D01*
X493459Y519645D01*
X492545Y518731D01*
X492050Y517537D01*
Y516244D01*
X492545Y515049D01*
X493459Y514135D01*
X494654Y513640D01*
X495947D01*
X497141Y514135D01*
X498055Y515049D01*
X498550Y516244D01*
Y517537D01*
X498055Y518731D01*
X497141Y519645D01*
X495947Y520140D01*
D02*
G37*
G36*
X468318Y519760D02*
X467026D01*
X465831Y519265D01*
X464917Y518351D01*
X464422Y517157D01*
Y515864D01*
X464917Y514669D01*
X465831Y513755D01*
X467026Y513260D01*
X468318D01*
X469513Y513755D01*
X470427Y514669D01*
X470922Y515864D01*
Y517157D01*
X470427Y518351D01*
X469513Y519265D01*
X468318Y519760D01*
D02*
G37*
G36*
X446417Y525220D02*
X445123D01*
X443929Y524725D01*
X443015Y523811D01*
X442520Y522617D01*
Y521324D01*
X443015Y520129D01*
X443929Y519215D01*
X445097Y518731D01*
X445137Y518625D01*
X445270Y517720D01*
X444502Y517402D01*
X443588Y516488D01*
X443093Y515293D01*
Y514000D01*
X443588Y512806D01*
X444502Y511892D01*
X445697Y511397D01*
X446990D01*
X448184Y511892D01*
X449098Y512806D01*
X449593Y514000D01*
Y515293D01*
X449098Y516488D01*
X448184Y517402D01*
X447016Y517886D01*
X446976Y517991D01*
X446843Y518897D01*
X447611Y519215D01*
X448525Y520129D01*
X449020Y521324D01*
Y522617D01*
X448525Y523811D01*
X447611Y524725D01*
X446417Y525220D01*
D02*
G37*
G36*
X431410Y517367D02*
X430117D01*
X428922Y516872D01*
X428008Y515958D01*
X427513Y514763D01*
Y513470D01*
X428008Y512276D01*
X428922Y511362D01*
X430117Y510867D01*
X431410D01*
X432604Y511362D01*
X433518Y512276D01*
X434013Y513470D01*
Y514763D01*
X433518Y515958D01*
X432604Y516872D01*
X431410Y517367D01*
D02*
G37*
G36*
X481489Y494259D02*
X480196D01*
X479002Y493765D01*
X478087Y492850D01*
X477593Y491656D01*
Y490363D01*
X478087Y489169D01*
X479002Y488254D01*
X480196Y487760D01*
X481489D01*
X482683Y488254D01*
X483598Y489169D01*
X484092Y490363D01*
Y491656D01*
X483598Y492850D01*
X482683Y493765D01*
X481489Y494259D01*
D02*
G37*
G36*
X466110Y493612D02*
X464817D01*
X463623Y493117D01*
X462708Y492203D01*
X462214Y491008D01*
Y489715D01*
X462708Y488521D01*
X463519Y487710D01*
X462735Y486926D01*
X462240Y485732D01*
Y484439D01*
X462735Y483244D01*
X463649Y482330D01*
X464844Y481835D01*
X466137D01*
X467331Y482330D01*
X468245Y483244D01*
X468740Y484439D01*
Y485732D01*
X468245Y486926D01*
X467435Y487737D01*
X468219Y488521D01*
X468713Y489715D01*
Y491008D01*
X468219Y492203D01*
X467304Y493117D01*
X466110Y493612D01*
D02*
G37*
G36*
X520683Y482706D02*
X519489D01*
X518387Y482250D01*
X517543Y481406D01*
X517264Y480733D01*
X516381Y480355D01*
X516116Y480374D01*
X515171Y480766D01*
X513978D01*
X512875Y480309D01*
X512031Y479465D01*
X511177Y479918D01*
X511029Y480066D01*
X509927Y480523D01*
X508733D01*
X507631Y480066D01*
X506787Y479222D01*
X506599Y479212D01*
X505715Y479248D01*
X504950Y480013D01*
X503848Y480470D01*
X502654D01*
X501552Y480013D01*
X501266Y479727D01*
X500546Y479290D01*
X499959Y479727D01*
X499609Y480078D01*
X498506Y480534D01*
X497313D01*
X496210Y480078D01*
X495366Y479234D01*
X494910Y478131D01*
Y476937D01*
X495366Y475835D01*
X496210Y474991D01*
X497313Y474534D01*
X498506D01*
X499609Y474991D01*
X499895Y475277D01*
X500615Y475714D01*
X501201Y475277D01*
X501552Y474927D01*
X502654Y474470D01*
X503848D01*
X504950Y474927D01*
X505794Y475771D01*
X505982Y475781D01*
X506866Y475744D01*
X507631Y474979D01*
X508733Y474523D01*
X509927D01*
X511029Y474979D01*
X511873Y475823D01*
X512727Y475370D01*
X512875Y475223D01*
X513978Y474766D01*
X515171D01*
X516274Y475223D01*
X517118Y476066D01*
X517396Y476739D01*
X518279Y477117D01*
X518545Y477098D01*
X519489Y476706D01*
X520683D01*
X521786Y477163D01*
X522058Y477435D01*
X522738Y477922D01*
X523364Y477435D01*
X523663Y477136D01*
X524766Y476680D01*
X525960D01*
X527062Y477136D01*
X527906Y477980D01*
X528363Y479083D01*
Y480276D01*
X527906Y481379D01*
X527062Y482223D01*
X525960Y482680D01*
X524766D01*
X523663Y482223D01*
X523391Y481951D01*
X522711Y481464D01*
X522085Y481951D01*
X521786Y482250D01*
X520683Y482706D01*
D02*
G37*
G36*
X448907Y481790D02*
X447713D01*
X446611Y481333D01*
X445767Y480489D01*
X445310Y479387D01*
Y478193D01*
X445767Y477091D01*
X446611Y476247D01*
X447713Y475790D01*
X448907D01*
X450009Y476247D01*
X450853Y477091D01*
X451310Y478193D01*
Y479387D01*
X450853Y480489D01*
X450009Y481333D01*
X448907Y481790D01*
D02*
G37*
G36*
X542998Y480408D02*
X541805D01*
X540702Y479952D01*
X539858Y479108D01*
X539402Y478005D01*
Y476812D01*
X539858Y475709D01*
X540702Y474865D01*
X541805Y474408D01*
X542998D01*
X544101Y474865D01*
X544945Y475709D01*
X545402Y476812D01*
Y478005D01*
X544945Y479108D01*
X544101Y479952D01*
X542998Y480408D01*
D02*
G37*
G36*
X480710Y476950D02*
X479516D01*
X478414Y476493D01*
X477570Y475649D01*
X477113Y474546D01*
Y473353D01*
X477570Y472250D01*
X478414Y471406D01*
X479516Y470950D01*
X480710D01*
X481812Y471406D01*
X482656Y472250D01*
X483113Y473353D01*
Y474546D01*
X482656Y475649D01*
X481812Y476493D01*
X480710Y476950D01*
D02*
G37*
G36*
X492435Y476710D02*
X491241D01*
X490139Y476253D01*
X489295Y475409D01*
X488838Y474307D01*
Y473113D01*
X489295Y472011D01*
X490139Y471167D01*
X491241Y470710D01*
X492435D01*
X493538Y471167D01*
X494381Y472011D01*
X494838Y473113D01*
Y474307D01*
X494381Y475409D01*
X493538Y476253D01*
X492435Y476710D01*
D02*
G37*
G36*
X448597Y474170D02*
X447403D01*
X446301Y473713D01*
X445457Y472869D01*
X445000Y471767D01*
Y470573D01*
X445457Y469471D01*
X446301Y468627D01*
X447403Y468170D01*
X448597D01*
X449699Y468627D01*
X450543Y469471D01*
X451000Y470573D01*
Y471767D01*
X450543Y472869D01*
X449699Y473713D01*
X448597Y474170D01*
D02*
G37*
G36*
X411657D02*
X410463D01*
X409361Y473713D01*
X408517Y472869D01*
X408060Y471767D01*
Y470573D01*
X408517Y469471D01*
X409361Y468627D01*
X410463Y468170D01*
X411657D01*
X412759Y468627D01*
X413603Y469471D01*
X414060Y470573D01*
Y471767D01*
X413603Y472869D01*
X412759Y473713D01*
X411657Y474170D01*
D02*
G37*
G36*
X428813Y472786D02*
X427620D01*
X426517Y472330D01*
X425673Y471486D01*
X425216Y470383D01*
Y469190D01*
X425673Y468087D01*
X426517Y467243D01*
X427620Y466786D01*
X428813D01*
X429916Y467243D01*
X430760Y468087D01*
X431216Y469190D01*
Y470383D01*
X430760Y471486D01*
X429916Y472330D01*
X428813Y472786D01*
D02*
G37*
G36*
X540206Y472298D02*
X539013D01*
X537910Y471841D01*
X537066Y470998D01*
X536610Y469895D01*
Y468701D01*
X537066Y467599D01*
X537910Y466755D01*
X539013Y466298D01*
X540206D01*
X541309Y466755D01*
X542153Y467599D01*
X542610Y468701D01*
Y469895D01*
X542153Y470998D01*
X541309Y471841D01*
X540206Y472298D01*
D02*
G37*
G36*
X470316Y470700D02*
X469123D01*
X468020Y470243D01*
X467176Y469399D01*
X466719Y468297D01*
Y467103D01*
X467176Y466001D01*
X468020Y465157D01*
X469123Y464700D01*
X470316D01*
X471419Y465157D01*
X472263Y466001D01*
X472719Y467103D01*
Y468297D01*
X472263Y469399D01*
X471419Y470243D01*
X470316Y470700D01*
D02*
G37*
G36*
X506537Y469905D02*
X505344D01*
X504241Y469448D01*
X503397Y468604D01*
X502940Y467501D01*
Y466308D01*
X503397Y465205D01*
X504241Y464361D01*
X505344Y463904D01*
X506537D01*
X507640Y464361D01*
X508484Y465205D01*
X508940Y466308D01*
Y467501D01*
X508484Y468604D01*
X507640Y469448D01*
X506537Y469905D01*
D02*
G37*
G36*
X399067Y467820D02*
X397873D01*
X396771Y467363D01*
X395927Y466519D01*
X395470Y465417D01*
Y464223D01*
X395927Y463121D01*
X396771Y462277D01*
X397873Y461820D01*
X399067D01*
X400169Y462277D01*
X401013Y463121D01*
X401470Y464223D01*
Y465417D01*
X401013Y466519D01*
X400169Y467363D01*
X399067Y467820D01*
D02*
G37*
G36*
X405897Y465310D02*
X404704D01*
X403601Y464853D01*
X402757Y464009D01*
X402300Y462906D01*
Y461713D01*
X402757Y460610D01*
X403601Y459766D01*
X404704Y459310D01*
X405897D01*
X407000Y459766D01*
X407844Y460610D01*
X408301Y461713D01*
Y462906D01*
X407844Y464009D01*
X407000Y464853D01*
X405897Y465310D01*
D02*
G37*
G36*
X529410Y470772D02*
X528216D01*
X527114Y470315D01*
X526270Y469471D01*
X525813Y468368D01*
Y467175D01*
X526270Y466072D01*
X527038Y465304D01*
X527116Y465046D01*
X527127Y464141D01*
X526484Y463498D01*
X526027Y462395D01*
Y461202D01*
X526484Y460099D01*
X527328Y459255D01*
X528430Y458798D01*
X529624D01*
X530727Y459255D01*
X531570Y460099D01*
X532027Y461202D01*
Y462395D01*
X531570Y463498D01*
X530802Y464266D01*
X530724Y464524D01*
X530714Y465429D01*
X531356Y466072D01*
X531813Y467175D01*
Y468368D01*
X531356Y469471D01*
X530513Y470315D01*
X529410Y470772D01*
D02*
G37*
G36*
X430986Y460571D02*
X429793D01*
X428690Y460114D01*
X427846Y459270D01*
X427390Y458167D01*
Y458034D01*
X426390Y457620D01*
X426203Y457806D01*
X425101Y458262D01*
X423907D01*
X422804Y457806D01*
X422031Y457032D01*
X421574Y456981D01*
X420899Y457013D01*
X420154Y457759D01*
X419051Y458216D01*
X417857D01*
X416755Y457759D01*
X415911Y456915D01*
X415454Y455812D01*
Y454619D01*
X415911Y453516D01*
X416755Y452672D01*
X417857Y452216D01*
X419051D01*
X420154Y452672D01*
X420927Y453446D01*
X421384Y453498D01*
X422059Y453465D01*
X422804Y452719D01*
X423907Y452262D01*
X425101D01*
X426203Y452719D01*
X427047Y453563D01*
X427504Y454666D01*
Y454799D01*
X428504Y455214D01*
X428690Y455027D01*
X429793Y454571D01*
X430986D01*
X432089Y455027D01*
X432933Y455871D01*
X433390Y456974D01*
Y458167D01*
X432933Y459270D01*
X432089Y460114D01*
X430986Y460571D01*
D02*
G37*
G36*
X536732Y462219D02*
X535539D01*
X534436Y461762D01*
X533592Y460918D01*
X533136Y459815D01*
Y458622D01*
X533592Y457519D01*
X534436Y456675D01*
X535539Y456219D01*
X536732D01*
X537835Y456675D01*
X538679Y457519D01*
X539136Y458622D01*
Y459815D01*
X538679Y460918D01*
X537835Y461762D01*
X536732Y462219D01*
D02*
G37*
G36*
X506386Y458981D02*
X505193D01*
X504090Y458525D01*
X503246Y457681D01*
X502789Y456578D01*
Y455385D01*
X503246Y454282D01*
X504090Y453438D01*
X505193Y452981D01*
X506386D01*
X507489Y453438D01*
X508333Y454282D01*
X508789Y455385D01*
Y456578D01*
X508333Y457681D01*
X507489Y458525D01*
X506386Y458981D01*
D02*
G37*
G36*
X487147Y458798D02*
X485954D01*
X484851Y458341D01*
X484007Y457498D01*
X483550Y456395D01*
Y455201D01*
X484007Y454099D01*
X484851Y453255D01*
X485954Y452798D01*
X487147D01*
X488250Y453255D01*
X489094Y454099D01*
X489551Y455201D01*
Y456395D01*
X489094Y457498D01*
X488250Y458341D01*
X487147Y458798D01*
D02*
G37*
G36*
X467715Y458510D02*
X466521D01*
X465419Y458054D01*
X464575Y457210D01*
X464118Y456107D01*
Y454914D01*
X464575Y453811D01*
X465419Y452967D01*
X466521Y452510D01*
X467715D01*
X468818Y452967D01*
X469661Y453811D01*
X470118Y454914D01*
Y456107D01*
X469661Y457210D01*
X468818Y458054D01*
X467715Y458510D01*
D02*
G37*
G36*
X496477Y464809D02*
X495283D01*
X494180Y464353D01*
X493336Y463509D01*
X492880Y462406D01*
Y461213D01*
X493336Y460110D01*
X494180Y459266D01*
X494513Y459128D01*
Y458046D01*
X494351Y457979D01*
X493507Y457135D01*
X493050Y456032D01*
Y454839D01*
X493507Y453736D01*
X494351Y452892D01*
X495454Y452436D01*
X496647D01*
X497750Y452892D01*
X498594Y453736D01*
X499050Y454839D01*
Y456032D01*
X498594Y457135D01*
X497750Y457979D01*
X497417Y458117D01*
Y459199D01*
X497579Y459266D01*
X498423Y460110D01*
X498880Y461213D01*
Y462406D01*
X498423Y463509D01*
X497579Y464353D01*
X496477Y464809D01*
D02*
G37*
G36*
X438397Y451661D02*
X437204D01*
X436101Y451204D01*
X435257Y450360D01*
X435092Y449960D01*
X434009D01*
X433844Y450360D01*
X433000Y451204D01*
X431897Y451661D01*
X430704D01*
X429601Y451204D01*
X428757Y450360D01*
X428301Y449257D01*
Y448064D01*
X428757Y446961D01*
X429601Y446117D01*
X429835Y446021D01*
Y444938D01*
X429601Y444841D01*
X428757Y443998D01*
X427683D01*
X426839Y444841D01*
X425737Y445298D01*
X424543D01*
X423441Y444841D01*
X422597Y443998D01*
X422140Y442895D01*
Y441702D01*
X422597Y440599D01*
X423330Y439865D01*
X423343Y439234D01*
X423253Y438750D01*
X422856Y438586D01*
X422012Y437742D01*
X420942Y437771D01*
X420844Y438009D01*
X420132Y438720D01*
X420003Y438968D01*
X420029Y439923D01*
X420528Y440423D01*
X420985Y441526D01*
Y442719D01*
X420528Y443822D01*
X419684Y444666D01*
X418582Y445122D01*
X417388D01*
X416286Y444666D01*
X415442Y443822D01*
X414985Y442719D01*
Y441526D01*
X415442Y440423D01*
X416153Y439712D01*
X416283Y439464D01*
X416257Y438509D01*
X415757Y438009D01*
X415300Y436906D01*
Y435713D01*
X415757Y434610D01*
X416601Y433766D01*
X417704Y433310D01*
X418897D01*
X420000Y433766D01*
X420844Y434610D01*
X421914Y434581D01*
X422012Y434344D01*
X422856Y433500D01*
X422973Y433451D01*
X423029Y433347D01*
X423132Y432303D01*
X422586Y431757D01*
X422129Y430654D01*
Y429461D01*
X422586Y428358D01*
X423429Y427514D01*
X424532Y427057D01*
X425726D01*
X426828Y427514D01*
X427672Y428358D01*
X428129Y429461D01*
Y430654D01*
X427672Y431757D01*
X426828Y432601D01*
X426711Y432649D01*
X426655Y432753D01*
X426553Y433797D01*
X427099Y434344D01*
X427556Y435446D01*
Y436640D01*
X427099Y437742D01*
X426365Y438476D01*
X426353Y439107D01*
X426443Y439591D01*
X426839Y439755D01*
X427683Y440599D01*
X428757D01*
X429601Y439755D01*
X430704Y439298D01*
X431897D01*
X433000Y439755D01*
X433844Y440599D01*
X434300Y441702D01*
Y442895D01*
X433844Y443998D01*
X433000Y444841D01*
X432766Y444938D01*
Y446021D01*
X433000Y446117D01*
X433844Y446961D01*
X434009Y447361D01*
X435092D01*
X435257Y446961D01*
X436101Y446117D01*
X437204Y445661D01*
X438397D01*
X439500Y446117D01*
X440344Y446961D01*
X440801Y448064D01*
Y449257D01*
X440344Y450360D01*
X439500Y451204D01*
X438397Y451661D01*
D02*
G37*
G36*
X481397Y452798D02*
X480204D01*
X479101Y452341D01*
X478257Y451498D01*
X477800Y450395D01*
Y449202D01*
X478257Y448099D01*
X479101Y447255D01*
X480204Y446798D01*
X481397D01*
X482500Y447255D01*
X483344Y448099D01*
X483801Y449202D01*
Y450395D01*
X483344Y451498D01*
X482500Y452341D01*
X481397Y452798D01*
D02*
G37*
G36*
X522897Y452310D02*
X521704D01*
X520601Y451853D01*
X519757Y451009D01*
X519300Y449906D01*
Y448713D01*
X519757Y447610D01*
X520601Y446766D01*
X521704Y446310D01*
X522897D01*
X524000Y446766D01*
X524844Y447610D01*
X525300Y448713D01*
Y449906D01*
X524844Y451009D01*
X524000Y451853D01*
X522897Y452310D01*
D02*
G37*
G36*
X413082Y451660D02*
X411889D01*
X410786Y451203D01*
X409942Y450359D01*
X409486Y449256D01*
Y448063D01*
X409942Y446960D01*
X410786Y446116D01*
X411889Y445659D01*
X413082D01*
X414185Y446116D01*
X415029Y446960D01*
X415485Y448063D01*
Y449256D01*
X415029Y450359D01*
X414185Y451203D01*
X413082Y451660D01*
D02*
G37*
G36*
X449172Y459479D02*
X447979D01*
X446876Y459022D01*
X446032Y458178D01*
X445576Y457076D01*
Y455882D01*
X446032Y454780D01*
X446876Y453936D01*
X447979Y453479D01*
X449172D01*
X449737Y453713D01*
X450712Y453237D01*
X450772Y453142D01*
X451123Y452295D01*
X450788Y451723D01*
X450484Y451423D01*
X449420D01*
X448317Y450967D01*
X447473Y450123D01*
X447016Y449020D01*
Y447827D01*
X447473Y446724D01*
X448317Y445880D01*
X449420Y445424D01*
X450613D01*
X451716Y445880D01*
X452560Y446724D01*
X453016Y447827D01*
Y449020D01*
X452631Y449950D01*
X452965Y450522D01*
X453270Y450822D01*
X454334D01*
X455437Y451278D01*
X456281Y452122D01*
X456737Y453225D01*
Y454418D01*
X456281Y455521D01*
X455437Y456365D01*
X454334Y456822D01*
X453141D01*
X452576Y456588D01*
X451601Y457063D01*
X451541Y457159D01*
X451119Y458178D01*
X450275Y459022D01*
X449172Y459479D01*
D02*
G37*
G36*
X411852Y442495D02*
X410659D01*
X409556Y442038D01*
X409031Y441514D01*
X408397Y441301D01*
X407762Y441514D01*
X407237Y442038D01*
X406135Y442495D01*
X404941D01*
X403839Y442038D01*
X402995Y441194D01*
X402538Y440092D01*
Y438898D01*
X402995Y437796D01*
X403839Y436952D01*
X404941Y436495D01*
X406135D01*
X407237Y436952D01*
X407762Y437476D01*
X408397Y437690D01*
X409031Y437476D01*
X409556Y436952D01*
X410659Y436495D01*
X411852D01*
X412955Y436952D01*
X413799Y437796D01*
X414255Y438898D01*
Y440092D01*
X413799Y441194D01*
X412955Y442038D01*
X411852Y442495D01*
D02*
G37*
G36*
X515897Y451798D02*
X514704D01*
X513601Y451342D01*
X512757Y450498D01*
X512300Y449395D01*
Y448201D01*
X512757Y447099D01*
X513601Y446255D01*
X514681Y445808D01*
X514716Y445716D01*
X514857Y444798D01*
X514329Y444579D01*
X513485Y443735D01*
X513028Y442633D01*
Y441439D01*
X513485Y440337D01*
X514329Y439493D01*
X514634Y439366D01*
Y438284D01*
X514470Y438215D01*
X513626Y437372D01*
X513169Y436269D01*
Y435075D01*
X513626Y433973D01*
X514470Y433129D01*
X514789Y432997D01*
Y431914D01*
X514613Y431842D01*
X513769Y430998D01*
X513312Y429895D01*
Y428702D01*
X513769Y427599D01*
X514613Y426755D01*
X514750Y426698D01*
Y425615D01*
X514098Y425345D01*
X513254Y424501D01*
X513023Y423945D01*
X511941D01*
X511774Y424347D01*
X510931Y425191D01*
X510044Y425559D01*
X509914Y426349D01*
X509944Y426600D01*
X510319Y426755D01*
X511163Y427599D01*
X511620Y428702D01*
Y429895D01*
X511163Y430998D01*
X510319Y431842D01*
X509217Y432298D01*
X508023D01*
X506921Y431842D01*
X506077Y430998D01*
X505095Y431241D01*
X504120Y431644D01*
X502927D01*
X501824Y431188D01*
X500980Y430344D01*
X500524Y429241D01*
Y428048D01*
X500980Y426945D01*
X501482Y426444D01*
X501341Y425326D01*
X501323Y425296D01*
X501101Y425204D01*
X500257Y424360D01*
X500143Y424084D01*
X499061D01*
X498916Y424434D01*
X498072Y425278D01*
X496969Y425734D01*
X495776D01*
X494673Y425278D01*
X493829Y424434D01*
X493740Y424218D01*
X492658D01*
X492580Y424406D01*
X491736Y425250D01*
X490984Y425561D01*
X490953Y426631D01*
X491503Y426858D01*
X492347Y427702D01*
X492804Y428805D01*
Y429998D01*
X492347Y431101D01*
X491503Y431945D01*
X491227Y432059D01*
Y433142D01*
X491500Y433255D01*
X492344Y434099D01*
X492800Y435201D01*
Y436395D01*
X492344Y437498D01*
X491500Y438341D01*
X490637Y438699D01*
X490514Y439582D01*
X490538Y439740D01*
X491112Y439978D01*
X491956Y440822D01*
X492020Y440978D01*
X493103D01*
X493256Y440608D01*
X494100Y439764D01*
X495203Y439307D01*
X496396D01*
X497499Y439764D01*
X498343Y440608D01*
X498800Y441710D01*
Y442904D01*
X498343Y444006D01*
X497499Y444850D01*
X496396Y445307D01*
X495203D01*
X494100Y444850D01*
X493256Y444006D01*
X493191Y443850D01*
X492109D01*
X491956Y444220D01*
X491112Y445064D01*
X490009Y445521D01*
X488815D01*
X487713Y445064D01*
X486869Y444220D01*
X486412Y443118D01*
Y441924D01*
X486869Y440822D01*
X487713Y439978D01*
X488576Y439620D01*
X488699Y438737D01*
X488675Y438579D01*
X488101Y438341D01*
X487257Y437498D01*
X486800Y436395D01*
Y435201D01*
X487257Y434099D01*
X488101Y433255D01*
X488378Y433140D01*
Y432058D01*
X488104Y431945D01*
X487260Y431101D01*
X487011Y430498D01*
X485880Y430279D01*
X485414Y430744D01*
X484312Y431201D01*
X483118D01*
X482016Y430744D01*
X481172Y429900D01*
X480715Y428798D01*
Y427604D01*
X481172Y426502D01*
X482016Y425658D01*
X482647Y425396D01*
Y424314D01*
X482335Y424184D01*
X481491Y423341D01*
X481034Y422238D01*
Y421045D01*
X481491Y419942D01*
X482335Y419098D01*
X483437Y418641D01*
X484631D01*
X485733Y419098D01*
X486577Y419942D01*
X486756Y420373D01*
X487779Y420552D01*
X488568Y419906D01*
X488509Y418954D01*
X488239Y418842D01*
X487395Y417998D01*
X486938Y416895D01*
Y415701D01*
X487395Y414599D01*
X488239Y413755D01*
X489116Y413391D01*
X488918Y412391D01*
X485282D01*
X485282Y412391D01*
X484502Y412236D01*
X483840Y411794D01*
X483840Y411794D01*
X480894Y408848D01*
X480046Y409414D01*
X480055Y409436D01*
Y410630D01*
X479599Y411732D01*
X478755Y412576D01*
X477652Y413033D01*
X476459D01*
X475356Y412576D01*
X474512Y411732D01*
X474196Y410969D01*
X473131Y410925D01*
X472919Y411437D01*
X472075Y412281D01*
X470973Y412738D01*
X469779D01*
X468677Y412281D01*
X467833Y411437D01*
X467692Y411096D01*
X466609D01*
X466483Y411400D01*
X465639Y412244D01*
X464537Y412701D01*
X463343D01*
X462241Y412244D01*
X461397Y411400D01*
X460940Y410297D01*
Y409104D01*
X461397Y408001D01*
X462241Y407157D01*
X463343Y406701D01*
X463353D01*
X463619Y406062D01*
X463659Y405701D01*
X462893Y404935D01*
X462436Y403832D01*
Y402639D01*
X462893Y401536D01*
X463737Y400692D01*
X464840Y400235D01*
X466033D01*
X467136Y400692D01*
X467980Y401536D01*
X468022Y401544D01*
X468222Y401345D01*
X469324Y400888D01*
X470518D01*
X471620Y401345D01*
X472464Y402189D01*
X472921Y403291D01*
Y404485D01*
X472464Y405587D01*
X471979Y406072D01*
X472073Y407163D01*
X472119Y407239D01*
X472919Y408038D01*
X473236Y408802D01*
X474300Y408846D01*
X474512Y408334D01*
X475356Y407490D01*
X476459Y407033D01*
X477652D01*
X477674Y407042D01*
X478240Y406194D01*
X476904Y404858D01*
X476462Y404197D01*
X476307Y403416D01*
Y399245D01*
X473730Y396668D01*
X472550Y396903D01*
X472380Y397314D01*
X471536Y398158D01*
X470433Y398614D01*
X469240D01*
X468137Y398158D01*
X467293Y397314D01*
X466837Y396211D01*
Y395018D01*
X467293Y393915D01*
X468137Y393071D01*
X468647Y392860D01*
X469214Y392054D01*
X469194Y391633D01*
X469109Y391202D01*
Y379004D01*
X467788Y377684D01*
X466764Y378074D01*
X466408Y378934D01*
X465564Y379777D01*
X465142Y379952D01*
Y381035D01*
X465521Y381191D01*
X466365Y382035D01*
X466822Y383138D01*
Y384331D01*
X466365Y385434D01*
X465521Y386278D01*
X465034Y386480D01*
Y387562D01*
X465500Y387755D01*
X466344Y388599D01*
X466800Y389701D01*
Y390895D01*
X466344Y391998D01*
X465500Y392841D01*
X464397Y393298D01*
X463204D01*
X462101Y392841D01*
X461257Y391998D01*
X460800Y390895D01*
Y389701D01*
X461257Y388599D01*
X462101Y387755D01*
X462588Y387553D01*
Y386471D01*
X462122Y386278D01*
X461278Y385434D01*
X460822Y384331D01*
Y383138D01*
X461278Y382035D01*
X462122Y381191D01*
X462544Y381017D01*
Y379934D01*
X462165Y379777D01*
X461321Y378934D01*
X460864Y377831D01*
Y376637D01*
X461074Y376131D01*
X460418Y375131D01*
X454837D01*
X454436Y376131D01*
X454826Y377072D01*
Y378266D01*
X454369Y379369D01*
X453525Y380213D01*
X452422Y380669D01*
X451229D01*
X450126Y380213D01*
X449282Y379369D01*
X448825Y378266D01*
Y377886D01*
X448469Y377608D01*
X447826Y377272D01*
X447214Y377393D01*
X442780D01*
X442780Y377393D01*
X442000Y377238D01*
X441739Y377064D01*
X440801Y377640D01*
Y378406D01*
X440344Y379509D01*
X439500Y380353D01*
X438397Y380810D01*
X437204D01*
X436101Y380353D01*
X435257Y379509D01*
X434986Y378854D01*
X433903D01*
X433844Y378998D01*
X433736Y379105D01*
X433513Y380095D01*
X433783Y380365D01*
X434357Y380939D01*
X434814Y382042D01*
Y383235D01*
X434357Y384338D01*
X433513Y385182D01*
X432410Y385639D01*
X431217D01*
X430503Y386345D01*
Y387538D01*
X430046Y388641D01*
X429492Y389195D01*
X429366Y389940D01*
X429541Y390427D01*
X430165Y391051D01*
X430622Y392153D01*
Y393347D01*
X430165Y394449D01*
X429321Y395293D01*
X428218Y395750D01*
X427025D01*
X425922Y395293D01*
X425078Y394449D01*
X424622Y393347D01*
Y392153D01*
X425078Y391051D01*
X425633Y390496D01*
X425758Y389751D01*
X425583Y389265D01*
X424959Y388641D01*
X424503Y387538D01*
Y386345D01*
X424959Y385242D01*
X425803Y384398D01*
X426906Y383941D01*
X428100D01*
X428814Y383235D01*
Y382042D01*
X429270Y380939D01*
X429378Y380831D01*
X429601Y379841D01*
X429331Y379572D01*
X428757Y378998D01*
X428592Y378598D01*
X427509D01*
X427344Y378998D01*
X426500Y379841D01*
X425397Y380298D01*
X424204D01*
X423101Y379841D01*
X422257Y378998D01*
X421986Y378342D01*
X420903D01*
X420844Y378486D01*
X420000Y379330D01*
X418897Y379787D01*
X417704D01*
X416601Y379330D01*
X415757Y378486D01*
X415300Y377384D01*
Y376190D01*
X415757Y375088D01*
X416601Y374244D01*
X417704Y373787D01*
X418897D01*
X420000Y374244D01*
X420844Y375088D01*
X421115Y375743D01*
X422198D01*
X422257Y375599D01*
X423101Y374755D01*
X423501Y374589D01*
Y373507D01*
X423101Y373341D01*
X422257Y372498D01*
X421800Y371395D01*
Y370201D01*
X422257Y369099D01*
X423101Y368255D01*
X423501Y368089D01*
Y367007D01*
X423101Y366842D01*
X422257Y365998D01*
X421800Y364895D01*
Y363702D01*
X422257Y362599D01*
X423101Y361755D01*
X424204Y361298D01*
X425397D01*
X426500Y361755D01*
X427344Y362599D01*
X427509Y362999D01*
X428592D01*
X428757Y362599D01*
X429601Y361755D01*
X430704Y361298D01*
X431897D01*
X433000Y361755D01*
X433844Y362599D01*
X434009Y362999D01*
X435092D01*
X435257Y362599D01*
X436101Y361755D01*
X437204Y361298D01*
X438397D01*
X439500Y361755D01*
X440344Y362599D01*
X440649Y363335D01*
X441724Y363352D01*
X441957Y362791D01*
X442801Y361947D01*
X443185Y361788D01*
Y360705D01*
X442601Y360464D01*
X441757Y359620D01*
X441301Y358517D01*
Y357324D01*
X441757Y356221D01*
X442601Y355377D01*
X443704Y354920D01*
X444897D01*
X446000Y355377D01*
X446844Y356221D01*
X447300Y357324D01*
Y358517D01*
X446844Y359620D01*
X446000Y360464D01*
X445616Y360623D01*
Y361705D01*
X446199Y361947D01*
X447043Y362791D01*
X447500Y363893D01*
Y365087D01*
X447043Y366189D01*
X446199Y367033D01*
X446191Y367037D01*
X446081Y367300D01*
X446032Y368185D01*
X446650Y368802D01*
X447107Y369905D01*
Y371099D01*
X447060Y371210D01*
X447908Y371776D01*
X448034Y371650D01*
X448696Y371208D01*
X449476Y371053D01*
X463945D01*
X464402Y370053D01*
X464050Y369206D01*
Y368012D01*
X464507Y366909D01*
X465351Y366066D01*
X466454Y365609D01*
X467647D01*
X468750Y366066D01*
X469594Y366909D01*
X470051Y368012D01*
Y369206D01*
X469594Y370308D01*
X468750Y371152D01*
X468530Y371243D01*
X468295Y372423D01*
X472590Y376717D01*
X472590Y376717D01*
X472862Y377125D01*
X473862Y376822D01*
Y376455D01*
X474319Y375353D01*
X475163Y374509D01*
X476265Y374052D01*
X477459D01*
X478561Y374509D01*
X479405Y375353D01*
X479862Y376455D01*
Y377649D01*
X479405Y378751D01*
X478561Y379595D01*
X477834Y379897D01*
X477826Y380976D01*
X478500Y381255D01*
X479344Y382099D01*
X479509Y382499D01*
X480592D01*
X480757Y382099D01*
X481601Y381255D01*
X482057Y381066D01*
X482124Y380408D01*
X482101Y379966D01*
X481319Y379184D01*
X480862Y378081D01*
Y376888D01*
X481319Y375785D01*
X482163Y374941D01*
X482606Y374757D01*
X482638Y374436D01*
X482506Y373716D01*
X481601Y373341D01*
X480757Y372498D01*
X480300Y371395D01*
Y370201D01*
X480757Y369099D01*
X481601Y368255D01*
X481865Y368146D01*
X481877Y368126D01*
X482023Y366998D01*
X481529Y366504D01*
X481072Y365401D01*
Y364208D01*
X481529Y363105D01*
X482373Y362261D01*
X483475Y361804D01*
X484669D01*
X485772Y362261D01*
X486615Y363105D01*
X487072Y364208D01*
Y365401D01*
X486615Y366504D01*
X485772Y367348D01*
X485508Y367457D01*
X485496Y367477D01*
X485350Y368605D01*
X485844Y369099D01*
X486009Y369498D01*
X487092D01*
X487257Y369099D01*
X488101Y368255D01*
X489204Y367798D01*
X490397D01*
X491500Y368255D01*
X492344Y369099D01*
X492800Y370201D01*
Y371395D01*
X492344Y372498D01*
X491500Y373341D01*
X491100Y373507D01*
Y374590D01*
X491500Y374755D01*
X492344Y375599D01*
X492509Y375998D01*
X493592D01*
X493757Y375599D01*
X494601Y374755D01*
X495704Y374298D01*
X496897D01*
X498000Y374755D01*
X498844Y375599D01*
X498882Y375692D01*
X499965D01*
X500030Y375535D01*
X500874Y374691D01*
X501319Y374507D01*
Y373424D01*
X501221Y373383D01*
X500377Y372539D01*
X499920Y371437D01*
Y370243D01*
X500377Y369141D01*
X501221Y368297D01*
X502323Y367840D01*
X503517D01*
X504619Y368297D01*
X504985Y368662D01*
X506164Y368428D01*
X506223Y368285D01*
X507067Y367441D01*
X508170Y366984D01*
X509364D01*
X510466Y367441D01*
X511310Y368285D01*
X511767Y369388D01*
Y370581D01*
X511310Y371684D01*
X510466Y372528D01*
X509364Y372984D01*
X508170D01*
X507067Y372528D01*
X506702Y372162D01*
X505522Y372397D01*
X505463Y372539D01*
X504619Y373383D01*
X504174Y373568D01*
Y374650D01*
X504273Y374691D01*
X505117Y375535D01*
X505334Y376060D01*
X506417D01*
X506530Y375785D01*
X507374Y374941D01*
X508477Y374484D01*
X509670D01*
X510773Y374941D01*
X511617Y375785D01*
X512074Y376888D01*
Y378081D01*
X511617Y379184D01*
X510773Y380028D01*
X509670Y380484D01*
X508477D01*
X507374Y380028D01*
X506530Y379184D01*
X506313Y378659D01*
X505231D01*
X505117Y378934D01*
X504273Y379777D01*
X503170Y380234D01*
X501977D01*
X500874Y379777D01*
X500030Y378934D01*
X499991Y378840D01*
X498909D01*
X498844Y378998D01*
X498000Y379841D01*
X497692Y379969D01*
Y381051D01*
X498102Y381221D01*
X498946Y382065D01*
X499403Y383168D01*
Y384361D01*
X498946Y385464D01*
X498102Y386308D01*
X497000Y386764D01*
X495806D01*
X494704Y386308D01*
X493860Y385464D01*
X493403Y384361D01*
Y383168D01*
X493860Y382065D01*
X494704Y381221D01*
X495011Y381094D01*
Y380011D01*
X494601Y379841D01*
X493757Y378998D01*
X493592Y378598D01*
X492509D01*
X492344Y378998D01*
X491500Y379841D01*
X490397Y380298D01*
X489204D01*
X488101Y379841D01*
X487475Y379215D01*
X486629Y379190D01*
X486297Y379292D01*
X485561Y380028D01*
X485106Y380216D01*
X485038Y380875D01*
X485062Y381317D01*
X485844Y382099D01*
X486300Y383201D01*
Y384395D01*
X485844Y385498D01*
X485000Y386342D01*
X484600Y386507D01*
Y387589D01*
X485000Y387755D01*
X485844Y388599D01*
X486300Y389701D01*
Y390895D01*
X485844Y391998D01*
X485000Y392841D01*
X484600Y393007D01*
Y394089D01*
X485000Y394255D01*
X485844Y395099D01*
X486300Y396201D01*
Y397395D01*
X485844Y398498D01*
X485000Y399342D01*
X483897Y399798D01*
X482704D01*
X481601Y399342D01*
X481385Y399126D01*
X480386Y399540D01*
Y402572D01*
X486127Y408313D01*
X496951D01*
X497732Y408468D01*
X498393Y408910D01*
X500784Y411301D01*
X500784Y411301D01*
X501188Y411905D01*
X501554Y412272D01*
X501653Y412310D01*
X501941Y412584D01*
X502041Y412670D01*
X502251Y412832D01*
X502312Y412873D01*
X502364Y412903D01*
X502392Y412917D01*
X502428Y412926D01*
X502440Y412935D01*
X502448Y412938D01*
X502464Y412952D01*
X502517Y412992D01*
X503499Y413399D01*
X504343Y414243D01*
X504800Y415345D01*
Y416539D01*
X504343Y417641D01*
X503499Y418485D01*
X503076Y418661D01*
X503275Y419661D01*
X503397D01*
X504500Y420117D01*
X505344Y420961D01*
X505472Y421271D01*
X506554D01*
X506688Y420949D01*
X507532Y420105D01*
X508634Y419648D01*
X509828D01*
X510931Y420105D01*
X511774Y420949D01*
X512005Y421504D01*
X513087D01*
X513254Y421102D01*
X514098Y420258D01*
X515200Y419802D01*
X516394D01*
X517496Y420258D01*
X518340Y421102D01*
X518797Y422205D01*
Y423399D01*
X518340Y424501D01*
X517496Y425345D01*
X517358Y425402D01*
Y426484D01*
X518011Y426755D01*
X518855Y427599D01*
X519312Y428702D01*
Y429895D01*
X518855Y430998D01*
X518011Y431842D01*
X517692Y431974D01*
Y433056D01*
X517868Y433129D01*
X518712Y433973D01*
X519169Y435075D01*
Y436269D01*
X518712Y437372D01*
X517868Y438215D01*
X517563Y438342D01*
Y439425D01*
X517727Y439493D01*
X518571Y440337D01*
X519028Y441439D01*
Y442633D01*
X518571Y443735D01*
X517727Y444579D01*
X516647Y445027D01*
X516612Y445118D01*
X516471Y446036D01*
X517000Y446255D01*
X517844Y447099D01*
X518301Y448201D01*
Y449395D01*
X517844Y450498D01*
X517000Y451342D01*
X515897Y451798D01*
D02*
G37*
G36*
X397180Y445180D02*
X395987D01*
X394884Y444723D01*
X394040Y443879D01*
X393584Y442777D01*
Y441583D01*
X394040Y440480D01*
X394884Y439637D01*
X395987Y439180D01*
X397180D01*
X398283Y439637D01*
X399127Y440480D01*
X399584Y441583D01*
Y442777D01*
X399127Y443879D01*
X398283Y444723D01*
X397180Y445180D01*
D02*
G37*
G36*
X503273Y451525D02*
X502079D01*
X500977Y451068D01*
X500133Y450225D01*
X499676Y449122D01*
Y447929D01*
X500133Y446826D01*
X500977Y445982D01*
X501577Y445733D01*
Y444651D01*
X501221Y444503D01*
X500377Y443659D01*
X499920Y442557D01*
Y441363D01*
X500377Y440261D01*
X501221Y439417D01*
X502323Y438960D01*
X503517D01*
X504619Y439417D01*
X505218Y440015D01*
X505629Y440230D01*
X506468Y440073D01*
X506921Y439620D01*
X508023Y439163D01*
X509217D01*
X510319Y439620D01*
X511163Y440464D01*
X511620Y441566D01*
Y442760D01*
X511163Y443862D01*
X510319Y444706D01*
X510026Y444828D01*
X510000Y445899D01*
X510844Y446743D01*
X511301Y447846D01*
Y449039D01*
X510844Y450142D01*
X510000Y450986D01*
X508897Y451443D01*
X507704D01*
X506601Y450986D01*
X506166Y450551D01*
X505433Y450299D01*
X504876Y450568D01*
X504375Y451068D01*
X503273Y451525D01*
D02*
G37*
G36*
X444897Y445298D02*
X443704D01*
X442601Y444841D01*
X441757Y443998D01*
X441301Y442895D01*
Y441702D01*
X441757Y440599D01*
X442601Y439755D01*
X443145Y439529D01*
Y438447D01*
X442720Y438271D01*
X441876Y437427D01*
X441666Y436919D01*
X440583D01*
X440344Y437498D01*
X439500Y438341D01*
X438397Y438798D01*
X437204D01*
X436101Y438341D01*
X435257Y437498D01*
X434800Y436395D01*
Y435201D01*
X435257Y434099D01*
X436101Y433255D01*
X437204Y432798D01*
X438397D01*
X439500Y433255D01*
X440344Y434099D01*
X440554Y434606D01*
X441636D01*
X441876Y434028D01*
X442720Y433184D01*
X443822Y432728D01*
X445016D01*
X446118Y433184D01*
X446962Y434028D01*
X447419Y435131D01*
Y436324D01*
X446962Y437427D01*
X446118Y438271D01*
X445574Y438496D01*
Y439579D01*
X446000Y439755D01*
X446844Y440599D01*
X447300Y441702D01*
Y442895D01*
X446844Y443998D01*
X446000Y444841D01*
X444897Y445298D01*
D02*
G37*
G36*
X537653Y442189D02*
X536459D01*
X535356Y441733D01*
X534512Y440889D01*
X534056Y439786D01*
Y438593D01*
X534512Y437490D01*
X535356Y436646D01*
X536459Y436189D01*
X537653D01*
X538755Y436646D01*
X539599Y437490D01*
X540056Y438593D01*
Y439786D01*
X539599Y440889D01*
X538755Y441733D01*
X537653Y442189D01*
D02*
G37*
G36*
X524497Y442172D02*
X523304D01*
X522201Y441716D01*
X521357Y440872D01*
X520901Y439769D01*
Y438576D01*
X521357Y437473D01*
X522201Y436629D01*
X523304Y436172D01*
X524497D01*
X525600Y436629D01*
X526444Y437473D01*
X526901Y438576D01*
Y439769D01*
X526444Y440872D01*
X525600Y441716D01*
X524497Y442172D01*
D02*
G37*
G36*
X391473Y440960D02*
X390279D01*
X389177Y440503D01*
X388333Y439659D01*
X387876Y438557D01*
Y437363D01*
X388333Y436260D01*
X389177Y435417D01*
X390279Y434960D01*
X391473D01*
X392575Y435417D01*
X393419Y436260D01*
X393876Y437363D01*
Y438557D01*
X393419Y439659D01*
X392575Y440503D01*
X391473Y440960D01*
D02*
G37*
G36*
X453065Y438915D02*
X451872D01*
X450769Y438458D01*
X449925Y437614D01*
X449468Y436511D01*
Y435318D01*
X449925Y434215D01*
X450769Y433371D01*
X451872Y432915D01*
X453065D01*
X454168Y433371D01*
X455012Y434215D01*
X455468Y435318D01*
Y436511D01*
X455012Y437614D01*
X454168Y438458D01*
X453065Y438915D01*
D02*
G37*
G36*
X469704Y435010D02*
X468510D01*
X467407Y434553D01*
X466564Y433709D01*
X466107Y432607D01*
Y431413D01*
X466564Y430311D01*
X467407Y429467D01*
X468510Y429010D01*
X469704D01*
X470806Y429467D01*
X471650Y430311D01*
X472107Y431413D01*
Y432607D01*
X471650Y433709D01*
X470806Y434553D01*
X469704Y435010D01*
D02*
G37*
G36*
X412323Y432612D02*
X411129D01*
X410026Y432155D01*
X409183Y431311D01*
X408726Y430209D01*
Y429015D01*
X409183Y427912D01*
X410026Y427068D01*
X411129Y426612D01*
X412323D01*
X413425Y427068D01*
X414269Y427912D01*
X414726Y429015D01*
Y430209D01*
X414269Y431311D01*
X413425Y432155D01*
X412323Y432612D01*
D02*
G37*
G36*
X425167Y426058D02*
X423973D01*
X422871Y425601D01*
X422027Y424757D01*
X421570Y423654D01*
Y422461D01*
X422027Y421358D01*
X422871Y420514D01*
X423973Y420057D01*
X425167D01*
X426269Y420514D01*
X427113Y421358D01*
X428167Y421289D01*
X428246Y421099D01*
X429090Y420255D01*
X430192Y419798D01*
X431386D01*
X432488Y420255D01*
X433332Y421099D01*
X433789Y422201D01*
Y423395D01*
X433332Y424498D01*
X432488Y425341D01*
X431386Y425798D01*
X430192D01*
X429090Y425341D01*
X428246Y424498D01*
X427192Y424567D01*
X427113Y424757D01*
X426269Y425601D01*
X425167Y426058D01*
D02*
G37*
G36*
X536514Y423677D02*
X535321D01*
X534218Y423221D01*
X533374Y422377D01*
X532918Y421274D01*
Y420081D01*
X533374Y418978D01*
X534218Y418134D01*
X535321Y417677D01*
X536514D01*
X537617Y418134D01*
X538461Y418978D01*
X538918Y420081D01*
Y421274D01*
X538461Y422377D01*
X537617Y423221D01*
X536514Y423677D01*
D02*
G37*
G36*
X412077Y419127D02*
X410883D01*
X409781Y418671D01*
X408937Y417827D01*
X408861Y417644D01*
X408321Y417560D01*
X407752Y417578D01*
X407000Y418330D01*
X405897Y418787D01*
X404704D01*
X403601Y418330D01*
X402757Y417486D01*
X402300Y416384D01*
Y415190D01*
X402757Y414087D01*
X403601Y413243D01*
X404704Y412787D01*
X405897D01*
X407000Y413243D01*
X407844Y414087D01*
X407920Y414270D01*
X408459Y414354D01*
X409029Y414336D01*
X409781Y413584D01*
X410883Y413127D01*
X412077D01*
X413100Y412468D01*
X413300Y411986D01*
X414143Y411142D01*
X415246Y410685D01*
X416440D01*
X417542Y411142D01*
X418386Y411986D01*
X418843Y413088D01*
Y414282D01*
X418386Y415384D01*
X417542Y416228D01*
X416440Y416685D01*
X415246D01*
X414223Y417344D01*
X414023Y417827D01*
X413179Y418671D01*
X412077Y419127D01*
D02*
G37*
G36*
X457797Y419560D02*
X456603D01*
X455501Y419103D01*
X454657Y418259D01*
X454200Y417157D01*
Y415963D01*
X454657Y414861D01*
X455501Y414017D01*
X456603Y413560D01*
X457797D01*
X458899Y414017D01*
X459743Y414861D01*
X460200Y415963D01*
Y417157D01*
X459743Y418259D01*
X458899Y419103D01*
X457797Y419560D01*
D02*
G37*
G36*
X392581Y419514D02*
X391388D01*
X390285Y419057D01*
X389441Y418214D01*
X388984Y417111D01*
Y415917D01*
X389441Y414815D01*
X390285Y413971D01*
X391388Y413514D01*
X392581D01*
X393684Y413971D01*
X394528Y414815D01*
X394985Y415917D01*
Y417111D01*
X394528Y418214D01*
X393684Y419057D01*
X392581Y419514D01*
D02*
G37*
G36*
X444897Y425798D02*
X443704D01*
X442601Y425341D01*
X441757Y424498D01*
X441301Y423395D01*
Y422201D01*
X441757Y421099D01*
X442601Y420255D01*
X443001Y420089D01*
Y419007D01*
X442601Y418842D01*
X441757Y417998D01*
X441301Y416895D01*
Y415701D01*
X441757Y414599D01*
X442601Y413755D01*
X443704Y413298D01*
X444897D01*
X446000Y413755D01*
X446844Y414599D01*
X447300Y415701D01*
Y416895D01*
X446844Y417998D01*
X446000Y418842D01*
X445600Y419007D01*
Y420089D01*
X446000Y420255D01*
X446844Y421099D01*
X447300Y422201D01*
Y423395D01*
X446844Y424498D01*
X446000Y425341D01*
X444897Y425798D01*
D02*
G37*
G36*
X523271Y423260D02*
X522078D01*
X520975Y422803D01*
X520131Y421959D01*
X519674Y420856D01*
Y419663D01*
X519828Y419292D01*
X519160Y418292D01*
X518701D01*
X517598Y417836D01*
X516754Y416992D01*
X516298Y415889D01*
Y414696D01*
X516754Y413593D01*
X517598Y412749D01*
X518701Y412292D01*
X519894D01*
X520997Y412749D01*
X521841Y413593D01*
X522298Y414696D01*
Y415889D01*
X522144Y416260D01*
X522812Y417260D01*
X523271D01*
X524374Y417716D01*
X525218Y418560D01*
X525675Y419663D01*
Y420856D01*
X525218Y421959D01*
X524374Y422803D01*
X523271Y423260D01*
D02*
G37*
G36*
X433142Y418207D02*
X431948D01*
X430846Y417750D01*
X430002Y416906D01*
X429545Y415803D01*
Y414610D01*
X430002Y413507D01*
X430846Y412663D01*
X431948Y412207D01*
X433142D01*
X434244Y412663D01*
X435088Y413507D01*
X435545Y414610D01*
Y415803D01*
X435088Y416906D01*
X434244Y417750D01*
X433142Y418207D01*
D02*
G37*
G36*
X425220Y416850D02*
X424026D01*
X422924Y416393D01*
X422080Y415549D01*
X421623Y414447D01*
Y413253D01*
X422080Y412150D01*
X422924Y411306D01*
X424026Y410850D01*
X425220D01*
X426323Y411306D01*
X427167Y412150D01*
X427623Y413253D01*
Y414447D01*
X427167Y415549D01*
X426323Y416393D01*
X425220Y416850D01*
D02*
G37*
G36*
X457637Y406732D02*
X456444D01*
X455341Y406275D01*
X454497Y405431D01*
X454470Y405365D01*
X454156Y405257D01*
X453331Y405230D01*
X452679Y405883D01*
X451576Y406340D01*
X450383D01*
X449280Y405883D01*
X448436Y405039D01*
X447980Y403937D01*
Y402743D01*
X448436Y401640D01*
X449280Y400796D01*
X449807Y400578D01*
X449808Y399496D01*
X448964Y398653D01*
X448819Y398302D01*
X447737D01*
X447551Y398750D01*
X446707Y399594D01*
X445605Y400051D01*
X444411D01*
X443308Y399594D01*
X442465Y398750D01*
X442008Y397648D01*
Y396454D01*
X442465Y395351D01*
X443308Y394507D01*
X444411Y394051D01*
X445605D01*
X446707Y394507D01*
X447551Y395351D01*
X447696Y395701D01*
X448779D01*
X448964Y395254D01*
X449808Y394410D01*
X450910Y393953D01*
X452104D01*
X453207Y394410D01*
X453505Y394708D01*
X454657Y394541D01*
X455501Y393697D01*
X456603Y393240D01*
X457797D01*
X458899Y393697D01*
X459743Y394541D01*
X460200Y395643D01*
Y396837D01*
X459743Y397939D01*
X458899Y398783D01*
X457797Y399240D01*
X456603D01*
X455501Y398783D01*
X455202Y398485D01*
X454050Y398653D01*
X453207Y399496D01*
X452680Y399715D01*
X452679Y400797D01*
X453523Y401640D01*
X453550Y401706D01*
X453865Y401815D01*
X454688Y401842D01*
X455341Y401189D01*
X456444Y400732D01*
X457637D01*
X458740Y401189D01*
X459584Y402033D01*
X460041Y403135D01*
Y404329D01*
X459584Y405431D01*
X458740Y406275D01*
X457637Y406732D01*
D02*
G37*
G36*
X490293Y406048D02*
X489100D01*
X487997Y405592D01*
X487153Y404748D01*
X486696Y403645D01*
Y402452D01*
X487153Y401349D01*
X487997Y400505D01*
X489100Y400048D01*
X490293D01*
X491396Y400505D01*
X492240Y401349D01*
X492696Y402452D01*
Y403645D01*
X492240Y404748D01*
X491396Y405592D01*
X490293Y406048D01*
D02*
G37*
G36*
X398928Y403818D02*
X397734D01*
X396632Y403361D01*
X395788Y402517D01*
X395331Y401415D01*
Y400221D01*
X395788Y399118D01*
X396632Y398275D01*
X397734Y397818D01*
X398928D01*
X400030Y398275D01*
X400874Y399118D01*
X401331Y400221D01*
Y401415D01*
X400874Y402517D01*
X400030Y403361D01*
X398928Y403818D01*
D02*
G37*
G36*
X497349Y403360D02*
X496156D01*
X495053Y402903D01*
X494209Y402059D01*
X493753Y400957D01*
Y399763D01*
X494209Y398661D01*
X495053Y397817D01*
X496156Y397360D01*
X497349D01*
X498452Y397817D01*
X499296Y398661D01*
X499753Y399763D01*
Y400957D01*
X499296Y402059D01*
X498452Y402903D01*
X497349Y403360D01*
D02*
G37*
G36*
X436278Y403016D02*
X435085D01*
X433982Y402559D01*
X433138Y401715D01*
X432682Y400612D01*
Y399419D01*
X433138Y398316D01*
X433982Y397472D01*
X435085Y397016D01*
X436278D01*
X437381Y397472D01*
X438225Y398316D01*
X438681Y399419D01*
Y400612D01*
X438225Y401715D01*
X437381Y402559D01*
X436278Y403016D01*
D02*
G37*
G36*
X536638Y402991D02*
X535444D01*
X534342Y402535D01*
X533498Y401691D01*
X533041Y400588D01*
Y399395D01*
X533498Y398292D01*
X534342Y397448D01*
X535444Y396992D01*
X536638D01*
X537740Y397448D01*
X538584Y398292D01*
X539041Y399395D01*
Y400588D01*
X538584Y401691D01*
X537740Y402535D01*
X536638Y402991D01*
D02*
G37*
G36*
X396076Y392074D02*
X394882D01*
X393780Y391617D01*
X392936Y390773D01*
X392479Y389671D01*
Y388477D01*
X392936Y387375D01*
X393780Y386531D01*
X394882Y386074D01*
X396076D01*
X397178Y386531D01*
X398022Y387375D01*
X398479Y388477D01*
Y389671D01*
X398022Y390773D01*
X397178Y391617D01*
X396076Y392074D01*
D02*
G37*
G36*
X417337Y390253D02*
X416143D01*
X415041Y389796D01*
X414197Y388952D01*
X413740Y387849D01*
Y386656D01*
X414197Y385553D01*
X415041Y384709D01*
X416143Y384253D01*
X417337D01*
X418439Y384709D01*
X419283Y385553D01*
X419740Y386656D01*
Y387849D01*
X419283Y388952D01*
X418439Y389796D01*
X417337Y390253D01*
D02*
G37*
G36*
X516637Y390048D02*
X515444D01*
X514341Y389591D01*
X513497Y388748D01*
X513041Y387645D01*
Y386451D01*
X513497Y385349D01*
X514341Y384505D01*
X515444Y384048D01*
X516637D01*
X517740Y384505D01*
X518425Y385190D01*
X518507Y385174D01*
X519351Y384330D01*
X520454Y383873D01*
X521647D01*
X522750Y384330D01*
X523594Y385174D01*
X524050Y386276D01*
Y387470D01*
X523594Y388573D01*
X522750Y389417D01*
X521647Y389873D01*
X520454D01*
X519351Y389417D01*
X518666Y388731D01*
X518584Y388748D01*
X517740Y389591D01*
X516637Y390048D01*
D02*
G37*
G36*
X503897Y389873D02*
X502704D01*
X501601Y389417D01*
X500757Y388573D01*
X500300Y387470D01*
Y386276D01*
X500757Y385174D01*
X501601Y384330D01*
X502704Y383873D01*
X503897D01*
X505000Y384330D01*
X505844Y385174D01*
X506300Y386276D01*
Y387470D01*
X505844Y388573D01*
X505000Y389417D01*
X503897Y389873D01*
D02*
G37*
G36*
X444953Y393051D02*
X443760D01*
X442657Y392594D01*
X441814Y391750D01*
X441357Y390648D01*
Y389454D01*
X441814Y388351D01*
X442657Y387508D01*
X442741Y387473D01*
Y386391D01*
X442610Y386337D01*
X441767Y385493D01*
X441310Y384390D01*
Y383197D01*
X441767Y382094D01*
X442610Y381250D01*
X443713Y380793D01*
X444907D01*
X446009Y381250D01*
X446853Y382094D01*
X447310Y383197D01*
Y384390D01*
X446853Y385493D01*
X446009Y386337D01*
X445926Y386371D01*
Y387453D01*
X446056Y387508D01*
X446900Y388351D01*
X447357Y389454D01*
Y390648D01*
X446900Y391750D01*
X446056Y392594D01*
X444953Y393051D01*
D02*
G37*
G36*
X539647Y383802D02*
X538454D01*
X537351Y383345D01*
X536507Y382502D01*
X536050Y381399D01*
Y380205D01*
X536507Y379103D01*
X537351Y378259D01*
X538454Y377802D01*
X539647D01*
X540750Y378259D01*
X541594Y379103D01*
X542051Y380205D01*
Y381399D01*
X541594Y382502D01*
X540750Y383345D01*
X539647Y383802D01*
D02*
G37*
G36*
X526147D02*
X524954D01*
X523851Y383345D01*
X523007Y382502D01*
X522551Y381399D01*
Y380205D01*
X523007Y379103D01*
X523851Y378259D01*
X524954Y377802D01*
X526147D01*
X527250Y378259D01*
X528094Y379103D01*
X528550Y380205D01*
Y381399D01*
X528094Y382502D01*
X527250Y383345D01*
X526147Y383802D01*
D02*
G37*
G36*
X396269Y383260D02*
X395075D01*
X393972Y382803D01*
X393129Y381959D01*
X392672Y380856D01*
Y379663D01*
X393129Y378560D01*
X393972Y377716D01*
X395075Y377259D01*
X396269D01*
X397371Y377716D01*
X398215Y378560D01*
X398672Y379663D01*
Y380856D01*
X398215Y381959D01*
X397371Y382803D01*
X396269Y383260D01*
D02*
G37*
G36*
X406337Y367146D02*
X405144D01*
X404041Y366690D01*
X403197Y365846D01*
X402741Y364743D01*
Y363550D01*
X403197Y362447D01*
X404041Y361603D01*
X405144Y361146D01*
X406337D01*
X407440Y361603D01*
X408284Y362447D01*
X408741Y363550D01*
Y364743D01*
X408284Y365846D01*
X407440Y366690D01*
X406337Y367146D01*
D02*
G37*
G36*
X477169Y367070D02*
X475975D01*
X474873Y366613D01*
X474029Y365769D01*
X473572Y364667D01*
Y363473D01*
X474029Y362371D01*
X474873Y361527D01*
X475975Y361070D01*
X477169D01*
X478272Y361527D01*
X479115Y362371D01*
X479572Y363473D01*
Y364667D01*
X479115Y365769D01*
X478272Y366613D01*
X477169Y367070D01*
D02*
G37*
G36*
X454921Y366764D02*
X453728D01*
X452625Y366307D01*
X451782Y365463D01*
X451325Y364361D01*
Y363167D01*
X451782Y362065D01*
X452625Y361221D01*
X453728Y360764D01*
X454921D01*
X456024Y361221D01*
X456868Y362065D01*
X457325Y363167D01*
Y364361D01*
X456868Y365463D01*
X456024Y366307D01*
X454921Y366764D01*
D02*
G37*
G36*
X516397Y373798D02*
X515204D01*
X514101Y373341D01*
X513257Y372498D01*
X512800Y371395D01*
Y370201D01*
X513257Y369099D01*
X514101Y368255D01*
X514501Y368089D01*
Y367007D01*
X514101Y366842D01*
X513257Y365998D01*
X512800Y364895D01*
Y363702D01*
X513257Y362599D01*
X514101Y361755D01*
X514501Y361589D01*
Y360507D01*
X514101Y360341D01*
X513257Y359498D01*
X513092Y359098D01*
X512009D01*
X511844Y359498D01*
X511000Y360341D01*
X509897Y360798D01*
X508704D01*
X507601Y360341D01*
X506757Y359498D01*
X506618Y359160D01*
X505535D01*
X505520Y359197D01*
X504676Y360041D01*
X503573Y360498D01*
X502380D01*
X501277Y360041D01*
X500433Y359197D01*
X499977Y358094D01*
Y356901D01*
X500433Y355798D01*
X501277Y354954D01*
X501262Y353878D01*
X501014Y353775D01*
X500170Y352932D01*
X499713Y351829D01*
Y350635D01*
X500170Y349533D01*
X501014Y348689D01*
X501311Y348566D01*
Y347484D01*
X501068Y347383D01*
X500224Y346539D01*
X499768Y345437D01*
Y344243D01*
X500224Y343141D01*
X501068Y342297D01*
X502171Y341840D01*
X502466D01*
X503332Y341318D01*
Y340125D01*
X503789Y339022D01*
X504633Y338178D01*
X505736Y337721D01*
X506929D01*
X508032Y338178D01*
X508876Y339022D01*
X509332Y340125D01*
Y341318D01*
X508876Y342421D01*
X508032Y343265D01*
X506929Y343721D01*
X506634D01*
X505768Y344243D01*
Y345437D01*
X505311Y346539D01*
X504467Y347383D01*
X504170Y347506D01*
Y348588D01*
X504413Y348689D01*
X505257Y349533D01*
X505479Y350070D01*
X506562D01*
X506757Y349599D01*
X507601Y348755D01*
X508704Y348298D01*
X509897D01*
X511000Y348755D01*
X511844Y349599D01*
X512009Y349999D01*
X513092D01*
X513257Y349599D01*
X514101Y348755D01*
X514189Y348718D01*
Y347636D01*
X514101Y347599D01*
X513257Y346755D01*
X512800Y345653D01*
Y344459D01*
X513257Y343357D01*
X514101Y342513D01*
X515204Y342056D01*
X516397D01*
X517500Y342513D01*
X518344Y343357D01*
X518800Y344459D01*
Y345653D01*
X518344Y346755D01*
X517500Y347599D01*
X517412Y347636D01*
Y348718D01*
X517500Y348755D01*
X518344Y349599D01*
X518436Y349822D01*
X519507Y349849D01*
X520351Y349005D01*
X521454Y348548D01*
X522647D01*
X523750Y349005D01*
X524594Y349849D01*
X524759Y350248D01*
X525841D01*
X525952Y349980D01*
X526796Y349136D01*
X527899Y348680D01*
X529092D01*
X530195Y349136D01*
X531039Y349980D01*
X531496Y351083D01*
Y352276D01*
X531039Y353379D01*
X530195Y354223D01*
X529092Y354679D01*
X527899D01*
X526796Y354223D01*
X525952Y353379D01*
X525787Y352980D01*
X524705D01*
X524594Y353248D01*
X523750Y354091D01*
X522647Y354548D01*
X521454D01*
X520351Y354091D01*
X519507Y353248D01*
X519415Y353025D01*
X518344Y352998D01*
X517500Y353842D01*
X517100Y354007D01*
Y355089D01*
X517500Y355255D01*
X518344Y356099D01*
X518800Y357201D01*
Y358395D01*
X518344Y359498D01*
X517500Y360341D01*
X517100Y360507D01*
Y361589D01*
X517500Y361755D01*
X518344Y362599D01*
X518509Y362999D01*
X519592D01*
X519757Y362599D01*
X520601Y361755D01*
X521704Y361298D01*
X522897D01*
X523503Y361549D01*
X524058Y361697D01*
X524709Y361050D01*
X524860Y360686D01*
X525704Y359842D01*
X526807Y359386D01*
X528000D01*
X529103Y359842D01*
X529947Y360686D01*
X530403Y361789D01*
Y362983D01*
X529947Y364085D01*
X529103Y364929D01*
X528000Y365386D01*
X526807D01*
X526201Y365135D01*
X525646Y364987D01*
X524995Y365634D01*
X524844Y365998D01*
X524000Y366842D01*
X522897Y367298D01*
X521704D01*
X520601Y366842D01*
X519757Y365998D01*
X519592Y365598D01*
X518509D01*
X518344Y365998D01*
X517500Y366842D01*
X517100Y367007D01*
Y368089D01*
X517500Y368255D01*
X518344Y369099D01*
X518800Y370201D01*
Y371395D01*
X518344Y372498D01*
X517500Y373341D01*
X516397Y373798D01*
D02*
G37*
G36*
X541147Y364048D02*
X539954D01*
X538851Y363591D01*
X538007Y362748D01*
X537551Y361645D01*
Y360452D01*
X538007Y359349D01*
X538851Y358505D01*
X539954Y358048D01*
X541147D01*
X542250Y358505D01*
X543094Y359349D01*
X543550Y360452D01*
Y361645D01*
X543094Y362748D01*
X542250Y363591D01*
X541147Y364048D01*
D02*
G37*
G36*
X398998Y363603D02*
X397805D01*
X396702Y363146D01*
X395858Y362302D01*
X395401Y361200D01*
Y360006D01*
X395858Y358904D01*
X396702Y358060D01*
X397805Y357603D01*
X398998D01*
X400101Y358060D01*
X400945Y358904D01*
X401401Y360006D01*
Y361200D01*
X400945Y362302D01*
X400101Y363146D01*
X398998Y363603D01*
D02*
G37*
G36*
X496897Y367298D02*
X495704D01*
X494601Y366842D01*
X493757Y365998D01*
X493301Y364895D01*
Y363702D01*
X493757Y362599D01*
X494002Y362354D01*
X493996Y361269D01*
X493153Y360425D01*
X492696Y359323D01*
Y358129D01*
X493153Y357027D01*
X493997Y356183D01*
X495099Y355726D01*
X496293D01*
X497395Y356183D01*
X498239Y357027D01*
X498696Y358129D01*
Y359323D01*
X498239Y360425D01*
X497994Y360670D01*
X498000Y361755D01*
X498844Y362599D01*
X499300Y363702D01*
Y364895D01*
X498844Y365998D01*
X498000Y366842D01*
X496897Y367298D01*
D02*
G37*
G36*
X472787Y361024D02*
X471593D01*
X470491Y360568D01*
X469647Y359724D01*
X469190Y358621D01*
Y357427D01*
X469647Y356325D01*
X470491Y355481D01*
X471593Y355024D01*
X472787D01*
X473890Y355481D01*
X474734Y356325D01*
X475190Y357427D01*
Y358621D01*
X474734Y359724D01*
X473890Y360568D01*
X472787Y361024D01*
D02*
G37*
G36*
X496290Y354454D02*
X495097D01*
X493994Y353997D01*
X493271Y353274D01*
X492930Y353162D01*
X492085Y353194D01*
X491474Y353804D01*
X490372Y354261D01*
X489178D01*
X488076Y353804D01*
X487232Y352960D01*
X486775Y351858D01*
Y350664D01*
X487232Y349562D01*
X488076Y348718D01*
X489178Y348261D01*
X490372D01*
X491474Y348718D01*
X492197Y349441D01*
X492539Y349553D01*
X493384Y349521D01*
X493994Y348910D01*
X495097Y348454D01*
X496290D01*
X497393Y348910D01*
X498237Y349754D01*
X498693Y350857D01*
Y352050D01*
X498237Y353153D01*
X497393Y353997D01*
X496290Y354454D01*
D02*
G37*
G36*
X432396Y355547D02*
X431203D01*
X430100Y355090D01*
X429256Y354246D01*
X428800Y353144D01*
Y351950D01*
X429256Y350847D01*
X430100Y350004D01*
X431203Y349547D01*
X432396D01*
X433499Y350004D01*
X434343Y350847D01*
X434800Y351950D01*
Y353144D01*
X434343Y354246D01*
X433499Y355090D01*
X432396Y355547D01*
D02*
G37*
G36*
X412424Y354464D02*
X411230D01*
X410127Y354007D01*
X409283Y353163D01*
X408827Y352060D01*
Y350867D01*
X409283Y349764D01*
X410127Y348920D01*
X411230Y348464D01*
X412424D01*
X413526Y348920D01*
X414370Y349764D01*
X414458Y349977D01*
X415541D01*
X415675Y349653D01*
X416519Y348809D01*
X417622Y348352D01*
X418815D01*
X419918Y348809D01*
X420762Y349653D01*
X421218Y350755D01*
Y351949D01*
X420762Y353051D01*
X419918Y353895D01*
X418815Y354352D01*
X417622D01*
X416519Y353895D01*
X415675Y353051D01*
X415587Y352839D01*
X414504D01*
X414370Y353163D01*
X413526Y354007D01*
X412424Y354464D01*
D02*
G37*
G36*
X455753Y354015D02*
X454559D01*
X453456Y353558D01*
X452612Y352714D01*
X452156Y351612D01*
Y350418D01*
X452612Y349316D01*
X453456Y348472D01*
X454559Y348015D01*
X455753D01*
X456855Y348472D01*
X457699Y349316D01*
X458156Y350418D01*
Y351612D01*
X457699Y352714D01*
X456855Y353558D01*
X455753Y354015D01*
D02*
G37*
G36*
X477807Y354298D02*
X476613D01*
X475511Y353842D01*
X474667Y352998D01*
X474210Y351895D01*
Y350701D01*
X474667Y349599D01*
X475511Y348755D01*
X475910Y348589D01*
Y347507D01*
X475511Y347341D01*
X474667Y346498D01*
X474210Y345395D01*
Y344202D01*
X474667Y343099D01*
X475511Y342255D01*
X476613Y341798D01*
X477807D01*
X478909Y342255D01*
X479753Y343099D01*
X480210Y344202D01*
Y345395D01*
X479753Y346498D01*
X478909Y347341D01*
X478510Y347507D01*
Y348589D01*
X478909Y348755D01*
X479753Y349599D01*
X480210Y350701D01*
Y351895D01*
X479753Y352998D01*
X478909Y353842D01*
X477807Y354298D01*
D02*
G37*
G36*
X444842Y353851D02*
X443648D01*
X442546Y353395D01*
X441702Y352551D01*
X441245Y351448D01*
Y350255D01*
X441702Y349152D01*
X442546Y348308D01*
X443648Y347851D01*
X444842D01*
X445452Y348104D01*
X445922Y347268D01*
X445595Y346940D01*
X445078Y346424D01*
X444621Y345321D01*
Y344128D01*
X445078Y343025D01*
X445922Y342181D01*
X447025Y341724D01*
X448218D01*
X449321Y342181D01*
X450165Y343025D01*
X450621Y344128D01*
Y345321D01*
X450165Y346424D01*
X449321Y347268D01*
X448218Y347724D01*
X447025D01*
X446414Y347471D01*
X445944Y348308D01*
X446272Y348635D01*
X446788Y349152D01*
X447245Y350255D01*
Y351448D01*
X446788Y352551D01*
X445944Y353395D01*
X444842Y353851D01*
D02*
G37*
G36*
X468779Y344648D02*
X467585D01*
X466483Y344191D01*
X465639Y343347D01*
X465182Y342244D01*
Y341051D01*
X465639Y339948D01*
X466483Y339104D01*
X467585Y338648D01*
X468779D01*
X469882Y339104D01*
X470725Y339948D01*
X471182Y341051D01*
Y342244D01*
X470725Y343347D01*
X469882Y344191D01*
X468779Y344648D01*
D02*
G37*
G36*
X543720Y344453D02*
X542526D01*
X541424Y343996D01*
X540580Y343152D01*
X540123Y342049D01*
Y340856D01*
X540580Y339753D01*
X541424Y338909D01*
X542526Y338452D01*
X543720D01*
X544823Y338909D01*
X545666Y339753D01*
X546123Y340856D01*
Y342049D01*
X545666Y343152D01*
X544823Y343996D01*
X543720Y344453D01*
D02*
G37*
G36*
X486984Y342933D02*
X485790D01*
X484688Y342476D01*
X483844Y341632D01*
X483387Y340529D01*
Y339336D01*
X483844Y338233D01*
X484688Y337389D01*
X485790Y336933D01*
X486984D01*
X488086Y337389D01*
X488930Y338233D01*
X489387Y339336D01*
Y340529D01*
X488930Y341632D01*
X488086Y342476D01*
X486984Y342933D01*
D02*
G37*
%LPD*%
G36*
X502163Y413975D02*
X502067Y413951D01*
X501966Y413913D01*
X501857Y413861D01*
X501741Y413794D01*
X501619Y413713D01*
X501355Y413508D01*
X501212Y413384D01*
X500907Y413094D01*
X499170Y414185D01*
X499318Y414340D01*
X499561Y414638D01*
X499655Y414780D01*
X499731Y414917D01*
X499789Y415051D01*
X499829Y415180D01*
X499851Y415304D01*
X499855Y415424D01*
X499841Y415540D01*
X502163Y413975D01*
D02*
G37*
G36*
X438804Y367015D02*
X438836Y366628D01*
X438865Y366456D01*
X438900Y366298D01*
X438944Y366155D01*
X438997Y366026D01*
X439056Y365912D01*
X439124Y365812D01*
X439200Y365727D01*
X436400D01*
X436476Y365812D01*
X436544Y365912D01*
X436604Y366026D01*
X436656Y366155D01*
X436700Y366298D01*
X436736Y366456D01*
X436764Y366628D01*
X436784Y366814D01*
X436800Y367230D01*
X438800D01*
X438804Y367015D01*
D02*
G37*
D11*
X297670Y319569D02*
Y331098D01*
X295181Y333587D02*
X297670Y331098D01*
X285234Y333587D02*
X295181D01*
X281592Y329945D02*
X285234Y333587D01*
X281592Y295653D02*
Y329945D01*
Y295653D02*
X287685Y289560D01*
X286508Y304560D02*
X287302Y305354D01*
Y308177D02*
X287685Y308560D01*
X287302Y305354D02*
Y308177D01*
X313979Y298435D02*
X322405D01*
X313798Y298616D02*
X313979Y298435D01*
X496951Y410352D02*
X499342Y412743D01*
X501800Y415401D02*
Y415942D01*
X499342Y412943D02*
X501800Y415401D01*
X499342Y412743D02*
Y412943D01*
X485282Y410352D02*
X496951D01*
X478346Y403416D02*
X485282Y410352D01*
X478346Y398401D02*
Y403416D01*
X471148Y391202D02*
X478346Y398401D01*
X471148Y378159D02*
Y391202D01*
X466080Y373092D02*
X471148Y378159D01*
X449476Y373092D02*
X466080D01*
X447214Y375354D02*
X449476Y373092D01*
X442780Y375354D02*
X447214D01*
X437800Y370374D02*
X442780Y375354D01*
X437800Y364298D02*
Y370374D01*
X286508Y301239D02*
Y304560D01*
Y301239D02*
X292884Y294863D01*
Y294322D02*
Y294863D01*
X285750Y321224D02*
X287430Y319545D01*
X292650D01*
X293869Y292820D02*
X296934Y289755D01*
X292884Y294322D02*
X293869Y293337D01*
Y292820D02*
Y293337D01*
X321052Y289755D02*
X324538Y293241D01*
X296934Y289755D02*
X321052D01*
X312585Y324945D02*
X321884D01*
X285750Y321224D02*
Y327580D01*
X287730Y329560D01*
X292685D01*
X303070Y324945D02*
X312585D01*
X324538Y293241D02*
Y296301D01*
X321884Y324945D02*
X324465Y322364D01*
X302685Y324560D02*
X303070Y324945D01*
X324465Y300494D02*
Y322364D01*
X322405Y298435D02*
X324465Y300494D01*
X322405Y298435D02*
X324538Y296301D01*
D12*
X392486Y680164D02*
X392678Y679973D01*
X367030Y697230D02*
X381000D01*
X385183Y693047D01*
Y683792D02*
Y693047D01*
X388810Y680164D02*
X392486D01*
X385183Y683792D02*
X388810Y680164D01*
X682104Y345320D02*
X685800Y341624D01*
X682104Y345320D02*
Y403860D01*
X656598Y489340D02*
X682104Y463834D01*
X685800Y341624D02*
X703580Y323844D01*
X682104Y403860D02*
Y463834D01*
X449021Y132141D02*
X475294Y105868D01*
X449021Y132141D02*
Y235000D01*
X703580Y155500D02*
Y323844D01*
X653948Y105868D02*
X703580Y155500D01*
X475294Y105868D02*
X653948D01*
X408336Y149958D02*
X441136Y117159D01*
X408336Y149958D02*
Y226318D01*
X441136Y92182D02*
Y117159D01*
X319733Y448940D02*
X359123Y409550D01*
X309555Y448940D02*
X319733D01*
X519389Y78642D02*
X533111Y92364D01*
X454676Y78642D02*
X519389D01*
X441136Y92182D02*
X454676Y78642D01*
X656598Y453558D02*
Y489340D01*
X650465Y447425D02*
X656598Y453558D01*
X593053Y447425D02*
X650465D01*
X359123Y275531D02*
X408336Y226318D01*
X359123Y275531D02*
Y409550D01*
X404621Y279400D02*
X449021Y235000D01*
X386080Y279400D02*
X404621D01*
X588629Y442348D02*
Y443002D01*
X593053Y447425D01*
D138*
X724779Y149860D02*
X787400D01*
X718098Y143179D02*
X724779Y149860D01*
X718098Y90647D02*
Y143179D01*
X695390Y67940D02*
X718098Y90647D01*
X442600Y67940D02*
X695390D01*
X430089Y80451D02*
X442600Y67940D01*
X372893Y165256D02*
X402380Y135769D01*
X430089Y80451D02*
Y108061D01*
X402380Y135769D02*
X402380D01*
X430089Y108061D01*
X330375Y181435D02*
X346885D01*
X312420Y199390D02*
X330375Y181435D01*
X346885D02*
X364490Y163830D01*
X420730Y60824D02*
X698400D01*
X736109Y98533D01*
X411987Y69567D02*
X420730Y60824D01*
X321236Y351315D02*
X326407Y346144D01*
X299956Y358138D02*
X306779Y351315D01*
X321236D01*
X682631Y713254D02*
X688340Y707544D01*
X682631Y713254D02*
Y774791D01*
X678116Y779306D02*
X682631Y774791D01*
X661830Y779306D02*
X678116D01*
X633190Y807946D02*
X661830Y779306D01*
X688340Y701867D02*
Y707544D01*
X281154Y376940D02*
X299956Y358138D01*
X271546Y376940D02*
X281154D01*
X312420Y199390D02*
Y215497D01*
X333403Y346144D02*
X346435Y333113D01*
Y302269D02*
Y333113D01*
X335720Y291554D02*
X346435Y302269D01*
X335720Y238796D02*
Y291554D01*
X312420Y215497D02*
X335720Y238796D01*
X326407Y346144D02*
X333403D01*
X271256Y376650D02*
X271546Y376940D01*
X729003Y542290D02*
X845820D01*
X370840Y140970D02*
Y157480D01*
X364490Y163830D02*
X370840Y157480D01*
Y140970D02*
X411987Y99823D01*
Y69567D02*
Y90933D01*
Y99823D01*
D147*
X166150Y582100D02*
D03*
Y742100D02*
D03*
D149*
X816400Y826700D02*
D03*
Y484100D02*
D03*
X757200Y386000D02*
D03*
Y46000D02*
D03*
X169000Y826700D02*
D03*
Y484100D02*
D03*
X167200Y386000D02*
D03*
Y46000D02*
D03*
D150*
X740560Y630370D02*
D03*
X727560D02*
D03*
X740560Y604370D02*
D03*
Y591370D02*
D03*
Y617370D02*
D03*
X727560Y604370D02*
D03*
Y591370D02*
D03*
Y617370D02*
D03*
D151*
X35700Y723000D02*
D03*
X61100D02*
D03*
Y519800D02*
D03*
X35700Y494400D02*
D03*
Y519800D02*
D03*
X61100Y494400D02*
D03*
X86500Y672200D02*
D03*
X111900Y646800D02*
D03*
X86500Y697600D02*
D03*
X111900D02*
D03*
X86500Y291200D02*
D03*
X111900Y672200D02*
D03*
Y621400D02*
D03*
X86500Y596000D02*
D03*
X111900D02*
D03*
Y316600D02*
D03*
Y291200D02*
D03*
Y265800D02*
D03*
Y240400D02*
D03*
X86500Y189600D02*
D03*
X111900Y443600D02*
D03*
Y469000D02*
D03*
Y392800D02*
D03*
Y418200D02*
D03*
Y164200D02*
D03*
X86500Y316600D02*
D03*
X111900Y342000D02*
D03*
X86500D02*
D03*
X111900Y367400D02*
D03*
X86500D02*
D03*
Y392800D02*
D03*
Y443600D02*
D03*
Y418200D02*
D03*
Y469000D02*
D03*
X111900Y494400D02*
D03*
X86500D02*
D03*
X111900Y519800D02*
D03*
X86500D02*
D03*
X111900Y545200D02*
D03*
X86500D02*
D03*
X111900Y570600D02*
D03*
X86500D02*
D03*
Y621400D02*
D03*
Y646800D02*
D03*
X111900Y723000D02*
D03*
X86500D02*
D03*
X111900Y748400D02*
D03*
X86500D02*
D03*
X111900Y773800D02*
D03*
X86500D02*
D03*
Y138800D02*
D03*
Y164200D02*
D03*
X111900Y189600D02*
D03*
Y215000D02*
D03*
X86500D02*
D03*
Y265800D02*
D03*
Y240400D02*
D03*
X35700D02*
D03*
Y291200D02*
D03*
Y265800D02*
D03*
X61100D02*
D03*
Y240400D02*
D03*
X35700Y215000D02*
D03*
X61100D02*
D03*
X35700Y189600D02*
D03*
X61100D02*
D03*
X35700Y164200D02*
D03*
X61100D02*
D03*
X35700Y138800D02*
D03*
Y773800D02*
D03*
X61100D02*
D03*
X35700Y748400D02*
D03*
X61100D02*
D03*
X35700Y672200D02*
D03*
X61100D02*
D03*
X35700Y646800D02*
D03*
X61100D02*
D03*
Y621400D02*
D03*
X35700D02*
D03*
Y570600D02*
D03*
Y596000D02*
D03*
X61100D02*
D03*
Y570600D02*
D03*
X35700Y545200D02*
D03*
X61100D02*
D03*
X35700Y392800D02*
D03*
X61100D02*
D03*
X35700Y367400D02*
D03*
X61100D02*
D03*
X35700Y342000D02*
D03*
X61100D02*
D03*
X35700Y316600D02*
D03*
X61100D02*
D03*
Y291200D02*
D03*
Y469000D02*
D03*
X35700D02*
D03*
X61100Y443600D02*
D03*
X35700D02*
D03*
Y697600D02*
D03*
X61100D02*
D03*
X35700Y418200D02*
D03*
X61100D02*
D03*
D152*
X825540Y744220D02*
D03*
Y769620D02*
D03*
D154*
X194200Y111000D02*
D03*
Y201000D02*
D03*
D155*
X111900Y138800D02*
D03*
X61100D02*
D03*
D156*
X729799Y137893D02*
D03*
X783590Y101600D02*
D03*
X830580Y95250D02*
D03*
X802640D02*
D03*
X334500Y306915D02*
D03*
X297670Y319569D02*
D03*
X308862Y308383D02*
D03*
X287685Y289560D02*
D03*
X431814Y382639D02*
D03*
X416740Y387253D02*
D03*
X919829Y865837D02*
D03*
Y838837D02*
D03*
Y829837D02*
D03*
Y847837D02*
D03*
Y811837D02*
D03*
Y802837D02*
D03*
Y820837D02*
D03*
X898250Y892388D02*
D03*
X835250Y892366D02*
D03*
X826250D02*
D03*
X853250D02*
D03*
X862250D02*
D03*
X844250D02*
D03*
X781250D02*
D03*
X790250D02*
D03*
X772250D02*
D03*
X808250D02*
D03*
X817250D02*
D03*
X799250D02*
D03*
X889250D02*
D03*
X909253Y889212D02*
D03*
X880250Y892366D02*
D03*
X919391Y874827D02*
D03*
X919829Y856837D02*
D03*
X915867Y883108D02*
D03*
X871250Y892366D02*
D03*
X919829Y793837D02*
D03*
Y784837D02*
D03*
X916575Y776447D02*
D03*
X909184Y771311D02*
D03*
X904767Y763469D02*
D03*
X903829Y745518D02*
D03*
Y736518D02*
D03*
Y754518D02*
D03*
Y718518D02*
D03*
Y709518D02*
D03*
Y727518D02*
D03*
X810078Y707572D02*
D03*
X775970Y795020D02*
D03*
X788011Y770750D02*
D03*
X807720Y721360D02*
D03*
X786130Y718820D02*
D03*
X745250Y892366D02*
D03*
X754250D02*
D03*
X736250D02*
D03*
X763250D02*
D03*
X748030Y842010D02*
D03*
X729410Y886516D02*
D03*
X723279Y879928D02*
D03*
X714897Y876650D02*
D03*
X678901Y876366D02*
D03*
X669901D02*
D03*
X642901D02*
D03*
X651901D02*
D03*
X633901D02*
D03*
X660901D02*
D03*
X705901Y876366D02*
D03*
X717550Y833120D02*
D03*
X696901Y876366D02*
D03*
X687901D02*
D03*
X657860Y831850D02*
D03*
X736600Y783590D02*
D03*
Y791210D02*
D03*
Y803910D02*
D03*
Y797560D02*
D03*
X711426Y707241D02*
D03*
X675640Y795020D02*
D03*
X903829Y682518D02*
D03*
Y673518D02*
D03*
Y691518D02*
D03*
Y655518D02*
D03*
Y646518D02*
D03*
Y664518D02*
D03*
Y700518D02*
D03*
Y637519D02*
D03*
X903829Y619519D02*
D03*
Y628518D02*
D03*
Y601519D02*
D03*
Y610518D02*
D03*
X800100Y697230D02*
D03*
X798830Y683260D02*
D03*
X838318Y645771D02*
D03*
X798830Y665480D02*
D03*
X829422Y645698D02*
D03*
X838318Y630771D02*
D03*
X829310Y631190D02*
D03*
X798830Y674370D02*
D03*
X788670Y657860D02*
D03*
X903829Y583519D02*
D03*
Y592519D02*
D03*
Y556519D02*
D03*
Y547519D02*
D03*
Y565519D02*
D03*
Y529519D02*
D03*
Y520519D02*
D03*
Y538519D02*
D03*
Y574519D02*
D03*
X903829Y448519D02*
D03*
Y430519D02*
D03*
Y439519D02*
D03*
X793081Y562888D02*
D03*
X793133Y556991D02*
D03*
X793081Y568785D02*
D03*
X793133Y551093D02*
D03*
X786648Y536006D02*
D03*
X903829Y493519D02*
D03*
Y484519D02*
D03*
Y502519D02*
D03*
Y466519D02*
D03*
Y457519D02*
D03*
Y475519D02*
D03*
Y511519D02*
D03*
X716280Y697230D02*
D03*
X643545Y692377D02*
D03*
X638810D02*
D03*
X634468Y521011D02*
D03*
X624902Y876366D02*
D03*
X615901D02*
D03*
X613127Y809895D02*
D03*
X617739Y703960D02*
D03*
X606902Y876366D02*
D03*
X611088Y783399D02*
D03*
X597901Y876366D02*
D03*
X598170Y828040D02*
D03*
X588901Y876366D02*
D03*
X598995Y750808D02*
D03*
X605740Y703960D02*
D03*
X593739D02*
D03*
X617739Y691960D02*
D03*
Y679960D02*
D03*
X620800Y631664D02*
D03*
X613410Y601980D02*
D03*
Y596900D02*
D03*
Y607060D02*
D03*
Y590550D02*
D03*
X605740Y691958D02*
D03*
X605739Y679960D02*
D03*
X593739D02*
D03*
Y691960D02*
D03*
X599490Y601980D02*
D03*
Y596900D02*
D03*
Y607060D02*
D03*
X587307Y632509D02*
D03*
X561902Y876366D02*
D03*
X570902D02*
D03*
X552902D02*
D03*
X579902D02*
D03*
X543902D02*
D03*
X534902D02*
D03*
X567257Y795118D02*
D03*
X516902Y876366D02*
D03*
X525902D02*
D03*
X507902D02*
D03*
X503287Y802045D02*
D03*
X489902Y876366D02*
D03*
X498902D02*
D03*
X480902D02*
D03*
X507722Y789470D02*
D03*
X567935Y692377D02*
D03*
X572670D02*
D03*
X599490Y590550D02*
D03*
X603200Y569517D02*
D03*
X549910Y478790D02*
D03*
X539610Y469298D02*
D03*
X528813Y467772D02*
D03*
X537056Y439189D02*
D03*
X508620Y429298D02*
D03*
X491838Y473710D02*
D03*
X505940Y466904D02*
D03*
X487474Y561713D02*
D03*
X480801Y449798D02*
D03*
X495800Y442307D02*
D03*
X503524Y428644D02*
D03*
X903829Y412519D02*
D03*
Y403519D02*
D03*
Y421519D02*
D03*
X903829Y385519D02*
D03*
Y394519D02*
D03*
Y367519D02*
D03*
Y358519D02*
D03*
Y376519D02*
D03*
Y340519D02*
D03*
Y349519D02*
D03*
X707390Y412750D02*
D03*
Y419100D02*
D03*
X711959Y391931D02*
D03*
X903829Y322519D02*
D03*
Y313519D02*
D03*
Y331519D02*
D03*
Y304519D02*
D03*
Y286519D02*
D03*
Y277519D02*
D03*
Y295519D02*
D03*
X903829Y214519D02*
D03*
Y205519D02*
D03*
Y223519D02*
D03*
Y232519D02*
D03*
Y241519D02*
D03*
Y268519D02*
D03*
Y259519D02*
D03*
Y250519D02*
D03*
X723014Y283215D02*
D03*
X675640Y424180D02*
D03*
X655333Y284500D02*
D03*
X655086Y268061D02*
D03*
X655051Y252048D02*
D03*
Y212048D02*
D03*
Y204048D02*
D03*
X637050Y232048D02*
D03*
X637050Y216048D02*
D03*
X912304Y136102D02*
D03*
X919829Y131166D02*
D03*
X906356Y142856D02*
D03*
X919829Y122166D02*
D03*
Y77166D02*
D03*
Y68166D02*
D03*
Y86166D02*
D03*
Y50166D02*
D03*
Y41166D02*
D03*
Y59166D02*
D03*
Y104166D02*
D03*
Y95166D02*
D03*
Y113166D02*
D03*
X919681Y32167D02*
D03*
X903829Y187519D02*
D03*
Y178519D02*
D03*
Y196519D02*
D03*
Y160519D02*
D03*
X903919Y151520D02*
D03*
X903829Y169519D02*
D03*
X916874Y23616D02*
D03*
X910898Y16887D02*
D03*
X902669Y13241D02*
D03*
X857685Y12710D02*
D03*
X866685D02*
D03*
X848685D02*
D03*
X884685D02*
D03*
X893685D02*
D03*
X875685D02*
D03*
X803685D02*
D03*
X812685D02*
D03*
X794685D02*
D03*
X830685D02*
D03*
X839685D02*
D03*
X821685D02*
D03*
X711872Y28712D02*
D03*
X702872Y28712D02*
D03*
X693872Y28712D02*
D03*
X684872Y28712D02*
D03*
X749685Y12710D02*
D03*
X758685D02*
D03*
X740685D02*
D03*
X776685D02*
D03*
X785685D02*
D03*
X767685D02*
D03*
X727720Y21165D02*
D03*
X731693Y13090D02*
D03*
X720652Y26738D02*
D03*
X655051Y172048D02*
D03*
X649051Y158048D02*
D03*
X637050Y200048D02*
D03*
X637051Y192048D02*
D03*
X605050Y168048D02*
D03*
X675872Y28712D02*
D03*
X666872Y28712D02*
D03*
X657872Y28712D02*
D03*
X648872Y28712D02*
D03*
X639872Y28712D02*
D03*
X630872Y28712D02*
D03*
X621872Y28712D02*
D03*
X612872Y28712D02*
D03*
X603872Y28711D02*
D03*
X535918Y420677D02*
D03*
X536041Y399991D02*
D03*
X519298Y415292D02*
D03*
X516040Y387048D02*
D03*
X540550Y361048D02*
D03*
X539050Y380802D02*
D03*
X543123Y341452D02*
D03*
X508767Y369984D02*
D03*
X496373Y422734D02*
D03*
X496753Y400360D02*
D03*
X484034Y421641D02*
D03*
X483862Y377484D02*
D03*
X489800Y377298D02*
D03*
X502920Y370840D02*
D03*
X506332Y340721D02*
D03*
X495696Y358726D02*
D03*
X589080Y256100D02*
D03*
X597050Y232048D02*
D03*
X579050Y284048D02*
D03*
X579321Y267947D02*
D03*
X579050Y212048D02*
D03*
X589050Y200048D02*
D03*
X594872Y28711D02*
D03*
X585872Y28711D02*
D03*
X579050Y196048D02*
D03*
Y188048D02*
D03*
Y172048D02*
D03*
X576872Y28711D02*
D03*
X528626Y331687D02*
D03*
X486475Y326798D02*
D03*
X544175Y279622D02*
D03*
X567872Y28711D02*
D03*
X558872Y28711D02*
D03*
X549872Y28711D02*
D03*
X540872Y28711D02*
D03*
X531872Y28711D02*
D03*
X522872Y28711D02*
D03*
X513872Y28711D02*
D03*
X486872Y28710D02*
D03*
X495872D02*
D03*
X477872D02*
D03*
X504872D02*
D03*
X474980Y861060D02*
D03*
X471902Y876366D02*
D03*
X462902D02*
D03*
X444902D02*
D03*
X453902D02*
D03*
X435902D02*
D03*
X426902D02*
D03*
X417902D02*
D03*
X454270Y812680D02*
D03*
X419100Y789940D02*
D03*
X444392Y774219D02*
D03*
X438150Y722630D02*
D03*
X408902Y876366D02*
D03*
X399902Y876365D02*
D03*
X396948Y829038D02*
D03*
X390902Y876365D02*
D03*
X381902Y876365D02*
D03*
X372902Y876365D02*
D03*
X363902Y876365D02*
D03*
X354902Y876365D02*
D03*
X345902Y876365D02*
D03*
X387350Y732790D02*
D03*
X380722Y731798D02*
D03*
X379730Y725740D02*
D03*
X386080Y675640D02*
D03*
X359410Y793750D02*
D03*
X349250Y740410D02*
D03*
X342637Y703580D02*
D03*
Y698500D02*
D03*
X469719Y467700D02*
D03*
X448000Y471170D02*
D03*
X453737Y453822D02*
D03*
X469107Y432010D02*
D03*
X444300Y442298D02*
D03*
X437800Y448661D02*
D03*
X420573Y597767D02*
D03*
X428216Y469786D02*
D03*
X417891Y559919D02*
D03*
X397202Y595687D02*
D03*
X350520Y567398D02*
D03*
Y561340D02*
D03*
X340559Y580743D02*
D03*
X405538Y439495D02*
D03*
X424556Y436043D02*
D03*
X425129Y430057D02*
D03*
X398470Y464820D02*
D03*
X336902Y876365D02*
D03*
X327902Y876365D02*
D03*
X318902Y876365D02*
D03*
X330949Y808730D02*
D03*
X330780Y802257D02*
D03*
X309902Y876365D02*
D03*
X300902Y876365D02*
D03*
X291902Y876364D02*
D03*
X282902Y876364D02*
D03*
X273902Y876364D02*
D03*
X264902Y876364D02*
D03*
X255902Y876364D02*
D03*
X260350Y795020D02*
D03*
X297990Y755835D02*
D03*
X320804D02*
D03*
X332211D02*
D03*
X309397D02*
D03*
X296356Y662621D02*
D03*
X292415Y696268D02*
D03*
X261620Y736600D02*
D03*
X272094Y695804D02*
D03*
X287237Y662981D02*
D03*
X267237D02*
D03*
X203387Y882433D02*
D03*
X198744Y890143D02*
D03*
X190023Y892366D02*
D03*
X246902Y876364D02*
D03*
X237902Y876364D02*
D03*
X228902Y876364D02*
D03*
X219902Y876364D02*
D03*
X210990Y877618D02*
D03*
X82023Y892366D02*
D03*
X91023D02*
D03*
X73023D02*
D03*
X109023D02*
D03*
X118023D02*
D03*
X100023D02*
D03*
X46023D02*
D03*
X55023D02*
D03*
X37023D02*
D03*
X64023D02*
D03*
X145023D02*
D03*
X154023D02*
D03*
X136023D02*
D03*
X172023D02*
D03*
X181023D02*
D03*
X163023D02*
D03*
X127023D02*
D03*
X28030Y892007D02*
D03*
X19710Y888577D02*
D03*
X13495Y882066D02*
D03*
X10375Y873625D02*
D03*
X10171Y864627D02*
D03*
X247237Y662981D02*
D03*
X237237D02*
D03*
X10171Y837627D02*
D03*
Y828627D02*
D03*
Y846627D02*
D03*
Y819627D02*
D03*
Y855627D02*
D03*
X215900Y779780D02*
D03*
X305785Y652483D02*
D03*
X285863Y653999D02*
D03*
X275590Y642380D02*
D03*
X265863Y653999D02*
D03*
X267237Y642380D02*
D03*
X266700Y635000D02*
D03*
X309880Y600710D02*
D03*
X335816Y553187D02*
D03*
X335818Y541527D02*
D03*
X312932Y523381D02*
D03*
X305830Y582308D02*
D03*
X303331Y431480D02*
D03*
X276863Y613910D02*
D03*
X235863Y653999D02*
D03*
X225780Y653610D02*
D03*
X246041Y621020D02*
D03*
X255385Y604815D02*
D03*
X252075Y581458D02*
D03*
X231787Y581418D02*
D03*
X469921Y403888D02*
D03*
X465437Y403236D02*
D03*
X444300Y422798D02*
D03*
Y416298D02*
D03*
X450979Y403340D02*
D03*
X463864Y377234D02*
D03*
X444106Y370502D02*
D03*
X424623Y413850D02*
D03*
X405300Y415787D02*
D03*
X398331Y400818D02*
D03*
X431301Y377298D02*
D03*
X424800Y364298D02*
D03*
X395672Y380260D02*
D03*
X398401Y360603D02*
D03*
X477210Y351298D02*
D03*
X455156Y351015D02*
D03*
X444300Y357920D02*
D03*
X468570Y331298D02*
D03*
X452120Y257810D02*
D03*
X447201Y330626D02*
D03*
X447040Y261620D02*
D03*
X450872Y28710D02*
D03*
X459872D02*
D03*
X468872D02*
D03*
X432872D02*
D03*
X441872D02*
D03*
X428050Y331298D02*
D03*
X428331Y288725D02*
D03*
X423872Y28710D02*
D03*
X422413Y91941D02*
D03*
X414872Y28710D02*
D03*
X397720Y337443D02*
D03*
X405872Y28710D02*
D03*
X396872D02*
D03*
X387872D02*
D03*
X378872D02*
D03*
X360872D02*
D03*
X369872D02*
D03*
X351872D02*
D03*
X342872D02*
D03*
X333872D02*
D03*
X307688Y332022D02*
D03*
X322923Y329122D02*
D03*
X313862Y308383D02*
D03*
X292685Y324560D02*
D03*
X302685Y319560D02*
D03*
X271425Y394717D02*
D03*
X240490Y388930D02*
D03*
X254493Y374058D02*
D03*
X269753Y320281D02*
D03*
X193142Y312375D02*
D03*
X270916Y297560D02*
D03*
X312629Y293755D02*
D03*
X297869Y294477D02*
D03*
X251236Y294637D02*
D03*
X297873Y28710D02*
D03*
X315872D02*
D03*
X324873D02*
D03*
X306873D02*
D03*
X279873D02*
D03*
X288873D02*
D03*
X261873D02*
D03*
X270873D02*
D03*
X252873D02*
D03*
X234873D02*
D03*
X243873D02*
D03*
X225873D02*
D03*
X214426Y276966D02*
D03*
X178274Y258242D02*
D03*
X10170Y79065D02*
D03*
Y70065D02*
D03*
Y88065D02*
D03*
Y52065D02*
D03*
Y43065D02*
D03*
Y61065D02*
D03*
Y97065D02*
D03*
X10170Y34065D02*
D03*
X216873Y28611D02*
D03*
X208221Y26133D02*
D03*
X201502Y20145D02*
D03*
X187430Y12710D02*
D03*
X178431D02*
D03*
X196430D02*
D03*
X43431D02*
D03*
X52431D02*
D03*
X34431D02*
D03*
X70431D02*
D03*
X61431D02*
D03*
X17654Y18123D02*
D03*
X25484Y13685D02*
D03*
X12229Y25304D02*
D03*
X133431Y12710D02*
D03*
X142431D02*
D03*
X124431D02*
D03*
X160431D02*
D03*
X169431D02*
D03*
X151431D02*
D03*
X88431D02*
D03*
X97431D02*
D03*
X79431D02*
D03*
X115431D02*
D03*
X106431D02*
D03*
X428082Y344745D02*
D03*
X437777Y338185D02*
D03*
X424800Y370798D02*
D03*
X431301Y364298D02*
D03*
X267050Y594759D02*
D03*
X275984Y634908D02*
D03*
X317500Y508000D02*
D03*
X238760Y574040D02*
D03*
X246041Y653440D02*
D03*
X227059Y614177D02*
D03*
X255990Y613090D02*
D03*
X285932Y613564D02*
D03*
X247059Y672803D02*
D03*
X227059D02*
D03*
X237059D02*
D03*
X257059D02*
D03*
X252362Y754046D02*
D03*
X263769Y755835D02*
D03*
X267059Y672803D02*
D03*
X277059D02*
D03*
X287059D02*
D03*
X286583Y755835D02*
D03*
X275176D02*
D03*
X296041Y652803D02*
D03*
X296627Y672483D02*
D03*
X296781Y581859D02*
D03*
X309330Y608330D02*
D03*
X320040Y689610D02*
D03*
X356935Y712470D02*
D03*
X355025Y755835D02*
D03*
X361950Y712470D02*
D03*
X367030D02*
D03*
X366432Y755835D02*
D03*
X343618D02*
D03*
X193040Y581660D02*
D03*
X212090Y621030D02*
D03*
X241251Y581472D02*
D03*
X280430Y565150D02*
D03*
X308610Y777240D02*
D03*
X299720D02*
D03*
X356935Y702310D02*
D03*
Y707390D02*
D03*
X361950D02*
D03*
Y702310D02*
D03*
X367030Y707390D02*
D03*
Y702310D02*
D03*
X392678Y679973D02*
D03*
X286614Y641342D02*
D03*
X285750Y623570D02*
D03*
X697230Y389890D02*
D03*
X411726Y429612D02*
D03*
X391984Y416514D02*
D03*
X411255Y439495D02*
D03*
X390876Y437960D02*
D03*
X412486Y448660D02*
D03*
X418454Y455216D02*
D03*
X405300Y462310D02*
D03*
X540867Y525780D02*
D03*
X875030Y140970D02*
D03*
X487229Y93505D02*
D03*
X587018Y91186D02*
D03*
X562202Y91440D02*
D03*
X556952D02*
D03*
X416642Y318876D02*
D03*
X421792Y321926D02*
D03*
X386080Y331470D02*
D03*
X389890Y335280D02*
D03*
X592268Y91186D02*
D03*
X464710Y296752D02*
D03*
X473710Y283210D02*
D03*
X792480Y623570D02*
D03*
X777240D02*
D03*
X784860D02*
D03*
X792480Y617220D02*
D03*
X845930Y551070D02*
D03*
X838200Y201449D02*
D03*
X838200Y195580D02*
D03*
X838632Y286881D02*
D03*
Y292131D02*
D03*
X840835Y376482D02*
D03*
X459740Y773430D02*
D03*
X453390D02*
D03*
X525363Y479680D02*
D03*
X814070Y327660D02*
D03*
X808707Y293305D02*
D03*
X795228Y303530D02*
D03*
X283622Y169768D02*
D03*
X284232Y163594D02*
D03*
X317220Y267853D02*
D03*
X322316Y269116D02*
D03*
X317309Y257523D02*
D03*
X331681Y314742D02*
D03*
X297322Y258143D02*
D03*
X327362Y257426D02*
D03*
X287685Y308560D02*
D03*
X361950Y114300D02*
D03*
X317554Y275549D02*
D03*
X302571Y258025D02*
D03*
X305957Y267967D02*
D03*
X311205Y268109D02*
D03*
X289560Y201930D02*
D03*
X589881Y569681D02*
D03*
X722630Y289560D02*
D03*
X648322Y557595D02*
D03*
X622705Y518784D02*
D03*
X609999Y520893D02*
D03*
X614205Y517751D02*
D03*
X201906Y296202D02*
D03*
X188064Y292152D02*
D03*
X745490Y547829D02*
D03*
X742933Y552414D02*
D03*
X201479Y316981D02*
D03*
X219977Y310590D02*
D03*
X214328Y86360D02*
D03*
X754380Y220980D02*
D03*
Y214630D02*
D03*
X748030D02*
D03*
X741680D02*
D03*
X748030Y220980D02*
D03*
X688060D02*
D03*
X681710Y214630D02*
D03*
Y220980D02*
D03*
X688060Y214630D02*
D03*
X694410D02*
D03*
X372893Y165256D02*
D03*
X787400Y149860D02*
D03*
X878840Y213360D02*
D03*
X884090D02*
D03*
X129540Y656590D02*
D03*
Y699770D02*
D03*
Y723900D02*
D03*
X475647Y764158D02*
D03*
X381569Y550990D02*
D03*
X355600Y626110D02*
D03*
X360680D02*
D03*
X491490Y716280D02*
D03*
X518156Y811842D02*
D03*
X172740Y752321D02*
D03*
X788110Y349674D02*
D03*
X819150Y396240D02*
D03*
X811909Y593291D02*
D03*
X825491Y522352D02*
D03*
X732790Y416560D02*
D03*
X184479Y437102D02*
D03*
X199390Y214630D02*
D03*
X136412Y123058D02*
D03*
X186690Y256540D02*
D03*
X365760Y626110D02*
D03*
X569602Y768609D02*
D03*
X618490Y765810D02*
D03*
X654818Y767301D02*
D03*
X628766Y520303D02*
D03*
X487275Y796750D02*
D03*
X557087Y769323D02*
D03*
X204916Y276582D02*
D03*
X482028Y542988D02*
D03*
X676910Y767080D02*
D03*
X365760Y631190D02*
D03*
X360680D02*
D03*
X355600D02*
D03*
X365760Y621030D02*
D03*
X360680D02*
D03*
X355600D02*
D03*
X838010Y421447D02*
D03*
X509330Y477523D02*
D03*
X824580Y425450D02*
D03*
X818330Y425450D02*
D03*
X514574Y477766D02*
D03*
X325120Y114848D02*
D03*
X287223Y268829D02*
D03*
X284724Y264160D02*
D03*
X294527Y280089D02*
D03*
X268862Y235000D02*
D03*
X269391Y270871D02*
D03*
X760730Y259080D02*
D03*
X755332D02*
D03*
X749935D02*
D03*
X744538D02*
D03*
X739140D02*
D03*
X786130Y203200D02*
D03*
X837852Y519643D02*
D03*
X252730Y782320D02*
D03*
X485170Y517194D02*
D03*
X362015Y653406D02*
D03*
X509231Y422648D02*
D03*
X480843Y491009D02*
D03*
X314070Y357740D02*
D03*
X452024Y389812D02*
D03*
X451825Y377669D02*
D03*
X424570Y423058D02*
D03*
X432545Y415207D02*
D03*
X415843Y413685D02*
D03*
X411480Y416127D02*
D03*
X371915Y334127D02*
D03*
X371946Y328827D02*
D03*
X372125Y323580D02*
D03*
X593613Y629173D02*
D03*
X262839Y359410D02*
D03*
X687070Y119380D02*
D03*
X633730Y116264D02*
D03*
X678180Y88900D02*
D03*
X400940Y125414D02*
D03*
X350959Y431544D02*
D03*
X688653Y724769D02*
D03*
X675640Y731943D02*
D03*
Y737870D02*
D03*
Y749723D02*
D03*
Y743797D02*
D03*
X386080Y279400D02*
D03*
X403860Y268445D02*
D03*
X549911Y463637D02*
D03*
X553530Y458884D02*
D03*
X536136Y459219D02*
D03*
X548640Y453390D02*
D03*
X547060Y442377D02*
D03*
X515300Y448798D02*
D03*
X483715Y428201D02*
D03*
X450016Y448424D02*
D03*
X706076Y498700D02*
D03*
X726434D02*
D03*
X719648D02*
D03*
X712862D02*
D03*
X699290D02*
D03*
X387240Y162996D02*
D03*
X617293Y751290D02*
D03*
X611644Y751357D02*
D03*
X443674Y324309D02*
D03*
X440656Y320322D02*
D03*
X560176Y428832D02*
D03*
X588303Y442675D02*
D03*
X603250D02*
D03*
X600710Y458470D02*
D03*
X597819Y465034D02*
D03*
X659130Y546100D02*
D03*
X695970Y578967D02*
D03*
X691350Y519630D02*
D03*
X666750Y519430D02*
D03*
X362723Y261042D02*
D03*
X350520Y262663D02*
D03*
X344170D02*
D03*
X347980Y277506D02*
D03*
X397456Y261425D02*
D03*
X405631Y260720D02*
D03*
X140970Y559348D02*
D03*
X237886Y288398D02*
D03*
X251236Y289092D02*
D03*
X252912Y271099D02*
D03*
X251236Y300908D02*
D03*
X263162Y271671D02*
D03*
X273176Y280583D02*
D03*
X513610Y682150D02*
D03*
X515244Y616908D02*
D03*
Y623258D02*
D03*
X505128Y603378D02*
D03*
X511335Y603086D02*
D03*
X514661Y757879D02*
D03*
X269471Y399590D02*
D03*
X334010Y383540D02*
D03*
X327660Y388620D02*
D03*
X302649Y396240D02*
D03*
X304800Y436880D02*
D03*
X345497Y352218D02*
D03*
X242913Y402182D02*
D03*
Y395339D02*
D03*
X381324Y299063D02*
D03*
X456383Y147966D02*
D03*
X455930Y242570D02*
D03*
X461010Y153670D02*
D03*
X449021Y235000D02*
D03*
X460226Y247271D02*
D03*
X299940Y280875D02*
D03*
X342900Y277756D02*
D03*
X242053Y306432D02*
D03*
X318392Y293853D02*
D03*
X313798Y298616D02*
D03*
X300418Y268118D02*
D03*
X527403Y362386D02*
D03*
X299956Y358138D02*
D03*
X312420Y199390D02*
D03*
X515800Y357798D02*
D03*
X629050Y232048D02*
D03*
Y240048D02*
D03*
X515800Y364298D02*
D03*
X501800Y415942D02*
D03*
X389933Y687776D02*
D03*
X226984Y379474D02*
D03*
X588304Y496982D02*
D03*
X588645Y489924D02*
D03*
X590936Y485190D02*
D03*
X589280Y480060D02*
D03*
X595367Y489053D02*
D03*
X599335Y492490D02*
D03*
X565150Y496570D02*
D03*
Y516915D02*
D03*
X668429Y418017D02*
D03*
X267560Y372697D02*
D03*
X263810Y378292D02*
D03*
X431301Y448661D02*
D03*
X430390Y457571D02*
D03*
X321310Y344170D02*
D03*
X331200Y353662D02*
D03*
X287020Y356870D02*
D03*
X281770D02*
D03*
X372109Y318330D02*
D03*
X372783Y307717D02*
D03*
X372772Y312979D02*
D03*
X271625Y333349D02*
D03*
X266589Y341836D02*
D03*
X270552Y348791D02*
D03*
X261817Y327281D02*
D03*
X404766Y520226D02*
D03*
X398100Y520020D02*
D03*
X408340Y527439D02*
D03*
X402735Y515385D02*
D03*
X451738Y530122D02*
D03*
X466344D02*
D03*
X485838Y539178D02*
D03*
X457849Y530122D02*
D03*
X445770Y521970D02*
D03*
X412205Y518497D02*
D03*
X416497Y521905D02*
D03*
X486550Y455798D02*
D03*
X480113Y473950D02*
D03*
X497910Y477534D02*
D03*
X503251Y477470D02*
D03*
X522674Y420260D02*
D03*
X502800Y422661D02*
D03*
X490037Y422707D02*
D03*
X489938Y416298D02*
D03*
X489696Y403048D02*
D03*
X483342Y416393D02*
D03*
X489804Y429402D02*
D03*
X489800Y435798D02*
D03*
X495924Y429298D02*
D03*
X644625Y456897D02*
D03*
X628650Y454660D02*
D03*
X361200Y529460D02*
D03*
X370851Y524750D02*
D03*
X365760Y508000D02*
D03*
X368300Y302260D02*
D03*
X462416Y286247D02*
D03*
X459740Y256540D02*
D03*
X464490Y261878D02*
D03*
X389477Y261142D02*
D03*
X465463Y490362D02*
D03*
X465490Y485085D02*
D03*
X477948Y517105D02*
D03*
X520086Y479706D02*
D03*
X495300Y516890D02*
D03*
X516064Y519810D02*
D03*
X524686Y519356D02*
D03*
X553126Y519439D02*
D03*
X348384Y194864D02*
D03*
X317500Y778510D02*
D03*
X521594Y616908D02*
D03*
Y623258D02*
D03*
X160020Y650240D02*
D03*
Y656590D02*
D03*
X161386Y664700D02*
D03*
X623490Y724243D02*
D03*
X598170Y657860D02*
D03*
X586680Y659300D02*
D03*
Y654050D02*
D03*
X574040Y684150D02*
D03*
Y699770D02*
D03*
X477210Y344798D02*
D03*
X468759Y276795D02*
D03*
X341846Y532190D02*
D03*
X389890Y657860D02*
D03*
X373380Y660400D02*
D03*
X377190Y665480D02*
D03*
X262788Y352308D02*
D03*
X292676Y309909D02*
D03*
X204095Y406400D02*
D03*
X249865Y386647D02*
D03*
X318196Y407340D02*
D03*
X595835Y409261D02*
D03*
X322710Y411854D02*
D03*
X377190Y359512D02*
D03*
X345747Y344118D02*
D03*
X342997Y473230D02*
D03*
Y486116D02*
D03*
X428130Y296752D02*
D03*
X432601Y322283D02*
D03*
X435886Y181610D02*
D03*
X261801Y332281D02*
D03*
X254765Y336186D02*
D03*
X239210Y332255D02*
D03*
X247015Y323498D02*
D03*
X264953Y293624D02*
D03*
X292884Y294863D02*
D03*
X255936Y309499D02*
D03*
X290805Y508831D02*
D03*
X276230Y502760D02*
D03*
X226300Y603250D02*
D03*
X312420Y490087D02*
D03*
X296909Y622780D02*
D03*
X290767Y565530D02*
D03*
X271552Y581660D02*
D03*
X245954Y492412D02*
D03*
X240843Y496487D02*
D03*
X197735Y544474D02*
D03*
X202960Y543967D02*
D03*
X318505Y630925D02*
D03*
X295910Y595630D02*
D03*
X229210Y475628D02*
D03*
X322962Y486536D02*
D03*
X332740Y477520D02*
D03*
X333600Y482699D02*
D03*
X308610Y594360D02*
D03*
X222250Y618490D02*
D03*
X337820Y643890D02*
D03*
X341713Y640368D02*
D03*
X325120Y635000D02*
D03*
X266966Y613334D02*
D03*
X246380Y601980D02*
D03*
X227870Y634137D02*
D03*
X633190Y807946D02*
D03*
X239520Y355809D02*
D03*
X234950Y344170D02*
D03*
X382945Y352012D02*
D03*
X271256Y376650D02*
D03*
X221451Y338152D02*
D03*
X151130Y294640D02*
D03*
X237490Y270720D02*
D03*
X127407Y224579D02*
D03*
X133350Y213360D02*
D03*
X199220Y235000D02*
D03*
X204470D02*
D03*
X292650Y319545D02*
D03*
X821690Y609600D02*
D03*
X816440D02*
D03*
X836829Y609892D02*
D03*
X831535Y609804D02*
D03*
X462345Y758190D02*
D03*
X468182Y341648D02*
D03*
X444310Y383793D02*
D03*
X559120Y671652D02*
D03*
X544830Y766528D02*
D03*
X568960Y679070D02*
D03*
X567075Y712926D02*
D03*
X642325Y679070D02*
D03*
X689660Y556887D02*
D03*
X846903Y522459D02*
D03*
X846839Y533400D02*
D03*
X790602Y758190D02*
D03*
X372658Y290458D02*
D03*
Y296164D02*
D03*
X647812Y518138D02*
D03*
X656598Y489340D02*
D03*
X638857Y518129D02*
D03*
X627590Y657183D02*
D03*
X669510Y505435D02*
D03*
X668701Y500248D02*
D03*
X385038Y263945D02*
D03*
X468706Y251633D02*
D03*
X676473Y558882D02*
D03*
X643061Y489000D02*
D03*
X646477Y492986D02*
D03*
X630419Y489899D02*
D03*
X635949D02*
D03*
X618490Y488950D02*
D03*
X737870Y532130D02*
D03*
X533422Y538921D02*
D03*
X545151Y429612D02*
D03*
X592466Y751191D02*
D03*
X607711Y732033D02*
D03*
X631465Y751565D02*
D03*
X625521Y751984D02*
D03*
X687070Y826770D02*
D03*
X687328Y797061D02*
D03*
X753988Y741680D02*
D03*
X725170Y839535D02*
D03*
X679022Y698700D02*
D03*
X612238Y791172D02*
D03*
X656590Y803910D02*
D03*
X688340Y701867D02*
D03*
X346387Y720544D02*
D03*
X381000Y524750D02*
D03*
X585600Y726910D02*
D03*
X632460Y125670D02*
D03*
X635667Y121514D02*
D03*
X464705Y93520D02*
D03*
X470104D02*
D03*
X364490Y163830D02*
D03*
X376074Y170882D02*
D03*
X394432Y213537D02*
D03*
X328930Y163830D02*
D03*
X257219Y348870D02*
D03*
X454671Y555783D02*
D03*
X138476Y447812D02*
D03*
X491731Y538944D02*
D03*
X520700D02*
D03*
X504190Y539750D02*
D03*
X527149Y538944D02*
D03*
X472440Y523240D02*
D03*
X666750Y574040D02*
D03*
X661670Y568960D02*
D03*
Y574040D02*
D03*
X671830D02*
D03*
X666750Y568960D02*
D03*
X661670Y563880D02*
D03*
X746189Y423241D02*
D03*
X753110Y427990D02*
D03*
X845820Y542290D02*
D03*
X473326Y770315D02*
D03*
X589350Y766528D02*
D03*
X331244Y421068D02*
D03*
X328976Y416334D02*
D03*
X353060Y842250D02*
D03*
X367030Y670560D02*
D03*
X381000Y530000D02*
D03*
X446343Y514647D02*
D03*
X417107Y530122D02*
D03*
X427617Y521680D02*
D03*
X347275Y779230D02*
D03*
X640040Y656368D02*
D03*
Y650618D02*
D03*
X640164Y644992D02*
D03*
X417345Y579833D02*
D03*
X580682Y570130D02*
D03*
X454660Y570230D02*
D03*
X653172Y672426D02*
D03*
X650268Y632460D02*
D03*
X645018D02*
D03*
X356870Y666750D02*
D03*
X344170Y591820D02*
D03*
X347550Y612205D02*
D03*
X357634Y596394D02*
D03*
X448671Y739000D02*
D03*
X342705Y457935D02*
D03*
X568960Y704850D02*
D03*
X522409Y700117D02*
D03*
X516059D02*
D03*
Y693767D02*
D03*
X522409D02*
D03*
X528662Y606510D02*
D03*
X532785Y603196D02*
D03*
X604520Y629920D02*
D03*
X613354Y631721D02*
D03*
X627260Y632089D02*
D03*
X648337Y712368D02*
D03*
X642520Y704850D02*
D03*
X689610Y84650D02*
D03*
X694690Y93485D02*
D03*
X684534Y97735D02*
D03*
X533111Y92364D02*
D03*
X781364Y301230D02*
D03*
X752675Y303090D02*
D03*
X734060Y334010D02*
D03*
Y325175D02*
D03*
Y316341D02*
D03*
X741680Y316285D02*
D03*
Y325120D02*
D03*
Y333955D02*
D03*
X702310Y725826D02*
D03*
Y720742D02*
D03*
X333403Y346144D02*
D03*
X411987Y90933D02*
D03*
X403860Y95518D02*
D03*
X736109Y98533D02*
D03*
X286583Y191617D02*
D03*
X714231Y45847D02*
D03*
X875030Y96520D02*
D03*
X296685Y299483D02*
D03*
X246838Y255607D02*
D03*
X224790Y261620D02*
D03*
X308685Y299509D02*
D03*
X303685Y299560D02*
D03*
X763650Y774065D02*
D03*
X758190Y774255D02*
D03*
X713570Y755650D02*
D03*
X718820D02*
D03*
X702310Y730909D02*
D03*
X725170Y758190D02*
D03*
X730609Y765218D02*
D03*
X735877Y765210D02*
D03*
X761460Y207242D02*
D03*
X756210D02*
D03*
X743659Y695089D02*
D03*
X739320Y229380D02*
D03*
X477055Y410033D02*
D03*
X469837Y395614D02*
D03*
X467051Y368609D02*
D03*
X454325Y363764D02*
D03*
X676771Y569016D02*
D03*
X676473Y563880D02*
D03*
X710862Y647350D02*
D03*
X592574Y728118D02*
D03*
X694690Y673100D02*
D03*
X703580Y646430D02*
D03*
X676910Y574040D02*
D03*
X539750D02*
D03*
X546100D02*
D03*
Y568960D02*
D03*
X539750D02*
D03*
X455207Y576403D02*
D03*
X697564Y412672D02*
D03*
X463800Y390298D02*
D03*
X445008Y397051D02*
D03*
X444357Y390051D02*
D03*
X679450Y662940D02*
D03*
X684530D02*
D03*
X689610D02*
D03*
X694690D02*
D03*
X679450Y668020D02*
D03*
X684530D02*
D03*
X689610D02*
D03*
X694690D02*
D03*
X689610Y673100D02*
D03*
X684530D02*
D03*
X679450D02*
D03*
X553720Y485140D02*
D03*
X539750Y558800D02*
D03*
X546100D02*
D03*
Y563880D02*
D03*
X539750D02*
D03*
X523033Y400180D02*
D03*
X380475Y114611D02*
D03*
X481952Y93520D02*
D03*
X308610Y140970D02*
D03*
X337820Y511810D02*
D03*
X295910Y458470D02*
D03*
X262662Y452233D02*
D03*
X337820Y520700D02*
D03*
X309555Y448940D02*
D03*
X368005Y210842D02*
D03*
X369717Y215805D02*
D03*
X209240Y254960D02*
D03*
X214800Y255270D02*
D03*
X187960Y238576D02*
D03*
X209846Y147320D02*
D03*
X180340Y120650D02*
D03*
X238760Y102870D02*
D03*
X420181Y811104D02*
D03*
X497280Y812113D02*
D03*
X449580Y664210D02*
D03*
X467643Y813505D02*
D03*
X414020Y811530D02*
D03*
X413676Y676305D02*
D03*
X439420Y806450D02*
D03*
X400348Y821052D02*
D03*
X427618Y834762D02*
D03*
X151130Y325120D02*
D03*
X518160Y91440D02*
D03*
X511810D02*
D03*
X825322Y352946D02*
D03*
X378246Y387741D02*
D03*
X689704Y313667D02*
D03*
X685800Y309792D02*
D03*
X681542Y300866D02*
D03*
X690880Y326390D02*
D03*
X638770Y737492D02*
D03*
Y731742D02*
D03*
Y743242D02*
D03*
X661670Y787500D02*
D03*
X133350Y345440D02*
D03*
X518160Y671830D02*
D03*
Y666750D02*
D03*
X523240Y671830D02*
D03*
Y666750D02*
D03*
X528320Y671830D02*
D03*
X523240Y661670D02*
D03*
X518160D02*
D03*
X533400D02*
D03*
Y666750D02*
D03*
Y671830D02*
D03*
X528320Y661670D02*
D03*
Y666750D02*
D03*
X568960Y699770D02*
D03*
Y684150D02*
D03*
X637440D02*
D03*
X642520D02*
D03*
Y699770D02*
D03*
X637440D02*
D03*
X468630Y758190D02*
D03*
X535700Y743797D02*
D03*
Y737870D02*
D03*
Y731943D02*
D03*
X671830Y568960D02*
D03*
Y563880D02*
D03*
Y558800D02*
D03*
X661670D02*
D03*
X666750Y563880D02*
D03*
Y558800D02*
D03*
X195580Y165165D02*
D03*
X200725Y151130D02*
D03*
X616087Y569930D02*
D03*
X568390Y632460D02*
D03*
X563140D02*
D03*
X559792Y408998D02*
D03*
X566109Y413061D02*
D03*
X318862Y308383D02*
D03*
X331631Y328903D02*
D03*
X360680Y140970D02*
D03*
X292685Y329560D02*
D03*
X238203Y435504D02*
D03*
X233085Y434337D02*
D03*
X474980Y648970D02*
D03*
X572440Y646138D02*
D03*
X563434Y622134D02*
D03*
X467672Y516510D02*
D03*
X497590Y530910D02*
D03*
X511570Y528410D02*
D03*
X430763Y514117D02*
D03*
X760730Y835660D02*
D03*
X659130Y809347D02*
D03*
X269240Y457200D02*
D03*
X214630Y78740D02*
D03*
X229922Y73664D02*
D03*
X227330Y69099D02*
D03*
X226958Y63640D02*
D03*
X235946Y73397D02*
D03*
X572440Y657638D02*
D03*
Y651888D02*
D03*
X699296Y492760D02*
D03*
X596559Y417003D02*
D03*
X726440Y434340D02*
D03*
X533400Y773430D02*
D03*
X725170Y556260D02*
D03*
X497233Y549440D02*
D03*
X441740Y586751D02*
D03*
X454986Y589841D02*
D03*
X424504Y455262D02*
D03*
X425140Y442298D02*
D03*
X417985Y442122D02*
D03*
X450800Y416298D02*
D03*
X457200Y416560D02*
D03*
X411060Y471170D02*
D03*
X552450Y553720D02*
D03*
X784860Y712470D02*
D03*
X789875Y299688D02*
D03*
X535700Y749723D02*
D03*
X595170Y779979D02*
D03*
X770890Y648970D02*
D03*
X776140D02*
D03*
X356935Y578321D02*
D03*
X502768Y344840D02*
D03*
X486387Y339933D02*
D03*
X509300Y351298D02*
D03*
X515800Y345056D02*
D03*
Y351298D02*
D03*
X495693Y351454D02*
D03*
X502713Y351232D02*
D03*
X347780Y217696D02*
D03*
X348975Y535940D02*
D03*
Y527699D02*
D03*
X259080Y424180D02*
D03*
X416732Y570103D02*
D03*
X370110Y565498D02*
D03*
X374065Y559153D02*
D03*
X363024Y573480D02*
D03*
X352850Y554538D02*
D03*
X224650Y191014D02*
D03*
X213549Y185641D02*
D03*
X712868Y492760D02*
D03*
X719654D02*
D03*
X726440D02*
D03*
X706082D02*
D03*
X207010Y652780D02*
D03*
X166370Y613410D02*
D03*
X171461Y638113D02*
D03*
X171450Y627380D02*
D03*
X171211Y632869D02*
D03*
X166214Y592200D02*
D03*
X171450Y591820D02*
D03*
X836790Y256881D02*
D03*
Y262131D02*
D03*
X213219Y54976D02*
D03*
X157730Y675640D02*
D03*
Y688340D02*
D03*
X167640Y701040D02*
D03*
X213338Y60547D02*
D03*
X868546Y184362D02*
D03*
Y191848D02*
D03*
Y214306D02*
D03*
Y206820D02*
D03*
X809639Y274941D02*
D03*
X810337Y280144D02*
D03*
X270065Y428601D02*
D03*
X878840Y290830D02*
D03*
Y284480D02*
D03*
X810260Y288290D02*
D03*
X246380Y214630D02*
D03*
X786130Y579120D02*
D03*
X515797Y422802D02*
D03*
X447621Y344724D02*
D03*
X457040Y403732D02*
D03*
X457200Y396240D02*
D03*
X463940Y409701D02*
D03*
X588302Y417381D02*
D03*
X396584Y442180D02*
D03*
X523901Y439172D02*
D03*
X522300Y449310D02*
D03*
X508301Y448443D02*
D03*
X502676Y448525D02*
D03*
X502920Y441960D02*
D03*
X489412Y442521D02*
D03*
X542402Y477408D02*
D03*
X516028Y442036D02*
D03*
X418301Y436310D02*
D03*
X476800Y390298D02*
D03*
Y383798D02*
D03*
X476862Y377052D02*
D03*
X483301Y370798D02*
D03*
X467118Y455510D02*
D03*
X448310Y478790D02*
D03*
X448576Y456479D02*
D03*
X480801Y437387D02*
D03*
X800100Y604520D02*
D03*
X792480D02*
D03*
X800100Y610870D02*
D03*
X792480D02*
D03*
X800100Y617220D02*
D03*
Y623570D02*
D03*
X395479Y389074D02*
D03*
X452468Y435915D02*
D03*
X529027Y461798D02*
D03*
X463822Y383735D02*
D03*
X427503Y386941D02*
D03*
X505789Y455981D02*
D03*
X281940Y779780D02*
D03*
X270510D02*
D03*
X336550Y779230D02*
D03*
X292493Y779780D02*
D03*
X348168Y211254D02*
D03*
X360829Y211290D02*
D03*
X311508Y315737D02*
D03*
X297683Y314560D02*
D03*
X297685Y309560D02*
D03*
Y304560D02*
D03*
X302685Y314560D02*
D03*
Y309560D02*
D03*
Y304560D02*
D03*
X655051Y240048D02*
D03*
X516312Y429298D02*
D03*
X470376Y409738D02*
D03*
X495880Y461809D02*
D03*
X496050Y455436D02*
D03*
X285990Y683512D02*
D03*
X529590Y326390D02*
D03*
X444419Y435728D02*
D03*
X516169Y435672D02*
D03*
X437800Y377810D02*
D03*
X435682Y400016D02*
D03*
X427622Y392750D02*
D03*
X424800Y377298D02*
D03*
X418218Y351352D02*
D03*
X405741Y364146D02*
D03*
X411827Y351464D02*
D03*
X418301Y376787D02*
D03*
X444500Y364490D02*
D03*
X437898Y344398D02*
D03*
X431800Y352547D02*
D03*
X444245Y350851D02*
D03*
X430789Y422798D02*
D03*
X451507Y396953D02*
D03*
X302685Y324560D02*
D03*
X312585Y324945D02*
D03*
X437800Y364298D02*
D03*
X508620Y442163D02*
D03*
X579050Y260048D02*
D03*
X655156Y260018D02*
D03*
X589050Y216048D02*
D03*
X503300Y386873D02*
D03*
X506050Y327798D02*
D03*
X579050Y276048D02*
D03*
X502977Y357498D02*
D03*
X489800Y370798D02*
D03*
X525550Y380802D02*
D03*
X483301Y383798D02*
D03*
X509300Y357798D02*
D03*
X496301Y364298D02*
D03*
X589050Y232048D02*
D03*
X637051Y240048D02*
D03*
X543952Y297991D02*
D03*
X641050Y158048D02*
D03*
X655051Y180048D02*
D03*
X645051Y192048D02*
D03*
X579050Y164048D02*
D03*
X655051Y220048D02*
D03*
X629050Y208048D02*
D03*
X655051Y196048D02*
D03*
X476572Y364070D02*
D03*
X528801Y338298D02*
D03*
X579050Y204048D02*
D03*
Y180048D02*
D03*
X589050Y184048D02*
D03*
Y176048D02*
D03*
X655333Y275596D02*
D03*
X437800Y435798D02*
D03*
X431301Y442298D02*
D03*
X408118Y380298D02*
D03*
X410282Y361978D02*
D03*
X444300Y429298D02*
D03*
X431301Y357798D02*
D03*
X424800D02*
D03*
X411407Y399993D02*
D03*
X405575Y338751D02*
D03*
X472190Y358024D02*
D03*
X572440Y731742D02*
D03*
Y737492D02*
D03*
Y743242D02*
D03*
X597050Y240048D02*
D03*
X645050Y248048D02*
D03*
X579050Y220048D02*
D03*
X534759Y341183D02*
D03*
X605050Y232048D02*
D03*
X589050Y248048D02*
D03*
X522051Y351548D02*
D03*
X645050Y232048D02*
D03*
X605050Y240048D02*
D03*
X484072Y364804D02*
D03*
X596800Y255798D02*
D03*
X521050Y386873D02*
D03*
X645050Y256048D02*
D03*
X489775Y351261D02*
D03*
X597051Y248048D02*
D03*
X515800Y370798D02*
D03*
X629051Y248048D02*
D03*
X483301Y396798D02*
D03*
X655051Y295798D02*
D03*
X528496Y351679D02*
D03*
X597050Y288048D02*
D03*
X637050Y256048D02*
D03*
X509074Y377484D02*
D03*
X652551Y280048D02*
D03*
X483301Y390298D02*
D03*
X522300Y364298D02*
D03*
X637051Y248048D02*
D03*
X597050Y280048D02*
D03*
X655051Y289798D02*
D03*
X528496Y344631D02*
D03*
X589311Y280048D02*
D03*
X645050Y272048D02*
D03*
X496403Y383764D02*
D03*
X589050Y272048D02*
D03*
X496301Y377298D02*
D03*
X645050Y264048D02*
D03*
X589050Y264048D02*
D03*
X597050Y272048D02*
D03*
X637050Y264048D02*
D03*
X502574Y377234D02*
D03*
X597050Y264048D02*
D03*
X702310Y715659D02*
D03*
X731583Y658307D02*
D03*
X755532Y658270D02*
D03*
X731415Y682810D02*
D03*
X755708Y682997D02*
D03*
X759558Y735455D02*
D03*
X765128Y741680D02*
D03*
X861060Y688340D02*
D03*
Y673368D02*
D03*
Y680854D02*
D03*
X868546Y688340D02*
D03*
Y673368D02*
D03*
Y680854D02*
D03*
X861060Y695826D02*
D03*
X868546D02*
D03*
X861060Y665882D02*
D03*
X868546D02*
D03*
X861060Y214306D02*
D03*
Y206820D02*
D03*
Y191848D02*
D03*
Y184362D02*
D03*
X753110Y694690D02*
D03*
X718003Y705348D02*
D03*
D157*
X233680Y813940D02*
D03*
D158*
X893000Y850000D02*
D03*
Y50000D02*
D03*
X35700Y824600D02*
D03*
Y88000D02*
D03*
M02*
