G04*
G04 #@! TF.GenerationSoftware,Altium Limited,Altium Designer,25.8.1 (18)*
G04*
G04 Layer_Physical_Order=3*
G04 Layer_Color=36540*
%FSLAX44Y44*%
%MOMM*%
G71*
G04*
G04 #@! TF.SameCoordinates,50A81475-766C-47D9-A650-78FF0CAAC4AD*
G04*
G04*
G04 #@! TF.FilePolarity,Positive*
G04*
G01*
G75*
%ADD11C,0.2000*%
%ADD12C,0.3000*%
%ADD13C,0.1000*%
%ADD14C,0.1500*%
%ADD17C,0.1250*%
%ADD140C,0.2500*%
%ADD144C,0.1600*%
%ADD150C,0.3000*%
%ADD152C,7.0000*%
%ADD153C,1.5300*%
%ADD154C,0.7600*%
%ADD155C,1.6500*%
%ADD157C,1.1900*%
%ADD158R,1.5300X1.5300*%
%ADD159C,0.4000*%
%ADD160C,1.0000*%
%ADD161C,4.4000*%
G36*
X598970Y467869D02*
X598976Y467700D01*
X598993Y467527D01*
X599022Y467351D01*
X599062Y467173D01*
X599114Y466992D01*
X599177Y466808D01*
X599338Y466431D01*
X599436Y466239D01*
X599546Y466044D01*
X596844Y466780D01*
X597011Y466883D01*
X597160Y466995D01*
X597291Y467116D01*
X597405Y467247D01*
X597501Y467388D01*
X597580Y467537D01*
X597641Y467697D01*
X597685Y467865D01*
X597711Y468044D01*
X597720Y468231D01*
X598970Y467869D01*
D02*
G37*
G36*
X269873Y460119D02*
X269896Y459941D01*
X269935Y459766D01*
X269989Y459595D01*
X270059Y459426D01*
X270144Y459260D01*
X270245Y459098D01*
X270361Y458938D01*
X270493Y458782D01*
X270640Y458628D01*
X267840D01*
X267987Y458782D01*
X268119Y458938D01*
X268235Y459098D01*
X268336Y459260D01*
X268421Y459426D01*
X268491Y459595D01*
X268545Y459766D01*
X268584Y459941D01*
X268607Y460119D01*
X268615Y460300D01*
X269865D01*
X269873Y460119D01*
D02*
G37*
G36*
X412994Y451630D02*
X413021Y451463D01*
X413066Y451295D01*
X413130Y451126D01*
X413210Y450956D01*
X413310Y450784D01*
X413427Y450612D01*
X413562Y450438D01*
X413714Y450264D01*
X413885Y450088D01*
X411086D01*
X411256Y450264D01*
X411544Y450612D01*
X411661Y450784D01*
X411760Y450956D01*
X411842Y451126D01*
X411904Y451295D01*
X411950Y451463D01*
X411977Y451630D01*
X411986Y451796D01*
X412985D01*
X412994Y451630D01*
D02*
G37*
G36*
X263915Y450651D02*
X263783Y450495D01*
X263667Y450335D01*
X263566Y450173D01*
X263481Y450007D01*
X263411Y449838D01*
X263357Y449666D01*
X263318Y449492D01*
X263295Y449314D01*
X263287Y449133D01*
X262037D01*
X262029Y449314D01*
X262006Y449492D01*
X261967Y449666D01*
X261913Y449838D01*
X261843Y450007D01*
X261758Y450173D01*
X261657Y450335D01*
X261541Y450495D01*
X261409Y450651D01*
X261262Y450804D01*
X264062D01*
X263915Y450651D01*
D02*
G37*
G36*
X136859Y450323D02*
X137002Y450214D01*
X137153Y450118D01*
X137312Y450035D01*
X137481Y449965D01*
X137658Y449908D01*
X137844Y449864D01*
X138040Y449834D01*
X138243Y449816D01*
X138456Y449812D01*
X136476Y447832D01*
X136472Y448045D01*
X136454Y448248D01*
X136424Y448443D01*
X136380Y448630D01*
X136323Y448807D01*
X136253Y448976D01*
X136170Y449135D01*
X136074Y449286D01*
X135964Y449429D01*
X135842Y449562D01*
X136726Y450446D01*
X136859Y450323D01*
D02*
G37*
G36*
X604455Y444292D02*
X604837Y444108D01*
X605024Y444033D01*
X605389Y443918D01*
X605567Y443878D01*
X605743Y443849D01*
X605916Y443832D01*
X606086Y443826D01*
X606448Y442576D01*
X606260Y442567D01*
X606082Y442541D01*
X605913Y442497D01*
X605754Y442436D01*
X605604Y442357D01*
X605463Y442261D01*
X605332Y442147D01*
X605211Y442015D01*
X605099Y441867D01*
X604996Y441700D01*
X604260Y444402D01*
X604455Y444292D01*
D02*
G37*
G36*
X238636Y438475D02*
X238661Y438297D01*
X238702Y438124D01*
X238760Y437956D01*
X238834Y437794D01*
X238925Y437638D01*
X239032Y437487D01*
X239156Y437341D01*
X239296Y437201D01*
X239453Y437066D01*
X236667Y436785D01*
X236802Y436956D01*
X236923Y437127D01*
X237029Y437300D01*
X237122Y437473D01*
X237200Y437646D01*
X237264Y437821D01*
X237314Y437996D01*
X237349Y438172D01*
X237370Y438349D01*
X237378Y438526D01*
X238628Y438659D01*
X238636Y438475D01*
D02*
G37*
G36*
X233718Y437256D02*
X233741Y437078D01*
X233780Y436903D01*
X233834Y436732D01*
X233904Y436563D01*
X233989Y436398D01*
X234090Y436235D01*
X234206Y436075D01*
X234338Y435919D01*
X234485Y435765D01*
X231685D01*
X231832Y435919D01*
X231964Y436075D01*
X232080Y436235D01*
X232181Y436398D01*
X232266Y436563D01*
X232336Y436732D01*
X232390Y436903D01*
X232429Y437078D01*
X232452Y437256D01*
X232460Y437437D01*
X233710D01*
X233718Y437256D01*
D02*
G37*
G36*
X726420Y432340D02*
X726207Y432336D01*
X726004Y432318D01*
X725808Y432288D01*
X725622Y432244D01*
X725445Y432187D01*
X725276Y432117D01*
X725117Y432034D01*
X724966Y431938D01*
X724823Y431828D01*
X724690Y431706D01*
X723806Y432590D01*
X723929Y432723D01*
X724038Y432866D01*
X724134Y433017D01*
X724217Y433176D01*
X724287Y433345D01*
X724344Y433522D01*
X724388Y433708D01*
X724418Y433904D01*
X724436Y434107D01*
X724440Y434320D01*
X726420Y432340D01*
D02*
G37*
G36*
X753743Y430909D02*
X753766Y430731D01*
X753805Y430556D01*
X753859Y430385D01*
X753929Y430216D01*
X754014Y430050D01*
X754115Y429888D01*
X754231Y429728D01*
X754363Y429572D01*
X754510Y429418D01*
X751710D01*
X751857Y429572D01*
X751989Y429728D01*
X752105Y429888D01*
X752206Y430050D01*
X752291Y430216D01*
X752361Y430385D01*
X752415Y430556D01*
X752454Y430731D01*
X752477Y430909D01*
X752485Y431090D01*
X753735D01*
X753743Y430909D01*
D02*
G37*
G36*
X746995Y426075D02*
X747013Y425885D01*
X747043Y425703D01*
X747085Y425530D01*
X747139Y425365D01*
X747205Y425209D01*
X747283Y425061D01*
X747373Y424922D01*
X747475Y424791D01*
X747589Y424669D01*
X744789D01*
X744903Y424791D01*
X745005Y424922D01*
X745095Y425061D01*
X745173Y425209D01*
X745239Y425365D01*
X745293Y425530D01*
X745335Y425703D01*
X745365Y425885D01*
X745383Y426075D01*
X745389Y426274D01*
X746989D01*
X746995Y426075D01*
D02*
G37*
G36*
X511803Y424512D02*
X511692Y424389D01*
X511593Y424252D01*
X511506Y424101D01*
X511431Y423937D01*
X511368Y423759D01*
X511316Y423568D01*
X511277Y423363D01*
X511250Y423145D01*
X511235Y422913D01*
X511231Y422668D01*
X509251Y424648D01*
X509496Y424651D01*
X509947Y424694D01*
X510151Y424733D01*
X510342Y424784D01*
X510520Y424847D01*
X510684Y424923D01*
X510835Y425010D01*
X510972Y425108D01*
X511096Y425219D01*
X511803Y424512D01*
D02*
G37*
G36*
X260309Y422576D02*
X260021Y422228D01*
X259904Y422055D01*
X259805Y421884D01*
X259724Y421713D01*
X259661Y421544D01*
X259616Y421376D01*
X259589Y421209D01*
X259580Y421044D01*
X258580D01*
X258571Y421209D01*
X258544Y421376D01*
X258499Y421544D01*
X258436Y421713D01*
X258355Y421884D01*
X258256Y422055D01*
X258139Y422228D01*
X258004Y422401D01*
X257851Y422576D01*
X257680Y422752D01*
X260480D01*
X260309Y422576D01*
D02*
G37*
G36*
X333252Y421254D02*
X333374Y420851D01*
X333446Y420664D01*
X333526Y420487D01*
X333613Y420321D01*
X333708Y420164D01*
X333810Y420018D01*
X333920Y419881D01*
X334038Y419755D01*
X333356Y418669D01*
X333218Y418795D01*
X333073Y418903D01*
X332922Y418993D01*
X332765Y419064D01*
X332601Y419118D01*
X332431Y419154D01*
X332254Y419172D01*
X332071Y419172D01*
X331881Y419154D01*
X331685Y419118D01*
X333203Y421471D01*
X333252Y421254D01*
D02*
G37*
G36*
X590220Y419046D02*
X590148Y418973D01*
X589913Y418706D01*
X589892Y418673D01*
X589879Y418646D01*
X589875Y418625D01*
X589879Y418612D01*
X588724Y419336D01*
X588733Y419341D01*
X588753Y419358D01*
X588951Y419548D01*
X589336Y419930D01*
X590220Y419046D01*
D02*
G37*
G36*
X667380Y416315D02*
X667187Y416428D01*
X666810Y416619D01*
X666625Y416696D01*
X666261Y416816D01*
X666083Y416857D01*
X665907Y416887D01*
X665734Y416905D01*
X665563Y416911D01*
X665235Y418161D01*
X665422Y418170D01*
X665600Y418196D01*
X665769Y418240D01*
X665930Y418301D01*
X666082Y418379D01*
X666224Y418475D01*
X666358Y418588D01*
X666483Y418719D01*
X666599Y418867D01*
X666706Y419033D01*
X667380Y416315D01*
D02*
G37*
G36*
X596539Y415003D02*
X596372Y414998D01*
X596208Y414977D01*
X596046Y414943D01*
X595886Y414893D01*
X595729Y414830D01*
X595574Y414751D01*
X595422Y414659D01*
X595272Y414551D01*
X595125Y414429D01*
X594980Y414293D01*
X593849Y415424D01*
X593985Y415569D01*
X594107Y415717D01*
X594214Y415866D01*
X594307Y416019D01*
X594386Y416173D01*
X594449Y416330D01*
X594499Y416490D01*
X594533Y416652D01*
X594553Y416816D01*
X594559Y416983D01*
X596539Y415003D01*
D02*
G37*
G36*
X458429Y414956D02*
X458141Y414608D01*
X458024Y414435D01*
X457925Y414264D01*
X457844Y414093D01*
X457781Y413924D01*
X457736Y413756D01*
X457709Y413589D01*
X457700Y413424D01*
X456700D01*
X456691Y413589D01*
X456664Y413756D01*
X456619Y413924D01*
X456556Y414093D01*
X456475Y414264D01*
X456376Y414435D01*
X456259Y414608D01*
X456124Y414781D01*
X455971Y414956D01*
X455800Y415132D01*
X458600D01*
X458429Y414956D01*
D02*
G37*
G36*
X415776Y411686D02*
X415564Y411686D01*
X415362Y411673D01*
X415167Y411646D01*
X414982Y411605D01*
X414805Y411551D01*
X414636Y411483D01*
X414477Y411401D01*
X414326Y411306D01*
X414183Y411197D01*
X414049Y411074D01*
X413187Y411980D01*
X413309Y412112D01*
X413419Y412254D01*
X413515Y412405D01*
X413600Y412565D01*
X413672Y412733D01*
X413731Y412911D01*
X413778Y413098D01*
X413812Y413293D01*
X413834Y413498D01*
X413843Y413712D01*
X415776Y411686D01*
D02*
G37*
G36*
X244917Y401917D02*
X244960Y401467D01*
X244999Y401262D01*
X245050Y401071D01*
X245113Y400893D01*
X245188Y400729D01*
X245275Y400578D01*
X245374Y400441D01*
X245485Y400318D01*
X244778Y399611D01*
X244654Y399721D01*
X244517Y399820D01*
X244366Y399907D01*
X244202Y399982D01*
X244025Y400046D01*
X243833Y400097D01*
X243629Y400136D01*
X243410Y400163D01*
X243179Y400179D01*
X242934Y400182D01*
X244913Y402162D01*
X244917Y401917D01*
D02*
G37*
G36*
X268963Y397656D02*
X268745Y397705D01*
X268536Y397736D01*
X268337Y397749D01*
X268148Y397743D01*
X267968Y397718D01*
X267798Y397676D01*
X267638Y397614D01*
X267488Y397534D01*
X267347Y397436D01*
X267216Y397319D01*
X266694Y398211D01*
X266794Y398321D01*
X266891Y398448D01*
X266983Y398592D01*
X267072Y398752D01*
X267157Y398928D01*
X267316Y399331D01*
X267390Y399557D01*
X267527Y400059D01*
X268963Y397656D01*
D02*
G37*
G36*
X336014Y383307D02*
X336032Y383104D01*
X336062Y382909D01*
X336106Y382722D01*
X336163Y382545D01*
X336233Y382376D01*
X336316Y382217D01*
X336412Y382066D01*
X336521Y381923D01*
X336644Y381790D01*
X335760Y380906D01*
X335627Y381029D01*
X335484Y381138D01*
X335333Y381234D01*
X335174Y381317D01*
X335005Y381387D01*
X334828Y381444D01*
X334641Y381488D01*
X334446Y381518D01*
X334243Y381536D01*
X334030Y381540D01*
X336010Y383520D01*
X336014Y383307D01*
D02*
G37*
G36*
X264316Y381427D02*
X264325Y381261D01*
X264352Y381094D01*
X264397Y380926D01*
X264460Y380757D01*
X264541Y380586D01*
X264640Y380415D01*
X264756Y380242D01*
X264891Y380068D01*
X265044Y379892D01*
X265215Y379716D01*
X262414Y379724D01*
X262586Y379899D01*
X262739Y380073D01*
X262874Y380246D01*
X262992Y380419D01*
X263091Y380590D01*
X263172Y380760D01*
X263235Y380929D01*
X263280Y381097D01*
X263307Y381264D01*
X263316Y381429D01*
X264316Y381427D01*
D02*
G37*
G36*
X265806Y371736D02*
X265693Y371926D01*
X265573Y372097D01*
X265446Y372247D01*
X265312Y372377D01*
X265170Y372488D01*
X265022Y372578D01*
X264867Y372648D01*
X264706Y372698D01*
X264537Y372728D01*
X264361Y372738D01*
X264653Y373738D01*
X264799Y373745D01*
X264955Y373766D01*
X265121Y373801D01*
X265297Y373849D01*
X265483Y373912D01*
X265886Y374078D01*
X266102Y374182D01*
X266565Y374431D01*
X265806Y371736D01*
D02*
G37*
G36*
X312329Y360201D02*
X312466Y360102D01*
X312617Y360015D01*
X312781Y359940D01*
X312959Y359876D01*
X313150Y359825D01*
X313355Y359786D01*
X313573Y359759D01*
X313805Y359743D01*
X314050Y359740D01*
X312070Y357760D01*
X312067Y358005D01*
X312024Y358455D01*
X311985Y358660D01*
X311933Y358851D01*
X311870Y359029D01*
X311795Y359193D01*
X311708Y359344D01*
X311609Y359481D01*
X311499Y359604D01*
X312206Y360311D01*
X312329Y360201D01*
D02*
G37*
G36*
X280597Y359571D02*
X280723Y359473D01*
X280865Y359379D01*
X281023Y359287D01*
X281197Y359198D01*
X281593Y359029D01*
X281816Y358949D01*
X282309Y358796D01*
X279865Y357479D01*
X279924Y357687D01*
X279964Y357884D01*
X279986Y358072D01*
X279990Y358251D01*
X279975Y358419D01*
X279942Y358579D01*
X279891Y358728D01*
X279821Y358868D01*
X279733Y358998D01*
X279626Y359118D01*
X280488Y359671D01*
X280597Y359571D01*
D02*
G37*
G36*
X285421Y359411D02*
X285556Y359312D01*
X285705Y359223D01*
X285869Y359144D01*
X286048Y359073D01*
X286241Y359013D01*
X286448Y358962D01*
X286670Y358920D01*
X287158Y358865D01*
X285028Y357048D01*
X285043Y357286D01*
X285043Y357512D01*
X285030Y357725D01*
X285002Y357926D01*
X284960Y358114D01*
X284903Y358290D01*
X284833Y358454D01*
X284748Y358605D01*
X284649Y358744D01*
X284536Y358870D01*
X285301Y359519D01*
X285421Y359411D01*
D02*
G37*
G36*
X346130Y355137D02*
X346153Y354959D01*
X346192Y354785D01*
X346246Y354613D01*
X346316Y354444D01*
X346401Y354278D01*
X346502Y354116D01*
X346618Y353956D01*
X346750Y353800D01*
X346897Y353646D01*
X344097D01*
X344245Y353800D01*
X344376Y353956D01*
X344493Y354116D01*
X344593Y354278D01*
X344679Y354444D01*
X344748Y354613D01*
X344803Y354785D01*
X344841Y354959D01*
X344865Y355137D01*
X344872Y355318D01*
X346122D01*
X346130Y355137D01*
D02*
G37*
G36*
X241525Y355576D02*
X241542Y355372D01*
X241573Y355177D01*
X241617Y354991D01*
X241674Y354814D01*
X241743Y354645D01*
X241826Y354485D01*
X241923Y354334D01*
X242032Y354192D01*
X242154Y354059D01*
X241271Y353175D01*
X241137Y353297D01*
X240995Y353406D01*
X240844Y353503D01*
X240684Y353586D01*
X240516Y353656D01*
X240338Y353713D01*
X240152Y353756D01*
X239957Y353787D01*
X239753Y353804D01*
X239541Y353809D01*
X241520Y355789D01*
X241525Y355576D01*
D02*
G37*
G36*
X385374Y354086D02*
X385249Y353949D01*
X385141Y353804D01*
X385050Y353653D01*
X384977Y353495D01*
X384922Y353331D01*
X384883Y353159D01*
X384863Y352981D01*
X384860Y352796D01*
X384874Y352604D01*
X384906Y352406D01*
X382591Y353981D01*
X382808Y354025D01*
X383212Y354138D01*
X383399Y354207D01*
X383576Y354283D01*
X383743Y354369D01*
X383900Y354462D01*
X384048Y354564D01*
X384185Y354674D01*
X384312Y354792D01*
X385374Y354086D01*
D02*
G37*
G36*
X264040Y350726D02*
X263909Y350570D01*
X263792Y350410D01*
X263692Y350247D01*
X263606Y350082D01*
X263537Y349913D01*
X263482Y349742D01*
X263444Y349567D01*
X263420Y349389D01*
X263413Y349208D01*
X262163D01*
X262155Y349389D01*
X262132Y349567D01*
X262093Y349742D01*
X262039Y349913D01*
X261969Y350082D01*
X261884Y350247D01*
X261783Y350410D01*
X261667Y350570D01*
X261535Y350726D01*
X261388Y350880D01*
X264188D01*
X264040Y350726D01*
D02*
G37*
G36*
X256872Y346900D02*
X256671Y346927D01*
X256477Y346938D01*
X256291Y346931D01*
X256111Y346908D01*
X255939Y346868D01*
X255773Y346810D01*
X255615Y346736D01*
X255464Y346645D01*
X255319Y346537D01*
X255182Y346412D01*
X254453Y347450D01*
X254572Y347579D01*
X254682Y347717D01*
X254783Y347865D01*
X254876Y348023D01*
X254959Y348190D01*
X255033Y348368D01*
X255099Y348555D01*
X255156Y348753D01*
X255203Y348960D01*
X255242Y349177D01*
X256872Y346900D01*
D02*
G37*
G36*
X267098Y344807D02*
X267125Y344640D01*
X267170Y344472D01*
X267233Y344303D01*
X267314Y344133D01*
X267413Y343961D01*
X267530Y343789D01*
X267665Y343615D01*
X267818Y343440D01*
X267989Y343264D01*
X265189D01*
X265360Y343440D01*
X265648Y343789D01*
X265765Y343961D01*
X265864Y344133D01*
X265945Y344303D01*
X266008Y344472D01*
X266053Y344640D01*
X266080Y344807D01*
X266089Y344973D01*
X267089D01*
X267098Y344807D01*
D02*
G37*
G36*
X319882Y342770D02*
X319728Y342917D01*
X319572Y343049D01*
X319412Y343165D01*
X319250Y343266D01*
X319084Y343351D01*
X318915Y343421D01*
X318744Y343475D01*
X318569Y343514D01*
X318391Y343537D01*
X318210Y343545D01*
Y344795D01*
X318391Y344803D01*
X318569Y344826D01*
X318744Y344865D01*
X318915Y344919D01*
X319084Y344989D01*
X319250Y345074D01*
X319412Y345175D01*
X319572Y345291D01*
X319728Y345423D01*
X319882Y345570D01*
Y342770D01*
D02*
G37*
G36*
X134603Y343858D02*
X134471Y343702D01*
X134355Y343542D01*
X134254Y343380D01*
X134169Y343214D01*
X134099Y343045D01*
X134045Y342874D01*
X134006Y342699D01*
X133983Y342521D01*
X133975Y342340D01*
X132725D01*
X132717Y342521D01*
X132694Y342699D01*
X132655Y342874D01*
X132601Y343045D01*
X132531Y343214D01*
X132446Y343380D01*
X132345Y343542D01*
X132229Y343702D01*
X132097Y343858D01*
X131950Y344012D01*
X134750D01*
X134603Y343858D01*
D02*
G37*
G36*
X390523Y338196D02*
X390545Y338017D01*
X390583Y337841D01*
X390636Y337669D01*
X390705Y337502D01*
X390788Y337338D01*
X390887Y337178D01*
X391001Y337023D01*
X391130Y336871D01*
X391274Y336723D01*
X388506D01*
X388650Y336871D01*
X388779Y337023D01*
X388893Y337178D01*
X388992Y337338D01*
X389075Y337502D01*
X389143Y337669D01*
X389197Y337841D01*
X389235Y338017D01*
X389257Y338196D01*
X389265Y338380D01*
X390515D01*
X390523Y338196D01*
D02*
G37*
G36*
X256126Y334696D02*
X256002Y334528D01*
X255892Y334360D01*
X255797Y334189D01*
X255717Y334018D01*
X255651Y333845D01*
X255600Y333671D01*
X255564Y333495D01*
X255542Y333318D01*
X255534Y333139D01*
X254284Y333044D01*
X254276Y333227D01*
X254252Y333405D01*
X254211Y333579D01*
X254154Y333748D01*
X254081Y333912D01*
X253992Y334071D01*
X253886Y334225D01*
X253764Y334375D01*
X253626Y334520D01*
X253472Y334660D01*
X256265Y334862D01*
X256126Y334696D01*
D02*
G37*
G36*
X373497Y335380D02*
X373653Y335248D01*
X373813Y335132D01*
X373975Y335031D01*
X374141Y334946D01*
X374310Y334876D01*
X374482Y334822D01*
X374656Y334783D01*
X374834Y334760D01*
X375015Y334752D01*
Y333502D01*
X374834Y333495D01*
X374656Y333471D01*
X374482Y333433D01*
X374310Y333378D01*
X374141Y333309D01*
X373975Y333223D01*
X373813Y333123D01*
X373653Y333006D01*
X373497Y332875D01*
X373343Y332727D01*
Y335527D01*
X373497Y335380D01*
D02*
G37*
G36*
X384463Y333982D02*
X384606Y333872D01*
X384757Y333776D01*
X384916Y333693D01*
X385085Y333623D01*
X385262Y333566D01*
X385448Y333522D01*
X385644Y333492D01*
X385847Y333474D01*
X386060Y333470D01*
X384080Y331490D01*
X384076Y331703D01*
X384058Y331906D01*
X384028Y332102D01*
X383984Y332288D01*
X383927Y332465D01*
X383857Y332634D01*
X383774Y332793D01*
X383678Y332944D01*
X383568Y333087D01*
X383446Y333220D01*
X384330Y334104D01*
X384463Y333982D01*
D02*
G37*
G36*
X273621Y333049D02*
X273632Y332847D01*
X273657Y332653D01*
X273697Y332468D01*
X273750Y332291D01*
X273817Y332123D01*
X273898Y331963D01*
X273993Y331812D01*
X274103Y331669D01*
X274226Y331535D01*
X273310Y330683D01*
X273177Y330805D01*
X273036Y330914D01*
X272885Y331012D01*
X272726Y331097D01*
X272557Y331169D01*
X272379Y331230D01*
X272192Y331278D01*
X271996Y331314D01*
X271791Y331338D01*
X271577Y331349D01*
X273623Y333260D01*
X273621Y333049D01*
D02*
G37*
G36*
X815322Y330194D02*
X815374Y329372D01*
X815394Y329270D01*
X815416Y329189D01*
X815442Y329128D01*
X815470Y329088D01*
X812670D01*
X812699Y329128D01*
X812724Y329189D01*
X812747Y329270D01*
X812766Y329372D01*
X812783Y329495D01*
X812806Y329803D01*
X812820Y330421D01*
X815320D01*
X815322Y330194D01*
D02*
G37*
G36*
X373528Y330080D02*
X373684Y329948D01*
X373844Y329832D01*
X374007Y329731D01*
X374172Y329646D01*
X374341Y329576D01*
X374513Y329522D01*
X374687Y329483D01*
X374865Y329460D01*
X375046Y329452D01*
Y328202D01*
X374865Y328195D01*
X374687Y328171D01*
X374513Y328133D01*
X374341Y328078D01*
X374172Y328009D01*
X374007Y327923D01*
X373844Y327823D01*
X373684Y327706D01*
X373528Y327575D01*
X373374Y327427D01*
Y330227D01*
X373528Y330080D01*
D02*
G37*
G36*
X435233Y324036D02*
X435125Y323915D01*
X435026Y323780D01*
X434937Y323630D01*
X434859Y323466D01*
X434790Y323288D01*
X434732Y323095D01*
X434683Y322888D01*
X434645Y322667D01*
X434599Y322182D01*
X432743Y324278D01*
X432983Y324267D01*
X433210Y324271D01*
X433424Y324287D01*
X433626Y324318D01*
X433815Y324362D01*
X433992Y324420D01*
X434156Y324491D01*
X434307Y324576D01*
X434445Y324675D01*
X434571Y324788D01*
X435233Y324036D01*
D02*
G37*
G36*
X263248Y325859D02*
X263130Y325685D01*
X263026Y325510D01*
X262935Y325335D01*
X262859Y325160D01*
X262796Y324984D01*
X262748Y324808D01*
X262713Y324632D01*
X262692Y324456D01*
X262685Y324280D01*
X261435Y324118D01*
X261427Y324302D01*
X261402Y324481D01*
X261360Y324653D01*
X261302Y324820D01*
X261227Y324980D01*
X261135Y325135D01*
X261026Y325284D01*
X260901Y325426D01*
X260760Y325563D01*
X260601Y325694D01*
X263380Y326034D01*
X263248Y325859D01*
D02*
G37*
G36*
X373974Y324389D02*
X374086Y324240D01*
X374207Y324109D01*
X374338Y323995D01*
X374479Y323898D01*
X374628Y323819D01*
X374788Y323758D01*
X374957Y323714D01*
X375135Y323688D01*
X375322Y323679D01*
X374960Y322429D01*
X374791Y322423D01*
X374618Y322406D01*
X374442Y322377D01*
X374264Y322337D01*
X374083Y322285D01*
X373899Y322222D01*
X373522Y322061D01*
X373330Y321963D01*
X373135Y321854D01*
X373871Y324555D01*
X373974Y324389D01*
D02*
G37*
G36*
X373314Y319947D02*
X373696Y319763D01*
X373883Y319689D01*
X374248Y319574D01*
X374426Y319533D01*
X374602Y319505D01*
X374774Y319487D01*
X374944Y319482D01*
X375306Y318232D01*
X375118Y318223D01*
X374940Y318197D01*
X374771Y318153D01*
X374612Y318091D01*
X374462Y318013D01*
X374322Y317916D01*
X374191Y317802D01*
X374070Y317671D01*
X373957Y317522D01*
X373855Y317355D01*
X373118Y320057D01*
X373314Y319947D01*
D02*
G37*
G36*
X305360Y316224D02*
X305238Y316092D01*
X305128Y315951D01*
X305031Y315800D01*
X304945Y315641D01*
X304872Y315472D01*
X304810Y315294D01*
X304761Y315107D01*
X304723Y314911D01*
X304697Y314705D01*
X304684Y314491D01*
X302794Y316557D01*
X303004Y316552D01*
X303206Y316562D01*
X303400Y316586D01*
X303584Y316624D01*
X303761Y316676D01*
X303929Y316742D01*
X304089Y316823D01*
X304240Y316918D01*
X304383Y317027D01*
X304517Y317150D01*
X305360Y316224D01*
D02*
G37*
G36*
X688088Y316179D02*
X688230Y316069D01*
X688381Y315973D01*
X688540Y315890D01*
X688709Y315820D01*
X688886Y315763D01*
X689073Y315720D01*
X689268Y315689D01*
X689472Y315672D01*
X689684Y315667D01*
X687704Y313687D01*
X687700Y313900D01*
X687682Y314104D01*
X687652Y314299D01*
X687608Y314485D01*
X687551Y314662D01*
X687481Y314831D01*
X687398Y314991D01*
X687302Y315142D01*
X687193Y315284D01*
X687070Y315417D01*
X687954Y316301D01*
X688088Y316179D01*
D02*
G37*
G36*
X296256Y313159D02*
X296103Y313306D01*
X295946Y313438D01*
X295786Y313554D01*
X295623Y313654D01*
X295458Y313739D01*
X295289Y313809D01*
X295117Y313863D01*
X294942Y313902D01*
X294765Y313925D01*
X294584Y313933D01*
X294583Y315183D01*
X294764Y315191D01*
X294941Y315214D01*
X295116Y315253D01*
X295288Y315307D01*
X295456Y315377D01*
X295622Y315462D01*
X295784Y315563D01*
X295944Y315679D01*
X296100Y315811D01*
X296254Y315959D01*
X296256Y313159D01*
D02*
G37*
G36*
X305360Y311224D02*
X305238Y311092D01*
X305128Y310951D01*
X305031Y310800D01*
X304945Y310641D01*
X304872Y310472D01*
X304810Y310294D01*
X304761Y310107D01*
X304723Y309911D01*
X304697Y309705D01*
X304684Y309491D01*
X302794Y311557D01*
X303005Y311552D01*
X303206Y311562D01*
X303400Y311586D01*
X303584Y311624D01*
X303761Y311676D01*
X303929Y311742D01*
X304089Y311823D01*
X304240Y311918D01*
X304383Y312027D01*
X304517Y312150D01*
X305360Y311224D01*
D02*
G37*
G36*
X684733Y312495D02*
X684867Y312385D01*
X685012Y312281D01*
X685166Y312184D01*
X685331Y312092D01*
X685506Y312007D01*
X685886Y311855D01*
X686092Y311788D01*
X686307Y311727D01*
X683876Y310338D01*
X683921Y310528D01*
X683947Y310712D01*
X683954Y310891D01*
X683942Y311064D01*
X683911Y311232D01*
X683861Y311394D01*
X683792Y311549D01*
X683703Y311700D01*
X683596Y311844D01*
X683469Y311983D01*
X684609Y312611D01*
X684733Y312495D01*
D02*
G37*
G36*
X297576Y307563D02*
X297365Y307568D01*
X297164Y307558D01*
X296971Y307534D01*
X296786Y307496D01*
X296609Y307444D01*
X296441Y307378D01*
X296281Y307297D01*
X296130Y307202D01*
X295987Y307093D01*
X295853Y306970D01*
X295010Y307896D01*
X295132Y308028D01*
X295242Y308169D01*
X295339Y308320D01*
X295425Y308479D01*
X295498Y308648D01*
X295560Y308826D01*
X295609Y309013D01*
X295647Y309209D01*
X295673Y309415D01*
X295686Y309629D01*
X297576Y307563D01*
D02*
G37*
G36*
X256489Y307577D02*
X256299Y307513D01*
X256128Y307435D01*
X255977Y307345D01*
X255847Y307242D01*
X255737Y307126D01*
X255646Y306997D01*
X255576Y306854D01*
X255526Y306699D01*
X255496Y306531D01*
X255486Y306350D01*
X254486Y306539D01*
X254481Y306749D01*
X254446Y307183D01*
X254415Y307407D01*
X254271Y308105D01*
X254205Y308346D01*
X254047Y308842D01*
X256489Y307577D01*
D02*
G37*
G36*
X368672Y305225D02*
X368693Y305035D01*
X368727Y304858D01*
X368776Y304693D01*
X368838Y304540D01*
X368914Y304400D01*
X369004Y304271D01*
X369107Y304155D01*
X369225Y304051D01*
X369356Y303958D01*
X366623Y303350D01*
X366707Y303489D01*
X366782Y303635D01*
X366848Y303787D01*
X366906Y303946D01*
X366955Y304111D01*
X366994Y304282D01*
X367025Y304461D01*
X367047Y304645D01*
X367065Y305033D01*
X368665Y305426D01*
X368672Y305225D01*
D02*
G37*
G36*
X296675Y302834D02*
X296480Y302943D01*
X296098Y303127D01*
X295911Y303202D01*
X295546Y303317D01*
X295368Y303357D01*
X295192Y303386D01*
X295019Y303403D01*
X294849Y303409D01*
X294487Y304659D01*
X294675Y304668D01*
X294853Y304694D01*
X295022Y304738D01*
X295182Y304799D01*
X295331Y304878D01*
X295472Y304974D01*
X295603Y305088D01*
X295724Y305220D01*
X295836Y305368D01*
X295939Y305535D01*
X296675Y302834D01*
D02*
G37*
G36*
X682175Y303785D02*
X682198Y303607D01*
X682236Y303432D01*
X682291Y303260D01*
X682361Y303092D01*
X682446Y302926D01*
X682546Y302764D01*
X682663Y302604D01*
X682794Y302447D01*
X682942Y302294D01*
X680142D01*
X680289Y302447D01*
X680421Y302604D01*
X680537Y302764D01*
X680638Y302926D01*
X680723Y303092D01*
X680793Y303260D01*
X680847Y303432D01*
X680886Y303607D01*
X680909Y303785D01*
X680917Y303965D01*
X682167D01*
X682175Y303785D01*
D02*
G37*
G36*
X796778Y304816D02*
X796908Y304714D01*
X797048Y304624D01*
X797195Y304546D01*
X797351Y304480D01*
X797516Y304426D01*
X797689Y304384D01*
X797871Y304354D01*
X798062Y304336D01*
X798261Y304330D01*
Y302730D01*
X798062Y302724D01*
X797871Y302706D01*
X797689Y302676D01*
X797516Y302634D01*
X797351Y302580D01*
X797195Y302514D01*
X797048Y302436D01*
X796908Y302346D01*
X796778Y302244D01*
X796656Y302130D01*
Y304930D01*
X796778Y304816D01*
D02*
G37*
G36*
X302790Y302563D02*
X302540Y302544D01*
X302083Y302477D01*
X301876Y302429D01*
X301683Y302370D01*
X301505Y302301D01*
X301341Y302223D01*
X301191Y302134D01*
X301056Y302035D01*
X300935Y301926D01*
X300182Y302588D01*
X300295Y302714D01*
X300394Y302852D01*
X300479Y303003D01*
X300550Y303167D01*
X300608Y303343D01*
X300652Y303533D01*
X300682Y303734D01*
X300699Y303949D01*
X300701Y304176D01*
X300690Y304415D01*
X302790Y302563D01*
D02*
G37*
G36*
X753115Y301139D02*
X752958Y301098D01*
X752803Y301047D01*
X752649Y300984D01*
X752497Y300912D01*
X752347Y300828D01*
X752198Y300735D01*
X752051Y300630D01*
X751761Y300389D01*
X751618Y300252D01*
X750192Y301089D01*
X750330Y301236D01*
X750449Y301385D01*
X750550Y301535D01*
X750632Y301685D01*
X750695Y301837D01*
X750740Y301990D01*
X750766Y302144D01*
X750774Y302299D01*
X750763Y302454D01*
X750733Y302611D01*
X753115Y301139D01*
D02*
G37*
G36*
X305688Y299295D02*
X305731Y298845D01*
X305770Y298640D01*
X305821Y298449D01*
X305885Y298271D01*
X305960Y298107D01*
X306047Y297956D01*
X306145Y297819D01*
X306256Y297696D01*
X305549Y296989D01*
X305426Y297099D01*
X305289Y297198D01*
X305138Y297285D01*
X304974Y297360D01*
X304796Y297423D01*
X304605Y297475D01*
X304400Y297514D01*
X304182Y297541D01*
X303950Y297557D01*
X303705Y297560D01*
X305685Y299540D01*
X305688Y299295D01*
D02*
G37*
G36*
X310004Y297978D02*
X309727Y297608D01*
X309615Y297428D01*
X309520Y297250D01*
X309442Y297076D01*
X309382Y296904D01*
X309339Y296736D01*
X309313Y296570D01*
X309304Y296408D01*
X308304Y296346D01*
X308295Y296514D01*
X308267Y296682D01*
X308220Y296849D01*
X308155Y297016D01*
X308071Y297182D01*
X307969Y297347D01*
X307848Y297511D01*
X307708Y297675D01*
X307550Y297838D01*
X307373Y298000D01*
X310168Y298167D01*
X310004Y297978D01*
D02*
G37*
G36*
X151936Y297474D02*
X151954Y297283D01*
X151984Y297102D01*
X152026Y296928D01*
X152080Y296763D01*
X152146Y296607D01*
X152224Y296460D01*
X152314Y296321D01*
X152416Y296190D01*
X152530Y296068D01*
X149730D01*
X149844Y296190D01*
X149946Y296321D01*
X150036Y296460D01*
X150114Y296607D01*
X150180Y296763D01*
X150234Y296928D01*
X150276Y297102D01*
X150306Y297283D01*
X150324Y297474D01*
X150330Y297673D01*
X151930D01*
X151936Y297474D01*
D02*
G37*
G36*
X265585Y296543D02*
X265609Y296365D01*
X265648Y296190D01*
X265702Y296018D01*
X265772Y295850D01*
X265857Y295684D01*
X265958Y295521D01*
X266074Y295362D01*
X266206Y295205D01*
X266353Y295052D01*
X263553D01*
X263700Y295205D01*
X263832Y295362D01*
X263948Y295521D01*
X264049Y295684D01*
X264134Y295850D01*
X264204Y296018D01*
X264258Y296190D01*
X264297Y296365D01*
X264320Y296543D01*
X264328Y296723D01*
X265578D01*
X265585Y296543D01*
D02*
G37*
G36*
X190802Y293658D02*
X190682Y293528D01*
X190572Y293389D01*
X190472Y293239D01*
X190382Y293081D01*
X190302Y292913D01*
X190232Y292734D01*
X190172Y292547D01*
X190122Y292349D01*
X190082Y292142D01*
X190051Y291926D01*
X188330Y294134D01*
X188534Y294114D01*
X188731Y294110D01*
X188920Y294122D01*
X189102Y294151D01*
X189276Y294195D01*
X189443Y294255D01*
X189602Y294332D01*
X189753Y294424D01*
X189897Y294532D01*
X190033Y294657D01*
X190802Y293658D01*
D02*
G37*
G36*
X430054Y296152D02*
X430045Y295995D01*
X430055Y295840D01*
X430083Y295685D01*
X430129Y295531D01*
X430194Y295379D01*
X430277Y295228D01*
X430378Y295078D01*
X430497Y294930D01*
X430635Y294782D01*
X429234Y293920D01*
X429091Y294056D01*
X428801Y294297D01*
X428653Y294400D01*
X428503Y294493D01*
X428351Y294575D01*
X428198Y294646D01*
X428043Y294706D01*
X427886Y294755D01*
X427728Y294793D01*
X430081Y296311D01*
X430054Y296152D01*
D02*
G37*
G36*
X810687Y293693D02*
X810760Y293543D01*
X810848Y293412D01*
X810951Y293297D01*
X811068Y293201D01*
X811201Y293122D01*
X811349Y293060D01*
X811511Y293016D01*
X811689Y292990D01*
X811881Y292981D01*
X811668Y291731D01*
X811393Y291728D01*
X810392Y291652D01*
X810167Y291618D01*
X809746Y291530D01*
X809551Y291476D01*
X809365Y291416D01*
X810629Y293860D01*
X810687Y293693D01*
D02*
G37*
G36*
X721013Y292071D02*
X721156Y291962D01*
X721307Y291866D01*
X721466Y291783D01*
X721635Y291713D01*
X721812Y291656D01*
X721999Y291612D01*
X722194Y291582D01*
X722397Y291564D01*
X722610Y291560D01*
X720630Y289580D01*
X720626Y289793D01*
X720608Y289996D01*
X720578Y290191D01*
X720534Y290378D01*
X720477Y290555D01*
X720407Y290724D01*
X720324Y290883D01*
X720228Y291034D01*
X720118Y291177D01*
X719996Y291310D01*
X720880Y292194D01*
X721013Y292071D01*
D02*
G37*
G36*
X252858Y287885D02*
X252554Y287229D01*
X252479Y287032D01*
X252371Y286669D01*
X252337Y286504D01*
X252316Y286349D01*
X252310Y286204D01*
X251310Y285893D01*
X251300Y286069D01*
X251270Y286238D01*
X251219Y286400D01*
X251149Y286553D01*
X251059Y286700D01*
X250948Y286839D01*
X250817Y286971D01*
X250667Y287095D01*
X250496Y287212D01*
X250305Y287322D01*
X252987Y288125D01*
X252858Y287885D01*
D02*
G37*
G36*
X273809Y283502D02*
X273832Y283325D01*
X273871Y283150D01*
X273925Y282978D01*
X273995Y282809D01*
X274080Y282644D01*
X274181Y282481D01*
X274297Y282322D01*
X274429Y282165D01*
X274576Y282012D01*
X271776D01*
X271924Y282165D01*
X272055Y282322D01*
X272172Y282481D01*
X272272Y282644D01*
X272358Y282809D01*
X272427Y282978D01*
X272482Y283150D01*
X272520Y283325D01*
X272544Y283502D01*
X272551Y283683D01*
X273801D01*
X273809Y283502D01*
D02*
G37*
G36*
X275096Y281170D02*
X275134Y281126D01*
X275184Y281086D01*
X275248Y281052D01*
X275325Y281023D01*
X275415Y281000D01*
X275518Y280981D01*
X275634Y280968D01*
X275906Y280958D01*
Y279708D01*
X275731Y279706D01*
X275299Y279674D01*
X275186Y279655D01*
X275089Y279631D01*
X275007Y279604D01*
X274941Y279572D01*
X274890Y279536D01*
X274854Y279495D01*
X275072Y281220D01*
X275096Y281170D01*
D02*
G37*
G36*
X812186Y280953D02*
X812298Y280804D01*
X812419Y280672D01*
X812550Y280558D01*
X812691Y280462D01*
X812840Y280383D01*
X813000Y280322D01*
X813169Y280278D01*
X813347Y280252D01*
X813534Y280243D01*
X813172Y278993D01*
X813003Y278987D01*
X812830Y278970D01*
X812654Y278941D01*
X812476Y278901D01*
X812295Y278849D01*
X812111Y278786D01*
X811734Y278625D01*
X811542Y278527D01*
X811347Y278418D01*
X812083Y281119D01*
X812186Y280953D01*
D02*
G37*
G36*
X315811Y278009D02*
X315948Y277910D01*
X316099Y277823D01*
X316263Y277748D01*
X316441Y277685D01*
X316632Y277634D01*
X316836Y277595D01*
X317055Y277568D01*
X317286Y277552D01*
X317532Y277549D01*
X315554Y275567D01*
X315550Y275813D01*
X315507Y276263D01*
X315467Y276467D01*
X315416Y276659D01*
X315353Y276836D01*
X315278Y277001D01*
X315191Y277151D01*
X315092Y277288D01*
X314981Y277412D01*
X315688Y278120D01*
X315811Y278009D01*
D02*
G37*
G36*
X344163Y276182D02*
X344032Y276025D01*
X343916Y275864D01*
X343816Y275701D01*
X343731Y275535D01*
X343661Y275366D01*
X343607Y275194D01*
X343569Y275019D01*
X343546Y274841D01*
X343538Y274661D01*
X342288Y274652D01*
X342280Y274833D01*
X342257Y275011D01*
X342218Y275186D01*
X342163Y275357D01*
X342093Y275525D01*
X342008Y275690D01*
X341906Y275852D01*
X341790Y276011D01*
X341657Y276166D01*
X341509Y276319D01*
X344309Y276337D01*
X344163Y276182D01*
D02*
G37*
G36*
X349209Y275902D02*
X348921Y275554D01*
X348804Y275381D01*
X348705Y275210D01*
X348624Y275039D01*
X348561Y274870D01*
X348516Y274702D01*
X348489Y274535D01*
X348480Y274370D01*
X347480D01*
X347471Y274535D01*
X347444Y274702D01*
X347399Y274870D01*
X347336Y275039D01*
X347255Y275210D01*
X347156Y275381D01*
X347039Y275554D01*
X346904Y275727D01*
X346751Y275902D01*
X346580Y276078D01*
X349380D01*
X349209Y275902D01*
D02*
G37*
G36*
X811221Y276193D02*
X811377Y276062D01*
X811537Y275945D01*
X811700Y275845D01*
X811865Y275759D01*
X812034Y275690D01*
X812206Y275635D01*
X812381Y275597D01*
X812558Y275573D01*
X812739Y275566D01*
Y274316D01*
X812558Y274308D01*
X812381Y274285D01*
X812206Y274246D01*
X812034Y274192D01*
X811865Y274122D01*
X811700Y274037D01*
X811537Y273936D01*
X811377Y273820D01*
X811221Y273688D01*
X811068Y273541D01*
Y276341D01*
X811221Y276193D01*
D02*
G37*
G36*
X263098Y274693D02*
X263128Y274524D01*
X263178Y274363D01*
X263249Y274209D01*
X263339Y274062D01*
X263449Y273923D01*
X263580Y273791D01*
X263731Y273667D01*
X263902Y273550D01*
X264093Y273441D01*
X261411Y272637D01*
X261539Y272877D01*
X261844Y273533D01*
X261918Y273731D01*
X262027Y274093D01*
X262061Y274259D01*
X262081Y274414D01*
X262088Y274558D01*
X263088Y274869D01*
X263098Y274693D01*
D02*
G37*
G36*
X267570Y273279D02*
X267708Y273180D01*
X267859Y273094D01*
X268023Y273022D01*
X268199Y272963D01*
X268389Y272917D01*
X268591Y272885D01*
X268807Y272866D01*
X269035Y272860D01*
X269276Y272868D01*
X267392Y270796D01*
X267377Y271045D01*
X267316Y271500D01*
X267270Y271707D01*
X267213Y271900D01*
X267146Y272078D01*
X267068Y272242D01*
X266980Y272392D01*
X266881Y272528D01*
X266772Y272649D01*
X267444Y273391D01*
X267570Y273279D01*
D02*
G37*
G36*
X288119Y271816D02*
X288126Y271640D01*
X288147Y271465D01*
X288181Y271288D01*
X288229Y271112D01*
X288290Y270936D01*
X288366Y270760D01*
X288455Y270583D01*
X288557Y270407D01*
X288674Y270230D01*
X288804Y270054D01*
X286030Y270434D01*
X286189Y270562D01*
X286332Y270696D01*
X286458Y270837D01*
X286567Y270984D01*
X286659Y271137D01*
X286735Y271296D01*
X286794Y271462D01*
X286836Y271634D01*
X286861Y271812D01*
X286869Y271997D01*
X288119Y271816D01*
D02*
G37*
G36*
X305893Y270877D02*
X305921Y270725D01*
X305968Y270580D01*
X306033Y270442D01*
X306118Y270312D01*
X306221Y270189D01*
X306343Y270073D01*
X306484Y269965D01*
X306644Y269864D01*
X306822Y269770D01*
X304243Y268998D01*
X304365Y269208D01*
X304570Y269612D01*
X304653Y269805D01*
X304781Y270177D01*
X304826Y270354D01*
X304858Y270526D01*
X304877Y270693D01*
X304883Y270854D01*
X305883Y271036D01*
X305893Y270877D01*
D02*
G37*
G36*
X309949Y270790D02*
X310076Y270694D01*
X310219Y270601D01*
X310378Y270512D01*
X310555Y270426D01*
X310958Y270265D01*
X311184Y270190D01*
X311686Y270050D01*
X309274Y268629D01*
X309325Y268846D01*
X309357Y269055D01*
X309370Y269253D01*
X309365Y269442D01*
X309341Y269621D01*
X309298Y269790D01*
X309237Y269950D01*
X309158Y270100D01*
X309060Y270241D01*
X308943Y270372D01*
X309839Y270889D01*
X309949Y270790D01*
D02*
G37*
G36*
X299370Y266414D02*
X299191Y266519D01*
X298832Y266696D01*
X298653Y266768D01*
X298474Y266828D01*
X298295Y266878D01*
X298117Y266917D01*
X297939Y266945D01*
X297761Y266961D01*
X297582Y266967D01*
X297316Y268217D01*
X297490Y268225D01*
X297654Y268250D01*
X297810Y268292D01*
X297957Y268351D01*
X298095Y268426D01*
X298224Y268518D01*
X298344Y268627D01*
X298455Y268752D01*
X298557Y268895D01*
X298651Y269054D01*
X299370Y266414D01*
D02*
G37*
G36*
X283836Y266676D02*
X284413Y266167D01*
X284450Y266149D01*
X284474Y266144D01*
X283141Y265382D01*
X283155Y265410D01*
X283159Y265444D01*
X283153Y265483D01*
X283136Y265528D01*
X283110Y265579D01*
X283073Y265636D01*
X283026Y265698D01*
X282969Y265766D01*
X282824Y265920D01*
X283708Y266804D01*
X283836Y266676D01*
D02*
G37*
G36*
X344796Y265585D02*
X344819Y265407D01*
X344858Y265232D01*
X344912Y265060D01*
X344982Y264892D01*
X345068Y264727D01*
X345169Y264564D01*
X345285Y264405D01*
X345417Y264249D01*
X345565Y264097D01*
X342765Y264087D01*
X342912Y264241D01*
X343043Y264398D01*
X343159Y264558D01*
X343260Y264721D01*
X343345Y264887D01*
X343414Y265056D01*
X343469Y265228D01*
X343507Y265402D01*
X343530Y265580D01*
X343538Y265761D01*
X344788Y265765D01*
X344796Y265585D01*
D02*
G37*
G36*
X350456Y265686D02*
X350486Y265517D01*
X350536Y265355D01*
X350607Y265202D01*
X350697Y265055D01*
X350808Y264916D01*
X350938Y264784D01*
X351089Y264660D01*
X351260Y264543D01*
X351451Y264433D01*
X348769Y263630D01*
X348898Y263870D01*
X349202Y264526D01*
X349277Y264723D01*
X349385Y265086D01*
X349419Y265252D01*
X349439Y265406D01*
X349446Y265550D01*
X350446Y265862D01*
X350456Y265686D01*
D02*
G37*
G36*
X305205Y259775D02*
X305083Y259641D01*
X304973Y259499D01*
X304877Y259348D01*
X304794Y259188D01*
X304724Y259020D01*
X304667Y258842D01*
X304624Y258656D01*
X304593Y258461D01*
X304575Y258257D01*
X304571Y258045D01*
X302591Y260025D01*
X302804Y260029D01*
X303008Y260047D01*
X303203Y260077D01*
X303389Y260121D01*
X303566Y260178D01*
X303735Y260248D01*
X303895Y260331D01*
X304046Y260427D01*
X304188Y260536D01*
X304321Y260658D01*
X305205Y259775D01*
D02*
G37*
G36*
X248162Y254093D02*
X248094Y253993D01*
X248034Y253879D01*
X247982Y253750D01*
X247938Y253607D01*
X247902Y253449D01*
X247874Y253277D01*
X247854Y253091D01*
X247838Y252675D01*
X245838D01*
X245834Y252890D01*
X245802Y253277D01*
X245774Y253449D01*
X245738Y253607D01*
X245694Y253750D01*
X245642Y253879D01*
X245582Y253993D01*
X245514Y254093D01*
X245438Y254179D01*
X248238D01*
X248162Y254093D01*
D02*
G37*
G36*
X461791Y246006D02*
X461713Y245861D01*
X461644Y245710D01*
X461584Y245552D01*
X461533Y245387D01*
X461492Y245216D01*
X461460Y245038D01*
X461437Y244853D01*
X461418Y244465D01*
X459818Y244113D01*
X459811Y244315D01*
X459791Y244504D01*
X459757Y244682D01*
X459709Y244848D01*
X459647Y245002D01*
X459572Y245145D01*
X459483Y245275D01*
X459380Y245394D01*
X459263Y245501D01*
X459133Y245596D01*
X461879Y246145D01*
X461791Y246006D01*
D02*
G37*
G36*
X457383Y241176D02*
X457293Y241036D01*
X457215Y240888D01*
X457146Y240734D01*
X457088Y240571D01*
X457041Y240402D01*
X457004Y240226D01*
X456978Y240042D01*
X456962Y239852D01*
X456957Y239654D01*
X455357Y239454D01*
X455350Y239654D01*
X455330Y239844D01*
X455298Y240024D01*
X455252Y240193D01*
X455193Y240352D01*
X455121Y240501D01*
X455035Y240639D01*
X454937Y240767D01*
X454826Y240885D01*
X454701Y240992D01*
X457483Y241310D01*
X457383Y241176D01*
D02*
G37*
G36*
X188336Y236611D02*
X188119Y236565D01*
X187716Y236448D01*
X187529Y236378D01*
X187352Y236300D01*
X187185Y236213D01*
X187028Y236119D01*
X186881Y236017D01*
X186744Y235907D01*
X186617Y235789D01*
X185545Y236484D01*
X185670Y236622D01*
X185778Y236766D01*
X185868Y236917D01*
X185941Y237075D01*
X185995Y237239D01*
X186033Y237410D01*
X186052Y237588D01*
X186054Y237772D01*
X186037Y237963D01*
X186004Y238160D01*
X188336Y236611D01*
D02*
G37*
G36*
X200473Y233418D02*
X200341Y233262D01*
X200225Y233102D01*
X200124Y232939D01*
X200039Y232774D01*
X199969Y232605D01*
X199915Y232433D01*
X199876Y232259D01*
X199853Y232081D01*
X199845Y231900D01*
X198595D01*
X198587Y232081D01*
X198564Y232259D01*
X198525Y232433D01*
X198471Y232605D01*
X198401Y232774D01*
X198316Y232939D01*
X198215Y233102D01*
X198099Y233262D01*
X197967Y233418D01*
X197820Y233571D01*
X200620D01*
X200473Y233418D01*
D02*
G37*
G36*
X205535Y233307D02*
X205371Y233194D01*
X205224Y233073D01*
X205094Y232944D01*
X204981Y232806D01*
X204886Y232661D01*
X204809Y232507D01*
X204748Y232345D01*
X204705Y232175D01*
X204679Y231996D01*
X204670Y231810D01*
X203420Y232097D01*
X203414Y232270D01*
X203395Y232444D01*
X203364Y232620D01*
X203321Y232798D01*
X203265Y232978D01*
X203196Y233159D01*
X203116Y233342D01*
X202917Y233713D01*
X202799Y233902D01*
X205535Y233307D01*
D02*
G37*
G36*
X739300Y227380D02*
X739087Y227376D01*
X738884Y227358D01*
X738689Y227328D01*
X738502Y227284D01*
X738325Y227227D01*
X738156Y227157D01*
X737997Y227074D01*
X737846Y226978D01*
X737703Y226869D01*
X737570Y226746D01*
X736686Y227630D01*
X736809Y227763D01*
X736918Y227906D01*
X737014Y228057D01*
X737097Y228216D01*
X737167Y228385D01*
X737224Y228562D01*
X737268Y228748D01*
X737298Y228944D01*
X737316Y229147D01*
X737320Y229360D01*
X739300Y227380D01*
D02*
G37*
G36*
X346163Y220208D02*
X346305Y220099D01*
X346456Y220002D01*
X346616Y219919D01*
X346785Y219849D01*
X346962Y219793D01*
X347148Y219749D01*
X347343Y219718D01*
X347547Y219701D01*
X347760Y219696D01*
X345780Y217717D01*
X345775Y217929D01*
X345758Y218133D01*
X345727Y218328D01*
X345684Y218514D01*
X345627Y218692D01*
X345557Y218860D01*
X345474Y219020D01*
X345378Y219171D01*
X345268Y219313D01*
X345146Y219446D01*
X346030Y220330D01*
X346163Y220208D01*
D02*
G37*
G36*
X368100Y218317D02*
X368242Y218207D01*
X368393Y218111D01*
X368553Y218028D01*
X368722Y217958D01*
X368899Y217901D01*
X369085Y217858D01*
X369280Y217827D01*
X369484Y217810D01*
X369697Y217805D01*
X367717Y215825D01*
X367712Y216038D01*
X367695Y216242D01*
X367664Y216437D01*
X367621Y216623D01*
X367564Y216800D01*
X367494Y216969D01*
X367411Y217129D01*
X367314Y217280D01*
X367205Y217422D01*
X367083Y217555D01*
X367967Y218439D01*
X368100Y218317D01*
D02*
G37*
G36*
X247840Y217448D02*
X247922Y216208D01*
X247952Y216040D01*
X247987Y215900D01*
X248026Y215786D01*
X248070Y215700D01*
X245344Y216341D01*
X245438Y216409D01*
X245522Y216493D01*
X245596Y216594D01*
X245660Y216711D01*
X245715Y216844D01*
X245759Y216994D01*
X245794Y217160D01*
X245818Y217342D01*
X245833Y217540D01*
X245838Y217755D01*
X247838Y217777D01*
X247840Y217448D01*
D02*
G37*
G36*
X133983Y216279D02*
X134006Y216101D01*
X134045Y215926D01*
X134099Y215755D01*
X134169Y215586D01*
X134254Y215420D01*
X134355Y215258D01*
X134471Y215098D01*
X134603Y214942D01*
X134750Y214788D01*
X131950D01*
X132097Y214942D01*
X132229Y215098D01*
X132345Y215258D01*
X132446Y215420D01*
X132531Y215586D01*
X132601Y215755D01*
X132655Y215926D01*
X132694Y216101D01*
X132717Y216279D01*
X132725Y216460D01*
X133975D01*
X133983Y216279D01*
D02*
G37*
G36*
X392816Y216049D02*
X392958Y215939D01*
X393109Y215843D01*
X393269Y215760D01*
X393437Y215690D01*
X393615Y215633D01*
X393801Y215590D01*
X393996Y215559D01*
X394200Y215541D01*
X394412Y215537D01*
X392432Y213557D01*
X392428Y213770D01*
X392411Y213974D01*
X392380Y214169D01*
X392336Y214355D01*
X392279Y214532D01*
X392209Y214701D01*
X392126Y214860D01*
X392030Y215012D01*
X391921Y215154D01*
X391799Y215287D01*
X392682Y216171D01*
X392816Y216049D01*
D02*
G37*
G36*
X350760Y213084D02*
X350637Y212950D01*
X350527Y212807D01*
X350433Y212655D01*
X350352Y212496D01*
X350286Y212328D01*
X350233Y212151D01*
X350195Y211966D01*
X350171Y211773D01*
X350161Y211571D01*
X350166Y211361D01*
X348102Y213253D01*
X348316Y213267D01*
X348522Y213292D01*
X348718Y213329D01*
X348905Y213379D01*
X349083Y213440D01*
X349252Y213513D01*
X349412Y213599D01*
X349562Y213696D01*
X349703Y213806D01*
X349836Y213928D01*
X350760Y213084D01*
D02*
G37*
G36*
X359212Y213801D02*
X359354Y213692D01*
X359505Y213596D01*
X359665Y213513D01*
X359833Y213443D01*
X360011Y213386D01*
X360197Y213342D01*
X360392Y213312D01*
X360596Y213294D01*
X360808Y213290D01*
X358829Y211310D01*
X358824Y211523D01*
X358807Y211726D01*
X358776Y211922D01*
X358732Y212108D01*
X358675Y212285D01*
X358606Y212454D01*
X358522Y212613D01*
X358426Y212764D01*
X358317Y212907D01*
X358195Y213040D01*
X359078Y213924D01*
X359212Y213801D01*
D02*
G37*
G36*
X366389Y213354D02*
X366531Y213244D01*
X366682Y213148D01*
X366842Y213065D01*
X367010Y212995D01*
X367188Y212938D01*
X367374Y212894D01*
X367569Y212864D01*
X367773Y212846D01*
X367985Y212842D01*
X366005Y210862D01*
X366001Y211075D01*
X365983Y211278D01*
X365953Y211474D01*
X365909Y211660D01*
X365852Y211837D01*
X365782Y212006D01*
X365699Y212166D01*
X365603Y212316D01*
X365494Y212459D01*
X365371Y212592D01*
X366255Y213476D01*
X366389Y213354D01*
D02*
G37*
G36*
X758761Y209140D02*
X758627Y208996D01*
X758511Y208849D01*
X758411Y208698D01*
X758328Y208544D01*
X758262Y208387D01*
X758213Y208226D01*
X758181Y208062D01*
X758166Y207894D01*
X758167Y207724D01*
X758186Y207550D01*
X755942Y209224D01*
X756121Y209254D01*
X756295Y209296D01*
X756465Y209349D01*
X756631Y209413D01*
X756792Y209488D01*
X756949Y209574D01*
X757102Y209672D01*
X757250Y209781D01*
X757394Y209902D01*
X757534Y210034D01*
X758761Y209140D01*
D02*
G37*
G36*
X287943Y204442D02*
X288086Y204332D01*
X288237Y204236D01*
X288396Y204153D01*
X288565Y204083D01*
X288742Y204026D01*
X288929Y203982D01*
X289124Y203952D01*
X289327Y203934D01*
X289540Y203930D01*
X287560Y201950D01*
X287556Y202163D01*
X287538Y202366D01*
X287508Y202561D01*
X287464Y202748D01*
X287407Y202925D01*
X287337Y203094D01*
X287254Y203253D01*
X287158Y203404D01*
X287048Y203547D01*
X286926Y203680D01*
X287810Y204564D01*
X287943Y204442D01*
D02*
G37*
G36*
X349017Y197783D02*
X349040Y197605D01*
X349079Y197431D01*
X349133Y197259D01*
X349203Y197090D01*
X349288Y196925D01*
X349389Y196762D01*
X349505Y196602D01*
X349637Y196446D01*
X349784Y196292D01*
X346984D01*
X347131Y196446D01*
X347263Y196602D01*
X347379Y196762D01*
X347480Y196925D01*
X347565Y197090D01*
X347635Y197259D01*
X347689Y197431D01*
X347728Y197605D01*
X347751Y197783D01*
X347759Y197964D01*
X349009D01*
X349017Y197783D01*
D02*
G37*
G36*
X284967Y194129D02*
X285109Y194019D01*
X285260Y193923D01*
X285420Y193840D01*
X285588Y193770D01*
X285766Y193713D01*
X285952Y193670D01*
X286147Y193639D01*
X286351Y193622D01*
X286563Y193617D01*
X284583Y191637D01*
X284579Y191850D01*
X284562Y192054D01*
X284531Y192249D01*
X284487Y192435D01*
X284430Y192612D01*
X284360Y192781D01*
X284277Y192941D01*
X284181Y193092D01*
X284072Y193234D01*
X283949Y193367D01*
X284833Y194251D01*
X284967Y194129D01*
D02*
G37*
G36*
X436692Y184444D02*
X436710Y184254D01*
X436740Y184072D01*
X436782Y183898D01*
X436836Y183734D01*
X436902Y183577D01*
X436980Y183430D01*
X437070Y183291D01*
X437172Y183160D01*
X437286Y183038D01*
X434486D01*
X434600Y183160D01*
X434702Y183291D01*
X434792Y183430D01*
X434870Y183577D01*
X434936Y183734D01*
X434990Y183898D01*
X435032Y184072D01*
X435062Y184254D01*
X435080Y184444D01*
X435086Y184643D01*
X436686D01*
X436692Y184444D01*
D02*
G37*
G36*
X281777Y172140D02*
X281921Y172032D01*
X282072Y171940D01*
X282231Y171864D01*
X282397Y171804D01*
X282571Y171761D01*
X282752Y171733D01*
X282941Y171722D01*
X283137Y171727D01*
X283341Y171749D01*
X281636Y169527D01*
X281604Y169744D01*
X281563Y169951D01*
X281512Y170149D01*
X281451Y170336D01*
X281380Y170514D01*
X281299Y170683D01*
X281209Y170841D01*
X281108Y170990D01*
X280999Y171129D01*
X280879Y171259D01*
X281640Y172265D01*
X281777Y172140D01*
D02*
G37*
G36*
X374646Y169482D02*
X374493Y169629D01*
X374336Y169760D01*
X374177Y169877D01*
X374014Y169977D01*
X373849Y170063D01*
X373680Y170133D01*
X373508Y170187D01*
X373333Y170226D01*
X373156Y170249D01*
X372975Y170257D01*
Y171507D01*
X373156Y171514D01*
X373333Y171537D01*
X373508Y171576D01*
X373680Y171630D01*
X373849Y171700D01*
X374014Y171786D01*
X374177Y171886D01*
X374336Y172003D01*
X374493Y172134D01*
X374646Y172281D01*
Y169482D01*
D02*
G37*
G36*
X193921Y167654D02*
X194064Y167545D01*
X194215Y167449D01*
X194375Y167367D01*
X194543Y167299D01*
X194720Y167245D01*
X194906Y167204D01*
X195100Y167177D01*
X195303Y167164D01*
X195514Y167164D01*
X193580Y165139D01*
X193571Y165353D01*
X193549Y165557D01*
X193515Y165753D01*
X193468Y165940D01*
X193409Y166118D01*
X193337Y166286D01*
X193253Y166446D01*
X193156Y166597D01*
X193047Y166739D01*
X192925Y166871D01*
X193787Y167777D01*
X193921Y167654D01*
D02*
G37*
G36*
X461425Y156627D02*
X461446Y156437D01*
X461480Y156259D01*
X461528Y156093D01*
X461589Y155939D01*
X461665Y155797D01*
X461754Y155666D01*
X461856Y155547D01*
X461973Y155440D01*
X462103Y155345D01*
X459357Y154796D01*
X459445Y154935D01*
X459523Y155080D01*
X459592Y155232D01*
X459652Y155390D01*
X459703Y155554D01*
X459744Y155726D01*
X459777Y155903D01*
X459800Y156088D01*
X459818Y156476D01*
X461418Y156828D01*
X461425Y156627D01*
D02*
G37*
G36*
X199108Y153642D02*
X199251Y153532D01*
X199402Y153436D01*
X199561Y153353D01*
X199730Y153283D01*
X199907Y153226D01*
X200094Y153182D01*
X200289Y153152D01*
X200492Y153134D01*
X200705Y153130D01*
X198725Y151150D01*
X198721Y151363D01*
X198703Y151566D01*
X198673Y151762D01*
X198629Y151948D01*
X198572Y152125D01*
X198502Y152294D01*
X198419Y152453D01*
X198323Y152604D01*
X198214Y152747D01*
X198091Y152880D01*
X198975Y153764D01*
X199108Y153642D01*
D02*
G37*
G36*
X456963Y150882D02*
X456983Y150692D01*
X457016Y150512D01*
X457062Y150343D01*
X457121Y150184D01*
X457193Y150035D01*
X457278Y149897D01*
X457376Y149769D01*
X457488Y149651D01*
X457612Y149544D01*
X454831Y149226D01*
X454930Y149360D01*
X455020Y149500D01*
X455099Y149648D01*
X455167Y149802D01*
X455225Y149964D01*
X455272Y150134D01*
X455309Y150310D01*
X455336Y150494D01*
X455351Y150684D01*
X455357Y150882D01*
X456957Y151082D01*
X456963Y150882D01*
D02*
G37*
G36*
X208463Y145874D02*
X208304Y146018D01*
X208143Y146146D01*
X207979Y146260D01*
X207813Y146358D01*
X207645Y146441D01*
X207474Y146509D01*
X207301Y146562D01*
X207126Y146600D01*
X206948Y146622D01*
X206768Y146630D01*
X206726Y147880D01*
X206907Y147888D01*
X207085Y147912D01*
X207260Y147951D01*
X207430Y148007D01*
X207597Y148078D01*
X207759Y148165D01*
X207918Y148268D01*
X208074Y148387D01*
X208225Y148522D01*
X208372Y148673D01*
X208463Y145874D01*
D02*
G37*
G36*
X309243Y143889D02*
X309266Y143711D01*
X309305Y143536D01*
X309359Y143365D01*
X309429Y143196D01*
X309514Y143030D01*
X309615Y142868D01*
X309731Y142708D01*
X309863Y142552D01*
X310010Y142398D01*
X307210D01*
X307357Y142552D01*
X307489Y142708D01*
X307605Y142868D01*
X307706Y143030D01*
X307791Y143196D01*
X307861Y143365D01*
X307915Y143536D01*
X307954Y143711D01*
X307977Y143889D01*
X307985Y144070D01*
X309235D01*
X309243Y143889D01*
D02*
G37*
G36*
X359252Y139570D02*
X359098Y139717D01*
X358942Y139849D01*
X358782Y139965D01*
X358620Y140066D01*
X358454Y140151D01*
X358285Y140221D01*
X358114Y140275D01*
X357939Y140314D01*
X357761Y140337D01*
X357580Y140345D01*
Y141595D01*
X357761Y141603D01*
X357939Y141626D01*
X358114Y141665D01*
X358285Y141719D01*
X358454Y141789D01*
X358620Y141874D01*
X358782Y141975D01*
X358942Y142091D01*
X359098Y142223D01*
X359252Y142370D01*
Y139570D01*
D02*
G37*
G36*
X730250Y140319D02*
X730273Y140141D01*
X730312Y139966D01*
X730366Y139795D01*
X730436Y139626D01*
X730521Y139460D01*
X730622Y139298D01*
X730738Y139138D01*
X730870Y138982D01*
X731017Y138828D01*
X728217D01*
X728364Y138982D01*
X728496Y139138D01*
X728612Y139298D01*
X728713Y139460D01*
X728798Y139626D01*
X728868Y139795D01*
X728922Y139966D01*
X728961Y140141D01*
X728984Y140319D01*
X728992Y140500D01*
X730242D01*
X730250Y140319D01*
D02*
G37*
G36*
X631032Y124270D02*
X630910Y124384D01*
X630779Y124486D01*
X630640Y124576D01*
X630493Y124654D01*
X630336Y124720D01*
X630172Y124774D01*
X629998Y124816D01*
X629817Y124846D01*
X629626Y124864D01*
X629427Y124870D01*
Y126470D01*
X629626Y126476D01*
X629817Y126494D01*
X629998Y126524D01*
X630172Y126566D01*
X630336Y126620D01*
X630493Y126686D01*
X630640Y126764D01*
X630779Y126854D01*
X630910Y126956D01*
X631032Y127070D01*
Y124270D01*
D02*
G37*
G36*
X178723Y123161D02*
X178866Y123052D01*
X179017Y122956D01*
X179176Y122873D01*
X179345Y122803D01*
X179522Y122746D01*
X179708Y122702D01*
X179904Y122672D01*
X180107Y122654D01*
X180320Y122650D01*
X178340Y120670D01*
X178336Y120883D01*
X178318Y121086D01*
X178288Y121281D01*
X178244Y121468D01*
X178187Y121645D01*
X178117Y121814D01*
X178034Y121973D01*
X177938Y122124D01*
X177829Y122267D01*
X177706Y122400D01*
X178590Y123284D01*
X178723Y123161D01*
D02*
G37*
G36*
X631807Y115714D02*
X631749Y115881D01*
X631677Y116030D01*
X631589Y116162D01*
X631487Y116276D01*
X631369Y116373D01*
X631237Y116452D01*
X631089Y116513D01*
X630927Y116557D01*
X630750Y116583D01*
X630557Y116592D01*
X630772Y117842D01*
X631048Y117845D01*
X632050Y117920D01*
X632276Y117954D01*
X632696Y118041D01*
X632891Y118094D01*
X633075Y118153D01*
X631807Y115714D01*
D02*
G37*
G36*
X241394Y104620D02*
X241271Y104487D01*
X241162Y104344D01*
X241066Y104193D01*
X240983Y104034D01*
X240913Y103865D01*
X240856Y103688D01*
X240812Y103502D01*
X240782Y103306D01*
X240764Y103103D01*
X240760Y102890D01*
X238780Y104870D01*
X238993Y104874D01*
X239196Y104892D01*
X239391Y104922D01*
X239578Y104966D01*
X239755Y105023D01*
X239924Y105093D01*
X240083Y105176D01*
X240234Y105272D01*
X240377Y105381D01*
X240510Y105504D01*
X241394Y104620D01*
D02*
G37*
G36*
X516656Y94006D02*
X516797Y93896D01*
X516947Y93798D01*
X517107Y93712D01*
X517275Y93637D01*
X517453Y93574D01*
X517641Y93522D01*
X517837Y93483D01*
X518043Y93454D01*
X518258Y93438D01*
X516165Y91578D01*
X516172Y91787D01*
X516165Y91988D01*
X516144Y92181D01*
X516107Y92365D01*
X516057Y92542D01*
X515992Y92709D01*
X515912Y92869D01*
X515817Y93020D01*
X515709Y93163D01*
X515585Y93298D01*
X516524Y94127D01*
X516656Y94006D01*
D02*
G37*
G36*
X212899Y84960D02*
X212746Y85107D01*
X212589Y85239D01*
X212430Y85355D01*
X212267Y85456D01*
X212102Y85541D01*
X211933Y85611D01*
X211761Y85665D01*
X211586Y85704D01*
X211409Y85727D01*
X211228Y85735D01*
Y86985D01*
X211409Y86993D01*
X211586Y87016D01*
X211761Y87055D01*
X211933Y87109D01*
X212102Y87179D01*
X212267Y87264D01*
X212430Y87365D01*
X212589Y87481D01*
X212746Y87613D01*
X212899Y87760D01*
Y84960D01*
D02*
G37*
G36*
X213202Y77340D02*
X213048Y77487D01*
X212892Y77619D01*
X212732Y77735D01*
X212570Y77836D01*
X212404Y77921D01*
X212235Y77991D01*
X212064Y78045D01*
X211889Y78084D01*
X211711Y78107D01*
X211530Y78115D01*
Y79365D01*
X211711Y79373D01*
X211889Y79396D01*
X212064Y79435D01*
X212235Y79489D01*
X212404Y79559D01*
X212570Y79644D01*
X212732Y79745D01*
X212892Y79861D01*
X213048Y79993D01*
X213202Y80140D01*
Y77340D01*
D02*
G37*
G36*
X231751Y75330D02*
X231420Y74990D01*
X230338Y75620D01*
X230867Y76213D01*
X231751Y75330D01*
D02*
G37*
G36*
X235530Y75353D02*
X234449Y74722D01*
X234446Y74727D01*
X234437Y74737D01*
X234331Y74847D01*
X234117Y75062D01*
X235001Y75946D01*
X235530Y75353D01*
D02*
G37*
G36*
X226688Y67205D02*
X226508Y67261D01*
X226113Y67356D01*
X225900Y67394D01*
X225191Y67474D01*
X224933Y67489D01*
X224383Y67501D01*
X224160Y68751D01*
X224353Y68760D01*
X224530Y68786D01*
X224692Y68830D01*
X224839Y68891D01*
X224971Y68970D01*
X225087Y69066D01*
X225189Y69180D01*
X225275Y69312D01*
X225345Y69461D01*
X225401Y69627D01*
X226688Y67205D01*
D02*
G37*
G36*
X211721Y63059D02*
X211863Y62949D01*
X212014Y62853D01*
X212174Y62770D01*
X212343Y62700D01*
X212520Y62643D01*
X212706Y62600D01*
X212901Y62569D01*
X213105Y62551D01*
X213318Y62547D01*
X211338Y60567D01*
X211333Y60780D01*
X211316Y60984D01*
X211285Y61179D01*
X211241Y61365D01*
X211185Y61542D01*
X211115Y61711D01*
X211032Y61870D01*
X210935Y62021D01*
X210826Y62164D01*
X210704Y62297D01*
X211588Y63181D01*
X211721Y63059D01*
D02*
G37*
G36*
X211744Y57555D02*
X211885Y57445D01*
X212035Y57347D01*
X212194Y57259D01*
X212363Y57183D01*
X212541Y57119D01*
X212728Y57065D01*
X212925Y57023D01*
X213131Y56992D01*
X213347Y56972D01*
X211226Y55145D01*
X211236Y55353D01*
X211232Y55553D01*
X211212Y55745D01*
X211178Y55928D01*
X211129Y56104D01*
X211065Y56272D01*
X210986Y56431D01*
X210892Y56583D01*
X210783Y56726D01*
X210660Y56861D01*
X211613Y57676D01*
X211744Y57555D01*
D02*
G37*
G36*
X353567Y840315D02*
X353352Y840255D01*
X352951Y840114D01*
X352766Y840035D01*
X352426Y839858D01*
X352272Y839761D01*
X352127Y839657D01*
X351993Y839547D01*
X351869Y839431D01*
X350729Y840059D01*
X350856Y840198D01*
X350963Y840342D01*
X351051Y840493D01*
X351121Y840649D01*
X351171Y840810D01*
X351202Y840978D01*
X351214Y841151D01*
X351207Y841330D01*
X351181Y841514D01*
X351136Y841704D01*
X353567Y840315D01*
D02*
G37*
G36*
X726542Y838067D02*
X726516Y838006D01*
X726494Y837925D01*
X726474Y837823D01*
X726458Y837700D01*
X726433Y837392D01*
X726420Y836774D01*
X723920D01*
X723919Y837001D01*
X723866Y837823D01*
X723847Y837925D01*
X723824Y838006D01*
X723799Y838067D01*
X723770Y838107D01*
X726570D01*
X726542Y838067D01*
D02*
G37*
G36*
X402353Y820819D02*
X402370Y820616D01*
X402401Y820421D01*
X402444Y820235D01*
X402501Y820057D01*
X402571Y819889D01*
X402654Y819729D01*
X402751Y819578D01*
X402860Y819436D01*
X402982Y819302D01*
X402098Y818418D01*
X401965Y818541D01*
X401823Y818650D01*
X401672Y818746D01*
X401512Y818829D01*
X401343Y818899D01*
X401166Y818956D01*
X400980Y819000D01*
X400785Y819030D01*
X400581Y819048D01*
X400368Y819052D01*
X402348Y821032D01*
X402353Y820819D01*
D02*
G37*
G36*
X416024Y811297D02*
X416042Y811094D01*
X416072Y810899D01*
X416116Y810712D01*
X416173Y810535D01*
X416243Y810366D01*
X416326Y810207D01*
X416422Y810056D01*
X416531Y809913D01*
X416654Y809780D01*
X415770Y808896D01*
X415637Y809018D01*
X415494Y809128D01*
X415343Y809224D01*
X415184Y809307D01*
X415015Y809377D01*
X414838Y809434D01*
X414651Y809478D01*
X414456Y809508D01*
X414253Y809526D01*
X414040Y809530D01*
X416020Y811510D01*
X416024Y811297D01*
D02*
G37*
G36*
X422185Y810871D02*
X422202Y810667D01*
X422233Y810472D01*
X422277Y810286D01*
X422333Y810109D01*
X422403Y809940D01*
X422486Y809781D01*
X422583Y809630D01*
X422692Y809487D01*
X422814Y809354D01*
X421931Y808470D01*
X421797Y808593D01*
X421655Y808702D01*
X421504Y808798D01*
X421344Y808881D01*
X421176Y808951D01*
X420998Y809008D01*
X420812Y809052D01*
X420617Y809082D01*
X420413Y809100D01*
X420201Y809104D01*
X422180Y811084D01*
X422185Y810871D01*
D02*
G37*
G36*
X661105Y808931D02*
X661105Y808732D01*
X661122Y808541D01*
X661153Y808358D01*
X661200Y808183D01*
X661263Y808016D01*
X661341Y807857D01*
X661434Y807705D01*
X661543Y807562D01*
X661667Y807426D01*
X660694Y806631D01*
X660564Y806751D01*
X660424Y806861D01*
X660274Y806960D01*
X660115Y807049D01*
X659946Y807126D01*
X659768Y807193D01*
X659580Y807250D01*
X659383Y807295D01*
X659177Y807330D01*
X658960Y807354D01*
X661119Y809138D01*
X661105Y808931D01*
D02*
G37*
G36*
X441002Y807703D02*
X441158Y807571D01*
X441318Y807455D01*
X441480Y807354D01*
X441646Y807269D01*
X441815Y807199D01*
X441986Y807145D01*
X442161Y807106D01*
X442339Y807083D01*
X442520Y807075D01*
Y805825D01*
X442339Y805817D01*
X442161Y805794D01*
X441986Y805755D01*
X441815Y805701D01*
X441646Y805631D01*
X441480Y805546D01*
X441318Y805445D01*
X441158Y805329D01*
X441002Y805197D01*
X440848Y805050D01*
Y807850D01*
X441002Y807703D01*
D02*
G37*
G36*
X657843Y802328D02*
X657711Y802172D01*
X657595Y802012D01*
X657494Y801850D01*
X657409Y801684D01*
X657339Y801515D01*
X657285Y801344D01*
X657246Y801169D01*
X657223Y800991D01*
X657215Y800810D01*
X655965D01*
X655957Y800991D01*
X655934Y801169D01*
X655895Y801344D01*
X655841Y801515D01*
X655771Y801684D01*
X655686Y801850D01*
X655585Y802012D01*
X655469Y802172D01*
X655337Y802328D01*
X655190Y802482D01*
X657990D01*
X657843Y802328D01*
D02*
G37*
G36*
X610810Y789772D02*
X610634Y789943D01*
X610286Y790231D01*
X610113Y790348D01*
X609942Y790447D01*
X609772Y790528D01*
X609603Y790591D01*
X609435Y790636D01*
X609268Y790663D01*
X609102Y790672D01*
Y791672D01*
X609268Y791681D01*
X609435Y791708D01*
X609603Y791753D01*
X609772Y791816D01*
X609942Y791897D01*
X610113Y791996D01*
X610286Y792113D01*
X610459Y792248D01*
X610634Y792401D01*
X610810Y792572D01*
Y789772D01*
D02*
G37*
G36*
X662923Y785918D02*
X662791Y785762D01*
X662675Y785602D01*
X662574Y785440D01*
X662489Y785274D01*
X662419Y785105D01*
X662365Y784934D01*
X662326Y784759D01*
X662303Y784581D01*
X662295Y784400D01*
X661045D01*
X661037Y784581D01*
X661014Y784759D01*
X660975Y784934D01*
X660921Y785105D01*
X660851Y785274D01*
X660766Y785440D01*
X660665Y785602D01*
X660549Y785762D01*
X660417Y785918D01*
X660270Y786072D01*
X663070D01*
X662923Y785918D01*
D02*
G37*
G36*
X595608Y782949D02*
X595632Y782770D01*
X595673Y782597D01*
X595731Y782430D01*
X595805Y782268D01*
X595896Y782111D01*
X596003Y781960D01*
X596127Y781813D01*
X596267Y781673D01*
X596424Y781537D01*
X593637Y781263D01*
X593772Y781434D01*
X593894Y781605D01*
X594000Y781777D01*
X594093Y781950D01*
X594171Y782123D01*
X594235Y782298D01*
X594285Y782473D01*
X594321Y782649D01*
X594342Y782825D01*
X594349Y783003D01*
X595599Y783132D01*
X595608Y782949D01*
D02*
G37*
G36*
X596424Y778420D02*
X596267Y778285D01*
X596127Y778145D01*
X596003Y777999D01*
X595896Y777847D01*
X595805Y777690D01*
X595731Y777528D01*
X595673Y777361D01*
X595632Y777188D01*
X595608Y777009D01*
X595599Y776826D01*
X594349Y776955D01*
X594342Y777133D01*
X594321Y777309D01*
X594285Y777485D01*
X594235Y777660D01*
X594171Y777835D01*
X594093Y778008D01*
X594000Y778181D01*
X593894Y778353D01*
X593772Y778524D01*
X593637Y778695D01*
X596424Y778420D01*
D02*
G37*
G36*
X534982Y774683D02*
X535138Y774551D01*
X535298Y774435D01*
X535460Y774334D01*
X535626Y774249D01*
X535795Y774179D01*
X535966Y774125D01*
X536141Y774086D01*
X536319Y774063D01*
X536500Y774055D01*
Y772805D01*
X536319Y772797D01*
X536141Y772774D01*
X535966Y772735D01*
X535795Y772681D01*
X535626Y772611D01*
X535460Y772526D01*
X535298Y772425D01*
X535138Y772309D01*
X534982Y772177D01*
X534828Y772030D01*
Y774830D01*
X534982Y774683D01*
D02*
G37*
G36*
X459316Y771476D02*
X459296Y771472D01*
X459265Y771457D01*
X459224Y771429D01*
X459171Y771388D01*
X459035Y771269D01*
X458632Y770881D01*
X457748Y771765D01*
X457827Y771846D01*
X458007Y772050D01*
X458047Y772105D01*
X458077Y772154D01*
X458098Y772196D01*
X458109Y772232D01*
X458110Y772261D01*
X458101Y772284D01*
X459316Y771476D01*
D02*
G37*
G36*
X455020Y772261D02*
X455021Y772232D01*
X455032Y772196D01*
X455053Y772154D01*
X455083Y772105D01*
X455123Y772050D01*
X455233Y771920D01*
X455382Y771765D01*
X454498Y770881D01*
X454381Y770997D01*
X453865Y771457D01*
X453834Y771472D01*
X453814Y771476D01*
X455029Y772284D01*
X455020Y772261D01*
D02*
G37*
G36*
X590097Y769584D02*
X590104Y769405D01*
X590126Y769228D01*
X590163Y769052D01*
X590215Y768878D01*
X590281Y768706D01*
X590362Y768535D01*
X590458Y768366D01*
X590569Y768199D01*
X590694Y768033D01*
X590834Y767869D01*
X588039Y768039D01*
X588193Y768182D01*
X588330Y768328D01*
X588451Y768480D01*
X588556Y768635D01*
X588645Y768795D01*
X588717Y768960D01*
X588774Y769129D01*
X588814Y769303D01*
X588838Y769481D01*
X588847Y769664D01*
X590097Y769584D01*
D02*
G37*
G36*
X543402Y765128D02*
X543280Y765242D01*
X543149Y765344D01*
X543010Y765434D01*
X542863Y765512D01*
X542706Y765578D01*
X542542Y765632D01*
X542368Y765674D01*
X542187Y765704D01*
X541996Y765722D01*
X541797Y765728D01*
Y767328D01*
X541996Y767334D01*
X542187Y767352D01*
X542368Y767382D01*
X542542Y767424D01*
X542706Y767478D01*
X542863Y767544D01*
X543010Y767622D01*
X543149Y767712D01*
X543280Y767814D01*
X543402Y767928D01*
Y765128D01*
D02*
G37*
G36*
X591364Y766409D02*
X591392Y766203D01*
X591432Y766007D01*
X591483Y765819D01*
X591546Y765641D01*
X591620Y765472D01*
X591707Y765313D01*
X591805Y765163D01*
X591914Y765022D01*
X592036Y764890D01*
X591206Y763952D01*
X591071Y764075D01*
X590928Y764184D01*
X590776Y764279D01*
X590617Y764359D01*
X590449Y764424D01*
X590273Y764475D01*
X590088Y764511D01*
X589896Y764533D01*
X589695Y764540D01*
X589485Y764533D01*
X591348Y766624D01*
X591364Y766409D01*
D02*
G37*
G36*
X726422Y760724D02*
X726474Y759902D01*
X726494Y759800D01*
X726516Y759719D01*
X726542Y759658D01*
X726570Y759618D01*
X723770D01*
X723799Y759658D01*
X723824Y759719D01*
X723847Y759800D01*
X723866Y759902D01*
X723883Y760025D01*
X723906Y760333D01*
X723920Y760951D01*
X726420D01*
X726422Y760724D01*
D02*
G37*
G36*
X726542Y756722D02*
X726516Y756661D01*
X726494Y756580D01*
X726474Y756478D01*
X726422Y755656D01*
X726420Y755429D01*
X723920D01*
X723906Y756047D01*
X723883Y756355D01*
X723866Y756478D01*
X723847Y756580D01*
X723824Y756661D01*
X723799Y756722D01*
X723770Y756762D01*
X726570D01*
X726542Y756722D01*
D02*
G37*
G36*
X514641Y755879D02*
X514474Y755873D01*
X514310Y755853D01*
X514148Y755818D01*
X513988Y755769D01*
X513831Y755705D01*
X513677Y755627D01*
X513525Y755534D01*
X513375Y755427D01*
X513227Y755305D01*
X513082Y755168D01*
X511951Y756300D01*
X512087Y756445D01*
X512209Y756592D01*
X512317Y756742D01*
X512410Y756894D01*
X512488Y757049D01*
X512552Y757206D01*
X512601Y757366D01*
X512636Y757528D01*
X512656Y757692D01*
X512661Y757859D01*
X514641Y755879D01*
D02*
G37*
G36*
X469605Y756444D02*
X469439Y756341D01*
X469290Y756229D01*
X469158Y756108D01*
X469044Y755977D01*
X468948Y755836D01*
X468869Y755686D01*
X468808Y755527D01*
X468764Y755358D01*
X468738Y755180D01*
X468729Y754992D01*
X467479Y755355D01*
X467473Y755524D01*
X467456Y755697D01*
X467427Y755873D01*
X467387Y756051D01*
X467335Y756232D01*
X467272Y756416D01*
X467111Y756793D01*
X467013Y756985D01*
X466904Y757180D01*
X469605Y756444D01*
D02*
G37*
G36*
X463962Y756985D02*
X463778Y756603D01*
X463703Y756416D01*
X463588Y756051D01*
X463548Y755873D01*
X463519Y755697D01*
X463502Y755524D01*
X463496Y755355D01*
X462246Y754992D01*
X462237Y755180D01*
X462211Y755358D01*
X462167Y755527D01*
X462106Y755686D01*
X462027Y755836D01*
X461931Y755977D01*
X461817Y756108D01*
X461685Y756229D01*
X461536Y756341D01*
X461370Y756444D01*
X464072Y757180D01*
X463962Y756985D01*
D02*
G37*
G36*
X720097Y754091D02*
X719986Y753953D01*
X719889Y753808D01*
X719804Y753656D01*
X719733Y753497D01*
X719674Y753331D01*
X719629Y753158D01*
X719596Y752977D01*
X719576Y752790D01*
X719570Y752596D01*
X718070D01*
X718064Y752790D01*
X718044Y752977D01*
X718011Y753158D01*
X717966Y753331D01*
X717907Y753497D01*
X717836Y753656D01*
X717751Y753808D01*
X717654Y753953D01*
X717543Y754091D01*
X717420Y754222D01*
X720220D01*
X720097Y754091D01*
D02*
G37*
G36*
X714846D02*
X714736Y753953D01*
X714639Y753808D01*
X714554Y753656D01*
X714482Y753497D01*
X714424Y753331D01*
X714379Y753158D01*
X714346Y752977D01*
X714326Y752790D01*
X714320Y752596D01*
X712820D01*
X712813Y752790D01*
X712794Y752977D01*
X712762Y753158D01*
X712716Y753331D01*
X712657Y753497D01*
X712586Y753656D01*
X712502Y753808D01*
X712404Y753953D01*
X712293Y754091D01*
X712170Y754222D01*
X714970D01*
X714846Y754091D01*
D02*
G37*
G36*
X615677Y753801D02*
X615819Y753692D01*
X615970Y753596D01*
X616130Y753513D01*
X616298Y753443D01*
X616476Y753386D01*
X616662Y753342D01*
X616857Y753312D01*
X617061Y753294D01*
X617273Y753290D01*
X615294Y751310D01*
X615289Y751523D01*
X615272Y751726D01*
X615241Y751921D01*
X615197Y752108D01*
X615140Y752285D01*
X615070Y752454D01*
X614987Y752613D01*
X614891Y752764D01*
X614782Y752907D01*
X614660Y753040D01*
X615543Y753924D01*
X615677Y753801D01*
D02*
G37*
G36*
X610176Y749999D02*
X610028Y750149D01*
X609876Y750284D01*
X609720Y750402D01*
X609561Y750505D01*
X609398Y750592D01*
X609231Y750663D01*
X609060Y750719D01*
X608886Y750758D01*
X608708Y750782D01*
X608526Y750790D01*
X608564Y752040D01*
X608744Y752047D01*
X608922Y752070D01*
X609097Y752108D01*
X609269Y752161D01*
X609440Y752229D01*
X609608Y752312D01*
X609774Y752411D01*
X609937Y752525D01*
X610098Y752654D01*
X610257Y752798D01*
X610176Y749999D01*
D02*
G37*
G36*
X632718Y749983D02*
X632586Y749826D01*
X632470Y749667D01*
X632369Y749504D01*
X632284Y749339D01*
X632214Y749170D01*
X632160Y748998D01*
X632121Y748823D01*
X632098Y748646D01*
X632090Y748465D01*
X630840D01*
X630833Y748646D01*
X630809Y748823D01*
X630771Y748998D01*
X630716Y749170D01*
X630647Y749339D01*
X630561Y749504D01*
X630461Y749667D01*
X630344Y749826D01*
X630213Y749983D01*
X630065Y750136D01*
X632865D01*
X632718Y749983D01*
D02*
G37*
G36*
X613002Y749889D02*
X612852Y749741D01*
X612718Y749589D01*
X612599Y749433D01*
X612496Y749274D01*
X612409Y749111D01*
X612338Y748944D01*
X612282Y748773D01*
X612243Y748599D01*
X612219Y748421D01*
X612211Y748239D01*
X610961Y748277D01*
X610954Y748457D01*
X610931Y748635D01*
X610893Y748810D01*
X610840Y748983D01*
X610772Y749153D01*
X610689Y749321D01*
X610590Y749487D01*
X610476Y749650D01*
X610347Y749811D01*
X610203Y749970D01*
X613002Y749889D01*
D02*
G37*
G36*
X618640Y749811D02*
X618489Y749665D01*
X618354Y749514D01*
X618235Y749359D01*
X618131Y749201D01*
X618044Y749038D01*
X617972Y748872D01*
X617917Y748702D01*
X617877Y748528D01*
X617853Y748350D01*
X617845Y748168D01*
X616595Y748216D01*
X616587Y748396D01*
X616565Y748573D01*
X616527Y748748D01*
X616474Y748921D01*
X616407Y749092D01*
X616324Y749261D01*
X616226Y749428D01*
X616113Y749592D01*
X615985Y749754D01*
X615842Y749914D01*
X618640Y749811D01*
D02*
G37*
G36*
X447054Y741511D02*
X447196Y741402D01*
X447347Y741306D01*
X447507Y741223D01*
X447676Y741153D01*
X447853Y741096D01*
X448039Y741052D01*
X448234Y741022D01*
X448438Y741004D01*
X448651Y741000D01*
X446671Y739020D01*
X446666Y739233D01*
X446649Y739436D01*
X446618Y739632D01*
X446575Y739818D01*
X446518Y739995D01*
X446448Y740164D01*
X446365Y740323D01*
X446269Y740474D01*
X446159Y740617D01*
X446037Y740750D01*
X446921Y741634D01*
X447054Y741511D01*
D02*
G37*
G36*
X168893Y699458D02*
X168761Y699302D01*
X168645Y699142D01*
X168544Y698980D01*
X168459Y698814D01*
X168389Y698645D01*
X168335Y698474D01*
X168296Y698299D01*
X168273Y698121D01*
X168265Y697940D01*
X167015D01*
X167007Y698121D01*
X166984Y698299D01*
X166945Y698474D01*
X166891Y698645D01*
X166821Y698814D01*
X166736Y698980D01*
X166635Y699142D01*
X166519Y699302D01*
X166387Y699458D01*
X166240Y699612D01*
X169040D01*
X168893Y699458D01*
D02*
G37*
G36*
X679512Y696761D02*
X679296Y696702D01*
X678895Y696565D01*
X678710Y696487D01*
X678370Y696312D01*
X678215Y696215D01*
X678070Y696111D01*
X677935Y696001D01*
X677811Y695885D01*
X676680Y696522D01*
X676806Y696660D01*
X676914Y696805D01*
X677002Y696955D01*
X677072Y697112D01*
X677123Y697274D01*
X677155Y697442D01*
X677168Y697616D01*
X677162Y697795D01*
X677137Y697980D01*
X677093Y698172D01*
X679512Y696761D01*
D02*
G37*
G36*
X745031Y693621D02*
X745005Y693560D01*
X744983Y693479D01*
X744963Y693376D01*
X744947Y693254D01*
X744923Y692945D01*
X744909Y692327D01*
X742409D01*
X742408Y692554D01*
X742355Y693376D01*
X742336Y693479D01*
X742313Y693560D01*
X742288Y693621D01*
X742259Y693660D01*
X745059D01*
X745031Y693621D01*
D02*
G37*
G36*
X159685Y688833D02*
X159952Y688264D01*
X160048Y688094D01*
X160249Y687785D01*
X160355Y687646D01*
X160576Y687397D01*
X160059Y686147D01*
X159919Y686275D01*
X159774Y686382D01*
X159626Y686468D01*
X159473Y686533D01*
X159316Y686577D01*
X159155Y686600D01*
X158990Y686602D01*
X158821Y686583D01*
X158647Y686543D01*
X158470Y686482D01*
X159603Y689043D01*
X159685Y688833D01*
D02*
G37*
G36*
X391937Y687543D02*
X391955Y687339D01*
X391985Y687144D01*
X392029Y686958D01*
X392086Y686781D01*
X392156Y686612D01*
X392239Y686452D01*
X392335Y686301D01*
X392444Y686159D01*
X392567Y686026D01*
X391683Y685142D01*
X391549Y685264D01*
X391407Y685374D01*
X391256Y685470D01*
X391096Y685553D01*
X390928Y685623D01*
X390751Y685680D01*
X390564Y685723D01*
X390369Y685754D01*
X390165Y685771D01*
X389953Y685776D01*
X391933Y687756D01*
X391937Y687543D01*
D02*
G37*
G36*
X416310Y678055D02*
X416188Y677922D01*
X416078Y677780D01*
X415982Y677629D01*
X415899Y677469D01*
X415829Y677301D01*
X415772Y677123D01*
X415728Y676937D01*
X415698Y676742D01*
X415680Y676538D01*
X415676Y676326D01*
X413696Y678305D01*
X413909Y678310D01*
X414113Y678327D01*
X414308Y678358D01*
X414494Y678402D01*
X414671Y678458D01*
X414840Y678528D01*
X415000Y678612D01*
X415150Y678708D01*
X415293Y678817D01*
X415426Y678939D01*
X416310Y678055D01*
D02*
G37*
G36*
X368283Y668978D02*
X368151Y668822D01*
X368035Y668662D01*
X367934Y668500D01*
X367849Y668334D01*
X367779Y668165D01*
X367725Y667994D01*
X367686Y667819D01*
X367663Y667641D01*
X367655Y667460D01*
X366405D01*
X366397Y667641D01*
X366374Y667819D01*
X366335Y667994D01*
X366281Y668165D01*
X366211Y668334D01*
X366126Y668500D01*
X366025Y668662D01*
X365909Y668822D01*
X365777Y668978D01*
X365630Y669132D01*
X368430D01*
X368283Y668978D01*
D02*
G37*
G36*
X163787Y666809D02*
X163661Y666672D01*
X163554Y666527D01*
X163464Y666376D01*
X163392Y666219D01*
X163338Y666055D01*
X163302Y665884D01*
X163284Y665708D01*
X163284Y665524D01*
X163302Y665335D01*
X163337Y665138D01*
X160987Y666660D01*
X161204Y666709D01*
X161607Y666830D01*
X161794Y666902D01*
X161970Y666981D01*
X162137Y667068D01*
X162293Y667163D01*
X162440Y667265D01*
X162576Y667375D01*
X162703Y667493D01*
X163787Y666809D01*
D02*
G37*
G36*
X447963Y666721D02*
X448106Y666612D01*
X448257Y666516D01*
X448416Y666433D01*
X448585Y666363D01*
X448762Y666306D01*
X448949Y666262D01*
X449144Y666232D01*
X449347Y666214D01*
X449560Y666210D01*
X447580Y664230D01*
X447576Y664443D01*
X447558Y664646D01*
X447528Y664842D01*
X447484Y665028D01*
X447427Y665205D01*
X447357Y665374D01*
X447274Y665533D01*
X447178Y665684D01*
X447068Y665827D01*
X446946Y665960D01*
X447830Y666844D01*
X447963Y666721D01*
D02*
G37*
G36*
X378772Y666733D02*
X378928Y666601D01*
X379088Y666485D01*
X379250Y666384D01*
X379416Y666299D01*
X379585Y666229D01*
X379756Y666175D01*
X379931Y666136D01*
X380109Y666113D01*
X380290Y666105D01*
Y664855D01*
X380109Y664847D01*
X379931Y664824D01*
X379756Y664785D01*
X379585Y664731D01*
X379416Y664661D01*
X379250Y664576D01*
X379088Y664475D01*
X378928Y664359D01*
X378772Y664227D01*
X378618Y664080D01*
Y666880D01*
X378772Y666733D01*
D02*
G37*
G36*
X358123Y665168D02*
X357991Y665012D01*
X357875Y664852D01*
X357774Y664690D01*
X357689Y664524D01*
X357619Y664355D01*
X357565Y664184D01*
X357526Y664009D01*
X357503Y663831D01*
X357495Y663650D01*
X356245D01*
X356237Y663831D01*
X356214Y664009D01*
X356175Y664184D01*
X356121Y664355D01*
X356051Y664524D01*
X355966Y664690D01*
X355865Y664852D01*
X355749Y665012D01*
X355617Y665168D01*
X355470Y665322D01*
X358270D01*
X358123Y665168D01*
D02*
G37*
G36*
X163328Y664153D02*
X163318Y663959D01*
X163324Y663773D01*
X163348Y663593D01*
X163388Y663420D01*
X163445Y663255D01*
X163519Y663097D01*
X163611Y662945D01*
X163719Y662801D01*
X163844Y662664D01*
X162805Y661935D01*
X162677Y662054D01*
X162539Y662164D01*
X162391Y662265D01*
X162233Y662357D01*
X162066Y662440D01*
X161888Y662515D01*
X161700Y662580D01*
X161503Y662637D01*
X161296Y662685D01*
X161079Y662724D01*
X163356Y664354D01*
X163328Y664153D01*
D02*
G37*
G36*
X374962Y661653D02*
X375118Y661521D01*
X375278Y661405D01*
X375440Y661304D01*
X375606Y661219D01*
X375775Y661149D01*
X375946Y661095D01*
X376121Y661056D01*
X376299Y661033D01*
X376480Y661025D01*
Y659775D01*
X376299Y659767D01*
X376121Y659744D01*
X375946Y659705D01*
X375775Y659651D01*
X375606Y659581D01*
X375440Y659496D01*
X375278Y659395D01*
X375118Y659279D01*
X374962Y659147D01*
X374808Y659000D01*
Y661800D01*
X374962Y661653D01*
D02*
G37*
G36*
X391472Y659113D02*
X391628Y658981D01*
X391788Y658865D01*
X391950Y658764D01*
X392116Y658679D01*
X392285Y658609D01*
X392456Y658555D01*
X392631Y658516D01*
X392809Y658493D01*
X392990Y658485D01*
Y657235D01*
X392809Y657227D01*
X392631Y657204D01*
X392456Y657165D01*
X392285Y657111D01*
X392116Y657041D01*
X391950Y656956D01*
X391788Y656855D01*
X391628Y656739D01*
X391472Y656607D01*
X391318Y656460D01*
Y659260D01*
X391472Y659113D01*
D02*
G37*
G36*
X364019Y653173D02*
X364036Y652969D01*
X364067Y652774D01*
X364111Y652588D01*
X364168Y652411D01*
X364238Y652242D01*
X364321Y652082D01*
X364417Y651931D01*
X364526Y651789D01*
X364649Y651656D01*
X363765Y650772D01*
X363631Y650894D01*
X363489Y651003D01*
X363338Y651100D01*
X363178Y651183D01*
X363010Y651253D01*
X362832Y651309D01*
X362646Y651353D01*
X362451Y651384D01*
X362247Y651401D01*
X362035Y651406D01*
X364015Y653386D01*
X364019Y653173D01*
D02*
G37*
G36*
X711208Y645381D02*
X710991Y645338D01*
X710587Y645226D01*
X710400Y645158D01*
X710223Y645081D01*
X710055Y644996D01*
X709898Y644903D01*
X709751Y644801D01*
X709613Y644691D01*
X709486Y644573D01*
X708428Y645283D01*
X708553Y645421D01*
X708661Y645565D01*
X708752Y645716D01*
X708825Y645874D01*
X708881Y646039D01*
X708920Y646210D01*
X708941Y646389D01*
X708944Y646574D01*
X708931Y646766D01*
X708900Y646965D01*
X711208Y645381D01*
D02*
G37*
G36*
X703560Y644430D02*
X703347Y644426D01*
X703144Y644408D01*
X702949Y644378D01*
X702762Y644334D01*
X702585Y644277D01*
X702416Y644207D01*
X702257Y644124D01*
X702106Y644028D01*
X701963Y643919D01*
X701830Y643796D01*
X700946Y644680D01*
X701068Y644813D01*
X701178Y644956D01*
X701274Y645107D01*
X701357Y645266D01*
X701427Y645435D01*
X701484Y645612D01*
X701528Y645798D01*
X701558Y645994D01*
X701576Y646197D01*
X701580Y646410D01*
X703560Y644430D01*
D02*
G37*
G36*
X341286Y638414D02*
X341089Y638449D01*
X340899Y638466D01*
X340715Y638465D01*
X340538Y638446D01*
X340367Y638410D01*
X340203Y638355D01*
X340045Y638283D01*
X339894Y638193D01*
X339750Y638085D01*
X339612Y637960D01*
X338923Y639038D01*
X339041Y639165D01*
X339151Y639302D01*
X339253Y639448D01*
X339348Y639605D01*
X339434Y639772D01*
X339513Y639949D01*
X339584Y640135D01*
X339648Y640332D01*
X339751Y640756D01*
X341286Y638414D01*
D02*
G37*
G36*
X170978Y636172D02*
X168657Y636119D01*
X168300Y637719D01*
X168508Y637725D01*
X168696Y637745D01*
X168864Y637779D01*
X169011Y637825D01*
X169139Y637885D01*
X169247Y637958D01*
X169335Y638044D01*
X169403Y638144D01*
X169451Y638257D01*
X169479Y638383D01*
X170978Y636172D01*
D02*
G37*
G36*
X169783Y631469D02*
X169629Y631616D01*
X169473Y631748D01*
X169314Y631864D01*
X169151Y631965D01*
X168985Y632050D01*
X168817Y632120D01*
X168645Y632174D01*
X168470Y632213D01*
X168292Y632236D01*
X168111Y632244D01*
Y633494D01*
X168292Y633502D01*
X168470Y633525D01*
X168645Y633563D01*
X168817Y633618D01*
X168985Y633688D01*
X169151Y633773D01*
X169314Y633873D01*
X169473Y633990D01*
X169629Y634122D01*
X169783Y634269D01*
Y631469D01*
D02*
G37*
G36*
X605773Y628338D02*
X605641Y628182D01*
X605525Y628022D01*
X605424Y627860D01*
X605339Y627694D01*
X605269Y627525D01*
X605215Y627354D01*
X605176Y627179D01*
X605153Y627001D01*
X605145Y626820D01*
X603895D01*
X603887Y627001D01*
X603864Y627179D01*
X603825Y627354D01*
X603771Y627525D01*
X603701Y627694D01*
X603616Y627860D01*
X603515Y628022D01*
X603399Y628182D01*
X603267Y628338D01*
X603120Y628492D01*
X605920D01*
X605773Y628338D01*
D02*
G37*
G36*
X565438Y621902D02*
X565456Y621698D01*
X565486Y621503D01*
X565530Y621317D01*
X565587Y621139D01*
X565657Y620971D01*
X565740Y620811D01*
X565836Y620660D01*
X565945Y620518D01*
X566068Y620384D01*
X565184Y619500D01*
X565050Y619623D01*
X564908Y619732D01*
X564757Y619828D01*
X564597Y619911D01*
X564429Y619981D01*
X564251Y620038D01*
X564065Y620082D01*
X563870Y620112D01*
X563666Y620130D01*
X563454Y620134D01*
X565434Y622114D01*
X565438Y621902D01*
D02*
G37*
G36*
X529914Y604928D02*
X529783Y604772D01*
X529666Y604612D01*
X529566Y604450D01*
X529480Y604284D01*
X529411Y604115D01*
X529356Y603944D01*
X529318Y603769D01*
X529294Y603591D01*
X529287Y603410D01*
X528037D01*
X528029Y603591D01*
X528006Y603769D01*
X527967Y603944D01*
X527913Y604115D01*
X527843Y604284D01*
X527758Y604450D01*
X527657Y604612D01*
X527541Y604772D01*
X527409Y604928D01*
X527262Y605082D01*
X530062D01*
X529914Y604928D01*
D02*
G37*
G36*
X503694Y605952D02*
X503841Y605830D01*
X503991Y605723D01*
X504143Y605630D01*
X504298Y605552D01*
X504455Y605488D01*
X504615Y605439D01*
X504777Y605404D01*
X504941Y605384D01*
X505108Y605378D01*
X503128Y603399D01*
X503122Y603565D01*
X503102Y603730D01*
X503068Y603892D01*
X503018Y604051D01*
X502955Y604208D01*
X502876Y604363D01*
X502784Y604515D01*
X502676Y604665D01*
X502554Y604813D01*
X502418Y604958D01*
X503549Y606089D01*
X503694Y605952D01*
D02*
G37*
G36*
X509902Y605660D02*
X510049Y605538D01*
X510199Y605430D01*
X510351Y605337D01*
X510506Y605259D01*
X510663Y605195D01*
X510822Y605146D01*
X510984Y605111D01*
X511149Y605091D01*
X511315Y605086D01*
X509336Y603106D01*
X509330Y603273D01*
X509310Y603437D01*
X509275Y603599D01*
X509226Y603758D01*
X509162Y603915D01*
X509084Y604070D01*
X508991Y604222D01*
X508884Y604372D01*
X508762Y604520D01*
X508625Y604665D01*
X509757Y605796D01*
X509902Y605660D01*
D02*
G37*
G36*
X534802Y603262D02*
X534902Y602857D01*
X534966Y602670D01*
X535039Y602492D01*
X535121Y602324D01*
X535213Y602166D01*
X535313Y602018D01*
X535423Y601879D01*
X535543Y601750D01*
X534801Y600724D01*
X534664Y600849D01*
X534520Y600957D01*
X534369Y601049D01*
X534211Y601123D01*
X534045Y601182D01*
X533872Y601223D01*
X533691Y601248D01*
X533504Y601256D01*
X533309Y601248D01*
X533107Y601222D01*
X534765Y603479D01*
X534802Y603262D01*
D02*
G37*
G36*
X168093Y591464D02*
X168067Y591280D01*
X168060Y591101D01*
X168072Y590928D01*
X168103Y590760D01*
X168153Y590599D01*
X168222Y590443D01*
X168311Y590293D01*
X168418Y590148D01*
X168545Y590009D01*
X167405Y589381D01*
X167281Y589497D01*
X167146Y589607D01*
X167002Y589711D01*
X166847Y589808D01*
X166682Y589900D01*
X166508Y589985D01*
X166128Y590138D01*
X165922Y590205D01*
X165707Y590265D01*
X168138Y591655D01*
X168093Y591464D01*
D02*
G37*
G36*
X172503Y590110D02*
X172474Y590065D01*
X172449Y590003D01*
X172427Y589926D01*
X172408Y589833D01*
X172393Y589724D01*
X172373Y589459D01*
X172366Y589131D01*
X171116D01*
X171114Y589265D01*
X171096Y589496D01*
X171080Y589591D01*
X171061Y589675D01*
X171036Y589745D01*
X171007Y589803D01*
X170974Y589847D01*
X170937Y589879D01*
X170895Y589899D01*
X172535Y590140D01*
X172503Y590110D01*
D02*
G37*
G36*
X456989Y589576D02*
X457032Y589126D01*
X457071Y588921D01*
X457122Y588730D01*
X457186Y588552D01*
X457261Y588388D01*
X457348Y588237D01*
X457447Y588100D01*
X457557Y587976D01*
X456850Y587269D01*
X456727Y587380D01*
X456590Y587479D01*
X456439Y587566D01*
X456275Y587641D01*
X456097Y587704D01*
X455906Y587756D01*
X455701Y587795D01*
X455483Y587822D01*
X455251Y587837D01*
X455006Y587841D01*
X456986Y589821D01*
X456989Y589576D01*
D02*
G37*
G36*
X442993Y585169D02*
X442861Y585013D01*
X442745Y584853D01*
X442644Y584691D01*
X442559Y584525D01*
X442489Y584356D01*
X442435Y584185D01*
X442396Y584010D01*
X442373Y583832D01*
X442365Y583651D01*
X441115D01*
X441107Y583832D01*
X441084Y584010D01*
X441045Y584185D01*
X440991Y584356D01*
X440921Y584525D01*
X440836Y584691D01*
X440735Y584853D01*
X440619Y585013D01*
X440487Y585169D01*
X440340Y585323D01*
X443140D01*
X442993Y585169D01*
D02*
G37*
G36*
X417324Y577833D02*
X417112Y577829D01*
X416908Y577811D01*
X416713Y577781D01*
X416527Y577737D01*
X416349Y577680D01*
X416181Y577610D01*
X416021Y577527D01*
X415870Y577431D01*
X415728Y577322D01*
X415594Y577199D01*
X414711Y578083D01*
X414833Y578217D01*
X414942Y578359D01*
X415038Y578510D01*
X415122Y578670D01*
X415191Y578838D01*
X415248Y579015D01*
X415292Y579202D01*
X415323Y579397D01*
X415340Y579600D01*
X415345Y579813D01*
X417324Y577833D01*
D02*
G37*
G36*
X786110Y577120D02*
X785897Y577116D01*
X785694Y577098D01*
X785499Y577068D01*
X785312Y577024D01*
X785135Y576967D01*
X784966Y576897D01*
X784807Y576814D01*
X784656Y576718D01*
X784513Y576609D01*
X784380Y576486D01*
X783496Y577370D01*
X783618Y577503D01*
X783728Y577646D01*
X783824Y577797D01*
X783907Y577956D01*
X783977Y578125D01*
X784034Y578302D01*
X784078Y578489D01*
X784108Y578684D01*
X784126Y578887D01*
X784130Y579100D01*
X786110Y577120D01*
D02*
G37*
G36*
X358178Y576753D02*
X358021Y576619D01*
X357880Y576480D01*
X357756Y576335D01*
X357648Y576184D01*
X357557Y576028D01*
X357483Y575866D01*
X357425Y575699D01*
X357384Y575526D01*
X357359Y575348D01*
X357351Y575164D01*
X356101Y575303D01*
X356093Y575480D01*
X356072Y575657D01*
X356037Y575833D01*
X355987Y576008D01*
X355924Y576183D01*
X355846Y576357D01*
X355754Y576530D01*
X355648Y576703D01*
X355527Y576875D01*
X355393Y577047D01*
X358178Y576753D01*
D02*
G37*
G36*
X455187Y574403D02*
X454975Y574398D01*
X454771Y574381D01*
X454576Y574350D01*
X454390Y574306D01*
X454212Y574249D01*
X454044Y574179D01*
X453884Y574096D01*
X453733Y574000D01*
X453591Y573891D01*
X453457Y573769D01*
X452574Y574652D01*
X452696Y574786D01*
X452805Y574928D01*
X452901Y575079D01*
X452985Y575239D01*
X453055Y575407D01*
X453111Y575585D01*
X453155Y575771D01*
X453186Y575966D01*
X453203Y576170D01*
X453208Y576382D01*
X455187Y574403D01*
D02*
G37*
G36*
X579780Y572617D02*
X580349Y572110D01*
X580368Y572106D01*
X579099Y571353D01*
X579110Y571376D01*
X579111Y571405D01*
X579102Y571441D01*
X579084Y571482D01*
X579056Y571529D01*
X579019Y571582D01*
X578972Y571642D01*
X578849Y571778D01*
X578773Y571856D01*
X579657Y572740D01*
X579780Y572617D01*
D02*
G37*
G36*
X364310Y571930D02*
X364208Y571799D01*
X364118Y571660D01*
X364040Y571513D01*
X363974Y571357D01*
X363920Y571192D01*
X363878Y571018D01*
X363848Y570837D01*
X363830Y570646D01*
X363824Y570447D01*
X362224D01*
X362218Y570646D01*
X362200Y570837D01*
X362170Y571018D01*
X362128Y571192D01*
X362074Y571357D01*
X362008Y571513D01*
X361930Y571660D01*
X361840Y571799D01*
X361738Y571930D01*
X361624Y572052D01*
X364424D01*
X364310Y571930D01*
D02*
G37*
G36*
X588265Y572193D02*
X588407Y572083D01*
X588558Y571987D01*
X588717Y571904D01*
X588886Y571834D01*
X589063Y571777D01*
X589250Y571734D01*
X589445Y571703D01*
X589649Y571685D01*
X589861Y571681D01*
X587881Y569701D01*
X587877Y569914D01*
X587859Y570118D01*
X587829Y570313D01*
X587785Y570499D01*
X587728Y570676D01*
X587658Y570845D01*
X587575Y571005D01*
X587479Y571156D01*
X587370Y571298D01*
X587247Y571431D01*
X588131Y572315D01*
X588265Y572193D01*
D02*
G37*
G36*
X582693Y570285D02*
X582809Y569881D01*
X582879Y569694D01*
X582957Y569517D01*
X583043Y569350D01*
X583137Y569193D01*
X583239Y569046D01*
X583349Y568909D01*
X583467Y568782D01*
X582769Y567712D01*
X582631Y567837D01*
X582487Y567945D01*
X582336Y568036D01*
X582178Y568108D01*
X582014Y568163D01*
X581843Y568200D01*
X581665Y568220D01*
X581481Y568222D01*
X581290Y568206D01*
X581092Y568173D01*
X582647Y570502D01*
X582693Y570285D01*
D02*
G37*
G36*
X416712Y568103D02*
X416500Y568099D01*
X416296Y568082D01*
X416101Y568051D01*
X415915Y568007D01*
X415737Y567951D01*
X415569Y567881D01*
X415409Y567797D01*
X415258Y567701D01*
X415116Y567592D01*
X414982Y567470D01*
X414098Y568353D01*
X414221Y568487D01*
X414330Y568629D01*
X414426Y568780D01*
X414509Y568940D01*
X414579Y569108D01*
X414636Y569286D01*
X414680Y569472D01*
X414711Y569667D01*
X414728Y569871D01*
X414732Y570083D01*
X416712Y568103D01*
D02*
G37*
G36*
X591885Y569449D02*
X591903Y569245D01*
X591934Y569050D01*
X591977Y568864D01*
X592034Y568686D01*
X592104Y568518D01*
X592187Y568358D01*
X592283Y568207D01*
X592393Y568065D01*
X592515Y567931D01*
X591631Y567047D01*
X591498Y567170D01*
X591356Y567279D01*
X591205Y567375D01*
X591045Y567458D01*
X590876Y567528D01*
X590699Y567585D01*
X590513Y567629D01*
X590318Y567659D01*
X590114Y567677D01*
X589901Y567681D01*
X591881Y569661D01*
X591885Y569449D01*
D02*
G37*
G36*
X371423Y563967D02*
X371296Y563804D01*
X371183Y563639D01*
X371086Y563472D01*
X371003Y563303D01*
X370935Y563132D01*
X370883Y562959D01*
X370845Y562784D01*
X370823Y562606D01*
X370815Y562427D01*
X369565Y562374D01*
X369557Y562556D01*
X369533Y562734D01*
X369493Y562908D01*
X369438Y563078D01*
X369366Y563244D01*
X369278Y563406D01*
X369175Y563564D01*
X369055Y563718D01*
X368920Y563869D01*
X368768Y564015D01*
X371566Y564127D01*
X371423Y563967D01*
D02*
G37*
G36*
X690293Y559806D02*
X690316Y559628D01*
X690355Y559454D01*
X690409Y559282D01*
X690479Y559113D01*
X690564Y558948D01*
X690665Y558785D01*
X690781Y558625D01*
X690913Y558469D01*
X691060Y558316D01*
X688260D01*
X688407Y558469D01*
X688539Y558625D01*
X688655Y558785D01*
X688756Y558948D01*
X688841Y559113D01*
X688911Y559282D01*
X688965Y559454D01*
X689004Y559628D01*
X689027Y559806D01*
X689035Y559987D01*
X690285D01*
X690293Y559806D01*
D02*
G37*
G36*
X141338Y557382D02*
X141121Y557337D01*
X140717Y557221D01*
X140530Y557152D01*
X140353Y557074D01*
X140186Y556988D01*
X140029Y556894D01*
X139882Y556792D01*
X139745Y556682D01*
X139618Y556564D01*
X138549Y557263D01*
X138675Y557401D01*
X138783Y557545D01*
X138873Y557696D01*
X138946Y557854D01*
X139001Y558018D01*
X139038Y558190D01*
X139058Y558367D01*
X139060Y558552D01*
X139045Y558743D01*
X139012Y558941D01*
X141338Y557382D01*
D02*
G37*
G36*
X375452Y557687D02*
X375329Y557517D01*
X375222Y557346D01*
X375128Y557174D01*
X375049Y557001D01*
X374985Y556827D01*
X374935Y556652D01*
X374899Y556476D01*
X374877Y556299D01*
X374870Y556122D01*
X373620Y556003D01*
X373612Y556186D01*
X373587Y556365D01*
X373546Y556538D01*
X373489Y556706D01*
X373415Y556868D01*
X373325Y557026D01*
X373218Y557178D01*
X373095Y557326D01*
X372955Y557467D01*
X372799Y557604D01*
X375588Y557856D01*
X375452Y557687D01*
D02*
G37*
G36*
X650304Y557218D02*
X650308Y557018D01*
X650328Y556826D01*
X650362Y556642D01*
X650411Y556466D01*
X650475Y556299D01*
X650554Y556139D01*
X650648Y555988D01*
X650757Y555845D01*
X650880Y555709D01*
X649927Y554895D01*
X649796Y555016D01*
X649655Y555126D01*
X649505Y555224D01*
X649345Y555312D01*
X649177Y555388D01*
X648999Y555452D01*
X648811Y555506D01*
X648614Y555548D01*
X648408Y555579D01*
X648192Y555599D01*
X650314Y557426D01*
X650304Y557218D01*
D02*
G37*
G36*
X727176Y556073D02*
X727196Y555909D01*
X727230Y555747D01*
X727280Y555587D01*
X727343Y555430D01*
X727422Y555275D01*
X727514Y555123D01*
X727622Y554973D01*
X727744Y554826D01*
X727880Y554681D01*
X726749Y553550D01*
X726604Y553686D01*
X726457Y553808D01*
X726307Y553915D01*
X726154Y554008D01*
X726000Y554087D01*
X725843Y554151D01*
X725683Y554200D01*
X725521Y554234D01*
X725357Y554254D01*
X725190Y554260D01*
X727170Y556240D01*
X727176Y556073D01*
D02*
G37*
G36*
X455900Y554179D02*
X455612Y553830D01*
X455495Y553658D01*
X455396Y553487D01*
X455315Y553316D01*
X455252Y553147D01*
X455207Y552979D01*
X455180Y552812D01*
X455171Y552646D01*
X454171D01*
X454162Y552812D01*
X454135Y552979D01*
X454090Y553147D01*
X454027Y553316D01*
X453946Y553487D01*
X453847Y553658D01*
X453730Y553830D01*
X453595Y554004D01*
X453442Y554179D01*
X453271Y554355D01*
X456071D01*
X455900Y554179D01*
D02*
G37*
G36*
X746776Y546279D02*
X746674Y546148D01*
X746584Y546009D01*
X746506Y545862D01*
X746440Y545705D01*
X746386Y545541D01*
X746344Y545367D01*
X746314Y545186D01*
X746296Y544995D01*
X746290Y544796D01*
X744690D01*
X744684Y544995D01*
X744666Y545186D01*
X744636Y545367D01*
X744594Y545541D01*
X744540Y545705D01*
X744474Y545862D01*
X744396Y546009D01*
X744306Y546148D01*
X744204Y546279D01*
X744090Y546401D01*
X746890D01*
X746776Y546279D01*
D02*
G37*
G36*
X204964Y543734D02*
X204982Y543531D01*
X205012Y543335D01*
X205056Y543149D01*
X205113Y542972D01*
X205183Y542803D01*
X205266Y542644D01*
X205362Y542492D01*
X205471Y542350D01*
X205594Y542217D01*
X204710Y541333D01*
X204577Y541455D01*
X204434Y541565D01*
X204283Y541661D01*
X204124Y541744D01*
X203955Y541814D01*
X203778Y541871D01*
X203591Y541915D01*
X203396Y541945D01*
X203193Y541963D01*
X202980Y541967D01*
X204960Y543947D01*
X204964Y543734D01*
D02*
G37*
G36*
X504823Y542669D02*
X504846Y542491D01*
X504885Y542316D01*
X504939Y542145D01*
X505009Y541976D01*
X505094Y541810D01*
X505195Y541648D01*
X505311Y541488D01*
X505443Y541332D01*
X505590Y541178D01*
X502790D01*
X502937Y541332D01*
X503069Y541488D01*
X503185Y541648D01*
X503286Y541810D01*
X503371Y541976D01*
X503441Y542145D01*
X503495Y542316D01*
X503534Y542491D01*
X503557Y542669D01*
X503565Y542850D01*
X504815D01*
X504823Y542669D01*
D02*
G37*
G36*
X527781Y541863D02*
X527805Y541685D01*
X527843Y541511D01*
X527898Y541339D01*
X527967Y541170D01*
X528053Y541004D01*
X528153Y540842D01*
X528270Y540682D01*
X528401Y540526D01*
X528549Y540372D01*
X525749D01*
X525896Y540526D01*
X526028Y540682D01*
X526144Y540842D01*
X526245Y541004D01*
X526330Y541170D01*
X526400Y541339D01*
X526454Y541511D01*
X526493Y541685D01*
X526516Y541863D01*
X526524Y542044D01*
X527774D01*
X527781Y541863D01*
D02*
G37*
G36*
X521333D02*
X521356Y541685D01*
X521395Y541511D01*
X521449Y541339D01*
X521519Y541170D01*
X521604Y541004D01*
X521705Y540842D01*
X521821Y540682D01*
X521953Y540526D01*
X522100Y540372D01*
X519300D01*
X519447Y540526D01*
X519579Y540682D01*
X519695Y540842D01*
X519796Y541004D01*
X519881Y541170D01*
X519951Y541339D01*
X520005Y541511D01*
X520044Y541685D01*
X520067Y541863D01*
X520075Y542044D01*
X521325D01*
X521333Y541863D01*
D02*
G37*
G36*
X492416Y542023D02*
X492423Y541843D01*
X492446Y541666D01*
X492484Y541491D01*
X492537Y541318D01*
X492605Y541147D01*
X492688Y540979D01*
X492787Y540813D01*
X492900Y540650D01*
X493029Y540489D01*
X493173Y540330D01*
X490374Y540414D01*
X490524Y540562D01*
X490659Y540713D01*
X490778Y540869D01*
X490881Y541028D01*
X490968Y541191D01*
X491039Y541358D01*
X491094Y541529D01*
X491134Y541703D01*
X491158Y541881D01*
X491166Y542063D01*
X492416Y542023D01*
D02*
G37*
G36*
X533795Y541903D02*
X533820Y541725D01*
X533862Y541553D01*
X533920Y541386D01*
X533996Y541227D01*
X534088Y541073D01*
X534197Y540925D01*
X534322Y540784D01*
X534465Y540649D01*
X534624Y540520D01*
X531848Y540155D01*
X531978Y540331D01*
X532095Y540507D01*
X532199Y540682D01*
X532288Y540858D01*
X532364Y541034D01*
X532426Y541210D01*
X532474Y541386D01*
X532509Y541562D01*
X532529Y541738D01*
X532536Y541915D01*
X533786Y542088D01*
X533795Y541903D01*
D02*
G37*
G36*
X347547Y534540D02*
X347371Y534711D01*
X347023Y534999D01*
X346850Y535116D01*
X346679Y535215D01*
X346509Y535296D01*
X346340Y535359D01*
X346172Y535404D01*
X346005Y535431D01*
X345839Y535440D01*
Y536440D01*
X346005Y536449D01*
X346172Y536476D01*
X346340Y536521D01*
X346509Y536584D01*
X346679Y536665D01*
X346850Y536764D01*
X347023Y536881D01*
X347197Y537016D01*
X347371Y537169D01*
X347547Y537340D01*
Y534540D01*
D02*
G37*
G36*
X848572Y534428D02*
X848684Y534314D01*
X848807Y534213D01*
X848942Y534125D01*
X849087Y534051D01*
X849243Y533991D01*
X849411Y533943D01*
X849589Y533910D01*
X849779Y533890D01*
X849980Y533883D01*
X849698Y532283D01*
X849501Y532278D01*
X849126Y532239D01*
X848948Y532204D01*
X848778Y532160D01*
X848614Y532106D01*
X848457Y532042D01*
X848307Y531968D01*
X848164Y531885D01*
X848027Y531791D01*
X848472Y534556D01*
X848572Y534428D01*
D02*
G37*
G36*
X466977Y533041D02*
X467000Y532863D01*
X467039Y532688D01*
X467093Y532517D01*
X467163Y532348D01*
X467248Y532182D01*
X467349Y532020D01*
X467465Y531860D01*
X467597Y531704D01*
X467744Y531550D01*
X464944D01*
X465091Y531704D01*
X465223Y531860D01*
X465339Y532020D01*
X465440Y532182D01*
X465525Y532348D01*
X465595Y532517D01*
X465649Y532688D01*
X465688Y532863D01*
X465711Y533041D01*
X465719Y533222D01*
X466969D01*
X466977Y533041D01*
D02*
G37*
G36*
X452054Y533113D02*
X452080Y532934D01*
X452122Y532763D01*
X452182Y532598D01*
X452258Y532440D01*
X452351Y532289D01*
X452461Y532145D01*
X452589Y532008D01*
X452733Y531878D01*
X452894Y531754D01*
X450129Y531310D01*
X450256Y531491D01*
X450469Y531849D01*
X450556Y532028D01*
X450629Y532206D01*
X450689Y532383D01*
X450736Y532560D01*
X450769Y532736D01*
X450789Y532911D01*
X450796Y533086D01*
X452046Y533298D01*
X452054Y533113D01*
D02*
G37*
G36*
X340418Y530790D02*
X340242Y530961D01*
X339894Y531249D01*
X339721Y531366D01*
X339550Y531465D01*
X339380Y531546D01*
X339210Y531609D01*
X339042Y531654D01*
X338876Y531681D01*
X338710Y531690D01*
Y532690D01*
X338876Y532699D01*
X339042Y532726D01*
X339210Y532771D01*
X339380Y532834D01*
X339550Y532915D01*
X339721Y533014D01*
X339894Y533131D01*
X340067Y533266D01*
X340242Y533419D01*
X340418Y533590D01*
Y530790D01*
D02*
G37*
G36*
X455850Y532393D02*
X455990Y532295D01*
X456141Y532212D01*
X456304Y532146D01*
X456477Y532097D01*
X456662Y532063D01*
X456858Y532046D01*
X457065Y532046D01*
X457283Y532061D01*
X457512Y532093D01*
X455872Y529824D01*
X455829Y530080D01*
X455722Y530545D01*
X455658Y530754D01*
X455588Y530948D01*
X455510Y531126D01*
X455426Y531289D01*
X455335Y531436D01*
X455237Y531567D01*
X455132Y531683D01*
X455722Y532508D01*
X455850Y532393D01*
D02*
G37*
G36*
X408963Y530361D02*
X408987Y530183D01*
X409025Y530008D01*
X409080Y529837D01*
X409150Y529668D01*
X409235Y529503D01*
X409337Y529341D01*
X409453Y529182D01*
X409585Y529026D01*
X409733Y528874D01*
X406933Y528860D01*
X407080Y529014D01*
X407211Y529171D01*
X407327Y529332D01*
X407427Y529495D01*
X407512Y529661D01*
X407582Y529830D01*
X407636Y530002D01*
X407674Y530177D01*
X407698Y530354D01*
X407705Y530535D01*
X408955Y530542D01*
X408963Y530361D01*
D02*
G37*
G36*
X379940Y528304D02*
X379748Y528418D01*
X379372Y528611D01*
X379188Y528689D01*
X379005Y528755D01*
X378825Y528810D01*
X378647Y528852D01*
X378471Y528882D01*
X378297Y528900D01*
X378126Y528906D01*
X377806Y530156D01*
X377993Y530165D01*
X378172Y530191D01*
X378341Y530234D01*
X378502Y530295D01*
X378654Y530373D01*
X378797Y530469D01*
X378932Y530582D01*
X379058Y530713D01*
X379175Y530861D01*
X379283Y531026D01*
X379940Y528304D01*
D02*
G37*
G36*
X347248Y526691D02*
X347129Y526881D01*
X347003Y527050D01*
X346871Y527200D01*
X346733Y527329D01*
X346589Y527439D01*
X346439Y527529D01*
X346282Y527599D01*
X346119Y527649D01*
X345951Y527678D01*
X345775Y527688D01*
X346037Y528688D01*
X346186Y528696D01*
X346344Y528717D01*
X346511Y528753D01*
X346687Y528803D01*
X346872Y528868D01*
X347269Y529040D01*
X347481Y529148D01*
X347933Y529406D01*
X347248Y526691D01*
D02*
G37*
G36*
X362749Y528168D02*
X362549Y527798D01*
X362468Y527615D01*
X362399Y527434D01*
X362343Y527254D01*
X362299Y527076D01*
X362268Y526900D01*
X362249Y526726D01*
X362243Y526554D01*
X360993Y526270D01*
X360984Y526457D01*
X360959Y526635D01*
X360915Y526805D01*
X360855Y526968D01*
X360777Y527122D01*
X360682Y527268D01*
X360570Y527405D01*
X360440Y527535D01*
X360294Y527657D01*
X360130Y527770D01*
X362868Y528356D01*
X362749Y528168D01*
D02*
G37*
G36*
X379695Y523234D02*
X379527Y523372D01*
X379357Y523494D01*
X379187Y523602D01*
X379016Y523696D01*
X378843Y523776D01*
X378670Y523841D01*
X378495Y523891D01*
X378319Y523927D01*
X378142Y523949D01*
X377964Y523956D01*
X377853Y525206D01*
X378036Y525214D01*
X378214Y525239D01*
X378388Y525280D01*
X378556Y525337D01*
X378719Y525411D01*
X378877Y525501D01*
X379030Y525607D01*
X379178Y525730D01*
X379321Y525869D01*
X379459Y526024D01*
X379695Y523234D01*
D02*
G37*
G36*
X610274Y523905D02*
X610303Y523736D01*
X610350Y523571D01*
X610418Y523407D01*
X610504Y523246D01*
X610609Y523087D01*
X610733Y522931D01*
X610877Y522777D01*
X611040Y522625D01*
X611222Y522476D01*
X608441Y522147D01*
X608597Y522350D01*
X608861Y522739D01*
X608968Y522927D01*
X609058Y523110D01*
X609133Y523288D01*
X609190Y523462D01*
X609231Y523631D01*
X609256Y523794D01*
X609264Y523954D01*
X610264Y524076D01*
X610274Y523905D01*
D02*
G37*
G36*
X372104Y523168D02*
X371972Y523012D01*
X371856Y522852D01*
X371755Y522690D01*
X371670Y522524D01*
X371600Y522355D01*
X371546Y522184D01*
X371507Y522009D01*
X371484Y521831D01*
X371476Y521650D01*
X370226D01*
X370218Y521831D01*
X370195Y522009D01*
X370156Y522184D01*
X370102Y522355D01*
X370032Y522524D01*
X369947Y522690D01*
X369846Y522852D01*
X369730Y523012D01*
X369598Y523168D01*
X369451Y523322D01*
X372251D01*
X372104Y523168D01*
D02*
G37*
G36*
X398733Y522939D02*
X398756Y522761D01*
X398795Y522587D01*
X398849Y522415D01*
X398919Y522246D01*
X399004Y522080D01*
X399105Y521918D01*
X399221Y521758D01*
X399353Y521602D01*
X399500Y521448D01*
X396700D01*
X396847Y521602D01*
X396979Y521758D01*
X397095Y521918D01*
X397196Y522080D01*
X397281Y522246D01*
X397351Y522415D01*
X397405Y522587D01*
X397444Y522761D01*
X397467Y522939D01*
X397475Y523120D01*
X398725D01*
X398733Y522939D01*
D02*
G37*
G36*
X405068Y523219D02*
X405094Y523041D01*
X405136Y522869D01*
X405196Y522705D01*
X405272Y522548D01*
X405366Y522397D01*
X405476Y522254D01*
X405604Y522118D01*
X405748Y521989D01*
X405910Y521867D01*
X403149Y521403D01*
X403274Y521585D01*
X403486Y521945D01*
X403572Y522124D01*
X403644Y522302D01*
X403704Y522480D01*
X403750Y522657D01*
X403783Y522833D01*
X403803Y523008D01*
X403810Y523183D01*
X405060Y523405D01*
X405068Y523219D01*
D02*
G37*
G36*
X412838Y521416D02*
X412861Y521238D01*
X412900Y521063D01*
X412954Y520891D01*
X413024Y520723D01*
X413109Y520557D01*
X413210Y520395D01*
X413326Y520235D01*
X413458Y520079D01*
X413605Y519925D01*
X410805D01*
X410953Y520079D01*
X411084Y520235D01*
X411201Y520395D01*
X411301Y520557D01*
X411387Y520723D01*
X411456Y520891D01*
X411511Y521063D01*
X411549Y521238D01*
X411573Y521416D01*
X411580Y521597D01*
X412830D01*
X412838Y521416D01*
D02*
G37*
G36*
X483732Y519787D02*
X483872Y519677D01*
X484021Y519578D01*
X484181Y519490D01*
X484349Y519413D01*
X484527Y519346D01*
X484715Y519290D01*
X484912Y519245D01*
X485119Y519211D01*
X485335Y519187D01*
X483181Y517398D01*
X483195Y517605D01*
X483194Y517804D01*
X483177Y517995D01*
X483145Y518178D01*
X483097Y518353D01*
X483035Y518520D01*
X482957Y518680D01*
X482864Y518831D01*
X482755Y518974D01*
X482631Y519110D01*
X483601Y519908D01*
X483732Y519787D01*
D02*
G37*
G36*
X465931Y518971D02*
X466068Y518872D01*
X466219Y518785D01*
X466383Y518710D01*
X466561Y518647D01*
X466752Y518596D01*
X466957Y518556D01*
X467175Y518529D01*
X467407Y518513D01*
X467652Y518510D01*
X465672Y516530D01*
X465669Y516775D01*
X465626Y517225D01*
X465587Y517430D01*
X465536Y517621D01*
X465472Y517799D01*
X465397Y517963D01*
X465310Y518114D01*
X465211Y518251D01*
X465101Y518374D01*
X465808Y519082D01*
X465931Y518971D01*
D02*
G37*
G36*
X554489Y517976D02*
X554339Y517827D01*
X554205Y517674D01*
X554087Y517518D01*
X553984Y517359D01*
X553897Y517195D01*
X553826Y517028D01*
X553771Y516857D01*
X553732Y516683D01*
X553708Y516505D01*
X553700Y516324D01*
X552450Y516357D01*
X552443Y516537D01*
X552420Y516715D01*
X552382Y516890D01*
X552328Y517063D01*
X552260Y517233D01*
X552177Y517401D01*
X552078Y517566D01*
X551964Y517729D01*
X551835Y517889D01*
X551690Y518047D01*
X554489Y517976D01*
D02*
G37*
G36*
X638782Y516131D02*
X638571Y516132D01*
X638368Y516119D01*
X638174Y516093D01*
X637989Y516053D01*
X637812Y515999D01*
X637644Y515931D01*
X637484Y515849D01*
X637333Y515754D01*
X637190Y515645D01*
X637056Y515522D01*
X636198Y516432D01*
X636320Y516564D01*
X636429Y516706D01*
X636526Y516856D01*
X636611Y517016D01*
X636683Y517185D01*
X636743Y517363D01*
X636790Y517550D01*
X636825Y517745D01*
X636847Y517950D01*
X636857Y518164D01*
X638782Y516131D01*
D02*
G37*
G36*
X624050Y517304D02*
X623899Y517157D01*
X623764Y517007D01*
X623644Y516852D01*
X623541Y516694D01*
X623453Y516532D01*
X623382Y516366D01*
X623326Y516195D01*
X623286Y516021D01*
X623262Y515843D01*
X623254Y515661D01*
X622004Y515711D01*
X621997Y515890D01*
X621974Y516068D01*
X621937Y516243D01*
X621884Y516416D01*
X621816Y516587D01*
X621734Y516756D01*
X621636Y516923D01*
X621523Y517087D01*
X621395Y517249D01*
X621252Y517410D01*
X624050Y517304D01*
D02*
G37*
G36*
X649103Y516587D02*
X648974Y516427D01*
X648860Y516264D01*
X648761Y516099D01*
X648678Y515931D01*
X648609Y515761D01*
X648556Y515588D01*
X648518Y515413D01*
X648495Y515235D01*
X648488Y515055D01*
X647238Y515022D01*
X647230Y515204D01*
X647206Y515382D01*
X647167Y515556D01*
X647112Y515727D01*
X647040Y515894D01*
X646954Y516057D01*
X646851Y516217D01*
X646733Y516373D01*
X646599Y516525D01*
X646449Y516674D01*
X649248Y516745D01*
X649103Y516587D01*
D02*
G37*
G36*
X615565Y516261D02*
X615441Y516094D01*
X615332Y515925D01*
X615237Y515755D01*
X615157Y515583D01*
X615091Y515410D01*
X615040Y515236D01*
X615003Y515060D01*
X614981Y514883D01*
X614974Y514705D01*
X613724Y514610D01*
X613716Y514793D01*
X613691Y514971D01*
X613651Y515144D01*
X613594Y515313D01*
X613521Y515477D01*
X613432Y515636D01*
X613326Y515791D01*
X613204Y515940D01*
X613066Y516085D01*
X612911Y516226D01*
X615704Y516427D01*
X615565Y516261D01*
D02*
G37*
G36*
X566403Y515333D02*
X566271Y515177D01*
X566155Y515017D01*
X566054Y514855D01*
X565969Y514689D01*
X565899Y514520D01*
X565845Y514349D01*
X565806Y514174D01*
X565783Y513996D01*
X565775Y513815D01*
X564525D01*
X564517Y513996D01*
X564494Y514174D01*
X564455Y514349D01*
X564401Y514520D01*
X564331Y514689D01*
X564246Y514855D01*
X564145Y515017D01*
X564029Y515177D01*
X563897Y515333D01*
X563750Y515487D01*
X566550D01*
X566403Y515333D01*
D02*
G37*
G36*
X277459Y501156D02*
X277171Y500807D01*
X277054Y500635D01*
X276955Y500463D01*
X276874Y500293D01*
X276811Y500124D01*
X276766Y499956D01*
X276739Y499789D01*
X276730Y499623D01*
X275730D01*
X275721Y499789D01*
X275694Y499956D01*
X275649Y500124D01*
X275586Y500293D01*
X275505Y500463D01*
X275406Y500635D01*
X275289Y500807D01*
X275154Y500981D01*
X275001Y501156D01*
X274830Y501331D01*
X277630D01*
X277459Y501156D01*
D02*
G37*
G36*
X565783Y499489D02*
X565806Y499311D01*
X565845Y499136D01*
X565899Y498965D01*
X565969Y498796D01*
X566054Y498630D01*
X566155Y498468D01*
X566271Y498308D01*
X566403Y498152D01*
X566550Y497998D01*
X563750D01*
X563897Y498152D01*
X564029Y498308D01*
X564145Y498468D01*
X564246Y498630D01*
X564331Y498796D01*
X564401Y498965D01*
X564455Y499136D01*
X564494Y499311D01*
X564517Y499489D01*
X564525Y499670D01*
X565775D01*
X565783Y499489D01*
D02*
G37*
G36*
X600243Y495472D02*
X600250Y495296D01*
X600271Y495121D01*
X600304Y494944D01*
X600352Y494768D01*
X600413Y494592D01*
X600488Y494415D01*
X600576Y494238D01*
X600678Y494061D01*
X600794Y493883D01*
X600923Y493706D01*
X598151Y494102D01*
X598311Y494229D01*
X598455Y494362D01*
X598581Y494502D01*
X598690Y494648D01*
X598783Y494801D01*
X598859Y494960D01*
X598918Y495126D01*
X598960Y495298D01*
X598985Y495476D01*
X598993Y495661D01*
X600243Y495472D01*
D02*
G37*
G36*
X649111Y494736D02*
X648988Y494603D01*
X648879Y494461D01*
X648783Y494310D01*
X648700Y494150D01*
X648630Y493982D01*
X648573Y493804D01*
X648529Y493618D01*
X648499Y493423D01*
X648481Y493219D01*
X648477Y493006D01*
X646497Y494986D01*
X646710Y494991D01*
X646914Y495008D01*
X647109Y495039D01*
X647295Y495083D01*
X647472Y495139D01*
X647641Y495209D01*
X647801Y495292D01*
X647952Y495389D01*
X648094Y495498D01*
X648227Y495620D01*
X649111Y494736D01*
D02*
G37*
G36*
X636582Y492818D02*
X636605Y492640D01*
X636644Y492465D01*
X636698Y492294D01*
X636768Y492125D01*
X636853Y491959D01*
X636954Y491797D01*
X637070Y491637D01*
X637202Y491481D01*
X637349Y491327D01*
X634549D01*
X634696Y491481D01*
X634828Y491637D01*
X634944Y491797D01*
X635045Y491959D01*
X635130Y492125D01*
X635200Y492294D01*
X635254Y492465D01*
X635293Y492640D01*
X635316Y492818D01*
X635324Y492999D01*
X636574D01*
X636582Y492818D01*
D02*
G37*
G36*
X596000Y491972D02*
X596023Y491794D01*
X596062Y491619D01*
X596116Y491447D01*
X596186Y491278D01*
X596271Y491113D01*
X596372Y490950D01*
X596488Y490791D01*
X596620Y490634D01*
X596767Y490481D01*
X593967D01*
X594114Y490634D01*
X594246Y490791D01*
X594362Y490950D01*
X594463Y491113D01*
X594548Y491278D01*
X594618Y491447D01*
X594672Y491619D01*
X594711Y491794D01*
X594734Y491972D01*
X594742Y492152D01*
X595992D01*
X596000Y491972D01*
D02*
G37*
G36*
X590976Y492115D02*
X590849Y491976D01*
X590742Y491831D01*
X590653Y491681D01*
X590584Y491525D01*
X590534Y491363D01*
X590503Y491196D01*
X590491Y491023D01*
X590498Y490844D01*
X590524Y490659D01*
X590569Y490469D01*
X588138Y491858D01*
X588354Y491919D01*
X588754Y492059D01*
X588939Y492138D01*
X589278Y492315D01*
X589433Y492413D01*
X589577Y492517D01*
X589712Y492627D01*
X589836Y492743D01*
X590976Y492115D01*
D02*
G37*
G36*
X643236Y492006D02*
X643262Y491828D01*
X643305Y491658D01*
X643366Y491497D01*
X643444Y491344D01*
X643540Y491200D01*
X643653Y491065D01*
X643783Y490939D01*
X643931Y490821D01*
X644096Y490711D01*
X641370Y490069D01*
X641486Y490260D01*
X641680Y490635D01*
X641759Y490819D01*
X641825Y491001D01*
X641880Y491181D01*
X641922Y491359D01*
X641953Y491535D01*
X641971Y491709D01*
X641977Y491881D01*
X643227Y492193D01*
X643236Y492006D01*
D02*
G37*
G36*
X628802Y492410D02*
X628944Y492301D01*
X629095Y492205D01*
X629255Y492122D01*
X629424Y492052D01*
X629601Y491995D01*
X629787Y491951D01*
X629982Y491921D01*
X630186Y491903D01*
X630399Y491899D01*
X628419Y489919D01*
X628414Y490132D01*
X628397Y490335D01*
X628366Y490530D01*
X628322Y490717D01*
X628266Y490894D01*
X628196Y491063D01*
X628113Y491222D01*
X628017Y491373D01*
X627907Y491516D01*
X627785Y491649D01*
X628669Y492533D01*
X628802Y492410D01*
D02*
G37*
G36*
X247206Y490830D02*
X247075Y490674D01*
X246958Y490514D01*
X246857Y490352D01*
X246772Y490186D01*
X246702Y490017D01*
X246648Y489846D01*
X246609Y489671D01*
X246586Y489493D01*
X246579Y489312D01*
X245329D01*
X245321Y489493D01*
X245298Y489671D01*
X245259Y489846D01*
X245205Y490017D01*
X245135Y490186D01*
X245049Y490352D01*
X244949Y490514D01*
X244832Y490674D01*
X244701Y490830D01*
X244554Y490984D01*
X247353D01*
X247206Y490830D01*
D02*
G37*
G36*
X482846Y490744D02*
X482889Y490294D01*
X482928Y490090D01*
X482979Y489898D01*
X483042Y489721D01*
X483117Y489557D01*
X483204Y489406D01*
X483303Y489269D01*
X483414Y489145D01*
X482707Y488438D01*
X482583Y488549D01*
X482446Y488648D01*
X482295Y488735D01*
X482131Y488810D01*
X481954Y488873D01*
X481763Y488924D01*
X481558Y488964D01*
X481340Y488991D01*
X481108Y489006D01*
X480863Y489010D01*
X482842Y490989D01*
X482846Y490744D01*
D02*
G37*
G36*
X589508Y483790D02*
X589355Y483937D01*
X589198Y484069D01*
X589039Y484185D01*
X588876Y484286D01*
X588710Y484371D01*
X588542Y484441D01*
X588370Y484495D01*
X588195Y484534D01*
X588017Y484557D01*
X587836Y484565D01*
Y485815D01*
X588017Y485822D01*
X588195Y485846D01*
X588370Y485885D01*
X588542Y485939D01*
X588710Y486008D01*
X588876Y486094D01*
X589039Y486194D01*
X589198Y486311D01*
X589355Y486442D01*
X589508Y486590D01*
Y483790D01*
D02*
G37*
G36*
X525008Y481648D02*
X523847Y480985D01*
X523850Y480995D01*
X523845Y481013D01*
X523832Y481036D01*
X523811Y481066D01*
X523783Y481102D01*
X523702Y481194D01*
X523523Y481379D01*
X524407Y482263D01*
X525008Y481648D01*
D02*
G37*
G36*
X587852Y478660D02*
X587698Y478807D01*
X587542Y478939D01*
X587382Y479055D01*
X587220Y479156D01*
X587054Y479241D01*
X586885Y479311D01*
X586714Y479365D01*
X586539Y479404D01*
X586361Y479427D01*
X586180Y479435D01*
Y480685D01*
X586361Y480693D01*
X586539Y480716D01*
X586714Y480755D01*
X586885Y480809D01*
X587054Y480879D01*
X587220Y480964D01*
X587382Y481065D01*
X587542Y481181D01*
X587698Y481313D01*
X587852Y481460D01*
Y478660D01*
D02*
G37*
G36*
X499789Y476799D02*
X499762Y476614D01*
X499755Y476435D01*
X499767Y476262D01*
X499799Y476095D01*
X499849Y475933D01*
X499918Y475777D01*
X500006Y475627D01*
X500114Y475482D01*
X500241Y475343D01*
X499100Y474715D01*
X498976Y474831D01*
X498842Y474941D01*
X498698Y475045D01*
X498543Y475143D01*
X498378Y475234D01*
X498204Y475319D01*
X497823Y475472D01*
X497618Y475539D01*
X497403Y475600D01*
X499834Y476989D01*
X499789Y476799D01*
D02*
G37*
G36*
X504291Y475751D02*
X504234Y475684D01*
X504183Y475603D01*
X504138Y475507D01*
X504101Y475397D01*
X504070Y475272D01*
X504047Y475134D01*
X504030Y474980D01*
X504016Y474630D01*
X502766D01*
X502762Y474794D01*
X502732Y475082D01*
X502706Y475206D01*
X502672Y475316D01*
X502630Y475413D01*
X502581Y475496D01*
X502525Y475566D01*
X502461Y475622D01*
X502389Y475665D01*
X504356Y475803D01*
X504291Y475751D01*
D02*
G37*
G36*
X230463Y474046D02*
X230331Y473890D01*
X230215Y473730D01*
X230114Y473567D01*
X230028Y473402D01*
X229959Y473233D01*
X229905Y473061D01*
X229866Y472887D01*
X229843Y472709D01*
X229835Y472528D01*
X228585D01*
X228577Y472709D01*
X228554Y472887D01*
X228515Y473061D01*
X228461Y473233D01*
X228391Y473402D01*
X228306Y473567D01*
X228205Y473730D01*
X228089Y473890D01*
X227957Y474046D01*
X227810Y474199D01*
X230610D01*
X230463Y474046D01*
D02*
G37*
D11*
X246763Y216427D02*
X246838Y216502D01*
X246380Y214630D02*
X246763Y215013D01*
Y216427D01*
X246838Y216502D02*
Y255607D01*
D12*
X691600Y418636D02*
X697564Y412672D01*
X691350Y519879D02*
X691600Y519630D01*
X691350Y519380D02*
X691600Y519630D01*
X691350Y457028D02*
X691600Y456778D01*
Y418636D02*
Y456778D01*
X691350Y457028D02*
Y519380D01*
X693743Y693071D02*
Y719679D01*
X688653Y724769D02*
X693743Y719679D01*
X691350Y547530D02*
X695946Y552126D01*
X691350Y519879D02*
Y547530D01*
X695946Y578943D02*
Y621545D01*
X715855Y641454D02*
Y670959D01*
X695946Y621545D02*
X715855Y641454D01*
X693743Y693071D02*
X715855Y670959D01*
X695946Y552126D02*
Y578943D01*
X695970Y578967D01*
D13*
X412486Y448660D02*
Y465726D01*
X305383Y268541D02*
X305957Y267967D01*
X311205Y268109D02*
Y268817D01*
X305383Y268541D02*
Y271036D01*
X304153Y272266D02*
X305383Y271036D01*
X306403Y273619D02*
X311205Y268817D01*
X308804Y284296D02*
X317510Y275590D01*
X304153Y272266D02*
Y275590D01*
X609764Y521128D02*
Y556096D01*
X587940Y577920D02*
Y611545D01*
Y577920D02*
X609764Y556096D01*
Y521128D02*
X609999Y520893D01*
X266912Y273216D02*
Y273915D01*
X265236Y275590D02*
X266912Y273915D01*
Y273216D02*
X269257Y270871D01*
X269391D01*
X485329Y466490D02*
X491412Y460407D01*
Y451781D02*
Y460407D01*
Y451781D02*
X494192Y449001D01*
X497257D01*
X499300Y446958D01*
Y437086D02*
Y446958D01*
Y437086D02*
X500588Y435798D01*
X508838D01*
X512674Y431962D01*
Y426091D02*
Y431962D01*
X509231Y422648D02*
X512674Y426091D01*
X480843Y491009D02*
X485329Y486523D01*
Y466490D02*
Y476250D01*
Y486523D01*
X393554Y494949D02*
Y552431D01*
X337573Y608413D02*
X393554Y552431D01*
X337573Y608413D02*
Y622053D01*
X347559Y632039D01*
Y718560D01*
X349946Y263237D02*
X350520Y262663D01*
X349946Y263237D02*
Y266078D01*
X347980Y268044D02*
X349946Y266078D01*
X347980Y268044D02*
Y277506D01*
X257440Y283386D02*
X265236Y275590D01*
X262588Y272245D02*
Y275056D01*
X251810Y285834D02*
X262588Y275056D01*
X254986Y285840D02*
X257440Y283386D01*
X251810Y285834D02*
Y288518D01*
X255936Y308687D02*
Y309499D01*
X254986Y307737D02*
X255936Y308687D01*
X254986Y285840D02*
Y307737D01*
X251236Y289092D02*
X251810Y288518D01*
X262588Y272245D02*
X263162Y271671D01*
X262949Y393759D02*
X268780Y399590D01*
X269471D01*
X262949Y386868D02*
Y393759D01*
X242913Y402182D02*
X256480Y388615D01*
X300185Y297990D02*
X304153Y294022D01*
X303685Y299560D02*
X306403Y296842D01*
X308804Y284296D02*
Y299390D01*
X306403Y275590D02*
Y296842D01*
X304153Y275590D02*
Y294022D01*
X306403Y273619D02*
Y275590D01*
X310557Y361253D02*
X310557D01*
X284480Y387330D02*
Y517768D01*
Y387330D02*
X310557Y361253D01*
X310557D02*
X314070Y357740D01*
X282230Y361883D02*
Y518700D01*
X279980Y359472D02*
Y519632D01*
X277380Y347980D02*
Y440625D01*
X346387Y719732D02*
Y720544D01*
Y719732D02*
X347559Y718560D01*
X260060Y376738D02*
X263560Y373238D01*
X267019D01*
X267560Y372697D01*
X266589Y347980D02*
Y367028D01*
X256480Y377385D02*
X257810Y376054D01*
Y375806D02*
Y376054D01*
Y375806D02*
X266589Y367028D01*
X259080Y377967D02*
X260060Y376986D01*
X263810Y378292D02*
X263816Y378297D01*
Y386001D01*
X260060Y376738D02*
Y376986D01*
X262949Y386868D02*
X263816Y386001D01*
X259080Y377967D02*
Y424180D01*
X256480Y377385D02*
Y388615D01*
X282230Y361883D02*
X287020Y357093D01*
X279980Y359472D02*
X281770Y357682D01*
X287020Y356870D02*
Y357093D01*
X281770Y356870D02*
Y357682D01*
X276230Y441775D02*
X277380Y440625D01*
X266589Y341836D02*
Y347980D01*
X454671Y532852D02*
X457401Y530122D01*
X454671Y532852D02*
Y555783D01*
X457401Y530122D02*
X457849D01*
X598450Y622055D02*
Y640770D01*
X587940Y611545D02*
X598450Y622055D01*
X621090Y737362D02*
X627677Y730774D01*
Y669998D02*
Y730774D01*
X598450Y640770D02*
X627677Y669998D01*
X621090Y737362D02*
Y755590D01*
X617220Y759460D02*
X621090Y755590D01*
X295720Y532190D02*
X341846D01*
X282230Y518700D02*
X295720Y532190D01*
X296288Y535940D02*
X348975D01*
X279980Y519632D02*
X296288Y535940D01*
X432601Y322283D02*
X432773D01*
X433070Y322580D01*
X459363Y348873D01*
X300185Y297990D02*
Y301884D01*
X284480Y517768D02*
X294900Y528188D01*
X276230Y441775D02*
Y502760D01*
X308685Y299509D02*
X308804Y299390D01*
X412486Y465726D02*
X417386Y470626D01*
X600262Y766258D02*
Y785718D01*
X605717Y791172D02*
X612238D01*
X600262Y785718D02*
X605717Y791172D01*
X607060Y759460D02*
X617220D01*
X393554Y494949D02*
X396102Y492401D01*
X396441D01*
X417386Y471455D01*
Y470626D02*
Y471455D01*
X462340Y521842D02*
Y582487D01*
X300185Y301884D02*
X302685Y304384D01*
X303685Y299560D02*
Y299560D01*
X461452Y393423D02*
Y406055D01*
X459363Y391334D02*
X461452Y393423D01*
X302685Y304384D02*
Y304560D01*
X294900Y528188D02*
X348486D01*
X462340Y521842D02*
X467672Y516510D01*
X454986Y589841D02*
X462340Y582487D01*
X457200Y410307D02*
Y416560D01*
X600262Y766258D02*
X607060Y759460D01*
X348486Y528188D02*
X348975Y527699D01*
X459363Y348873D02*
Y391334D01*
X457200Y410307D02*
X461452Y406055D01*
D14*
X749227Y623145D02*
Y637961D01*
Y623145D02*
X802210Y570162D01*
X751977Y624284D02*
Y639100D01*
Y624284D02*
X804960Y571301D01*
X736859Y650330D02*
X749227Y637961D01*
X739609Y651469D02*
X751977Y639100D01*
X804960Y542953D02*
Y571301D01*
X736859Y650330D02*
Y695021D01*
X773640Y511633D02*
X804960Y542953D01*
X802210Y544092D02*
Y570162D01*
X770890Y512772D02*
X802210Y544092D01*
X796290Y348831D02*
Y414020D01*
X769836Y318488D02*
X799040Y347692D01*
X773640Y440559D02*
X799040Y415159D01*
X767086Y319627D02*
X796290Y348831D01*
X770890Y439420D02*
X796290Y414020D01*
X799040Y347692D02*
Y415159D01*
X773640Y440559D02*
Y511633D01*
X770890Y439420D02*
Y512772D01*
X739609Y651469D02*
Y696160D01*
X717550Y714330D02*
Y738771D01*
X718820Y741390D02*
Y755650D01*
Y741390D02*
X720300Y739910D01*
Y715469D02*
Y739910D01*
X713570Y742751D02*
Y755650D01*
Y742751D02*
X717550Y738771D01*
X734707Y763364D02*
X735877Y764533D01*
X730609Y764541D02*
Y765218D01*
Y764541D02*
X731957Y763193D01*
Y725151D02*
Y763193D01*
X734707Y726290D02*
Y763364D01*
X735877Y764533D02*
Y765210D01*
X717550Y714330D02*
X736859Y695021D01*
X720300Y715469D02*
X739609Y696160D01*
X762000Y212090D02*
X769836Y219926D01*
Y318488D01*
X761938Y207721D02*
Y209489D01*
X762000Y209550D01*
Y212090D01*
X761460Y207242D02*
X761938Y207721D01*
X759250Y213229D02*
X767086Y221065D01*
Y319627D01*
X759250Y210689D02*
Y213229D01*
X756210Y207242D02*
Y207649D01*
X759250Y210689D01*
X774976Y650811D02*
Y686022D01*
Y650811D02*
X776140Y649647D01*
Y648970D02*
Y649647D01*
X770890Y648970D02*
Y649647D01*
X772226Y650982D02*
Y684883D01*
X770890Y649647D02*
X772226Y650982D01*
X731957Y725151D02*
X772226Y684883D01*
X734707Y726290D02*
X774976Y686022D01*
D17*
X685785Y401335D02*
X685800Y401320D01*
X685785Y401335D02*
Y403860D01*
X685800Y401320D02*
X697230Y389890D01*
X685785Y403860D02*
Y628635D01*
X474715Y122521D02*
X476176D01*
X473402Y123833D02*
X474715Y122521D01*
X473402Y123833D02*
Y124373D01*
X472090Y125685D02*
X473402Y124373D01*
X469465Y125685D02*
X472090D01*
X468153Y124373D02*
X469465Y125685D01*
X468153Y123833D02*
Y124373D01*
X466840Y122521D02*
X468153Y123833D01*
X466215Y122521D02*
X466840D01*
X476176D02*
X482031D01*
X442378D02*
X466215D01*
X482031D02*
X486215Y118336D01*
Y95262D02*
Y118336D01*
X441032Y119271D02*
X480685D01*
X482965Y95277D02*
Y116990D01*
X480685Y119271D02*
X482965Y116990D01*
X412756Y152143D02*
X442378Y122521D01*
X409506Y150797D02*
X441032Y119271D01*
X486215Y95262D02*
X487229Y94249D01*
Y93505D02*
Y94249D01*
X481952Y93520D02*
Y94264D01*
X482965Y95277D01*
X374630Y294936D02*
X390475D01*
X380579Y308368D02*
X426720Y262227D01*
X412756Y152143D02*
Y272655D01*
X389129Y291686D02*
X409506Y271309D01*
X429970Y165176D02*
Y263573D01*
X426720Y163830D02*
Y262227D01*
X381925Y311618D02*
X429970Y263573D01*
X390475Y294936D02*
X412756Y272655D01*
X409506Y150797D02*
Y271309D01*
X497761Y141798D02*
X500589D01*
X496449Y143111D02*
X497761Y141798D01*
X496449Y143111D02*
Y143613D01*
X495136Y144926D02*
X496449Y143613D01*
X492511Y144926D02*
X495136D01*
X491199Y143613D02*
X492511Y144926D01*
X491199Y143111D02*
Y143613D01*
X489886Y141798D02*
X491199Y143111D01*
X489261Y141798D02*
X489886D01*
X453348D02*
X489261D01*
X500589D02*
X506151D01*
X474980Y138548D02*
X504805D01*
X512698Y123190D02*
Y130655D01*
X504805Y138548D02*
X512698Y130655D01*
X506151Y141798D02*
X515948Y132001D01*
X512698Y93819D02*
Y123190D01*
X515948Y93819D02*
Y132001D01*
X452002Y138548D02*
X474980D01*
X426720Y163830D02*
X452002Y138548D01*
X429970Y165176D02*
X453348Y141798D01*
X515948Y93819D02*
X518160Y91607D01*
X512336Y93457D02*
X512698Y93819D01*
X395702Y305973D02*
X503163D01*
X379094Y322580D02*
X395702Y305973D01*
X394356Y302723D02*
X501817D01*
X377748Y319330D02*
X394356Y302723D01*
X474980Y312876D02*
X517723D01*
X537551Y163006D02*
Y293048D01*
X517723Y312876D02*
X537551Y293048D01*
X397764Y312876D02*
X474980D01*
X537551Y163006D02*
X577366Y123190D01*
X591268Y109289D01*
Y92930D02*
Y109289D01*
Y92930D02*
X592268Y91930D01*
Y91186D02*
Y91930D01*
X376513Y334127D02*
X397764Y312876D01*
X371915Y334127D02*
X376513D01*
X534300Y208942D02*
Y291702D01*
X377216Y328827D02*
X396418Y309626D01*
X371946Y328827D02*
X377216D01*
X534300Y161660D02*
Y166033D01*
X516376Y309626D02*
X534300Y291702D01*
Y161660D02*
X588018Y107942D01*
X396418Y309626D02*
X516376D01*
X588018Y92930D02*
Y107942D01*
X587018Y91930D02*
X588018Y92930D01*
X587018Y91186D02*
Y91930D01*
X534300Y166033D02*
Y174192D01*
X532988Y175504D02*
X534300Y174192D01*
X531804Y175504D02*
X532988D01*
X530491Y176817D02*
X531804Y175504D01*
X530491Y176817D02*
Y179442D01*
X531804Y180755D01*
X532988D01*
X534300Y182067D01*
Y184692D01*
X532988Y186005D02*
X534300Y184692D01*
X531804Y186005D02*
X532988D01*
X530491Y187317D02*
X531804Y186005D01*
X530491Y187317D02*
Y189942D01*
X531804Y191255D01*
X532988D01*
X534300Y192567D01*
Y195192D01*
X532988Y196504D02*
X534300Y195192D01*
X531804Y196504D02*
X532988D01*
X530491Y197817D02*
X531804Y196504D01*
X530491Y197817D02*
Y200442D01*
X531804Y201754D01*
X532988D01*
X534300Y203067D01*
Y208942D01*
X520550Y154040D02*
Y162663D01*
Y179147D02*
Y283989D01*
X561676Y91966D02*
X562202Y91440D01*
X561676Y91966D02*
Y93211D01*
X561340Y93547D02*
X561676Y93211D01*
X561340Y93547D02*
Y117847D01*
X556952Y91440D02*
Y92184D01*
X558090Y93322D01*
Y116501D01*
X520550Y154040D02*
X558090Y116501D01*
X501817Y302723D02*
X520550Y283989D01*
X375920Y319330D02*
X377748D01*
X372109Y318330D02*
X372635Y318857D01*
X375446D02*
X375920Y319330D01*
X372635Y318857D02*
X375446D01*
X523801Y155386D02*
X561340Y117847D01*
X523801Y155386D02*
Y285335D01*
X503163Y305973D02*
X523801Y285335D01*
X375920Y322580D02*
X379094D01*
X375446Y323054D02*
X375920Y322580D01*
X372651Y323054D02*
X375446D01*
X372125Y323580D02*
X372651Y323054D01*
X520550Y162663D02*
Y165397D01*
X519238Y166709D02*
X520550Y165397D01*
X518650Y166709D02*
X519238D01*
X517337Y168022D02*
X518650Y166709D01*
X517337Y168022D02*
Y170647D01*
X518650Y171959D01*
X519238D01*
X520550Y173272D01*
Y179147D01*
X509975Y75591D02*
X588875D01*
X497258Y72341D02*
X590221D01*
X588788Y125466D02*
X601273Y112982D01*
X594909Y123190D02*
X600882Y117217D01*
X555373Y154286D02*
Y309788D01*
Y154286D02*
X586490Y123168D01*
X564123Y158573D02*
Y313412D01*
X560873Y157226D02*
Y312066D01*
X599505Y123190D02*
X602228Y120467D01*
X560873Y157226D02*
X594909Y123190D01*
X564123Y158573D02*
X599505Y123190D01*
X558623Y155632D02*
X588788Y125466D01*
X558623Y155632D02*
Y311134D01*
X600882Y117217D02*
X632032D01*
X602228Y120467D02*
X633877D01*
X598023Y84740D02*
Y111635D01*
X601273Y83393D02*
Y112982D01*
X594185Y115474D02*
X598023Y111635D01*
X590221Y72341D02*
X601273Y83393D01*
X588875Y75591D02*
X598023Y84740D01*
X587782Y117379D02*
Y119235D01*
X370815Y346735D02*
X386080Y331470D01*
X389890Y335280D02*
Y338467D01*
X381799Y346557D02*
X389890Y338467D01*
X374877Y311618D02*
X381925D01*
X374891Y308368D02*
X380579D01*
X374630Y291686D02*
X389129D01*
X559385Y313554D02*
Y388209D01*
X552036Y313124D02*
X555373Y309788D01*
X562635Y314900D02*
X564123Y313412D01*
X555286Y314470D02*
X558623Y311134D01*
X559385Y313554D02*
X560873Y312066D01*
X552036Y313124D02*
Y403860D01*
X555286Y314470D02*
Y403860D01*
Y444227D01*
X562635Y314900D02*
Y386862D01*
X552036Y403860D02*
Y442881D01*
X549998Y449515D02*
X555286Y444227D01*
X548652Y446265D02*
X552036Y442881D01*
X559385Y388209D02*
X575037Y403860D01*
X562635Y386862D02*
X579211Y403438D01*
X454233Y700843D02*
X454940Y701551D01*
X453390Y772873D02*
X454940Y771323D01*
X457483Y627060D02*
Y699497D01*
X458190Y700204D02*
Y771323D01*
X454233Y625714D02*
X544742Y535205D01*
X458190Y771323D02*
X459740Y772873D01*
X453390Y772873D02*
Y773430D01*
X457483Y699497D02*
X458190Y700204D01*
X454233Y625714D02*
Y700843D01*
X454940Y701551D02*
Y771323D01*
X459740Y772873D02*
Y773430D01*
X178249Y228305D02*
X187960Y238016D01*
X178249Y182431D02*
Y228305D01*
Y182431D02*
X195515Y165165D01*
X525363Y479680D02*
Y480424D01*
X523965Y481821D02*
X525363Y480424D01*
X520699Y486143D02*
X524249Y489693D01*
X520612Y481727D02*
X520699Y481814D01*
X520086Y479706D02*
X520612Y480233D01*
Y481727D01*
X524249Y489693D02*
X528505D01*
X525595Y486443D02*
X529851D01*
X531247Y487839D01*
X520699Y481814D02*
Y486143D01*
X523965Y484813D02*
X525595Y486443D01*
X523965Y481821D02*
Y484813D01*
X528505Y489693D02*
X544742Y505930D01*
X540227Y496819D02*
X540682Y497274D01*
X540227Y495706D02*
Y496819D01*
Y495706D02*
X540502Y495431D01*
Y494318D02*
Y495431D01*
X537903Y491719D02*
X540502Y494318D01*
X536789Y491719D02*
X537903D01*
X536515Y491993D02*
X536789Y491719D01*
X535401Y491993D02*
X536515D01*
X531247Y487839D02*
X535401Y491993D01*
X540682Y497274D02*
X547992Y504584D01*
X553194Y485666D02*
X553720Y485140D01*
X553075Y487247D02*
X553194Y487128D01*
Y485666D02*
Y487128D01*
X553075Y487247D02*
Y519388D01*
X547992Y504584D02*
Y536551D01*
X808707Y293305D02*
X809451D01*
X810400Y292356D01*
X291428Y167074D02*
Y167442D01*
X283253Y169768D02*
X283622D01*
X259287Y199583D02*
X291428Y167442D01*
X277868Y175153D02*
X283253Y169768D01*
X259287Y199583D02*
Y274429D01*
X279560Y297899D02*
X282654Y300994D01*
Y309311D01*
X287902Y314558D01*
X284060Y287400D02*
Y295230D01*
X292864Y304034D01*
X281810Y286469D02*
Y296162D01*
X291932Y306284D01*
X281810Y286469D02*
X287494Y280784D01*
X296578Y258143D02*
X297322D01*
X295423Y259224D02*
X295498D01*
X294691Y259956D02*
Y263245D01*
X295498Y259224D02*
X296578Y258143D01*
X294691Y259956D02*
X295423Y259224D01*
Y263978D02*
X322658D01*
X294691Y263245D02*
X295423Y263978D01*
X326191Y275590D02*
Y306181D01*
Y267511D02*
Y275590D01*
X302812Y309560D02*
X305259Y312008D01*
X320364D02*
X326191Y306181D01*
X322658Y263978D02*
X326191Y267511D01*
X305259Y312008D02*
X320364D01*
X302685Y309560D02*
X302812D01*
X325359Y261399D02*
X330356Y266396D01*
X302571Y258025D02*
X305945Y261399D01*
X325359D01*
X330356Y275590D02*
Y306179D01*
Y266396D02*
Y275590D01*
X307652Y319400D02*
X317135D01*
X330356Y306179D01*
X287902Y314558D02*
X297681D01*
X279560Y285536D02*
Y297899D01*
X317551Y275549D02*
X317554D01*
X317510Y275590D02*
X317551Y275549D01*
X342913Y268015D02*
Y277743D01*
Y268015D02*
X344163Y266765D01*
X280766Y210724D02*
X289560Y201930D01*
X221453Y95631D02*
Y99424D01*
Y95631D02*
X222765Y94319D01*
X224510D01*
X225822Y93006D01*
Y90381D02*
Y93006D01*
X224510Y89069D02*
X225822Y90381D01*
X222765Y89069D02*
X224510D01*
X221453Y87756D02*
X222765Y89069D01*
X221453Y85131D02*
Y87756D01*
Y85131D02*
X222765Y83819D01*
X224510D01*
X225822Y82506D01*
Y79881D02*
Y82506D01*
X224510Y78569D02*
X225822Y79881D01*
X223068Y78569D02*
X224510D01*
X221755Y77256D02*
X223068Y78569D01*
X221755Y71381D02*
Y77256D01*
Y69457D02*
Y71381D01*
X618224Y495798D02*
Y561870D01*
X604520Y575574D02*
Y629920D01*
Y575574D02*
X618224Y561870D01*
X581715Y577848D02*
X589881Y569681D01*
X717475Y294715D02*
X722630Y289560D01*
X683273Y320099D02*
X685800Y317571D01*
X689704Y313667D01*
X683273Y403860D02*
Y500761D01*
X680773Y315564D02*
Y403860D01*
Y501796D01*
X683273Y320099D02*
Y403860D01*
X680773Y315564D02*
X685800Y310536D01*
X683273Y500761D02*
X683285Y500773D01*
X680773Y501796D02*
X680785Y501809D01*
X677847Y403860D02*
Y414994D01*
Y314954D02*
Y403860D01*
X668051Y424791D02*
X677847Y414994D01*
X656547Y424791D02*
X668051D01*
X652723Y428615D02*
X656547Y424791D01*
X652723Y428615D02*
Y495243D01*
X648322Y557384D02*
Y557595D01*
X638995Y561470D02*
X650912D01*
X648322Y557384D02*
X651687Y554019D01*
X606124Y451029D02*
Y553438D01*
X622629Y518709D02*
X622705Y518784D01*
X603624Y474084D02*
Y547741D01*
X614349Y495458D02*
Y517607D01*
X614205Y517751D02*
X614349Y517607D01*
X622629Y514814D02*
Y518709D01*
X580958Y570407D02*
X603624Y547741D01*
X589881Y569681D02*
X606124Y553438D01*
X622099Y514284D02*
X622629Y514814D01*
X622099Y498219D02*
Y514284D01*
X589431Y766610D02*
X589472Y766650D01*
X580682Y570407D02*
Y570831D01*
X589350Y766528D02*
X589431Y766610D01*
X617257Y751253D02*
X617293Y751290D01*
X617220Y751217D02*
X617257Y751253D01*
X580682Y570130D02*
Y570407D01*
X180939Y310901D02*
X230865Y360827D01*
X184189Y309555D02*
X234115Y359481D01*
X166490Y310907D02*
X215470Y359887D01*
X173990Y307801D02*
X222970Y356781D01*
X161490Y312978D02*
X210470Y361958D01*
X163990Y311943D02*
X212970Y360923D01*
X168990Y309872D02*
X217970Y358852D01*
X158990Y314014D02*
X207970Y362994D01*
X171490Y308836D02*
X220470Y357816D01*
X184189Y270471D02*
Y309555D01*
X180939Y269125D02*
Y310901D01*
X188412Y292152D02*
X238825Y342565D01*
X188064Y292152D02*
X188412D01*
X180939Y269125D02*
X187355Y262709D01*
X184189Y270471D02*
X188701Y265959D01*
X218203Y81636D02*
X218505Y81334D01*
X221740Y64876D02*
X224977D01*
X226213Y63640D01*
X226958D01*
X218505Y90506D02*
Y102935D01*
X223086Y68126D02*
X225613D01*
X218203Y90204D02*
X218505Y90506D01*
X200823Y86360D02*
X214328D01*
X218203Y81636D02*
Y90204D01*
X221755Y69457D02*
X223086Y68126D01*
X218505Y68111D02*
Y81334D01*
X225613Y68126D02*
X226586Y69099D01*
X218505Y68111D02*
X221740Y64876D01*
X221453Y101286D02*
X236812Y116646D01*
X221453Y99424D02*
Y101286D01*
X504856Y75591D02*
X509975D01*
X503543Y76904D02*
X504856Y75591D01*
X503543Y76904D02*
Y78211D01*
X502231Y79524D02*
X503543Y78211D01*
X499606Y79524D02*
X502231D01*
X498293Y78211D02*
X499606Y79524D01*
X498293Y76904D02*
Y78211D01*
X496981Y75591D02*
X498293Y76904D01*
X494356Y75591D02*
X496981D01*
X493043Y76904D02*
X494356Y75591D01*
X493043Y76904D02*
Y78211D01*
X491731Y79524D02*
X493043Y78211D01*
X489106Y79524D02*
X491731D01*
X487793Y78211D02*
X489106Y79524D01*
X487793Y76904D02*
Y78211D01*
X486481Y75591D02*
X487793Y76904D01*
X483856Y75591D02*
X486481D01*
X482543Y76904D02*
X483856Y75591D01*
X482543Y76904D02*
Y78211D01*
X481231Y79524D02*
X482543Y78211D01*
X478606Y79524D02*
X481231D01*
X477293Y78211D02*
X478606Y79524D01*
X477293Y76904D02*
Y78211D01*
X475981Y75591D02*
X477293Y76904D01*
X473356Y75591D02*
X475981D01*
X472043Y76904D02*
X473356Y75591D01*
X472043Y76904D02*
Y78211D01*
X470731Y79524D02*
X472043Y78211D01*
X468106Y79524D02*
X470731D01*
X466793Y78211D02*
X468106Y79524D01*
X466793Y76904D02*
Y78211D01*
X465481Y75591D02*
X466793Y76904D01*
X464855Y75591D02*
X465481D01*
X457723Y91687D02*
Y93018D01*
Y91687D02*
X459036Y90374D01*
X460348D01*
X461661Y89062D01*
Y86437D02*
Y89062D01*
X460348Y85125D02*
X461661Y86437D01*
X459036Y85125D02*
X460348D01*
X457723Y83812D02*
X459036Y85125D01*
X457723Y79142D02*
Y83812D01*
Y79142D02*
X458929Y77937D01*
X457723Y93018D02*
Y95746D01*
X458929Y77937D02*
X461274Y75591D01*
X586490Y123168D02*
X586932Y122726D01*
X588174Y121484D01*
Y119628D02*
Y121484D01*
X587782Y119235D02*
X588174Y119628D01*
X587782Y117379D02*
X589638Y115523D01*
X591494D01*
X591887Y115916D01*
X593743D01*
X593743Y115916D01*
Y115916D02*
X594185Y115474D01*
X461274Y75591D02*
X464855D01*
X464131Y98470D02*
X465938Y96663D01*
X465477Y101720D02*
X469516Y97681D01*
X459101Y101720D02*
X465477D01*
X454473Y97092D02*
X459101Y101720D01*
X457723Y95746D02*
X460447Y98470D01*
X464131D01*
X454473Y77796D02*
Y97092D01*
Y77796D02*
X459928Y72341D01*
X469578Y94046D02*
Y95565D01*
X469516Y95627D02*
Y97681D01*
X469578Y94046D02*
X470104Y93520D01*
X469516Y95627D02*
X469578Y95565D01*
X464705Y94264D02*
X465938Y95497D01*
Y96663D01*
X464705Y93520D02*
Y94264D01*
X472429Y72341D02*
X497258D01*
X459928D02*
X472429D01*
X280766Y210724D02*
Y275590D01*
X273266Y195090D02*
Y273423D01*
X278266Y199935D02*
Y275590D01*
X275766Y196125D02*
Y274458D01*
X287494Y269100D02*
Y275590D01*
X283266Y266362D02*
X284724Y264904D01*
X287223Y268829D02*
X287494Y269100D01*
X284724Y264160D02*
Y264904D01*
X287494Y275590D02*
Y280784D01*
X278266Y199935D02*
X286583Y191617D01*
X273266Y195090D02*
X327386Y140970D01*
X275766Y196125D02*
X301010Y170882D01*
X283266Y266362D02*
Y281831D01*
X275906Y280333D02*
X278266Y277973D01*
X279560Y285536D02*
X283266Y281831D01*
X271980Y274708D02*
X273266Y273423D01*
X276791Y285124D02*
X280766Y281148D01*
X273266Y276958D02*
X275766Y274458D01*
X289994Y275590D02*
Y281466D01*
Y272402D02*
X294953Y267444D01*
X289994Y272402D02*
Y275590D01*
X297168Y267444D02*
X297316Y267592D01*
X294953Y267444D02*
X297168D01*
X297316Y267592D02*
X299892D01*
X383594Y631827D02*
X426607D01*
X473710Y584724D01*
Y528915D02*
Y584724D01*
X485170Y517194D02*
Y517454D01*
X473710Y528915D02*
X485170Y517454D01*
X362015Y653406D02*
X383594Y631827D01*
X402816Y400725D02*
X415776Y413685D01*
X415843D01*
X364425Y293211D02*
Y360480D01*
X361925Y292176D02*
Y363861D01*
X359123Y291442D02*
Y364595D01*
X356623Y290406D02*
Y365630D01*
X354120Y289374D02*
Y366662D01*
X717475Y294715D02*
Y425375D01*
X632032Y117217D02*
X632986Y116264D01*
X633877Y120467D02*
X634923Y121514D01*
X635667D01*
X632986Y116264D02*
X633730D01*
X397510Y538971D02*
Y556587D01*
Y538971D02*
X398100Y538381D01*
Y520020D02*
Y538381D01*
X351150Y654156D02*
Y736830D01*
X356870Y651972D02*
Y666750D01*
Y651972D02*
X379515Y629327D01*
X395929Y603309D02*
Y609377D01*
X351150Y654156D02*
X395929Y609377D01*
X379515Y629327D02*
X425572D01*
X354120Y366662D02*
X354917Y367460D01*
X352572Y440487D02*
X354917Y438142D01*
Y367460D02*
Y438142D01*
X352572Y519449D02*
X356726Y523602D01*
X531706Y446265D02*
X548652D01*
X507324Y470648D02*
X531706Y446265D01*
X508670Y473898D02*
X533053Y449515D01*
X544830D02*
X549998D01*
X533053D02*
X544830D01*
X278266Y275590D02*
Y277973D01*
X273176Y280583D02*
X273427Y280333D01*
X275906D01*
X683285Y500773D02*
Y585808D01*
X680785Y501809D02*
Y584773D01*
X661670Y603888D02*
X680785Y584773D01*
X666101Y602992D02*
X683285Y585808D01*
X617220Y727710D02*
Y751217D01*
Y751290D02*
Y751363D01*
X611586Y727421D02*
Y751415D01*
X612933Y755650D02*
X617220Y751363D01*
X604627Y751415D02*
X611586D01*
X589472Y766650D02*
Y785682D01*
X607031Y443201D02*
X608875Y445045D01*
X589778Y419488D02*
Y434683D01*
X606124Y451029D01*
X603776Y443201D02*
X607031D01*
X603250Y442675D02*
X603776Y443201D01*
X598345Y468805D02*
X603624Y474084D01*
X598345Y465560D02*
Y468805D01*
X597819Y465034D02*
X598345Y465560D01*
X261918Y191103D02*
X262360Y190661D01*
X265175Y187846D01*
Y186732D02*
Y187846D01*
X253270Y174827D02*
X265175Y186732D01*
X253270Y173713D02*
Y174827D01*
Y173713D02*
X255869Y171115D01*
X256982D01*
X269860Y183992D01*
X270973D01*
X273572Y181394D01*
Y180280D02*
Y181394D01*
X259571Y166279D02*
X273572Y180280D01*
X259571Y165166D02*
Y166279D01*
Y165166D02*
X262170Y162567D01*
X263284D01*
X276312Y175595D01*
X277426D01*
X277426Y175595D01*
Y175595D02*
X277868Y175153D01*
X256787Y196235D02*
X261918Y191103D01*
X291428Y167074D02*
X291870Y166632D01*
X293640Y164862D01*
Y163748D02*
Y164862D01*
X289863Y159971D02*
X293640Y163748D01*
X289863Y158857D02*
Y159971D01*
Y158857D02*
X292462Y156259D01*
X293575D01*
X300511Y163195D01*
X301625D01*
X304224Y160596D01*
Y159482D02*
Y160596D01*
X288036Y143295D02*
X304224Y159482D01*
X288036Y142181D02*
Y143295D01*
Y142181D02*
X290635Y139582D01*
X291748D01*
X304777Y152611D01*
X305891D01*
X305891Y152611D01*
Y152611D02*
X306332Y152169D01*
X308610Y149891D01*
X335025Y170882D02*
X336599D01*
X337386Y171669D01*
Y175754D01*
X338174Y176541D01*
X341849D01*
X342636Y175754D01*
Y168209D02*
Y175754D01*
Y168209D02*
X343424Y167422D01*
X347099D01*
X347886Y168209D01*
Y176792D01*
X348674Y177580D01*
X352349D01*
X353136Y176792D01*
Y168209D02*
Y176792D01*
Y168209D02*
X353924Y167422D01*
X357599D01*
X358386Y168209D01*
Y170094D01*
X359174Y170882D01*
X359799D01*
X301010D02*
X335025D01*
X359799D02*
X376074D01*
X280766Y275590D02*
Y281148D01*
X344163Y262670D02*
Y266765D01*
Y262670D02*
X344170Y262663D01*
X355072Y441522D02*
X357943Y438652D01*
X356895Y252316D02*
Y290134D01*
X357943Y366950D02*
Y438652D01*
X354395Y253351D02*
Y289099D01*
X356623Y290406D02*
X356895Y290134D01*
X356623Y365630D02*
X357943Y366950D01*
X354120Y289374D02*
X354395Y289099D01*
X140970Y558800D02*
Y559348D01*
X129540Y547370D02*
X140970Y558800D01*
X247361Y286355D02*
X257440Y276276D01*
X258126Y275590D02*
X259287Y274429D01*
X244861Y284630D02*
X256787Y272704D01*
X244861Y303549D02*
X245928Y304616D01*
Y308851D01*
X247361Y302513D02*
X248428Y303581D01*
Y307815D01*
X256787Y196235D02*
Y272704D01*
X247361Y286355D02*
Y302513D01*
X244861Y284630D02*
Y303549D01*
X261328Y287306D02*
X271675Y276958D01*
X270743Y274708D02*
X271980D01*
X259078Y286374D02*
X269861Y275590D01*
X273176Y281110D02*
Y293276D01*
X259078Y286374D02*
Y298445D01*
X271675Y276958D02*
X273266D01*
X261328Y287306D02*
Y295125D01*
X273176Y280583D02*
Y281110D01*
X553212Y624909D02*
X572770Y605351D01*
X553212Y624909D02*
Y799338D01*
X550712Y622304D02*
X569761Y603255D01*
X550712Y622304D02*
Y767408D01*
X334010Y383540D02*
X339090Y378460D01*
X345497Y352218D02*
Y455248D01*
X342900Y277756D02*
X342913Y277743D01*
X284060Y287400D02*
X289994Y281466D01*
X299892Y267592D02*
X300418Y268118D01*
X463827Y692051D02*
Y753690D01*
X575037Y403860D02*
X575961Y404784D01*
X463827Y624251D02*
Y692051D01*
Y624251D02*
X557001Y531077D01*
Y490044D02*
Y531077D01*
Y490044D02*
X575961Y471084D01*
X463827Y692051D02*
X463827Y692051D01*
X462871Y754646D02*
Y757664D01*
X575961Y404784D02*
Y471084D01*
X462871Y754646D02*
X463827Y753690D01*
X462345Y758190D02*
X462871Y757664D01*
X579211Y403438D02*
Y472430D01*
X468104Y757614D02*
X468630Y758140D01*
X467077Y690705D02*
Y753690D01*
X467077Y690705D02*
X467077Y690705D01*
X560251Y491390D02*
X579211Y472430D01*
X467077Y625597D02*
X560251Y532423D01*
X467077Y753690D02*
X468104Y754717D01*
Y757614D01*
X560251Y491390D02*
Y532423D01*
X467077Y625597D02*
Y690705D01*
X389933Y687776D02*
X393481Y684228D01*
X397668D02*
X451733Y630163D01*
X393481Y684228D02*
X397668D01*
X230865Y411676D02*
X255537Y436349D01*
X230865Y360827D02*
Y411676D01*
X234115Y359481D02*
Y410330D01*
X588645Y490668D02*
X592179Y494202D01*
Y543201D01*
X569761Y565619D02*
X592179Y543201D01*
X588645Y489924D02*
Y490668D01*
X580390Y480060D02*
X589280D01*
X578796Y485190D02*
X590936D01*
X572455Y491530D02*
X578796Y485190D01*
X599335Y492490D02*
X599618Y492774D01*
Y545714D01*
X572770Y567690D02*
X595367Y545093D01*
Y489053D02*
Y545093D01*
X608875Y489985D02*
X614349Y495458D01*
X608875Y445045D02*
Y489985D01*
X565150Y496570D02*
Y516915D01*
X657072Y417536D02*
X667949D01*
X668429Y418017D01*
X612140Y462468D02*
X657072Y417536D01*
X277232Y344170D02*
X321310D01*
X268000Y334939D02*
X277232Y344170D01*
X277380Y347500D02*
Y347980D01*
X265442Y335563D02*
X277380Y347500D01*
X381799Y346557D02*
X381799D01*
X373315Y355042D02*
X381799Y346557D01*
X372772Y312979D02*
X373516D01*
X374766Y308243D02*
X374891Y308368D01*
X372783Y307717D02*
X373310Y308243D01*
X373516Y312979D02*
X374877Y311618D01*
X373310Y308243D02*
X374766D01*
X370815Y346735D02*
Y427202D01*
X268112Y330177D02*
Y332456D01*
X268000Y332567D02*
X268112Y332456D01*
X271625Y333251D02*
Y333349D01*
X268000Y332567D02*
Y334939D01*
X265442Y298084D02*
Y335563D01*
X262788Y338395D02*
Y347980D01*
X268112Y330177D02*
X274541Y323748D01*
X261817Y327281D02*
X262060Y327038D01*
X258176Y312386D02*
Y333783D01*
X408330Y527448D02*
Y561702D01*
X412205Y525234D02*
X412215Y525244D01*
Y530710D02*
X441740Y560235D01*
X404435Y520557D02*
Y566923D01*
X412205Y518497D02*
Y525234D01*
X404435Y520557D02*
X404766Y520226D01*
X412215Y525244D02*
Y530710D01*
X408330Y527448D02*
X408340Y527439D01*
X408330Y561702D02*
X416732Y570103D01*
X397510Y556587D02*
X401077Y560154D01*
X395929Y603309D02*
X401077Y598162D01*
Y560154D02*
Y598162D01*
X451421Y530439D02*
X451738Y530122D01*
X466344D02*
Y588554D01*
X566383Y533363D02*
X572455Y527290D01*
X569955Y490495D02*
X580390Y480060D01*
X563980Y532230D02*
X569955Y526255D01*
X572455Y491530D02*
Y527290D01*
X569955Y490495D02*
Y526255D01*
X503391Y476250D02*
Y477330D01*
Y474630D02*
Y476250D01*
X497910Y476790D02*
X500141Y474559D01*
Y473284D02*
X502777Y470648D01*
X507324D01*
X503391Y474630D02*
X504123Y473898D01*
X503251Y477470D02*
X503391Y477330D01*
X497910Y476790D02*
Y477534D01*
X500141Y473284D02*
Y474559D01*
X504123Y473898D02*
X508670D01*
X376500Y524581D02*
X380831D01*
X369246Y528625D02*
X372456D01*
X376500Y524581D01*
X366976Y526355D02*
X369246Y528625D01*
X368210Y531125D02*
X373492D01*
X375086Y529531D02*
X380531D01*
X366976Y523246D02*
Y526355D01*
X373492Y531125D02*
X375086Y529531D01*
X364476Y524282D02*
Y527391D01*
X368210Y531125D01*
X370851Y505929D02*
Y524750D01*
X361618Y524960D02*
Y529041D01*
X380531Y529531D02*
X381000Y530000D01*
X361200Y529460D02*
X361618Y529041D01*
X364425Y293211D02*
X371873Y285763D01*
X361925Y292176D02*
X369373Y284727D01*
X348168Y211377D02*
X354123Y217331D01*
X366873Y255583D02*
Y283692D01*
X359123Y247833D02*
X366873Y255583D01*
X359123Y219724D02*
Y247833D01*
X356623Y252043D02*
X356895Y252316D01*
X356623Y215496D02*
Y252043D01*
X354123Y253079D02*
X354395Y253351D01*
X354123Y217331D02*
Y253079D01*
X359123Y291442D02*
X366873Y283692D01*
X369373Y254080D02*
Y284727D01*
X366873Y251580D02*
X369373Y254080D01*
X366873Y218649D02*
Y251580D01*
X371873Y253045D02*
Y285763D01*
X369373Y250545D02*
X371873Y253045D01*
X369373Y238596D02*
Y250545D01*
X553075Y519388D02*
X553126Y519439D01*
X377485Y501461D02*
X391160Y515136D01*
X373315Y426166D02*
X377485Y430336D01*
X369635Y504713D02*
X370851Y505929D01*
X377485Y430336D02*
Y501461D01*
X374985Y431372D02*
Y502497D01*
X365465Y429418D02*
X369635Y433588D01*
X374985Y502497D02*
X388660Y516172D01*
X370815Y427202D02*
X374985Y431372D01*
X369635Y433588D02*
Y504713D01*
X357572Y442558D02*
X360443Y439687D01*
X355072Y441522D02*
Y518414D01*
X360072Y516343D02*
X366976Y523246D01*
X352572Y440487D02*
Y519449D01*
X357572Y517378D02*
X364476Y524282D01*
X360072Y443593D02*
X362943Y440723D01*
X357572Y442558D02*
Y517378D01*
X355072Y518414D02*
X361618Y524960D01*
X360072Y443593D02*
Y516343D01*
X518160Y91440D02*
Y91607D01*
X511810Y91440D02*
X512336Y91966D01*
Y93457D01*
X348384Y194864D02*
Y200396D01*
X335486Y213294D02*
X348384Y200396D01*
X167640Y647974D02*
Y701040D01*
X149298Y629632D02*
X167640Y647974D01*
X146798Y630667D02*
X165078Y648948D01*
X161386Y664238D02*
X165078Y660546D01*
Y648948D02*
Y660546D01*
X161386Y664238D02*
Y665292D01*
X163830Y667736D02*
Y683260D01*
X161386Y665292D02*
X163830Y667736D01*
X581715Y702791D02*
X602824Y723900D01*
X581715Y577848D02*
Y702791D01*
X579215Y703826D02*
X601789Y726400D01*
X579215Y572298D02*
X580682Y570831D01*
X579215Y572298D02*
Y703826D01*
X631465Y568999D02*
X638995Y561470D01*
X631465Y568999D02*
Y751565D01*
X613410Y723900D02*
X617220Y727710D01*
X563434Y622134D02*
X575310Y610258D01*
Y570022D02*
X599618Y545714D01*
X569761Y565619D02*
Y603255D01*
X575310Y570022D02*
Y610258D01*
X572770Y567690D02*
Y605351D01*
X359123Y364595D02*
X360443Y365914D01*
X365465Y361520D02*
Y429418D01*
X373315Y355042D02*
Y426166D01*
X360443Y365914D02*
Y439687D01*
X359123Y219724D02*
X368005Y210842D01*
X356623Y215496D02*
X360829Y211290D01*
X361925Y363861D02*
X362943Y364879D01*
Y440723D01*
X364425Y360480D02*
X365465Y361520D01*
X389890Y657860D02*
X407645D01*
X381835Y661735D02*
X407306D01*
X520700Y548341D01*
X380500Y660400D02*
X381835Y661735D01*
X407645Y657860D02*
X504190Y561315D01*
X407096Y665480D02*
X527149Y545428D01*
X377190Y665480D02*
X407096D01*
X373380Y660400D02*
X380500D01*
X451733Y624379D02*
Y630163D01*
Y624379D02*
X533161Y542951D01*
Y539182D02*
Y542951D01*
X262788Y347980D02*
Y352308D01*
X292864Y304034D02*
X297159D01*
X291932Y306284D02*
X294282D01*
X297558Y309560D01*
X207970Y362994D02*
Y518152D01*
X210470Y361958D02*
Y519187D01*
X212970Y360923D02*
Y520223D01*
X215470Y359887D02*
Y521258D01*
X217970Y358852D02*
Y409388D01*
X222970Y356781D02*
Y407317D01*
X245954Y430301D01*
X220470Y357816D02*
Y408353D01*
X217970Y409388D02*
X229210Y420628D01*
X220470Y408353D02*
X242078Y429961D01*
X588302Y417381D02*
Y418012D01*
X589778Y419488D01*
X341622Y286877D02*
Y412170D01*
X337986Y283240D02*
X341622Y286877D01*
X346872Y517285D02*
X354115Y524528D01*
X345497Y455248D02*
X346872Y456623D01*
Y517285D01*
X335166Y418627D02*
X341622Y412170D01*
X236615Y358445D02*
Y407195D01*
X234115Y410330D02*
X258787Y435003D01*
X233977Y351477D02*
X238825Y346629D01*
X233977Y355807D02*
X236615Y358445D01*
X233977Y351477D02*
Y355807D01*
X236615Y407195D02*
X262662Y433242D01*
X262060Y295858D02*
Y327038D01*
X258176Y312386D02*
X259561Y311000D01*
X258176Y333783D02*
X262788Y338395D01*
X264953Y297595D02*
X265442Y298084D01*
X250890Y313813D02*
Y343004D01*
X256756Y348870D01*
X254909Y314296D02*
Y336041D01*
X254765Y336186D02*
X254909Y336041D01*
X245928Y308851D02*
X250890Y313813D01*
X248428Y307815D02*
X254909Y314296D01*
X264953Y293624D02*
Y297595D01*
X259561Y298929D02*
Y311000D01*
X273176Y293276D02*
X274541Y294640D01*
X259078Y298445D02*
X259561Y298929D01*
X274541Y294640D02*
Y323748D01*
X271625Y333251D02*
X276791Y328086D01*
X261328Y295125D02*
X262060Y295858D01*
X276791Y285124D02*
Y328086D01*
X297159Y304034D02*
X297685Y304560D01*
X269861Y275590D02*
X270743Y274708D01*
X297558Y309560D02*
X297685D01*
X339090Y287526D02*
Y378460D01*
X269240Y457200D02*
Y513138D01*
X242078Y429961D02*
Y494507D01*
X240843Y495742D02*
X242078Y494507D01*
X245954Y430301D02*
Y492412D01*
X240843Y495742D02*
Y496487D01*
X202960Y543967D02*
X225720Y521207D01*
Y497631D02*
Y521207D01*
X151798Y581395D02*
Y626137D01*
Y581395D02*
X212970Y520223D01*
X146798Y579324D02*
X207970Y518152D01*
X197735Y543730D02*
X199085Y542379D01*
X146798Y579324D02*
Y630667D01*
X197735Y543730D02*
Y544474D01*
X154298Y582431D02*
X215470Y521258D01*
X199085Y542362D02*
X223220Y518227D01*
X154298Y582431D02*
Y624198D01*
X223220Y496596D02*
Y518227D01*
X199085Y542362D02*
Y542379D01*
X149298Y580360D02*
Y629632D01*
Y580360D02*
X210470Y519187D01*
X229210Y420628D02*
Y475628D01*
X233085Y434337D02*
Y486731D01*
X223220Y496596D02*
X233085Y486731D01*
X269240Y513138D02*
X317793Y561691D01*
X341136Y640368D02*
X341713D01*
X317793Y617024D02*
X341136Y640368D01*
X239520Y355809D02*
X243260Y352069D01*
Y342886D02*
Y352069D01*
X238825Y342565D02*
Y346629D01*
X230351Y221946D02*
Y329977D01*
X243260Y342886D01*
X382945Y352012D02*
Y352541D01*
X388241Y357837D01*
X297681Y314558D02*
X297681Y314558D01*
X133350Y213360D02*
Y345440D01*
X173990Y177865D02*
Y307801D01*
X171490Y173020D02*
Y308836D01*
X168990Y132000D02*
Y309872D01*
X161490Y112395D02*
Y312978D01*
X163990Y115852D02*
Y311943D01*
X158990Y109415D02*
Y314014D01*
X166490Y120693D02*
Y310907D01*
X257440Y276276D02*
X258126Y275590D01*
X199220Y230729D02*
X204092Y225857D01*
X199220Y230729D02*
Y235000D01*
X204045Y234575D02*
X204470Y235000D01*
X204045Y230500D02*
X205438Y229107D01*
X204045Y230500D02*
Y234575D01*
X205438Y229107D02*
X211523D01*
X204092Y225857D02*
X210177D01*
X233562Y117992D02*
Y202472D01*
X236812Y116646D02*
Y203818D01*
X211523Y229107D02*
X236812Y203818D01*
X210177Y225857D02*
X233562Y202472D01*
X209240Y254216D02*
Y254960D01*
Y255705D01*
X214800Y254526D02*
Y255270D01*
Y256014D01*
X213645Y235117D02*
X242562Y206200D01*
X210395Y233770D02*
Y253062D01*
X213645Y235117D02*
Y253371D01*
X210395Y233770D02*
X239312Y204854D01*
X308610Y140970D02*
Y149891D01*
X203138Y553033D02*
X226264D01*
X258787Y520509D01*
X175075Y581095D02*
X203138Y553033D01*
X883320Y353426D02*
Y527292D01*
X886570Y352080D02*
Y528638D01*
X821690Y608856D02*
Y609600D01*
X880820Y382784D02*
Y526256D01*
X877570Y384130D02*
Y524910D01*
X816440Y608856D02*
X817440Y607856D01*
X812622Y292356D02*
X830250Y309984D01*
X833500Y335464D02*
X880820Y382784D01*
X818722Y284232D02*
X886570Y352080D01*
X815472Y285579D02*
X883320Y353426D01*
X817440Y585040D02*
Y607856D01*
X820690Y586386D02*
Y607856D01*
X833500Y308638D02*
Y335464D01*
X810400Y292356D02*
X812622D01*
X832557Y578055D02*
X883320Y527292D01*
X817440Y585040D02*
X877570Y524910D01*
X816440Y608856D02*
Y609600D01*
X832557Y578055D02*
Y608037D01*
X820690Y586386D02*
X880820Y526256D01*
X835807Y579401D02*
X886570Y528638D01*
X820690Y607856D02*
X821690Y608856D01*
X835807Y579401D02*
Y608125D01*
X836829Y609148D01*
Y609892D01*
X831535Y609059D02*
Y609804D01*
Y609059D02*
X832557Y608037D01*
X234559Y75504D02*
Y106261D01*
Y75504D02*
X235946Y74117D01*
Y73397D02*
Y74117D01*
X457483Y627060D02*
X547992Y536551D01*
X544742Y505930D02*
Y535205D01*
X544691Y773430D02*
X550712Y767408D01*
X546100Y806450D02*
X553212Y799338D01*
X533400Y773430D02*
X544691D01*
X589513Y766528D02*
X604627Y751415D01*
X427643Y634327D02*
X491791Y570179D01*
X527149Y538944D02*
Y545428D01*
X425572Y629327D02*
X466344Y588554D01*
X353125Y738805D02*
Y742015D01*
X351150Y743990D02*
Y754230D01*
Y743990D02*
X353125Y742015D01*
X351150Y736830D02*
X353125Y738805D01*
X439420Y806450D02*
X546100D01*
X430570Y683220D02*
Y800714D01*
X433158Y754513D02*
Y807162D01*
X422668Y817652D02*
X433158Y807162D01*
Y754513D02*
X448671Y739000D01*
X428034Y690663D02*
Y797516D01*
X449580Y664210D02*
Y664210D01*
X594974Y766466D02*
X605790Y755650D01*
X612933D01*
X689660Y556887D02*
Y625631D01*
X710862Y646833D01*
X388241Y357837D02*
X389890D01*
X372658Y290458D02*
X373402D01*
Y296164D02*
X374630Y294936D01*
X373402Y290458D02*
X374630Y291686D01*
X372658Y296164D02*
X373402D01*
X652723Y495243D02*
X654187Y496707D01*
X647812Y518138D02*
X647863Y518087D01*
Y503090D02*
Y518087D01*
X654187Y496707D02*
Y558196D01*
X650912Y561470D02*
X654187Y558196D01*
X651687Y498196D02*
Y554019D01*
X646477Y492986D02*
X651687Y498196D01*
X635949Y489989D02*
Y515299D01*
X638779Y518129D01*
X638857D01*
X612140Y462468D02*
Y489714D01*
X618224Y495798D01*
X622099Y498219D02*
X630419Y489899D01*
X677847Y314954D02*
X681542Y311259D01*
X685785Y628635D02*
X703580Y646430D01*
X642602Y489459D02*
Y497829D01*
X647863Y503090D01*
X642602Y489459D02*
X643061Y489000D01*
X533161Y539182D02*
X533422Y538921D01*
X610566Y726400D02*
X611586Y727421D01*
X606025Y726400D02*
X610566D01*
X666101Y685059D02*
X679022Y697980D01*
Y698700D01*
X656590Y799339D02*
Y803910D01*
X655229Y797978D02*
X656590Y799339D01*
X601768Y797978D02*
X655229D01*
X589472Y785682D02*
X601768Y797978D01*
X657448Y795478D02*
X661670Y799700D01*
X604978Y795478D02*
X657448D01*
X594974Y785474D02*
X604978Y795478D01*
X385098Y634327D02*
X427643D01*
X367030Y652394D02*
X385098Y634327D01*
X391160Y515136D02*
Y535919D01*
X388660Y516172D02*
Y534883D01*
X380831Y524581D02*
X381000Y524750D01*
X729617Y137400D02*
Y219677D01*
X739320Y229380D01*
X369373Y238596D02*
X394432Y213537D01*
X129540Y456748D02*
Y547370D01*
Y456748D02*
X138476Y447812D01*
X168990Y132000D02*
X180340Y120650D01*
X161490Y112395D02*
X213338Y60547D01*
X166490Y120693D02*
X200823Y86360D01*
X171490Y173020D02*
X197255Y147255D01*
X163990Y115852D02*
X201102Y78740D01*
X173990Y177865D02*
X200725Y151130D01*
X158990Y109415D02*
X213219Y55186D01*
X187355Y262709D02*
X206521D01*
X207868Y265959D02*
X213645Y260182D01*
X206521Y262709D02*
X210395Y258836D01*
X188701Y265959D02*
X207868D01*
X256756Y348870D02*
X257219D01*
X491791Y539004D02*
Y570179D01*
X491731Y538944D02*
X491791Y539004D01*
X450785Y568625D02*
Y571835D01*
X450796Y534622D02*
X451421Y533997D01*
X450785Y568625D02*
X450796Y568614D01*
Y534622D02*
Y568614D01*
X441740Y560235D02*
Y586751D01*
X225720Y497631D02*
X238003Y485349D01*
X520700Y538944D02*
Y548341D01*
X504190Y539750D02*
Y561315D01*
X753110Y427990D02*
Y546100D01*
X334282Y418627D02*
X335166D01*
X331244Y421068D02*
X331840D01*
X334282Y418627D01*
X367030Y652394D02*
Y670560D01*
X351150Y754230D02*
Y839596D01*
X353060Y841506D01*
Y842250D01*
X451421Y530439D02*
Y533997D01*
X404435Y566923D02*
X417345Y579833D01*
X351150Y754230D02*
X351150Y754230D01*
X450785Y571835D02*
X450796Y571846D01*
Y571991D02*
X455207Y576403D01*
X450796Y571846D02*
Y571991D01*
X661670Y603888D02*
Y787500D01*
X666101Y602992D02*
Y685059D01*
X255537Y436349D02*
Y519163D01*
X224917Y549783D02*
X255537Y519163D01*
X258787Y435003D02*
Y520509D01*
X317793Y561691D02*
Y617024D01*
X403749Y817652D02*
X422668D01*
X400348Y821052D02*
X403749Y817652D01*
X420181Y811104D02*
X430570Y800714D01*
X414020Y811530D02*
X428034Y797516D01*
X430570Y683220D02*
X449580Y664210D01*
X413676Y676305D02*
X428034Y690663D01*
X528662Y601840D02*
Y606510D01*
X558840Y600670D02*
X566420Y593090D01*
X528662Y601840D02*
X532332Y598170D01*
X532785Y603196D02*
X533213D01*
X535739Y600670D02*
X558840D01*
X533213Y603196D02*
X535739Y600670D01*
X532332Y598170D02*
X557530D01*
X563880Y532230D02*
Y591820D01*
X717475Y425375D02*
X726440Y434340D01*
X335486Y213294D02*
Y275590D01*
X366873Y218649D02*
X369717Y215805D01*
X335486Y283922D02*
X339090Y287526D01*
X230351Y221946D02*
X245062Y207235D01*
X337986Y227491D02*
Y283240D01*
X335486Y275590D02*
Y283922D01*
X337986Y227491D02*
X347780Y217696D01*
X710862Y646833D02*
Y647350D01*
X201792Y549783D02*
X224917D01*
X171825Y579749D02*
X201792Y549783D01*
X262662Y433242D02*
Y452233D01*
X239312Y115610D02*
Y204854D01*
X242562Y114264D02*
Y206200D01*
X245062Y109172D02*
Y207235D01*
X231309Y107608D02*
X239312Y115610D01*
X218505Y102935D02*
X233562Y117992D01*
X234559Y106261D02*
X242562Y114264D01*
X238760Y102870D02*
X245062Y109172D01*
X226586Y69099D02*
X227330D01*
X171825Y579749D02*
Y584450D01*
X175075Y581095D02*
Y585797D01*
X209240Y255705D02*
X210395Y256859D01*
Y258836D01*
X213645Y253371D02*
X214800Y254526D01*
X213645Y257169D02*
X214800Y256014D01*
X213645Y257169D02*
Y260182D01*
X209240Y254216D02*
X210395Y253062D01*
X187960Y238016D02*
Y238576D01*
X209781Y147255D02*
X209846Y147320D01*
X197255Y147255D02*
X209781D01*
X685800Y309792D02*
Y310536D01*
X681542Y300866D02*
Y311259D01*
X195515Y165165D02*
X195580D01*
X557530Y598170D02*
X563880Y591820D01*
X566420Y533400D02*
Y593090D01*
X327386Y140970D02*
X360680D01*
X238003Y435705D02*
X238203Y435504D01*
X238003Y435705D02*
Y485349D01*
X352850Y553794D02*
X354115Y552530D01*
X352850Y553794D02*
Y554538D01*
X354115Y524528D02*
Y552530D01*
X356726Y578111D02*
X356935Y578321D01*
X356726Y523602D02*
Y578111D01*
X389890Y357837D02*
X402816Y370763D01*
X659130Y809079D02*
Y809347D01*
Y809079D02*
X661670Y806539D01*
X154298Y624198D02*
X162969Y632869D01*
X151798Y626137D02*
X161931Y636270D01*
X201102Y78740D02*
X214630D01*
X229922Y74384D02*
X231309Y75771D01*
Y107608D01*
X229922Y73664D02*
Y74384D01*
X348168Y211254D02*
Y211377D01*
X753110Y546100D02*
X786130Y579120D01*
X602824Y723900D02*
X613410D01*
X830250Y336810D02*
X877570Y384130D01*
X830250Y309984D02*
Y336810D01*
X594974Y779783D02*
X595170Y779979D01*
X594974Y780259D02*
X595212Y780021D01*
X594974Y780259D02*
Y785474D01*
Y766466D02*
Y779783D01*
X661670Y799700D02*
Y806539D01*
X171741Y589131D02*
X175075Y585797D01*
X171741Y589131D02*
Y591529D01*
X171450Y591820D02*
X171741Y591529D01*
X168491Y587785D02*
X171825Y584450D01*
X374245Y552834D02*
X391160Y535919D01*
X370190Y553353D02*
Y565418D01*
X374245Y552834D02*
Y558973D01*
X370190Y553353D02*
X388660Y534883D01*
X370110Y565498D02*
X370190Y565418D01*
X374065Y559153D02*
X374245Y558973D01*
X162969Y632869D02*
X172002D01*
X166214Y591456D02*
X168491Y589179D01*
X166214Y591456D02*
Y592200D01*
X168491Y587785D02*
Y589179D01*
X213219Y54976D02*
Y55186D01*
X158750Y688340D02*
X163830Y683260D01*
X815707Y274941D02*
X818722Y277956D01*
X810863Y279618D02*
X813811D01*
X818722Y277956D02*
Y284232D01*
X814126Y279302D02*
X815472D01*
X813811Y279618D02*
X814126Y279302D01*
X815472D02*
Y285579D01*
X809639Y274941D02*
X815707D01*
X810337Y280144D02*
X810863Y279618D01*
X601789Y726400D02*
X606025D01*
X813969Y289106D02*
X833500Y308638D01*
X810260Y288290D02*
X810786Y288816D01*
X812077D02*
X812367Y289106D01*
X810786Y288816D02*
X812077D01*
X812367Y289106D02*
X813969D01*
X302685Y314560D02*
X302812D01*
X307652Y319400D01*
X402816Y370763D02*
Y400725D01*
D140*
X756352Y624859D02*
X808210Y573001D01*
X756352Y624859D02*
Y639900D01*
X743659Y652592D02*
X756352Y639900D01*
X808210Y539605D02*
Y573001D01*
X814070Y327660D02*
Y407670D01*
X725170Y715549D02*
Y839535D01*
X778650Y510045D02*
X808210Y539605D01*
X743659Y652592D02*
Y695089D01*
X743468Y695280D02*
Y697251D01*
X725170Y715549D02*
X743468Y697251D01*
Y695280D02*
X743659Y695089D01*
X778650Y443090D02*
X814070Y407670D01*
X778650Y443090D02*
Y510045D01*
D144*
X566550Y161901D02*
Y386995D01*
Y161901D02*
X602781Y125670D01*
X632460D01*
X566550Y386995D02*
X596559Y417003D01*
X810107Y298298D02*
X824230Y312420D01*
X791915Y298298D02*
X810107D01*
X790524Y299688D02*
X791915Y298298D01*
X824230Y312420D02*
Y337599D01*
X789875Y299688D02*
X790524D01*
X795228Y303530D02*
X810260D01*
X820420Y313690D01*
X151130Y309937D02*
X205295Y364102D01*
X745490Y428441D02*
Y547829D01*
Y428441D02*
X746189Y427743D01*
Y423241D02*
Y427743D01*
X367865Y302695D02*
Y350746D01*
X501649Y722010D02*
Y735970D01*
Y707693D02*
Y722010D01*
Y707693D02*
X502586Y706755D01*
X504167D01*
X505007Y705916D01*
Y701995D02*
Y705916D01*
X504167Y701155D02*
X505007Y701995D01*
X487213Y701155D02*
X504167D01*
X486373Y700315D02*
X487213Y701155D01*
X486373Y696395D02*
Y700315D01*
Y696395D02*
X487213Y695555D01*
X504648D01*
X505488Y694715D01*
Y690795D02*
Y694715D01*
X504648Y689956D02*
X505488Y690795D01*
X487213Y689956D02*
X504648D01*
X486373Y689116D02*
X487213Y689956D01*
X486373Y685195D02*
Y689116D01*
Y685195D02*
X487213Y684355D01*
X500712D01*
X501649Y683418D01*
Y682618D02*
Y683418D01*
Y612772D02*
Y682618D01*
Y735970D02*
X532207Y766528D01*
X544830D01*
X501649Y612772D02*
X511335Y603086D01*
X480060Y628447D02*
X505128Y603378D01*
X480060Y628447D02*
Y723278D01*
X514661Y757879D01*
X456157Y148193D02*
X456383Y147966D01*
X456157Y148193D02*
Y242343D01*
X455930Y242570D02*
X456157Y242343D01*
X460618Y154062D02*
Y246880D01*
Y154062D02*
X461010Y153670D01*
X460226Y247271D02*
X460618Y246880D01*
X745560Y295303D02*
X750272Y300014D01*
X732127Y295303D02*
X745560D01*
X367865Y302695D02*
X368300Y302260D01*
X367865Y350746D02*
X368140Y351020D01*
X363024Y553703D02*
Y573480D01*
Y553703D02*
X385985Y530743D01*
Y517280D02*
Y530743D01*
X372310Y503605D02*
X385985Y517280D01*
X372310Y432480D02*
Y503605D01*
X368140Y428310D02*
X372310Y432480D01*
X368140Y351020D02*
Y428310D01*
X204095Y405751D02*
Y406400D01*
X205295Y364102D02*
Y404551D01*
X428130Y296156D02*
Y296752D01*
Y296156D02*
X435886Y288400D01*
Y181610D02*
Y288400D01*
X204095Y405751D02*
X205295Y404551D01*
X151130Y294640D02*
Y309937D01*
X847363Y522000D02*
X848867D01*
X846903Y522459D02*
X847363Y522000D01*
X848867D02*
X867410Y503457D01*
X870260Y383629D02*
Y516659D01*
X853836Y533083D02*
X870260Y516659D01*
X824230Y337599D02*
X870260Y383629D01*
X846839Y533400D02*
X847157Y533083D01*
X853836D01*
X867410Y384810D02*
Y503457D01*
X750272Y300037D02*
X752675Y302440D01*
Y303090D01*
X750272Y300014D02*
Y300037D01*
X720150Y307280D02*
X732127Y295303D01*
X725170Y556260D02*
X725170D01*
X742640Y442920D02*
Y538790D01*
X725170Y556260D02*
X742640Y538790D01*
X720150Y420430D02*
X742640Y442920D01*
X720150Y307280D02*
Y420430D01*
X820420Y313690D02*
Y338153D01*
X821357Y339090D01*
X821690D01*
X867410Y384810D01*
X162579Y636919D02*
X169856D01*
X161931Y636270D02*
X162579Y636919D01*
D150*
X727560Y630370D02*
D03*
Y604370D02*
D03*
Y617370D02*
D03*
Y591370D02*
D03*
X740560D02*
D03*
Y617370D02*
D03*
Y604370D02*
D03*
Y630370D02*
D03*
D152*
X169000Y826700D02*
D03*
X757200Y386000D02*
D03*
Y46000D02*
D03*
X167200D02*
D03*
X816400Y484100D02*
D03*
Y826700D02*
D03*
X169000Y484100D02*
D03*
X167200Y386000D02*
D03*
D153*
X61100Y723000D02*
D03*
X35700D02*
D03*
X61100Y519800D02*
D03*
X35700Y494400D02*
D03*
Y519800D02*
D03*
X61100Y494400D02*
D03*
X86500Y672200D02*
D03*
X111900Y646800D02*
D03*
X86500Y697600D02*
D03*
X111900D02*
D03*
X86500Y291200D02*
D03*
X111900Y672200D02*
D03*
Y621400D02*
D03*
X86500Y596000D02*
D03*
X111900D02*
D03*
Y316600D02*
D03*
Y291200D02*
D03*
Y265800D02*
D03*
Y240400D02*
D03*
X86500Y189600D02*
D03*
X111900Y443600D02*
D03*
Y469000D02*
D03*
Y392800D02*
D03*
Y418200D02*
D03*
Y164200D02*
D03*
X86500Y316600D02*
D03*
X111900Y342000D02*
D03*
X86500D02*
D03*
X111900Y367400D02*
D03*
X86500D02*
D03*
Y392800D02*
D03*
Y443600D02*
D03*
Y418200D02*
D03*
Y469000D02*
D03*
X111900Y494400D02*
D03*
X86500D02*
D03*
X111900Y519800D02*
D03*
X86500D02*
D03*
X111900Y545200D02*
D03*
X86500D02*
D03*
X111900Y570600D02*
D03*
X86500D02*
D03*
Y621400D02*
D03*
Y646800D02*
D03*
X111900Y723000D02*
D03*
X86500D02*
D03*
X111900Y748400D02*
D03*
X86500D02*
D03*
X111900Y773800D02*
D03*
X86500D02*
D03*
Y138800D02*
D03*
Y164200D02*
D03*
X111900Y189600D02*
D03*
Y215000D02*
D03*
X86500D02*
D03*
Y265800D02*
D03*
Y240400D02*
D03*
X35700D02*
D03*
Y291200D02*
D03*
Y265800D02*
D03*
X61100D02*
D03*
Y240400D02*
D03*
X35700Y215000D02*
D03*
X61100D02*
D03*
X35700Y189600D02*
D03*
X61100D02*
D03*
X35700Y164200D02*
D03*
X61100D02*
D03*
X35700Y138800D02*
D03*
Y773800D02*
D03*
X61100D02*
D03*
X35700Y748400D02*
D03*
X61100D02*
D03*
X35700Y672200D02*
D03*
X61100D02*
D03*
X35700Y646800D02*
D03*
X61100D02*
D03*
Y621400D02*
D03*
X35700D02*
D03*
Y570600D02*
D03*
Y596000D02*
D03*
X61100D02*
D03*
Y570600D02*
D03*
X35700Y545200D02*
D03*
X61100D02*
D03*
X35700Y392800D02*
D03*
X61100D02*
D03*
X35700Y367400D02*
D03*
X61100D02*
D03*
X35700Y342000D02*
D03*
X61100D02*
D03*
X35700Y316600D02*
D03*
X61100D02*
D03*
Y291200D02*
D03*
Y469000D02*
D03*
X35700D02*
D03*
X61100Y443600D02*
D03*
X35700D02*
D03*
Y697600D02*
D03*
X61100D02*
D03*
X35700Y418200D02*
D03*
X61100D02*
D03*
D154*
X166150Y742100D02*
D03*
Y582100D02*
D03*
D155*
X825540Y744220D02*
D03*
Y769620D02*
D03*
D157*
X194200Y111000D02*
D03*
Y201000D02*
D03*
D158*
X111900Y138800D02*
D03*
X61100D02*
D03*
D159*
X697230Y389890D02*
D03*
X411726Y429612D02*
D03*
X391984Y416514D02*
D03*
X411255Y439495D02*
D03*
X405538D02*
D03*
X390876Y437960D02*
D03*
X412486Y448660D02*
D03*
X418454Y455216D02*
D03*
X405300Y462310D02*
D03*
X540867Y525780D02*
D03*
X875030Y140970D02*
D03*
X487229Y93505D02*
D03*
X587018Y91186D02*
D03*
X562202Y91440D02*
D03*
X556952D02*
D03*
X416642Y318876D02*
D03*
X421792Y321926D02*
D03*
X386080Y331470D02*
D03*
X389890Y335280D02*
D03*
X592268Y91186D02*
D03*
X464710Y296752D02*
D03*
X473710Y283210D02*
D03*
X792480Y623570D02*
D03*
X777240D02*
D03*
X784860D02*
D03*
X792480Y617220D02*
D03*
X61431Y12710D02*
D03*
X70431D02*
D03*
X34431D02*
D03*
X52431D02*
D03*
X43431D02*
D03*
X106431D02*
D03*
X115431D02*
D03*
X79431D02*
D03*
X97431D02*
D03*
X88431D02*
D03*
X25484Y13685D02*
D03*
X10170Y34065D02*
D03*
X17654Y18123D02*
D03*
X12229Y25304D02*
D03*
X151431Y12710D02*
D03*
X124431D02*
D03*
X142431D02*
D03*
X133431D02*
D03*
X187430D02*
D03*
X196430D02*
D03*
X160431D02*
D03*
X178431D02*
D03*
X169431D02*
D03*
X201502Y20145D02*
D03*
X208221Y26133D02*
D03*
X216873Y28611D02*
D03*
X10170Y70065D02*
D03*
Y97065D02*
D03*
Y79065D02*
D03*
Y88065D02*
D03*
Y52065D02*
D03*
Y43065D02*
D03*
Y61065D02*
D03*
X178274Y258242D02*
D03*
X214426Y276966D02*
D03*
X243873Y28710D02*
D03*
X225873D02*
D03*
X234873D02*
D03*
X279873D02*
D03*
X252873D02*
D03*
X270873D02*
D03*
X261873D02*
D03*
X288873D02*
D03*
X297873D02*
D03*
X315872D02*
D03*
X324873D02*
D03*
X306873D02*
D03*
X269753Y320281D02*
D03*
X270916Y297560D02*
D03*
X254493Y374058D02*
D03*
X240490Y388930D02*
D03*
X297869Y294477D02*
D03*
X302685Y319560D02*
D03*
X292685Y324560D02*
D03*
X312629Y293755D02*
D03*
X313862Y308383D02*
D03*
X322923Y329122D02*
D03*
X307688Y332022D02*
D03*
X333872Y28710D02*
D03*
X351872D02*
D03*
X342872D02*
D03*
X360872D02*
D03*
X369872D02*
D03*
X378872D02*
D03*
X414872D02*
D03*
X387872D02*
D03*
X405872D02*
D03*
X396872D02*
D03*
X397720Y337443D02*
D03*
X423872Y28710D02*
D03*
X422413Y91941D02*
D03*
X432872Y28710D02*
D03*
X441872D02*
D03*
X428331Y288725D02*
D03*
X428050Y331298D02*
D03*
X447040Y261620D02*
D03*
X468872Y28710D02*
D03*
X477872D02*
D03*
X450872D02*
D03*
X459872D02*
D03*
X452120Y257810D02*
D03*
X468570Y331298D02*
D03*
X444300Y357920D02*
D03*
X455156Y351015D02*
D03*
X477210Y351298D02*
D03*
X398401Y360603D02*
D03*
X395672Y380260D02*
D03*
X417953Y387450D02*
D03*
X424800Y364298D02*
D03*
X431301Y377298D02*
D03*
X405300Y415787D02*
D03*
X444106Y370502D02*
D03*
X463864Y377234D02*
D03*
X483862Y377484D02*
D03*
X444300Y416298D02*
D03*
Y422798D02*
D03*
X465437Y403236D02*
D03*
X469921Y403888D02*
D03*
X484034Y421641D02*
D03*
X231787Y581418D02*
D03*
X255385Y604815D02*
D03*
X246041Y621020D02*
D03*
X225780Y653610D02*
D03*
X235863Y653999D02*
D03*
X265863D02*
D03*
X266700Y635000D02*
D03*
X276863Y613910D02*
D03*
X335818Y541527D02*
D03*
X335816Y553187D02*
D03*
X305830Y582308D02*
D03*
X309880Y600710D02*
D03*
X340559Y580743D02*
D03*
X275590Y642380D02*
D03*
X267237D02*
D03*
X305785Y652483D02*
D03*
X285863Y653999D02*
D03*
X10171Y819627D02*
D03*
Y846627D02*
D03*
Y828627D02*
D03*
Y837627D02*
D03*
X215900Y779780D02*
D03*
X10171Y864627D02*
D03*
Y855627D02*
D03*
X237237Y662981D02*
D03*
X247237D02*
D03*
X10375Y873625D02*
D03*
X13495Y882066D02*
D03*
X19710Y888577D02*
D03*
X28030Y892007D02*
D03*
X127023Y892366D02*
D03*
X163023D02*
D03*
X172023D02*
D03*
X136023D02*
D03*
X154023D02*
D03*
X145023D02*
D03*
X64023D02*
D03*
X73023D02*
D03*
X37023D02*
D03*
X55023D02*
D03*
X46023D02*
D03*
X109023D02*
D03*
X118023D02*
D03*
X82023D02*
D03*
X100023D02*
D03*
X91023D02*
D03*
X210990Y877618D02*
D03*
X219902Y876364D02*
D03*
X228902Y876364D02*
D03*
X237902Y876364D02*
D03*
X246902Y876364D02*
D03*
X181023Y892366D02*
D03*
X190023D02*
D03*
X198744Y890143D02*
D03*
X203387Y882433D02*
D03*
X287237Y662981D02*
D03*
X267237D02*
D03*
X296356Y662621D02*
D03*
X260350Y795020D02*
D03*
X272094Y695804D02*
D03*
X292415Y696268D02*
D03*
X261620Y736600D02*
D03*
X297990Y755835D02*
D03*
X309397D02*
D03*
X332211D02*
D03*
X342637Y703580D02*
D03*
X320804Y755835D02*
D03*
X330780Y802257D02*
D03*
X330949Y808730D02*
D03*
X255902Y876364D02*
D03*
X264902Y876364D02*
D03*
X273902Y876364D02*
D03*
X282902Y876364D02*
D03*
X291902Y876364D02*
D03*
X300902Y876365D02*
D03*
X309902Y876365D02*
D03*
X318902Y876365D02*
D03*
X327902Y876365D02*
D03*
X336902Y876365D02*
D03*
X398470Y464820D02*
D03*
X424556Y436043D02*
D03*
X437800Y448661D02*
D03*
X350520Y567398D02*
D03*
Y561340D02*
D03*
X397202Y595687D02*
D03*
X417891Y559919D02*
D03*
X428216Y469786D02*
D03*
X420573Y597767D02*
D03*
X444300Y442298D02*
D03*
X469107Y432010D02*
D03*
X480801Y449798D02*
D03*
X453737Y453822D02*
D03*
X448000Y471170D02*
D03*
X469719Y467700D02*
D03*
X342637Y698500D02*
D03*
X386080Y675640D02*
D03*
X379730Y725740D02*
D03*
X349250Y740410D02*
D03*
X380722Y731798D02*
D03*
X359410Y793750D02*
D03*
X387350Y732790D02*
D03*
X396948Y829038D02*
D03*
X345902Y876365D02*
D03*
X354902Y876365D02*
D03*
X363902Y876365D02*
D03*
X372902Y876365D02*
D03*
X381902Y876365D02*
D03*
X390902Y876365D02*
D03*
X399902Y876365D02*
D03*
X408902Y876366D02*
D03*
X438150Y722630D02*
D03*
X419100Y789940D02*
D03*
X444392Y774219D02*
D03*
X454270Y812680D02*
D03*
X417902Y876366D02*
D03*
X453902D02*
D03*
X462902D02*
D03*
X426902D02*
D03*
X444902D02*
D03*
X435902D02*
D03*
X471902D02*
D03*
X474980Y861060D02*
D03*
X480902Y876366D02*
D03*
X486872Y28710D02*
D03*
X504872D02*
D03*
X495872D02*
D03*
X513872Y28711D02*
D03*
X522872Y28711D02*
D03*
X531872Y28711D02*
D03*
X540872Y28711D02*
D03*
X549872Y28711D02*
D03*
X558872Y28711D02*
D03*
X567872Y28711D02*
D03*
X576872Y28711D02*
D03*
X579050Y188048D02*
D03*
Y196048D02*
D03*
Y172048D02*
D03*
Y212048D02*
D03*
X579321Y267947D02*
D03*
X585872Y28711D02*
D03*
X594872Y28711D02*
D03*
X603872Y28711D02*
D03*
X612872Y28712D02*
D03*
X605050Y168048D02*
D03*
X621872Y28712D02*
D03*
X630872Y28712D02*
D03*
X639872Y28712D02*
D03*
X637051Y192048D02*
D03*
X589050Y200048D02*
D03*
X589080Y256100D02*
D03*
X637050Y200048D02*
D03*
X637050Y216048D02*
D03*
X597050Y232048D02*
D03*
X637050Y232048D02*
D03*
X486475Y326798D02*
D03*
X495696Y358726D02*
D03*
X506332Y340721D02*
D03*
X508767Y369984D02*
D03*
X489800Y377298D02*
D03*
X502920Y370840D02*
D03*
X496753Y400360D02*
D03*
X528626Y331687D02*
D03*
X543123Y341452D02*
D03*
X540550Y361048D02*
D03*
X544175Y279622D02*
D03*
X579050Y284048D02*
D03*
X516040Y387048D02*
D03*
X519298Y415292D02*
D03*
X539050Y380802D02*
D03*
X536041Y399991D02*
D03*
X535918Y420677D02*
D03*
X648872Y28712D02*
D03*
X657872Y28712D02*
D03*
X666872Y28712D02*
D03*
X675872Y28712D02*
D03*
X684872Y28712D02*
D03*
X693872Y28712D02*
D03*
X649051Y158048D02*
D03*
X655051Y172048D02*
D03*
X702872Y28712D02*
D03*
X711872Y28712D02*
D03*
X821685Y12710D02*
D03*
X830685D02*
D03*
X794685D02*
D03*
X812685D02*
D03*
X803685D02*
D03*
X866685D02*
D03*
X875685D02*
D03*
X839685D02*
D03*
X857685D02*
D03*
X848685D02*
D03*
X740685D02*
D03*
X720652Y26738D02*
D03*
X731693Y13090D02*
D03*
X727720Y21165D02*
D03*
X776685Y12710D02*
D03*
X785685D02*
D03*
X749685D02*
D03*
X767685D02*
D03*
X758685D02*
D03*
X884685D02*
D03*
X893685D02*
D03*
X902669Y13241D02*
D03*
X910898Y16887D02*
D03*
X916874Y23616D02*
D03*
X919681Y32167D02*
D03*
X919829Y41166D02*
D03*
Y68166D02*
D03*
Y50166D02*
D03*
Y59166D02*
D03*
Y122166D02*
D03*
X906356Y142856D02*
D03*
X919829Y131166D02*
D03*
X912304Y136102D02*
D03*
X919829Y86166D02*
D03*
Y77166D02*
D03*
Y113166D02*
D03*
Y95166D02*
D03*
Y104166D02*
D03*
X903829Y169519D02*
D03*
X903919Y151520D02*
D03*
X903829Y160519D02*
D03*
Y196519D02*
D03*
Y178519D02*
D03*
Y187519D02*
D03*
X655051Y252048D02*
D03*
Y212048D02*
D03*
Y204048D02*
D03*
X655086Y268061D02*
D03*
X655333Y284500D02*
D03*
X711959Y391931D02*
D03*
X903829Y214519D02*
D03*
Y205519D02*
D03*
Y241519D02*
D03*
Y223519D02*
D03*
Y232519D02*
D03*
Y268519D02*
D03*
Y259519D02*
D03*
Y250519D02*
D03*
X903829Y331519D02*
D03*
Y313519D02*
D03*
Y277519D02*
D03*
Y304519D02*
D03*
Y286519D02*
D03*
Y295519D02*
D03*
Y349519D02*
D03*
Y358519D02*
D03*
Y367519D02*
D03*
Y394519D02*
D03*
Y376519D02*
D03*
Y385519D02*
D03*
X903829Y403519D02*
D03*
Y412519D02*
D03*
X496373Y422734D02*
D03*
X495800Y442307D02*
D03*
X503524Y428644D02*
D03*
X508620Y429298D02*
D03*
X487474Y561713D02*
D03*
X505940Y466904D02*
D03*
X491838Y473710D02*
D03*
X537056Y439189D02*
D03*
X599490Y590550D02*
D03*
X634468Y521011D02*
D03*
X613410Y590550D02*
D03*
X572670Y692377D02*
D03*
X567935D02*
D03*
X507722Y789470D02*
D03*
X489902Y876366D02*
D03*
X498902D02*
D03*
X503287Y802045D02*
D03*
X516902Y876366D02*
D03*
X507902D02*
D03*
X567257Y795118D02*
D03*
X579902Y876366D02*
D03*
X525902D02*
D03*
X543902D02*
D03*
X534902D02*
D03*
X552902D02*
D03*
X570902D02*
D03*
X561902D02*
D03*
X587307Y632509D02*
D03*
X599490Y601980D02*
D03*
Y596900D02*
D03*
Y607060D02*
D03*
X593739Y703960D02*
D03*
Y679960D02*
D03*
Y691960D02*
D03*
X605739Y679960D02*
D03*
X605740Y691958D02*
D03*
X613410Y596900D02*
D03*
Y607060D02*
D03*
Y601980D02*
D03*
X620800Y631664D02*
D03*
X617739Y703960D02*
D03*
Y691960D02*
D03*
Y679960D02*
D03*
X643545Y692377D02*
D03*
X638810D02*
D03*
X605740Y703960D02*
D03*
X598995Y750808D02*
D03*
X588901Y876366D02*
D03*
X598170Y828040D02*
D03*
X597901Y876366D02*
D03*
X611088Y783399D02*
D03*
X606902Y876366D02*
D03*
X613127Y809895D02*
D03*
X615901Y876366D02*
D03*
X624902D02*
D03*
X642901D02*
D03*
X633901D02*
D03*
X786648Y536006D02*
D03*
X788670Y657860D02*
D03*
X903829Y439519D02*
D03*
Y430519D02*
D03*
Y511519D02*
D03*
X793133Y556991D02*
D03*
Y551093D02*
D03*
X793081Y568785D02*
D03*
Y562888D02*
D03*
X903829Y493519D02*
D03*
Y484519D02*
D03*
Y448519D02*
D03*
Y421519D02*
D03*
Y475519D02*
D03*
Y457519D02*
D03*
Y466519D02*
D03*
Y502519D02*
D03*
X903829Y538519D02*
D03*
Y520519D02*
D03*
Y529519D02*
D03*
Y565519D02*
D03*
Y547519D02*
D03*
Y556519D02*
D03*
X829310Y631190D02*
D03*
X838318Y630771D02*
D03*
X798830Y674370D02*
D03*
Y665480D02*
D03*
Y683260D02*
D03*
X829422Y645698D02*
D03*
X838318Y645771D02*
D03*
X903829Y619519D02*
D03*
Y583519D02*
D03*
Y574519D02*
D03*
Y610518D02*
D03*
Y592519D02*
D03*
Y601519D02*
D03*
Y628518D02*
D03*
X903829Y691518D02*
D03*
Y655518D02*
D03*
Y637519D02*
D03*
Y646518D02*
D03*
Y682518D02*
D03*
Y664518D02*
D03*
Y673518D02*
D03*
X711426Y707241D02*
D03*
X716280Y697230D02*
D03*
X675640Y795020D02*
D03*
X736600Y783590D02*
D03*
Y797560D02*
D03*
Y803910D02*
D03*
Y791210D02*
D03*
X657860Y831850D02*
D03*
X696901Y876366D02*
D03*
X705901Y876366D02*
D03*
X717550Y833120D02*
D03*
X651901Y876366D02*
D03*
X660901D02*
D03*
X687901D02*
D03*
X669901D02*
D03*
X678901D02*
D03*
X714897Y876650D02*
D03*
X723279Y879928D02*
D03*
X748030Y842010D02*
D03*
X729410Y886516D02*
D03*
X763250Y892366D02*
D03*
X736250D02*
D03*
X754250D02*
D03*
X745250D02*
D03*
X786130Y718820D02*
D03*
X800100Y697230D02*
D03*
X788011Y770750D02*
D03*
X807720Y721360D02*
D03*
X810078Y707572D02*
D03*
X903829Y700518D02*
D03*
Y727518D02*
D03*
Y709518D02*
D03*
Y718518D02*
D03*
Y745518D02*
D03*
Y736518D02*
D03*
Y754518D02*
D03*
X904767Y763469D02*
D03*
X909184Y771311D02*
D03*
X775970Y795020D02*
D03*
X880250Y892366D02*
D03*
X889250D02*
D03*
X853250D02*
D03*
X871250D02*
D03*
X862250D02*
D03*
X799250D02*
D03*
X808250D02*
D03*
X772250D02*
D03*
X790250D02*
D03*
X781250D02*
D03*
X835250D02*
D03*
X844250D02*
D03*
X817250D02*
D03*
X826250D02*
D03*
X898250Y892388D02*
D03*
X916575Y776447D02*
D03*
X919829Y829837D02*
D03*
Y856837D02*
D03*
Y838837D02*
D03*
Y847837D02*
D03*
Y793837D02*
D03*
Y784837D02*
D03*
Y820837D02*
D03*
Y802837D02*
D03*
Y811837D02*
D03*
X909253Y889212D02*
D03*
X915867Y883108D02*
D03*
X919829Y865837D02*
D03*
X919391Y874827D02*
D03*
X303331Y431480D02*
D03*
X271425Y394717D02*
D03*
X251236Y294637D02*
D03*
X447201Y330626D02*
D03*
X528813Y467772D02*
D03*
X312932Y523381D02*
D03*
X450979Y403340D02*
D03*
X425129Y430057D02*
D03*
X424623Y413850D02*
D03*
X398331Y400818D02*
D03*
X193142Y312375D02*
D03*
X549910Y478790D02*
D03*
X539610Y469298D02*
D03*
X675640Y424180D02*
D03*
X707390Y412750D02*
D03*
Y419100D02*
D03*
X723014Y283215D02*
D03*
X603200Y569517D02*
D03*
X903829Y322519D02*
D03*
Y340519D02*
D03*
X845930Y551070D02*
D03*
X838200Y201449D02*
D03*
X838200Y195580D02*
D03*
X838632Y286881D02*
D03*
Y292131D02*
D03*
X840835Y376482D02*
D03*
X459740Y773430D02*
D03*
X453390D02*
D03*
X525363Y479680D02*
D03*
X814070Y327660D02*
D03*
X808707Y293305D02*
D03*
X795228Y303530D02*
D03*
X283622Y169768D02*
D03*
X284232Y163594D02*
D03*
X317220Y267853D02*
D03*
X322316Y269116D02*
D03*
X317309Y257523D02*
D03*
X334500Y306915D02*
D03*
X331681Y314742D02*
D03*
X297322Y258143D02*
D03*
X327362Y257426D02*
D03*
X287685Y308560D02*
D03*
X361950Y114300D02*
D03*
X317554Y275549D02*
D03*
X302571Y258025D02*
D03*
X305957Y267967D02*
D03*
X311205Y268109D02*
D03*
X289560Y201930D02*
D03*
X589881Y569681D02*
D03*
X722630Y289560D02*
D03*
X648322Y557595D02*
D03*
X622705Y518784D02*
D03*
X609999Y520893D02*
D03*
X614205Y517751D02*
D03*
X834130Y113360D02*
D03*
X201906Y296202D02*
D03*
X188064Y292152D02*
D03*
X745490Y547829D02*
D03*
X742933Y552414D02*
D03*
X201479Y316981D02*
D03*
X219977Y310590D02*
D03*
X214328Y86360D02*
D03*
X754380Y220980D02*
D03*
Y214630D02*
D03*
X748030D02*
D03*
X741680D02*
D03*
X748030Y220980D02*
D03*
X688060D02*
D03*
X681710Y214630D02*
D03*
Y220980D02*
D03*
X688060Y214630D02*
D03*
X694410D02*
D03*
X372893Y165256D02*
D03*
X787400Y149860D02*
D03*
X878840Y213360D02*
D03*
X884090D02*
D03*
X129540Y656590D02*
D03*
Y699770D02*
D03*
Y723900D02*
D03*
X475647Y764158D02*
D03*
X381569Y550990D02*
D03*
X355600Y626110D02*
D03*
X360680D02*
D03*
X491490Y716280D02*
D03*
X518156Y811842D02*
D03*
X172740Y752321D02*
D03*
X788110Y349674D02*
D03*
X819150Y396240D02*
D03*
X811909Y593291D02*
D03*
X825491Y522352D02*
D03*
X732790Y416560D02*
D03*
X184479Y437102D02*
D03*
X199390Y214630D02*
D03*
X136412Y123058D02*
D03*
X186690Y256540D02*
D03*
X365760Y626110D02*
D03*
X569602Y768609D02*
D03*
X618490Y765810D02*
D03*
X654818Y767301D02*
D03*
X628766Y520303D02*
D03*
X487275Y796750D02*
D03*
X557087Y769323D02*
D03*
X204916Y276582D02*
D03*
X482028Y542988D02*
D03*
X676910Y767080D02*
D03*
X365760Y631190D02*
D03*
X360680D02*
D03*
X355600D02*
D03*
X365760Y621030D02*
D03*
X360680D02*
D03*
X355600D02*
D03*
X838010Y421447D02*
D03*
X509330Y477523D02*
D03*
X824580Y425450D02*
D03*
X818330Y425450D02*
D03*
X514574Y477766D02*
D03*
X325120Y114848D02*
D03*
X287223Y268829D02*
D03*
X284724Y264160D02*
D03*
X294527Y280089D02*
D03*
X268862Y235000D02*
D03*
X269391Y270871D02*
D03*
X760730Y259080D02*
D03*
X755332D02*
D03*
X749935D02*
D03*
X744538D02*
D03*
X739140D02*
D03*
X786130Y203200D02*
D03*
X837852Y519643D02*
D03*
X252730Y782320D02*
D03*
X485170Y517194D02*
D03*
X362015Y653406D02*
D03*
X509231Y422648D02*
D03*
X480843Y491009D02*
D03*
X314070Y357740D02*
D03*
X452024Y389812D02*
D03*
X451825Y377669D02*
D03*
X428082Y344745D02*
D03*
X424570Y423058D02*
D03*
X432545Y415207D02*
D03*
X415843Y413685D02*
D03*
X411480Y416127D02*
D03*
X371915Y334127D02*
D03*
X371946Y328827D02*
D03*
X372125Y323580D02*
D03*
X593613Y629173D02*
D03*
X262839Y359410D02*
D03*
X687070Y119380D02*
D03*
X633730Y116264D02*
D03*
X678180Y88900D02*
D03*
X400940Y125414D02*
D03*
X350959Y431544D02*
D03*
X688653Y724769D02*
D03*
X675640Y731943D02*
D03*
Y737870D02*
D03*
Y749723D02*
D03*
Y743797D02*
D03*
X386080Y279400D02*
D03*
X403860Y268445D02*
D03*
X549911Y463637D02*
D03*
X553530Y458884D02*
D03*
X536136Y459219D02*
D03*
X548640Y453390D02*
D03*
X547060Y442377D02*
D03*
X515300Y448798D02*
D03*
X483715Y428201D02*
D03*
X450016Y448424D02*
D03*
X706076Y498700D02*
D03*
X726434D02*
D03*
X719648D02*
D03*
X712862D02*
D03*
X699290D02*
D03*
X387240Y162996D02*
D03*
X617293Y751290D02*
D03*
X611644Y751357D02*
D03*
X443674Y324309D02*
D03*
X440656Y320322D02*
D03*
X560176Y428832D02*
D03*
X588303Y442675D02*
D03*
X603250D02*
D03*
X600710Y458470D02*
D03*
X597819Y465034D02*
D03*
X659130Y546100D02*
D03*
X695970Y578967D02*
D03*
X691350Y519630D02*
D03*
X666750Y519430D02*
D03*
X362723Y261042D02*
D03*
X350520Y262663D02*
D03*
X344170D02*
D03*
X347980Y277506D02*
D03*
X397456Y261425D02*
D03*
X405631Y260720D02*
D03*
X140970Y559348D02*
D03*
X237886Y288398D02*
D03*
X251236Y289092D02*
D03*
X252912Y271099D02*
D03*
X251236Y300908D02*
D03*
X263162Y271671D02*
D03*
X273176Y280583D02*
D03*
X513610Y682150D02*
D03*
X515244Y616908D02*
D03*
Y623258D02*
D03*
X505128Y603378D02*
D03*
X511335Y603086D02*
D03*
X514661Y757879D02*
D03*
X269471Y399590D02*
D03*
X334010Y383540D02*
D03*
X327660Y388620D02*
D03*
X302649Y396240D02*
D03*
X304800Y436880D02*
D03*
X345497Y352218D02*
D03*
X242913Y402182D02*
D03*
Y395339D02*
D03*
X381324Y299063D02*
D03*
X456383Y147966D02*
D03*
X455930Y242570D02*
D03*
X461010Y153670D02*
D03*
X449021Y235000D02*
D03*
X460226Y247271D02*
D03*
X299940Y280875D02*
D03*
X342900Y277756D02*
D03*
X242053Y306432D02*
D03*
X318392Y293853D02*
D03*
X313798Y298616D02*
D03*
X300418Y268118D02*
D03*
X527403Y362386D02*
D03*
X299956Y358138D02*
D03*
X312420Y199390D02*
D03*
X515800Y357798D02*
D03*
X629050Y232048D02*
D03*
Y240048D02*
D03*
X515800Y364298D02*
D03*
X501800Y415942D02*
D03*
X392678Y679973D02*
D03*
X389933Y687776D02*
D03*
X367030Y702310D02*
D03*
Y707390D02*
D03*
X361950Y702310D02*
D03*
Y707390D02*
D03*
X356935D02*
D03*
Y702310D02*
D03*
X226984Y379474D02*
D03*
X588304Y496982D02*
D03*
X588645Y489924D02*
D03*
X590936Y485190D02*
D03*
X589280Y480060D02*
D03*
X595367Y489053D02*
D03*
X599335Y492490D02*
D03*
X565150Y496570D02*
D03*
Y516915D02*
D03*
X668429Y418017D02*
D03*
X285750Y623570D02*
D03*
X267560Y372697D02*
D03*
X263810Y378292D02*
D03*
X431301Y448661D02*
D03*
X430390Y457571D02*
D03*
X321310Y344170D02*
D03*
X331200Y353662D02*
D03*
X287020Y356870D02*
D03*
X281770D02*
D03*
X372109Y318330D02*
D03*
X372783Y307717D02*
D03*
X372772Y312979D02*
D03*
X271625Y333349D02*
D03*
X266589Y341836D02*
D03*
X270552Y348791D02*
D03*
X261817Y327281D02*
D03*
X404766Y520226D02*
D03*
X398100Y520020D02*
D03*
X408340Y527439D02*
D03*
X402735Y515385D02*
D03*
X451738Y530122D02*
D03*
X466344D02*
D03*
X485838Y539178D02*
D03*
X457849Y530122D02*
D03*
X445770Y521970D02*
D03*
X412205Y518497D02*
D03*
X416497Y521905D02*
D03*
X486550Y455798D02*
D03*
X480113Y473950D02*
D03*
X497910Y477534D02*
D03*
X503251Y477470D02*
D03*
X522674Y420260D02*
D03*
X502800Y422661D02*
D03*
X490037Y422707D02*
D03*
X489938Y416298D02*
D03*
X489696Y403048D02*
D03*
X483342Y416393D02*
D03*
X489804Y429402D02*
D03*
X489800Y435798D02*
D03*
X495924Y429298D02*
D03*
X644625Y456897D02*
D03*
X628650Y454660D02*
D03*
X361200Y529460D02*
D03*
X370851Y524750D02*
D03*
X365760Y508000D02*
D03*
X368300Y302260D02*
D03*
X462416Y286247D02*
D03*
X459740Y256540D02*
D03*
X464490Y261878D02*
D03*
X389477Y261142D02*
D03*
X465463Y490362D02*
D03*
X465490Y485085D02*
D03*
X477948Y517105D02*
D03*
X520086Y479706D02*
D03*
X495300Y516890D02*
D03*
X516064Y519810D02*
D03*
X524686Y519356D02*
D03*
X553126Y519439D02*
D03*
X348384Y194864D02*
D03*
X299720Y777240D02*
D03*
X308610D02*
D03*
X317500Y778510D02*
D03*
X521594Y616908D02*
D03*
Y623258D02*
D03*
X160020Y650240D02*
D03*
Y656590D02*
D03*
X161386Y664700D02*
D03*
X623490Y724243D02*
D03*
X598170Y657860D02*
D03*
X586680Y659300D02*
D03*
Y654050D02*
D03*
X574040Y684150D02*
D03*
Y699770D02*
D03*
X477210Y344798D02*
D03*
X468759Y276795D02*
D03*
X341846Y532190D02*
D03*
X389890Y657860D02*
D03*
X373380Y660400D02*
D03*
X377190Y665480D02*
D03*
X262788Y352308D02*
D03*
X292676Y309909D02*
D03*
X204095Y406400D02*
D03*
X249865Y386647D02*
D03*
X318196Y407340D02*
D03*
X595835Y409261D02*
D03*
X322710Y411854D02*
D03*
X377190Y359512D02*
D03*
X345747Y344118D02*
D03*
X342997Y473230D02*
D03*
Y486116D02*
D03*
X428130Y296752D02*
D03*
X432601Y322283D02*
D03*
X435886Y181610D02*
D03*
X261801Y332281D02*
D03*
X254765Y336186D02*
D03*
X239210Y332255D02*
D03*
X247015Y323498D02*
D03*
X264953Y293624D02*
D03*
X292884Y294863D02*
D03*
X255936Y309499D02*
D03*
X290805Y508831D02*
D03*
X276230Y502760D02*
D03*
X226300Y603250D02*
D03*
X312420Y490087D02*
D03*
X296909Y622780D02*
D03*
X290767Y565530D02*
D03*
X280430Y565150D02*
D03*
X271552Y581660D02*
D03*
X252173Y581173D02*
D03*
X241251Y581472D02*
D03*
X245954Y492412D02*
D03*
X240843Y496487D02*
D03*
X197735Y544474D02*
D03*
X202960Y543967D02*
D03*
X212090Y621030D02*
D03*
X318505Y630925D02*
D03*
X295910Y595630D02*
D03*
X193040Y581660D02*
D03*
X343618Y755835D02*
D03*
X366432D02*
D03*
X367030Y712470D02*
D03*
X361950D02*
D03*
X355025Y755835D02*
D03*
X356935Y712470D02*
D03*
X320040Y689610D02*
D03*
X309330Y608330D02*
D03*
X296781Y581859D02*
D03*
X296627Y672483D02*
D03*
X296041Y652803D02*
D03*
X275176Y755835D02*
D03*
X286583D02*
D03*
X287059Y672803D02*
D03*
X277059D02*
D03*
X267059D02*
D03*
X263769Y755835D02*
D03*
X252362Y754046D02*
D03*
X257059Y672803D02*
D03*
X237059D02*
D03*
X227059D02*
D03*
X247059D02*
D03*
X246041Y653330D02*
D03*
X285932Y613564D02*
D03*
X255990Y613090D02*
D03*
X227059Y614177D02*
D03*
X317500Y508000D02*
D03*
X229210Y475628D02*
D03*
X322962Y486536D02*
D03*
X332740Y477520D02*
D03*
X333600Y482699D02*
D03*
X308610Y594360D02*
D03*
X222250Y618490D02*
D03*
X337820Y643890D02*
D03*
X341713Y640368D02*
D03*
X325120Y635000D02*
D03*
X267025Y594710D02*
D03*
X266966Y613334D02*
D03*
X246380Y601980D02*
D03*
X227870Y634137D02*
D03*
X633190Y807946D02*
D03*
X239520Y355809D02*
D03*
X234950Y344170D02*
D03*
X382945Y352012D02*
D03*
X271256Y376650D02*
D03*
X221451Y338152D02*
D03*
X151130Y294640D02*
D03*
X237490Y270720D02*
D03*
X127407Y224579D02*
D03*
X133350Y213360D02*
D03*
X199220Y235000D02*
D03*
X204470D02*
D03*
X292650Y319545D02*
D03*
X821690Y609600D02*
D03*
X816440D02*
D03*
X836829Y609892D02*
D03*
X831535Y609804D02*
D03*
X462345Y758190D02*
D03*
X468182Y341648D02*
D03*
X444310Y383793D02*
D03*
X559120Y671652D02*
D03*
X544830Y766528D02*
D03*
X568960Y679070D02*
D03*
X567075Y712926D02*
D03*
X642325Y679070D02*
D03*
X689660Y556887D02*
D03*
X846903Y522459D02*
D03*
X846839Y533400D02*
D03*
X790602Y758190D02*
D03*
X372658Y290458D02*
D03*
Y296164D02*
D03*
X647812Y518138D02*
D03*
X656598Y489340D02*
D03*
X638857Y518129D02*
D03*
X627590Y657183D02*
D03*
X669510Y505435D02*
D03*
X668701Y500248D02*
D03*
X385038Y263945D02*
D03*
X468706Y251633D02*
D03*
X676473Y558882D02*
D03*
X643061Y489000D02*
D03*
X646477Y492986D02*
D03*
X630419Y489899D02*
D03*
X635949D02*
D03*
X618490Y488950D02*
D03*
X737870Y532130D02*
D03*
X533422Y538921D02*
D03*
X545151Y429612D02*
D03*
X592466Y751191D02*
D03*
X607711Y732033D02*
D03*
X631465Y751565D02*
D03*
X625521Y751984D02*
D03*
X687070Y826770D02*
D03*
X687328Y797061D02*
D03*
X753988Y741680D02*
D03*
X725170Y839535D02*
D03*
X679022Y698700D02*
D03*
X612238Y791172D02*
D03*
X656590Y803910D02*
D03*
X688340Y701867D02*
D03*
X346387Y720544D02*
D03*
X381000Y524750D02*
D03*
X585600Y726910D02*
D03*
X632460Y125670D02*
D03*
X635667Y121514D02*
D03*
X729617Y137400D02*
D03*
X464705Y93520D02*
D03*
X470104D02*
D03*
X364490Y163830D02*
D03*
X376074Y170882D02*
D03*
X394432Y213537D02*
D03*
X328930Y163830D02*
D03*
X257219Y348870D02*
D03*
X454671Y555783D02*
D03*
X138476Y447812D02*
D03*
X491731Y538944D02*
D03*
X520700D02*
D03*
X504190Y539750D02*
D03*
X527149Y538944D02*
D03*
X472440Y523240D02*
D03*
X666750Y574040D02*
D03*
X661670Y568960D02*
D03*
Y574040D02*
D03*
X671830D02*
D03*
X666750Y568960D02*
D03*
X661670Y563880D02*
D03*
X746189Y423241D02*
D03*
X753110Y427990D02*
D03*
X845820Y542290D02*
D03*
X473326Y770315D02*
D03*
X589350Y766528D02*
D03*
X331244Y421068D02*
D03*
X328976Y416334D02*
D03*
X353060Y842250D02*
D03*
X367030Y670560D02*
D03*
X381000Y530000D02*
D03*
X446343Y514647D02*
D03*
X417107Y530122D02*
D03*
X427617Y521680D02*
D03*
X347275Y779230D02*
D03*
X640040Y656368D02*
D03*
Y650618D02*
D03*
X640164Y644992D02*
D03*
X417345Y579833D02*
D03*
X580682Y570130D02*
D03*
X454660Y570230D02*
D03*
X653172Y672426D02*
D03*
X650268Y632460D02*
D03*
X645018D02*
D03*
X356870Y666750D02*
D03*
X344170Y591820D02*
D03*
X347550Y612205D02*
D03*
X357634Y596394D02*
D03*
X448671Y739000D02*
D03*
X342705Y457935D02*
D03*
X568960Y704850D02*
D03*
X522409Y700117D02*
D03*
X516059D02*
D03*
Y693767D02*
D03*
X522409D02*
D03*
X528662Y606510D02*
D03*
X532785Y603196D02*
D03*
X604520Y629920D02*
D03*
X613354Y631721D02*
D03*
X627260Y632089D02*
D03*
X648337Y712368D02*
D03*
X642520Y704850D02*
D03*
X689610Y84650D02*
D03*
X694690Y93485D02*
D03*
X684534Y97735D02*
D03*
X533111Y92364D02*
D03*
X781364Y301230D02*
D03*
X752675Y303090D02*
D03*
X734060Y334010D02*
D03*
Y325175D02*
D03*
Y316341D02*
D03*
X741680Y316285D02*
D03*
Y325120D02*
D03*
Y333955D02*
D03*
X702310Y725826D02*
D03*
Y720742D02*
D03*
X333403Y346144D02*
D03*
X411987Y90933D02*
D03*
X403860Y95518D02*
D03*
X736109Y98533D02*
D03*
X286583Y191617D02*
D03*
X714231Y45847D02*
D03*
X875030Y96520D02*
D03*
X786548Y101451D02*
D03*
X792798Y96201D02*
D03*
X296685Y299483D02*
D03*
X246838Y255607D02*
D03*
X224790Y261620D02*
D03*
X308685Y299509D02*
D03*
X303685Y299560D02*
D03*
X763650Y774065D02*
D03*
X758190Y774255D02*
D03*
X713570Y755650D02*
D03*
X718820D02*
D03*
X702310Y730909D02*
D03*
X725170Y758190D02*
D03*
X730609Y765218D02*
D03*
X735877Y765210D02*
D03*
X761460Y207242D02*
D03*
X756210D02*
D03*
X743659Y695089D02*
D03*
X739320Y229380D02*
D03*
X477055Y410033D02*
D03*
X469837Y395614D02*
D03*
X467051Y368609D02*
D03*
X454325Y363764D02*
D03*
X676771Y569016D02*
D03*
X676473Y563880D02*
D03*
X710862Y647350D02*
D03*
X592574Y728118D02*
D03*
X694690Y673100D02*
D03*
X703580Y646430D02*
D03*
X676910Y574040D02*
D03*
X539750D02*
D03*
X546100D02*
D03*
Y568960D02*
D03*
X539750D02*
D03*
X455207Y576403D02*
D03*
X697564Y412672D02*
D03*
X463800Y390298D02*
D03*
X445008Y397051D02*
D03*
X444357Y390051D02*
D03*
X679450Y662940D02*
D03*
X684530D02*
D03*
X689610D02*
D03*
X694690D02*
D03*
X679450Y668020D02*
D03*
X684530D02*
D03*
X689610D02*
D03*
X694690D02*
D03*
X689610Y673100D02*
D03*
X684530D02*
D03*
X679450D02*
D03*
X553720Y485140D02*
D03*
X539750Y558800D02*
D03*
X546100D02*
D03*
Y563880D02*
D03*
X539750D02*
D03*
X523033Y400180D02*
D03*
X380475Y114611D02*
D03*
X481952Y93520D02*
D03*
X308610Y140970D02*
D03*
X337820Y511810D02*
D03*
X295910Y458470D02*
D03*
X262662Y452233D02*
D03*
X337820Y520700D02*
D03*
X309555Y448940D02*
D03*
X368005Y210842D02*
D03*
X369717Y215805D02*
D03*
X209240Y254960D02*
D03*
X214800Y255270D02*
D03*
X187960Y238576D02*
D03*
X209846Y147320D02*
D03*
X180340Y120650D02*
D03*
X238760Y102870D02*
D03*
X420181Y811104D02*
D03*
X497280Y812113D02*
D03*
X449580Y664210D02*
D03*
X467643Y813505D02*
D03*
X414020Y811530D02*
D03*
X413676Y676305D02*
D03*
X439420Y806450D02*
D03*
X400348Y821052D02*
D03*
X427618Y834762D02*
D03*
X151130Y325120D02*
D03*
X518160Y91440D02*
D03*
X511810D02*
D03*
X825322Y352946D02*
D03*
X378246Y387741D02*
D03*
X689704Y313667D02*
D03*
X685800Y309792D02*
D03*
X681542Y300866D02*
D03*
X690880Y326390D02*
D03*
X638770Y737492D02*
D03*
Y731742D02*
D03*
Y743242D02*
D03*
X661670Y787500D02*
D03*
X133350Y345440D02*
D03*
X518160Y671830D02*
D03*
Y666750D02*
D03*
X523240Y671830D02*
D03*
Y666750D02*
D03*
X528320Y671830D02*
D03*
X523240Y661670D02*
D03*
X518160D02*
D03*
X533400D02*
D03*
Y666750D02*
D03*
Y671830D02*
D03*
X528320Y661670D02*
D03*
Y666750D02*
D03*
X568960Y699770D02*
D03*
Y684150D02*
D03*
X637440D02*
D03*
X642520D02*
D03*
Y699770D02*
D03*
X637440D02*
D03*
X468630Y758190D02*
D03*
X535700Y743797D02*
D03*
Y737870D02*
D03*
Y731943D02*
D03*
X671830Y568960D02*
D03*
Y563880D02*
D03*
Y558800D02*
D03*
X661670D02*
D03*
X666750Y563880D02*
D03*
Y558800D02*
D03*
X195580Y165165D02*
D03*
X200725Y151130D02*
D03*
X616087Y569930D02*
D03*
X568390Y632460D02*
D03*
X563140D02*
D03*
X559792Y408998D02*
D03*
X566109Y413061D02*
D03*
X318862Y308383D02*
D03*
X331631Y328903D02*
D03*
X360680Y140970D02*
D03*
X292685Y329560D02*
D03*
X238203Y435504D02*
D03*
X233085Y434337D02*
D03*
X474980Y648970D02*
D03*
X572440Y646138D02*
D03*
X563434Y622134D02*
D03*
X467672Y516510D02*
D03*
X497590Y530910D02*
D03*
X511570Y528410D02*
D03*
X430763Y514117D02*
D03*
X760730Y835660D02*
D03*
X659130Y809347D02*
D03*
X269240Y457200D02*
D03*
X214630Y78740D02*
D03*
X229922Y73664D02*
D03*
X227330Y69099D02*
D03*
X226958Y63640D02*
D03*
X235946Y73397D02*
D03*
X572440Y657638D02*
D03*
Y651888D02*
D03*
X699296Y492760D02*
D03*
X596559Y417003D02*
D03*
X726440Y434340D02*
D03*
X533400Y773430D02*
D03*
X725170Y556260D02*
D03*
X497233Y549440D02*
D03*
X441740Y586751D02*
D03*
X454986Y589841D02*
D03*
X424504Y455262D02*
D03*
X425140Y442298D02*
D03*
X417985Y442122D02*
D03*
X450800Y416298D02*
D03*
X457200Y416560D02*
D03*
X411060Y471170D02*
D03*
X552450Y553720D02*
D03*
X784860Y712470D02*
D03*
X789875Y299688D02*
D03*
X535700Y749723D02*
D03*
X595170Y779979D02*
D03*
X770890Y648970D02*
D03*
X776140D02*
D03*
X356935Y578321D02*
D03*
X502768Y344840D02*
D03*
X486387Y339933D02*
D03*
X509300Y351298D02*
D03*
X515800Y345056D02*
D03*
Y351298D02*
D03*
X495693Y351454D02*
D03*
X502713Y351232D02*
D03*
X347780Y217696D02*
D03*
X348975Y535940D02*
D03*
Y527699D02*
D03*
X259080Y424180D02*
D03*
X416732Y570103D02*
D03*
X370110Y565498D02*
D03*
X374065Y559153D02*
D03*
X363024Y573480D02*
D03*
X352850Y554538D02*
D03*
X224650Y191014D02*
D03*
X213549Y185641D02*
D03*
X712868Y492760D02*
D03*
X719654D02*
D03*
X726440D02*
D03*
X706082D02*
D03*
X207010Y652780D02*
D03*
X166370Y613410D02*
D03*
X171461Y638113D02*
D03*
X171450Y627380D02*
D03*
X171211Y632869D02*
D03*
X166214Y592200D02*
D03*
X171450Y591820D02*
D03*
X836790Y256881D02*
D03*
Y262131D02*
D03*
X213219Y54976D02*
D03*
X157730Y675640D02*
D03*
Y688340D02*
D03*
X167640Y701040D02*
D03*
X213338Y60547D02*
D03*
X868546Y184362D02*
D03*
Y191848D02*
D03*
Y214306D02*
D03*
Y206820D02*
D03*
X809639Y274941D02*
D03*
X810337Y280144D02*
D03*
X270065Y428601D02*
D03*
X878840Y290830D02*
D03*
Y284480D02*
D03*
X810260Y288290D02*
D03*
X246380Y214630D02*
D03*
X786130Y579120D02*
D03*
X515797Y422802D02*
D03*
X447621Y344724D02*
D03*
X457040Y403732D02*
D03*
X457200Y396240D02*
D03*
X463940Y409701D02*
D03*
X588302Y417381D02*
D03*
X396584Y442180D02*
D03*
X523901Y439172D02*
D03*
X522300Y449310D02*
D03*
X508301Y448443D02*
D03*
X502676Y448525D02*
D03*
X502920Y441960D02*
D03*
X489412Y442521D02*
D03*
X542402Y477408D02*
D03*
X516028Y442036D02*
D03*
X418301Y436310D02*
D03*
X476800Y390298D02*
D03*
Y383798D02*
D03*
X476862Y377052D02*
D03*
X483301Y370798D02*
D03*
X467118Y455510D02*
D03*
X448310Y478790D02*
D03*
X448576Y456479D02*
D03*
X480801Y437387D02*
D03*
X800100Y604520D02*
D03*
X792480D02*
D03*
X800100Y610870D02*
D03*
X792480D02*
D03*
X800100Y617220D02*
D03*
Y623570D02*
D03*
X395479Y389074D02*
D03*
X452468Y435915D02*
D03*
X529027Y461798D02*
D03*
X463822Y383735D02*
D03*
X427503Y386941D02*
D03*
X505789Y455981D02*
D03*
X281940Y779780D02*
D03*
X270510D02*
D03*
X336550Y779230D02*
D03*
X292493Y779780D02*
D03*
X348168Y211254D02*
D03*
X360829Y211290D02*
D03*
X311508Y315737D02*
D03*
X297683Y314560D02*
D03*
X297685Y309560D02*
D03*
Y304560D02*
D03*
X302685Y314560D02*
D03*
Y309560D02*
D03*
Y304560D02*
D03*
X655051Y240048D02*
D03*
X516312Y429298D02*
D03*
X470376Y409738D02*
D03*
X495880Y461809D02*
D03*
X496050Y455436D02*
D03*
X285990Y683512D02*
D03*
X529590Y326390D02*
D03*
X444419Y435728D02*
D03*
X516169Y435672D02*
D03*
X437800Y377810D02*
D03*
X435682Y400016D02*
D03*
X427622Y392750D02*
D03*
X424800Y377298D02*
D03*
Y370798D02*
D03*
X418218Y351352D02*
D03*
X405741Y364146D02*
D03*
X411827Y351464D02*
D03*
X418301Y376787D02*
D03*
X444500Y364490D02*
D03*
X437898Y344398D02*
D03*
X437777Y338185D02*
D03*
X431800Y352547D02*
D03*
X444245Y350851D02*
D03*
X430789Y422798D02*
D03*
X451507Y396953D02*
D03*
X287685Y289560D02*
D03*
X297670Y319569D02*
D03*
X308862Y308383D02*
D03*
X302685Y324560D02*
D03*
X312585Y324945D02*
D03*
X431301Y364298D02*
D03*
X437800D02*
D03*
X508620Y442163D02*
D03*
X579050Y260048D02*
D03*
X655156Y260018D02*
D03*
X589050Y216048D02*
D03*
X503300Y386873D02*
D03*
X506050Y327798D02*
D03*
X579050Y276048D02*
D03*
X502977Y357498D02*
D03*
X489800Y370798D02*
D03*
X525550Y380802D02*
D03*
X483301Y383798D02*
D03*
X509300Y357798D02*
D03*
X496301Y364298D02*
D03*
X589050Y232048D02*
D03*
X637051Y240048D02*
D03*
X543952Y297991D02*
D03*
X641050Y158048D02*
D03*
X655051Y180048D02*
D03*
X645051Y192048D02*
D03*
X579050Y164048D02*
D03*
X655051Y220048D02*
D03*
X629050Y208048D02*
D03*
X655051Y196048D02*
D03*
X476572Y364070D02*
D03*
X528801Y338298D02*
D03*
X579050Y204048D02*
D03*
Y180048D02*
D03*
X589050Y184048D02*
D03*
Y176048D02*
D03*
X655333Y275596D02*
D03*
X437800Y435798D02*
D03*
X431301Y442298D02*
D03*
X408118Y380298D02*
D03*
X410282Y361978D02*
D03*
X444300Y429298D02*
D03*
X431301Y357798D02*
D03*
X424800D02*
D03*
X411407Y399993D02*
D03*
X405575Y338751D02*
D03*
X472190Y358024D02*
D03*
X572440Y731742D02*
D03*
Y737492D02*
D03*
Y743242D02*
D03*
X597050Y240048D02*
D03*
X645050Y248048D02*
D03*
X579050Y220048D02*
D03*
X534759Y341183D02*
D03*
X605050Y232048D02*
D03*
X589050Y248048D02*
D03*
X522051Y351548D02*
D03*
X645050Y232048D02*
D03*
X605050Y240048D02*
D03*
X484072Y364804D02*
D03*
X596800Y255798D02*
D03*
X521050Y386873D02*
D03*
X645050Y256048D02*
D03*
X489775Y351261D02*
D03*
X597051Y248048D02*
D03*
X515800Y370798D02*
D03*
X629051Y248048D02*
D03*
X483301Y396798D02*
D03*
X655051Y295798D02*
D03*
X528496Y351679D02*
D03*
X597050Y288048D02*
D03*
X637050Y256048D02*
D03*
X509074Y377484D02*
D03*
X652551Y280048D02*
D03*
X483301Y390298D02*
D03*
X522300Y364298D02*
D03*
X637051Y248048D02*
D03*
X597050Y280048D02*
D03*
X655051Y289798D02*
D03*
X528496Y344631D02*
D03*
X589311Y280048D02*
D03*
X645050Y272048D02*
D03*
X496403Y383764D02*
D03*
X589050Y272048D02*
D03*
X496301Y377298D02*
D03*
X645050Y264048D02*
D03*
X589050Y264048D02*
D03*
X597050Y272048D02*
D03*
X637050Y264048D02*
D03*
X502574Y377234D02*
D03*
X597050Y264048D02*
D03*
X702310Y715659D02*
D03*
X731583Y658307D02*
D03*
X755532Y658270D02*
D03*
X731415Y682810D02*
D03*
X755708Y682997D02*
D03*
X759558Y735455D02*
D03*
X765128Y741680D02*
D03*
X861060Y688340D02*
D03*
Y673368D02*
D03*
Y680854D02*
D03*
X868546Y688340D02*
D03*
Y673368D02*
D03*
Y680854D02*
D03*
X861060Y695826D02*
D03*
X868546D02*
D03*
X861060Y665882D02*
D03*
X868546D02*
D03*
X861060Y214306D02*
D03*
Y206820D02*
D03*
Y191848D02*
D03*
Y184362D02*
D03*
X753110Y694690D02*
D03*
X718003Y705348D02*
D03*
D160*
X233680Y813940D02*
D03*
D161*
X893000Y50000D02*
D03*
Y850000D02*
D03*
X35700Y824600D02*
D03*
Y88000D02*
D03*
M02*
