G04*
G04 #@! TF.GenerationSoftware,Altium Limited,Altium Designer,24.1.2 (44)*
G04*
G04 Layer_Color=8421504*
%FSLAX44Y44*%
%MOMM*%
G71*
G04*
G04 #@! TF.SameCoordinates,27C4CC1B-1F39-4CC3-9493-EFA3B80F4B77*
G04*
G04*
G04 #@! TF.FilePolarity,Positive*
G04*
G01*
G75*
G04:AMPARAMS|DCode=18|XSize=0.375mm|YSize=0.4mm|CornerRadius=0.1188mm|HoleSize=0mm|Usage=FLASHONLY|Rotation=180.000|XOffset=0mm|YOffset=0mm|HoleType=Round|Shape=RoundedRectangle|*
%AMROUNDEDRECTD18*
21,1,0.3750,0.1625,0,0,180.0*
21,1,0.1375,0.4000,0,0,180.0*
1,1,0.2375,-0.0688,0.0813*
1,1,0.2375,0.0688,0.0813*
1,1,0.2375,0.0688,-0.0813*
1,1,0.2375,-0.0688,-0.0813*
%
%ADD18ROUNDEDRECTD18*%
G04:AMPARAMS|DCode=19|XSize=0.375mm|YSize=0.4mm|CornerRadius=0.1188mm|HoleSize=0mm|Usage=FLASHONLY|Rotation=270.000|XOffset=0mm|YOffset=0mm|HoleType=Round|Shape=RoundedRectangle|*
%AMROUNDEDRECTD19*
21,1,0.3750,0.1625,0,0,270.0*
21,1,0.1375,0.4000,0,0,270.0*
1,1,0.2375,-0.0813,-0.0688*
1,1,0.2375,-0.0813,0.0688*
1,1,0.2375,0.0813,0.0688*
1,1,0.2375,0.0813,-0.0688*
%
%ADD19ROUNDEDRECTD19*%
G04:AMPARAMS|DCode=20|XSize=0.65mm|YSize=0.7mm|CornerRadius=0.1875mm|HoleSize=0mm|Usage=FLASHONLY|Rotation=0.000|XOffset=0mm|YOffset=0mm|HoleType=Round|Shape=RoundedRectangle|*
%AMROUNDEDRECTD20*
21,1,0.6500,0.3250,0,0,0.0*
21,1,0.2750,0.7000,0,0,0.0*
1,1,0.3750,0.1375,-0.1625*
1,1,0.3750,-0.1375,-0.1625*
1,1,0.3750,-0.1375,0.1625*
1,1,0.3750,0.1375,0.1625*
%
%ADD20ROUNDEDRECTD20*%
G04:AMPARAMS|DCode=21|XSize=0.75mm|YSize=0.7mm|CornerRadius=0.2mm|HoleSize=0mm|Usage=FLASHONLY|Rotation=180.000|XOffset=0mm|YOffset=0mm|HoleType=Round|Shape=RoundedRectangle|*
%AMROUNDEDRECTD21*
21,1,0.7500,0.3000,0,0,180.0*
21,1,0.3500,0.7000,0,0,180.0*
1,1,0.4000,-0.1750,0.1500*
1,1,0.4000,0.1750,0.1500*
1,1,0.4000,0.1750,-0.1500*
1,1,0.4000,-0.1750,-0.1500*
%
%ADD21ROUNDEDRECTD21*%
G04:AMPARAMS|DCode=22|XSize=0.65mm|YSize=0.7mm|CornerRadius=0.1875mm|HoleSize=0mm|Usage=FLASHONLY|Rotation=270.000|XOffset=0mm|YOffset=0mm|HoleType=Round|Shape=RoundedRectangle|*
%AMROUNDEDRECTD22*
21,1,0.6500,0.3250,0,0,270.0*
21,1,0.2750,0.7000,0,0,270.0*
1,1,0.3750,-0.1625,-0.1375*
1,1,0.3750,-0.1625,0.1375*
1,1,0.3750,0.1625,0.1375*
1,1,0.3750,0.1625,-0.1375*
%
%ADD22ROUNDEDRECTD22*%
G04:AMPARAMS|DCode=23|XSize=1.55mm|YSize=0.69mm|CornerRadius=0.1238mm|HoleSize=0mm|Usage=FLASHONLY|Rotation=0.000|XOffset=0mm|YOffset=0mm|HoleType=Round|Shape=RoundedRectangle|*
%AMROUNDEDRECTD23*
21,1,1.5500,0.4425,0,0,0.0*
21,1,1.3025,0.6900,0,0,0.0*
1,1,0.2475,0.6513,-0.2213*
1,1,0.2475,-0.6513,-0.2213*
1,1,0.2475,-0.6513,0.2213*
1,1,0.2475,0.6513,0.2213*
%
%ADD23ROUNDEDRECTD23*%
%ADD24R,1.0414X0.6604*%
%ADD25R,1.9542X1.3954*%
%ADD26R,3.0210X0.6588*%
%ADD27R,1.1414X2.4876*%
%ADD28R,1.1414X1.2938*%
%ADD29R,1.1414X1.1922*%
%ADD30R,0.6080X1.0906*%
%ADD31R,0.8112X0.8874*%
%ADD32R,0.4572X1.3716*%
%ADD33R,1.4224X1.5494*%
%ADD34R,1.6510X1.2954*%
%ADD35R,1.8034X1.9050*%
%ADD36R,0.9906X1.9050*%
%ADD37R,2.2000X3.1000*%
%ADD38R,0.9000X1.7000*%
%ADD39R,2.2100X1.2200*%
%ADD40R,1.3600X0.7100*%
G04:AMPARAMS|DCode=41|XSize=1.97mm|YSize=0.6mm|CornerRadius=0.075mm|HoleSize=0mm|Usage=FLASHONLY|Rotation=270.000|XOffset=0mm|YOffset=0mm|HoleType=Round|Shape=RoundedRectangle|*
%AMROUNDEDRECTD41*
21,1,1.9700,0.4500,0,0,270.0*
21,1,1.8200,0.6000,0,0,270.0*
1,1,0.1500,-0.2250,-0.9100*
1,1,0.1500,-0.2250,0.9100*
1,1,0.1500,0.2250,0.9100*
1,1,0.1500,0.2250,-0.9100*
%
%ADD41ROUNDEDRECTD41*%
G04:AMPARAMS|DCode=42|XSize=1.3mm|YSize=1.4mm|CornerRadius=0.296mm|HoleSize=0mm|Usage=FLASHONLY|Rotation=0.000|XOffset=0mm|YOffset=0mm|HoleType=Round|Shape=RoundedRectangle|*
%AMROUNDEDRECTD42*
21,1,1.3000,0.8080,0,0,0.0*
21,1,0.7080,1.4000,0,0,0.0*
1,1,0.5920,0.3540,-0.4040*
1,1,0.5920,-0.3540,-0.4040*
1,1,0.5920,-0.3540,0.4040*
1,1,0.5920,0.3540,0.4040*
%
%ADD42ROUNDEDRECTD42*%
%ADD43R,1.0500X2.2500*%
%ADD44R,3.3500X2.2500*%
G04:AMPARAMS|DCode=45|XSize=2.8mm|YSize=1.4mm|CornerRadius=0.297mm|HoleSize=0mm|Usage=FLASHONLY|Rotation=90.000|XOffset=0mm|YOffset=0mm|HoleType=Round|Shape=RoundedRectangle|*
%AMROUNDEDRECTD45*
21,1,2.8000,0.8060,0,0,90.0*
21,1,2.2060,1.4000,0,0,90.0*
1,1,0.5940,0.4030,1.1030*
1,1,0.5940,0.4030,-1.1030*
1,1,0.5940,-0.4030,-1.1030*
1,1,0.5940,-0.4030,1.1030*
%
%ADD45ROUNDEDRECTD45*%
%ADD46R,1.3335X0.4318*%
%ADD47R,0.6000X1.1000*%
%ADD48R,0.4500X1.1000*%
G04:AMPARAMS|DCode=49|XSize=1.31mm|YSize=0.69mm|CornerRadius=0.1975mm|HoleSize=0mm|Usage=FLASHONLY|Rotation=0.000|XOffset=0mm|YOffset=0mm|HoleType=Round|Shape=RoundedRectangle|*
%AMROUNDEDRECTD49*
21,1,1.3100,0.2950,0,0,0.0*
21,1,0.9150,0.6900,0,0,0.0*
1,1,0.3950,0.4575,-0.1475*
1,1,0.3950,-0.4575,-0.1475*
1,1,0.3950,-0.4575,0.1475*
1,1,0.3950,0.4575,0.1475*
%
%ADD49ROUNDEDRECTD49*%
%ADD50R,1.1049X0.4572*%
%ADD51R,0.6096X1.3208*%
G36*
X198920Y746500D02*
X177820D01*
Y757700D01*
X198920D01*
Y746500D01*
D02*
G37*
G36*
X154480D02*
X133380D01*
Y757700D01*
X154480D01*
Y746500D01*
D02*
G37*
G36*
X742402Y728237D02*
X742813Y728156D01*
X742870Y728138D01*
X742907Y728127D01*
X743294Y727967D01*
X743380Y727921D01*
X743381Y727920D01*
X743728Y727688D01*
X743805Y727626D01*
X744100Y727330D01*
X744101Y727329D01*
X744129Y727295D01*
X744163Y727253D01*
X744163Y727253D01*
X744396Y726906D01*
X744396Y726905D01*
X744442Y726818D01*
X744602Y726432D01*
X744602Y726432D01*
X744631Y726338D01*
X744713Y725927D01*
X744722Y725829D01*
Y725829D01*
D01*
Y725620D01*
Y720370D01*
Y720160D01*
D01*
Y720160D01*
X744713Y720062D01*
X744631Y719652D01*
X744613Y719595D01*
X744602Y719557D01*
X744442Y719171D01*
X744396Y719084D01*
X744396Y719084D01*
X744163Y718736D01*
X744101Y718660D01*
X743805Y718364D01*
X743805Y718364D01*
X743770Y718336D01*
X743728Y718301D01*
X743728Y718301D01*
X743381Y718069D01*
X743380Y718069D01*
X743294Y718022D01*
X742907Y717862D01*
X742907Y717862D01*
X742813Y717833D01*
X742402Y717752D01*
X742304Y717742D01*
D01*
X742304D01*
X735664D01*
X735663Y717742D01*
X735662Y717742D01*
X735613Y717747D01*
X735566Y717752D01*
X735565Y717752D01*
X735564Y717752D01*
X735518Y717766D01*
X735471Y717781D01*
X735471Y717781D01*
X735470Y717781D01*
X735426Y717805D01*
X735385Y717827D01*
X735384Y717828D01*
X735383Y717828D01*
X735347Y717858D01*
X735308Y717889D01*
X735308Y717890D01*
X735307Y717891D01*
X730593Y722641D01*
X730563Y722677D01*
X730533Y722714D01*
X730532Y722716D01*
X730531Y722717D01*
X730509Y722758D01*
X730486Y722801D01*
X730486Y722803D01*
X730485Y722804D01*
X730472Y722848D01*
X730457Y722895D01*
X730457Y722897D01*
X730457Y722898D01*
X730452Y722945D01*
X730447Y722993D01*
X730447Y722995D01*
X730447Y722997D01*
X730452Y723043D01*
X730457Y723091D01*
X730457Y723093D01*
X730457Y723094D01*
X730471Y723138D01*
X730485Y723185D01*
X730486Y723187D01*
X730486Y723189D01*
X730508Y723230D01*
X730531Y723272D01*
X730532Y723274D01*
X730533Y723275D01*
X730563Y723312D01*
X730593Y723348D01*
X735307Y728099D01*
X735308Y728099D01*
X735308Y728100D01*
X735347Y728131D01*
X735383Y728161D01*
X735384Y728162D01*
X735385Y728162D01*
X735425Y728184D01*
X735470Y728208D01*
X735471Y728208D01*
X735471Y728209D01*
X735520Y728223D01*
X735564Y728237D01*
X735564Y728237D01*
X735566Y728237D01*
X735616Y728242D01*
X735662Y728247D01*
X735663Y728247D01*
X735664Y728247D01*
X742304D01*
X742304D01*
D01*
X742402Y728237D01*
D02*
G37*
G36*
X198920Y726500D02*
X177820D01*
Y737700D01*
X198920D01*
Y726500D01*
D02*
G37*
G36*
X154480D02*
X133380D01*
Y737700D01*
X154480D01*
Y726500D01*
D02*
G37*
G36*
X198920Y706500D02*
X177820D01*
Y717700D01*
X198920D01*
Y706500D01*
D02*
G37*
G36*
X154480D02*
X133380D01*
Y717700D01*
X154480D01*
Y706500D01*
D02*
G37*
G36*
X198920Y686500D02*
X177820D01*
Y697700D01*
X198920D01*
Y686500D01*
D02*
G37*
G36*
X154480D02*
X133380D01*
Y697700D01*
X154480D01*
Y686500D01*
D02*
G37*
G36*
X198920Y666500D02*
X177820D01*
Y677700D01*
X198920D01*
Y666500D01*
D02*
G37*
G36*
X154480D02*
X133380D01*
Y677700D01*
X154480D01*
Y666500D01*
D02*
G37*
G36*
X198920Y646500D02*
X177820D01*
Y657700D01*
X198920D01*
Y646500D01*
D02*
G37*
G36*
X154480D02*
X133380D01*
Y657700D01*
X154480D01*
Y646500D01*
D02*
G37*
G36*
X461426Y637707D02*
X461474Y637703D01*
X461475Y637702D01*
X461476Y637702D01*
X461522Y637688D01*
X461568Y637674D01*
X461569Y637674D01*
X461570Y637673D01*
X461614Y637650D01*
X461655Y637628D01*
X461656Y637627D01*
X461657Y637627D01*
X461693Y637597D01*
X461731Y637565D01*
X461732Y637565D01*
X461733Y637564D01*
X466447Y632814D01*
X466476Y632777D01*
X466507Y632741D01*
X466508Y632739D01*
X466509Y632738D01*
X466530Y632696D01*
X466553Y632654D01*
X466554Y632652D01*
X466555Y632650D01*
X466568Y632607D01*
X466582Y632560D01*
X466583Y632558D01*
X466583Y632556D01*
X466587Y632510D01*
X466592Y632462D01*
X466592Y632460D01*
X466592Y632458D01*
X466588Y632412D01*
X466583Y632364D01*
X466582Y632362D01*
X466582Y632360D01*
X466569Y632316D01*
X466555Y632270D01*
X466554Y632268D01*
X466553Y632266D01*
X466531Y632225D01*
X466509Y632183D01*
X466508Y632181D01*
X466507Y632179D01*
X466476Y632143D01*
X466447Y632106D01*
X461733Y627356D01*
X461732Y627355D01*
X461731Y627355D01*
X461693Y627323D01*
X461657Y627293D01*
X461656Y627293D01*
X461655Y627292D01*
X461615Y627271D01*
X461570Y627247D01*
X461569Y627246D01*
X461568Y627246D01*
X461520Y627231D01*
X461476Y627218D01*
X461475Y627218D01*
X461474Y627217D01*
X461423Y627212D01*
X461378Y627208D01*
X461377Y627208D01*
X461376Y627208D01*
X454736D01*
D01*
X454736D01*
X454638Y627217D01*
X454227Y627299D01*
X454170Y627316D01*
X454133Y627327D01*
X453746Y627488D01*
X453659Y627534D01*
X453659Y627534D01*
X453311Y627767D01*
X453235Y627829D01*
X452939Y628125D01*
X452939Y628125D01*
X452911Y628159D01*
X452877Y628201D01*
X452877Y628201D01*
X452644Y628549D01*
X452644Y628549D01*
X452598Y628636D01*
X452438Y629023D01*
X452438Y629023D01*
X452409Y629117D01*
X452327Y629528D01*
X452318Y629626D01*
D01*
Y629626D01*
Y629835D01*
Y629835D01*
Y635085D01*
Y635294D01*
Y635294D01*
D01*
X452327Y635392D01*
X452409Y635803D01*
X452426Y635860D01*
X452438Y635897D01*
X452598Y636284D01*
X452644Y636371D01*
X452644Y636371D01*
X452877Y636719D01*
X452939Y636795D01*
X453235Y637091D01*
X453235Y637091D01*
X453270Y637119D01*
X453311Y637153D01*
X453312Y637153D01*
X453659Y637386D01*
X453659Y637386D01*
X453746Y637432D01*
X454133Y637592D01*
X454133Y637593D01*
X454227Y637621D01*
X454638Y637703D01*
X454736Y637712D01*
X454736D01*
D01*
X461376D01*
X461377Y637712D01*
X461378Y637712D01*
X461426Y637707D01*
D02*
G37*
G36*
X198920Y626500D02*
X177820D01*
Y637700D01*
X198920D01*
Y626500D01*
D02*
G37*
G36*
X154480D02*
X133380D01*
Y637700D01*
X154480D01*
Y626500D01*
D02*
G37*
G36*
X198920Y606500D02*
X177820D01*
Y617700D01*
X198920D01*
Y606500D01*
D02*
G37*
G36*
X154480D02*
X133380D01*
Y617700D01*
X154480D01*
Y606500D01*
D02*
G37*
G36*
X198920Y586500D02*
X177820D01*
Y597700D01*
X198920D01*
Y586500D01*
D02*
G37*
G36*
X154480D02*
X133380D01*
Y597700D01*
X154480D01*
Y586500D01*
D02*
G37*
G36*
X198920Y566500D02*
X177820D01*
Y577700D01*
X198920D01*
Y566500D01*
D02*
G37*
G36*
X154480D02*
X133380D01*
Y577700D01*
X154480D01*
Y566500D01*
D02*
G37*
G36*
X624983Y493760D02*
X609457D01*
Y506492D01*
X624983D01*
Y493760D01*
D02*
G37*
G36*
Y479028D02*
X609457D01*
Y491760D01*
X624983D01*
Y479028D01*
D02*
G37*
D18*
X451603Y403485D02*
D03*
X456853D02*
D03*
X471433Y445327D02*
D03*
X466183D02*
D03*
X445473Y457273D02*
D03*
X450723D02*
D03*
X463433Y461577D02*
D03*
X458183D02*
D03*
X458874Y432505D02*
D03*
X464124D02*
D03*
X469933Y419827D02*
D03*
X464683D02*
D03*
X449433Y414077D02*
D03*
X444183D02*
D03*
X408933Y412578D02*
D03*
X414183D02*
D03*
X398183Y390578D02*
D03*
X392933D02*
D03*
X399457Y429327D02*
D03*
X404707D02*
D03*
X393183Y468577D02*
D03*
X398433D02*
D03*
X398433Y474577D02*
D03*
X393183D02*
D03*
X395183Y457578D02*
D03*
X389933D02*
D03*
X402659Y444819D02*
D03*
X407909D02*
D03*
X380017Y445478D02*
D03*
X385267D02*
D03*
X384679Y420081D02*
D03*
X379429D02*
D03*
X365008Y413580D02*
D03*
X359758D02*
D03*
X360183Y432827D02*
D03*
X365433D02*
D03*
X360183Y452327D02*
D03*
X365433D02*
D03*
X365183Y471468D02*
D03*
X359933D02*
D03*
X357433Y499094D02*
D03*
X362683D02*
D03*
X458312Y478683D02*
D03*
X463562D02*
D03*
X492683Y498577D02*
D03*
X487433D02*
D03*
X489683Y474077D02*
D03*
X484433D02*
D03*
X490933Y451828D02*
D03*
X485683D02*
D03*
X489933Y432827D02*
D03*
X484683D02*
D03*
X492183Y413327D02*
D03*
X486933D02*
D03*
X493683Y393828D02*
D03*
X488433D02*
D03*
X497510Y377763D02*
D03*
X492260D02*
D03*
X360255Y387664D02*
D03*
X365505D02*
D03*
X365397Y393618D02*
D03*
X360147D02*
D03*
X557183Y204827D02*
D03*
X551933D02*
D03*
X605183Y196577D02*
D03*
X599933D02*
D03*
X592587Y241389D02*
D03*
X597836D02*
D03*
X622808Y272827D02*
D03*
X617558D02*
D03*
X612553Y280828D02*
D03*
X607303D02*
D03*
X553183Y260828D02*
D03*
X547933D02*
D03*
X528405Y438150D02*
D03*
X523155D02*
D03*
Y450850D02*
D03*
X528405D02*
D03*
Y457200D02*
D03*
X523155D02*
D03*
X528405Y463550D02*
D03*
X523155D02*
D03*
X528405Y469900D02*
D03*
X523155D02*
D03*
X528405Y480060D02*
D03*
X523155D02*
D03*
X528405Y486410D02*
D03*
X523155D02*
D03*
X528405Y492760D02*
D03*
X523155D02*
D03*
X528405Y499110D02*
D03*
X523155D02*
D03*
X312335Y471170D02*
D03*
X317585D02*
D03*
X312335Y477520D02*
D03*
X317585D02*
D03*
X312335Y483870D02*
D03*
X317585D02*
D03*
X312335Y490220D02*
D03*
X317585D02*
D03*
D19*
X441058Y450952D02*
D03*
Y445703D02*
D03*
X433626Y387952D02*
D03*
Y393202D02*
D03*
X449808Y396168D02*
D03*
Y390918D02*
D03*
X460937Y394312D02*
D03*
Y399562D02*
D03*
X468980Y394453D02*
D03*
Y399702D02*
D03*
X395808Y406203D02*
D03*
Y400953D02*
D03*
X402308Y394202D02*
D03*
Y399453D02*
D03*
X411741Y387309D02*
D03*
Y392559D02*
D03*
X378808Y396452D02*
D03*
Y391203D02*
D03*
X389121Y405801D02*
D03*
Y400551D02*
D03*
X404808Y417202D02*
D03*
Y422453D02*
D03*
X427808Y432202D02*
D03*
Y426953D02*
D03*
X421308D02*
D03*
Y432202D02*
D03*
X382558Y465452D02*
D03*
Y470703D02*
D03*
X386058Y498952D02*
D03*
Y493703D02*
D03*
X412058Y478203D02*
D03*
Y472952D02*
D03*
X411558Y497202D02*
D03*
Y491953D02*
D03*
X437829Y477697D02*
D03*
Y472447D02*
D03*
X443567Y480685D02*
D03*
Y475435D02*
D03*
X481860Y365137D02*
D03*
Y370387D02*
D03*
X482040Y359557D02*
D03*
Y354307D02*
D03*
X464137Y364221D02*
D03*
Y369471D02*
D03*
X444308Y373203D02*
D03*
Y367953D02*
D03*
X423885Y367453D02*
D03*
Y372702D02*
D03*
X402785D02*
D03*
Y367453D02*
D03*
X385742D02*
D03*
Y372702D02*
D03*
X376151Y367453D02*
D03*
Y372703D02*
D03*
X546558Y226952D02*
D03*
Y221702D02*
D03*
X541148Y229703D02*
D03*
Y234953D02*
D03*
X546558Y242952D02*
D03*
Y237703D02*
D03*
X532849Y245750D02*
D03*
Y251000D02*
D03*
X531388Y219219D02*
D03*
Y213969D02*
D03*
Y203570D02*
D03*
Y198320D02*
D03*
X617558Y206140D02*
D03*
Y211390D02*
D03*
X617558Y229819D02*
D03*
Y235069D02*
D03*
X617610Y251154D02*
D03*
Y245904D02*
D03*
X607837Y218382D02*
D03*
Y223632D02*
D03*
X617558Y314953D02*
D03*
Y309702D02*
D03*
Y293703D02*
D03*
Y298953D02*
D03*
X591419Y265756D02*
D03*
Y271006D02*
D03*
X532558Y315452D02*
D03*
Y310203D02*
D03*
Y299452D02*
D03*
Y294202D02*
D03*
X424180Y321140D02*
D03*
Y326390D02*
D03*
X417830D02*
D03*
Y321140D02*
D03*
X405130Y326475D02*
D03*
Y321225D02*
D03*
X398780Y326475D02*
D03*
Y321225D02*
D03*
X386080D02*
D03*
Y326475D02*
D03*
X379730D02*
D03*
Y321225D02*
D03*
X373380Y326475D02*
D03*
Y321225D02*
D03*
X372110Y543645D02*
D03*
Y538395D02*
D03*
X384810Y543645D02*
D03*
Y538395D02*
D03*
X477520Y543645D02*
D03*
Y538395D02*
D03*
X464820Y543645D02*
D03*
Y538395D02*
D03*
X471170Y543645D02*
D03*
Y538395D02*
D03*
X458030Y543510D02*
D03*
Y538260D02*
D03*
X426720Y543645D02*
D03*
Y538395D02*
D03*
X410210Y543645D02*
D03*
Y538395D02*
D03*
X420370Y543645D02*
D03*
Y538395D02*
D03*
X403860Y543645D02*
D03*
Y538395D02*
D03*
X397510Y543730D02*
D03*
Y538480D02*
D03*
X391160Y543645D02*
D03*
Y538395D02*
D03*
X378460Y543645D02*
D03*
Y538395D02*
D03*
X365760Y543645D02*
D03*
Y538395D02*
D03*
X353060Y543645D02*
D03*
Y538395D02*
D03*
X359410Y543645D02*
D03*
Y538395D02*
D03*
D20*
X448558Y450078D02*
D03*
X457558D02*
D03*
X504880Y649630D02*
D03*
X495880D02*
D03*
X504880Y659130D02*
D03*
X495880D02*
D03*
Y668630D02*
D03*
X504880D02*
D03*
X435610D02*
D03*
X426610D02*
D03*
Y659130D02*
D03*
X435610D02*
D03*
X426610Y649580D02*
D03*
X435610D02*
D03*
X355426Y487891D02*
D03*
X364426D02*
D03*
X495046D02*
D03*
X486046D02*
D03*
X491808Y465327D02*
D03*
X482808D02*
D03*
X501355Y366707D02*
D03*
X492355D02*
D03*
X200601Y227077D02*
D03*
X209601D02*
D03*
X187960D02*
D03*
X178960D02*
D03*
X274442Y242890D02*
D03*
X283442D02*
D03*
X283409Y273050D02*
D03*
X274409D02*
D03*
X283409Y262890D02*
D03*
X274409D02*
D03*
X274442Y252572D02*
D03*
X283442D02*
D03*
X305256Y252730D02*
D03*
X314256D02*
D03*
X305256Y242730D02*
D03*
X314256D02*
D03*
X324741Y201023D02*
D03*
X333741D02*
D03*
X348670Y170180D02*
D03*
X339670D02*
D03*
X318190D02*
D03*
X309190D02*
D03*
X319350Y160020D02*
D03*
X328350D02*
D03*
X283442Y160340D02*
D03*
X274442D02*
D03*
Y170458D02*
D03*
X283442D02*
D03*
X274442Y202250D02*
D03*
X283442D02*
D03*
X274442Y222570D02*
D03*
X283442D02*
D03*
X313690Y207730D02*
D03*
X304690D02*
D03*
X319066Y217700D02*
D03*
X328066D02*
D03*
X363126Y222730D02*
D03*
X354126D02*
D03*
X363131Y212730D02*
D03*
X354131D02*
D03*
X354128Y242480D02*
D03*
X345128D02*
D03*
X354194Y252572D02*
D03*
X345194D02*
D03*
X598056Y185454D02*
D03*
X607056D02*
D03*
X821790Y654405D02*
D03*
X830790D02*
D03*
X821790Y664565D02*
D03*
X830790D02*
D03*
X821790Y684885D02*
D03*
X830790D02*
D03*
X821790Y674725D02*
D03*
X830790D02*
D03*
X567671Y482589D02*
D03*
X576670D02*
D03*
X567790Y496925D02*
D03*
X576790D02*
D03*
X567790Y505815D02*
D03*
X576790D02*
D03*
X633590Y462280D02*
D03*
X624590D02*
D03*
X601290D02*
D03*
X610290D02*
D03*
X612720Y523240D02*
D03*
X621720D02*
D03*
X727652Y702150D02*
D03*
X736652D02*
D03*
X568349Y802640D02*
D03*
X577349D02*
D03*
X568349Y812646D02*
D03*
X577349D02*
D03*
X608910Y808990D02*
D03*
X617910D02*
D03*
X654884Y802640D02*
D03*
X663884D02*
D03*
X654884Y812646D02*
D03*
X663884D02*
D03*
X762690Y773430D02*
D03*
X753690D02*
D03*
X762690Y783590D02*
D03*
X753690D02*
D03*
X762690Y795020D02*
D03*
X753690D02*
D03*
X762690Y805180D02*
D03*
X753690D02*
D03*
X681664Y749300D02*
D03*
X672664D02*
D03*
X681664Y759206D02*
D03*
X672664D02*
D03*
X545972Y749300D02*
D03*
X554972D02*
D03*
X545972Y759090D02*
D03*
X554972D02*
D03*
X342811Y655640D02*
D03*
X333811D02*
D03*
X342806Y665640D02*
D03*
X333806D02*
D03*
X284936Y685640D02*
D03*
X293936D02*
D03*
X284936Y695640D02*
D03*
X293936D02*
D03*
X333874Y695482D02*
D03*
X324874D02*
D03*
X333808Y685390D02*
D03*
X324808D02*
D03*
X304423Y665181D02*
D03*
X313423D02*
D03*
X313421Y643933D02*
D03*
X304421D02*
D03*
X297870Y603250D02*
D03*
X288870D02*
D03*
X263122D02*
D03*
X254122D02*
D03*
X263122Y613368D02*
D03*
X254122D02*
D03*
X263122Y645160D02*
D03*
X254122D02*
D03*
X263122Y665480D02*
D03*
X254122D02*
D03*
X263122Y685800D02*
D03*
X254122D02*
D03*
X263122Y695482D02*
D03*
X254122D02*
D03*
X271831Y456947D02*
D03*
X262831D02*
D03*
X241190D02*
D03*
X250190D02*
D03*
X343851Y51036D02*
D03*
X334851D02*
D03*
X397678D02*
D03*
X388678D02*
D03*
X451505D02*
D03*
X442505D02*
D03*
X666812D02*
D03*
X657812D02*
D03*
X612982Y51036D02*
D03*
X603982D02*
D03*
X559155D02*
D03*
X550155D02*
D03*
X505328D02*
D03*
X496328D02*
D03*
X290021D02*
D03*
X281021D02*
D03*
D21*
X420760Y51155D02*
D03*
X431260D02*
D03*
X323610D02*
D03*
X313110D02*
D03*
X377435D02*
D03*
X366935D02*
D03*
X636061D02*
D03*
X646561D02*
D03*
X581861Y51155D02*
D03*
X592360D02*
D03*
X528035D02*
D03*
X538535D02*
D03*
X474210D02*
D03*
X484710D02*
D03*
X258910D02*
D03*
X269410D02*
D03*
D22*
X636270Y659710D02*
D03*
Y668710D02*
D03*
X624205Y659713D02*
D03*
Y668713D02*
D03*
X612140Y668710D02*
D03*
Y659710D02*
D03*
X600075Y668713D02*
D03*
Y659713D02*
D03*
X588010Y659712D02*
D03*
Y668712D02*
D03*
X362883Y370683D02*
D03*
Y379683D02*
D03*
X250494Y370150D02*
D03*
Y379150D02*
D03*
X240030Y370150D02*
D03*
Y379150D02*
D03*
X245872Y418664D02*
D03*
Y427664D02*
D03*
X294378Y243230D02*
D03*
Y252230D02*
D03*
X313690Y183230D02*
D03*
Y192230D02*
D03*
X329435Y187730D02*
D03*
Y178730D02*
D03*
X351385Y192230D02*
D03*
Y183230D02*
D03*
X554308Y229328D02*
D03*
Y220327D02*
D03*
X613856Y100910D02*
D03*
Y109910D02*
D03*
X598891Y100913D02*
D03*
Y109913D02*
D03*
X583926Y100910D02*
D03*
Y109910D02*
D03*
X568960Y100910D02*
D03*
Y109910D02*
D03*
X657803Y486713D02*
D03*
Y477713D02*
D03*
Y499303D02*
D03*
Y508303D02*
D03*
X331065Y626140D02*
D03*
Y635140D02*
D03*
X293370Y635140D02*
D03*
Y626140D02*
D03*
X274058Y686140D02*
D03*
Y695140D02*
D03*
X224790Y689867D02*
D03*
Y680867D02*
D03*
X214538Y689867D02*
D03*
Y680867D02*
D03*
X278232Y339518D02*
D03*
Y330518D02*
D03*
X323952Y320358D02*
D03*
Y329358D02*
D03*
Y340678D02*
D03*
Y349678D02*
D03*
X447808Y536605D02*
D03*
Y545605D02*
D03*
D23*
X453270Y668630D02*
D03*
Y659130D02*
D03*
X476370Y668630D02*
D03*
Y659130D02*
D03*
Y649630D02*
D03*
X453270D02*
D03*
D24*
X847830Y229348D02*
D03*
Y244348D02*
D03*
Y259348D02*
D03*
Y199348D02*
D03*
Y184348D02*
D03*
Y214348D02*
D03*
Y304348D02*
D03*
Y289348D02*
D03*
Y274348D02*
D03*
X847830Y620868D02*
D03*
Y635868D02*
D03*
Y650868D02*
D03*
Y665868D02*
D03*
Y680868D02*
D03*
Y695868D02*
D03*
D25*
X899730Y327398D02*
D03*
Y161298D02*
D03*
X899730Y718868D02*
D03*
Y597868D02*
D03*
D26*
X285620Y729907D02*
D03*
X327520D02*
D03*
D27*
X359320Y774207D02*
D03*
D28*
X359320Y742357D02*
D03*
X252820Y736657D02*
D03*
D29*
Y762757D02*
D03*
D30*
X325570Y802257D02*
D03*
X303570D02*
D03*
X314570D02*
D03*
X336570D02*
D03*
X347570D02*
D03*
X292570D02*
D03*
X270570D02*
D03*
X281570D02*
D03*
D31*
X252970Y775457D02*
D03*
D32*
X458320Y835766D02*
D03*
X451820D02*
D03*
X471320D02*
D03*
X464820D02*
D03*
X477820D02*
D03*
D33*
X489695Y836616D02*
D03*
X439945D02*
D03*
D34*
X498570Y862366D02*
D03*
X431070D02*
D03*
D35*
X476320D02*
D03*
D36*
X449326D02*
D03*
D37*
X645077Y857250D02*
D03*
X581577D02*
D03*
D38*
X607077Y828250D02*
D03*
X619577D02*
D03*
D39*
X188370Y572100D02*
D03*
Y592100D02*
D03*
X143930D02*
D03*
Y612100D02*
D03*
X188370D02*
D03*
X143930Y632100D02*
D03*
Y672100D02*
D03*
X188370D02*
D03*
X143930Y692100D02*
D03*
X188370D02*
D03*
X143930Y712100D02*
D03*
X188370D02*
D03*
X143930Y732100D02*
D03*
X188370D02*
D03*
X143930Y752100D02*
D03*
X188370D02*
D03*
Y632100D02*
D03*
X143930Y652100D02*
D03*
X188370D02*
D03*
X143930Y572100D02*
D03*
D40*
X148300Y121000D02*
D03*
X240100D02*
D03*
Y111000D02*
D03*
Y151000D02*
D03*
X148300Y111000D02*
D03*
X240100Y161000D02*
D03*
Y171000D02*
D03*
Y181000D02*
D03*
X148300Y191000D02*
D03*
X240100D02*
D03*
X148300Y201000D02*
D03*
X240100D02*
D03*
X148300Y141000D02*
D03*
Y131000D02*
D03*
X240100Y141000D02*
D03*
Y131000D02*
D03*
X148300Y151000D02*
D03*
Y161000D02*
D03*
Y171000D02*
D03*
Y181000D02*
D03*
D41*
X200660Y299020D02*
D03*
X187960D02*
D03*
X200660Y249620D02*
D03*
X187960D02*
D03*
X213360Y299020D02*
D03*
X175260D02*
D03*
Y249620D02*
D03*
X213360D02*
D03*
X262890Y528890D02*
D03*
X250190D02*
D03*
X275590D02*
D03*
X237490D02*
D03*
Y479490D02*
D03*
X275590D02*
D03*
X262890D02*
D03*
X250190D02*
D03*
D42*
X749190Y320042D02*
D03*
X767190D02*
D03*
Y255272D02*
D03*
X749190D02*
D03*
X792082Y114298D02*
D03*
X774082D02*
D03*
X792082Y135888D02*
D03*
X774082D02*
D03*
X749330Y581439D02*
D03*
X767330D02*
D03*
X749330Y618702D02*
D03*
X767330D02*
D03*
D43*
X736460Y167850D02*
D03*
X759460D02*
D03*
X782460D02*
D03*
D44*
X759460Y225850D02*
D03*
D45*
X720109Y125730D02*
D03*
X748109D02*
D03*
X768877Y672274D02*
D03*
X796877D02*
D03*
X796797Y715444D02*
D03*
X768797D02*
D03*
X746077Y672274D02*
D03*
X718077D02*
D03*
D46*
X595059Y476504D02*
D03*
X639381Y509016D02*
D03*
X595059Y483006D02*
D03*
Y509016D02*
D03*
Y489509D02*
D03*
X639381Y476504D02*
D03*
X595059Y496011D02*
D03*
Y502514D02*
D03*
X639381Y496011D02*
D03*
Y502514D02*
D03*
Y489509D02*
D03*
Y483006D02*
D03*
D47*
X550407Y587236D02*
D03*
X562407D02*
D03*
X550407Y617236D02*
D03*
X562407D02*
D03*
X665977Y587236D02*
D03*
X677977D02*
D03*
X665977Y617236D02*
D03*
X677977D02*
D03*
D48*
X556407Y587236D02*
D03*
Y617236D02*
D03*
X671977Y587236D02*
D03*
Y617236D02*
D03*
D49*
X668732Y772609D02*
D03*
X693831D02*
D03*
Y791609D02*
D03*
X668732D02*
D03*
Y782109D02*
D03*
X563022D02*
D03*
Y772609D02*
D03*
X537922D02*
D03*
X563022Y791609D02*
D03*
X537922D02*
D03*
X582372Y782109D02*
D03*
Y791609D02*
D03*
X607472D02*
D03*
Y772609D02*
D03*
X582372D02*
D03*
X650228Y782109D02*
D03*
Y772609D02*
D03*
X625128D02*
D03*
X650228Y791609D02*
D03*
X625128D02*
D03*
D50*
X425768Y784250D02*
D03*
Y793750D02*
D03*
X399733D02*
D03*
Y784250D02*
D03*
X425768Y803250D02*
D03*
X399733D02*
D03*
X425768Y738530D02*
D03*
Y748030D02*
D03*
X399733D02*
D03*
X425768Y757530D02*
D03*
X399733D02*
D03*
Y738530D02*
D03*
D51*
X310592Y323596D02*
D03*
X301092Y343900D02*
D03*
X291592Y323596D02*
D03*
M02*
