M48
;Layer_Color=9474304
;FILE_FORMAT=4:2
METRIC,TZ
;TYPE=PLATED
T01F00S00C0.20
T02F00S00C0.50
T03F00S00C0.90
T04F00S00C1.10
T05F00S00C3.18
T06F00S00C4.40
;TYPE=NON_PLATED
T07F00S00C0.76
T08F00S00C1.19
%
T01
X177Y181
X255Y137
X344Y127
X434
X524
X614
X704
X794
X884
X974
X1064
X1154
X1244
X1334
X1424
X1364Y1231
X102Y971
Y881
Y791
Y701
Y611
Y521
Y431
X102Y341
X122Y253
X1514Y127
X1604
X1694
X1784
X1874
X1964
X2015Y201
X2082Y261
X2169Y286
X2259Y287
X2349
X2439
X2529
X2619
X2709
X2799
X2889
X2979
X3069
X3159
X3249
X3339
X3429
X3519
X3609
X3699
X3789
X3879
X3969
X4059
X4149
X4239
X4329
X4419
X4509
X4599
X4689
X4779
X4869
X4959
X5049
X5139Y287
X5229Y287
X5319Y287
X5331Y924
X5182Y914
X5118
X4872Y935
X4820Y935
X4701
X4647
X4224Y919
X4120Y909
X4039Y955
X4009Y1254
X3805Y1146
X3619Y1143
X3607Y1410
X3086
X3251Y1148
X2388Y1029
X2359Y734
X2299Y737
X2273Y691
X2270Y636
X2133Y605
X2132Y550
X2146Y787
X2143Y864
X1803Y1206
X5570Y914
X5622
X5870Y912
X5923
X5949Y287
X6039Y287
X6129Y287
X6219Y287
X6309Y287
X6399Y287
X6489Y287
X6579Y287
X6669Y287
X6759Y287
X6849Y287
X6939Y287
X7029Y287
X7119Y287
X7207Y267
X7277Y212
X7317Y131
X7407Y127
X7497
X7587
X7677
X7767
X7857
X7947
X8037
X8127
X8217
X8307
X8397
X8487
X8577
X8667
X8757
X8847
X8937
X9027Y132
X9109Y169
X9169Y236
X9197Y322
X9198Y412
Y502
Y592
Y682
Y772
Y862
Y952
Y1042
Y1132
Y1222
Y1312
X9123Y1361
X9064Y1429
X8750Y1410
Y965
X8341Y1134
X7928Y962
X7865Y1015
X7361Y985
X7296Y1374
X6871Y1194
X6845Y977
X6947Y935
X6896Y847
X6782Y889
X6337Y1163
X6357Y1215
X6325Y1257
X5859Y287
X5769Y287
X5679Y287
X5589Y287
X5499Y287
X5409Y287
X7142Y458
X7874Y1499
X7861Y2032
X7615Y2072
X7562
X7544Y2146
Y2210
X7480
Y2146
X7417
X7393Y2294
X7391Y2591
X7445
X7499
X7553
X7607
X7527Y3031
X7417Y3163
X7341Y3163
Y3252
X7417Y3251
Y3340
X7341Y3340
X6909Y3264
X6897Y3137
X6858Y3098
X6815Y3009
X6551Y2958
Y2898
X6553Y2845
X6526Y2800
X6553Y2756
X6551Y2681
X6552Y2600
X6551Y2520
Y2400
X6371
X6291
Y2320
X6371
X6451
Y2480
X6371
X6291
X6371Y2560
X6451Y2560
X6451Y2640
X6451Y2720
X6371Y2640
X5971Y2640
X5891Y2640
X5891Y2561
X5968Y2558
X5971Y2480
X5891Y2480
X5971Y2400
X6051Y2400
Y2320
X5971Y2320
X5891Y2320
Y2160
X5791Y2120
Y2200
Y2040
Y1960
Y1880
Y1800
Y1720
Y1640
X5891Y1760
Y1840
Y2000
X6291Y2080
X6371Y2000
X6371Y1920
X6451Y1920
X6551Y1960
Y2040
Y2120
Y2200
X6371Y2160
X6817Y2146
Y2210
X6881
Y2146
X6944
X6551Y1800
Y1720
X6491Y1580
X6411
X6051Y1680
X5971Y2720
X5891
X5893Y2800
X5971Y2800
Y2880
X5791Y2840
Y2760
X5793Y2679
X5791Y2600
X5442Y2796
X5440Y2980
X5431Y3415
X5406Y3610
X5598Y4090
X5661Y4131
X5602Y4288
X5452Y4296
X5471Y4424
X5486Y4534
X5535Y4589
X5499Y4636
X5499Y4788
X5424Y4774
X5537Y4851
X5651Y4966
Y5169
X5531Y5194
X5409Y5258
X6100Y5209
X6142Y5178
X6227Y5188
X6288Y5203
X6345Y5210
X6389Y5181
X6478Y5181
X6668Y5194
X6695Y5054
X6687Y5002
X6566Y4893
X6465Y4930
X6431Y4890
X6359Y4899
X6304
X6185Y4890
X5993Y4925
X5954Y4891
X5886Y4899
X5909Y4852
X5893Y4801
X5883Y4970
X5978Y4650
X6007Y4585
X6033Y4427
X5883
X5883Y4174
X5966Y4170
X5958Y4093
X6287Y4547
X6446Y4569
X6684Y4180
X6756Y4242
X6976Y4127
X7074Y4128
Y4191
X7328Y4166
X7462Y4232
X7531Y4280
X7264Y4343
X7120Y3919
X6962Y3972
X6993Y4928
X6993Y4987
X7061
X7061Y4928
X7129
X7129Y4987
X7196
X7197Y4928
X7264
X7264Y4987
X7379Y5321
X7866Y5360
X8255Y5224
X8379Y5196
X8469Y5225
X8468Y5334
X9038Y5295
Y5385
Y5205
X9038Y5115
Y5025
Y4935
Y4845
Y4755
Y4665
Y4575
Y4485
Y4395
Y4305
Y4215
Y4125
Y4035
X9038Y3945
Y3855
Y3765
Y3675
Y3585
Y3495
Y3405
Y3315
Y3225
Y3135
Y3045
Y2955
Y2865
Y2775
X9038Y2685
Y2595
Y2505
Y2415
Y2325
Y2235
Y2145
Y2055
Y1965
Y1875
Y1785
Y1695
Y1605
X9039Y1515
X8685Y1844
Y1918
X8611
Y1844
Y2068
X8685
Y2143
X8611
X8788Y2134
X8841
X8382Y2014
X8382Y1956
X8368Y2569
Y2621
X8386Y2869
Y2921
X8087Y2933
X8103Y2883
X8103Y2801
X8096Y2749
X7952Y3035
X7899Y2997
X7814Y3012
X7881Y3497
X8253Y3529
X8141Y3277
X8192Y3962
X8183Y4254
X8246Y4254
X8380Y4214
X8408Y3765
X8788Y2908
Y2845
X7230Y2832
X7226Y2896
X6914Y5196
X5247Y5194
X5161Y5198
X5116Y5284
X4976Y5309
X4917Y5389
X4858Y5392
X4852Y5172
X4779Y5171
X4677Y5165
X4724Y5232
X4663Y5301
X4578
X4517
X4458Y5220
X4463Y5146
X4308Y5141
X4276Y5217
X4165Y5219
X4122Y5185
X4048Y5202
X4027Y5154
X3981Y5200
X4083Y5274
X4171Y5301
X3810Y5300
Y5247
X3709
X3612Y5295
X3490Y5277
Y5359
X3418Y5322
X3378Y5207
Y5118
X3175Y5080
X3129Y5234
X3124Y4901
X3230Y4865
X3336Y4827
X3327Y4775
X3430Y4732
Y4861
X3427Y4579
X3510Y4315
X3312Y4211
X3290Y4163
X3227Y4119
X3182Y4073
X3026Y3962
X3277Y3886
X3340Y3835
X3312Y3537
X3334Y3461
X3213Y3442
X3229Y3291
X3316Y3289
X3317Y3147
X3345Y3069
X3189Y3084
X3139Y3084
X3089
X3027Y3096
X2977
Y3046
X3027
X3037Y2996
X3087Y2995
X3138Y2986
X3126Y2938
X3184Y2939
X3176Y2755
X3172Y2679
X3112Y2681
X3060Y2680
X3004Y2681
X3026Y2580
X2973Y2581
X2847Y2642
X2872Y2688
X2945Y2801
X2999Y2809
X2979Y2945
X2929Y2949
X2967Y2995
X2927Y3099
X2877Y3086
X2926Y3195
X2977Y3196
X2977Y3146
X3027Y3146
Y3196
Y3246
X2927
Y3296
X3077Y3320
X3126Y3249
X3115Y3157
X3141Y3577
X3000Y3581
X2870Y3569
X2818
X2706Y3488
X2666Y3418
X2716Y3333
X2618Y3323
X2618Y3273
X2698Y3203
X2709Y2976
X2650Y2936
X2512Y2946
Y2891
Y3009
X2559Y3095
X2421Y3064
X2470Y3235
X2392Y3323
X2350Y3442
X2395Y3558
X2572Y3489
X2628Y3523
X2628Y3594
X2676Y3727
X2713Y3766
X2638Y3783
X2545Y3741
X2499Y3866
X2405Y3889
X2429Y3953
Y4022
X2695Y3996
X2714Y3947
X2701Y4286
X2591Y4242
X2627Y4522
X2692Y4572
X2959Y4585
X3096Y4489
X3048Y4369
X3033Y4315
X2382Y4355
X2331Y4343
X2292Y4756
X2408Y4965
X2460Y4924
X2762Y5028
X2908Y5088
X3658Y5080
X3985Y4648
X4053Y4623
X4111Y4712
X4282Y4698
X4304Y4576
X4245Y4553
X4185Y4552
X4125Y4487
X4113Y4398
X4180Y4421
X4183Y4363
X4246Y4360
X4251Y4301
X4246Y4231
X4308Y4228
X4325Y4152
X4246Y4138
X4158Y4137
X4115Y4161
X4053Y4158
X3920Y4166
X3983Y4008
X4114Y4000
X4180Y3875
X4275Y3869
X4276Y3928
X4357Y4000
X4450Y3971
X4515Y3970
X4572Y3962
X4570Y4037
X4510Y4033
X4508Y4163
X4443
Y4228
Y4293
X4444Y4357
X4443Y4423
X4500Y4484
X4537Y4538
X4486Y4565
X4480Y4712
X4483Y4788
X4655Y4851
X4655Y4904
X4808Y4910
X4801Y4739
X4918Y4737
X4979Y4775
X5033Y4775
X5093Y4775
X5146Y4778
X5201Y4797
X5254Y4797
X5288Y4678
X5290Y4618
X5361Y4592
X5396Y4693
X5371Y4392
X5239Y4392
X5160Y4420
X5162Y4357
X5163Y4293
X5158Y4228
X5092Y4226
X5028Y4227
X4964Y4227
X4900Y4227
X4899Y4163
X4833Y4164
X4840Y4216
X4837Y4282
X4898Y4294
X4959Y4293
X5035Y4286
X5086Y4293
Y4422
X5029Y4420
X5027Y4485
X5083Y4484
X5153Y4488
X5223Y4493
X5058Y4560
X4961Y4554
X4959Y4618
X5059Y4669
X4866Y4558
X4808Y4498
Y4374
X4898Y4358
X4894Y4425
X4958Y4423
X5018Y4159
X5193Y4153
X5227Y4203
X5359Y4207
X5360Y4000
X5230Y4002
X5211Y3869
X5160Y3870
X5033Y3869
X4964Y3838
X4963Y3773
X5026Y3772
X5029Y3708
X5088Y3700
X5091Y3775
X5158Y3708
Y3643
Y3578
Y3513
Y3451
X5093Y3513
Y3578
X5030Y3575
X5027Y3512
X5028Y3448
X5063Y3407
X5061Y3278
X4865Y3268
X4864Y3399
X4772Y3448
Y3513
X4722Y3580
X4766Y3641
X4841Y3648
X4833Y3708
X4898Y3708
X4898Y3773
X4839Y3775
X4833Y3838
Y3903
Y3968
X4897Y4030
X4968Y4004
X4771Y4100
X4704Y4097
X4699Y4039
X4654Y4032
X4639Y4097
X4572Y4166
X4525Y4359
X4378Y4358
X4378Y4487
X4313
Y4423
X4251
X4117Y4296
X4015Y4393
X3966Y4422
X3908Y4379
X3955Y3891
X3957Y3803
X4081Y3803
X4183Y3768
X4248Y3773
Y3708
Y3643
Y3578
X4313
X4318Y3525
X4281Y3447
X4379Y3444
X4378Y3382
X4476Y3447
X4442Y3509
X4443Y3579
X4445Y3645
X4441Y3705
X4378Y3643
X4313
Y3773
X4378Y3778
X4443Y3838
X4444Y3901
X4520Y3898
X4638Y3903
X4638Y3837
X4639Y3772
X4671Y3686
X4543Y3638
X4552Y3510
X4682Y3416
X4686Y3313
X4472Y3306
X4437Y3243
X4407Y3203
X4326Y3223
X4218Y3219
X4166Y3189
X4281Y3313
X4182Y3514
X4118Y3515
X4103Y3620
X4057Y3641
X3984Y3606
X3772Y3595
X3829Y3520
X3861Y3315
X3899Y3353
X3977Y3374
X4056Y3388
X3719Y3341
X3719Y3288
X3721Y3236
X3721Y3183
X3728Y3130
X3728Y3077
X3683Y3023
X3727Y2962
Y2905
X3813Y2991
X3861Y2794
X3850Y2639
X3895Y2611
X3975Y2614
X4056Y2607
X4039Y2684
X4283Y2887
X4281Y2968
X4647
X4624Y2862
X4737Y2832
X4688Y2768
X4645Y2619
X4597Y2565
X4521Y2578
X4470Y2616
X4602Y2473
X4559Y2426
X4490Y2350
X4687Y2516
X4359Y1816
X4610Y1537
X4564Y1480
X3872Y1630
X3729Y1653
X3761Y1709
X3645Y1638
X3289
X2842Y1636
X2836Y1698
X2866Y1916
X2896Y2019
X3124Y1994
X3484Y1949
X3482Y2113
X3478Y2177
X3608Y2113
X3680Y2108
X3697Y2158
X3944Y2135
X3627Y2610
X3505Y2627
X3442
X3429Y2778
X3480Y2775
X3223Y2691
X3173Y2575
X3274Y2574
X2694Y2709
X2632Y2717
X2529Y2711
X2375Y2707
X2379Y2884
X2144Y2770
X2049Y2766
X2019Y2962
X1881Y2922
X1931Y3124
X2015Y3170
X2200Y3106
X2215Y3382
X2548Y3362
X2270Y3795
X2041Y4064
X1845Y4371
X1511Y3251
Y2946
X1783Y2582
X1867Y2565
X1880Y2386
X1992Y2350
X2045
X2092Y2550
X2148Y2553
X2248Y2616
X2468Y2556
X2464Y2146
X2689Y2350
X2732Y2806
X2877Y2896
X3457Y3441
X3455Y3522
X3782Y3877
X4518Y3777
X4769Y3771
X4768Y3838
Y3903
X4698Y3956
X4691Y4320
X4671Y4555
X4697Y4677
X4953Y5169
X5207Y5389
X5271
X5334Y5389
X5391Y3808
X5256
X5223Y3643
X5274Y3624
X5285Y3517
X5221Y3515
X5285Y3446
X5288Y3383
X5286Y3317
X5296Y3264
X5348Y3412
X4957Y3515
X4898Y3513
X4957Y3587
X4963Y3643
X2246Y1910
X2135Y1856
X1956Y1652
X2007Y1511
X2098Y1473
X1994Y2146
X1334Y2134
X1274Y2246
X1334Y3454
X1385Y4478
X1410Y5593
X1295Y6566
Y6998
Y7239
X1270Y8924
X1360
X1180
X1090
X1000
X910
X820
X730
X640
X550
X460
X370
X280Y8920
X197Y8886
X135Y8821
X104Y8736
X102Y8646
Y8556
Y8466
Y8376
Y8286
Y8196
X1450Y8924
X1540
X1630
X1720
X1810
X1900
X1987Y8901
X2034Y8824
X2110Y8776
X2199Y8764
X2289Y8764
X2379Y8764
X2469Y8764
X2559Y8764
X2649Y8764
X2739Y8764
X2829Y8764
X2919Y8764
X3009Y8764
X3099Y8764
X3189Y8764
X3279Y8764
X3369Y8764
X3459Y8764
X3549Y8764
X3639Y8764
X3729Y8764
X3819Y8764
X3909Y8764
X3999Y8764
X4089Y8764
X4179Y8764
X4269
X4359
X4449
X4539
X4629
X4719
X4809
X4899
X4989
X5079
X5169
X5259
X5349
X4750Y8611
X4676Y8135
X4543Y8127
X4394Y8064
X4202Y8111
X4140Y8115
X4003Y8211
X3969Y8290
X4276Y8348
X4191Y7899
X4444Y7742
X4534Y7734
X4597
X4733Y7703
X4756Y7642
X4686Y7582
X4623
X4487Y7390
X4381Y7226
X4915Y7163
X5161Y7001
X5224
Y6938
X5161
X5136Y6821
X5182Y6718
Y6668
X5232
Y6718
X5283
X5334
Y6668
Y6617
X5283
X5232
X5182
X5283Y6668
X5216Y6233
X5152
Y6169
X5216
X5287Y6065
X5328Y6032
X5113Y6031
X5051Y6034
X4875Y5617
X4972Y5494
X5042Y5397
X4820Y5430
X4547Y5558
X4547Y5702
X4552Y5764
X4550Y5898
X4417Y5868
X4173Y5798
X4167Y5701
X4179Y5599
X4206Y5978
X3972Y5957
X3576Y5964
X3442Y5918
X3406Y5807
X3569Y5783
X3630Y5735
X3701Y5655
X3741Y5592
X3816Y5510
X3529Y5545
X3505Y5613
Y5674
X3358Y5532
X3358Y5415
X2908Y5655
X2804Y5651
X2716Y5817
X2670Y5947
X2670Y6133
X2769Y6139
X2859Y6136
X2858Y6236
X2969Y6228
X3093Y6083
X3099Y6007
X3086Y5944
X2959Y5956
X2968Y5819
X3058Y5823
X2522Y5812
X2413Y5815
X2318Y5814
X2263Y6033
X2271Y6142
X2223Y6185
X2121Y6210
X2279Y6341
X2258Y6536
X2359Y6540
X2372Y6630
X2472
X2471Y6728
X2571
X2671
X2672Y6630
X2659Y6540
X2672Y6424
X2667Y6350
X2756Y6424
X2859Y6540
X2872Y6630
X2964Y6626
X2966Y6725
X2871Y6728
X2771
X2860Y6835
X2924Y6963
X2721Y6958
X2616Y7366
X2638Y7558
X2752
X2866
X2980Y7558
X3094
X3208
X3322
X3436Y7558
X3550
X3664
X3492Y7404
X3464Y7205
X3569Y7125
X3619
Y7074
X3569
Y7023
X3619
X3670
Y7074
Y7125
X3797Y7257
X3807Y7318
X3874Y7328
X3899Y6878
X3927Y6800
X3861Y6756
X3772Y6655
X3734Y6604
X3670Y6706
X3569Y6668
X3620Y6534
X3607Y6312
Y6261
X3556
Y6312
X3658
Y6261
Y6210
X3607
X3556
X3476Y6122
X3417Y6404
X3378Y6439
X3251Y6350
X3185Y6309
X3058Y6525
X2960Y6528
X2460Y6533
X2371Y6728
X2271
X2070Y6528
X1600Y6502
Y6566
X1614Y6647
X1577Y6756
Y6883
X1676Y7010
X1727Y7523
X2159Y7798
X2527Y7823
X2603Y7950
X2705Y7798
X2819
X2925
X2997Y7772
X3086
X3175Y7785
X3365Y7792
X3473
X3594Y7938
X3308Y8023
X3309Y8087
X3531Y8422
X3426Y7036
Y6985
X3200Y6896
X3899Y6579
X4137Y6763
X4496Y6642
X4750Y6490
X5357Y7319
Y7379
Y7438
Y7497
X5334Y7734
X5147Y7579
X5077Y7895
X5033Y8020
X4973Y8121
X5182Y8118
X4873Y7968
X2524Y7540
X2460Y6210
X2560Y6131
X2554Y6048
X2464Y6020
X1930Y5817
X1715Y5918
X1662Y5922
X1664Y6134
X1715Y6274
X1712Y6329
X1715Y6381
X1977Y5445
X2030Y5440
X5397Y5588
Y5639
Y5690
Y5740
X5461
Y5690
Y5639
Y5588
X5524Y5537
X5807Y5701
X5899Y5697
X6032Y5695
X6161Y5699
X6134Y5906
Y5969
Y6020
Y6071
X5995
Y6020
Y5969
Y5906
X6045Y6299
X6134Y6317
X6208Y6317
X6273Y6321
X6450Y6325
X6503
X6402Y6450
X6400Y6506
Y6564
X6276Y6572
X5982Y6579
X5867Y6593
Y6540
X5724Y6519
Y6461
Y6576
X5690Y6791
Y6842
X5740
X5727Y6924
X5679
X5690Y6998
X5740
X5690Y7049
X5671Y7129
X5724Y7317
Y7375
Y7432
X5925Y7512
X5990Y7508
X6116Y7514
X6173Y7513
X6255Y7520
X6315Y7516
X6388Y7432
Y7375
Y7317
X6235Y7242
X6077Y7320
X5926Y7281
X5856Y7269
X5937Y7040
Y6920
Y6800
X6057
X6057Y6920
X6177Y6920
Y7040
X6057
X6374Y6998
X6425
Y7049
X6483Y7124
X6435Y6924
X6388
X6374Y6842
X6425
X6423Y6791
X6532Y6724
X6794Y6731
Y6680
Y6629
X6845
X6896
X6947
Y6680
Y6731
X6896
Y6680
X6845
Y6731
X6790Y6987
X6883Y7019
X6887Y7248
X7023Y7258
Y7207
Y7157
Y7309
X6756Y7319
Y7379
Y7438
Y7497
X6769Y7671
X6548Y7673
X6617Y7875
X6756Y7950
X6873Y7971
X6871Y8268
X6579Y8318
X6591Y8093
X6566Y8039
X6332Y8079
X6131Y8099
X6122Y7912
X6111Y7834
X5952Y7800
X5893Y7665
X5696Y7686
X5571Y7693
X5448Y7665
X5673Y7951
X5982Y8280
X5979Y8764
X5889
X5799
X5709
X5619
X5529
X5439
X6069
X6159
X6249
X6339
X6429
X6519
X6609
X6699
X6789
X6879
X6969
X7059Y8764
X7149Y8767
X7233Y8799
X7294Y8865
X7363Y8924
X7453
X7543
X7633
X7723
X7813
X7903
X7993
X8082
X8172
X8262
X8352
X8442
X8532
X8622
X8712
X8802
X8892
X8982Y8924
X9093Y8892
X9159Y8831
X9194Y8748
X9198Y8658
Y8568
Y8478
Y8388
Y8298
Y8208
Y8118
Y8028
Y7938
Y7848
X9166Y7764
X9092Y7713
X9048Y7635
X9038Y7545
Y7455
Y7365
Y7275
Y7185
Y7095
Y7005
Y6915
Y6825
Y6735
Y6645
Y6555
Y6465
Y6375
X9038Y6285
Y6195
Y6105
Y6015
Y5925
Y5835
Y5745
Y5655
Y5565
Y5475
X8459Y5511
X8458Y5423
X7931Y5511
Y5570
X7931Y5629
Y5688
X7861Y5791
X7925Y6045
Y6109
Y6172
Y6236
X7849
X7772
X8001
Y6172
Y6109
Y6045
X8164Y6096
X8217
X8315Y6098
X8368Y6099
X8383Y6308
X8293Y6312
X8294Y6457
X8383Y6458
X8611Y6659
Y6734
Y6809
Y6883
X8685
Y6809
Y6734
Y6659
Y6958
X8611
X8001Y6972
X7988Y6833
Y6744
Y6655
X7887Y6579
X7761Y6490
X7709
X7555Y6583
X7316Y6583
X7314Y6828
X7557Y6830
X7531Y6947
X7437Y6951
X7163Y6972
X7180Y7053
X7114Y7072
X7136Y7557
X7188
X7252Y7582
X7306Y7652
X7359Y7652
X7366Y7836
Y7912
Y7976
Y8039
X7252Y8395
X7175Y8331
X7480Y8420
X7607Y8357
X7760Y7950
X7636Y7741
X7582Y7743
X7880Y7707
X7906Y7582
X7651Y7417
X7540
X7596Y7355
X7861Y7188
X7849Y7125
X8101Y7076
X8077Y7214
X8119Y5933
X7406Y5914
X7276
Y6044
Y6174
Y6304
X7406
Y6174
Y6044
X7429Y5524
X7455Y5478
X7252Y5563
X6897Y5569
X6765Y5589
X6718Y5588
Y5639
X6765
X6768Y5690
X6718Y5690
Y5740
X6668
X6617
Y5690
X6668
Y5639
X6617
Y5588
X6668
X6483Y5576
X6591Y5461
X6769Y5740
X6960Y5790
X7036Y6464
X7109Y6474
X6177Y6800
X5591Y6717
X5631Y6325
X5684
X5634Y6221
X5873Y6325
X5936Y6292
X6185Y7658
T02
X2337Y8139
T03
X357Y1388
X611
X865
X1119
Y1642
X865
Y1896
X1119
Y2150
Y2404
Y2658
Y2912
X865
Y3166
X1119
Y3420
X865
Y3674
X1119
Y3928
Y4182
Y4436
Y4690
X865
Y4436
Y4182
Y3928
X611
X357
Y3674
X611
Y3420
X357
Y3166
Y2912
Y2658
Y2404
X611
X865
Y2150
X611
X357
Y1896
X611
Y1642
X357
X611Y2658
X865
X611Y2912
Y3166
Y4182
Y4436
Y4690
Y4944
Y5198
X357
Y4944
Y4690
Y4436
Y4182
X865Y4944
X1119
Y5198
X865
Y5452
X1119
Y5706
Y5960
Y6214
Y6468
Y6722
X865
Y6976
X1119
Y7230
X865
X611
X357
Y7484
Y7738
X611
X865
Y7484
X1119
Y7738
X611Y7484
Y6976
Y6722
X357
Y6468
X611
X865
Y6214
Y5960
Y5706
X611
X357
Y5960
Y6214
X611
Y5960
Y5452
X357
Y6976
T04
X8255Y7442
Y7696
T05
X357Y880
X8930Y500
X357Y8246
X8930Y8500
T06
X1672Y460
X7572
Y3860
X8164Y4841
X1690
X1672Y3860
X1690Y8267
X8164
T07
X1661Y5821
Y7421
T08
X1942Y1110
Y2010
M30
