G04*
G04 #@! TF.GenerationSoftware,Altium Limited,Altium Designer,24.1.2 (44)*
G04*
G04 Layer_Color=128*
%FSLAX44Y44*%
%MOMM*%
G71*
G04*
G04 #@! TF.SameCoordinates,27C4CC1B-1F39-4CC3-9493-EFA3B80F4B77*
G04*
G04*
G04 #@! TF.FilePolarity,Positive*
G04*
G01*
G75*
%ADD14C,0.1270*%
D14*
X689190Y527050D02*
X700190D01*
X694690Y521550D02*
Y532550D01*
X689190Y501650D02*
X700190D01*
X694690Y496150D02*
Y507150D01*
X689190Y476250D02*
X700190D01*
X694690Y470750D02*
Y481750D01*
X689190Y400050D02*
X700190D01*
X694690Y394550D02*
Y405550D01*
X689190Y425450D02*
X700190D01*
X694690Y419950D02*
Y430950D01*
X689190Y450850D02*
X700190D01*
X694690Y445350D02*
Y456350D01*
X689190Y374650D02*
X700190D01*
X694690Y369150D02*
Y380150D01*
X689190Y349250D02*
X700190D01*
X694690Y343750D02*
Y354750D01*
X776794Y298450D02*
X778794D01*
X777794Y297450D02*
Y299450D01*
X737794Y298450D02*
X739794D01*
X738794Y297450D02*
Y299450D01*
X737794Y285450D02*
X739794D01*
X738794Y284450D02*
Y286450D01*
X750794Y298450D02*
X752794D01*
X751794Y297450D02*
Y299450D01*
X750794Y285450D02*
X752794D01*
X751794Y284450D02*
Y286450D01*
X776794Y285450D02*
X778794D01*
X777794Y284450D02*
Y286450D01*
X763794Y298450D02*
X765794D01*
X764794Y297450D02*
Y299450D01*
X763794Y285450D02*
X765794D01*
X764794Y284450D02*
Y286450D01*
X162350Y582100D02*
X169950D01*
X166150Y578300D02*
Y585900D01*
X162350Y742100D02*
X169950D01*
X166150Y738300D02*
Y745900D01*
X56600Y291200D02*
X65600D01*
X61100Y286700D02*
Y295700D01*
X56600Y316600D02*
X65600D01*
X61100Y312100D02*
Y321100D01*
X31200Y316600D02*
X40200D01*
X35700Y312100D02*
Y321100D01*
X56600Y342000D02*
X65600D01*
X61100Y337500D02*
Y346500D01*
X31200Y342000D02*
X40200D01*
X35700Y337500D02*
Y346500D01*
X56600Y367400D02*
X65600D01*
X61100Y362900D02*
Y371900D01*
X31200Y367400D02*
X40200D01*
X35700Y362900D02*
Y371900D01*
X56600Y392800D02*
X65600D01*
X61100Y388300D02*
Y397300D01*
X31200Y392800D02*
X40200D01*
X35700Y388300D02*
Y397300D01*
X56600Y494400D02*
X65600D01*
X61100Y489900D02*
Y498900D01*
X31200Y494400D02*
X40200D01*
X35700Y489900D02*
Y498900D01*
X56600Y519800D02*
X65600D01*
X61100Y515300D02*
Y524300D01*
X31200Y519800D02*
X40200D01*
X35700Y515300D02*
Y524300D01*
X56600Y545200D02*
X65600D01*
X61100Y540700D02*
Y549700D01*
X31200Y545200D02*
X40200D01*
X35700Y540700D02*
Y549700D01*
X56600Y570600D02*
X65600D01*
X61100Y566100D02*
Y575100D01*
X56600Y596000D02*
X65600D01*
X61100Y591500D02*
Y600500D01*
X31200Y596000D02*
X40200D01*
X35700Y591500D02*
Y600500D01*
X31200Y570600D02*
X40200D01*
X35700Y566100D02*
Y575100D01*
X31200Y621400D02*
X40200D01*
X35700Y616900D02*
Y625900D01*
X56600Y621400D02*
X65600D01*
X61100Y616900D02*
Y625900D01*
X56600Y646800D02*
X65600D01*
X61100Y642300D02*
Y651300D01*
X31200Y646800D02*
X40200D01*
X35700Y642300D02*
Y651300D01*
X56600Y672200D02*
X65600D01*
X61100Y667700D02*
Y676700D01*
X31200Y672200D02*
X40200D01*
X35700Y667700D02*
Y676700D01*
X56600Y723000D02*
X65600D01*
X61100Y718500D02*
Y727500D01*
X31200Y723000D02*
X40200D01*
X35700Y718500D02*
Y727500D01*
X56600Y748400D02*
X65600D01*
X61100Y743900D02*
Y752900D01*
X31200Y748400D02*
X40200D01*
X35700Y743900D02*
Y752900D01*
X56600Y773800D02*
X65600D01*
X61100Y769300D02*
Y778300D01*
X31200Y773800D02*
X40200D01*
X35700Y769300D02*
Y778300D01*
X56600Y138800D02*
X65600D01*
X61100Y134300D02*
Y143300D01*
X31200Y138800D02*
X40200D01*
X35700Y134300D02*
Y143300D01*
X56600Y164200D02*
X65600D01*
X61100Y159700D02*
Y168700D01*
X31200Y164200D02*
X40200D01*
X35700Y159700D02*
Y168700D01*
X56600Y189600D02*
X65600D01*
X61100Y185100D02*
Y194100D01*
X31200Y189600D02*
X40200D01*
X35700Y185100D02*
Y194100D01*
X56600Y215000D02*
X65600D01*
X61100Y210500D02*
Y219500D01*
X31200Y215000D02*
X40200D01*
X35700Y210500D02*
Y219500D01*
X56600Y240400D02*
X65600D01*
X61100Y235900D02*
Y244900D01*
X56600Y265800D02*
X65600D01*
X61100Y261300D02*
Y270300D01*
X31200Y265800D02*
X40200D01*
X35700Y261300D02*
Y270300D01*
X31200Y291200D02*
X40200D01*
X35700Y286700D02*
Y295700D01*
X31200Y240400D02*
X40200D01*
X35700Y235900D02*
Y244900D01*
X56600Y469000D02*
X65600D01*
X61100Y464500D02*
Y473500D01*
X31200Y469000D02*
X40200D01*
X35700Y464500D02*
Y473500D01*
X56600Y443600D02*
X65600D01*
X61100Y439100D02*
Y448100D01*
X31200Y443600D02*
X40200D01*
X35700Y439100D02*
Y448100D01*
X31200Y697600D02*
X40200D01*
X35700Y693100D02*
Y702100D01*
X56600Y697600D02*
X65600D01*
X61100Y693100D02*
Y702100D01*
X31200Y418200D02*
X40200D01*
X35700Y413700D02*
Y422700D01*
X56600Y418200D02*
X65600D01*
X61100Y413700D02*
Y422700D01*
X82000Y316600D02*
X91000D01*
X86500Y312100D02*
Y321100D01*
X107400Y342000D02*
X116400D01*
X111900Y337500D02*
Y346500D01*
X82000Y342000D02*
X91000D01*
X86500Y337500D02*
Y346500D01*
X107400Y367400D02*
X116400D01*
X111900Y362900D02*
Y371900D01*
X82000Y367400D02*
X91000D01*
X86500Y362900D02*
Y371900D01*
X82000Y392800D02*
X91000D01*
X86500Y388300D02*
Y397300D01*
X82000Y443600D02*
X91000D01*
X86500Y439100D02*
Y448100D01*
X82000Y418200D02*
X91000D01*
X86500Y413700D02*
Y422700D01*
X82000Y469000D02*
X91000D01*
X86500Y464500D02*
Y473500D01*
X107400Y494400D02*
X116400D01*
X111900Y489900D02*
Y498900D01*
X82000Y494400D02*
X91000D01*
X86500Y489900D02*
Y498900D01*
X107400Y519800D02*
X116400D01*
X111900Y515300D02*
Y524300D01*
X82000Y519800D02*
X91000D01*
X86500Y515300D02*
Y524300D01*
X107400Y545200D02*
X116400D01*
X111900Y540700D02*
Y549700D01*
X82000Y545200D02*
X91000D01*
X86500Y540700D02*
Y549700D01*
X107400Y570600D02*
X116400D01*
X111900Y566100D02*
Y575100D01*
X82000Y570600D02*
X91000D01*
X86500Y566100D02*
Y575100D01*
X82000Y621400D02*
X91000D01*
X86500Y616900D02*
Y625900D01*
X107400Y646800D02*
X116400D01*
X111900Y642300D02*
Y651300D01*
X82000Y646800D02*
X91000D01*
X86500Y642300D02*
Y651300D01*
X107400Y723000D02*
X116400D01*
X111900Y718500D02*
Y727500D01*
X82000Y723000D02*
X91000D01*
X86500Y718500D02*
Y727500D01*
X107400Y748400D02*
X116400D01*
X111900Y743900D02*
Y752900D01*
X82000Y748400D02*
X91000D01*
X86500Y743900D02*
Y752900D01*
X107400Y773800D02*
X116400D01*
X111900Y769300D02*
Y778300D01*
X82000Y773800D02*
X91000D01*
X86500Y769300D02*
Y778300D01*
X82000Y138800D02*
X91000D01*
X86500Y134300D02*
Y143300D01*
X82000Y164200D02*
X91000D01*
X86500Y159700D02*
Y168700D01*
X107400Y189600D02*
X116400D01*
X111900Y185100D02*
Y194100D01*
X107400Y215000D02*
X116400D01*
X111900Y210500D02*
Y219500D01*
X82000Y215000D02*
X91000D01*
X86500Y210500D02*
Y219500D01*
X82000Y265800D02*
X91000D01*
X86500Y261300D02*
Y270300D01*
X82000Y240400D02*
X91000D01*
X86500Y235900D02*
Y244900D01*
X107400Y164200D02*
X116400D01*
X111900Y159700D02*
Y168700D01*
X107400Y138800D02*
X116400D01*
X111900Y134300D02*
Y143300D01*
X107400Y418200D02*
X116400D01*
X111900Y413700D02*
Y422700D01*
X107400Y392800D02*
X116400D01*
X111900Y388300D02*
Y397300D01*
X107400Y469000D02*
X116400D01*
X111900Y464500D02*
Y473500D01*
X107400Y443600D02*
X116400D01*
X111900Y439100D02*
Y448100D01*
X82000Y189600D02*
X91000D01*
X86500Y185100D02*
Y194100D01*
X107400Y240400D02*
X116400D01*
X111900Y235900D02*
Y244900D01*
X107400Y265800D02*
X116400D01*
X111900Y261300D02*
Y270300D01*
X107400Y291200D02*
X116400D01*
X111900Y286700D02*
Y295700D01*
X107400Y316600D02*
X116400D01*
X111900Y312100D02*
Y321100D01*
X107400Y596000D02*
X116400D01*
X111900Y591500D02*
Y600500D01*
X82000Y596000D02*
X91000D01*
X86500Y591500D02*
Y600500D01*
X107400Y621400D02*
X116400D01*
X111900Y616900D02*
Y625900D01*
X107400Y672200D02*
X116400D01*
X111900Y667700D02*
Y676700D01*
X82000Y672200D02*
X91000D01*
X86500Y667700D02*
Y676700D01*
X82000Y291200D02*
X91000D01*
X86500Y286700D02*
Y295700D01*
X107400Y697600D02*
X116400D01*
X111900Y693100D02*
Y702100D01*
X82000Y697600D02*
X91000D01*
X86500Y693100D02*
Y702100D01*
X188250Y111000D02*
X200150D01*
X194200Y105050D02*
Y116950D01*
X188250Y201000D02*
X200150D01*
X194200Y195050D02*
Y206950D01*
X145200Y46000D02*
X189200D01*
X167200Y24000D02*
Y68000D01*
X735200Y46000D02*
X779200D01*
X757200Y24000D02*
Y68000D01*
X735200Y386000D02*
X779200D01*
X757200Y364000D02*
Y408000D01*
X145200Y386000D02*
X189200D01*
X167200Y364000D02*
Y408000D01*
X794400Y484100D02*
X838400D01*
X816400Y462100D02*
Y506100D01*
X147000Y826700D02*
X191000D01*
X169000Y804700D02*
Y848700D01*
X147000Y484100D02*
X191000D01*
X169000Y462100D02*
Y506100D01*
X794400Y826700D02*
X838400D01*
X816400Y804700D02*
Y848700D01*
X19800Y88000D02*
X51600D01*
X35700Y72100D02*
Y103900D01*
X19800Y824600D02*
X51600D01*
X35700Y808700D02*
Y840500D01*
X877100Y850000D02*
X908900D01*
X893000Y834100D02*
Y865900D01*
X877100Y50000D02*
X908900D01*
X893000Y34100D02*
Y65900D01*
X820040Y769620D02*
X831040D01*
X825540Y764120D02*
Y775120D01*
X820040Y744220D02*
X831040D01*
X825540Y738720D02*
Y749720D01*
X907500Y796000D02*
X909500D01*
X908500Y795000D02*
Y797000D01*
X895000Y771000D02*
X897000D01*
X896000Y770000D02*
Y772000D01*
X895000Y671000D02*
X897000D01*
X896000Y670000D02*
Y672000D01*
X895000Y621000D02*
X897000D01*
X896000Y620000D02*
Y622000D01*
X895000Y571000D02*
X897000D01*
X896000Y570000D02*
Y572000D01*
X895000Y521000D02*
X897000D01*
X896000Y520000D02*
Y522000D01*
X895000Y471000D02*
X897000D01*
X896000Y470000D02*
Y472000D01*
X895000Y421000D02*
X897000D01*
X896000Y420000D02*
Y422000D01*
X895000Y371000D02*
X897000D01*
X896000Y370000D02*
Y372000D01*
X895000Y271000D02*
X897000D01*
X896000Y270000D02*
Y272000D01*
X895000Y221000D02*
X897000D01*
X896000Y220000D02*
Y222000D01*
X895000Y121000D02*
X897000D01*
X896000Y120000D02*
Y122000D01*
X907500Y96000D02*
X909500D01*
X908500Y95000D02*
Y97000D01*
X870000Y821000D02*
X872000D01*
X871000Y820000D02*
Y822000D01*
X882500Y796000D02*
X884500D01*
X883500Y795000D02*
Y797000D01*
X870000Y771000D02*
X872000D01*
X871000Y770000D02*
Y772000D01*
X882500Y746000D02*
X884500D01*
X883500Y745000D02*
Y747000D01*
X870000Y721000D02*
X872000D01*
X871000Y720000D02*
Y722000D01*
X882500Y696000D02*
X884500D01*
X883500Y695000D02*
Y697000D01*
X882500Y646000D02*
X884500D01*
X883500Y645000D02*
Y647000D01*
X882500Y596000D02*
X884500D01*
X883500Y595000D02*
Y597000D01*
X882500Y546000D02*
X884500D01*
X883500Y545000D02*
Y547000D01*
X882500Y496000D02*
X884500D01*
X883500Y495000D02*
Y497000D01*
X882500Y446000D02*
X884500D01*
X883500Y445000D02*
Y447000D01*
X882500Y396000D02*
X884500D01*
X883500Y395000D02*
Y397000D01*
X882500Y346000D02*
X884500D01*
X883500Y345000D02*
Y347000D01*
X882500Y296000D02*
X884500D01*
X883500Y295000D02*
Y297000D01*
X882500Y246000D02*
X884500D01*
X883500Y245000D02*
Y247000D01*
X870000Y171000D02*
X872000D01*
X871000Y170000D02*
Y172000D01*
X882500Y96000D02*
X884500D01*
X883500Y95000D02*
Y97000D01*
X870000Y21000D02*
X872000D01*
X871000Y20000D02*
Y22000D01*
X845000Y871000D02*
X847000D01*
X846000Y870000D02*
Y872000D01*
X857500Y846000D02*
X859500D01*
X858500Y845000D02*
Y847000D01*
X857500Y796000D02*
X859500D01*
X858500Y795000D02*
Y797000D01*
X845000Y771000D02*
X847000D01*
X846000Y770000D02*
Y772000D01*
X857500Y746000D02*
X859500D01*
X858500Y745000D02*
Y747000D01*
X845000Y721000D02*
X847000D01*
X846000Y720000D02*
Y722000D01*
X845000Y521000D02*
X847000D01*
X846000Y520000D02*
Y522000D01*
X845000Y321000D02*
X847000D01*
X846000Y320000D02*
Y322000D01*
X845000Y171000D02*
X847000D01*
X846000Y170000D02*
Y172000D01*
X857500Y146000D02*
X859500D01*
X858500Y145000D02*
Y147000D01*
X845000Y121000D02*
X847000D01*
X846000Y120000D02*
Y122000D01*
X845000Y71000D02*
X847000D01*
X846000Y70000D02*
Y72000D01*
X857500Y46000D02*
X859500D01*
X858500Y45000D02*
Y47000D01*
X845000Y21000D02*
X847000D01*
X846000Y20000D02*
Y22000D01*
X820000Y871000D02*
X822000D01*
X821000Y870000D02*
Y872000D01*
X832500Y446000D02*
X834500D01*
X833500Y445000D02*
Y447000D01*
X832500Y396000D02*
X834500D01*
X833500Y395000D02*
Y397000D01*
X832500Y346000D02*
X834500D01*
X833500Y345000D02*
Y347000D01*
X820000Y321000D02*
X822000D01*
X821000Y320000D02*
Y322000D01*
X832500Y196000D02*
X834500D01*
X833500Y195000D02*
Y197000D01*
X832500Y146000D02*
X834500D01*
X833500Y145000D02*
Y147000D01*
X820000Y71000D02*
X822000D01*
X821000Y70000D02*
Y72000D01*
X832500Y46000D02*
X834500D01*
X833500Y45000D02*
Y47000D01*
X820000Y21000D02*
X822000D01*
X821000Y20000D02*
Y22000D01*
X795000Y871000D02*
X797000D01*
X796000Y870000D02*
Y872000D01*
X807500Y696000D02*
X809500D01*
X808500Y695000D02*
Y697000D01*
X795000Y321000D02*
X797000D01*
X796000Y320000D02*
Y322000D01*
X807500Y296000D02*
X809500D01*
X808500Y295000D02*
Y297000D01*
X807500Y196000D02*
X809500D01*
X808500Y195000D02*
Y197000D01*
X795000Y171000D02*
X797000D01*
X796000Y170000D02*
Y172000D01*
X807500Y146000D02*
X809500D01*
X808500Y145000D02*
Y147000D01*
X795000Y71000D02*
X797000D01*
X796000Y70000D02*
Y72000D01*
X807500Y46000D02*
X809500D01*
X808500Y45000D02*
Y47000D01*
X795000Y21000D02*
X797000D01*
X796000Y20000D02*
Y22000D01*
X770000Y871000D02*
X772000D01*
X771000Y870000D02*
Y872000D01*
X770000Y821000D02*
X772000D01*
X771000Y820000D02*
Y822000D01*
X770000Y271000D02*
X772000D01*
X771000Y270000D02*
Y272000D01*
X745000Y871000D02*
X747000D01*
X746000Y870000D02*
Y872000D01*
X757500Y846000D02*
X759500D01*
X758500Y845000D02*
Y847000D01*
X745000Y821000D02*
X747000D01*
X746000Y820000D02*
Y822000D01*
X720000Y871000D02*
X722000D01*
X721000Y870000D02*
Y872000D01*
X732500Y846000D02*
X734500D01*
X733500Y845000D02*
Y847000D01*
X720000Y821000D02*
X722000D01*
X721000Y820000D02*
Y822000D01*
X720000Y571000D02*
X722000D01*
X721000Y570000D02*
Y572000D01*
X732500Y496000D02*
X734500D01*
X733500Y495000D02*
Y497000D01*
X732500Y446000D02*
X734500D01*
X733500Y445000D02*
Y447000D01*
X732500Y346000D02*
X734500D01*
X733500Y345000D02*
Y347000D01*
X707500Y846000D02*
X709500D01*
X708500Y845000D02*
Y847000D01*
X695000Y821000D02*
X697000D01*
X696000Y820000D02*
Y822000D01*
X707500Y796000D02*
X709500D01*
X708500Y795000D02*
Y797000D01*
X707500Y746000D02*
X709500D01*
X708500Y745000D02*
Y747000D01*
X707500Y596000D02*
X709500D01*
X708500Y595000D02*
Y597000D01*
X695000Y321000D02*
X697000D01*
X696000Y320000D02*
Y322000D01*
X695000Y271000D02*
X697000D01*
X696000Y270000D02*
Y272000D01*
X707500Y246000D02*
X709500D01*
X708500Y245000D02*
Y247000D01*
X695000Y221000D02*
X697000D01*
X696000Y220000D02*
Y222000D01*
X695000Y171000D02*
X697000D01*
X696000Y170000D02*
Y172000D01*
X707500Y46000D02*
X709500D01*
X708500Y45000D02*
Y47000D01*
X682500Y846000D02*
X684500D01*
X683500Y845000D02*
Y847000D01*
X682500Y596000D02*
X684500D01*
X683500Y595000D02*
Y597000D01*
X682500Y396000D02*
X684500D01*
X683500Y395000D02*
Y397000D01*
X682500Y346000D02*
X684500D01*
X683500Y345000D02*
Y347000D01*
X682500Y296000D02*
X684500D01*
X683500Y295000D02*
Y297000D01*
X682500Y196000D02*
X684500D01*
X683500Y195000D02*
Y197000D01*
X670000Y171000D02*
X672000D01*
X671000Y170000D02*
Y172000D01*
X682500Y146000D02*
X684500D01*
X683500Y145000D02*
Y147000D01*
X645000Y471000D02*
X647000D01*
X646000Y470000D02*
Y472000D01*
X657500Y96000D02*
X659500D01*
X658500Y95000D02*
Y97000D01*
X632500Y96000D02*
X634500D01*
X633500Y95000D02*
Y97000D01*
X570000Y621000D02*
X572000D01*
X571000Y620000D02*
Y622000D01*
X557500Y846000D02*
X559500D01*
X558500Y845000D02*
Y847000D01*
X545000Y821000D02*
X547000D01*
X546000Y820000D02*
Y822000D01*
X545000Y121000D02*
X547000D01*
X546000Y120000D02*
Y122000D01*
X532500Y846000D02*
X534500D01*
X533500Y845000D02*
Y847000D01*
X520000Y721000D02*
X522000D01*
X521000Y720000D02*
Y722000D01*
X520000Y121000D02*
X522000D01*
X521000Y120000D02*
Y122000D01*
X507500Y846000D02*
X509500D01*
X508500Y845000D02*
Y847000D01*
X507500Y796000D02*
X509500D01*
X508500Y795000D02*
Y797000D01*
X495000Y121000D02*
X497000D01*
X496000Y120000D02*
Y122000D01*
X482500Y796000D02*
X484500D01*
X483500Y795000D02*
Y797000D01*
X482500Y746000D02*
X484500D01*
X483500Y745000D02*
Y747000D01*
X470000Y121000D02*
X472000D01*
X471000Y120000D02*
Y122000D01*
X457500Y846000D02*
X459500D01*
X458500Y845000D02*
Y847000D01*
X445000Y121000D02*
X447000D01*
X446000Y120000D02*
Y122000D01*
X420000Y121000D02*
X422000D01*
X421000Y120000D02*
Y122000D01*
X432500Y96000D02*
X434500D01*
X433500Y95000D02*
Y97000D01*
X395000Y771000D02*
X397000D01*
X396000Y770000D02*
Y772000D01*
X395000Y221000D02*
X397000D01*
X396000Y220000D02*
Y222000D01*
X395000Y171000D02*
X397000D01*
X396000Y170000D02*
Y172000D01*
X395000Y121000D02*
X397000D01*
X396000Y120000D02*
Y122000D01*
X407500Y96000D02*
X409500D01*
X408500Y95000D02*
Y97000D01*
X407500Y46000D02*
X409500D01*
X408500Y45000D02*
Y47000D01*
X382500Y846000D02*
X384500D01*
X383500Y845000D02*
Y847000D01*
X370000Y721000D02*
X372000D01*
X371000Y720000D02*
Y722000D01*
X382500Y696000D02*
X384500D01*
X383500Y695000D02*
Y697000D01*
X382500Y646000D02*
X384500D01*
X383500Y645000D02*
Y647000D01*
X382500Y196000D02*
X384500D01*
X383500Y195000D02*
Y197000D01*
X382500Y46000D02*
X384500D01*
X383500Y45000D02*
Y47000D01*
X357500Y846000D02*
X359500D01*
X358500Y845000D02*
Y847000D01*
X345000Y721000D02*
X347000D01*
X346000Y720000D02*
Y722000D01*
X345000Y621000D02*
X347000D01*
X346000Y620000D02*
Y622000D01*
X345000Y121000D02*
X347000D01*
X346000Y120000D02*
Y122000D01*
X357500Y96000D02*
X359500D01*
X358500Y95000D02*
Y97000D01*
X320000Y721000D02*
X322000D01*
X321000Y720000D02*
Y722000D01*
X320000Y571000D02*
X322000D01*
X321000Y570000D02*
Y572000D01*
X320000Y421000D02*
X322000D01*
X321000Y420000D02*
Y422000D01*
X320000Y371000D02*
X322000D01*
X321000Y370000D02*
Y372000D01*
X307500Y846000D02*
X309500D01*
X308500Y845000D02*
Y847000D01*
X295000Y721000D02*
X297000D01*
X296000Y720000D02*
Y722000D01*
X307500Y546000D02*
X309500D01*
X308500Y545000D02*
Y547000D01*
X295000Y371000D02*
X297000D01*
X296000Y370000D02*
Y372000D01*
X295000Y271000D02*
X297000D01*
X296000Y270000D02*
Y272000D01*
X295000Y171000D02*
X297000D01*
X296000Y170000D02*
Y172000D01*
X295000Y121000D02*
X297000D01*
X296000Y120000D02*
Y122000D01*
X282500Y846000D02*
X284500D01*
X283500Y845000D02*
Y847000D01*
X270000Y721000D02*
X272000D01*
X271000Y720000D02*
Y722000D01*
X282500Y596000D02*
X284500D01*
X283500Y595000D02*
Y597000D01*
X270000Y571000D02*
X272000D01*
X271000Y570000D02*
Y572000D01*
X282500Y446000D02*
X284500D01*
X283500Y445000D02*
Y447000D01*
X270000Y321000D02*
X272000D01*
X271000Y320000D02*
Y322000D01*
X270000Y121000D02*
X272000D01*
X271000Y120000D02*
Y122000D01*
X257500Y846000D02*
X259500D01*
X258500Y845000D02*
Y847000D01*
X245000Y721000D02*
X247000D01*
X246000Y720000D02*
Y722000D01*
X232500Y846000D02*
X234500D01*
X233500Y845000D02*
Y847000D01*
X220000Y771000D02*
X222000D01*
X221000Y770000D02*
Y772000D01*
X220000Y721000D02*
X222000D01*
X221000Y720000D02*
Y722000D01*
X220000Y671000D02*
X222000D01*
X221000Y670000D02*
Y672000D01*
X232500Y596000D02*
X234500D01*
X233500Y595000D02*
Y597000D01*
X232500Y546000D02*
X234500D01*
X233500Y545000D02*
Y547000D01*
X232500Y446000D02*
X234500D01*
X233500Y445000D02*
Y447000D01*
X232500Y46000D02*
X234500D01*
X233500Y45000D02*
Y47000D01*
X195000Y871000D02*
X197000D01*
X196000Y870000D02*
Y872000D01*
X207500Y846000D02*
X209500D01*
X208500Y845000D02*
Y847000D01*
X195000Y721000D02*
X197000D01*
X196000Y720000D02*
Y722000D01*
X207500Y646000D02*
X209500D01*
X208500Y645000D02*
Y647000D01*
X195000Y421000D02*
X197000D01*
X196000Y420000D02*
Y422000D01*
X195000Y121000D02*
X197000D01*
X196000Y120000D02*
Y122000D01*
X207500Y46000D02*
X209500D01*
X208500Y45000D02*
Y47000D01*
X170000Y871000D02*
X172000D01*
X171000Y870000D02*
Y872000D01*
X170000Y721000D02*
X172000D01*
X171000Y720000D02*
Y722000D01*
X170000Y671000D02*
X172000D01*
X171000Y670000D02*
Y672000D01*
X182500Y546000D02*
X184500D01*
X183500Y545000D02*
Y547000D01*
X182500Y446000D02*
X184500D01*
X183500Y445000D02*
Y447000D01*
X182500Y346000D02*
X184500D01*
X183500Y345000D02*
Y347000D01*
X170000Y121000D02*
X172000D01*
X171000Y120000D02*
Y122000D01*
X145000Y871000D02*
X147000D01*
X146000Y870000D02*
Y872000D01*
X145000Y771000D02*
X147000D01*
X146000Y770000D02*
Y772000D01*
X145000Y721000D02*
X147000D01*
X146000Y720000D02*
Y722000D01*
X157500Y696000D02*
X159500D01*
X158500Y695000D02*
Y697000D01*
X157500Y546000D02*
X159500D01*
X158500Y545000D02*
Y547000D01*
X145000Y521000D02*
X147000D01*
X146000Y520000D02*
Y522000D01*
X145000Y421000D02*
X147000D01*
X146000Y420000D02*
Y422000D01*
X157500Y346000D02*
X159500D01*
X158500Y345000D02*
Y347000D01*
X157500Y196000D02*
X159500D01*
X158500Y195000D02*
Y197000D01*
X157500Y146000D02*
X159500D01*
X158500Y145000D02*
Y147000D01*
X120000Y871000D02*
X122000D01*
X121000Y870000D02*
Y872000D01*
X132500Y846000D02*
X134500D01*
X133500Y845000D02*
Y847000D01*
X120000Y821000D02*
X122000D01*
X121000Y820000D02*
Y822000D01*
X132500Y796000D02*
X134500D01*
X133500Y795000D02*
Y797000D01*
X132500Y446000D02*
X134500D01*
X133500Y445000D02*
Y447000D01*
X132500Y346000D02*
X134500D01*
X133500Y345000D02*
Y347000D01*
X132500Y246000D02*
X134500D01*
X133500Y245000D02*
Y247000D01*
X132500Y146000D02*
X134500D01*
X133500Y145000D02*
Y147000D01*
X120000Y121000D02*
X122000D01*
X121000Y120000D02*
Y122000D01*
X120000Y71000D02*
X122000D01*
X121000Y70000D02*
Y72000D01*
X120000Y21000D02*
X122000D01*
X121000Y20000D02*
Y22000D01*
X95000Y871000D02*
X97000D01*
X96000Y870000D02*
Y872000D01*
X107500Y846000D02*
X109500D01*
X108500Y845000D02*
Y847000D01*
X95000Y821000D02*
X97000D01*
X96000Y820000D02*
Y822000D01*
X107500Y796000D02*
X109500D01*
X108500Y795000D02*
Y797000D01*
X95000Y221000D02*
X97000D01*
X96000Y220000D02*
Y222000D01*
X95000Y171000D02*
X97000D01*
X96000Y170000D02*
Y172000D01*
X95000Y121000D02*
X97000D01*
X96000Y120000D02*
Y122000D01*
X107500Y96000D02*
X109500D01*
X108500Y95000D02*
Y97000D01*
X95000Y71000D02*
X97000D01*
X96000Y70000D02*
Y72000D01*
X107500Y46000D02*
X109500D01*
X108500Y45000D02*
Y47000D01*
X95000Y21000D02*
X97000D01*
X96000Y20000D02*
Y22000D01*
X70000Y871000D02*
X72000D01*
X71000Y870000D02*
Y872000D01*
X82500Y846000D02*
X84500D01*
X83500Y845000D02*
Y847000D01*
X70000Y821000D02*
X72000D01*
X71000Y820000D02*
Y822000D01*
X82500Y796000D02*
X84500D01*
X83500Y795000D02*
Y797000D01*
X70000Y271000D02*
X72000D01*
X71000Y270000D02*
Y272000D01*
X70000Y221000D02*
X72000D01*
X71000Y220000D02*
Y222000D01*
X70000Y171000D02*
X72000D01*
X71000Y170000D02*
Y172000D01*
X70000Y121000D02*
X72000D01*
X71000Y120000D02*
Y122000D01*
X82500Y96000D02*
X84500D01*
X83500Y95000D02*
Y97000D01*
X70000Y71000D02*
X72000D01*
X71000Y70000D02*
Y72000D01*
X82500Y46000D02*
X84500D01*
X83500Y45000D02*
Y47000D01*
X70000Y21000D02*
X72000D01*
X71000Y20000D02*
Y22000D01*
X45000Y871000D02*
X47000D01*
X46000Y870000D02*
Y872000D01*
X57500Y796000D02*
X59500D01*
X58500Y795000D02*
Y797000D01*
X45000Y321000D02*
X47000D01*
X46000Y320000D02*
Y322000D01*
X45000Y271000D02*
X47000D01*
X46000Y270000D02*
Y272000D01*
X45000Y221000D02*
X47000D01*
X46000Y220000D02*
Y222000D01*
X45000Y171000D02*
X47000D01*
X46000Y170000D02*
Y172000D01*
X45000Y121000D02*
X47000D01*
X46000Y120000D02*
Y122000D01*
X57500Y46000D02*
X59500D01*
X58500Y45000D02*
Y47000D01*
X45000Y21000D02*
X47000D01*
X46000Y20000D02*
Y22000D01*
X20000Y871000D02*
X22000D01*
X21000Y870000D02*
Y872000D01*
X20000Y121000D02*
X22000D01*
X21000Y120000D02*
Y122000D01*
X32500Y46000D02*
X34500D01*
X33500Y45000D02*
Y47000D01*
X20000Y21000D02*
X22000D01*
X21000Y20000D02*
Y22000D01*
X777000Y634000D02*
X779000D01*
X778000Y633000D02*
Y635000D01*
X765000Y634000D02*
X767000D01*
X766000Y633000D02*
Y635000D01*
X771000Y598000D02*
X773000D01*
X772000Y597000D02*
Y599000D01*
X440575Y396911D02*
X442575D01*
X441575Y395911D02*
Y397911D01*
X436368Y363870D02*
X438368D01*
X437368Y362870D02*
Y364870D01*
X433706Y338919D02*
X435706D01*
X434706Y337919D02*
Y339919D01*
X433305Y396839D02*
X435305D01*
X434305Y395839D02*
Y397839D01*
X546100Y312672D02*
X548100D01*
X547100Y311672D02*
Y313672D01*
X472530Y383870D02*
X474530D01*
X473530Y382870D02*
Y384870D01*
X433302Y384171D02*
X435302D01*
X434302Y383171D02*
Y385171D01*
X423506Y363469D02*
X425506D01*
X424506Y362469D02*
Y364469D01*
X423780Y401370D02*
X425780D01*
X424780Y400370D02*
Y402370D01*
X472530Y396870D02*
X474530D01*
X473530Y395870D02*
Y397870D01*
X472530Y390370D02*
X474530D01*
X473530Y389370D02*
Y391370D01*
X624556Y721932D02*
X626556D01*
X625556Y720932D02*
Y722932D01*
X624556Y709932D02*
X626556D01*
X625556Y708932D02*
Y710932D01*
X624556Y697932D02*
X626556D01*
X625556Y696932D02*
Y698932D01*
X600556Y697932D02*
X602556D01*
X601556Y696932D02*
Y698932D01*
X600556Y709932D02*
X602556D01*
X601556Y708932D02*
Y710932D01*
X600556Y721932D02*
X602556D01*
X601556Y720932D02*
Y722932D01*
X612556Y697932D02*
X614556D01*
X613556Y696932D02*
Y698932D01*
X612557Y721932D02*
X614557D01*
X613557Y720932D02*
Y722932D01*
X612557Y709930D02*
X614557D01*
X613557Y708930D02*
Y710930D01*
X617519Y752068D02*
X619519D01*
X618519Y751068D02*
Y753068D01*
X614626Y744180D02*
X616626D01*
X615626Y743180D02*
Y745180D01*
X617490Y760730D02*
X619490D01*
X618490Y759730D02*
Y761730D01*
X653588Y584292D02*
X655588D01*
X654588Y583292D02*
Y585292D01*
X644791Y584424D02*
X646791D01*
X645791Y583424D02*
Y585424D01*
X640151Y572467D02*
X642150D01*
X641151Y571467D02*
Y573467D01*
X332729Y706418D02*
X334729D01*
X333730Y705418D02*
Y707418D01*
X337745Y690390D02*
X339745D01*
X338745Y689390D02*
Y691390D01*
X372295Y575199D02*
X374295D01*
X373295Y574199D02*
Y576199D01*
X368351Y580150D02*
X370351D01*
X369351Y579150D02*
Y581150D01*
X362732Y586026D02*
X364732D01*
X363732Y585026D02*
Y587026D01*
X356614Y585927D02*
X358614D01*
X357614Y584927D02*
Y586927D01*
X321688Y586871D02*
X323688D01*
X322687Y585871D02*
Y587871D01*
X335550Y586740D02*
X337550D01*
X336550Y585740D02*
Y587740D01*
X362299Y580156D02*
X364299D01*
X363299Y579156D02*
Y581156D01*
X329200Y281940D02*
X331200D01*
X330200Y280940D02*
Y282940D01*
X366502Y262302D02*
X368502D01*
X367502Y261301D02*
Y263302D01*
X360751Y204790D02*
X362751D01*
X361751Y203790D02*
Y205790D01*
X357856Y257450D02*
X359856D01*
X358856Y256450D02*
Y258450D01*
X326018Y168307D02*
X328018D01*
X327018Y167307D02*
Y169307D01*
X358000Y187730D02*
X360000D01*
X359000Y186730D02*
Y188730D01*
X403718Y270633D02*
X405718D01*
X404718Y269633D02*
Y271633D01*
X159020Y558800D02*
X161020D01*
X160020Y557800D02*
Y559800D01*
X153789Y604207D02*
X155789D01*
X154789Y603207D02*
Y605207D01*
X124789Y608969D02*
X126789D01*
X125789Y607969D02*
Y609969D01*
X127394Y628227D02*
X129394D01*
X128394Y627226D02*
Y629226D01*
X289379Y474281D02*
X291379D01*
X290379Y473280D02*
Y475280D01*
X157688Y621472D02*
X159688D01*
X158688Y620472D02*
Y622472D01*
X305070Y496570D02*
X307070D01*
X306070Y495570D02*
Y497570D01*
X342112Y483413D02*
X344112D01*
X343112Y482413D02*
Y484413D01*
X423433Y376916D02*
X425433D01*
X424433Y375916D02*
Y377916D01*
X258298Y793730D02*
X260297D01*
X259297Y792730D02*
Y794730D01*
X302384Y770910D02*
X304384D01*
X303384Y769910D02*
Y771910D01*
X313484Y770739D02*
X315484D01*
X314484Y769739D02*
Y771739D01*
X379049Y231120D02*
X381049D01*
X380049Y230121D02*
Y232120D01*
X399066Y276860D02*
X401066D01*
X400066Y275860D02*
Y277860D01*
X338597Y238202D02*
X340597D01*
X339597Y237202D02*
Y239202D01*
X338597Y257660D02*
X340597D01*
X339597Y256660D02*
Y258660D01*
X360113Y289209D02*
X362113D01*
X361113Y288209D02*
Y290209D01*
X384780Y363870D02*
X386780D01*
X385780Y362870D02*
Y364870D01*
X384780Y376870D02*
X386780D01*
X385780Y375870D02*
Y377870D01*
X335691Y293915D02*
X337691D01*
X336691Y292915D02*
Y294915D01*
X283012Y410192D02*
X285012D01*
X284012Y409192D02*
Y411192D01*
X128409Y641522D02*
X130409D01*
X129409Y640522D02*
Y642522D01*
X425720Y640080D02*
X427720D01*
X426720Y639080D02*
Y641080D01*
X162735Y110905D02*
X164735D01*
X163735Y109905D02*
Y111905D01*
X162735Y120905D02*
X164735D01*
X163735Y119905D02*
Y121905D01*
X261604Y111090D02*
X263604D01*
X262604Y110090D02*
Y112090D01*
X253000Y120650D02*
X255000D01*
X254000Y119650D02*
Y121650D01*
X328935Y842528D02*
X330935D01*
X329935Y841528D02*
Y843528D01*
X728644Y258809D02*
X730645D01*
X729644Y257809D02*
Y259809D01*
X745760Y149860D02*
X747760D01*
X746760Y148860D02*
Y150860D01*
X802910Y114300D02*
X804910D01*
X803910Y113300D02*
Y115300D01*
X802910Y135890D02*
X804910D01*
X803910Y134890D02*
Y136890D01*
X722900Y125730D02*
X724900D01*
X723900Y124730D02*
Y126730D01*
X715280Y120650D02*
X717280D01*
X716280Y119650D02*
Y121650D01*
X706390Y114300D02*
X708390D01*
X707390Y113300D02*
Y115300D01*
X719090Y107950D02*
X721090D01*
X720090Y106950D02*
Y108950D01*
X835930Y228600D02*
X837930D01*
X836930Y227600D02*
Y229600D01*
X870220Y245110D02*
X872220D01*
X871220Y244110D02*
Y246110D01*
X870220Y259080D02*
X872220D01*
X871220Y258080D02*
Y260080D01*
X862600Y237490D02*
X864600D01*
X863600Y236490D02*
Y238490D01*
X862600Y251460D02*
X864600D01*
X863600Y250460D02*
Y252460D01*
X857520Y243840D02*
X859520D01*
X858520Y242840D02*
Y244840D01*
X857520Y259080D02*
X859520D01*
X858520Y258080D02*
Y260080D01*
X710200Y193040D02*
X712200D01*
X711200Y192040D02*
Y194040D01*
X710200Y171450D02*
X712200D01*
X711200Y170450D02*
Y172450D01*
X797830Y662940D02*
X799830D01*
X798830Y661940D02*
Y663940D01*
X797830Y671830D02*
X799830D01*
X798830Y670830D02*
Y672830D01*
X797830Y680720D02*
X799830D01*
X798830Y679720D02*
Y681720D01*
X795769Y735524D02*
X797769D01*
X796769Y734523D02*
Y736524D01*
X733060Y581660D02*
X735060D01*
X734060Y580660D02*
Y582660D01*
X175530Y599440D02*
X177530D01*
X176530Y598440D02*
Y600440D01*
X169180Y608330D02*
X171180D01*
X170180Y607330D02*
Y609330D01*
X204752Y667742D02*
X206752D01*
X205752Y666742D02*
Y668742D01*
X204752Y676458D02*
X206752D01*
X205752Y675458D02*
Y677458D01*
X462724Y659097D02*
X464724D01*
X463724Y658097D02*
Y660097D01*
X427440Y630069D02*
X429440D01*
X428440Y629069D02*
Y631069D01*
X650510Y91440D02*
X652510D01*
X651510Y90440D02*
Y92440D01*
X650510Y82550D02*
X652510D01*
X651510Y81550D02*
Y83550D01*
X204868Y217802D02*
X206868D01*
X205868Y216802D02*
Y218802D01*
X193048Y237335D02*
X195048D01*
X194048Y236335D02*
Y238335D01*
X462636Y813843D02*
X464636D01*
X463636Y812843D02*
Y814843D01*
X464336Y695525D02*
X466336D01*
X465336Y694525D02*
Y696525D01*
X437454Y694981D02*
X439454D01*
X438455Y693981D02*
Y695981D01*
X620951Y609123D02*
X622951D01*
X621951Y608123D02*
Y610123D01*
X605863Y594711D02*
X607863D01*
X606863Y593712D02*
Y595712D01*
X606060Y609600D02*
X608060D01*
X607060Y608600D02*
Y610600D01*
X613267Y601916D02*
X615267D01*
X614267Y600916D02*
Y602916D01*
X733060Y571500D02*
X735060D01*
X734060Y570500D02*
Y572500D01*
X733060Y591820D02*
X735060D01*
X734060Y590820D02*
Y592820D01*
X861330Y628650D02*
X863330D01*
X862330Y627650D02*
Y629650D01*
X861330Y643890D02*
X863330D01*
X862330Y642890D02*
Y644890D01*
X828310Y628650D02*
X830310D01*
X829310Y627650D02*
Y629650D01*
X828422Y643158D02*
X830422D01*
X829422Y642158D02*
Y644158D01*
X787670Y655320D02*
X789670D01*
X788670Y654320D02*
Y656320D01*
X715280Y694690D02*
X717280D01*
X716280Y693690D02*
Y695690D01*
X444515Y603463D02*
X446515D01*
X445515Y602463D02*
Y604463D01*
X505289Y623533D02*
X507289D01*
X506289Y622533D02*
Y624533D01*
X321505Y486410D02*
X323505D01*
X322505Y485410D02*
Y487410D01*
X535304Y316683D02*
X537304D01*
X536304Y315683D02*
Y317683D01*
X386065Y103358D02*
X388065D01*
X387065Y102359D02*
Y104359D01*
X381195Y97790D02*
X383195D01*
X382195Y96790D02*
Y98790D01*
X329200Y298525D02*
X331200D01*
X330200Y297525D02*
Y299525D01*
X837318Y628231D02*
X839318D01*
X838318Y627231D02*
Y629231D01*
X837318Y643231D02*
X839318D01*
X838318Y642231D02*
Y644231D01*
X383810Y548640D02*
X385810D01*
X384810Y547640D02*
Y549640D01*
X302530Y471235D02*
X304530D01*
X303530Y470235D02*
Y472235D01*
X266977Y448062D02*
X268977D01*
X267977Y447062D02*
Y449062D01*
X597575Y191866D02*
X599575D01*
X598575Y190866D02*
Y192866D01*
X485510Y358327D02*
X487510D01*
X486510Y357327D02*
Y359328D01*
X514620Y438245D02*
X516620D01*
X515620Y437245D02*
Y439245D01*
X644510Y717941D02*
X646510D01*
X645510Y716941D02*
Y718941D01*
X644798Y701725D02*
X646798D01*
X645798Y700725D02*
Y702725D01*
X532795Y480088D02*
X534795D01*
X533795Y479088D02*
Y481088D01*
X533704Y753240D02*
X535704D01*
X534704Y752240D02*
Y754240D01*
X537303Y748244D02*
X539303D01*
X538303Y747244D02*
Y749244D01*
X537303Y758546D02*
X539303D01*
X538303Y757545D02*
Y759546D01*
X494623Y548777D02*
X496623D01*
X495623Y547777D02*
Y549777D01*
X501920Y543560D02*
X503920D01*
X502920Y542560D02*
Y544560D01*
X468321Y798218D02*
X470321D01*
X469320Y797218D02*
Y799218D01*
X337719Y672049D02*
X339719D01*
X338719Y671049D02*
Y673049D01*
X162024Y597986D02*
X164025D01*
X163025Y596987D02*
Y598987D01*
X167274Y598071D02*
X169274D01*
X168274Y597071D02*
Y599071D01*
X682906Y777240D02*
X684906D01*
X683906Y776240D02*
Y778240D01*
X677656Y777240D02*
X679657D01*
X678656Y776240D02*
Y778240D01*
X771160Y802725D02*
X773160D01*
X772160Y801725D02*
Y803725D01*
X806706Y551177D02*
X808706D01*
X807706Y550177D02*
Y552177D01*
X771160Y797475D02*
X773160D01*
X772160Y796475D02*
Y798475D01*
X802993Y554889D02*
X804994D01*
X803994Y553889D02*
Y555889D01*
X817182Y644497D02*
X819183D01*
X818183Y643497D02*
Y645497D01*
X811933Y644560D02*
X813933D01*
X812933Y643560D02*
Y645560D01*
X489253Y543527D02*
X491253D01*
X490253Y542527D02*
Y544527D01*
X689183Y759272D02*
X691183D01*
X690183Y758272D02*
Y760272D01*
X689263Y748969D02*
X691263D01*
X690263Y747969D02*
Y749969D01*
X743289Y775760D02*
X745290D01*
X744289Y774760D02*
Y776760D01*
X743220Y781010D02*
X745220D01*
X744220Y780010D02*
Y782010D01*
X154334Y284365D02*
X156334D01*
X155334Y283365D02*
Y285365D01*
X154334Y279115D02*
X156334D01*
X155334Y278115D02*
Y280115D01*
X535505Y308788D02*
X537505D01*
X536505Y307788D02*
Y309788D01*
X485653Y364370D02*
X487653D01*
X486653Y363370D02*
Y365370D01*
X595118Y743949D02*
X597118D01*
X596119Y742949D02*
Y744949D01*
X634188Y675855D02*
X636188D01*
X635188Y674855D02*
Y676855D01*
X645323Y709967D02*
X647323D01*
X646323Y708967D02*
Y710967D01*
X770660Y775885D02*
X772660D01*
X771660Y774885D02*
Y776885D01*
X801957Y564992D02*
X803957D01*
X802957Y563992D02*
Y565992D01*
X770660Y781135D02*
X772660D01*
X771660Y780135D02*
Y782135D01*
X805669Y561279D02*
X807669D01*
X806669Y560279D02*
Y562279D01*
X814831Y682649D02*
X816831D01*
X815831Y681649D02*
Y683649D01*
X814831Y677399D02*
X816831D01*
X815831Y676399D02*
Y678399D01*
X292701Y72094D02*
X294701D01*
X293701Y71094D02*
Y73094D01*
X585655Y264407D02*
X587655D01*
X586655Y263407D02*
Y265406D01*
X585655Y272407D02*
X587655D01*
X586655Y271406D02*
Y273407D01*
X545780Y304620D02*
X547780D01*
X546780Y303620D02*
Y305620D01*
X500210Y372920D02*
X502210D01*
X501210Y371920D02*
Y373920D01*
X362030Y403866D02*
X364030D01*
X363030Y402866D02*
Y404866D01*
X154111Y262630D02*
X156111D01*
X155111Y261630D02*
Y263629D01*
X154111Y257379D02*
X156111D01*
X155111Y256380D02*
Y258379D01*
X743220Y802600D02*
X745220D01*
X744220Y801600D02*
Y803600D01*
X743289Y797350D02*
X745290D01*
X744289Y796350D02*
Y798350D01*
X217209Y521947D02*
X219209D01*
X218209Y520947D02*
Y522947D01*
X212897Y516048D02*
X214897D01*
X213897Y515048D02*
Y517048D01*
X193957Y541030D02*
X195957D01*
X194957Y540029D02*
Y542029D01*
X358410Y566797D02*
X360410D01*
X359410Y565797D02*
Y567797D01*
X367748Y413323D02*
X369748D01*
X368748Y412323D02*
Y414323D01*
X453915Y433388D02*
X455915D01*
X454915Y432388D02*
Y434388D01*
X482915Y413898D02*
X484915D01*
X483915Y412898D02*
Y414898D01*
X460030Y419563D02*
X462030D01*
X461030Y418563D02*
Y420563D01*
X478020Y419563D02*
X480020D01*
X479020Y418563D02*
Y420563D01*
X473010Y419563D02*
X475010D01*
X474010Y418563D02*
Y420563D01*
X495280Y413032D02*
X497280D01*
X496280Y412032D02*
Y414032D01*
X485097Y384518D02*
X487097D01*
X486097Y383517D02*
Y385518D01*
X485280Y377497D02*
X487280D01*
X486280Y376497D02*
Y378498D01*
X482944Y393932D02*
X484944D01*
X483945Y392933D02*
Y394933D01*
X429080Y313264D02*
X431080D01*
X430080Y312264D02*
Y314264D01*
X422947Y338556D02*
X424947D01*
X423947Y337556D02*
Y339556D01*
X410780Y396370D02*
X412780D01*
X411780Y395370D02*
Y397370D01*
X410811Y382427D02*
X412811D01*
X411811Y381427D02*
Y383427D01*
X215634Y108391D02*
X217634D01*
X216634Y107391D02*
Y109391D01*
X217233Y100123D02*
X219233D01*
X218233Y99123D02*
Y101123D01*
X209580Y102298D02*
X211580D01*
X210580Y101298D02*
Y103298D01*
X211875Y94028D02*
X213875D01*
X212875Y93028D02*
Y95028D01*
X466368Y775643D02*
X468368D01*
X467368Y774643D02*
Y776643D01*
X471618Y775643D02*
X473618D01*
X472618Y774643D02*
Y776643D01*
X480169Y761374D02*
X482169D01*
X481170Y760374D02*
Y762374D01*
X480169Y766624D02*
X482169D01*
X481170Y765624D02*
Y767624D01*
X496095Y739015D02*
X498094D01*
X497094Y738015D02*
Y740015D01*
X496095Y733765D02*
X498094D01*
X497094Y732765D02*
Y734765D01*
X620569Y744051D02*
X622569D01*
X621569Y743051D02*
Y745051D01*
X551931Y779328D02*
X553931D01*
X552931Y778328D02*
Y780328D01*
X546571Y779395D02*
X548571D01*
X547571Y778395D02*
Y780395D01*
X596547Y778510D02*
X598546D01*
X597547Y777510D02*
Y779510D01*
X591297Y778510D02*
X593297D01*
X592296Y777510D02*
Y779510D01*
X639303Y778510D02*
X641303D01*
X640303Y777510D02*
Y779510D01*
X634053Y778510D02*
X636053D01*
X635053Y777510D02*
Y779510D01*
X642061Y622443D02*
X644061D01*
X643061Y621443D02*
Y623443D01*
X647311Y622469D02*
X649311D01*
X648311Y621469D02*
Y623469D01*
X579073Y622469D02*
X581073D01*
X580073Y621469D02*
Y623469D01*
X584323Y622443D02*
X586323D01*
X585323Y621443D02*
Y623443D01*
X563644Y475700D02*
X565644D01*
X564644Y474700D02*
Y476700D01*
X563644Y470450D02*
X565644D01*
X564644Y469450D02*
Y471450D01*
X564241Y457280D02*
X566241D01*
X565241Y456280D02*
Y458280D01*
X564241Y462530D02*
X566241D01*
X565241Y461530D02*
Y463530D01*
X227600Y461426D02*
X229600D01*
X228600Y460426D02*
Y462426D01*
X277130Y450660D02*
X279130D01*
X278130Y449660D02*
Y451660D01*
X227600Y450660D02*
X229600D01*
X228600Y449660D02*
Y451660D01*
X586339Y120443D02*
X588339D01*
X587339Y119443D02*
Y121443D01*
X593964Y120443D02*
X595964D01*
X594964Y119443D02*
Y121443D01*
X578715Y120443D02*
X580715D01*
X579715Y119443D02*
Y121443D01*
X601588Y120443D02*
X603588D01*
X602588Y119443D02*
Y121443D01*
X485219Y565256D02*
X487219D01*
X486219Y564256D02*
Y566256D01*
X402725Y550133D02*
X404725D01*
X403725Y549133D02*
Y551133D01*
X383168Y507508D02*
X385168D01*
X384168Y506508D02*
Y508508D01*
X389620Y515552D02*
X391620D01*
X390620Y514552D02*
Y516552D01*
X404352Y502045D02*
X406352D01*
X405352Y501045D02*
Y503045D01*
X400645Y487773D02*
X402645D01*
X401645Y486773D02*
Y488773D01*
X355030Y452086D02*
X357030D01*
X356030Y451086D02*
Y453086D01*
X368030Y452086D02*
X370030D01*
X369030Y451086D02*
Y453086D01*
X459925Y474297D02*
X461925D01*
X460925Y473297D02*
Y475297D01*
X466431Y481453D02*
X468431D01*
X467431Y480453D02*
Y482453D01*
X407135Y403326D02*
X409135D01*
X408135Y402326D02*
Y404326D01*
X354541Y413193D02*
X356541D01*
X355541Y412193D02*
Y414193D01*
X368089Y393426D02*
X370089D01*
X369090Y392426D02*
Y394426D01*
X355258Y393389D02*
X357258D01*
X356258Y392389D02*
Y394389D01*
X496885Y393745D02*
X498885D01*
X497885Y392745D02*
Y394745D01*
X453119Y416323D02*
X455119D01*
X454119Y415322D02*
Y417323D01*
X493125Y432854D02*
X495125D01*
X494125Y431855D02*
Y433854D01*
X479402Y433025D02*
X481402D01*
X480402Y432025D02*
Y434025D01*
X467358Y433051D02*
X469358D01*
X468358Y432051D02*
Y434051D01*
X439915Y442348D02*
X441915D01*
X440915Y441348D02*
Y443348D01*
X460108Y456085D02*
X462108D01*
X461108Y455084D02*
Y457085D01*
X317972Y227406D02*
X319972D01*
X318972Y226406D02*
Y228406D01*
X369500Y217909D02*
X371500D01*
X370500Y216909D02*
Y218909D01*
X394601Y237560D02*
X396601D01*
X395601Y236560D02*
Y238560D01*
X546176Y288638D02*
X548176D01*
X547177Y287638D02*
Y289638D01*
X545515Y248355D02*
X547515D01*
X546515Y247355D02*
Y249355D01*
X413565Y435896D02*
X415565D01*
X414565Y434896D02*
Y436896D01*
X420698Y409920D02*
X422698D01*
X421698Y408920D02*
Y410920D01*
X355926Y494736D02*
X357926D01*
X356926Y493736D02*
Y495736D01*
X355030Y471519D02*
X357030D01*
X356030Y470519D02*
Y472519D01*
X368030Y471519D02*
X370030D01*
X369030Y470519D02*
Y472519D01*
X384759Y502620D02*
X386759D01*
X385759Y501620D02*
Y503620D01*
X407505Y455329D02*
X409505D01*
X408505Y454329D02*
Y456329D01*
X478794Y397029D02*
X480794D01*
X479794Y396029D02*
Y398029D01*
X472339Y377593D02*
X474339D01*
X473339Y376593D02*
Y378593D01*
X463059Y360369D02*
X465059D01*
X464059Y359369D02*
Y361369D01*
X463190Y373252D02*
X465190D01*
X464190Y372252D02*
Y374252D01*
X452593Y377421D02*
X454593D01*
X453593Y376421D02*
Y378421D01*
X443638Y363870D02*
X445638D01*
X444638Y362870D02*
Y364870D01*
X443609Y376870D02*
X445609D01*
X444609Y375870D02*
Y377870D01*
X453030Y390459D02*
X455030D01*
X454030Y389459D02*
Y391459D01*
X446530Y383604D02*
X448530D01*
X447530Y382604D02*
Y384604D01*
X411112Y481705D02*
X413112D01*
X412112Y480705D02*
Y482705D01*
X411552Y486930D02*
X413552D01*
X412552Y485930D02*
Y487930D01*
X472476Y443566D02*
X474476D01*
X473476Y442566D02*
Y444566D01*
X447081Y468688D02*
X449081D01*
X448081Y467688D02*
Y469688D01*
X373884Y420420D02*
X375884D01*
X374884Y419420D02*
Y421420D01*
X387620Y420420D02*
X389620D01*
X388620Y419420D02*
Y421420D01*
X355030Y432390D02*
X357030D01*
X356030Y431390D02*
Y433390D01*
X368030Y432390D02*
X370030D01*
X369030Y431390D02*
Y433390D01*
X394030Y432360D02*
X396030D01*
X395030Y431360D02*
Y433360D01*
X410888Y468870D02*
X412888D01*
X411888Y467870D02*
Y469870D01*
X385155Y489407D02*
X387155D01*
X386156Y488407D02*
Y490407D01*
X461297Y521298D02*
X463297D01*
X462297Y520298D02*
Y522298D01*
X479932Y471869D02*
X481932D01*
X480932Y470869D02*
Y472869D01*
X438992Y590580D02*
X440992D01*
X439992Y589580D02*
Y591580D01*
X420540Y436247D02*
X422540D01*
X421540Y435247D02*
Y437247D01*
X426748Y435985D02*
X428748D01*
X427748Y434985D02*
Y436985D01*
X420530Y442370D02*
X422530D01*
X421530Y441370D02*
Y443370D01*
X557681Y482234D02*
X559680D01*
X558680Y481234D02*
Y483234D01*
X624988Y748030D02*
X626988D01*
X625988Y747030D02*
Y749030D01*
X244998Y409773D02*
X246998D01*
X245998Y408773D02*
Y410773D01*
X251846Y434915D02*
X253846D01*
X252846Y433915D02*
Y435915D01*
X402173Y558597D02*
X404173D01*
X403173Y557597D02*
Y559597D01*
X321580Y521970D02*
X323580D01*
X322580Y520970D02*
Y522970D01*
X429595Y574040D02*
X431595D01*
X430595Y573040D02*
Y575040D01*
X413924Y565446D02*
X415924D01*
X414924Y564446D02*
Y566446D01*
X423260Y608626D02*
X425260D01*
X424260Y607626D02*
Y609626D01*
X498110Y717550D02*
X500110D01*
X499110Y716550D02*
Y718550D01*
X485674Y571481D02*
X487674D01*
X486674Y570481D02*
Y572481D01*
X415581Y793729D02*
X417581D01*
X416581Y792729D02*
Y794729D01*
X390160Y793750D02*
X392160D01*
X391160Y792750D02*
Y794750D01*
X616220Y501650D02*
X618220D01*
X617220Y500650D02*
Y502650D01*
X638036Y462361D02*
X640036D01*
X639036Y461361D02*
Y463361D01*
X401030Y461870D02*
X403030D01*
X402030Y460870D02*
Y462870D01*
X401030Y468370D02*
X403030D01*
X402030Y467370D02*
Y469370D01*
X685708Y580412D02*
X687708D01*
X686708Y579412D02*
Y581412D01*
X685708Y573808D02*
X687708D01*
X686708Y572808D02*
Y574808D01*
X676983Y574116D02*
X678983D01*
X677983Y573116D02*
Y575116D01*
X685442Y587017D02*
X687442D01*
X686442Y586017D02*
Y588017D01*
X297680Y690640D02*
X299680D01*
X298680Y689640D02*
Y691640D01*
X297680Y680640D02*
X299680D01*
X298680Y679640D02*
Y681640D01*
X243376Y505877D02*
X245376D01*
X244376Y504877D02*
Y506876D01*
X328133Y227080D02*
X330133D01*
X329133Y226080D02*
Y228081D01*
X338245Y187955D02*
X340244D01*
X339244Y186955D02*
Y188955D01*
X338245Y177730D02*
X340244D01*
X339244Y176730D02*
Y178730D01*
X282442Y142362D02*
X284442D01*
X283442Y141362D02*
Y143362D01*
X273320Y142240D02*
X275320D01*
X274320Y141240D02*
Y143240D01*
X705120Y664203D02*
X707120D01*
X706120Y663203D02*
Y665203D01*
X705120Y669287D02*
X707120D01*
X706120Y668287D02*
Y670287D01*
X574996Y828884D02*
X576996D01*
X575996Y827884D02*
Y829884D01*
X646807Y761396D02*
X648807D01*
X647807Y760396D02*
Y762396D01*
X593562Y641552D02*
X595561D01*
X594562Y640552D02*
Y642551D01*
X599710Y642620D02*
X601710D01*
X600710Y641620D02*
Y643620D01*
X710200Y181610D02*
X712200D01*
X711200Y180610D02*
Y182610D01*
X831643Y252128D02*
X833643D01*
X832643Y251128D02*
Y253128D01*
X606449Y784253D02*
X608449D01*
X607449Y783253D02*
Y785253D01*
X623840Y781050D02*
X625840D01*
X624840Y780050D02*
Y782050D01*
X600596Y764682D02*
X602596D01*
X601596Y763682D02*
Y765682D01*
X780268Y590854D02*
X782268D01*
X781268Y589854D02*
Y591853D01*
X757564Y598597D02*
X759564D01*
X758564Y597597D02*
Y599597D01*
X705120Y679453D02*
X707120D01*
X706120Y678453D02*
Y680453D01*
X705120Y674370D02*
X707120D01*
X706120Y673370D02*
Y675370D01*
X709603Y730909D02*
X711603D01*
X710603Y729909D02*
Y731909D01*
X709603Y715659D02*
X711603D01*
X710603Y714659D02*
Y716659D01*
X709603Y720742D02*
X711603D01*
X710603Y719742D02*
Y721742D01*
X709603Y725826D02*
X711603D01*
X710603Y724826D02*
Y726825D01*
X710232Y705877D02*
X712232D01*
X711232Y704877D02*
Y706877D01*
X717003Y705348D02*
X719003D01*
X718003Y704348D02*
Y706348D01*
X730415Y682810D02*
X732415D01*
X731415Y681809D02*
Y683810D01*
X730583Y658307D02*
X732583D01*
X731583Y657307D02*
Y659307D01*
X742142Y695086D02*
X744143D01*
X743142Y694086D02*
Y696086D01*
X754708Y682997D02*
X756708D01*
X755708Y681997D02*
Y683997D01*
X751770Y694382D02*
X753770D01*
X752770Y693382D02*
Y695382D01*
X754532Y658270D02*
X756532D01*
X755532Y657271D02*
Y659270D01*
X780304Y599440D02*
X782304D01*
X781304Y598440D02*
Y600440D01*
X419343Y838600D02*
X421343D01*
X420343Y837600D02*
Y839600D01*
X297450Y596900D02*
X299450D01*
X298450Y595900D02*
Y597900D01*
X288146Y597199D02*
X290146D01*
X289146Y596199D02*
Y598199D01*
X298936Y631525D02*
X300935D01*
X299935Y630524D02*
Y632524D01*
X262122Y597412D02*
X264122D01*
X263122Y596412D02*
Y598412D01*
X252795Y597412D02*
X254795D01*
X253795Y596412D02*
Y598412D01*
X187425Y763087D02*
X189425D01*
X188425Y762087D02*
Y764087D01*
X607958Y841452D02*
X609958D01*
X608958Y840452D02*
Y842452D01*
X330234Y73555D02*
X332234D01*
X331234Y72555D02*
Y74555D01*
X195850Y140810D02*
X197850D01*
X196850Y139810D02*
Y141810D01*
X195850Y130810D02*
X197850D01*
X196850Y129810D02*
Y131810D01*
X162830Y140810D02*
X164830D01*
X163830Y139810D02*
Y141810D01*
X162830Y130810D02*
X164830D01*
X163830Y129810D02*
Y131810D01*
X453030Y461395D02*
X455030D01*
X454030Y460395D02*
Y462395D01*
X446264Y474946D02*
X448264D01*
X447264Y473946D02*
Y475946D01*
X472530Y474870D02*
X474530D01*
X473530Y473870D02*
Y475870D01*
X480530Y452120D02*
X482530D01*
X481530Y451120D02*
Y453120D01*
X724042Y611116D02*
X726042D01*
X725042Y610116D02*
Y612116D01*
X724042Y616199D02*
X726042D01*
X725042Y615199D02*
Y617199D01*
X724042Y621283D02*
X726042D01*
X725042Y620283D02*
Y622283D01*
X724042Y626366D02*
X726042D01*
X725042Y625366D02*
Y627366D01*
X801640Y717550D02*
X803640D01*
X802640Y716550D02*
Y718550D01*
X792750Y717550D02*
X794750D01*
X793750Y716550D02*
Y718550D01*
X809260Y717550D02*
X811260D01*
X810260Y716550D02*
Y718550D01*
X784305Y717706D02*
X786305D01*
X785305Y716706D02*
Y718706D01*
X440290Y409896D02*
X442290D01*
X441290Y408896D02*
Y410896D01*
X671234Y574040D02*
X673234D01*
X672234Y573040D02*
Y575040D01*
X664630Y574040D02*
X666630D01*
X665630Y573040D02*
Y575040D01*
X860060Y184362D02*
X862060D01*
X861060Y183362D02*
Y185362D01*
X860060Y191848D02*
X862060D01*
X861060Y190848D02*
Y192848D01*
X750372Y101869D02*
X752372D01*
X751372Y100869D02*
Y102869D01*
X740038Y101863D02*
X742038D01*
X741038Y100863D02*
Y102863D01*
X760707Y101869D02*
X762707D01*
X761707Y100869D02*
Y102869D01*
X771042Y101869D02*
X773042D01*
X772042Y100869D02*
Y102869D01*
X527320Y444500D02*
X529320D01*
X528320Y443500D02*
Y445500D01*
X534940Y438404D02*
X536940D01*
X535940Y437404D02*
Y439404D01*
X800370Y725170D02*
X802370D01*
X801370Y724170D02*
Y726170D01*
X867546Y191848D02*
X869546D01*
X868546Y190848D02*
Y192848D01*
X860060Y206820D02*
X862060D01*
X861060Y205820D02*
Y207820D01*
X867546Y206820D02*
X869546D01*
X868546Y205820D02*
Y207820D01*
X860060Y214306D02*
X862060D01*
X861060Y213306D02*
Y215306D01*
X867546Y214306D02*
X869546D01*
X868546Y213306D02*
Y215306D01*
X867546Y184362D02*
X869546D01*
X868546Y183362D02*
Y185362D01*
X867546Y665882D02*
X869546D01*
X868546Y664882D02*
Y666882D01*
X860060Y665882D02*
X862060D01*
X861060Y664882D02*
Y666882D01*
X867546Y695826D02*
X869546D01*
X868546Y694826D02*
Y696826D01*
X860060Y695826D02*
X862060D01*
X861060Y694826D02*
Y696826D01*
X867546Y680854D02*
X869546D01*
X868546Y679854D02*
Y681854D01*
X867546Y673368D02*
X869546D01*
X868546Y672368D02*
Y674368D01*
X867546Y688340D02*
X869546D01*
X868546Y687340D02*
Y689340D01*
X860060Y680854D02*
X862060D01*
X861060Y679854D02*
Y681854D01*
X860060Y673368D02*
X862060D01*
X861060Y672368D02*
Y674368D01*
X799100Y694690D02*
X801100D01*
X800100Y693690D02*
Y695690D01*
X860060Y688340D02*
X862060D01*
X861060Y687340D02*
Y689340D01*
X483547Y625862D02*
X485547D01*
X484547Y624862D02*
Y626862D01*
X524780Y772160D02*
X526780D01*
X525780Y771160D02*
Y773160D01*
X322850Y356870D02*
X324850D01*
X323850Y355870D02*
Y357870D01*
X249585Y385884D02*
X251585D01*
X250585Y384884D02*
Y386884D01*
X239030Y386080D02*
X241030D01*
X240030Y385080D02*
Y387080D01*
X244383Y363238D02*
X246383D01*
X245383Y362238D02*
Y364238D01*
X227600Y471170D02*
X229600D01*
X228600Y470170D02*
Y472170D01*
X444559Y625509D02*
X446559D01*
X445559Y624509D02*
Y626509D01*
X358545Y51085D02*
X360545D01*
X359545Y50085D02*
Y52085D01*
X412370Y51085D02*
X414370D01*
X413370Y50085D02*
Y52085D01*
X268000Y207730D02*
X270000D01*
X269000Y206730D02*
Y208730D01*
X374239Y311290D02*
X376239D01*
X375238Y310290D02*
Y312290D01*
X329200Y422910D02*
X331200D01*
X330200Y421910D02*
Y423910D01*
X344440Y445770D02*
X346440D01*
X345440Y444770D02*
Y446770D01*
X358593Y363667D02*
X360593D01*
X359593Y362667D02*
Y364667D01*
X385080Y427990D02*
X387080D01*
X386080Y426990D02*
Y428990D01*
X668290Y402590D02*
X670290D01*
X669290Y401590D02*
Y403590D01*
X581581Y489827D02*
X583581D01*
X582581Y488827D02*
Y490827D01*
X446726Y96363D02*
X448726D01*
X447726Y95363D02*
Y97363D01*
X557668Y489293D02*
X559668D01*
X558667Y488293D02*
Y490293D01*
X557800Y505460D02*
X559800D01*
X558800Y504460D02*
Y506460D01*
X557800Y496570D02*
X559800D01*
X558800Y495570D02*
Y497570D01*
X538750Y563880D02*
X540750D01*
X539750Y562880D02*
Y564880D01*
X481600Y815340D02*
X483600D01*
X482600Y814340D02*
Y816340D01*
X304720Y51085D02*
X306719D01*
X305720Y50085D02*
Y52085D01*
X236490Y751840D02*
X238490D01*
X237490Y750840D02*
Y752840D01*
X250519Y51085D02*
X252519D01*
X251519Y50085D02*
Y52085D01*
X189585Y547503D02*
X191585D01*
X190585Y546503D02*
Y548503D01*
X296182Y51207D02*
X298182D01*
X297182Y50208D02*
Y52207D01*
X350382Y51207D02*
X352383D01*
X351382Y50207D02*
Y52207D01*
X404208Y51207D02*
X406208D01*
X405208Y50207D02*
Y52207D01*
X458033Y51207D02*
X460033D01*
X459033Y50207D02*
Y52207D01*
X511483Y51207D02*
X513483D01*
X512483Y50208D02*
Y52207D01*
X465820Y51085D02*
X467820D01*
X466820Y50085D02*
Y52085D01*
X565308Y51207D02*
X567308D01*
X566308Y50208D02*
Y52207D01*
X519645Y51085D02*
X521645D01*
X520645Y50085D02*
Y52085D01*
X619133Y51207D02*
X621133D01*
X620133Y50208D02*
Y52207D01*
X573470Y51085D02*
X575470D01*
X574470Y50085D02*
Y52085D01*
X627688Y51102D02*
X629688D01*
X628688Y50103D02*
Y52102D01*
X673351Y51225D02*
X675351D01*
X674351Y50225D02*
Y52225D01*
X322850Y335280D02*
X324850D01*
X323850Y334280D02*
Y336280D01*
X406670Y175260D02*
X408670D01*
X407670Y174260D02*
Y176260D01*
X515890Y450850D02*
X517890D01*
X516890Y449850D02*
Y451850D01*
X648170Y422668D02*
X650170D01*
X649170Y421668D02*
Y423668D01*
X653337Y418629D02*
X655337D01*
X654337Y417629D02*
Y419629D01*
X292028Y339518D02*
X294028D01*
X293028Y338518D02*
Y340518D01*
X270780Y330200D02*
X272780D01*
X271780Y329200D02*
Y331200D01*
X434763Y675714D02*
X436763D01*
X435763Y674714D02*
Y676714D01*
X468593Y736255D02*
X470593D01*
X469593Y735256D02*
Y737255D01*
X468677Y726096D02*
X470677D01*
X469677Y725096D02*
Y727095D01*
X458601Y726096D02*
X460602D01*
X459602Y725096D02*
Y727095D01*
X458740Y736600D02*
X460740D01*
X459740Y735600D02*
Y737600D01*
X463820Y731520D02*
X465820D01*
X464820Y730520D02*
Y732520D01*
X609437Y558476D02*
X611437D01*
X610437Y557476D02*
Y559476D01*
X604790Y551180D02*
X606790D01*
X605790Y550180D02*
Y552180D01*
X453321Y487870D02*
X455321D01*
X454321Y486870D02*
Y488870D01*
X717383Y632807D02*
X719383D01*
X718383Y631807D02*
Y633807D01*
X493030Y588010D02*
X495030D01*
X494030Y587010D02*
Y589010D01*
X538750Y661670D02*
X540750D01*
X539750Y660670D02*
Y662670D01*
X579647Y750217D02*
X581647D01*
X580647Y749217D02*
Y751217D01*
X537480Y610870D02*
X539480D01*
X538480Y609870D02*
Y611870D01*
X517711Y635469D02*
X519711D01*
X518711Y634469D02*
Y636469D01*
X517980Y644671D02*
X519980D01*
X518980Y643671D02*
Y645671D01*
X346980Y518160D02*
X348980D01*
X347980Y517160D02*
Y519160D01*
X518071Y668760D02*
X520071D01*
X519071Y667760D02*
Y669760D01*
X305070Y509270D02*
X307070D01*
X306070Y508270D02*
Y510270D01*
X293640Y480060D02*
X295640D01*
X294640Y479060D02*
Y481060D01*
X292370Y454660D02*
X294370D01*
X293370Y453660D02*
Y455660D01*
X532387Y504555D02*
X534387D01*
X533387Y503555D02*
Y505555D01*
X305306Y442007D02*
X307306D01*
X306306Y441007D02*
Y443007D01*
X646807Y652146D02*
X648807D01*
X647807Y651146D02*
Y653146D01*
X297171Y467648D02*
X299171D01*
X298171Y466647D02*
Y468647D01*
X303800Y448310D02*
X305800D01*
X304800Y447310D02*
Y449310D01*
X640350Y547950D02*
X642350D01*
X641350Y546950D02*
Y548950D01*
X481600Y73660D02*
X483600D01*
X482600Y72660D02*
Y74660D01*
X415560Y721360D02*
X417560D01*
X416560Y720360D02*
Y722360D01*
X492530Y372870D02*
X494530D01*
X493530Y371870D02*
Y373870D01*
X583022Y482798D02*
X585022D01*
X584022Y481797D02*
Y483797D01*
X651909Y688217D02*
X653909D01*
X652909Y687217D02*
Y689217D01*
X657409Y709967D02*
X659409D01*
X658409Y708967D02*
Y710967D01*
X651909Y731646D02*
X653909D01*
X652909Y730646D02*
Y732646D01*
X624556Y764540D02*
X626556D01*
X625556Y763540D02*
Y765540D01*
X651159Y709967D02*
X653159D01*
X652159Y708967D02*
Y710967D01*
X656659Y688217D02*
X658659D01*
X657659Y687217D02*
Y689217D01*
X630405Y764540D02*
X632405D01*
X631405Y763540D02*
Y765540D01*
X656659Y731646D02*
X658659D01*
X657659Y730646D02*
Y732646D01*
X663659Y709967D02*
X665659D01*
X664659Y708967D02*
Y710967D01*
X661159Y688217D02*
X663159D01*
X662159Y687217D02*
Y689217D01*
X661159Y731646D02*
X663159D01*
X662159Y730646D02*
Y732646D01*
X650510Y547850D02*
X652510D01*
X651510Y546850D02*
Y548850D01*
X619498Y642868D02*
X621498D01*
X620498Y641869D02*
Y643868D01*
X625695Y642868D02*
X627695D01*
X626695Y641869D02*
Y643868D01*
X628392Y546030D02*
X630392D01*
X629392Y545030D02*
Y547030D01*
X627000Y653118D02*
X629000D01*
X628000Y652118D02*
Y654118D01*
X613301Y642683D02*
X615301D01*
X614301Y641684D02*
Y643683D01*
X611234Y653171D02*
X613234D01*
X612234Y652171D02*
Y654171D01*
X607103Y642683D02*
X609103D01*
X608103Y641684D02*
Y643683D01*
X590295Y574312D02*
X592295D01*
X591295Y573312D02*
Y575312D01*
X600098Y747821D02*
X602098D01*
X601098Y746821D02*
Y748821D01*
X583105Y476428D02*
X585105D01*
X584105Y475428D02*
Y477428D01*
X594151Y516178D02*
X596151D01*
X595151Y515178D02*
Y517178D01*
X592101Y558267D02*
X594101D01*
X593101Y557267D02*
Y559267D01*
X594630Y764625D02*
X596630D01*
X595630Y763625D02*
Y765625D01*
X538925Y580412D02*
X540925D01*
X539925Y579412D02*
Y581412D01*
X538925Y587017D02*
X540925D01*
X539925Y586017D02*
Y588017D01*
X538925Y573808D02*
X540925D01*
X539925Y572808D02*
Y574808D01*
X416830Y289560D02*
X418830D01*
X417830Y288560D02*
Y290560D01*
X571770Y513080D02*
X573770D01*
X572770Y512080D02*
Y514080D01*
X571290Y489709D02*
X573290D01*
X572290Y488709D02*
Y490709D01*
X468870Y563850D02*
X470870D01*
X469870Y562850D02*
Y564850D01*
X481115Y549554D02*
X483115D01*
X482115Y548554D02*
Y550555D01*
X457470Y568960D02*
X459470D01*
X458470Y567960D02*
Y569960D01*
X692732Y782767D02*
X694732D01*
X693732Y781767D02*
Y783767D01*
X397780Y314960D02*
X399780D01*
X398780Y313960D02*
Y315960D01*
X391430Y307340D02*
X393430D01*
X392430Y306340D02*
Y308340D01*
X302949Y461010D02*
X304949D01*
X303949Y460010D02*
Y462010D01*
X561455Y709896D02*
X563455D01*
X562455Y708896D02*
Y710896D01*
X384814Y307545D02*
X386814D01*
X385814Y306545D02*
Y308545D01*
X384609Y314781D02*
X386609D01*
X385609Y313781D02*
Y315781D01*
X202200Y553720D02*
X204200D01*
X203200Y552720D02*
Y554720D01*
X218710Y537210D02*
X220710D01*
X219710Y536210D02*
Y538210D01*
X301260Y528320D02*
X303260D01*
X302260Y527320D02*
Y529320D01*
X809078Y705032D02*
X811078D01*
X810078Y704032D02*
Y706032D01*
X752988Y741680D02*
X754988D01*
X753988Y740680D02*
Y742680D01*
X764128Y741680D02*
X766128D01*
X765128Y740680D02*
Y742680D01*
X162206Y179472D02*
X164205D01*
X163206Y178472D02*
Y180472D01*
X162020Y173230D02*
X164021D01*
X163020Y172230D02*
Y174230D01*
X843550Y375920D02*
X845550D01*
X844550Y374920D02*
Y376920D01*
X726710Y758190D02*
X728710D01*
X727710Y757190D02*
Y759190D01*
X372380Y756920D02*
X374380D01*
X373380Y755920D02*
Y757920D01*
X856250Y356358D02*
X858250D01*
X857250Y355358D02*
Y357358D01*
X221112Y198484D02*
X223112D01*
X222112Y197484D02*
Y199484D01*
X162195Y187960D02*
X164195D01*
X163195Y186960D02*
Y188960D01*
X831643Y290830D02*
X833643D01*
X832643Y289830D02*
Y291830D01*
X831643Y266700D02*
X833643D01*
X832643Y265700D02*
Y267700D01*
X831643Y279400D02*
X833643D01*
X832643Y278400D02*
Y280400D01*
X317311Y660520D02*
X319311D01*
X318311Y659520D02*
Y661520D01*
X317680Y680640D02*
X319680D01*
X318680Y679640D02*
Y681640D01*
X348250Y580390D02*
X350250D01*
X349250Y579390D02*
Y581390D01*
X318276Y700570D02*
X320276D01*
X319276Y699570D02*
Y701570D01*
X288657Y702095D02*
X290657D01*
X289657Y701095D02*
Y703095D01*
X340431Y647700D02*
X342431D01*
X341431Y646700D02*
Y648700D01*
X307805Y217610D02*
X309805D01*
X308805Y216610D02*
Y218610D01*
X391430Y294640D02*
X393430D01*
X392430Y293640D02*
Y295640D01*
X307610Y177730D02*
X309610D01*
X308610Y176730D02*
Y178730D01*
X404130Y306070D02*
X406130D01*
X405130Y305070D02*
Y307070D01*
X307610Y197730D02*
X309610D01*
X308610Y196730D02*
Y198730D01*
X318000Y237730D02*
X320000D01*
X319000Y236730D02*
Y238730D01*
X308977Y259185D02*
X310977D01*
X309977Y258185D02*
Y260185D01*
X348000Y227730D02*
X350000D01*
X349000Y226730D02*
Y228730D01*
X372380Y226060D02*
X374380D01*
X373380Y225060D02*
Y227060D01*
X401030Y403370D02*
X403030D01*
X402030Y402370D02*
Y404370D01*
X292761Y101869D02*
X294761D01*
X293761Y100869D02*
Y102869D01*
X407530Y429124D02*
X409530D01*
X408530Y428124D02*
Y430124D01*
X427030Y448870D02*
X429030D01*
X428030Y447870D02*
Y449870D01*
X420530Y448870D02*
X422530D01*
X421530Y447870D02*
Y449870D01*
X375030Y468370D02*
X377030D01*
X376030Y467370D02*
Y469370D01*
X369737Y445328D02*
X371737D01*
X370737Y444328D02*
Y446328D01*
X401129Y455329D02*
X403129D01*
X402129Y454329D02*
Y456329D01*
X381530Y481370D02*
X383530D01*
X382530Y480370D02*
Y482370D01*
X372398Y516139D02*
X374398D01*
X373398Y515139D02*
Y517139D01*
X388030Y481370D02*
X390030D01*
X389030Y480370D02*
Y482370D01*
X401019Y481199D02*
X403019D01*
X402019Y480199D02*
Y482198D01*
X472612Y461930D02*
X474613D01*
X473613Y460930D02*
Y462930D01*
X509924Y499110D02*
X511924D01*
X510924Y498110D02*
Y500110D01*
X466030Y468370D02*
X468030D01*
X467030Y467370D02*
Y469370D01*
X515337Y492788D02*
X517337D01*
X516337Y491788D02*
Y493788D01*
X472530Y468370D02*
X474530D01*
X473530Y467370D02*
Y469370D01*
X474333Y513461D02*
X476333D01*
X475332Y512461D02*
Y514461D01*
X446530Y461870D02*
X448530D01*
X447530Y460870D02*
Y462870D01*
X453350Y481277D02*
X455350D01*
X454350Y480277D02*
Y482277D01*
X394530Y481370D02*
X396530D01*
X395530Y480370D02*
Y482370D01*
X372148Y339245D02*
X374148D01*
X373148Y338245D02*
Y340245D01*
X368228Y377545D02*
X370228D01*
X369228Y376545D02*
Y378545D01*
X394530Y377370D02*
X396530D01*
X395530Y376370D02*
Y378370D01*
X401030Y383870D02*
X403030D01*
X402030Y382870D02*
Y384870D01*
X401030Y409870D02*
X403030D01*
X402030Y408870D02*
Y410870D01*
X514620Y480060D02*
X516620D01*
X515620Y479060D02*
Y481060D01*
X274590Y466090D02*
X276590D01*
X275590Y465090D02*
Y467090D01*
X212360Y236220D02*
X214360D01*
X213360Y235220D02*
Y237220D01*
X165370Y231140D02*
X167370D01*
X166370Y230140D02*
Y232140D01*
X611260Y272620D02*
X613260D01*
X612260Y271620D02*
Y273620D01*
X444518Y613844D02*
X446517D01*
X445518Y612844D02*
Y614844D01*
X424450Y694690D02*
X426450D01*
X425450Y693690D02*
Y695690D01*
X482870Y699770D02*
X484870D01*
X483870Y698770D02*
Y700770D01*
X465090Y619760D02*
X467090D01*
X466090Y618760D02*
Y620760D01*
X174260Y313690D02*
X176260D01*
X175260Y312690D02*
Y314690D01*
X212474Y313300D02*
X214474D01*
X213474Y312300D02*
Y314300D01*
X433625Y448785D02*
X435625D01*
X434625Y447785D02*
Y449785D01*
X575955Y722146D02*
X577955D01*
X576955Y721146D02*
Y723146D01*
X575955Y717904D02*
X577955D01*
X576955Y716904D02*
Y718904D01*
X580455Y717904D02*
X582455D01*
X581455Y716904D02*
Y718904D01*
X579647Y755967D02*
X581647D01*
X580647Y754967D02*
Y756967D01*
X579647Y761717D02*
X581647D01*
X580647Y760717D02*
Y762717D01*
X575955Y701928D02*
X577955D01*
X576955Y700928D02*
Y702928D01*
X575955Y697432D02*
X577955D01*
X576955Y696432D02*
Y698432D01*
X580455Y701928D02*
X582455D01*
X581455Y700928D02*
Y702928D01*
X579647Y664217D02*
X581647D01*
X580647Y663217D02*
Y665217D01*
X579647Y670217D02*
X581647D01*
X580647Y669217D02*
Y671217D01*
X579647Y658467D02*
X581647D01*
X580647Y657467D02*
Y659467D01*
X579647Y652717D02*
X581647D01*
X580647Y651717D02*
Y653717D01*
X649159Y701959D02*
X651159D01*
X650159Y700959D02*
Y702959D01*
X646807Y663896D02*
X648807D01*
X647807Y662896D02*
Y664896D01*
X646807Y658146D02*
X648807D01*
X647807Y657146D02*
Y659146D01*
X646807Y669646D02*
X648807D01*
X647807Y668646D02*
Y670646D01*
X649159Y697717D02*
X651159D01*
X650159Y696717D02*
Y698717D01*
X649159Y717936D02*
X651159D01*
X650159Y716936D02*
Y718936D01*
X649159Y722432D02*
X651159D01*
X650159Y721432D02*
Y723432D01*
X646807Y749646D02*
X648807D01*
X647807Y748646D02*
Y750646D01*
X646807Y755646D02*
X648807D01*
X647807Y754646D02*
Y756646D01*
X244502Y775287D02*
X246502D01*
X245502Y774287D02*
Y776287D01*
X280570Y794779D02*
X282570D01*
X281570Y793779D02*
Y795779D01*
X269570Y794779D02*
X271570D01*
X270570Y793779D02*
Y795779D01*
X291570Y794779D02*
X293570D01*
X292570Y793779D02*
Y795779D01*
X346570Y794779D02*
X348570D01*
X347570Y793779D02*
Y795779D01*
X335570Y794779D02*
X337570D01*
X336570Y793779D02*
Y795779D01*
X313570Y794779D02*
X315570D01*
X314570Y793779D02*
Y795779D01*
X165370Y222250D02*
X167370D01*
X166370Y221250D02*
Y223250D01*
X214900Y222250D02*
X216900D01*
X215900Y221250D02*
Y223250D01*
X237680Y680640D02*
X239680D01*
X238680Y679640D02*
Y681640D01*
X258000Y237730D02*
X260000D01*
X259000Y236730D02*
Y238730D01*
X589123Y677120D02*
X591123D01*
X590123Y676120D02*
Y678120D01*
X257640Y368334D02*
X259640D01*
X258640Y367334D02*
Y369334D01*
X368489Y403289D02*
X370489D01*
X369489Y402289D02*
Y404289D01*
X374997Y403289D02*
X376997D01*
X375998Y402289D02*
Y404289D01*
X270185Y382179D02*
X272185D01*
X271185Y381179D02*
Y383179D01*
X381530Y409870D02*
X383530D01*
X382530Y408870D02*
Y410870D01*
X294910Y406400D02*
X296910D01*
X295910Y405400D02*
Y407400D01*
X283480Y392430D02*
X285480D01*
X284480Y391430D02*
Y393430D01*
X375630Y410789D02*
X377630D01*
X376629Y409789D02*
Y411789D01*
X299990Y416560D02*
X301990D01*
X300990Y415560D02*
Y417560D01*
X275860Y401320D02*
X277860D01*
X276860Y400320D02*
Y402320D01*
X576147Y94067D02*
X578147D01*
X577147Y93067D02*
Y95067D01*
X561181Y94067D02*
X563181D01*
X562181Y93067D02*
Y95067D01*
X375248Y377370D02*
X377248D01*
X376248Y376370D02*
Y378370D01*
X587295Y651129D02*
X589295D01*
X588295Y650129D02*
Y652129D01*
X581702Y558182D02*
X583702D01*
X582702Y557182D02*
Y559182D01*
X465775Y603681D02*
X467775D01*
X466775Y602682D02*
Y604682D01*
X465625Y611525D02*
X467626D01*
X466626Y610525D02*
Y612525D01*
X468392Y791972D02*
X470392D01*
X469392Y790972D02*
Y792972D01*
X169180Y651510D02*
X171180D01*
X170180Y650510D02*
Y652510D01*
X405695Y562922D02*
X407696D01*
X406696Y561922D02*
Y563922D01*
X161704Y651744D02*
X163704D01*
X162704Y650744D02*
Y652744D01*
X158954Y661907D02*
X160954D01*
X159954Y660907D02*
Y662907D01*
X159020Y671830D02*
X161020D01*
X160020Y670830D02*
Y672830D01*
X162830Y161290D02*
X164830D01*
X163830Y160290D02*
Y162290D01*
X162830Y151130D02*
X164830D01*
X163830Y150130D02*
Y152130D01*
X301260Y515620D02*
X303260D01*
X302260Y514620D02*
Y516620D01*
X433530Y416370D02*
X435530D01*
X434530Y415370D02*
Y417370D01*
X553780Y272620D02*
X555780D01*
X554780Y271620D02*
Y273620D01*
X535780Y252620D02*
X537780D01*
X536780Y251620D02*
Y253620D01*
X601780Y280620D02*
X603780D01*
X602780Y279620D02*
Y281620D01*
X561780Y264620D02*
X563780D01*
X562780Y263620D02*
Y265620D01*
X545780Y280620D02*
X547780D01*
X546780Y279620D02*
Y281620D01*
X601780Y264620D02*
X603780D01*
X602780Y263620D02*
Y265620D01*
X478780Y384120D02*
X480780D01*
X479780Y383120D02*
Y385120D01*
X561780Y272620D02*
X563780D01*
X562780Y271620D02*
Y273620D01*
X553530Y288370D02*
X555530D01*
X554530Y287370D02*
Y289370D01*
X440030Y403370D02*
X442030D01*
X441030Y402370D02*
Y404370D01*
X601780Y288620D02*
X603780D01*
X602780Y287620D02*
Y289620D01*
X553780Y280620D02*
X555780D01*
X554780Y279620D02*
Y281620D01*
X585780Y280620D02*
X587780D01*
X586780Y279620D02*
Y281620D01*
X472530Y403110D02*
X474530D01*
X473530Y402110D02*
Y404110D01*
X440030Y429370D02*
X442030D01*
X441030Y428370D02*
Y430370D01*
X612780Y328370D02*
X614780D01*
X613780Y327370D02*
Y329370D01*
X553780Y320620D02*
X555780D01*
X554780Y319620D02*
Y321620D01*
X593780Y288620D02*
X595780D01*
X594780Y287620D02*
Y289620D01*
X465637Y410130D02*
X467637D01*
X466637Y409130D02*
Y411130D01*
X440030Y422870D02*
X442030D01*
X441030Y421870D02*
Y423870D01*
X609280Y312620D02*
X611280D01*
X610280Y311620D02*
Y313620D01*
X593780Y280620D02*
X595780D01*
X594780Y279620D02*
Y281620D01*
X553780Y312620D02*
X555780D01*
X554780Y311620D02*
Y313620D01*
X612780Y322370D02*
X614780D01*
X613780Y321370D02*
Y323370D01*
X446583Y435785D02*
X448583D01*
X447583Y434785D02*
Y436786D01*
X601780Y304620D02*
X603780D01*
X602780Y303620D02*
Y305620D01*
X453030Y409870D02*
X455030D01*
X454030Y408870D02*
Y410870D01*
X601780Y296620D02*
X603780D01*
X602780Y295620D02*
Y297620D01*
X545780Y296620D02*
X547780D01*
X546780Y295620D02*
Y297620D01*
X459653Y383870D02*
X461653D01*
X460653Y382870D02*
Y384870D01*
X466030Y383870D02*
X468030D01*
X467030Y382870D02*
Y384870D01*
X553780Y304620D02*
X555780D01*
X554780Y303620D02*
Y305620D01*
X593780Y296620D02*
X595780D01*
X594780Y295620D02*
Y297620D01*
X459337Y409728D02*
X461337D01*
X460337Y408728D02*
Y410728D01*
X553780Y296620D02*
X555780D01*
X554780Y295620D02*
Y297620D01*
X459936Y377120D02*
X461936D01*
X460936Y376120D02*
Y378120D01*
X538750Y765810D02*
X540750D01*
X539750Y764810D02*
Y766810D01*
X533670Y741934D02*
X535670D01*
X534670Y740934D02*
Y742934D01*
X536718Y735838D02*
X538718D01*
X537718Y734838D02*
Y736838D01*
X689736Y735838D02*
X691736D01*
X690736Y734838D02*
Y736838D01*
X692784Y741934D02*
X694784D01*
X693784Y740934D02*
Y742934D01*
X692462Y754111D02*
X694462D01*
X693462Y753111D02*
Y755111D01*
X687704Y765810D02*
X689704D01*
X688704Y764810D02*
Y766810D01*
X606078Y94067D02*
X608078D01*
X607078Y93067D02*
Y95067D01*
X590927Y94070D02*
X592927D01*
X591927Y93070D02*
Y95070D01*
X786871Y757910D02*
X788871D01*
X787871Y756910D02*
Y758910D01*
X769699Y735455D02*
X771699D01*
X770699Y734455D02*
Y736455D01*
X758558Y735455D02*
X760558D01*
X759558Y734455D02*
Y736455D01*
X573205Y688217D02*
X575205D01*
X574205Y687217D02*
Y689217D01*
X568455Y688217D02*
X570455D01*
X569455Y687217D02*
Y689217D01*
X563955Y688217D02*
X565955D01*
X564955Y687217D02*
Y689217D01*
X573205Y731646D02*
X575205D01*
X574205Y730646D02*
Y732646D01*
X568455Y731646D02*
X570455D01*
X569455Y730646D02*
Y732646D01*
X563955Y731646D02*
X565955D01*
X564955Y730646D02*
Y732646D01*
X560474Y766529D02*
X562474D01*
X561474Y765529D02*
Y767529D01*
X639179Y765647D02*
X641179D01*
X640179Y764647D02*
Y766647D01*
X662953Y828829D02*
X664953D01*
X663953Y827829D02*
Y829829D01*
X181146Y276007D02*
X183146D01*
X182146Y275007D02*
Y277006D01*
X189500Y150992D02*
X191500D01*
X190500Y149992D02*
Y151992D01*
X189500Y161290D02*
X191500D01*
X190500Y160290D02*
Y162290D01*
X637810Y523240D02*
X639810D01*
X638810Y522240D02*
Y524240D01*
X618870Y841104D02*
X620870D01*
X619870Y840104D02*
Y842104D01*
X577601Y591767D02*
X579601D01*
X578601Y590767D02*
Y592767D01*
X619392Y546030D02*
X621392D01*
X620392Y545030D02*
Y547030D01*
X787011Y768210D02*
X789011D01*
X788011Y767210D02*
Y769210D01*
X616220Y483870D02*
X618220D01*
X617220Y482870D02*
Y484870D01*
X616220Y492760D02*
X618220D01*
X617220Y491760D02*
Y493760D01*
X603187Y523224D02*
X605187D01*
X604187Y522224D02*
Y524224D01*
X653919Y828794D02*
X655919D01*
X654919Y827794D02*
Y829794D01*
X567383Y828794D02*
X569383D01*
X568383Y827794D02*
Y829794D01*
X601328Y653171D02*
X603328D01*
X602328Y652171D02*
Y654171D01*
X658056Y782109D02*
X660057D01*
X659056Y781109D02*
Y783109D01*
X571697Y782109D02*
X573697D01*
X572696Y781109D02*
Y783109D01*
X562119Y574116D02*
X564119D01*
X563119Y573116D02*
Y575116D01*
X548910Y574040D02*
X550910D01*
X549910Y573040D02*
Y575040D01*
X555514Y574040D02*
X557514D01*
X556514Y573040D02*
Y575040D01*
X432070Y566420D02*
X434070D01*
X433070Y565420D02*
Y567420D01*
X267704Y505877D02*
X269704D01*
X268704Y504877D02*
Y506876D01*
X205474Y276007D02*
X207474D01*
X206474Y275007D02*
Y277006D01*
X532400Y486410D02*
X534400D01*
X533400Y485410D02*
Y487410D01*
X375033Y445370D02*
X377033D01*
X376033Y444370D02*
Y446370D01*
X387716Y445370D02*
X389716D01*
X388716Y444370D02*
Y446370D01*
X423780Y462370D02*
X425780D01*
X424780Y461370D02*
Y463370D01*
X381657Y461488D02*
X383657D01*
X382657Y460489D02*
Y462489D01*
X425720Y675640D02*
X427720D01*
X426720Y674640D02*
Y676640D01*
X466360Y487680D02*
X468360D01*
X467360Y486680D02*
Y488680D01*
X389398Y748284D02*
X391398D01*
X390398Y747284D02*
Y749284D01*
X415560Y753110D02*
X417560D01*
X416560Y752110D02*
Y754110D01*
X417846Y730758D02*
X419846D01*
X418846Y729758D02*
Y731758D01*
X612213Y799455D02*
X614213D01*
X613213Y798455D02*
Y800455D01*
X580205Y709896D02*
X582205D01*
X581205Y708896D02*
Y710896D01*
X573955Y709896D02*
X575955D01*
X574955Y708896D02*
Y710896D01*
X567705Y709896D02*
X569705D01*
X568705Y708896D02*
Y710896D01*
X725186Y231888D02*
X727186D01*
X726186Y230888D02*
Y232888D01*
X734584Y232142D02*
X736584D01*
X735584Y231142D02*
Y233142D01*
X734584Y206248D02*
X736584D01*
X735584Y205248D02*
Y207248D01*
X725186Y206502D02*
X727186D01*
X726186Y205502D02*
Y207502D01*
X751048Y334010D02*
X753048D01*
X752048Y333010D02*
Y335010D01*
X742158Y334010D02*
X744158D01*
X743158Y333010D02*
Y335010D01*
X772430Y334010D02*
X774430D01*
X773430Y333010D02*
Y335010D01*
X763540Y334010D02*
X765540D01*
X764540Y333010D02*
Y335010D01*
X494144Y451319D02*
X496144D01*
X495144Y450319D02*
Y452319D01*
X437880Y813852D02*
X439880D01*
X438880Y812852D02*
Y814852D01*
X450040Y813947D02*
X452040D01*
X451040Y812947D02*
Y814947D01*
X401030Y474870D02*
X403030D01*
X402030Y473870D02*
Y475870D01*
X302570Y794779D02*
X304570D01*
X303570Y793779D02*
Y795779D01*
X324570Y794779D02*
X326570D01*
X325570Y793779D02*
Y795779D01*
X336860Y160166D02*
X338860D01*
X337860Y159166D02*
Y161166D01*
X437468Y704187D02*
X439468D01*
X438468Y703187D02*
Y705187D01*
X288378Y279400D02*
X290378D01*
X289378Y278400D02*
Y280400D01*
X288378Y267890D02*
X290378D01*
X289378Y266890D02*
Y268890D01*
X297631Y217610D02*
X299631D01*
X298631Y216610D02*
Y218610D01*
X288000Y177730D02*
X290000D01*
X289000Y176730D02*
Y178730D01*
X288000Y197730D02*
X290000D01*
X289000Y196730D02*
Y198730D01*
X288000Y207730D02*
X290000D01*
X289000Y206730D02*
Y208730D01*
X288000Y217730D02*
X290000D01*
X289000Y216730D02*
Y218730D01*
X288000Y237730D02*
X290000D01*
X289000Y236730D02*
Y238730D01*
X288000Y227730D02*
X290000D01*
X289000Y226730D02*
Y228730D01*
X288000Y247730D02*
X290000D01*
X289000Y246730D02*
Y248730D01*
X288378Y257730D02*
X290378D01*
X289378Y256730D02*
Y258730D01*
X338000Y227730D02*
X340000D01*
X339000Y226730D02*
Y228730D01*
X318000Y247730D02*
X320000D01*
X319000Y246730D02*
Y248730D01*
X268000Y247730D02*
X270000D01*
X269000Y246730D02*
Y248730D01*
X268000Y237730D02*
X270000D01*
X269000Y236730D02*
Y238730D01*
X268000Y217730D02*
X270000D01*
X269000Y216730D02*
Y218730D01*
X268000Y197730D02*
X270000D01*
X269000Y196730D02*
Y198730D01*
X268000Y187730D02*
X270000D01*
X269000Y186730D02*
Y188730D01*
X288000Y187730D02*
X290000D01*
X289000Y186730D02*
Y188730D01*
X318000Y257730D02*
X320000D01*
X319000Y256730D02*
Y258730D01*
X268000Y177730D02*
X270000D01*
X269000Y176730D02*
Y178730D01*
X268000Y227730D02*
X270000D01*
X269000Y226730D02*
Y228730D01*
X358065Y247572D02*
X360065D01*
X359065Y246572D02*
Y248572D01*
X298577Y237757D02*
X300577D01*
X299577Y236757D02*
Y238757D01*
X327923Y207199D02*
X329923D01*
X328923Y206199D02*
Y208199D01*
X337814Y207547D02*
X339814D01*
X338814Y206547D02*
Y208547D01*
X319256Y188615D02*
X321255D01*
X320256Y187614D02*
Y189615D01*
X318617Y178458D02*
X320617D01*
X319617Y177458D02*
Y179458D01*
X358000Y197730D02*
X360000D01*
X359000Y196730D02*
Y198730D01*
X337680Y640640D02*
X339680D01*
X338680Y639640D02*
Y641640D01*
X213558Y696986D02*
X215558D01*
X214558Y695986D02*
Y697986D01*
X223810Y696986D02*
X225810D01*
X224810Y695986D02*
Y697986D01*
X298297Y621368D02*
X300297D01*
X299297Y620368D02*
Y622368D01*
X317494Y650457D02*
X319494D01*
X318494Y649457D02*
Y651457D01*
X307603Y650109D02*
X309603D01*
X308603Y649109D02*
Y651109D01*
X348608Y661315D02*
X350608D01*
X349608Y660315D02*
Y662315D01*
X297680Y670140D02*
X299680D01*
X298680Y669140D02*
Y671140D01*
X278257Y680667D02*
X280257D01*
X279257Y679667D02*
Y681667D01*
X247680Y670640D02*
X249680D01*
X248680Y669640D02*
Y671640D01*
X247680Y650640D02*
X249680D01*
X248680Y649640D02*
Y651640D01*
X247680Y620640D02*
X249680D01*
X248680Y619640D02*
Y621640D01*
X297680Y700640D02*
X299680D01*
X298680Y699640D02*
Y701640D01*
X267680Y630640D02*
X269680D01*
X268680Y629640D02*
Y631640D01*
X247680Y630640D02*
X249680D01*
X248680Y629640D02*
Y631640D01*
X247680Y640640D02*
X249680D01*
X248680Y639640D02*
Y641640D01*
X247680Y660640D02*
X249680D01*
X248680Y659640D02*
Y661640D01*
X247680Y680640D02*
X249680D01*
X248680Y679640D02*
Y681640D01*
X247680Y690640D02*
X249680D01*
X248680Y689640D02*
Y691640D01*
X337680Y630640D02*
X339680D01*
X338680Y629640D02*
Y631640D01*
X317680Y670640D02*
X319680D01*
X318680Y669640D02*
Y671640D01*
X268058Y700640D02*
X270058D01*
X269058Y699640D02*
Y701640D01*
X267680Y690640D02*
X269680D01*
X268680Y689640D02*
Y691640D01*
X267680Y670640D02*
X269680D01*
X268680Y669640D02*
Y671640D01*
X267680Y680640D02*
X269680D01*
X268680Y679640D02*
Y681640D01*
X267680Y660640D02*
X269680D01*
X268680Y659640D02*
Y661640D01*
X267680Y650640D02*
X269680D01*
X268680Y649640D02*
Y651640D01*
X267680Y640640D02*
X269680D01*
X268680Y639640D02*
Y641640D01*
X267680Y620640D02*
X269680D01*
X268680Y619640D02*
Y621640D01*
X277311Y660520D02*
X279311D01*
X278311Y659520D02*
Y661520D01*
X503640Y341957D02*
X505640D01*
X504640Y340957D02*
Y342957D01*
X453030Y455370D02*
X455030D01*
X454030Y454370D02*
Y456370D01*
X501578Y312106D02*
X503578D01*
X502578Y311106D02*
Y313106D01*
X394530Y409870D02*
X396530D01*
X395530Y408870D02*
Y410870D01*
X362030Y494370D02*
X364030D01*
X363030Y493370D02*
Y495370D01*
X461530Y445620D02*
X463530D01*
X462530Y444620D02*
Y446620D01*
X459530Y403370D02*
X461530D01*
X460530Y402370D02*
Y404370D01*
X593780Y272620D02*
X595780D01*
X594780Y271620D02*
Y273620D01*
X593780Y264620D02*
X595780D01*
X594780Y263620D02*
Y265620D01*
X402071Y363416D02*
X404072D01*
X403072Y362416D02*
Y364416D01*
X402422Y377106D02*
X404422D01*
X403422Y376106D02*
Y378106D01*
X633769Y272810D02*
X635769D01*
X634768Y271810D02*
Y273810D01*
X601780Y224620D02*
X603780D01*
X602780Y223620D02*
Y225620D01*
X601780Y216620D02*
X603780D01*
X602780Y215620D02*
Y217620D01*
X611514Y204489D02*
X613514D01*
X612514Y203489D02*
Y205489D01*
X611514Y212329D02*
X613514D01*
X612514Y211329D02*
Y213329D01*
X394421Y462074D02*
X396421D01*
X395421Y461074D02*
Y463074D01*
X387918Y462074D02*
X389918D01*
X388918Y461074D02*
Y463074D01*
X439951Y416548D02*
X441951D01*
X440951Y415548D02*
Y417548D01*
X466030Y403110D02*
X468030D01*
X467030Y402110D02*
Y404110D01*
X535780Y236620D02*
X537780D01*
X536780Y235620D02*
Y237620D01*
X535780Y228620D02*
X537780D01*
X536780Y227620D02*
Y229620D01*
X535780Y220620D02*
X537780D01*
X536780Y219620D02*
Y221620D01*
X535905Y212770D02*
X537905D01*
X536905Y211770D02*
Y213770D01*
X606145Y191733D02*
X608145D01*
X607145Y190733D02*
Y192733D01*
X535780Y196620D02*
X537780D01*
X536780Y195620D02*
Y197620D01*
X535780Y204620D02*
X537780D01*
X536780Y203620D02*
Y205620D01*
X459530Y390370D02*
X461530D01*
X460530Y389370D02*
Y391370D01*
X388030Y409870D02*
X390030D01*
X389030Y408870D02*
Y410870D01*
X381530Y396870D02*
X383530D01*
X382530Y395870D02*
Y397870D01*
X368530Y383870D02*
X370530D01*
X369530Y382870D02*
Y384870D01*
X485530Y370870D02*
X487530D01*
X486530Y369870D02*
Y371870D01*
X436780Y481870D02*
X438780D01*
X437780Y480870D02*
Y482870D01*
X423780Y501870D02*
X425780D01*
X424780Y500870D02*
Y502870D01*
X593780Y248620D02*
X595780D01*
X594780Y247620D02*
Y249620D01*
X593780Y232620D02*
X595780D01*
X594780Y231620D02*
Y233620D01*
X545780Y232620D02*
X547780D01*
X546780Y231620D02*
Y233620D01*
X585780Y240620D02*
X587780D01*
X586780Y239620D02*
Y241620D01*
X545780Y264620D02*
X547780D01*
X546780Y263620D02*
Y265620D01*
X545780Y216620D02*
X547780D01*
X546780Y215620D02*
Y217620D01*
X545780Y208620D02*
X547780D01*
X546780Y207620D02*
Y209620D01*
X611780Y292620D02*
X613780D01*
X612780Y291620D02*
Y293620D01*
X611780Y300620D02*
X613780D01*
X612780Y299620D02*
Y301620D01*
X553780Y264620D02*
X555780D01*
X554780Y263620D02*
Y265620D01*
X535780Y292620D02*
X537780D01*
X536780Y291620D02*
Y293620D01*
X407530Y422870D02*
X409530D01*
X408530Y421870D02*
Y423870D01*
X407530Y416370D02*
X409530D01*
X408530Y415370D02*
Y417370D01*
X414030Y416370D02*
X416030D01*
X415030Y415370D02*
Y417370D01*
X401030Y390370D02*
X403030D01*
X402030Y389370D02*
Y391370D01*
X394530Y396870D02*
X396530D01*
X395530Y395870D02*
Y397870D01*
X446530Y403370D02*
X448530D01*
X447530Y402370D02*
Y404370D01*
X453030Y396870D02*
X455030D01*
X454030Y395870D02*
Y397870D01*
X611514Y228620D02*
X613514D01*
X612514Y227620D02*
Y229620D01*
X611514Y236620D02*
X613514D01*
X612514Y235620D02*
Y237620D01*
X611514Y244620D02*
X613514D01*
X612514Y243620D02*
Y245620D01*
X611780Y284620D02*
X613780D01*
X612780Y283620D02*
Y285620D01*
X611514Y252620D02*
X613514D01*
X612514Y251620D02*
Y253620D01*
X561780Y200620D02*
X563780D01*
X562780Y199620D02*
Y201620D01*
X535780Y244620D02*
X537780D01*
X536780Y243620D02*
Y245620D01*
X407530Y448870D02*
X409530D01*
X408530Y447870D02*
Y449870D01*
X388030Y390370D02*
X390030D01*
X389030Y389370D02*
Y391370D01*
X388030Y396870D02*
X390030D01*
X389030Y395870D02*
Y397870D01*
X381530Y390370D02*
X383530D01*
X382530Y389370D02*
Y391370D01*
X401030Y448870D02*
X403030D01*
X402030Y447870D02*
Y449870D01*
X388030Y468370D02*
X390030D01*
X389030Y467370D02*
Y469370D01*
X388030Y474870D02*
X390030D01*
X389030Y473870D02*
Y475870D01*
X381530Y474870D02*
X383530D01*
X382530Y473870D02*
Y475870D01*
X535780Y300620D02*
X537780D01*
X536780Y299620D02*
Y301620D01*
X466030Y390370D02*
X468030D01*
X467030Y389370D02*
Y391370D01*
X492530Y471620D02*
X494530D01*
X493530Y470620D02*
Y472620D01*
X492030Y494370D02*
X494030D01*
X493030Y493370D02*
Y495370D01*
X485530Y494370D02*
X487530D01*
X486530Y493370D02*
Y495370D01*
X612780Y308620D02*
X614780D01*
X613780Y307620D02*
Y309620D01*
X612780Y316620D02*
X614780D01*
X613780Y315620D02*
Y317620D01*
X446530Y409870D02*
X448530D01*
X447530Y408870D02*
Y410870D01*
X420530Y422870D02*
X422530D01*
X421530Y421870D02*
Y423870D01*
X440030Y455370D02*
X442030D01*
X441030Y454370D02*
Y456370D01*
X440030Y461870D02*
X442030D01*
X441030Y460870D02*
Y462870D01*
X436780Y468870D02*
X438780D01*
X437780Y467870D02*
Y469870D01*
X433530Y455370D02*
X435530D01*
X434530Y454370D02*
Y456370D01*
X427030Y422870D02*
X429030D01*
X428030Y421870D02*
Y423870D01*
X9171Y817087D02*
X11171D01*
X10171Y816087D02*
Y818087D01*
X9171Y862087D02*
X11171D01*
X10171Y861087D02*
Y863087D01*
X153023Y889826D02*
X155023D01*
X154023Y888826D02*
Y890826D01*
X72023Y889826D02*
X74023D01*
X73023Y888826D02*
Y890826D01*
X353902Y873825D02*
X355902D01*
X354902Y872825D02*
Y874825D01*
X272902Y873824D02*
X274902D01*
X273902Y872824D02*
Y874824D01*
X227902Y873824D02*
X229902D01*
X228902Y872824D02*
Y874824D01*
X614902Y873826D02*
X616902D01*
X615901Y872826D02*
Y874826D01*
X533902Y873826D02*
X535902D01*
X534902Y872826D02*
Y874826D01*
X452902Y873826D02*
X454902D01*
X453902Y872826D02*
Y874826D01*
X659901Y873826D02*
X661901D01*
X660901Y872826D02*
Y874826D01*
X816250Y889826D02*
X818250D01*
X817250Y888826D02*
Y890826D01*
X735250Y889826D02*
X737250D01*
X736250Y888826D02*
Y890826D01*
X914867Y880568D02*
X916867D01*
X915867Y879568D02*
Y881568D01*
X897250Y889848D02*
X899250D01*
X898250Y888848D02*
Y890848D01*
X918829Y800297D02*
X920829D01*
X919829Y799297D02*
Y801297D01*
X902829Y193979D02*
X904829D01*
X903829Y192979D02*
Y194979D01*
X902830Y274979D02*
X904829D01*
X903829Y273979D02*
Y275979D01*
X902830Y355979D02*
X904829D01*
X903829Y354979D02*
Y356979D01*
X902830Y400979D02*
X904829D01*
X903829Y399979D02*
Y401979D01*
X902830Y481979D02*
X904829D01*
X903829Y480979D02*
Y482979D01*
X902830Y517979D02*
X904829D01*
X903829Y516979D02*
Y518979D01*
X902830Y598979D02*
X904829D01*
X903829Y597979D02*
Y599979D01*
X902830Y679978D02*
X904829D01*
X903829Y678978D02*
Y680978D01*
X902830Y724978D02*
X904829D01*
X903829Y723978D02*
Y725978D01*
X918829Y74626D02*
X920829D01*
X919829Y73626D02*
Y75626D01*
X918829Y119626D02*
X920829D01*
X919829Y118626D02*
Y120626D01*
X9170Y40525D02*
X11170D01*
X10170Y39525D02*
Y41525D01*
X775685Y10171D02*
X777685D01*
X776685Y9171D02*
Y11171D01*
X892685Y10171D02*
X894685D01*
X893685Y9171D02*
Y11171D01*
X730693Y10550D02*
X732693D01*
X731693Y9550D02*
Y11550D01*
X69431Y10171D02*
X71431D01*
X70431Y9171D02*
Y11171D01*
X114431Y10171D02*
X116431D01*
X115431Y9171D02*
Y11171D01*
X575872Y26171D02*
X577872D01*
X576872Y25171D02*
Y27171D01*
X656872Y26172D02*
X658872D01*
X657872Y25172D02*
Y27172D01*
X195430Y10171D02*
X197430D01*
X196430Y9171D02*
Y11171D01*
X368872Y26170D02*
X370872D01*
X369872Y25171D02*
Y27171D01*
X449872Y26170D02*
X451872D01*
X450872Y25171D02*
Y27171D01*
X494872Y26170D02*
X496872D01*
X495872Y25171D02*
Y27171D01*
X287873Y26170D02*
X289872D01*
X288873Y25171D02*
Y27171D01*
X9171Y826087D02*
X11171D01*
X10171Y825087D02*
Y827087D01*
X36023Y889826D02*
X38023D01*
X37023Y888826D02*
Y890826D01*
X117023Y889826D02*
X119023D01*
X118023Y888826D02*
Y890826D01*
X197744Y887603D02*
X199744D01*
X198744Y886603D02*
Y888603D01*
X398902Y873825D02*
X400902D01*
X399902Y872825D02*
Y874825D01*
X317902Y873825D02*
X319902D01*
X318902Y872825D02*
Y874825D01*
X236902Y873824D02*
X238902D01*
X237902Y872824D02*
Y874824D01*
X578902Y873826D02*
X580902D01*
X579902Y872826D02*
Y874826D01*
X497902Y873826D02*
X499902D01*
X498902Y872826D02*
Y874826D01*
X416902Y873826D02*
X418902D01*
X417902Y872826D02*
Y874826D01*
X704901Y873826D02*
X706901D01*
X705901Y872826D02*
Y874826D01*
X623901Y873826D02*
X625901D01*
X624902Y872826D02*
Y874826D01*
X780250Y889826D02*
X782250D01*
X781250Y888826D02*
Y890826D01*
X861250Y889826D02*
X863250D01*
X862250Y888826D02*
Y890826D01*
X918829Y836297D02*
X920829D01*
X919829Y835297D02*
Y837297D01*
X902829Y229979D02*
X904829D01*
X903829Y228979D02*
Y230979D01*
X902830Y310979D02*
X904829D01*
X903829Y309979D02*
Y311979D01*
X902830Y391979D02*
X904829D01*
X903829Y390979D02*
Y392979D01*
X902830Y436979D02*
X904829D01*
X903829Y435979D02*
Y437979D01*
X902830Y553979D02*
X904829D01*
X903829Y552979D02*
Y554979D01*
X902830Y634978D02*
X904829D01*
X903829Y633979D02*
Y635979D01*
X902830Y715978D02*
X904829D01*
X903829Y714978D02*
Y716978D01*
X903767Y760929D02*
X905767D01*
X904767Y759929D02*
Y761929D01*
X902919Y148980D02*
X904919D01*
X903919Y147980D02*
Y149980D01*
X918829Y110626D02*
X920829D01*
X919829Y109626D02*
Y111626D01*
X918681Y29627D02*
X920681D01*
X919681Y28627D02*
Y30627D01*
X9170Y85525D02*
X11170D01*
X10170Y84525D02*
Y86525D01*
X811685Y10171D02*
X813685D01*
X812685Y9171D02*
Y11171D01*
X847685Y10171D02*
X849685D01*
X848685Y9171D02*
Y11171D01*
X766685Y10171D02*
X768685D01*
X767685Y9171D02*
Y11171D01*
X24484Y11144D02*
X26484D01*
X25484Y10144D02*
Y12145D01*
X105431Y10171D02*
X107431D01*
X106431Y9171D02*
Y11171D01*
X150430Y10171D02*
X152430D01*
X151431Y9171D02*
Y11171D01*
X530872Y26171D02*
X532872D01*
X531872Y25171D02*
Y27171D01*
X611872Y26172D02*
X613872D01*
X612872Y25171D02*
Y27171D01*
X692872Y26172D02*
X694872D01*
X693872Y25172D02*
Y27172D01*
X323872Y26170D02*
X325872D01*
X324873Y25171D02*
Y27171D01*
X404872Y26170D02*
X406872D01*
X405872Y25171D02*
Y27171D01*
X485872Y26170D02*
X487872D01*
X486872Y25171D02*
Y27171D01*
X224873Y26170D02*
X226873D01*
X225873Y25171D02*
Y27171D01*
X9375Y871085D02*
X11375D01*
X10375Y870085D02*
Y872085D01*
X162023Y889826D02*
X164023D01*
X163023Y888826D02*
Y890826D01*
X81023Y889826D02*
X83023D01*
X82023Y888826D02*
Y890826D01*
X202387Y879893D02*
X204387D01*
X203387Y878893D02*
Y880893D01*
X362902Y873825D02*
X364902D01*
X363902Y872825D02*
Y874825D01*
X281902Y873824D02*
X283902D01*
X282902Y872824D02*
Y874824D01*
X587901Y873826D02*
X589902D01*
X588901Y872826D02*
Y874826D01*
X542902Y873826D02*
X544902D01*
X543902Y872826D02*
Y874826D01*
X461902Y873826D02*
X463902D01*
X462902Y872826D02*
Y874826D01*
X668901Y873826D02*
X670901D01*
X669901Y872826D02*
Y874826D01*
X825250Y889826D02*
X827250D01*
X826250Y888826D02*
Y890826D01*
X744250Y889826D02*
X746250D01*
X745250Y888826D02*
Y890826D01*
X870250Y889826D02*
X872250D01*
X871250Y888826D02*
Y890826D01*
X918391Y872287D02*
X920391D01*
X919391Y871286D02*
Y873287D01*
X918829Y791297D02*
X920829D01*
X919829Y790297D02*
Y792297D01*
X902829Y184979D02*
X904829D01*
X903829Y183979D02*
Y185979D01*
X902829Y265979D02*
X904829D01*
X903829Y264979D02*
Y266979D01*
X902830Y346979D02*
X904829D01*
X903829Y345979D02*
Y347979D01*
X902830Y427979D02*
X904829D01*
X903829Y426979D02*
Y428979D01*
X902830Y472979D02*
X904829D01*
X903829Y471979D02*
Y473979D01*
X902830Y508979D02*
X904829D01*
X903829Y507979D02*
Y509979D01*
X902830Y589979D02*
X904829D01*
X903829Y588979D02*
Y590979D01*
X902830Y670978D02*
X904829D01*
X903829Y669978D02*
Y671978D01*
X902830Y751978D02*
X904829D01*
X903829Y750978D02*
Y752978D01*
X905356Y140316D02*
X907356D01*
X906356Y139316D02*
Y141316D01*
X918829Y65626D02*
X920829D01*
X919829Y64626D02*
Y66626D01*
X9170Y49525D02*
X11170D01*
X10170Y48525D02*
Y50525D01*
X802685Y10171D02*
X804685D01*
X803685Y9171D02*
Y11171D01*
X883685Y10171D02*
X885685D01*
X884685Y9171D02*
Y11171D01*
X726720Y18625D02*
X728719D01*
X727720Y17625D02*
Y19625D01*
X60431Y10171D02*
X62431D01*
X61431Y9171D02*
Y11171D01*
X186430Y10171D02*
X188431D01*
X187430Y9171D02*
Y11171D01*
X141431Y10171D02*
X143431D01*
X142431Y9171D02*
Y11171D01*
X521872Y26171D02*
X523872D01*
X522872Y25171D02*
Y27171D01*
X566872Y26171D02*
X568872D01*
X567872Y25171D02*
Y27171D01*
X647872Y26172D02*
X649872D01*
X648872Y25172D02*
Y27172D01*
X359872Y26170D02*
X361872D01*
X360872Y25171D02*
Y27171D01*
X440872Y26170D02*
X442872D01*
X441872Y25171D02*
Y27171D01*
X278873Y26170D02*
X280873D01*
X279873Y25171D02*
Y27171D01*
X260873Y26170D02*
X262873D01*
X261873Y25171D02*
Y27171D01*
X9171Y835087D02*
X11171D01*
X10171Y834087D02*
Y836087D01*
X126023Y889826D02*
X128023D01*
X127023Y888826D02*
Y890826D01*
X171023Y889826D02*
X173023D01*
X172023Y888826D02*
Y890826D01*
X45023Y889826D02*
X47023D01*
X46023Y888826D02*
Y890826D01*
X326902Y873825D02*
X328902D01*
X327902Y872825D02*
Y874825D01*
X245902Y873824D02*
X247902D01*
X246902Y872824D02*
Y874824D01*
X551902Y873826D02*
X553902D01*
X552902Y872826D02*
Y874826D01*
X506902Y873826D02*
X508902D01*
X507902Y872826D02*
Y874826D01*
X425902Y873826D02*
X427902D01*
X426902Y872826D02*
Y874826D01*
X632901Y873826D02*
X634901D01*
X633901Y872826D02*
Y874826D01*
X713897Y874110D02*
X715897D01*
X714897Y873110D02*
Y875110D01*
X834250Y889826D02*
X836250D01*
X835250Y888826D02*
Y890826D01*
X789250Y889826D02*
X791250D01*
X790250Y888826D02*
Y890826D01*
X918829Y782297D02*
X920829D01*
X919829Y781297D02*
Y783297D01*
X918829Y827297D02*
X920829D01*
X919829Y826297D02*
Y828297D01*
X902829Y175979D02*
X904829D01*
X903829Y174979D02*
Y176979D01*
X902829Y220979D02*
X904829D01*
X903829Y219979D02*
Y221979D01*
X902830Y301979D02*
X904829D01*
X903829Y300979D02*
Y302979D01*
X902830Y382979D02*
X904829D01*
X903829Y381979D02*
Y383979D01*
X902830Y463979D02*
X904829D01*
X903829Y462979D02*
Y464979D01*
X902830Y544979D02*
X904829D01*
X903829Y543979D02*
Y545979D01*
X902830Y625979D02*
X904829D01*
X903829Y624978D02*
Y626978D01*
X902830Y706978D02*
X904829D01*
X903829Y705978D02*
Y707978D01*
X918829Y101626D02*
X920829D01*
X919829Y100626D02*
Y102626D01*
X915874Y21076D02*
X917874D01*
X916874Y20076D02*
Y22076D01*
X9170Y94525D02*
X11170D01*
X10170Y93525D02*
Y95525D01*
X838685Y10171D02*
X840685D01*
X839685Y9171D02*
Y11171D01*
X757685Y10171D02*
X759685D01*
X758685Y9171D02*
Y11171D01*
X16654Y15583D02*
X18654D01*
X17654Y14583D02*
Y16583D01*
X96431Y10171D02*
X98431D01*
X97431Y9171D02*
Y11171D01*
X177430Y10171D02*
X179431D01*
X178431Y9171D02*
Y11171D01*
X557872Y26171D02*
X559872D01*
X558872Y25171D02*
Y27171D01*
X602872Y26171D02*
X604872D01*
X603872Y25171D02*
Y27171D01*
X683872Y26172D02*
X685872D01*
X684872Y25172D02*
Y27172D01*
X314872Y26170D02*
X316873D01*
X315872Y25171D02*
Y27171D01*
X395872Y26170D02*
X397872D01*
X396872Y25171D02*
Y27171D01*
X476872Y26170D02*
X478872D01*
X477872Y25171D02*
Y27171D01*
X215873Y26071D02*
X217873D01*
X216873Y25071D02*
Y27071D01*
X269873Y26170D02*
X271873D01*
X270873Y25171D02*
Y27171D01*
X12495Y879527D02*
X14495D01*
X13495Y878527D02*
Y880527D01*
X135023Y889826D02*
X137023D01*
X136023Y888826D02*
Y890826D01*
X90023Y889826D02*
X92023D01*
X91023Y888826D02*
Y890826D01*
X371902Y873825D02*
X373902D01*
X372902Y872825D02*
Y874825D01*
X290902Y873824D02*
X292902D01*
X291902Y872824D02*
Y874824D01*
X209990Y875078D02*
X211990D01*
X210990Y874078D02*
Y876078D01*
X596902Y873826D02*
X598901D01*
X597901Y872826D02*
Y874826D01*
X515902Y873826D02*
X517902D01*
X516902Y872826D02*
Y874826D01*
X470902Y873826D02*
X472902D01*
X471902Y872826D02*
Y874826D01*
X677901Y873826D02*
X679901D01*
X678901Y872826D02*
Y874826D01*
X798250Y889826D02*
X800250D01*
X799250Y888826D02*
Y890826D01*
X753250Y889826D02*
X755250D01*
X754250Y888826D02*
Y890826D01*
X879250Y889826D02*
X881250D01*
X880250Y888826D02*
Y890826D01*
X918829Y818297D02*
X920829D01*
X919829Y817297D02*
Y819297D01*
X918829Y863297D02*
X920829D01*
X919829Y862297D02*
Y864297D01*
X902829Y211979D02*
X904829D01*
X903829Y210979D02*
Y212979D01*
X902829Y256979D02*
X904829D01*
X903829Y255979D02*
Y257979D01*
X902830Y337979D02*
X904829D01*
X903829Y336979D02*
Y338979D01*
X902830Y418979D02*
X904829D01*
X903829Y417979D02*
Y419979D01*
X902830Y499979D02*
X904829D01*
X903829Y498979D02*
Y500979D01*
X902830Y535979D02*
X904829D01*
X903829Y534979D02*
Y536979D01*
X902830Y580979D02*
X904829D01*
X903829Y579979D02*
Y581979D01*
X902830Y661978D02*
X904829D01*
X903829Y660978D02*
Y662978D01*
X902830Y742978D02*
X904829D01*
X903829Y741978D02*
Y743978D01*
X911304Y133562D02*
X913304D01*
X912304Y132562D02*
Y134562D01*
X918829Y56626D02*
X920829D01*
X919829Y55626D02*
Y57626D01*
X9170Y58525D02*
X11170D01*
X10170Y57525D02*
Y59525D01*
X793685Y10171D02*
X795685D01*
X794685Y9171D02*
Y11171D01*
X874685Y10171D02*
X876685D01*
X875685Y9171D02*
Y11171D01*
X51431Y10171D02*
X53431D01*
X52431Y9171D02*
Y11171D01*
X132431Y10171D02*
X134431D01*
X133431Y9171D02*
Y11171D01*
X593872Y26171D02*
X595872D01*
X594872Y25171D02*
Y27171D01*
X638872Y26172D02*
X640872D01*
X639872Y25172D02*
Y27172D01*
X719652Y24198D02*
X721652D01*
X720652Y23198D02*
Y25198D01*
X207221Y23593D02*
X209221D01*
X208221Y22594D02*
Y24594D01*
X305872Y26170D02*
X307873D01*
X306873Y25171D02*
Y27171D01*
X350872Y26170D02*
X352872D01*
X351872Y25171D02*
Y27171D01*
X431872Y26170D02*
X433872D01*
X432872Y25171D02*
Y27171D01*
X512872Y26171D02*
X514872D01*
X513872Y25171D02*
Y27171D01*
X251873Y26170D02*
X253873D01*
X252873Y25171D02*
Y27171D01*
X9171Y844087D02*
X11171D01*
X10171Y843087D02*
Y845087D01*
X180023Y889826D02*
X182023D01*
X181023Y888826D02*
Y890826D01*
X99023Y889826D02*
X101023D01*
X100023Y888826D02*
Y890826D01*
X54023Y889826D02*
X56023D01*
X55023Y888826D02*
Y890826D01*
X380902Y873825D02*
X382902D01*
X381902Y872825D02*
Y874825D01*
X254902Y873824D02*
X256902D01*
X255902Y872824D02*
Y874824D01*
X335902Y873825D02*
X337902D01*
X336902Y872825D02*
Y874825D01*
X560902Y873826D02*
X562902D01*
X561902Y872826D02*
Y874826D01*
X479902Y873826D02*
X481902D01*
X480902Y872826D02*
Y874826D01*
X434902Y873826D02*
X436902D01*
X435902Y872826D02*
Y874826D01*
X641901Y873826D02*
X643901D01*
X642901Y872826D02*
Y874826D01*
X722279Y877388D02*
X724279D01*
X723279Y876388D02*
Y878388D01*
X762250Y889826D02*
X764250D01*
X763250Y888826D02*
Y890826D01*
X843250Y889826D02*
X845250D01*
X844250Y888826D02*
Y890826D01*
X918829Y854297D02*
X920829D01*
X919829Y853297D02*
Y855297D01*
X915575Y773906D02*
X917575D01*
X916575Y772906D02*
Y774906D01*
X902829Y166979D02*
X904829D01*
X903829Y165979D02*
Y167979D01*
X902829Y247979D02*
X904829D01*
X903829Y246979D02*
Y248979D01*
X902830Y292979D02*
X904829D01*
X903829Y291979D02*
Y293979D01*
X902830Y373979D02*
X904829D01*
X903829Y372979D02*
Y374979D01*
X902830Y454979D02*
X904829D01*
X903829Y453979D02*
Y455979D01*
X902830Y571979D02*
X904829D01*
X903829Y570979D02*
Y572979D01*
X902830Y616978D02*
X904829D01*
X903829Y615979D02*
Y617979D01*
X902830Y697978D02*
X904829D01*
X903829Y696978D02*
Y698978D01*
X918829Y92626D02*
X920829D01*
X919829Y91626D02*
Y93626D01*
X909898Y14346D02*
X911898D01*
X910898Y13347D02*
Y15346D01*
X9170Y67525D02*
X11170D01*
X10170Y66525D02*
Y68525D01*
X829685Y10171D02*
X831685D01*
X830685Y9171D02*
Y11171D01*
X865685Y10171D02*
X867685D01*
X866685Y9171D02*
Y11171D01*
X748685Y10171D02*
X750685D01*
X749685Y9171D02*
Y11171D01*
X11229Y22764D02*
X13229D01*
X12229Y21764D02*
Y23764D01*
X87431Y10171D02*
X89431D01*
X88431Y9171D02*
Y11171D01*
X168431Y10171D02*
X170431D01*
X169431Y9171D02*
Y11171D01*
X548872Y26171D02*
X550872D01*
X549872Y25171D02*
Y27171D01*
X629872Y26172D02*
X631872D01*
X630872Y25172D02*
Y27172D01*
X674872Y26172D02*
X676872D01*
X675872Y25172D02*
Y27172D01*
X341872Y26170D02*
X343872D01*
X342872Y25171D02*
Y27171D01*
X386872Y26170D02*
X388872D01*
X387872Y25171D02*
Y27171D01*
X467872Y26170D02*
X469872D01*
X468872Y25171D02*
Y27171D01*
X242873Y26170D02*
X244873D01*
X243873Y25171D02*
Y27171D01*
X18710Y886037D02*
X20710D01*
X19710Y885037D02*
Y887037D01*
X144023Y889826D02*
X146023D01*
X145023Y888826D02*
Y890826D01*
X63023Y889826D02*
X65023D01*
X64023Y888826D02*
Y890826D01*
X344902Y873825D02*
X346902D01*
X345902Y872825D02*
Y874825D01*
X299902Y873824D02*
X301902D01*
X300902Y872824D02*
Y874825D01*
X218902Y873824D02*
X220902D01*
X219902Y872824D02*
Y874824D01*
X605901Y873826D02*
X607901D01*
X606902Y872826D02*
Y874826D01*
X524902Y873826D02*
X526902D01*
X525902Y872826D02*
Y874826D01*
X443902Y873826D02*
X445902D01*
X444902Y872826D02*
Y874826D01*
X686901Y873826D02*
X688901D01*
X687901Y872826D02*
Y874826D01*
X807250Y889826D02*
X809250D01*
X808250Y888826D02*
Y890826D01*
X728410Y883977D02*
X730410D01*
X729410Y882977D02*
Y884977D01*
X888250Y889826D02*
X890250D01*
X889250Y888826D02*
Y890826D01*
X908253Y886672D02*
X910253D01*
X909253Y885672D02*
Y887672D01*
X918829Y809297D02*
X920829D01*
X919829Y808297D02*
Y810297D01*
X902829Y202979D02*
X904829D01*
X903829Y201979D02*
Y203979D01*
X902830Y283979D02*
X904829D01*
X903829Y282979D02*
Y284979D01*
X902830Y328979D02*
X904829D01*
X903829Y327979D02*
Y329979D01*
X902830Y409979D02*
X904829D01*
X903829Y408979D02*
Y410979D01*
X902830Y490979D02*
X904829D01*
X903829Y489979D02*
Y491979D01*
X902830Y526979D02*
X904829D01*
X903829Y525979D02*
Y527979D01*
X902830Y607979D02*
X904829D01*
X903829Y606978D02*
Y608979D01*
X902830Y652979D02*
X904829D01*
X903829Y651979D02*
Y653978D01*
X902830Y733978D02*
X904829D01*
X903829Y732978D02*
Y734978D01*
X918829Y128626D02*
X920829D01*
X919829Y127626D02*
Y129626D01*
X918829Y47626D02*
X920829D01*
X919829Y46626D02*
Y48626D01*
X901669Y10701D02*
X903669D01*
X902669Y9701D02*
Y11701D01*
X784685Y10171D02*
X786685D01*
X785685Y9171D02*
Y11171D01*
X9169Y31525D02*
X11170D01*
X10170Y30525D02*
Y32525D01*
X42431Y10171D02*
X44431D01*
X43431Y9171D02*
Y11171D01*
X123431Y10171D02*
X125431D01*
X124431Y9171D02*
Y11171D01*
X584872Y26171D02*
X586872D01*
X585872Y25171D02*
Y27171D01*
X665872Y26172D02*
X667872D01*
X666872Y25172D02*
Y27172D01*
X710872Y26172D02*
X712872D01*
X711872Y25173D02*
Y27173D01*
X200502Y17606D02*
X202502D01*
X201502Y16605D02*
Y18606D01*
X296873Y26170D02*
X298873D01*
X297873Y25171D02*
Y27171D01*
X377872Y26170D02*
X379872D01*
X378872Y25171D02*
Y27171D01*
X422872Y26170D02*
X424872D01*
X423872Y25171D02*
Y27171D01*
X503872Y26170D02*
X505872D01*
X504872Y25171D02*
Y27171D01*
X9171Y853087D02*
X11171D01*
X10171Y852087D02*
Y854087D01*
X189023Y889826D02*
X191023D01*
X190023Y888826D02*
Y890826D01*
X108023Y889826D02*
X110023D01*
X109023Y888826D02*
Y890826D01*
X27030Y889467D02*
X29030D01*
X28030Y888467D02*
Y890467D01*
X407902Y873826D02*
X409902D01*
X408902Y872825D02*
Y874826D01*
X389902Y873825D02*
X391902D01*
X390902Y872825D02*
Y874825D01*
X263902Y873824D02*
X265902D01*
X264902Y872824D02*
Y874824D01*
X308902Y873825D02*
X310902D01*
X309902Y872825D02*
Y874825D01*
X569902Y873826D02*
X571902D01*
X570902Y872826D02*
Y874826D01*
X488902Y873826D02*
X490902D01*
X489902Y872826D02*
Y874826D01*
X695901Y873826D02*
X697901D01*
X696901Y872826D02*
Y874826D01*
X650901Y873826D02*
X652901D01*
X651901Y872826D02*
Y874826D01*
X771250Y889826D02*
X773250D01*
X772250Y888826D02*
Y890826D01*
X852250Y889826D02*
X854250D01*
X853250Y888826D02*
Y890826D01*
X918829Y845297D02*
X920829D01*
X919829Y844297D02*
Y846297D01*
X908184Y768771D02*
X910184D01*
X909184Y767771D02*
Y769771D01*
X902829Y157979D02*
X904829D01*
X903829Y156979D02*
Y158979D01*
X902829Y238979D02*
X904829D01*
X903829Y237979D02*
Y239979D01*
X902830Y319979D02*
X904829D01*
X903829Y318979D02*
Y320979D01*
X902830Y364979D02*
X904829D01*
X903829Y363979D02*
Y365979D01*
X902830Y445979D02*
X904829D01*
X903829Y444979D02*
Y446979D01*
X902830Y562979D02*
X904829D01*
X903829Y561979D02*
Y563979D01*
X902830Y643979D02*
X904829D01*
X903829Y642979D02*
Y644978D01*
X902830Y688978D02*
X904829D01*
X903829Y687978D02*
Y689978D01*
X918829Y83626D02*
X920829D01*
X919829Y82626D02*
Y84626D01*
X918829Y38626D02*
X920829D01*
X919829Y37626D02*
Y39626D01*
X9170Y76525D02*
X11170D01*
X10170Y75525D02*
Y77525D01*
X739685Y10171D02*
X741685D01*
X740685Y9171D02*
Y11171D01*
X820685Y10171D02*
X822685D01*
X821685Y9171D02*
Y11171D01*
X856685Y10171D02*
X858685D01*
X857685Y9171D02*
Y11171D01*
X33431Y10171D02*
X35431D01*
X34431Y9171D02*
Y11171D01*
X78431Y10171D02*
X80431D01*
X79431Y9171D02*
Y11171D01*
X159431Y10171D02*
X161430D01*
X160431Y9171D02*
Y11171D01*
X539872Y26171D02*
X541872D01*
X540872Y25171D02*
Y27171D01*
X620872Y26172D02*
X622872D01*
X621872Y25172D02*
Y27172D01*
X701872Y26172D02*
X703872D01*
X702872Y25172D02*
Y27172D01*
X332873Y26170D02*
X334873D01*
X333872Y25171D02*
Y27171D01*
X413872Y26170D02*
X415872D01*
X414872Y25171D02*
Y27171D01*
X458872Y26170D02*
X460872D01*
X459872Y25171D02*
Y27171D01*
X233873Y26170D02*
X235873D01*
X234873Y25171D02*
Y27171D01*
M02*
