G04*
G04 #@! TF.GenerationSoftware,Altium Limited,Altium Designer,24.1.2 (44)*
G04*
G04 Layer_Color=16711935*
%FSLAX44Y44*%
%MOMM*%
G71*
G04*
G04 #@! TF.SameCoordinates,27C4CC1B-1F39-4CC3-9493-EFA3B80F4B77*
G04*
G04*
G04 #@! TF.FilePolarity,Negative*
G04*
G01*
G75*
G04:AMPARAMS|DCode=18|XSize=0.375mm|YSize=0.4mm|CornerRadius=0.1188mm|HoleSize=0mm|Usage=FLASHONLY|Rotation=180.000|XOffset=0mm|YOffset=0mm|HoleType=Round|Shape=RoundedRectangle|*
%AMROUNDEDRECTD18*
21,1,0.3750,0.1625,0,0,180.0*
21,1,0.1375,0.4000,0,0,180.0*
1,1,0.2375,-0.0688,0.0813*
1,1,0.2375,0.0688,0.0813*
1,1,0.2375,0.0688,-0.0813*
1,1,0.2375,-0.0688,-0.0813*
%
%ADD18ROUNDEDRECTD18*%
G04:AMPARAMS|DCode=19|XSize=0.375mm|YSize=0.4mm|CornerRadius=0.1188mm|HoleSize=0mm|Usage=FLASHONLY|Rotation=270.000|XOffset=0mm|YOffset=0mm|HoleType=Round|Shape=RoundedRectangle|*
%AMROUNDEDRECTD19*
21,1,0.3750,0.1625,0,0,270.0*
21,1,0.1375,0.4000,0,0,270.0*
1,1,0.2375,-0.0813,-0.0688*
1,1,0.2375,-0.0813,0.0688*
1,1,0.2375,0.0813,0.0688*
1,1,0.2375,0.0813,-0.0688*
%
%ADD19ROUNDEDRECTD19*%
G04:AMPARAMS|DCode=20|XSize=0.65mm|YSize=0.7mm|CornerRadius=0.1875mm|HoleSize=0mm|Usage=FLASHONLY|Rotation=0.000|XOffset=0mm|YOffset=0mm|HoleType=Round|Shape=RoundedRectangle|*
%AMROUNDEDRECTD20*
21,1,0.6500,0.3250,0,0,0.0*
21,1,0.2750,0.7000,0,0,0.0*
1,1,0.3750,0.1375,-0.1625*
1,1,0.3750,-0.1375,-0.1625*
1,1,0.3750,-0.1375,0.1625*
1,1,0.3750,0.1375,0.1625*
%
%ADD20ROUNDEDRECTD20*%
G04:AMPARAMS|DCode=22|XSize=0.65mm|YSize=0.7mm|CornerRadius=0.1875mm|HoleSize=0mm|Usage=FLASHONLY|Rotation=270.000|XOffset=0mm|YOffset=0mm|HoleType=Round|Shape=RoundedRectangle|*
%AMROUNDEDRECTD22*
21,1,0.6500,0.3250,0,0,270.0*
21,1,0.2750,0.7000,0,0,270.0*
1,1,0.3750,-0.1625,-0.1375*
1,1,0.3750,-0.1625,0.1375*
1,1,0.3750,0.1625,0.1375*
1,1,0.3750,0.1625,-0.1375*
%
%ADD22ROUNDEDRECTD22*%
%ADD52C,0.0100*%
%ADD53C,1.0000*%
%ADD55R,2.0574X1.4986*%
%ADD62R,2.2524X3.1524*%
%ADD63R,0.9524X1.7524*%
%ADD64R,1.2446X0.8636*%
%ADD68R,1.1532X2.3532*%
%ADD69R,3.4532X2.3532*%
%ADD72R,0.7000X1.2000*%
%ADD73R,0.5500X1.2000*%
%ADD75R,1.8032X1.8032*%
%ADD76C,1.8032*%
%ADD77C,0.9632*%
%ADD78C,1.7332*%
%ADD79R,1.7332X1.7332*%
%ADD80C,1.3932*%
%ADD81C,7.2032*%
%ADD82C,6.2032*%
%ADD83R,1.8532X1.8532*%
%ADD84C,1.8532*%
%ADD133C,0.4064*%
%ADD165R,0.7000X1.4000*%
%ADD168R,1.1524X0.7524*%
%ADD169R,1.9524X1.4024*%
%ADD170C,0.3500*%
%ADD171R,0.7524X1.1524*%
%ADD172R,1.4024X1.9524*%
%ADD173R,0.8636X1.2446*%
%ADD174R,1.4986X2.0574*%
G04:AMPARAMS|DCode=175|XSize=0.38mm|YSize=0.78mm|CornerRadius=0.115mm|HoleSize=0mm|Usage=FLASHONLY|Rotation=90.000|XOffset=0mm|YOffset=0mm|HoleType=Round|Shape=RoundedRectangle|*
%AMROUNDEDRECTD175*
21,1,0.3800,0.5500,0,0,90.0*
21,1,0.1500,0.7800,0,0,90.0*
1,1,0.2300,0.2750,0.0750*
1,1,0.2300,0.2750,-0.0750*
1,1,0.2300,-0.2750,-0.0750*
1,1,0.2300,-0.2750,0.0750*
%
%ADD175ROUNDEDRECTD175*%
G04:AMPARAMS|DCode=176|XSize=0.38mm|YSize=0.78mm|CornerRadius=0.115mm|HoleSize=0mm|Usage=FLASHONLY|Rotation=180.000|XOffset=0mm|YOffset=0mm|HoleType=Round|Shape=RoundedRectangle|*
%AMROUNDEDRECTD176*
21,1,0.3800,0.5500,0,0,180.0*
21,1,0.1500,0.7800,0,0,180.0*
1,1,0.2300,-0.0750,0.2750*
1,1,0.2300,0.0750,0.2750*
1,1,0.2300,0.0750,-0.2750*
1,1,0.2300,-0.0750,-0.2750*
%
%ADD176ROUNDEDRECTD176*%
%ADD177R,3.8000X3.8000*%
%ADD178R,0.9000X0.6000*%
%ADD179R,2.7500X2.7500*%
G04:AMPARAMS|DCode=180|XSize=0.464mm|YSize=0.914mm|CornerRadius=0.1445mm|HoleSize=0mm|Usage=FLASHONLY|Rotation=90.000|XOffset=0mm|YOffset=0mm|HoleType=Round|Shape=RoundedRectangle|*
%AMROUNDEDRECTD180*
21,1,0.4640,0.6250,0,0,90.0*
21,1,0.1750,0.9140,0,0,90.0*
1,1,0.2890,0.3125,0.0875*
1,1,0.2890,0.3125,-0.0875*
1,1,0.2890,-0.3125,-0.0875*
1,1,0.2890,-0.3125,0.0875*
%
%ADD180ROUNDEDRECTD180*%
G04:AMPARAMS|DCode=181|XSize=0.5mm|YSize=0.95mm|CornerRadius=0.1625mm|HoleSize=0mm|Usage=FLASHONLY|Rotation=0.000|XOffset=0mm|YOffset=0mm|HoleType=Round|Shape=RoundedRectangle|*
%AMROUNDEDRECTD181*
21,1,0.5000,0.6250,0,0,0.0*
21,1,0.1750,0.9500,0,0,0.0*
1,1,0.3250,0.0875,-0.3125*
1,1,0.3250,-0.0875,-0.3125*
1,1,0.3250,-0.0875,0.3125*
1,1,0.3250,0.0875,0.3125*
%
%ADD181ROUNDEDRECTD181*%
G04:AMPARAMS|DCode=182|XSize=0.7532mm|YSize=0.8032mm|CornerRadius=0.2391mm|HoleSize=0mm|Usage=FLASHONLY|Rotation=180.000|XOffset=0mm|YOffset=0mm|HoleType=Round|Shape=RoundedRectangle|*
%AMROUNDEDRECTD182*
21,1,0.7532,0.3250,0,0,180.0*
21,1,0.2750,0.8032,0,0,180.0*
1,1,0.4782,-0.1375,0.1625*
1,1,0.4782,0.1375,0.1625*
1,1,0.4782,0.1375,-0.1625*
1,1,0.4782,-0.1375,-0.1625*
%
%ADD182ROUNDEDRECTD182*%
%ADD183R,1.0500X2.5500*%
G04:AMPARAMS|DCode=184|XSize=1.1032mm|YSize=1.0032mm|CornerRadius=0.3016mm|HoleSize=0mm|Usage=FLASHONLY|Rotation=0.000|XOffset=0mm|YOffset=0mm|HoleType=Round|Shape=RoundedRectangle|*
%AMROUNDEDRECTD184*
21,1,1.1032,0.4000,0,0,0.0*
21,1,0.5000,1.0032,0,0,0.0*
1,1,0.6032,0.2500,-0.2000*
1,1,0.6032,-0.2500,-0.2000*
1,1,0.6032,-0.2500,0.2000*
1,1,0.6032,0.2500,0.2000*
%
%ADD184ROUNDEDRECTD184*%
G04:AMPARAMS|DCode=185|XSize=0.7532mm|YSize=0.8032mm|CornerRadius=0.2391mm|HoleSize=0mm|Usage=FLASHONLY|Rotation=270.000|XOffset=0mm|YOffset=0mm|HoleType=Round|Shape=RoundedRectangle|*
%AMROUNDEDRECTD185*
21,1,0.7532,0.3250,0,0,270.0*
21,1,0.2750,0.8032,0,0,270.0*
1,1,0.4782,-0.1625,-0.1375*
1,1,0.4782,-0.1625,0.1375*
1,1,0.4782,0.1625,0.1375*
1,1,0.4782,0.1625,-0.1375*
%
%ADD185ROUNDEDRECTD185*%
%ADD186R,0.9500X0.8500*%
%ADD187C,0.6932*%
%ADD188R,0.9032X1.8532*%
%ADD189R,3.7032X3.1532*%
G04:AMPARAMS|DCode=190|XSize=1.8532mm|YSize=2.7532mm|CornerRadius=0.3491mm|HoleSize=0mm|Usage=FLASHONLY|Rotation=90.000|XOffset=0mm|YOffset=0mm|HoleType=Round|Shape=RoundedRectangle|*
%AMROUNDEDRECTD190*
21,1,1.8532,2.0550,0,0,90.0*
21,1,1.1550,2.7532,0,0,90.0*
1,1,0.6982,1.0275,0.5775*
1,1,0.6982,1.0275,-0.5775*
1,1,0.6982,-1.0275,-0.5775*
1,1,0.6982,-1.0275,0.5775*
%
%ADD190ROUNDEDRECTD190*%
G04:AMPARAMS|DCode=191|XSize=1.1532mm|YSize=0.9532mm|CornerRadius=0.2891mm|HoleSize=0mm|Usage=FLASHONLY|Rotation=270.000|XOffset=0mm|YOffset=0mm|HoleType=Round|Shape=RoundedRectangle|*
%AMROUNDEDRECTD191*
21,1,1.1532,0.3750,0,0,270.0*
21,1,0.5750,0.9532,0,0,270.0*
1,1,0.5782,-0.1875,-0.2875*
1,1,0.5782,-0.1875,0.2875*
1,1,0.5782,0.1875,0.2875*
1,1,0.5782,0.1875,-0.2875*
%
%ADD191ROUNDEDRECTD191*%
%ADD192R,5.1032X3.1532*%
%ADD193R,1.0668X0.9144*%
%ADD194R,0.8532X0.4532*%
%ADD195R,0.5032X2.6032*%
%ADD196R,0.8532X0.5032*%
%ADD197R,0.4532X0.8532*%
%ADD198R,1.7800X1.7800*%
G04:AMPARAMS|DCode=199|XSize=0.34mm|YSize=0.91mm|CornerRadius=0.0491mm|HoleSize=0mm|Usage=FLASHONLY|Rotation=90.000|XOffset=0mm|YOffset=0mm|HoleType=Round|Shape=RoundedRectangle|*
%AMROUNDEDRECTD199*
21,1,0.3400,0.8118,0,0,90.0*
21,1,0.2418,0.9100,0,0,90.0*
1,1,0.0982,0.4059,0.1209*
1,1,0.0982,0.4059,-0.1209*
1,1,0.0982,-0.4059,-0.1209*
1,1,0.0982,-0.4059,0.1209*
%
%ADD199ROUNDEDRECTD199*%
G04:AMPARAMS|DCode=200|XSize=0.91mm|YSize=0.34mm|CornerRadius=0.0491mm|HoleSize=0mm|Usage=FLASHONLY|Rotation=90.000|XOffset=0mm|YOffset=0mm|HoleType=Round|Shape=RoundedRectangle|*
%AMROUNDEDRECTD200*
21,1,0.9100,0.2418,0,0,90.0*
21,1,0.8118,0.3400,0,0,90.0*
1,1,0.0982,0.1209,0.4059*
1,1,0.0982,0.1209,-0.4059*
1,1,0.0982,-0.1209,-0.4059*
1,1,0.0982,-0.1209,0.4059*
%
%ADD200ROUNDEDRECTD200*%
%ADD201R,1.4032X1.0032*%
G36*
X849139Y582016D02*
X849173D01*
X849206Y582012D01*
X849239Y582010D01*
X849272Y582003D01*
X849305Y581999D01*
X849715Y581917D01*
X849747Y581908D01*
X849780Y581902D01*
X849812Y581891D01*
X849844Y581883D01*
X849875Y581870D01*
X849906Y581859D01*
X850293Y581699D01*
X850323Y581684D01*
X850354Y581671D01*
X850383Y581655D01*
X850413Y581640D01*
X850440Y581621D01*
X850469Y581605D01*
X850817Y581372D01*
X850844Y581352D01*
X850871Y581333D01*
X850896Y581311D01*
X850923Y581291D01*
X850946Y581268D01*
X850972Y581246D01*
X851267Y580950D01*
X851289Y580925D01*
X851313Y580901D01*
X851333Y580874D01*
X851355Y580849D01*
X851374Y580822D01*
X851394Y580795D01*
X851627Y580447D01*
X851643Y580418D01*
X851662Y580391D01*
X851676Y580361D01*
X851693Y580332D01*
X851706Y580301D01*
X851721Y580271D01*
X851881Y579884D01*
X851892Y579853D01*
X851904Y579822D01*
X851913Y579790D01*
X851924Y579758D01*
X851930Y579726D01*
X851939Y579693D01*
X852020Y579283D01*
X852025Y579250D01*
X852031Y579217D01*
X852034Y579184D01*
X852038Y579151D01*
Y579118D01*
X852040Y579084D01*
Y578875D01*
Y573625D01*
Y573416D01*
X852038Y573382D01*
Y573349D01*
X852034Y573316D01*
X852031Y573283D01*
X852025Y573250D01*
X852020Y573217D01*
X851939Y572807D01*
X851930Y572774D01*
X851924Y572742D01*
X851913Y572710D01*
X851904Y572678D01*
X851892Y572647D01*
X851881Y572616D01*
X851721Y572229D01*
X851706Y572199D01*
X851693Y572168D01*
X851676Y572139D01*
X851662Y572109D01*
X851643Y572082D01*
X851627Y572053D01*
X851394Y571705D01*
X851374Y571678D01*
X851355Y571651D01*
X851333Y571626D01*
X851313Y571599D01*
X851290Y571576D01*
X851267Y571550D01*
X850972Y571255D01*
X850947Y571233D01*
X850923Y571209D01*
X850896Y571189D01*
X850871Y571167D01*
X850844Y571148D01*
X850817Y571128D01*
X850469Y570895D01*
X850440Y570879D01*
X850413Y570860D01*
X850383Y570845D01*
X850354Y570829D01*
X850323Y570816D01*
X850293Y570801D01*
X849906Y570641D01*
X849875Y570630D01*
X849844Y570618D01*
X849812Y570609D01*
X849780Y570598D01*
X849748Y570592D01*
X849715Y570583D01*
X849305Y570501D01*
X849272Y570497D01*
X849239Y570491D01*
X849206Y570488D01*
X849173Y570484D01*
X849139D01*
X849106Y570482D01*
X848897D01*
X838200Y570482D01*
X838067Y570490D01*
X837936Y570517D01*
X837810Y570559D01*
X837691Y570618D01*
X837580Y570692D01*
X837480Y570780D01*
X837392Y570880D01*
X837318Y570991D01*
X837259Y571110D01*
X837216Y571236D01*
X837190Y571367D01*
X837182Y571500D01*
X837185Y571542D01*
X836431Y570783D01*
X836429Y570782D01*
X836428Y570780D01*
X836380Y570738D01*
X836331Y570695D01*
X836329Y570694D01*
X836328Y570692D01*
X836276Y570658D01*
X836220Y570620D01*
X836219Y570619D01*
X836217Y570618D01*
X836161Y570591D01*
X836101Y570561D01*
X836099Y570560D01*
X836098Y570559D01*
X836037Y570539D01*
X835975Y570518D01*
X835973Y570517D01*
X835972Y570517D01*
X835909Y570504D01*
X835845Y570491D01*
X835843Y570491D01*
X835841Y570491D01*
X835778Y570486D01*
X835712Y570482D01*
X835710Y570482D01*
X835708Y570482D01*
X829068D01*
X829034Y570484D01*
X829001D01*
X828968Y570488D01*
X828935Y570491D01*
X828902Y570497D01*
X828869Y570501D01*
X828458Y570583D01*
X828426Y570592D01*
X828393Y570598D01*
X828362Y570609D01*
X828330Y570618D01*
X828299Y570630D01*
X828267Y570641D01*
X827881Y570801D01*
X827851Y570816D01*
X827820Y570829D01*
X827791Y570845D01*
X827761Y570860D01*
X827734Y570879D01*
X827705Y570895D01*
X827357Y571128D01*
X827330Y571148D01*
X827302Y571167D01*
X827277Y571189D01*
X827251Y571209D01*
X827227Y571232D01*
X827202Y571255D01*
X826906Y571550D01*
X826885Y571575D01*
X826861Y571599D01*
X826840Y571626D01*
X826818Y571651D01*
X826800Y571678D01*
X826780Y571705D01*
X826547Y572053D01*
X826531Y572082D01*
X826512Y572109D01*
X826497Y572139D01*
X826481Y572168D01*
X826468Y572199D01*
X826453Y572229D01*
X826293Y572616D01*
X826282Y572647D01*
X826269Y572678D01*
X826261Y572710D01*
X826250Y572742D01*
X826244Y572774D01*
X826235Y572807D01*
X826153Y573217D01*
X826149Y573250D01*
X826142Y573283D01*
X826140Y573316D01*
X826136Y573349D01*
Y573382D01*
X826134Y573416D01*
Y573625D01*
Y578875D01*
Y579084D01*
X826136Y579118D01*
Y579151D01*
X826140Y579184D01*
X826142Y579217D01*
X826149Y579250D01*
X826153Y579283D01*
X826235Y579693D01*
X826244Y579726D01*
X826250Y579758D01*
X826261Y579790D01*
X826269Y579822D01*
X826282Y579853D01*
X826293Y579884D01*
X826453Y580271D01*
X826468Y580301D01*
X826481Y580332D01*
X826497Y580361D01*
X826512Y580391D01*
X826531Y580418D01*
X826547Y580447D01*
X826780Y580795D01*
X826800Y580822D01*
X826818Y580849D01*
X826841Y580875D01*
X826861Y580901D01*
X826884Y580924D01*
X826906Y580950D01*
X827202Y581246D01*
X827227Y581268D01*
X827251Y581291D01*
X827278Y581311D01*
X827302Y581333D01*
X827330Y581352D01*
X827357Y581372D01*
X827705Y581605D01*
X827734Y581621D01*
X827761Y581640D01*
X827791Y581655D01*
X827820Y581671D01*
X827851Y581684D01*
X827881Y581699D01*
X828268Y581859D01*
X828299Y581870D01*
X828330Y581883D01*
X828362Y581891D01*
X828394Y581902D01*
X828426Y581908D01*
X828458Y581917D01*
X828869Y581999D01*
X828902Y582003D01*
X828935Y582010D01*
X828968Y582012D01*
X829001Y582016D01*
X829034D01*
X829068Y582018D01*
X835708D01*
X835710Y582018D01*
X835712Y582018D01*
X835772Y582014D01*
X835841Y582010D01*
X835843Y582009D01*
X835845Y582009D01*
X835906Y581997D01*
X835972Y581983D01*
X835973Y581983D01*
X835975Y581982D01*
X836037Y581962D01*
X836098Y581941D01*
X836099Y581940D01*
X836101Y581939D01*
X836160Y581910D01*
X836217Y581882D01*
X836219Y581881D01*
X836220Y581880D01*
X836274Y581844D01*
X836328Y581808D01*
X836329Y581806D01*
X836331Y581805D01*
X836378Y581763D01*
X836428Y581720D01*
X836429Y581718D01*
X836431Y581717D01*
X837136Y581006D01*
X837145Y581133D01*
X837170Y581264D01*
X837213Y581390D01*
X837272Y581509D01*
X837346Y581620D01*
X837434Y581720D01*
X837534Y581808D01*
X837645Y581882D01*
X837764Y581941D01*
X837890Y581983D01*
X838021Y582010D01*
X838154Y582018D01*
X849106D01*
X849139Y582016D01*
D02*
G37*
G36*
Y562966D02*
X849173D01*
X849206Y562962D01*
X849239Y562960D01*
X849272Y562953D01*
X849305Y562949D01*
X849715Y562867D01*
X849747Y562858D01*
X849780Y562852D01*
X849812Y562841D01*
X849844Y562832D01*
X849875Y562820D01*
X849906Y562809D01*
X850293Y562649D01*
X850323Y562634D01*
X850354Y562621D01*
X850383Y562605D01*
X850413Y562590D01*
X850440Y562571D01*
X850469Y562555D01*
X850817Y562322D01*
X850844Y562302D01*
X850871Y562283D01*
X850896Y562261D01*
X850923Y562241D01*
X850946Y562218D01*
X850972Y562196D01*
X851267Y561900D01*
X851289Y561875D01*
X851313Y561851D01*
X851333Y561824D01*
X851355Y561800D01*
X851374Y561772D01*
X851394Y561745D01*
X851627Y561397D01*
X851643Y561368D01*
X851662Y561341D01*
X851676Y561311D01*
X851693Y561282D01*
X851706Y561251D01*
X851721Y561221D01*
X851881Y560835D01*
X851892Y560803D01*
X851904Y560772D01*
X851913Y560740D01*
X851924Y560708D01*
X851930Y560676D01*
X851939Y560644D01*
X852020Y560233D01*
X852025Y560200D01*
X852031Y560167D01*
X852034Y560134D01*
X852038Y560101D01*
Y560068D01*
X852040Y560034D01*
Y559825D01*
Y554575D01*
Y554366D01*
X852038Y554332D01*
Y554299D01*
X852034Y554266D01*
X852031Y554233D01*
X852025Y554200D01*
X852020Y554167D01*
X851939Y553756D01*
X851930Y553724D01*
X851924Y553692D01*
X851913Y553660D01*
X851904Y553628D01*
X851892Y553597D01*
X851881Y553566D01*
X851721Y553179D01*
X851706Y553149D01*
X851693Y553118D01*
X851676Y553089D01*
X851662Y553059D01*
X851643Y553032D01*
X851627Y553003D01*
X851394Y552655D01*
X851374Y552628D01*
X851355Y552601D01*
X851333Y552575D01*
X851313Y552549D01*
X851290Y552526D01*
X851267Y552500D01*
X850972Y552205D01*
X850947Y552183D01*
X850923Y552159D01*
X850896Y552138D01*
X850871Y552117D01*
X850844Y552098D01*
X850817Y552078D01*
X850469Y551845D01*
X850440Y551829D01*
X850413Y551810D01*
X850383Y551795D01*
X850354Y551779D01*
X850323Y551766D01*
X850293Y551751D01*
X849906Y551591D01*
X849875Y551580D01*
X849844Y551568D01*
X849812Y551559D01*
X849780Y551548D01*
X849748Y551542D01*
X849715Y551533D01*
X849305Y551451D01*
X849272Y551447D01*
X849239Y551441D01*
X849206Y551438D01*
X849173Y551434D01*
X849139D01*
X849106Y551432D01*
X848897D01*
X838200Y551432D01*
X838067Y551441D01*
X837936Y551466D01*
X837810Y551509D01*
X837691Y551568D01*
X837580Y551642D01*
X837480Y551730D01*
X837392Y551830D01*
X837318Y551941D01*
X837259Y552060D01*
X837216Y552187D01*
X837190Y552317D01*
X837182Y552450D01*
X837185Y552492D01*
X836431Y551733D01*
X836429Y551731D01*
X836428Y551730D01*
X836380Y551688D01*
X836331Y551645D01*
X836329Y551643D01*
X836328Y551642D01*
X836276Y551608D01*
X836220Y551570D01*
X836219Y551569D01*
X836217Y551568D01*
X836161Y551541D01*
X836101Y551511D01*
X836099Y551510D01*
X836098Y551509D01*
X836037Y551489D01*
X835975Y551468D01*
X835973Y551467D01*
X835972Y551466D01*
X835909Y551454D01*
X835845Y551441D01*
X835843Y551441D01*
X835841Y551441D01*
X835778Y551436D01*
X835712Y551432D01*
X835710Y551432D01*
X835708Y551432D01*
X829068D01*
X829034Y551434D01*
X829001D01*
X828968Y551438D01*
X828935Y551441D01*
X828902Y551447D01*
X828869Y551451D01*
X828458Y551533D01*
X828426Y551542D01*
X828393Y551548D01*
X828362Y551559D01*
X828330Y551568D01*
X828299Y551580D01*
X828267Y551591D01*
X827881Y551751D01*
X827851Y551766D01*
X827820Y551779D01*
X827791Y551795D01*
X827761Y551810D01*
X827734Y551829D01*
X827705Y551845D01*
X827357Y552078D01*
X827330Y552098D01*
X827302Y552117D01*
X827277Y552139D01*
X827251Y552159D01*
X827227Y552182D01*
X827202Y552205D01*
X826906Y552500D01*
X826885Y552525D01*
X826861Y552549D01*
X826840Y552576D01*
X826818Y552601D01*
X826800Y552628D01*
X826780Y552655D01*
X826547Y553003D01*
X826531Y553032D01*
X826512Y553059D01*
X826497Y553089D01*
X826481Y553118D01*
X826468Y553149D01*
X826453Y553179D01*
X826293Y553566D01*
X826282Y553597D01*
X826269Y553628D01*
X826261Y553660D01*
X826250Y553692D01*
X826244Y553724D01*
X826235Y553756D01*
X826153Y554167D01*
X826149Y554200D01*
X826142Y554233D01*
X826140Y554266D01*
X826136Y554299D01*
Y554332D01*
X826134Y554366D01*
Y554575D01*
Y559825D01*
Y560034D01*
X826136Y560068D01*
Y560101D01*
X826140Y560134D01*
X826142Y560167D01*
X826149Y560200D01*
X826153Y560233D01*
X826235Y560644D01*
X826244Y560676D01*
X826250Y560708D01*
X826261Y560740D01*
X826269Y560772D01*
X826282Y560803D01*
X826293Y560835D01*
X826453Y561221D01*
X826468Y561251D01*
X826481Y561282D01*
X826497Y561311D01*
X826512Y561341D01*
X826531Y561368D01*
X826547Y561397D01*
X826780Y561745D01*
X826800Y561772D01*
X826818Y561800D01*
X826841Y561825D01*
X826861Y561851D01*
X826884Y561874D01*
X826906Y561900D01*
X827202Y562196D01*
X827227Y562217D01*
X827251Y562241D01*
X827278Y562262D01*
X827302Y562283D01*
X827330Y562302D01*
X827357Y562322D01*
X827705Y562555D01*
X827734Y562571D01*
X827761Y562590D01*
X827791Y562605D01*
X827820Y562621D01*
X827851Y562634D01*
X827881Y562649D01*
X828268Y562809D01*
X828299Y562820D01*
X828330Y562832D01*
X828362Y562841D01*
X828394Y562852D01*
X828426Y562858D01*
X828458Y562867D01*
X828869Y562949D01*
X828902Y562953D01*
X828935Y562960D01*
X828968Y562962D01*
X829001Y562966D01*
X829034D01*
X829068Y562968D01*
X835708D01*
X835710Y562968D01*
X835712Y562968D01*
X835772Y562964D01*
X835841Y562960D01*
X835843Y562959D01*
X835845Y562959D01*
X835906Y562947D01*
X835972Y562934D01*
X835973Y562933D01*
X835975Y562933D01*
X836037Y562911D01*
X836098Y562891D01*
X836099Y562890D01*
X836101Y562889D01*
X836160Y562860D01*
X836217Y562832D01*
X836219Y562831D01*
X836220Y562830D01*
X836274Y562794D01*
X836328Y562758D01*
X836329Y562757D01*
X836331Y562755D01*
X836378Y562713D01*
X836428Y562670D01*
X836429Y562668D01*
X836431Y562667D01*
X837136Y561956D01*
X837145Y562083D01*
X837170Y562214D01*
X837213Y562340D01*
X837272Y562459D01*
X837346Y562570D01*
X837434Y562670D01*
X837534Y562758D01*
X837645Y562832D01*
X837764Y562891D01*
X837890Y562934D01*
X838021Y562960D01*
X838154Y562968D01*
X849106D01*
X849139Y562966D01*
D02*
G37*
G36*
X780624Y327390D02*
X780644D01*
X780674Y327380D01*
X780694D01*
X780724Y327370D01*
X780744Y327360D01*
X780774Y327350D01*
X780794Y327330D01*
X780814Y327320D01*
X780834Y327300D01*
X780854Y327290D01*
X780874Y327270D01*
X780894Y327250D01*
X780914Y327230D01*
X780934Y327210D01*
X780944Y327190D01*
X780964Y327170D01*
X780974Y327150D01*
X780994Y327130D01*
X781004Y327100D01*
X781014Y327080D01*
X781024Y327050D01*
Y327030D01*
X781034Y327000D01*
Y326980D01*
X781044Y326950D01*
Y310950D01*
X781034Y310920D01*
Y310900D01*
X781024Y310870D01*
Y310850D01*
X781014Y310820D01*
X781004Y310800D01*
X780994Y310770D01*
X780974Y310750D01*
X780964Y310730D01*
X780944Y310710D01*
X780934Y310690D01*
X780914Y310670D01*
X780894Y310650D01*
X780874Y310630D01*
X780854Y310610D01*
X780834Y310600D01*
X780814Y310580D01*
X780794Y310570D01*
X780774Y310550D01*
X780744Y310540D01*
X780724Y310530D01*
X780694Y310520D01*
X780674D01*
X780644Y310510D01*
X780624D01*
X780594Y310500D01*
X774094D01*
X774064Y310510D01*
X774044D01*
X774014Y310520D01*
X773994D01*
X773964Y310530D01*
X773944Y310540D01*
X773914Y310550D01*
X773894Y310570D01*
X773874Y310580D01*
X773854Y310600D01*
X773834Y310610D01*
X773814Y310630D01*
X773794Y310650D01*
X773774Y310670D01*
X773754Y310690D01*
X773744Y310710D01*
X773724Y310730D01*
X773714Y310750D01*
X773694Y310770D01*
X773684Y310800D01*
X773674Y310820D01*
X773664Y310850D01*
Y310870D01*
X773654Y310900D01*
Y310920D01*
X773644Y310950D01*
Y326950D01*
X773654Y326980D01*
Y327000D01*
X773664Y327030D01*
Y327050D01*
X773674Y327080D01*
X773684Y327100D01*
X773694Y327130D01*
X773714Y327150D01*
X773724Y327170D01*
X773744Y327190D01*
X773754Y327210D01*
X773774Y327230D01*
X773794Y327250D01*
X773814Y327270D01*
X773834Y327290D01*
X773854Y327300D01*
X773874Y327320D01*
X773894Y327330D01*
X773914Y327350D01*
X773944Y327360D01*
X773964Y327370D01*
X773994Y327380D01*
X774014D01*
X774044Y327390D01*
X774064D01*
X774094Y327400D01*
X780594D01*
X780624Y327390D01*
D02*
G37*
G36*
X767924D02*
X767944D01*
X767974Y327380D01*
X767994D01*
X768024Y327370D01*
X768044Y327360D01*
X768074Y327350D01*
X768094Y327330D01*
X768114Y327320D01*
X768134Y327300D01*
X768154Y327290D01*
X768174Y327270D01*
X768194Y327250D01*
X768214Y327230D01*
X768234Y327210D01*
X768244Y327190D01*
X768264Y327170D01*
X768274Y327150D01*
X768294Y327130D01*
X768304Y327100D01*
X768314Y327080D01*
X768324Y327050D01*
Y327030D01*
X768334Y327000D01*
Y326980D01*
X768344Y326950D01*
Y310950D01*
X768334Y310920D01*
Y310900D01*
X768324Y310870D01*
Y310850D01*
X768314Y310820D01*
X768304Y310800D01*
X768294Y310770D01*
X768274Y310750D01*
X768264Y310730D01*
X768244Y310710D01*
X768234Y310690D01*
X768214Y310670D01*
X768194Y310650D01*
X768174Y310630D01*
X768154Y310610D01*
X768134Y310600D01*
X768114Y310580D01*
X768094Y310570D01*
X768074Y310550D01*
X768044Y310540D01*
X768024Y310530D01*
X767994Y310520D01*
X767974D01*
X767944Y310510D01*
X767924D01*
X767894Y310500D01*
X761394D01*
X761364Y310510D01*
X761344D01*
X761314Y310520D01*
X761294D01*
X761264Y310530D01*
X761244Y310540D01*
X761214Y310550D01*
X761194Y310570D01*
X761174Y310580D01*
X761154Y310600D01*
X761134Y310610D01*
X761114Y310630D01*
X761094Y310650D01*
X761074Y310670D01*
X761054Y310690D01*
X761044Y310710D01*
X761024Y310730D01*
X761014Y310750D01*
X760994Y310770D01*
X760984Y310800D01*
X760974Y310820D01*
X760964Y310850D01*
Y310870D01*
X760954Y310900D01*
Y310920D01*
X760944Y310950D01*
Y326950D01*
X760954Y326980D01*
Y327000D01*
X760964Y327030D01*
Y327050D01*
X760974Y327080D01*
X760984Y327100D01*
X760994Y327130D01*
X761014Y327150D01*
X761024Y327170D01*
X761044Y327190D01*
X761054Y327210D01*
X761074Y327230D01*
X761094Y327250D01*
X761114Y327270D01*
X761134Y327290D01*
X761154Y327300D01*
X761174Y327320D01*
X761194Y327330D01*
X761214Y327350D01*
X761244Y327360D01*
X761264Y327370D01*
X761294Y327380D01*
X761314D01*
X761344Y327390D01*
X761364D01*
X761394Y327400D01*
X767894D01*
X767924Y327390D01*
D02*
G37*
G36*
X755224D02*
X755244D01*
X755274Y327380D01*
X755294D01*
X755324Y327370D01*
X755344Y327360D01*
X755374Y327350D01*
X755394Y327330D01*
X755414Y327320D01*
X755434Y327300D01*
X755454Y327290D01*
X755474Y327270D01*
X755494Y327250D01*
X755514Y327230D01*
X755534Y327210D01*
X755544Y327190D01*
X755564Y327170D01*
X755574Y327150D01*
X755594Y327130D01*
X755604Y327100D01*
X755614Y327080D01*
X755624Y327050D01*
Y327030D01*
X755634Y327000D01*
Y326980D01*
X755644Y326950D01*
Y310950D01*
X755634Y310920D01*
Y310900D01*
X755624Y310870D01*
Y310850D01*
X755614Y310820D01*
X755604Y310800D01*
X755594Y310770D01*
X755574Y310750D01*
X755564Y310730D01*
X755544Y310710D01*
X755534Y310690D01*
X755514Y310670D01*
X755494Y310650D01*
X755474Y310630D01*
X755454Y310610D01*
X755434Y310600D01*
X755414Y310580D01*
X755394Y310570D01*
X755374Y310550D01*
X755344Y310540D01*
X755324Y310530D01*
X755294Y310520D01*
X755274D01*
X755244Y310510D01*
X755224D01*
X755194Y310500D01*
X748694D01*
X748664Y310510D01*
X748644D01*
X748614Y310520D01*
X748594D01*
X748564Y310530D01*
X748544Y310540D01*
X748514Y310550D01*
X748494Y310570D01*
X748474Y310580D01*
X748454Y310600D01*
X748434Y310610D01*
X748414Y310630D01*
X748394Y310650D01*
X748374Y310670D01*
X748354Y310690D01*
X748344Y310710D01*
X748324Y310730D01*
X748314Y310750D01*
X748294Y310770D01*
X748284Y310800D01*
X748274Y310820D01*
X748264Y310850D01*
Y310870D01*
X748254Y310900D01*
Y310920D01*
X748244Y310950D01*
Y326950D01*
X748254Y326980D01*
Y327000D01*
X748264Y327030D01*
Y327050D01*
X748274Y327080D01*
X748284Y327100D01*
X748294Y327130D01*
X748314Y327150D01*
X748324Y327170D01*
X748344Y327190D01*
X748354Y327210D01*
X748374Y327230D01*
X748394Y327250D01*
X748414Y327270D01*
X748434Y327290D01*
X748454Y327300D01*
X748474Y327320D01*
X748494Y327330D01*
X748514Y327350D01*
X748544Y327360D01*
X748564Y327370D01*
X748594Y327380D01*
X748614D01*
X748644Y327390D01*
X748664D01*
X748694Y327400D01*
X755194D01*
X755224Y327390D01*
D02*
G37*
G36*
X742524D02*
X742544D01*
X742574Y327380D01*
X742594D01*
X742624Y327370D01*
X742644Y327360D01*
X742674Y327350D01*
X742694Y327330D01*
X742714Y327320D01*
X742734Y327300D01*
X742754Y327290D01*
X742774Y327270D01*
X742794Y327250D01*
X742814Y327230D01*
X742834Y327210D01*
X742844Y327190D01*
X742864Y327170D01*
X742874Y327150D01*
X742894Y327130D01*
X742904Y327100D01*
X742914Y327080D01*
X742924Y327050D01*
Y327030D01*
X742934Y327000D01*
Y326980D01*
X742944Y326950D01*
Y310950D01*
X742934Y310920D01*
Y310900D01*
X742924Y310870D01*
Y310850D01*
X742914Y310820D01*
X742904Y310800D01*
X742894Y310770D01*
X742874Y310750D01*
X742864Y310730D01*
X742844Y310710D01*
X742834Y310690D01*
X742814Y310670D01*
X742794Y310650D01*
X742774Y310630D01*
X742754Y310610D01*
X742734Y310600D01*
X742714Y310580D01*
X742694Y310570D01*
X742674Y310550D01*
X742644Y310540D01*
X742624Y310530D01*
X742594Y310520D01*
X742574D01*
X742544Y310510D01*
X742524D01*
X742494Y310500D01*
X735994D01*
X735964Y310510D01*
X735944D01*
X735914Y310520D01*
X735894D01*
X735864Y310530D01*
X735844Y310540D01*
X735814Y310550D01*
X735794Y310570D01*
X735774Y310580D01*
X735754Y310600D01*
X735734Y310610D01*
X735714Y310630D01*
X735694Y310650D01*
X735674Y310670D01*
X735654Y310690D01*
X735644Y310710D01*
X735624Y310730D01*
X735614Y310750D01*
X735594Y310770D01*
X735584Y310800D01*
X735574Y310820D01*
X735564Y310850D01*
Y310870D01*
X735554Y310900D01*
Y310920D01*
X735544Y310950D01*
Y326950D01*
X735554Y326980D01*
Y327000D01*
X735564Y327030D01*
Y327050D01*
X735574Y327080D01*
X735584Y327100D01*
X735594Y327130D01*
X735614Y327150D01*
X735624Y327170D01*
X735644Y327190D01*
X735654Y327210D01*
X735674Y327230D01*
X735694Y327250D01*
X735714Y327270D01*
X735734Y327290D01*
X735754Y327300D01*
X735774Y327320D01*
X735794Y327330D01*
X735814Y327350D01*
X735844Y327360D01*
X735864Y327370D01*
X735894Y327380D01*
X735914D01*
X735944Y327390D01*
X735964D01*
X735994Y327400D01*
X742494D01*
X742524Y327390D01*
D02*
G37*
G36*
X773794Y278950D02*
X742794D01*
Y304950D01*
X773794D01*
Y278950D01*
D02*
G37*
G36*
X780624Y273390D02*
X780644D01*
X780674Y273380D01*
X780694D01*
X780724Y273370D01*
X780744Y273360D01*
X780774Y273350D01*
X780794Y273330D01*
X780814Y273320D01*
X780834Y273300D01*
X780854Y273290D01*
X780874Y273270D01*
X780894Y273250D01*
X780914Y273230D01*
X780934Y273210D01*
X780944Y273190D01*
X780964Y273170D01*
X780974Y273150D01*
X780994Y273130D01*
X781004Y273100D01*
X781014Y273080D01*
X781024Y273050D01*
Y273030D01*
X781034Y273000D01*
Y272980D01*
X781044Y272950D01*
Y256950D01*
X781034Y256920D01*
Y256900D01*
X781024Y256870D01*
Y256850D01*
X781014Y256820D01*
X781004Y256800D01*
X780994Y256770D01*
X780974Y256750D01*
X780964Y256730D01*
X780944Y256710D01*
X780934Y256690D01*
X780914Y256670D01*
X780894Y256650D01*
X780874Y256630D01*
X780854Y256610D01*
X780834Y256600D01*
X780814Y256580D01*
X780794Y256570D01*
X780774Y256550D01*
X780744Y256540D01*
X780724Y256530D01*
X780694Y256520D01*
X780674D01*
X780644Y256510D01*
X780624D01*
X780594Y256500D01*
X774094D01*
X774064Y256510D01*
X774044D01*
X774014Y256520D01*
X773994D01*
X773964Y256530D01*
X773944Y256540D01*
X773914Y256550D01*
X773894Y256570D01*
X773874Y256580D01*
X773854Y256600D01*
X773834Y256610D01*
X773814Y256630D01*
X773794Y256650D01*
X773774Y256670D01*
X773754Y256690D01*
X773744Y256710D01*
X773724Y256730D01*
X773714Y256750D01*
X773694Y256770D01*
X773684Y256800D01*
X773674Y256820D01*
X773664Y256850D01*
Y256870D01*
X773654Y256900D01*
Y256920D01*
X773644Y256950D01*
Y272950D01*
X773654Y272980D01*
Y273000D01*
X773664Y273030D01*
Y273050D01*
X773674Y273080D01*
X773684Y273100D01*
X773694Y273130D01*
X773714Y273150D01*
X773724Y273170D01*
X773744Y273190D01*
X773754Y273210D01*
X773774Y273230D01*
X773794Y273250D01*
X773814Y273270D01*
X773834Y273290D01*
X773854Y273300D01*
X773874Y273320D01*
X773894Y273330D01*
X773914Y273350D01*
X773944Y273360D01*
X773964Y273370D01*
X773994Y273380D01*
X774014D01*
X774044Y273390D01*
X774064D01*
X774094Y273400D01*
X780594D01*
X780624Y273390D01*
D02*
G37*
G36*
X767924D02*
X767944D01*
X767974Y273380D01*
X767994D01*
X768024Y273370D01*
X768044Y273360D01*
X768074Y273350D01*
X768094Y273330D01*
X768114Y273320D01*
X768134Y273300D01*
X768154Y273290D01*
X768174Y273270D01*
X768194Y273250D01*
X768214Y273230D01*
X768234Y273210D01*
X768244Y273190D01*
X768264Y273170D01*
X768274Y273150D01*
X768294Y273130D01*
X768304Y273100D01*
X768314Y273080D01*
X768324Y273050D01*
Y273030D01*
X768334Y273000D01*
Y272980D01*
X768344Y272950D01*
Y256950D01*
X768334Y256920D01*
Y256900D01*
X768324Y256870D01*
Y256850D01*
X768314Y256820D01*
X768304Y256800D01*
X768294Y256770D01*
X768274Y256750D01*
X768264Y256730D01*
X768244Y256710D01*
X768234Y256690D01*
X768214Y256670D01*
X768194Y256650D01*
X768174Y256630D01*
X768154Y256610D01*
X768134Y256600D01*
X768114Y256580D01*
X768094Y256570D01*
X768074Y256550D01*
X768044Y256540D01*
X768024Y256530D01*
X767994Y256520D01*
X767974D01*
X767944Y256510D01*
X767924D01*
X767894Y256500D01*
X761394D01*
X761364Y256510D01*
X761344D01*
X761314Y256520D01*
X761294D01*
X761264Y256530D01*
X761244Y256540D01*
X761214Y256550D01*
X761194Y256570D01*
X761174Y256580D01*
X761154Y256600D01*
X761134Y256610D01*
X761114Y256630D01*
X761094Y256650D01*
X761074Y256670D01*
X761054Y256690D01*
X761044Y256710D01*
X761024Y256730D01*
X761014Y256750D01*
X760994Y256770D01*
X760984Y256800D01*
X760974Y256820D01*
X760964Y256850D01*
Y256870D01*
X760954Y256900D01*
Y256920D01*
X760944Y256950D01*
Y272950D01*
X760954Y272980D01*
Y273000D01*
X760964Y273030D01*
Y273050D01*
X760974Y273080D01*
X760984Y273100D01*
X760994Y273130D01*
X761014Y273150D01*
X761024Y273170D01*
X761044Y273190D01*
X761054Y273210D01*
X761074Y273230D01*
X761094Y273250D01*
X761114Y273270D01*
X761134Y273290D01*
X761154Y273300D01*
X761174Y273320D01*
X761194Y273330D01*
X761214Y273350D01*
X761244Y273360D01*
X761264Y273370D01*
X761294Y273380D01*
X761314D01*
X761344Y273390D01*
X761364D01*
X761394Y273400D01*
X767894D01*
X767924Y273390D01*
D02*
G37*
G36*
X755224D02*
X755244D01*
X755274Y273380D01*
X755294D01*
X755324Y273370D01*
X755344Y273360D01*
X755374Y273350D01*
X755394Y273330D01*
X755414Y273320D01*
X755434Y273300D01*
X755454Y273290D01*
X755474Y273270D01*
X755494Y273250D01*
X755514Y273230D01*
X755534Y273210D01*
X755544Y273190D01*
X755564Y273170D01*
X755574Y273150D01*
X755594Y273130D01*
X755604Y273100D01*
X755614Y273080D01*
X755624Y273050D01*
Y273030D01*
X755634Y273000D01*
Y272980D01*
X755644Y272950D01*
Y256950D01*
X755634Y256920D01*
Y256900D01*
X755624Y256870D01*
Y256850D01*
X755614Y256820D01*
X755604Y256800D01*
X755594Y256770D01*
X755574Y256750D01*
X755564Y256730D01*
X755544Y256710D01*
X755534Y256690D01*
X755514Y256670D01*
X755494Y256650D01*
X755474Y256630D01*
X755454Y256610D01*
X755434Y256600D01*
X755414Y256580D01*
X755394Y256570D01*
X755374Y256550D01*
X755344Y256540D01*
X755324Y256530D01*
X755294Y256520D01*
X755274D01*
X755244Y256510D01*
X755224D01*
X755194Y256500D01*
X748694D01*
X748664Y256510D01*
X748644D01*
X748614Y256520D01*
X748594D01*
X748564Y256530D01*
X748544Y256540D01*
X748514Y256550D01*
X748494Y256570D01*
X748474Y256580D01*
X748454Y256600D01*
X748434Y256610D01*
X748414Y256630D01*
X748394Y256650D01*
X748374Y256670D01*
X748354Y256690D01*
X748344Y256710D01*
X748324Y256730D01*
X748314Y256750D01*
X748294Y256770D01*
X748284Y256800D01*
X748274Y256820D01*
X748264Y256850D01*
Y256870D01*
X748254Y256900D01*
Y256920D01*
X748244Y256950D01*
Y272950D01*
X748254Y272980D01*
Y273000D01*
X748264Y273030D01*
Y273050D01*
X748274Y273080D01*
X748284Y273100D01*
X748294Y273130D01*
X748314Y273150D01*
X748324Y273170D01*
X748344Y273190D01*
X748354Y273210D01*
X748374Y273230D01*
X748394Y273250D01*
X748414Y273270D01*
X748434Y273290D01*
X748454Y273300D01*
X748474Y273320D01*
X748494Y273330D01*
X748514Y273350D01*
X748544Y273360D01*
X748564Y273370D01*
X748594Y273380D01*
X748614D01*
X748644Y273390D01*
X748664D01*
X748694Y273400D01*
X755194D01*
X755224Y273390D01*
D02*
G37*
G36*
X742524D02*
X742544D01*
X742574Y273380D01*
X742594D01*
X742624Y273370D01*
X742644Y273360D01*
X742674Y273350D01*
X742694Y273330D01*
X742714Y273320D01*
X742734Y273300D01*
X742754Y273290D01*
X742774Y273270D01*
X742794Y273250D01*
X742814Y273230D01*
X742834Y273210D01*
X742844Y273190D01*
X742864Y273170D01*
X742874Y273150D01*
X742894Y273130D01*
X742904Y273100D01*
X742914Y273080D01*
X742924Y273050D01*
Y273030D01*
X742934Y273000D01*
Y272980D01*
X742944Y272950D01*
Y256950D01*
X742934Y256920D01*
Y256900D01*
X742924Y256870D01*
Y256850D01*
X742914Y256820D01*
X742904Y256800D01*
X742894Y256770D01*
X742874Y256750D01*
X742864Y256730D01*
X742844Y256710D01*
X742834Y256690D01*
X742814Y256670D01*
X742794Y256650D01*
X742774Y256630D01*
X742754Y256610D01*
X742734Y256600D01*
X742714Y256580D01*
X742694Y256570D01*
X742674Y256550D01*
X742644Y256540D01*
X742624Y256530D01*
X742594Y256520D01*
X742574D01*
X742544Y256510D01*
X742524D01*
X742494Y256500D01*
X735994D01*
X735964Y256510D01*
X735944D01*
X735914Y256520D01*
X735894D01*
X735864Y256530D01*
X735844Y256540D01*
X735814Y256550D01*
X735794Y256570D01*
X735774Y256580D01*
X735754Y256600D01*
X735734Y256610D01*
X735714Y256630D01*
X735694Y256650D01*
X735674Y256670D01*
X735654Y256690D01*
X735644Y256710D01*
X735624Y256730D01*
X735614Y256750D01*
X735594Y256770D01*
X735584Y256800D01*
X735574Y256820D01*
X735564Y256850D01*
Y256870D01*
X735554Y256900D01*
Y256920D01*
X735544Y256950D01*
Y272950D01*
X735554Y272980D01*
Y273000D01*
X735564Y273030D01*
Y273050D01*
X735574Y273080D01*
X735584Y273100D01*
X735594Y273130D01*
X735614Y273150D01*
X735624Y273170D01*
X735644Y273190D01*
X735654Y273210D01*
X735674Y273230D01*
X735694Y273250D01*
X735714Y273270D01*
X735734Y273290D01*
X735754Y273300D01*
X735774Y273320D01*
X735794Y273330D01*
X735814Y273350D01*
X735844Y273360D01*
X735864Y273370D01*
X735894Y273380D01*
X735914D01*
X735944Y273390D01*
X735964D01*
X735994Y273400D01*
X742494D01*
X742524Y273390D01*
D02*
G37*
%LPC*%
G36*
X841439Y576276D02*
X841440Y576254D01*
X841440Y576250D01*
X841440Y576246D01*
X841435Y576180D01*
X841435Y576175D01*
X841487Y576227D01*
X841439Y576276D01*
D02*
G37*
G36*
Y557226D02*
X841440Y557204D01*
X841440Y557200D01*
X841440Y557196D01*
X841435Y557130D01*
X841435Y557125D01*
X841487Y557177D01*
X841439Y557226D01*
D02*
G37*
%LPD*%
D18*
X426510Y560616D02*
D03*
X421260D02*
D03*
X578620Y598803D02*
D03*
X583870D02*
D03*
X527399Y332851D02*
D03*
X532649D02*
D03*
X507892Y331537D02*
D03*
X513142D02*
D03*
X507892Y325242D02*
D03*
X513142D02*
D03*
X507892Y318947D02*
D03*
X513142D02*
D03*
X507892Y312652D02*
D03*
X513142D02*
D03*
X647721Y599487D02*
D03*
X652971D02*
D03*
X432885Y560616D02*
D03*
X438135D02*
D03*
X462530Y560616D02*
D03*
X457280D02*
D03*
X528405Y480060D02*
D03*
X523155D02*
D03*
X528405Y486410D02*
D03*
X523155D02*
D03*
X558885Y476250D02*
D03*
X553635D02*
D03*
X558885Y457200D02*
D03*
X553635D02*
D03*
X528405Y438150D02*
D03*
X523155D02*
D03*
X528405Y450850D02*
D03*
X523155D02*
D03*
X312335Y435610D02*
D03*
X317585D02*
D03*
X312335Y467360D02*
D03*
X317585D02*
D03*
X312335Y480060D02*
D03*
X317585D02*
D03*
Y486410D02*
D03*
X312335D02*
D03*
Y528320D02*
D03*
X317585D02*
D03*
X488865Y760730D02*
D03*
X494115D02*
D03*
X488865Y767080D02*
D03*
X494115D02*
D03*
X312335Y461010D02*
D03*
X317585D02*
D03*
Y521970D02*
D03*
X312335D02*
D03*
Y502920D02*
D03*
X317585D02*
D03*
X312335Y509270D02*
D03*
X317585D02*
D03*
X312335Y448310D02*
D03*
X317585D02*
D03*
X312335Y441960D02*
D03*
X317585D02*
D03*
X312335Y515620D02*
D03*
X317585D02*
D03*
X312335Y454660D02*
D03*
X317585D02*
D03*
X558885Y463550D02*
D03*
X553635D02*
D03*
X558885Y469900D02*
D03*
X553635D02*
D03*
X317585Y496570D02*
D03*
X312335D02*
D03*
D19*
X588295Y661781D02*
D03*
Y667031D02*
D03*
X594562Y661748D02*
D03*
Y666998D02*
D03*
X595630Y758360D02*
D03*
Y753110D02*
D03*
X601596Y758417D02*
D03*
Y753167D02*
D03*
X625556Y758275D02*
D03*
Y753025D02*
D03*
X631405D02*
D03*
Y758275D02*
D03*
X391160Y538480D02*
D03*
Y543730D02*
D03*
X385046Y543645D02*
D03*
Y538395D02*
D03*
X378930D02*
D03*
Y543645D02*
D03*
X367030Y538395D02*
D03*
Y543645D02*
D03*
X372930Y538395D02*
D03*
Y543645D02*
D03*
X360927Y538376D02*
D03*
Y543626D02*
D03*
X354737Y538430D02*
D03*
Y543680D02*
D03*
X347980Y538395D02*
D03*
Y543645D02*
D03*
X397510D02*
D03*
Y538395D02*
D03*
X403860Y543645D02*
D03*
Y538395D02*
D03*
X410210Y543645D02*
D03*
Y538395D02*
D03*
X397510Y555075D02*
D03*
Y549825D02*
D03*
X410210Y555075D02*
D03*
Y549825D02*
D03*
X476760Y543645D02*
D03*
Y538395D02*
D03*
X483870Y543645D02*
D03*
Y538395D02*
D03*
X411480Y326475D02*
D03*
Y321225D02*
D03*
X417830Y326475D02*
D03*
Y321225D02*
D03*
X424180D02*
D03*
Y326475D02*
D03*
X430530Y321225D02*
D03*
Y326475D02*
D03*
X405130D02*
D03*
Y321225D02*
D03*
X392430Y326475D02*
D03*
Y321225D02*
D03*
X398780D02*
D03*
Y326475D02*
D03*
X386080Y321225D02*
D03*
Y326475D02*
D03*
X379730D02*
D03*
Y321225D02*
D03*
X373380Y326475D02*
D03*
Y321225D02*
D03*
X367030Y326475D02*
D03*
Y321225D02*
D03*
X354330Y326475D02*
D03*
Y321225D02*
D03*
X360680Y326475D02*
D03*
Y321225D02*
D03*
X347980Y326475D02*
D03*
Y321225D02*
D03*
X330200D02*
D03*
Y326475D02*
D03*
X336550D02*
D03*
Y321225D02*
D03*
X473202Y767165D02*
D03*
Y761915D02*
D03*
X466852Y767165D02*
D03*
Y761915D02*
D03*
D20*
X399360Y793750D02*
D03*
X408360D02*
D03*
X428570Y603250D02*
D03*
X437570D02*
D03*
X428570Y613410D02*
D03*
X437570D02*
D03*
X428570Y623570D02*
D03*
X437570D02*
D03*
X501070Y603250D02*
D03*
X492070D02*
D03*
X501070Y613410D02*
D03*
X492070D02*
D03*
X500683Y623627D02*
D03*
X491683D02*
D03*
X500683Y633787D02*
D03*
X491683D02*
D03*
X670135Y802640D02*
D03*
X661135D02*
D03*
X639990D02*
D03*
X630990D02*
D03*
X595161D02*
D03*
X586161D02*
D03*
X564673D02*
D03*
X555673D02*
D03*
X591387Y566676D02*
D03*
X582387D02*
D03*
X610437D02*
D03*
X601437D02*
D03*
X629485Y566676D02*
D03*
X620485D02*
D03*
X629392Y554230D02*
D03*
X620392D02*
D03*
X429260Y529835D02*
D03*
X438260D02*
D03*
X458530D02*
D03*
X449530D02*
D03*
X261040Y500380D02*
D03*
X252040D02*
D03*
X261040Y511125D02*
D03*
X252040D02*
D03*
X198810Y281255D02*
D03*
X189810D02*
D03*
X198810Y270510D02*
D03*
X189810D02*
D03*
X139010Y287020D02*
D03*
X148010D02*
D03*
X139010Y276860D02*
D03*
X148010D02*
D03*
X139010Y265652D02*
D03*
X148010D02*
D03*
X139010Y254000D02*
D03*
X148010D02*
D03*
X139010Y187960D02*
D03*
X148010D02*
D03*
X139010Y176530D02*
D03*
X148010D02*
D03*
X139010Y165100D02*
D03*
X148010D02*
D03*
X182300Y151130D02*
D03*
X173300D02*
D03*
X182300Y161290D02*
D03*
X173300D02*
D03*
X313110Y101600D02*
D03*
X304110D02*
D03*
X334590D02*
D03*
X343590D02*
D03*
X456620Y82550D02*
D03*
X447620D02*
D03*
X482020D02*
D03*
X473020D02*
D03*
X758733Y246815D02*
D03*
X749733D02*
D03*
X731953D02*
D03*
X740953D02*
D03*
X857830Y375920D02*
D03*
X866830D02*
D03*
X725545Y735774D02*
D03*
X734545D02*
D03*
X790538Y725535D02*
D03*
X781538D02*
D03*
X501073Y726085D02*
D03*
X492073D02*
D03*
X426820Y736245D02*
D03*
X435820D02*
D03*
X426820Y726085D02*
D03*
X435820D02*
D03*
X399360Y748030D02*
D03*
X408360D02*
D03*
X278710Y756920D02*
D03*
X287710D02*
D03*
X148010Y558800D02*
D03*
X139010D02*
D03*
Y581660D02*
D03*
X148010D02*
D03*
X139010Y593090D02*
D03*
X148010D02*
D03*
Y610870D02*
D03*
X139010D02*
D03*
X148010Y621313D02*
D03*
X139010D02*
D03*
X148010Y635000D02*
D03*
X139010D02*
D03*
X148010Y645160D02*
D03*
X139010D02*
D03*
X148010Y661670D02*
D03*
X139010D02*
D03*
X148010Y671830D02*
D03*
X139010D02*
D03*
X790538Y695055D02*
D03*
X781538D02*
D03*
X725545Y725614D02*
D03*
X734545D02*
D03*
X725548Y705294D02*
D03*
X734548D02*
D03*
X725542Y715454D02*
D03*
X734541D02*
D03*
X725658Y695055D02*
D03*
X734658D02*
D03*
X795600Y758190D02*
D03*
X804600D02*
D03*
X790541Y705215D02*
D03*
X781541D02*
D03*
X795600Y768350D02*
D03*
X804600D02*
D03*
X795600Y748030D02*
D03*
X804600D02*
D03*
D22*
X426720Y798140D02*
D03*
Y807140D02*
D03*
X438785D02*
D03*
Y798140D02*
D03*
X450850Y807140D02*
D03*
Y798140D02*
D03*
X500588Y326888D02*
D03*
Y317888D02*
D03*
X612287Y660220D02*
D03*
Y669220D02*
D03*
X602381Y660220D02*
D03*
Y669220D02*
D03*
X628106Y660220D02*
D03*
Y669220D02*
D03*
X657753Y716608D02*
D03*
Y725608D02*
D03*
X657753Y703256D02*
D03*
Y694256D02*
D03*
X641350Y556150D02*
D03*
Y565150D02*
D03*
X651510Y556050D02*
D03*
Y565050D02*
D03*
X237490Y452702D02*
D03*
Y461702D02*
D03*
X250190Y461700D02*
D03*
Y452700D02*
D03*
X262890Y452698D02*
D03*
Y461698D02*
D03*
X175260Y222832D02*
D03*
Y231832D02*
D03*
X187960Y231830D02*
D03*
Y222830D02*
D03*
X200660Y222828D02*
D03*
Y231828D02*
D03*
X568960Y100910D02*
D03*
Y109910D02*
D03*
X583926Y100910D02*
D03*
Y109910D02*
D03*
X598891Y100910D02*
D03*
Y109910D02*
D03*
X613856Y100910D02*
D03*
Y109910D02*
D03*
X447040Y695270D02*
D03*
Y704270D02*
D03*
X457200Y695270D02*
D03*
Y704270D02*
D03*
X347622Y778108D02*
D03*
Y787108D02*
D03*
X336554Y777820D02*
D03*
Y786820D02*
D03*
X325487Y777820D02*
D03*
Y786820D02*
D03*
X314419Y777681D02*
D03*
Y786681D02*
D03*
X303351Y786820D02*
D03*
Y777820D02*
D03*
X292283Y777748D02*
D03*
Y786748D02*
D03*
X281215Y777692D02*
D03*
Y786692D02*
D03*
X270148Y777820D02*
D03*
Y786820D02*
D03*
X259080D02*
D03*
Y777820D02*
D03*
X569615Y703256D02*
D03*
Y694256D02*
D03*
X569615Y716608D02*
D03*
Y725608D02*
D03*
D52*
X170460Y582100D02*
G03*
X170460Y582100I-4310J0D01*
G01*
Y742100D02*
G03*
X170460Y742100I-4310J0D01*
G01*
D53*
X31627Y889997D02*
G03*
X10000Y868000I373J-21997D01*
G01*
X920000Y868058D02*
G03*
X898151Y889999I-22000J-58D01*
G01*
X198005Y889996D02*
G03*
X215608Y873998I17889J2000D01*
G01*
X10000Y32000D02*
G03*
X32000Y10000I22000J0D01*
G01*
X904000Y147952D02*
G03*
X920000Y130112I18000J48D01*
G01*
X714287Y874000D02*
G03*
X731782Y889996I-394J17996D01*
G01*
X731889Y10000D02*
G03*
X714285Y25998I-17889J-2000D01*
G01*
X215606Y25996D02*
G03*
X198111Y10000I394J-17996D01*
G01*
X920000Y774959D02*
G03*
X904000Y757071I2000J-17889D01*
G01*
X898000Y10000D02*
G03*
X920000Y32000I0J22000D01*
G01*
X215900Y26000D02*
X509746Y26000D01*
X9999Y32133D02*
Y94525D01*
X10000Y817087D02*
Y868000D01*
X31745Y889996D02*
X198005D01*
X32000Y10000D02*
X198111D01*
X215899Y873994D02*
X420147Y873996D01*
X713993Y873996D01*
X509746Y26000D02*
X713994Y26002D01*
X731782Y889996D02*
X897893D01*
X731889Y10000D02*
X898000D01*
X904000Y148000D02*
X904000Y757016D01*
X920000Y774959D02*
Y868058D01*
X920000Y32000D02*
Y130112D01*
D55*
X899730Y605318D02*
D03*
Y711418D02*
D03*
D62*
X489512Y857248D02*
D03*
X401012D02*
D03*
D63*
X426512Y828248D02*
D03*
X464012D02*
D03*
X451512D02*
D03*
X439012D02*
D03*
D64*
X847830Y658368D02*
D03*
Y643368D02*
D03*
Y628368D02*
D03*
Y673368D02*
D03*
Y688368D02*
D03*
D68*
X735330Y618490D02*
D03*
X758330D02*
D03*
X781330D02*
D03*
D69*
X758330Y560490D02*
D03*
D72*
X550407Y587236D02*
D03*
X562407D02*
D03*
X550407Y617236D02*
D03*
X562407D02*
D03*
X665977Y587236D02*
D03*
X677977D02*
D03*
X665977Y617236D02*
D03*
X677977D02*
D03*
D73*
X556407Y587236D02*
D03*
Y617236D02*
D03*
X671977Y587236D02*
D03*
Y617236D02*
D03*
D75*
X694690Y527050D02*
D03*
D76*
Y501650D02*
D03*
Y476250D02*
D03*
Y400050D02*
D03*
Y425450D02*
D03*
Y450850D02*
D03*
Y374650D02*
D03*
Y349250D02*
D03*
D77*
X166150Y582100D02*
D03*
Y742100D02*
D03*
D78*
X61100Y291200D02*
D03*
Y316600D02*
D03*
X35700D02*
D03*
X61100Y342000D02*
D03*
X35700D02*
D03*
X61100Y367400D02*
D03*
X35700D02*
D03*
X61100Y392800D02*
D03*
X35700D02*
D03*
X61100Y494400D02*
D03*
X35700D02*
D03*
X61100Y519800D02*
D03*
X35700D02*
D03*
X61100Y545200D02*
D03*
X35700D02*
D03*
X61100Y570600D02*
D03*
Y596000D02*
D03*
X35700D02*
D03*
Y570600D02*
D03*
Y621400D02*
D03*
X61100D02*
D03*
Y646800D02*
D03*
X35700D02*
D03*
X61100Y672200D02*
D03*
X35700D02*
D03*
X61100Y723000D02*
D03*
X35700D02*
D03*
X61100Y748400D02*
D03*
X35700D02*
D03*
X61100Y773800D02*
D03*
X35700D02*
D03*
Y138800D02*
D03*
X61100Y164200D02*
D03*
X35700D02*
D03*
X61100Y189600D02*
D03*
X35700D02*
D03*
X61100Y215000D02*
D03*
X35700D02*
D03*
X61100Y240400D02*
D03*
Y265800D02*
D03*
X35700D02*
D03*
Y291200D02*
D03*
Y240400D02*
D03*
X61100Y469000D02*
D03*
X35700D02*
D03*
X61100Y443600D02*
D03*
X35700D02*
D03*
Y697600D02*
D03*
X61100D02*
D03*
X35700Y418200D02*
D03*
X61100D02*
D03*
X86500Y316600D02*
D03*
X111900Y342000D02*
D03*
X86500D02*
D03*
X111900Y367400D02*
D03*
X86500D02*
D03*
Y392800D02*
D03*
Y443600D02*
D03*
Y418200D02*
D03*
Y469000D02*
D03*
X111900Y494400D02*
D03*
X86500D02*
D03*
X111900Y519800D02*
D03*
X86500D02*
D03*
X111900Y545200D02*
D03*
X86500D02*
D03*
X111900Y570600D02*
D03*
X86500D02*
D03*
Y621400D02*
D03*
X111900Y646800D02*
D03*
X86500D02*
D03*
X111900Y723000D02*
D03*
X86500D02*
D03*
X111900Y748400D02*
D03*
X86500D02*
D03*
X111900Y773800D02*
D03*
X86500D02*
D03*
Y138800D02*
D03*
Y164200D02*
D03*
X111900Y189600D02*
D03*
Y215000D02*
D03*
X86500D02*
D03*
Y265800D02*
D03*
Y240400D02*
D03*
X111900Y164200D02*
D03*
Y418200D02*
D03*
Y392800D02*
D03*
Y469000D02*
D03*
Y443600D02*
D03*
X86500Y189600D02*
D03*
X111900Y240400D02*
D03*
Y265800D02*
D03*
Y291200D02*
D03*
Y316600D02*
D03*
Y596000D02*
D03*
X86500D02*
D03*
X111900Y621400D02*
D03*
Y672200D02*
D03*
X86500D02*
D03*
Y291200D02*
D03*
X111900Y697600D02*
D03*
X86500D02*
D03*
D79*
X61100Y138800D02*
D03*
X111900D02*
D03*
D80*
X194200Y111000D02*
D03*
Y201000D02*
D03*
D81*
X167200Y46000D02*
D03*
X757200D02*
D03*
Y386000D02*
D03*
X167200D02*
D03*
X816400Y484100D02*
D03*
X169000Y826700D02*
D03*
Y484100D02*
D03*
X816400Y826700D02*
D03*
D82*
X35700Y88000D02*
D03*
Y824600D02*
D03*
X893000Y850000D02*
D03*
Y50000D02*
D03*
D83*
X825540Y769620D02*
D03*
D84*
Y744220D02*
D03*
D133*
X606780Y316620D02*
D03*
X542780D02*
D03*
X606780Y308620D02*
D03*
X542780D02*
D03*
X606780Y300620D02*
D03*
X542780D02*
D03*
X606780Y292620D02*
D03*
X542780D02*
D03*
X606780Y284620D02*
D03*
X542780D02*
D03*
X606780Y276620D02*
D03*
X542780D02*
D03*
X598780Y268620D02*
D03*
X550780D02*
D03*
X606780Y260620D02*
D03*
X598780D02*
D03*
X550780D02*
D03*
X542780D02*
D03*
X606780Y252620D02*
D03*
X550780D02*
D03*
X606780Y244620D02*
D03*
X598780D02*
D03*
X590780D02*
D03*
X542780D02*
D03*
X606780Y236620D02*
D03*
X542780D02*
D03*
X606780Y228620D02*
D03*
X598780D02*
D03*
X550780D02*
D03*
X542780D02*
D03*
X606780Y220620D02*
D03*
X598780D02*
D03*
X550780D02*
D03*
X542780D02*
D03*
X606780Y212620D02*
D03*
X542780D02*
D03*
X606780Y204620D02*
D03*
X558780D02*
D03*
X550780D02*
D03*
X542780D02*
D03*
X606780Y196620D02*
D03*
X598780D02*
D03*
X542780D02*
D03*
X558780Y292620D02*
D03*
X590780Y300620D02*
D03*
X558780D02*
D03*
X550780Y292620D02*
D03*
X598780Y300620D02*
D03*
X550780D02*
D03*
X598780Y308620D02*
D03*
X550780D02*
D03*
X598780Y316620D02*
D03*
X558780Y308620D02*
D03*
X590780Y276620D02*
D03*
Y308620D02*
D03*
Y292620D02*
D03*
X558780Y316620D02*
D03*
X590780D02*
D03*
Y284620D02*
D03*
X550780D02*
D03*
X598780Y292620D02*
D03*
X558780Y284620D02*
D03*
Y268620D02*
D03*
X590780D02*
D03*
Y260620D02*
D03*
X606780Y268620D02*
D03*
X550780Y276620D02*
D03*
X558780Y228620D02*
D03*
X590780Y236620D02*
D03*
X550780D02*
D03*
X598780D02*
D03*
X558780Y252620D02*
D03*
X598780D02*
D03*
X550780Y244620D02*
D03*
X590780Y252620D02*
D03*
Y220620D02*
D03*
X558780Y212620D02*
D03*
X598780D02*
D03*
X550780D02*
D03*
X590780Y196620D02*
D03*
X550780D02*
D03*
X598780Y204620D02*
D03*
X558780Y196620D02*
D03*
X590780Y228620D02*
D03*
X558780Y220620D02*
D03*
Y244620D02*
D03*
Y236620D02*
D03*
X590780Y204620D02*
D03*
Y212620D02*
D03*
X542780Y268620D02*
D03*
X558780Y260620D02*
D03*
X550780Y316620D02*
D03*
X542780Y252620D02*
D03*
X598780Y284620D02*
D03*
X558780Y276620D02*
D03*
X598780D02*
D03*
D165*
X421760Y545797D02*
D03*
X436760D02*
D03*
D168*
X848090Y297006D02*
D03*
Y267006D02*
D03*
Y282006D02*
D03*
Y252006D02*
D03*
Y237006D02*
D03*
Y222006D02*
D03*
Y207006D02*
D03*
Y192006D02*
D03*
D169*
X899990Y165956D02*
D03*
Y323056D02*
D03*
D170*
X457280Y445620D02*
D03*
X470280D02*
D03*
X359780Y367620D02*
D03*
X372780D02*
D03*
X379280D02*
D03*
X385780D02*
D03*
X392280D02*
D03*
X398780D02*
D03*
X405280D02*
D03*
X424780D02*
D03*
X437780D02*
D03*
X444280D02*
D03*
X463780D02*
D03*
X489780D02*
D03*
X359780Y374120D02*
D03*
X366280D02*
D03*
X372780D02*
D03*
X379280D02*
D03*
X398780D02*
D03*
X411780D02*
D03*
X483280D02*
D03*
X359780Y380620D02*
D03*
X366280D02*
D03*
X379280D02*
D03*
X385780D02*
D03*
X398780D02*
D03*
X405280D02*
D03*
X424780D02*
D03*
X444280D02*
D03*
X463780D02*
D03*
X359780Y387120D02*
D03*
X366280D02*
D03*
X372780D02*
D03*
X398780D02*
D03*
X411780D02*
D03*
X437780D02*
D03*
X359780Y393620D02*
D03*
X372780D02*
D03*
X385780D02*
D03*
X392280D02*
D03*
X398780D02*
D03*
X450780D02*
D03*
X457280D02*
D03*
X463780D02*
D03*
X476780D02*
D03*
X489780D02*
D03*
X359780Y400120D02*
D03*
X366280D02*
D03*
X385780D02*
D03*
X392280D02*
D03*
X398780D02*
D03*
X411780D02*
D03*
X437780D02*
D03*
X450780D02*
D03*
X457280D02*
D03*
X463780D02*
D03*
X359780Y406620D02*
D03*
X366280D02*
D03*
X385780D02*
D03*
X398780D02*
D03*
X424780D02*
D03*
X431280D02*
D03*
X450780D02*
D03*
X463780D02*
D03*
X359780Y413120D02*
D03*
X372780D02*
D03*
X405280D02*
D03*
X411780D02*
D03*
X424780D02*
D03*
X444280D02*
D03*
X476780D02*
D03*
X489780D02*
D03*
X359780Y419620D02*
D03*
X366280D02*
D03*
X379280D02*
D03*
X392280D02*
D03*
X398780D02*
D03*
X411780D02*
D03*
X418280D02*
D03*
X424780D02*
D03*
X437780D02*
D03*
X457280D02*
D03*
X470280D02*
D03*
X398780Y426120D02*
D03*
X405280D02*
D03*
X418280D02*
D03*
X431280D02*
D03*
X359780Y432620D02*
D03*
X372780D02*
D03*
X398780D02*
D03*
X405280D02*
D03*
X424780D02*
D03*
X450780D02*
D03*
X476780D02*
D03*
X489780D02*
D03*
X418280Y439120D02*
D03*
X431280D02*
D03*
X437780D02*
D03*
X444280D02*
D03*
X359780Y445620D02*
D03*
X366280D02*
D03*
X379280D02*
D03*
X392280D02*
D03*
X398780D02*
D03*
X405280D02*
D03*
X411780D02*
D03*
X437780D02*
D03*
X444280D02*
D03*
X483280D02*
D03*
X489780D02*
D03*
X359780Y452120D02*
D03*
X372780D02*
D03*
X379280D02*
D03*
X385780D02*
D03*
X398780D02*
D03*
X405280D02*
D03*
X418280D02*
D03*
X437780D02*
D03*
X444280D02*
D03*
X450780D02*
D03*
X457280D02*
D03*
X470280D02*
D03*
X476780D02*
D03*
X489780D02*
D03*
X366280Y458620D02*
D03*
X372780D02*
D03*
X379280D02*
D03*
X385780D02*
D03*
X398780D02*
D03*
X418280D02*
D03*
X424780D02*
D03*
X437780D02*
D03*
X450780D02*
D03*
X463780D02*
D03*
X470280D02*
D03*
X476780D02*
D03*
X372780Y465120D02*
D03*
X385780D02*
D03*
X392280D02*
D03*
X398780D02*
D03*
X411780D02*
D03*
X437780D02*
D03*
X444280D02*
D03*
X450780D02*
D03*
X457280D02*
D03*
X476780D02*
D03*
X359780Y471620D02*
D03*
X372780D02*
D03*
X385780D02*
D03*
X392280D02*
D03*
X398780D02*
D03*
X450780D02*
D03*
X457280D02*
D03*
X463780D02*
D03*
X476780D02*
D03*
X489780D02*
D03*
X359780Y478120D02*
D03*
X366280D02*
D03*
X372780D02*
D03*
X411780D02*
D03*
X437780D02*
D03*
X444280D02*
D03*
X457280D02*
D03*
X463780D02*
D03*
X483280D02*
D03*
X359780Y484620D02*
D03*
X372780D02*
D03*
X379280D02*
D03*
X385780D02*
D03*
X444280D02*
D03*
X450780D02*
D03*
X457280D02*
D03*
X463780D02*
D03*
X470280D02*
D03*
X476780D02*
D03*
X366280Y491120D02*
D03*
X457280D02*
D03*
X483280D02*
D03*
X489780D02*
D03*
X359780Y497620D02*
D03*
X372780D02*
D03*
X379280D02*
D03*
X385780D02*
D03*
X405280D02*
D03*
X424780D02*
D03*
X470280D02*
D03*
X483280D02*
D03*
X489780D02*
D03*
X424780Y426120D02*
D03*
Y439120D02*
D03*
X457280Y380620D02*
D03*
Y413120D02*
D03*
X463780Y387120D02*
D03*
X457280D02*
D03*
Y406620D02*
D03*
X470280Y380620D02*
D03*
X450780Y413120D02*
D03*
X483280Y380620D02*
D03*
X444280Y432620D02*
D03*
X470280Y387120D02*
D03*
X476780Y400120D02*
D03*
X437780Y426120D02*
D03*
X463780Y413120D02*
D03*
X483280Y387120D02*
D03*
X437780Y432620D02*
D03*
X470280Y406620D02*
D03*
X444280Y387120D02*
D03*
X470280Y413120D02*
D03*
X444280Y406620D02*
D03*
Y400120D02*
D03*
X470280D02*
D03*
Y393620D02*
D03*
X476780Y387120D02*
D03*
X450780D02*
D03*
X483280Y419620D02*
D03*
X450780Y426120D02*
D03*
X476780Y406620D02*
D03*
X444280Y426120D02*
D03*
X483280Y400120D02*
D03*
X444280Y419620D02*
D03*
X489780Y400120D02*
D03*
X450780Y419620D02*
D03*
Y374120D02*
D03*
X470280Y367620D02*
D03*
X437780Y374120D02*
D03*
X476780D02*
D03*
X450780Y367620D02*
D03*
X476780D02*
D03*
X450780Y380620D02*
D03*
X476780D02*
D03*
X489780Y419620D02*
D03*
X470280Y374120D02*
D03*
X483280Y406620D02*
D03*
X489780D02*
D03*
X457280Y367620D02*
D03*
Y374120D02*
D03*
X489780Y380620D02*
D03*
X444280Y393620D02*
D03*
X489780Y387120D02*
D03*
Y374120D02*
D03*
X431280Y419620D02*
D03*
X450780Y439120D02*
D03*
X457280Y497620D02*
D03*
X379280Y387120D02*
D03*
X405280Y419620D02*
D03*
X379280Y413120D02*
D03*
X372780Y406620D02*
D03*
X385780Y413120D02*
D03*
X379280Y406620D02*
D03*
X372780Y400120D02*
D03*
X431280Y452120D02*
D03*
X372780Y491120D02*
D03*
X366280Y465120D02*
D03*
X483280Y367620D02*
D03*
X470280Y471620D02*
D03*
X476780Y478120D02*
D03*
X379280Y393620D02*
D03*
X385780Y387120D02*
D03*
X405280Y406620D02*
D03*
X379280Y400120D02*
D03*
X392280Y413120D02*
D03*
Y387120D02*
D03*
X405280Y400120D02*
D03*
X398780Y413120D02*
D03*
X411780Y406620D02*
D03*
X405280Y393620D02*
D03*
X418280Y406620D02*
D03*
Y413120D02*
D03*
X405280Y387120D02*
D03*
X437780Y406620D02*
D03*
X392280Y380620D02*
D03*
X372780D02*
D03*
X431280Y413120D02*
D03*
X366280Y367620D02*
D03*
X437780Y413120D02*
D03*
X359780Y491120D02*
D03*
X405280Y439120D02*
D03*
X411780Y432620D02*
D03*
X398780Y439120D02*
D03*
X359780Y465120D02*
D03*
Y458620D02*
D03*
X411780Y439120D02*
D03*
X366280Y484620D02*
D03*
X398780Y478120D02*
D03*
X405280Y484620D02*
D03*
Y478120D02*
D03*
X398780Y491120D02*
D03*
X411780Y497620D02*
D03*
X398780D02*
D03*
X424780Y484620D02*
D03*
X450780Y478120D02*
D03*
X444280Y458620D02*
D03*
X483280Y484620D02*
D03*
X489780D02*
D03*
X463780Y452120D02*
D03*
X489780Y478120D02*
D03*
X450780Y445620D02*
D03*
X470280Y478120D02*
D03*
Y465120D02*
D03*
X476780Y497620D02*
D03*
X463780Y465120D02*
D03*
X476780Y491120D02*
D03*
X457280Y458620D02*
D03*
X398780Y484620D02*
D03*
X392280Y478120D02*
D03*
Y491120D02*
D03*
X385780Y478120D02*
D03*
X392280Y497620D02*
D03*
Y484620D02*
D03*
X411780Y458620D02*
D03*
X379280Y491120D02*
D03*
X431280Y458620D02*
D03*
X366280Y497620D02*
D03*
X405280Y458620D02*
D03*
Y465120D02*
D03*
X392280Y458620D02*
D03*
X424780Y452120D02*
D03*
X379280Y478120D02*
D03*
X424780Y445620D02*
D03*
X379280Y471620D02*
D03*
X411780Y452120D02*
D03*
X392280D02*
D03*
X379280Y465120D02*
D03*
X418280Y445620D02*
D03*
X411780Y367620D02*
D03*
X392280Y374120D02*
D03*
X431280Y445620D02*
D03*
X463780Y497620D02*
D03*
X411780Y426120D02*
D03*
X392280Y406620D02*
D03*
X411780Y491120D02*
D03*
X405280Y471620D02*
D03*
X470280Y491120D02*
D03*
X489780Y465120D02*
D03*
X483280D02*
D03*
X444280Y471620D02*
D03*
Y497620D02*
D03*
X450780Y491120D02*
D03*
X437780Y497620D02*
D03*
X450780D02*
D03*
X437780Y491120D02*
D03*
X489780Y458620D02*
D03*
X483280D02*
D03*
D171*
X329457Y818136D02*
D03*
X284457D02*
D03*
X299457D02*
D03*
X314457D02*
D03*
D172*
X258407Y870036D02*
D03*
X355507D02*
D03*
D173*
X613058Y817804D02*
D03*
X673058D02*
D03*
X658058D02*
D03*
X598058D02*
D03*
X583058D02*
D03*
X643058D02*
D03*
X628058D02*
D03*
X568058D02*
D03*
X553058D02*
D03*
X316150Y82166D02*
D03*
X331150D02*
D03*
X301150D02*
D03*
X286150D02*
D03*
X361150D02*
D03*
X346150D02*
D03*
X628850D02*
D03*
X643850D02*
D03*
X598850D02*
D03*
X613850D02*
D03*
X568850D02*
D03*
X583850D02*
D03*
D174*
X696108Y869704D02*
D03*
X530008D02*
D03*
X384150Y30266D02*
D03*
X263150D02*
D03*
X666850D02*
D03*
X545850D02*
D03*
D175*
X588557Y712432D02*
D03*
Y707432D02*
D03*
X638557D02*
D03*
Y712432D02*
D03*
Y722432D02*
D03*
Y697432D02*
D03*
X588557D02*
D03*
Y722432D02*
D03*
X638557Y727432D02*
D03*
Y692432D02*
D03*
X588557D02*
D03*
Y727432D02*
D03*
X638557Y717432D02*
D03*
Y702432D02*
D03*
X588557D02*
D03*
Y717432D02*
D03*
D176*
X631057Y684932D02*
D03*
X606057Y734932D02*
D03*
X611057D02*
D03*
X616057Y684932D02*
D03*
X621057Y734932D02*
D03*
X616057D02*
D03*
X596057Y684932D02*
D03*
X606057D02*
D03*
X601057D02*
D03*
X631057Y734932D02*
D03*
X596057D02*
D03*
X626057Y684932D02*
D03*
X601057Y734932D02*
D03*
X621057Y684932D02*
D03*
X611057D02*
D03*
X626057Y734932D02*
D03*
D177*
X613558Y709930D02*
D03*
D178*
X475820Y627760D02*
D03*
X453820Y603760D02*
D03*
Y619760D02*
D03*
Y635760D02*
D03*
Y627760D02*
D03*
X475820Y611760D02*
D03*
Y603760D02*
D03*
Y619760D02*
D03*
X453820Y611760D02*
D03*
X475820Y635760D02*
D03*
D179*
X614267Y601916D02*
D03*
D180*
X634267Y598666D02*
D03*
X594267Y592166D02*
D03*
X634267D02*
D03*
X594267Y598666D02*
D03*
X634267Y605166D02*
D03*
Y611666D02*
D03*
X594267Y605166D02*
D03*
Y611666D02*
D03*
D181*
X611017Y581916D02*
D03*
X617517D02*
D03*
X604517D02*
D03*
X624017D02*
D03*
Y621916D02*
D03*
X617517D02*
D03*
X604517D02*
D03*
X611017D02*
D03*
D182*
X654740Y591820D02*
D03*
X645740D02*
D03*
D183*
X676897Y661182D02*
D03*
X656897D02*
D03*
X551557Y661182D02*
D03*
X571557D02*
D03*
X551557Y758682D02*
D03*
X571557D02*
D03*
X676897Y758682D02*
D03*
X656897D02*
D03*
D184*
X552597Y700406D02*
D03*
Y684406D02*
D03*
X552597Y719966D02*
D03*
Y735966D02*
D03*
X675787Y700406D02*
D03*
Y684406D02*
D03*
X675787Y719966D02*
D03*
Y735966D02*
D03*
D185*
X610870Y760150D02*
D03*
Y751150D02*
D03*
D186*
X466476Y550817D02*
D03*
X452976Y540317D02*
D03*
X466476D02*
D03*
X452976Y550817D02*
D03*
D187*
X224000Y262730D02*
D03*
Y252730D02*
D03*
Y182730D02*
D03*
Y172730D02*
D03*
X234000Y262730D02*
D03*
Y172730D02*
D03*
X254000Y252730D02*
D03*
Y242730D02*
D03*
Y232730D02*
D03*
Y222730D02*
D03*
Y212730D02*
D03*
Y202730D02*
D03*
Y192730D02*
D03*
Y182730D02*
D03*
X264000Y252730D02*
D03*
Y242730D02*
D03*
Y222730D02*
D03*
Y212730D02*
D03*
Y202730D02*
D03*
Y192730D02*
D03*
Y182730D02*
D03*
X274000Y252730D02*
D03*
Y242730D02*
D03*
Y232730D02*
D03*
Y222730D02*
D03*
Y212730D02*
D03*
Y202730D02*
D03*
Y192730D02*
D03*
Y182730D02*
D03*
X284000Y252730D02*
D03*
Y242730D02*
D03*
Y232730D02*
D03*
Y222730D02*
D03*
Y212730D02*
D03*
Y202730D02*
D03*
Y192730D02*
D03*
Y182730D02*
D03*
X294000Y252730D02*
D03*
Y242730D02*
D03*
Y232730D02*
D03*
Y222730D02*
D03*
Y212730D02*
D03*
Y202730D02*
D03*
Y192730D02*
D03*
Y182730D02*
D03*
X304000Y252730D02*
D03*
Y242730D02*
D03*
Y232730D02*
D03*
Y222730D02*
D03*
Y212730D02*
D03*
Y202730D02*
D03*
Y192730D02*
D03*
Y182730D02*
D03*
X314000Y232730D02*
D03*
Y212730D02*
D03*
Y202730D02*
D03*
X324000Y252730D02*
D03*
Y242730D02*
D03*
Y232730D02*
D03*
Y222730D02*
D03*
Y212730D02*
D03*
Y202730D02*
D03*
Y192730D02*
D03*
Y182730D02*
D03*
X334000Y252730D02*
D03*
Y242730D02*
D03*
Y232730D02*
D03*
Y212730D02*
D03*
Y202730D02*
D03*
Y192730D02*
D03*
Y182730D02*
D03*
X344000Y232730D02*
D03*
Y222730D02*
D03*
Y212730D02*
D03*
Y202730D02*
D03*
X354000Y252730D02*
D03*
Y242730D02*
D03*
Y232730D02*
D03*
Y202730D02*
D03*
Y192730D02*
D03*
Y182730D02*
D03*
X374000Y262730D02*
D03*
Y172730D02*
D03*
X384000Y262730D02*
D03*
Y252730D02*
D03*
Y182730D02*
D03*
Y172730D02*
D03*
X264000Y232730D02*
D03*
X354000Y212730D02*
D03*
Y222730D02*
D03*
X314000Y252730D02*
D03*
X344000D02*
D03*
X314000Y242730D02*
D03*
X344000D02*
D03*
Y192730D02*
D03*
X314000D02*
D03*
X344000Y182730D02*
D03*
X314000D02*
D03*
Y222730D02*
D03*
X334000D02*
D03*
X203680Y705640D02*
D03*
Y695640D02*
D03*
Y625640D02*
D03*
Y615640D02*
D03*
X213680Y705640D02*
D03*
Y615640D02*
D03*
X233680Y695640D02*
D03*
Y685640D02*
D03*
Y675640D02*
D03*
Y665640D02*
D03*
Y655640D02*
D03*
Y645640D02*
D03*
Y635640D02*
D03*
Y625640D02*
D03*
X243680Y695640D02*
D03*
Y685640D02*
D03*
Y665640D02*
D03*
Y655640D02*
D03*
Y645640D02*
D03*
Y635640D02*
D03*
Y625640D02*
D03*
X253680Y695640D02*
D03*
Y685640D02*
D03*
Y675640D02*
D03*
Y665640D02*
D03*
Y655640D02*
D03*
Y645640D02*
D03*
Y635640D02*
D03*
Y625640D02*
D03*
X263680Y695640D02*
D03*
Y685640D02*
D03*
Y675640D02*
D03*
Y665640D02*
D03*
Y655640D02*
D03*
Y645640D02*
D03*
Y635640D02*
D03*
Y625640D02*
D03*
X273680Y695640D02*
D03*
Y685640D02*
D03*
Y675640D02*
D03*
Y665640D02*
D03*
Y655640D02*
D03*
Y645640D02*
D03*
Y635640D02*
D03*
Y625640D02*
D03*
X283680Y695640D02*
D03*
Y685640D02*
D03*
Y675640D02*
D03*
Y665640D02*
D03*
Y655640D02*
D03*
Y645640D02*
D03*
Y635640D02*
D03*
Y625640D02*
D03*
X293680Y675640D02*
D03*
Y665640D02*
D03*
Y655640D02*
D03*
Y645640D02*
D03*
Y635640D02*
D03*
Y625640D02*
D03*
X303680Y695640D02*
D03*
Y685640D02*
D03*
Y675640D02*
D03*
Y665640D02*
D03*
Y655640D02*
D03*
Y645640D02*
D03*
Y635640D02*
D03*
Y625640D02*
D03*
X313680Y695640D02*
D03*
Y685640D02*
D03*
Y675640D02*
D03*
Y655640D02*
D03*
Y645640D02*
D03*
Y635640D02*
D03*
Y625640D02*
D03*
X323680Y675640D02*
D03*
Y665640D02*
D03*
Y655640D02*
D03*
Y645640D02*
D03*
Y635640D02*
D03*
Y625640D02*
D03*
X333680Y695640D02*
D03*
Y685640D02*
D03*
Y675640D02*
D03*
Y645640D02*
D03*
Y635640D02*
D03*
Y625640D02*
D03*
X353680Y705640D02*
D03*
Y615640D02*
D03*
X363680Y705640D02*
D03*
Y695640D02*
D03*
Y625640D02*
D03*
Y615640D02*
D03*
X243680Y675640D02*
D03*
X333680Y655640D02*
D03*
Y665640D02*
D03*
X293680Y695640D02*
D03*
X323680D02*
D03*
X293680Y685640D02*
D03*
X323680D02*
D03*
X313680Y665640D02*
D03*
D188*
X245730Y351370D02*
D03*
X283830Y423370D02*
D03*
X271130Y351370D02*
D03*
X245730Y423370D02*
D03*
X283830Y351370D02*
D03*
X258430Y423370D02*
D03*
X271130D02*
D03*
X258430Y351370D02*
D03*
D189*
X756530Y123365D02*
D03*
Y177865D02*
D03*
D190*
X736858Y219195D02*
D03*
X777858D02*
D03*
X736977Y669734D02*
D03*
X777977D02*
D03*
D191*
X769843Y246815D02*
D03*
X784343D02*
D03*
D192*
X758294Y291950D02*
D03*
D193*
X843788Y355979D02*
D03*
X880872D02*
D03*
X739556Y758190D02*
D03*
X776640D02*
D03*
X340614Y756920D02*
D03*
X303530D02*
D03*
D194*
X767186Y717702D02*
D03*
X748686D02*
D03*
X748716Y713211D02*
D03*
X767186D02*
D03*
D195*
X760445Y715444D02*
D03*
X755445Y715454D02*
D03*
D196*
X748686Y722454D02*
D03*
X767186Y708454D02*
D03*
Y722454D02*
D03*
X748715Y708455D02*
D03*
D197*
X750686Y724204D02*
D03*
X765185Y706704D02*
D03*
X765185Y724204D02*
D03*
X750715Y706704D02*
D03*
D198*
X464820Y731520D02*
D03*
D199*
X479520Y724020D02*
D03*
X450120Y739020D02*
D03*
Y734020D02*
D03*
X479520Y729020D02*
D03*
X450120D02*
D03*
Y724020D02*
D03*
X479520Y734020D02*
D03*
Y739020D02*
D03*
D200*
X462320Y746220D02*
D03*
X457320D02*
D03*
Y716820D02*
D03*
X472320D02*
D03*
X462320D02*
D03*
X467320D02*
D03*
Y746220D02*
D03*
X472320D02*
D03*
D201*
X429260Y54610D02*
D03*
X499260D02*
D03*
M02*
