G04*
G04 #@! TF.GenerationSoftware,Altium Limited,Altium Designer,25.8.1 (18)*
G04*
G04 Layer_Color=128*
%FSLAX44Y44*%
%MOMM*%
G71*
G04*
G04 #@! TF.SameCoordinates,ECE004E0-EE2E-4E48-9006-E47A2BE9C745*
G04*
G04*
G04 #@! TF.FilePolarity,Positive*
G04*
G01*
G75*
%ADD15C,0.1270*%
D15*
X162350Y582100D02*
X169950D01*
X166150Y578300D02*
Y585900D01*
X162350Y742100D02*
X169950D01*
X166150Y738300D02*
Y745900D01*
X877100Y850000D02*
X908900D01*
X893000Y834100D02*
Y865900D01*
X794400Y826700D02*
X838400D01*
X816400Y804700D02*
Y848700D01*
X739560Y630370D02*
X741560D01*
X740560Y629370D02*
Y631370D01*
X726560Y630370D02*
X728560D01*
X727560Y629370D02*
Y631370D01*
X739560Y604370D02*
X741560D01*
X740560Y603370D02*
Y605370D01*
X739560Y591370D02*
X741560D01*
X740560Y590370D02*
Y592370D01*
X739560Y617370D02*
X741560D01*
X740560Y616370D02*
Y618370D01*
X726560Y604370D02*
X728560D01*
X727560Y603370D02*
Y605370D01*
X726560Y591370D02*
X728560D01*
X727560Y590370D02*
Y592370D01*
X726560Y617370D02*
X728560D01*
X727560Y616370D02*
Y618370D01*
X794400Y484100D02*
X838400D01*
X816400Y462100D02*
Y506100D01*
X735200Y386000D02*
X779200D01*
X757200Y364000D02*
Y408000D01*
X877100Y50000D02*
X908900D01*
X893000Y34100D02*
Y65900D01*
X735200Y46000D02*
X779200D01*
X757200Y24000D02*
Y68000D01*
X147000Y826700D02*
X191000D01*
X169000Y804700D02*
Y848700D01*
X19800Y824600D02*
X51600D01*
X35700Y808700D02*
Y840500D01*
X31200Y723000D02*
X40200D01*
X35700Y718500D02*
Y727500D01*
X56600Y723000D02*
X65600D01*
X61100Y718500D02*
Y727500D01*
X56600Y519800D02*
X65600D01*
X61100Y515300D02*
Y524300D01*
X31200Y494400D02*
X40200D01*
X35700Y489900D02*
Y498900D01*
X31200Y519800D02*
X40200D01*
X35700Y515300D02*
Y524300D01*
X147000Y484100D02*
X191000D01*
X169000Y462100D02*
Y506100D01*
X56600Y494400D02*
X65600D01*
X61100Y489900D02*
Y498900D01*
X145200Y386000D02*
X189200D01*
X167200Y364000D02*
Y408000D01*
X19800Y88000D02*
X51600D01*
X35700Y72100D02*
Y103900D01*
X145200Y46000D02*
X189200D01*
X167200Y24000D02*
Y68000D01*
X820040Y744220D02*
X831040D01*
X825540Y738720D02*
Y749720D01*
X820040Y769620D02*
X831040D01*
X825540Y764120D02*
Y775120D01*
X188250Y111000D02*
X200150D01*
X194200Y105050D02*
Y116950D01*
X188250Y201000D02*
X200150D01*
X194200Y195050D02*
Y206950D01*
X82000Y672200D02*
X91000D01*
X86500Y667700D02*
Y676700D01*
X107400Y646800D02*
X116400D01*
X111900Y642300D02*
Y651300D01*
X82000Y697600D02*
X91000D01*
X86500Y693100D02*
Y702100D01*
X107400Y697600D02*
X116400D01*
X111900Y693100D02*
Y702100D01*
X82000Y291200D02*
X91000D01*
X86500Y286700D02*
Y295700D01*
X107400Y672200D02*
X116400D01*
X111900Y667700D02*
Y676700D01*
X107400Y621400D02*
X116400D01*
X111900Y616900D02*
Y625900D01*
X82000Y596000D02*
X91000D01*
X86500Y591500D02*
Y600500D01*
X107400Y596000D02*
X116400D01*
X111900Y591500D02*
Y600500D01*
X107400Y316600D02*
X116400D01*
X111900Y312100D02*
Y321100D01*
X107400Y291200D02*
X116400D01*
X111900Y286700D02*
Y295700D01*
X107400Y265800D02*
X116400D01*
X111900Y261300D02*
Y270300D01*
X107400Y240400D02*
X116400D01*
X111900Y235900D02*
Y244900D01*
X82000Y189600D02*
X91000D01*
X86500Y185100D02*
Y194100D01*
X107400Y443600D02*
X116400D01*
X111900Y439100D02*
Y448100D01*
X107400Y469000D02*
X116400D01*
X111900Y464500D02*
Y473500D01*
X107400Y392800D02*
X116400D01*
X111900Y388300D02*
Y397300D01*
X107400Y418200D02*
X116400D01*
X111900Y413700D02*
Y422700D01*
X107400Y138800D02*
X116400D01*
X111900Y134300D02*
Y143300D01*
X107400Y164200D02*
X116400D01*
X111900Y159700D02*
Y168700D01*
X82000Y316600D02*
X91000D01*
X86500Y312100D02*
Y321100D01*
X107400Y342000D02*
X116400D01*
X111900Y337500D02*
Y346500D01*
X82000Y342000D02*
X91000D01*
X86500Y337500D02*
Y346500D01*
X107400Y367400D02*
X116400D01*
X111900Y362900D02*
Y371900D01*
X82000Y367400D02*
X91000D01*
X86500Y362900D02*
Y371900D01*
X82000Y392800D02*
X91000D01*
X86500Y388300D02*
Y397300D01*
X82000Y443600D02*
X91000D01*
X86500Y439100D02*
Y448100D01*
X82000Y418200D02*
X91000D01*
X86500Y413700D02*
Y422700D01*
X82000Y469000D02*
X91000D01*
X86500Y464500D02*
Y473500D01*
X107400Y494400D02*
X116400D01*
X111900Y489900D02*
Y498900D01*
X82000Y494400D02*
X91000D01*
X86500Y489900D02*
Y498900D01*
X107400Y519800D02*
X116400D01*
X111900Y515300D02*
Y524300D01*
X82000Y519800D02*
X91000D01*
X86500Y515300D02*
Y524300D01*
X107400Y545200D02*
X116400D01*
X111900Y540700D02*
Y549700D01*
X82000Y545200D02*
X91000D01*
X86500Y540700D02*
Y549700D01*
X107400Y570600D02*
X116400D01*
X111900Y566100D02*
Y575100D01*
X82000Y570600D02*
X91000D01*
X86500Y566100D02*
Y575100D01*
X82000Y621400D02*
X91000D01*
X86500Y616900D02*
Y625900D01*
X82000Y646800D02*
X91000D01*
X86500Y642300D02*
Y651300D01*
X107400Y723000D02*
X116400D01*
X111900Y718500D02*
Y727500D01*
X82000Y723000D02*
X91000D01*
X86500Y718500D02*
Y727500D01*
X107400Y748400D02*
X116400D01*
X111900Y743900D02*
Y752900D01*
X82000Y748400D02*
X91000D01*
X86500Y743900D02*
Y752900D01*
X107400Y773800D02*
X116400D01*
X111900Y769300D02*
Y778300D01*
X82000Y773800D02*
X91000D01*
X86500Y769300D02*
Y778300D01*
X82000Y138800D02*
X91000D01*
X86500Y134300D02*
Y143300D01*
X82000Y164200D02*
X91000D01*
X86500Y159700D02*
Y168700D01*
X107400Y189600D02*
X116400D01*
X111900Y185100D02*
Y194100D01*
X107400Y215000D02*
X116400D01*
X111900Y210500D02*
Y219500D01*
X82000Y215000D02*
X91000D01*
X86500Y210500D02*
Y219500D01*
X82000Y265800D02*
X91000D01*
X86500Y261300D02*
Y270300D01*
X82000Y240400D02*
X91000D01*
X86500Y235900D02*
Y244900D01*
X31200Y240400D02*
X40200D01*
X35700Y235900D02*
Y244900D01*
X31200Y291200D02*
X40200D01*
X35700Y286700D02*
Y295700D01*
X31200Y265800D02*
X40200D01*
X35700Y261300D02*
Y270300D01*
X56600Y265800D02*
X65600D01*
X61100Y261300D02*
Y270300D01*
X56600Y240400D02*
X65600D01*
X61100Y235900D02*
Y244900D01*
X31200Y215000D02*
X40200D01*
X35700Y210500D02*
Y219500D01*
X56600Y215000D02*
X65600D01*
X61100Y210500D02*
Y219500D01*
X31200Y189600D02*
X40200D01*
X35700Y185100D02*
Y194100D01*
X56600Y189600D02*
X65600D01*
X61100Y185100D02*
Y194100D01*
X31200Y164200D02*
X40200D01*
X35700Y159700D02*
Y168700D01*
X56600Y164200D02*
X65600D01*
X61100Y159700D02*
Y168700D01*
X31200Y138800D02*
X40200D01*
X35700Y134300D02*
Y143300D01*
X56600Y138800D02*
X65600D01*
X61100Y134300D02*
Y143300D01*
X31200Y773800D02*
X40200D01*
X35700Y769300D02*
Y778300D01*
X56600Y773800D02*
X65600D01*
X61100Y769300D02*
Y778300D01*
X31200Y748400D02*
X40200D01*
X35700Y743900D02*
Y752900D01*
X56600Y748400D02*
X65600D01*
X61100Y743900D02*
Y752900D01*
X31200Y672200D02*
X40200D01*
X35700Y667700D02*
Y676700D01*
X56600Y672200D02*
X65600D01*
X61100Y667700D02*
Y676700D01*
X31200Y646800D02*
X40200D01*
X35700Y642300D02*
Y651300D01*
X56600Y646800D02*
X65600D01*
X61100Y642300D02*
Y651300D01*
X56600Y621400D02*
X65600D01*
X61100Y616900D02*
Y625900D01*
X31200Y621400D02*
X40200D01*
X35700Y616900D02*
Y625900D01*
X31200Y570600D02*
X40200D01*
X35700Y566100D02*
Y575100D01*
X31200Y596000D02*
X40200D01*
X35700Y591500D02*
Y600500D01*
X56600Y596000D02*
X65600D01*
X61100Y591500D02*
Y600500D01*
X56600Y570600D02*
X65600D01*
X61100Y566100D02*
Y575100D01*
X31200Y545200D02*
X40200D01*
X35700Y540700D02*
Y549700D01*
X56600Y545200D02*
X65600D01*
X61100Y540700D02*
Y549700D01*
X31200Y392800D02*
X40200D01*
X35700Y388300D02*
Y397300D01*
X56600Y392800D02*
X65600D01*
X61100Y388300D02*
Y397300D01*
X31200Y367400D02*
X40200D01*
X35700Y362900D02*
Y371900D01*
X56600Y367400D02*
X65600D01*
X61100Y362900D02*
Y371900D01*
X31200Y342000D02*
X40200D01*
X35700Y337500D02*
Y346500D01*
X56600Y342000D02*
X65600D01*
X61100Y337500D02*
Y346500D01*
X31200Y316600D02*
X40200D01*
X35700Y312100D02*
Y321100D01*
X56600Y316600D02*
X65600D01*
X61100Y312100D02*
Y321100D01*
X56600Y291200D02*
X65600D01*
X61100Y286700D02*
Y295700D01*
X56600Y469000D02*
X65600D01*
X61100Y464500D02*
Y473500D01*
X31200Y469000D02*
X40200D01*
X35700Y464500D02*
Y473500D01*
X56600Y443600D02*
X65600D01*
X61100Y439100D02*
Y448100D01*
X31200Y443600D02*
X40200D01*
X35700Y439100D02*
Y448100D01*
X31200Y697600D02*
X40200D01*
X35700Y693100D02*
Y702100D01*
X56600Y697600D02*
X65600D01*
X61100Y693100D02*
Y702100D01*
X31200Y418200D02*
X40200D01*
X35700Y413700D02*
Y422700D01*
X56600Y418200D02*
X65600D01*
X61100Y413700D02*
Y422700D01*
X860060Y194343D02*
X862060D01*
X861060Y193343D02*
Y195343D01*
X860060Y204325D02*
X862060D01*
X861060Y203325D02*
Y205325D01*
X860060Y214306D02*
X862060D01*
X861060Y213306D02*
Y215306D01*
X868546Y665882D02*
X870546D01*
X869546Y664882D02*
Y666882D01*
X868546Y676035D02*
X870546D01*
X869546Y675035D02*
Y677035D01*
X868546Y686187D02*
X870546D01*
X869546Y685187D02*
Y687187D01*
X868546Y696340D02*
X870546D01*
X869546Y695340D02*
Y697340D01*
X735611Y98032D02*
X737611D01*
X736611Y97032D02*
Y99032D01*
X793000Y95000D02*
X795000D01*
X794000Y94000D02*
Y96000D01*
X714012Y58657D02*
X716012D01*
X715012Y57657D02*
Y59657D01*
X874000Y152000D02*
X876000D01*
X875000Y151000D02*
Y153000D01*
X786400Y144507D02*
X788400D01*
X787400Y143507D02*
Y145507D01*
X517160Y671830D02*
X519160D01*
X518160Y670830D02*
Y672830D01*
X527320Y671830D02*
X529320D01*
X528320Y670830D02*
Y672830D01*
X517160Y661670D02*
X519160D01*
X518160Y660670D02*
Y662670D01*
X527320Y661670D02*
X529320D01*
X528320Y660670D02*
Y662670D01*
X663000Y563880D02*
X665000D01*
X664000Y562880D02*
Y564880D01*
X538750Y574040D02*
X540750D01*
X539750Y573040D02*
Y575040D01*
X539000Y563000D02*
X541000D01*
X540000Y562000D02*
Y564000D01*
X546060Y442377D02*
X548060D01*
X547060Y441377D02*
Y443377D01*
X466268Y455510D02*
X468268D01*
X467268Y454510D02*
Y456510D01*
X446800Y471170D02*
X448801D01*
X447800Y470170D02*
Y472170D01*
X518298Y415292D02*
X520298D01*
X519298Y414292D02*
Y416292D01*
X476210Y351298D02*
X478210D01*
X477210Y350298D02*
Y352298D01*
X476210Y344798D02*
X478210D01*
X477210Y343798D02*
Y345798D01*
X446315Y330741D02*
X448316D01*
X447315Y329741D02*
Y331741D01*
X439656Y320322D02*
X441656D01*
X440656Y319322D02*
Y321322D01*
X442674Y324309D02*
X444674D01*
X443674Y323309D02*
Y325309D01*
X547640Y453390D02*
X549640D01*
X548640Y452390D02*
Y454390D01*
X395136Y441732D02*
X397136D01*
X396136Y440732D02*
Y442732D01*
X404538Y439298D02*
X406538D01*
X405538Y438298D02*
Y440298D01*
X388900Y437514D02*
X390900D01*
X389900Y436514D02*
Y438514D01*
X394672Y380298D02*
X396672D01*
X395672Y379298D02*
Y381298D01*
X397401Y360798D02*
X399401D01*
X398401Y359798D02*
Y361798D01*
X376190Y359410D02*
X378190D01*
X377190Y358410D02*
Y360410D01*
X310070Y267957D02*
X312071D01*
X311070Y266957D02*
Y268957D01*
X304820Y267983D02*
X306821D01*
X305821Y266983D02*
Y268983D01*
X315731Y275731D02*
X317731D01*
X316731Y274731D02*
Y276731D01*
X322171Y268015D02*
X324171D01*
X323171Y267015D02*
Y269014D01*
X468921Y403482D02*
X470921D01*
X469921Y402482D02*
Y404482D01*
X307685Y299509D02*
X309685D01*
X308685Y298509D02*
Y300509D01*
X496510Y812113D02*
X498510D01*
X497510Y811113D02*
Y813113D01*
X486275Y796750D02*
X488275D01*
X487275Y795750D02*
Y797750D01*
X483334Y788625D02*
X485334D01*
X484334Y787625D02*
Y789625D01*
X687340Y701867D02*
X689340D01*
X688340Y700867D02*
Y702867D01*
X715280Y697230D02*
X717280D01*
X716280Y696230D02*
Y698230D01*
X732000Y861000D02*
X734000D01*
X733000Y860000D02*
Y862000D01*
X361723Y261042D02*
X363723D01*
X362723Y260042D02*
Y262041D01*
X286685Y308560D02*
X288685D01*
X287685Y307560D02*
Y309560D01*
X291676Y309909D02*
X293676D01*
X292676Y308909D02*
Y310909D01*
X291650Y319545D02*
X293650D01*
X292650Y318545D02*
Y320545D01*
X728799Y137893D02*
X730799D01*
X729799Y136893D02*
Y138893D01*
X782590Y101600D02*
X784590D01*
X783590Y100600D02*
Y102600D01*
X829580Y95250D02*
X831580D01*
X830580Y94250D02*
Y96250D01*
X801640Y95250D02*
X803640D01*
X802640Y94250D02*
Y96250D01*
X333500Y306915D02*
X335500D01*
X334500Y305915D02*
Y307915D01*
X296670Y319569D02*
X298669D01*
X297670Y318569D02*
Y320569D01*
X307862Y308383D02*
X309862D01*
X308862Y307383D02*
Y309383D01*
X286685Y289560D02*
X288685D01*
X287685Y288560D02*
Y290560D01*
X430814Y382639D02*
X432814D01*
X431814Y381639D02*
Y383639D01*
X415740Y387253D02*
X417740D01*
X416740Y386253D02*
Y388253D01*
X918829Y865837D02*
X920829D01*
X919829Y864837D02*
Y866837D01*
X918829Y838837D02*
X920829D01*
X919829Y837837D02*
Y839837D01*
X918829Y829837D02*
X920829D01*
X919829Y828837D02*
Y830837D01*
X918829Y847837D02*
X920829D01*
X919829Y846837D02*
Y848837D01*
X918829Y811837D02*
X920829D01*
X919829Y810837D02*
Y812837D01*
X918829Y802837D02*
X920829D01*
X919829Y801837D02*
Y803837D01*
X918829Y820837D02*
X920829D01*
X919829Y819837D02*
Y821837D01*
X897250Y892388D02*
X899250D01*
X898250Y891388D02*
Y893388D01*
X834250Y892366D02*
X836250D01*
X835250Y891366D02*
Y893366D01*
X825250Y892366D02*
X827250D01*
X826250Y891366D02*
Y893366D01*
X852250Y892366D02*
X854250D01*
X853250Y891366D02*
Y893366D01*
X861250Y892366D02*
X863250D01*
X862250Y891366D02*
Y893366D01*
X843250Y892366D02*
X845250D01*
X844250Y891366D02*
Y893366D01*
X780250Y892366D02*
X782250D01*
X781250Y891366D02*
Y893366D01*
X789250Y892366D02*
X791250D01*
X790250Y891366D02*
Y893366D01*
X771250Y892366D02*
X773250D01*
X772250Y891366D02*
Y893366D01*
X807250Y892366D02*
X809250D01*
X808250Y891366D02*
Y893366D01*
X816250Y892366D02*
X818250D01*
X817250Y891366D02*
Y893366D01*
X798250Y892366D02*
X800250D01*
X799250Y891366D02*
Y893366D01*
X888250Y892366D02*
X890250D01*
X889250Y891366D02*
Y893366D01*
X908253Y889212D02*
X910253D01*
X909253Y888212D02*
Y890212D01*
X879250Y892366D02*
X881250D01*
X880250Y891366D02*
Y893366D01*
X918391Y874827D02*
X920391D01*
X919391Y873827D02*
Y875826D01*
X918829Y856837D02*
X920829D01*
X919829Y855837D02*
Y857837D01*
X914867Y883108D02*
X916867D01*
X915867Y882108D02*
Y884108D01*
X870250Y892366D02*
X872250D01*
X871250Y891366D02*
Y893366D01*
X918829Y793837D02*
X920829D01*
X919829Y792837D02*
Y794837D01*
X918829Y784837D02*
X920829D01*
X919829Y783837D02*
Y785837D01*
X915575Y776447D02*
X917575D01*
X916575Y775446D02*
Y777447D01*
X908184Y771311D02*
X910184D01*
X909184Y770311D02*
Y772311D01*
X903767Y763469D02*
X905767D01*
X904767Y762469D02*
Y764469D01*
X902830Y745518D02*
X904829D01*
X903829Y744518D02*
Y746518D01*
X902830Y736518D02*
X904829D01*
X903829Y735518D02*
Y737518D01*
X902830Y754518D02*
X904829D01*
X903829Y753518D02*
Y755518D01*
X902830Y718518D02*
X904829D01*
X903829Y717518D02*
Y719518D01*
X902830Y709518D02*
X904829D01*
X903829Y708518D02*
Y710518D01*
X902830Y727518D02*
X904829D01*
X903829Y726518D02*
Y728518D01*
X809078Y707572D02*
X811078D01*
X810078Y706572D02*
Y708572D01*
X774970Y795020D02*
X776970D01*
X775970Y794020D02*
Y796020D01*
X787011Y770750D02*
X789011D01*
X788011Y769750D02*
Y771750D01*
X806720Y721360D02*
X808720D01*
X807720Y720360D02*
Y722360D01*
X785130Y718820D02*
X787130D01*
X786130Y717820D02*
Y719820D01*
X744250Y892366D02*
X746250D01*
X745250Y891366D02*
Y893366D01*
X753250Y892366D02*
X755250D01*
X754250Y891366D02*
Y893366D01*
X735250Y892366D02*
X737250D01*
X736250Y891366D02*
Y893366D01*
X762250Y892366D02*
X764250D01*
X763250Y891366D02*
Y893366D01*
X747030Y842010D02*
X749030D01*
X748030Y841010D02*
Y843010D01*
X728410Y886516D02*
X730410D01*
X729410Y885517D02*
Y887516D01*
X722279Y879928D02*
X724279D01*
X723279Y878928D02*
Y880928D01*
X713897Y876650D02*
X715897D01*
X714897Y875650D02*
Y877650D01*
X677901Y876366D02*
X679901D01*
X678901Y875366D02*
Y877366D01*
X668901Y876366D02*
X670901D01*
X669901Y875366D02*
Y877366D01*
X641901Y876366D02*
X643901D01*
X642901Y875366D02*
Y877366D01*
X650901Y876366D02*
X652901D01*
X651901Y875366D02*
Y877366D01*
X632901Y876366D02*
X634901D01*
X633901Y875366D02*
Y877366D01*
X659901Y876366D02*
X661901D01*
X660901Y875366D02*
Y877366D01*
X704901Y876366D02*
X706901D01*
X705901Y875366D02*
Y877366D01*
X716550Y833120D02*
X718550D01*
X717550Y832120D02*
Y834120D01*
X695901Y876366D02*
X697901D01*
X696901Y875366D02*
Y877366D01*
X686901Y876366D02*
X688901D01*
X687901Y875366D02*
Y877366D01*
X656860Y831850D02*
X658860D01*
X657860Y830850D02*
Y832850D01*
X735600Y783590D02*
X737600D01*
X736600Y782590D02*
Y784590D01*
X735600Y791210D02*
X737600D01*
X736600Y790210D02*
Y792210D01*
X735600Y803910D02*
X737600D01*
X736600Y802910D02*
Y804910D01*
X735600Y797560D02*
X737600D01*
X736600Y796560D02*
Y798560D01*
X710426Y707241D02*
X712427D01*
X711426Y706241D02*
Y708241D01*
X674640Y795020D02*
X676640D01*
X675640Y794020D02*
Y796020D01*
X902830Y682518D02*
X904829D01*
X903829Y681518D02*
Y683518D01*
X902830Y673518D02*
X904829D01*
X903829Y672518D02*
Y674518D01*
X902830Y691518D02*
X904829D01*
X903829Y690518D02*
Y692518D01*
X902830Y655518D02*
X904829D01*
X903829Y654519D02*
Y656518D01*
X902830Y646518D02*
X904829D01*
X903829Y645518D02*
Y647518D01*
X902830Y664518D02*
X904829D01*
X903829Y663518D02*
Y665518D01*
X902830Y700518D02*
X904829D01*
X903829Y699518D02*
Y701518D01*
X902830Y637519D02*
X904829D01*
X903829Y636519D02*
Y638518D01*
X902830Y619519D02*
X904829D01*
X903829Y618518D02*
Y620518D01*
X902830Y628518D02*
X904829D01*
X903829Y627519D02*
Y629519D01*
X902830Y601519D02*
X904829D01*
X903829Y600519D02*
Y602519D01*
X902830Y610518D02*
X904829D01*
X903829Y609519D02*
Y611519D01*
X799100Y697230D02*
X801100D01*
X800100Y696230D02*
Y698230D01*
X797830Y683260D02*
X799830D01*
X798830Y682260D02*
Y684260D01*
X837318Y645771D02*
X839318D01*
X838318Y644771D02*
Y646771D01*
X797830Y665480D02*
X799830D01*
X798830Y664480D02*
Y666480D01*
X828422Y645698D02*
X830422D01*
X829422Y644698D02*
Y646698D01*
X837318Y630771D02*
X839318D01*
X838318Y629771D02*
Y631771D01*
X828310Y631190D02*
X830310D01*
X829310Y630190D02*
Y632190D01*
X797830Y674370D02*
X799830D01*
X798830Y673370D02*
Y675370D01*
X787670Y657860D02*
X789670D01*
X788670Y656860D02*
Y658860D01*
X902830Y583519D02*
X904829D01*
X903829Y582519D02*
Y584519D01*
X902830Y592519D02*
X904829D01*
X903829Y591519D02*
Y593519D01*
X902830Y556519D02*
X904829D01*
X903829Y555519D02*
Y557519D01*
X902830Y547519D02*
X904829D01*
X903829Y546519D02*
Y548519D01*
X902830Y565519D02*
X904829D01*
X903829Y564519D02*
Y566519D01*
X902830Y529519D02*
X904829D01*
X903829Y528519D02*
Y530519D01*
X902830Y520519D02*
X904829D01*
X903829Y519519D02*
Y521519D01*
X902830Y538519D02*
X904829D01*
X903829Y537519D02*
Y539519D01*
X902830Y574519D02*
X904829D01*
X903829Y573519D02*
Y575519D01*
X902830Y448519D02*
X904829D01*
X903829Y447519D02*
Y449519D01*
X902830Y430519D02*
X904829D01*
X903829Y429519D02*
Y431519D01*
X902830Y439519D02*
X904829D01*
X903829Y438519D02*
Y440519D01*
X792081Y562888D02*
X794081D01*
X793081Y561888D02*
Y563888D01*
X792133Y556991D02*
X794134D01*
X793133Y555991D02*
Y557991D01*
X792081Y568785D02*
X794081D01*
X793081Y567785D02*
Y569785D01*
X792133Y551093D02*
X794134D01*
X793133Y550093D02*
Y552094D01*
X785648Y536006D02*
X787648D01*
X786648Y535005D02*
Y537006D01*
X902830Y493519D02*
X904829D01*
X903829Y492519D02*
Y494519D01*
X902830Y484519D02*
X904829D01*
X903829Y483519D02*
Y485519D01*
X902830Y502519D02*
X904829D01*
X903829Y501519D02*
Y503519D01*
X902830Y466519D02*
X904829D01*
X903829Y465519D02*
Y467519D01*
X902830Y457519D02*
X904829D01*
X903829Y456519D02*
Y458519D01*
X902830Y475519D02*
X904829D01*
X903829Y474519D02*
Y476519D01*
X902830Y511519D02*
X904829D01*
X903829Y510519D02*
Y512519D01*
X642545Y692377D02*
X644545D01*
X643545Y691377D02*
Y693377D01*
X637810Y692377D02*
X639810D01*
X638810Y691377D02*
Y693377D01*
X633468Y521011D02*
X635468D01*
X634468Y520011D02*
Y522011D01*
X623901Y876366D02*
X625901D01*
X624902Y875366D02*
Y877366D01*
X614902Y876366D02*
X616902D01*
X615901Y875366D02*
Y877366D01*
X612127Y809895D02*
X614127D01*
X613127Y808895D02*
Y810895D01*
X616739Y703960D02*
X618739D01*
X617739Y702960D02*
Y704960D01*
X605901Y876366D02*
X607901D01*
X606902Y875366D02*
Y877366D01*
X610088Y783399D02*
X612088D01*
X611088Y782399D02*
Y784399D01*
X596902Y876366D02*
X598901D01*
X597901Y875366D02*
Y877366D01*
X597170Y828040D02*
X599170D01*
X598170Y827040D02*
Y829040D01*
X587901Y876366D02*
X589902D01*
X588901Y875366D02*
Y877366D01*
X597995Y750808D02*
X599995D01*
X598995Y749808D02*
Y751808D01*
X604740Y703960D02*
X606740D01*
X605740Y702960D02*
Y704960D01*
X592739Y703960D02*
X594739D01*
X593739Y702960D02*
Y704960D01*
X616739Y691960D02*
X618739D01*
X617739Y690960D02*
Y692960D01*
X616739Y679960D02*
X618739D01*
X617739Y678960D02*
Y680960D01*
X619800Y631664D02*
X621800D01*
X620800Y630663D02*
Y632663D01*
X612410Y598805D02*
X614410D01*
X613410Y597805D02*
Y599805D01*
X612410Y607060D02*
X614410D01*
X613410Y606060D02*
Y608060D01*
X612410Y590550D02*
X614410D01*
X613410Y589550D02*
Y591550D01*
X604740Y691958D02*
X606740D01*
X605740Y690958D02*
Y692958D01*
X604739Y679960D02*
X606739D01*
X605739Y678960D02*
Y680960D01*
X592739Y679960D02*
X594739D01*
X593739Y678960D02*
Y680960D01*
X592739Y691960D02*
X594739D01*
X593739Y690960D02*
Y692960D01*
X598490Y598805D02*
X600490D01*
X599490Y597805D02*
Y599805D01*
X598490Y607060D02*
X600490D01*
X599490Y606060D02*
Y608060D01*
X586307Y632509D02*
X588307D01*
X587307Y631509D02*
Y633509D01*
X560902Y876366D02*
X562902D01*
X561902Y875366D02*
Y877366D01*
X569902Y876366D02*
X571902D01*
X570902Y875366D02*
Y877366D01*
X551902Y876366D02*
X553902D01*
X552902Y875366D02*
Y877366D01*
X578902Y876366D02*
X580902D01*
X579902Y875366D02*
Y877366D01*
X542902Y876366D02*
X544902D01*
X543902Y875366D02*
Y877366D01*
X533902Y876366D02*
X535902D01*
X534902Y875366D02*
Y877366D01*
X566257Y795118D02*
X568257D01*
X567257Y794118D02*
Y796118D01*
X515902Y876366D02*
X517902D01*
X516902Y875366D02*
Y877366D01*
X524902Y876366D02*
X526902D01*
X525902Y875366D02*
Y877366D01*
X506902Y876366D02*
X508902D01*
X507902Y875366D02*
Y877366D01*
X502287Y802045D02*
X504287D01*
X503287Y801045D02*
Y803045D01*
X488902Y876366D02*
X490902D01*
X489902Y875366D02*
Y877366D01*
X497902Y876366D02*
X499902D01*
X498902Y875366D02*
Y877366D01*
X479902Y876366D02*
X481902D01*
X480902Y875366D02*
Y877366D01*
X506722Y789470D02*
X508722D01*
X507722Y788470D02*
Y790470D01*
X566935Y692377D02*
X568935D01*
X567935Y691377D02*
Y693377D01*
X571670Y692377D02*
X573670D01*
X572670Y691377D02*
Y693377D01*
X598490Y590550D02*
X600490D01*
X599490Y589550D02*
Y591550D01*
X602200Y569517D02*
X604200D01*
X603200Y568517D02*
Y570517D01*
X548910Y478790D02*
X550910D01*
X549910Y477790D02*
Y479790D01*
X538610Y469298D02*
X540610D01*
X539610Y468298D02*
Y470298D01*
X527813Y467772D02*
X529813D01*
X528813Y466772D02*
Y468772D01*
X536056Y439189D02*
X538056D01*
X537056Y438190D02*
Y440190D01*
X507620Y429298D02*
X509620D01*
X508620Y428298D02*
Y430298D01*
X490838Y473710D02*
X492838D01*
X491838Y472710D02*
Y474710D01*
X504940Y466904D02*
X506940D01*
X505940Y465905D02*
Y467905D01*
X486474Y561713D02*
X488474D01*
X487474Y560713D02*
Y562713D01*
X479800Y449798D02*
X481800D01*
X480801Y448798D02*
Y450798D01*
X494800Y442307D02*
X496800D01*
X495800Y441307D02*
Y443307D01*
X502524Y428644D02*
X504524D01*
X503524Y427644D02*
Y429644D01*
X902830Y412519D02*
X904829D01*
X903829Y411519D02*
Y413519D01*
X902830Y403519D02*
X904829D01*
X903829Y402519D02*
Y404519D01*
X902830Y421519D02*
X904829D01*
X903829Y420519D02*
Y422519D01*
X902830Y385519D02*
X904829D01*
X903829Y384519D02*
Y386519D01*
X902830Y394519D02*
X904829D01*
X903829Y393519D02*
Y395519D01*
X902830Y367519D02*
X904829D01*
X903829Y366519D02*
Y368519D01*
X902830Y358519D02*
X904829D01*
X903829Y357519D02*
Y359519D01*
X902830Y376519D02*
X904829D01*
X903829Y375519D02*
Y377519D01*
X902830Y340519D02*
X904829D01*
X903829Y339519D02*
Y341519D01*
X902830Y349519D02*
X904829D01*
X903829Y348519D02*
Y350519D01*
X706390Y412750D02*
X708390D01*
X707390Y411750D02*
Y413750D01*
X706390Y419100D02*
X708390D01*
X707390Y418100D02*
Y420100D01*
X710959Y391931D02*
X712959D01*
X711959Y390931D02*
Y392931D01*
X902830Y322519D02*
X904829D01*
X903829Y321519D02*
Y323519D01*
X902830Y313519D02*
X904829D01*
X903829Y312519D02*
Y314519D01*
X902830Y331519D02*
X904829D01*
X903829Y330519D02*
Y332519D01*
X902830Y304519D02*
X904829D01*
X903829Y303519D02*
Y305519D01*
X902830Y286519D02*
X904829D01*
X903829Y285519D02*
Y287519D01*
X902830Y277519D02*
X904829D01*
X903829Y276519D02*
Y278519D01*
X902830Y295519D02*
X904829D01*
X903829Y294519D02*
Y296519D01*
X902829Y214519D02*
X904829D01*
X903829Y213519D02*
Y215519D01*
X902829Y205519D02*
X904829D01*
X903829Y204519D02*
Y206519D01*
X902829Y223519D02*
X904829D01*
X903829Y222519D02*
Y224519D01*
X902829Y232519D02*
X904829D01*
X903829Y231519D02*
Y233519D01*
X902829Y241519D02*
X904829D01*
X903829Y240519D02*
Y242519D01*
X902829Y268519D02*
X904829D01*
X903829Y267519D02*
Y269519D01*
X902829Y259519D02*
X904829D01*
X903829Y258519D02*
Y260519D01*
X902829Y250519D02*
X904829D01*
X903829Y249519D02*
Y251519D01*
X722014Y283215D02*
X724014D01*
X723014Y282215D02*
Y284215D01*
X674640Y424180D02*
X676640D01*
X675640Y423180D02*
Y425180D01*
X654333Y284500D02*
X656333D01*
X655333Y283500D02*
Y285500D01*
X654086Y268061D02*
X656086D01*
X655086Y267061D02*
Y269061D01*
X654051Y252048D02*
X656050D01*
X655051Y251048D02*
Y253048D01*
X654051Y212048D02*
X656050D01*
X655051Y211048D02*
Y213048D01*
X654051Y204048D02*
X656050D01*
X655051Y203048D02*
Y205048D01*
X636050Y232048D02*
X638050D01*
X637050Y231048D02*
Y233048D01*
X636050Y216048D02*
X638050D01*
X637050Y215048D02*
Y217048D01*
X911304Y136102D02*
X913304D01*
X912304Y135102D02*
Y137102D01*
X918829Y131166D02*
X920829D01*
X919829Y130166D02*
Y132166D01*
X905356Y142856D02*
X907356D01*
X906356Y141856D02*
Y143856D01*
X918829Y122166D02*
X920829D01*
X919829Y121166D02*
Y123166D01*
X918829Y77166D02*
X920829D01*
X919829Y76166D02*
Y78166D01*
X918829Y68166D02*
X920829D01*
X919829Y67166D02*
Y69166D01*
X918829Y86166D02*
X920829D01*
X919829Y85166D02*
Y87166D01*
X918829Y50166D02*
X920829D01*
X919829Y49166D02*
Y51166D01*
X918829Y41166D02*
X920829D01*
X919829Y40166D02*
Y42166D01*
X918829Y59166D02*
X920829D01*
X919829Y58166D02*
Y60166D01*
X918829Y104166D02*
X920829D01*
X919829Y103166D02*
Y105166D01*
X918829Y95166D02*
X920829D01*
X919829Y94166D02*
Y96166D01*
X918829Y113166D02*
X920829D01*
X919829Y112166D02*
Y114166D01*
X918681Y32167D02*
X920681D01*
X919681Y31167D02*
Y33167D01*
X902829Y187519D02*
X904829D01*
X903829Y186519D02*
Y188519D01*
X902829Y178519D02*
X904829D01*
X903829Y177519D02*
Y179519D01*
X902829Y196519D02*
X904829D01*
X903829Y195519D02*
Y197519D01*
X902829Y160519D02*
X904829D01*
X903829Y159519D02*
Y161519D01*
X902919Y151520D02*
X904919D01*
X903919Y150520D02*
Y152520D01*
X902829Y169519D02*
X904829D01*
X903829Y168519D02*
Y170519D01*
X915874Y23616D02*
X917874D01*
X916874Y22616D02*
Y24616D01*
X909898Y16887D02*
X911898D01*
X910898Y15886D02*
Y17887D01*
X901669Y13241D02*
X903669D01*
X902669Y12241D02*
Y14241D01*
X856685Y12710D02*
X858685D01*
X857685Y11710D02*
Y13711D01*
X865685Y12710D02*
X867685D01*
X866685Y11710D02*
Y13711D01*
X847685Y12710D02*
X849685D01*
X848685Y11710D02*
Y13711D01*
X883685Y12710D02*
X885685D01*
X884685Y11710D02*
Y13711D01*
X892685Y12710D02*
X894685D01*
X893685Y11710D02*
Y13711D01*
X874685Y12710D02*
X876685D01*
X875685Y11710D02*
Y13711D01*
X802685Y12710D02*
X804685D01*
X803685Y11710D02*
Y13711D01*
X811685Y12710D02*
X813685D01*
X812685Y11710D02*
Y13711D01*
X793685Y12710D02*
X795685D01*
X794685Y11710D02*
Y13711D01*
X829685Y12710D02*
X831685D01*
X830685Y11710D02*
Y13711D01*
X838685Y12710D02*
X840685D01*
X839685Y11710D02*
Y13711D01*
X820685Y12710D02*
X822685D01*
X821685Y11710D02*
Y13711D01*
X710872Y28712D02*
X712872D01*
X711872Y27713D02*
Y29713D01*
X701872Y28712D02*
X703872D01*
X702872Y27712D02*
Y29712D01*
X692872Y28712D02*
X694872D01*
X693872Y27712D02*
Y29712D01*
X683872Y28712D02*
X685872D01*
X684872Y27712D02*
Y29712D01*
X748685Y12710D02*
X750685D01*
X749685Y11710D02*
Y13711D01*
X757685Y12710D02*
X759685D01*
X758685Y11710D02*
Y13711D01*
X739685Y12710D02*
X741685D01*
X740685Y11710D02*
Y13711D01*
X775685Y12710D02*
X777685D01*
X776685Y11710D02*
Y13711D01*
X784685Y12710D02*
X786685D01*
X785685Y11710D02*
Y13711D01*
X766685Y12710D02*
X768685D01*
X767685Y11710D02*
Y13711D01*
X726720Y21165D02*
X728719D01*
X727720Y20165D02*
Y22165D01*
X730693Y13090D02*
X732693D01*
X731693Y12090D02*
Y14090D01*
X719652Y26738D02*
X721652D01*
X720652Y25738D02*
Y27738D01*
X654051Y172048D02*
X656050D01*
X655051Y171048D02*
Y173048D01*
X648051Y158048D02*
X650051D01*
X649051Y157048D02*
Y159048D01*
X636050Y200048D02*
X638050D01*
X637050Y199048D02*
Y201048D01*
X636050Y192048D02*
X638050D01*
X637051Y191048D02*
Y193048D01*
X604050Y168048D02*
X606050D01*
X605050Y167048D02*
Y169048D01*
X674872Y28712D02*
X676872D01*
X675872Y27712D02*
Y29712D01*
X665872Y28712D02*
X667872D01*
X666872Y27712D02*
Y29712D01*
X656872Y28712D02*
X658872D01*
X657872Y27712D02*
Y29712D01*
X647872Y28712D02*
X649872D01*
X648872Y27712D02*
Y29712D01*
X638872Y28712D02*
X640872D01*
X639872Y27712D02*
Y29712D01*
X629872Y28712D02*
X631872D01*
X630872Y27712D02*
Y29712D01*
X620872Y28712D02*
X622872D01*
X621872Y27712D02*
Y29712D01*
X611872Y28712D02*
X613872D01*
X612872Y27712D02*
Y29711D01*
X602872Y28711D02*
X604872D01*
X603872Y27711D02*
Y29711D01*
X534917Y420677D02*
X536917D01*
X535918Y419677D02*
Y421677D01*
X535041Y399991D02*
X537041D01*
X536041Y398992D02*
Y400992D01*
X515040Y387048D02*
X517040D01*
X516040Y386048D02*
Y388048D01*
X539551Y361048D02*
X541550D01*
X540550Y360048D02*
Y362048D01*
X538050Y380802D02*
X540051D01*
X539050Y379802D02*
Y381802D01*
X542123Y341452D02*
X544123D01*
X543123Y340452D02*
Y342453D01*
X507767Y369984D02*
X509767D01*
X508767Y368984D02*
Y370984D01*
X495373Y422734D02*
X497373D01*
X496373Y421734D02*
Y423734D01*
X495753Y400360D02*
X497753D01*
X496753Y399360D02*
Y401360D01*
X483034Y421641D02*
X485034D01*
X484034Y420641D02*
Y422641D01*
X482862Y377484D02*
X484862D01*
X483862Y376484D02*
Y378484D01*
X488801Y377298D02*
X490801D01*
X489800Y376298D02*
Y378298D01*
X501920Y370840D02*
X503920D01*
X502920Y369840D02*
Y371840D01*
X505332Y340721D02*
X507332D01*
X506332Y339721D02*
Y341721D01*
X494696Y358726D02*
X496696D01*
X495696Y357726D02*
Y359726D01*
X588080Y256100D02*
X590080D01*
X589080Y255100D02*
Y257100D01*
X596050Y232048D02*
X598050D01*
X597050Y231048D02*
Y233048D01*
X578050Y284048D02*
X580051D01*
X579050Y283048D02*
Y285048D01*
X578321Y267947D02*
X580321D01*
X579321Y266947D02*
Y268947D01*
X578050Y212048D02*
X580051D01*
X579050Y211048D02*
Y213048D01*
X588050Y200048D02*
X590051D01*
X589050Y199048D02*
Y201048D01*
X593872Y28711D02*
X595872D01*
X594872Y27711D02*
Y29711D01*
X584872Y28711D02*
X586872D01*
X585872Y27711D02*
Y29711D01*
X578050Y196048D02*
X580051D01*
X579050Y195048D02*
Y197048D01*
X578050Y188048D02*
X580051D01*
X579050Y187048D02*
Y189048D01*
X578050Y172048D02*
X580051D01*
X579050Y171048D02*
Y173048D01*
X575872Y28711D02*
X577872D01*
X576872Y27711D02*
Y29711D01*
X527626Y331687D02*
X529626D01*
X528626Y330687D02*
Y332687D01*
X485475Y326798D02*
X487475D01*
X486475Y325798D02*
Y327798D01*
X543176Y279622D02*
X545176D01*
X544175Y278622D02*
Y280622D01*
X566872Y28711D02*
X568872D01*
X567872Y27711D02*
Y29711D01*
X557872Y28711D02*
X559872D01*
X558872Y27711D02*
Y29711D01*
X548872Y28711D02*
X550872D01*
X549872Y27711D02*
Y29711D01*
X539872Y28711D02*
X541872D01*
X540872Y27711D02*
Y29711D01*
X530872Y28711D02*
X532872D01*
X531872Y27711D02*
Y29711D01*
X521872Y28711D02*
X523872D01*
X522872Y27711D02*
Y29711D01*
X512872Y28711D02*
X514872D01*
X513872Y27711D02*
Y29711D01*
X485872Y28710D02*
X487872D01*
X486872Y27710D02*
Y29711D01*
X494872Y28710D02*
X496872D01*
X495872Y27710D02*
Y29711D01*
X476872Y28710D02*
X478872D01*
X477872Y27710D02*
Y29711D01*
X503872Y28710D02*
X505872D01*
X504872Y27710D02*
Y29711D01*
X473980Y861060D02*
X475980D01*
X474980Y860060D02*
Y862060D01*
X470902Y876366D02*
X472902D01*
X471902Y875366D02*
Y877366D01*
X461902Y876366D02*
X463902D01*
X462902Y875366D02*
Y877366D01*
X443902Y876366D02*
X445902D01*
X444902Y875366D02*
Y877366D01*
X452902Y876366D02*
X454902D01*
X453902Y875366D02*
Y877366D01*
X434902Y876366D02*
X436902D01*
X435902Y875366D02*
Y877366D01*
X425902Y876366D02*
X427902D01*
X426902Y875366D02*
Y877366D01*
X416902Y876366D02*
X418902D01*
X417902Y875366D02*
Y877366D01*
X453270Y812680D02*
X455270D01*
X454270Y811680D02*
Y813680D01*
X418100Y789940D02*
X420100D01*
X419100Y788940D02*
Y790940D01*
X443391Y774219D02*
X445392D01*
X444392Y773219D02*
Y775219D01*
X437150Y722630D02*
X439150D01*
X438150Y721630D02*
Y723630D01*
X407902Y876366D02*
X409902D01*
X408902Y875366D02*
Y877365D01*
X398902Y876365D02*
X400902D01*
X399902Y875365D02*
Y877365D01*
X395948Y829038D02*
X397948D01*
X396948Y828038D02*
Y830038D01*
X389902Y876365D02*
X391902D01*
X390902Y875365D02*
Y877365D01*
X380902Y876365D02*
X382902D01*
X381902Y875365D02*
Y877365D01*
X371902Y876365D02*
X373902D01*
X372902Y875365D02*
Y877365D01*
X362902Y876365D02*
X364902D01*
X363902Y875365D02*
Y877365D01*
X353902Y876365D02*
X355902D01*
X354902Y875365D02*
Y877365D01*
X344902Y876365D02*
X346902D01*
X345902Y875365D02*
Y877365D01*
X385080Y675640D02*
X387080D01*
X386080Y674640D02*
Y676640D01*
X358410Y793750D02*
X360410D01*
X359410Y792750D02*
Y794750D01*
X348250Y740410D02*
X350250D01*
X349250Y739410D02*
Y741410D01*
X341637Y703580D02*
X343637D01*
X342637Y702580D02*
Y704580D01*
X341637Y698500D02*
X343637D01*
X342637Y697500D02*
Y699500D01*
X468719Y467700D02*
X470719D01*
X469719Y466700D02*
Y468700D01*
X452737Y453822D02*
X454737D01*
X453737Y452822D02*
Y454822D01*
X468107Y432010D02*
X470107D01*
X469107Y431010D02*
Y433010D01*
X443301Y442298D02*
X445300D01*
X444300Y441298D02*
Y443298D01*
X436800Y448661D02*
X438801D01*
X437800Y447661D02*
Y449661D01*
X419573Y597767D02*
X421573D01*
X420573Y596767D02*
Y598767D01*
X427216Y469786D02*
X429216D01*
X428216Y468787D02*
Y470787D01*
X416891Y559919D02*
X418891D01*
X417891Y558919D02*
Y560919D01*
X396202Y595687D02*
X398202D01*
X397202Y594687D02*
Y596687D01*
X349520Y567398D02*
X351520D01*
X350520Y566399D02*
Y568399D01*
X349520Y561340D02*
X351520D01*
X350520Y560340D02*
Y562340D01*
X339559Y580743D02*
X341559D01*
X340559Y579743D02*
Y581743D01*
X423556Y436043D02*
X425556D01*
X424556Y435043D02*
Y437043D01*
X424129Y430057D02*
X426129D01*
X425129Y429058D02*
Y431058D01*
X397470Y464820D02*
X399470D01*
X398470Y463820D02*
Y465820D01*
X335902Y876365D02*
X337902D01*
X336902Y875365D02*
Y877365D01*
X326902Y876365D02*
X328902D01*
X327902Y875365D02*
Y877365D01*
X317902Y876365D02*
X319902D01*
X318902Y875365D02*
Y877365D01*
X329949Y808730D02*
X331949D01*
X330949Y807730D02*
Y809730D01*
X329780Y802257D02*
X331780D01*
X330780Y801257D02*
Y803257D01*
X308902Y876365D02*
X310902D01*
X309902Y875365D02*
Y877365D01*
X299902Y876365D02*
X301902D01*
X300902Y875365D02*
Y877365D01*
X290902Y876364D02*
X292902D01*
X291902Y875364D02*
Y877364D01*
X281902Y876364D02*
X283902D01*
X282902Y875364D02*
Y877364D01*
X272902Y876364D02*
X274902D01*
X273902Y875364D02*
Y877364D01*
X263902Y876364D02*
X265902D01*
X264902Y875364D02*
Y877364D01*
X254902Y876364D02*
X256902D01*
X255902Y875364D02*
Y877364D01*
X259350Y795020D02*
X261350D01*
X260350Y794020D02*
Y796020D01*
X296990Y755835D02*
X298990D01*
X297990Y754835D02*
Y756835D01*
X319804Y755835D02*
X321804D01*
X320804Y754835D02*
Y756835D01*
X331211Y755835D02*
X333211D01*
X332211Y754835D02*
Y756835D01*
X308397Y755835D02*
X310397D01*
X309397Y754835D02*
Y756835D01*
X295356Y662621D02*
X297356D01*
X296356Y661621D02*
Y663621D01*
X291415Y696268D02*
X293415D01*
X292415Y695268D02*
Y697268D01*
X260620Y736600D02*
X262620D01*
X261620Y735600D02*
Y737600D01*
X271094Y695804D02*
X273095D01*
X272094Y694804D02*
Y696804D01*
X286237Y662981D02*
X288237D01*
X287237Y661981D02*
Y663981D01*
X266237Y662981D02*
X268237D01*
X267237Y661981D02*
Y663981D01*
X202387Y882433D02*
X204387D01*
X203387Y881433D02*
Y883433D01*
X197744Y890143D02*
X199744D01*
X198744Y889143D02*
Y891143D01*
X189023Y892366D02*
X191023D01*
X190023Y891366D02*
Y893366D01*
X245902Y876364D02*
X247902D01*
X246902Y875364D02*
Y877364D01*
X236902Y876364D02*
X238902D01*
X237902Y875364D02*
Y877364D01*
X227902Y876364D02*
X229902D01*
X228902Y875364D02*
Y877364D01*
X218902Y876364D02*
X220902D01*
X219902Y875364D02*
Y877364D01*
X209990Y877618D02*
X211990D01*
X210990Y876618D02*
Y878618D01*
X81023Y892366D02*
X83023D01*
X82023Y891366D02*
Y893366D01*
X90023Y892366D02*
X92023D01*
X91023Y891366D02*
Y893366D01*
X72023Y892366D02*
X74023D01*
X73023Y891366D02*
Y893366D01*
X108023Y892366D02*
X110023D01*
X109023Y891366D02*
Y893366D01*
X117023Y892366D02*
X119023D01*
X118023Y891366D02*
Y893366D01*
X99023Y892366D02*
X101023D01*
X100023Y891366D02*
Y893366D01*
X45023Y892366D02*
X47023D01*
X46023Y891366D02*
Y893366D01*
X54023Y892366D02*
X56023D01*
X55023Y891366D02*
Y893366D01*
X36023Y892366D02*
X38023D01*
X37023Y891366D02*
Y893366D01*
X63023Y892366D02*
X65023D01*
X64023Y891366D02*
Y893366D01*
X144023Y892366D02*
X146023D01*
X145023Y891366D02*
Y893366D01*
X153023Y892366D02*
X155023D01*
X154023Y891366D02*
Y893366D01*
X135023Y892366D02*
X137023D01*
X136023Y891366D02*
Y893366D01*
X171023Y892366D02*
X173023D01*
X172023Y891366D02*
Y893366D01*
X180023Y892366D02*
X182023D01*
X181023Y891366D02*
Y893366D01*
X162023Y892366D02*
X164023D01*
X163023Y891366D02*
Y893366D01*
X126023Y892366D02*
X128023D01*
X127023Y891366D02*
Y893366D01*
X27030Y892007D02*
X29030D01*
X28030Y891007D02*
Y893007D01*
X18710Y888577D02*
X20710D01*
X19710Y887577D02*
Y889577D01*
X12495Y882066D02*
X14495D01*
X13495Y881067D02*
Y883066D01*
X9375Y873625D02*
X11375D01*
X10375Y872625D02*
Y874625D01*
X9171Y864627D02*
X11171D01*
X10171Y863627D02*
Y865627D01*
X246237Y662981D02*
X248237D01*
X247237Y661981D02*
Y663981D01*
X236237Y662981D02*
X238237D01*
X237237Y661981D02*
Y663981D01*
X9171Y837627D02*
X11171D01*
X10171Y836627D02*
Y838627D01*
X9171Y828627D02*
X11171D01*
X10171Y827627D02*
Y829627D01*
X9171Y846627D02*
X11171D01*
X10171Y845627D02*
Y847627D01*
X9171Y819627D02*
X11171D01*
X10171Y818627D02*
Y820627D01*
X9171Y855627D02*
X11171D01*
X10171Y854627D02*
Y856627D01*
X214900Y779780D02*
X216900D01*
X215900Y778780D02*
Y780780D01*
X304785Y652483D02*
X306785D01*
X305785Y651483D02*
Y653483D01*
X284863Y653999D02*
X286863D01*
X285863Y652999D02*
Y654999D01*
X274590Y642380D02*
X276590D01*
X275590Y641380D02*
Y643380D01*
X264863Y653999D02*
X266863D01*
X265863Y652999D02*
Y654999D01*
X266237Y642380D02*
X268237D01*
X267237Y641380D02*
Y643380D01*
X265700Y635000D02*
X267700D01*
X266700Y634000D02*
Y636000D01*
X308880Y600710D02*
X310880D01*
X309880Y599710D02*
Y601710D01*
X334817Y553187D02*
X336816D01*
X335816Y552187D02*
Y554187D01*
X334818Y541527D02*
X336818D01*
X335818Y540527D02*
Y542527D01*
X311932Y523381D02*
X313932D01*
X312932Y522381D02*
Y524381D01*
X304830Y582308D02*
X306830D01*
X305830Y581308D02*
Y583308D01*
X302331Y431480D02*
X304331D01*
X303331Y430480D02*
Y432480D01*
X275863Y613910D02*
X277864D01*
X276863Y612910D02*
Y614910D01*
X234863Y653999D02*
X236863D01*
X235863Y652999D02*
Y654999D01*
X224780Y653610D02*
X226780D01*
X225780Y652610D02*
Y654610D01*
X245041Y621020D02*
X247041D01*
X246041Y620020D02*
Y622020D01*
X254385Y604815D02*
X256385D01*
X255385Y603815D02*
Y605815D01*
X251075Y581458D02*
X253075D01*
X252075Y580458D02*
Y582458D01*
X230787Y581418D02*
X232787D01*
X231787Y580418D02*
Y582418D01*
X443301Y422798D02*
X445300D01*
X444300Y421798D02*
Y423798D01*
X443301Y416298D02*
X445300D01*
X444300Y415298D02*
Y417298D01*
X449980Y403340D02*
X451979D01*
X450979Y402340D02*
Y404340D01*
X462864Y377234D02*
X464864D01*
X463864Y376234D02*
Y378234D01*
X443106Y370502D02*
X445107D01*
X444106Y369502D02*
Y371502D01*
X423623Y413850D02*
X425623D01*
X424623Y412850D02*
Y414850D01*
X404300Y415787D02*
X406301D01*
X405300Y414787D02*
Y416787D01*
X397331Y400818D02*
X399331D01*
X398331Y399818D02*
Y401818D01*
X430300Y377298D02*
X432300D01*
X431301Y376298D02*
Y378298D01*
X423800Y364298D02*
X425800D01*
X424800Y363298D02*
Y365298D01*
X454156Y351015D02*
X456156D01*
X455156Y350015D02*
Y352015D01*
X443301Y357920D02*
X445300D01*
X444300Y356920D02*
Y358920D01*
X467570Y331298D02*
X469570D01*
X468570Y330298D02*
Y332298D01*
X451120Y257810D02*
X453120D01*
X452120Y256810D02*
Y258810D01*
X446040Y261620D02*
X448040D01*
X447040Y260620D02*
Y262620D01*
X449872Y28710D02*
X451872D01*
X450872Y27710D02*
Y29711D01*
X458872Y28710D02*
X460872D01*
X459872Y27710D02*
Y29711D01*
X467872Y28710D02*
X469872D01*
X468872Y27710D02*
Y29711D01*
X431872Y28710D02*
X433872D01*
X432872Y27710D02*
Y29711D01*
X440872Y28710D02*
X442872D01*
X441872Y27710D02*
Y29711D01*
X427051Y331298D02*
X429050D01*
X428050Y330298D02*
Y332298D01*
X427331Y288725D02*
X429331D01*
X428331Y287725D02*
Y289725D01*
X422872Y28710D02*
X424872D01*
X423872Y27710D02*
Y29711D01*
X421413Y91941D02*
X423413D01*
X422413Y90941D02*
Y92941D01*
X413872Y28710D02*
X415872D01*
X414872Y27710D02*
Y29711D01*
X396720Y337443D02*
X398720D01*
X397720Y336443D02*
Y338443D01*
X404872Y28710D02*
X406872D01*
X405872Y27710D02*
Y29711D01*
X395872Y28710D02*
X397872D01*
X396872Y27710D02*
Y29711D01*
X386872Y28710D02*
X388872D01*
X387872Y27710D02*
Y29711D01*
X377872Y28710D02*
X379872D01*
X378872Y27710D02*
Y29711D01*
X359872Y28710D02*
X361872D01*
X360872Y27710D02*
Y29711D01*
X368872Y28710D02*
X370872D01*
X369872Y27710D02*
Y29711D01*
X350872Y28710D02*
X352872D01*
X351872Y27710D02*
Y29711D01*
X341872Y28710D02*
X343872D01*
X342872Y27710D02*
Y29711D01*
X332873Y28710D02*
X334873D01*
X333872Y27710D02*
Y29711D01*
X306688Y332022D02*
X308688D01*
X307688Y331022D02*
Y333022D01*
X321923Y329122D02*
X323923D01*
X322923Y328122D02*
Y330122D01*
X312862Y308383D02*
X314862D01*
X313862Y307383D02*
Y309383D01*
X291685Y324560D02*
X293685D01*
X292685Y323560D02*
Y325560D01*
X301685Y319560D02*
X303685D01*
X302685Y318560D02*
Y320560D01*
X270425Y394717D02*
X272425D01*
X271425Y393717D02*
Y395717D01*
X239490Y388930D02*
X241490D01*
X240490Y387930D02*
Y389930D01*
X253493Y374058D02*
X255493D01*
X254493Y373058D02*
Y375058D01*
X268753Y320281D02*
X270753D01*
X269753Y319281D02*
Y321281D01*
X192142Y312375D02*
X194142D01*
X193142Y311375D02*
Y313375D01*
X269916Y297560D02*
X271916D01*
X270916Y296560D02*
Y298560D01*
X311629Y293755D02*
X313629D01*
X312629Y292755D02*
Y294755D01*
X296869Y294477D02*
X298869D01*
X297869Y293477D02*
Y295477D01*
X250236Y294637D02*
X252236D01*
X251236Y293637D02*
Y295637D01*
X296873Y28710D02*
X298873D01*
X297873Y27710D02*
Y29711D01*
X314872Y28710D02*
X316873D01*
X315872Y27710D02*
Y29711D01*
X323872Y28710D02*
X325872D01*
X324873Y27710D02*
Y29711D01*
X305872Y28710D02*
X307873D01*
X306873Y27710D02*
Y29711D01*
X278873Y28710D02*
X280873D01*
X279873Y27710D02*
Y29711D01*
X287873Y28710D02*
X289872D01*
X288873Y27710D02*
Y29711D01*
X260873Y28710D02*
X262873D01*
X261873Y27710D02*
Y29711D01*
X269873Y28710D02*
X271873D01*
X270873Y27710D02*
Y29711D01*
X251873Y28710D02*
X253873D01*
X252873Y27710D02*
Y29711D01*
X233873Y28710D02*
X235873D01*
X234873Y27710D02*
Y29711D01*
X242873Y28710D02*
X244873D01*
X243873Y27710D02*
Y29711D01*
X224873Y28710D02*
X226873D01*
X225873Y27710D02*
Y29711D01*
X213426Y276966D02*
X215426D01*
X214426Y275966D02*
Y277966D01*
X177274Y258242D02*
X179274D01*
X178274Y257242D02*
Y259242D01*
X9170Y79065D02*
X11170D01*
X10170Y78065D02*
Y80065D01*
X9170Y70065D02*
X11170D01*
X10170Y69065D02*
Y71065D01*
X9170Y88065D02*
X11170D01*
X10170Y87065D02*
Y89065D01*
X9170Y52065D02*
X11170D01*
X10170Y51065D02*
Y53065D01*
X9170Y43065D02*
X11170D01*
X10170Y42065D02*
Y44065D01*
X9170Y61065D02*
X11170D01*
X10170Y60065D02*
Y62065D01*
X9170Y97065D02*
X11170D01*
X10170Y96065D02*
Y98065D01*
X9169Y34065D02*
X11170D01*
X10170Y33065D02*
Y35065D01*
X215873Y28611D02*
X217873D01*
X216873Y27611D02*
Y29611D01*
X207221Y26133D02*
X209221D01*
X208221Y25134D02*
Y27134D01*
X200502Y20145D02*
X202502D01*
X201502Y19145D02*
Y21146D01*
X186430Y12710D02*
X188431D01*
X187430Y11710D02*
Y13711D01*
X177430Y12710D02*
X179431D01*
X178431Y11710D02*
Y13711D01*
X195430Y12710D02*
X197430D01*
X196430Y11710D02*
Y13711D01*
X42431Y12710D02*
X44431D01*
X43431Y11710D02*
Y13711D01*
X51431Y12710D02*
X53431D01*
X52431Y11710D02*
Y13711D01*
X33431Y12710D02*
X35431D01*
X34431Y11710D02*
Y13711D01*
X69431Y12710D02*
X71431D01*
X70431Y11710D02*
Y13711D01*
X60431Y12710D02*
X62431D01*
X61431Y11710D02*
Y13711D01*
X16654Y18123D02*
X18654D01*
X17654Y17123D02*
Y19123D01*
X24484Y13685D02*
X26484D01*
X25484Y12685D02*
Y14684D01*
X11229Y25304D02*
X13229D01*
X12229Y24304D02*
Y26304D01*
X132431Y12710D02*
X134431D01*
X133431Y11710D02*
Y13711D01*
X141431Y12710D02*
X143431D01*
X142431Y11710D02*
Y13711D01*
X123431Y12710D02*
X125431D01*
X124431Y11710D02*
Y13711D01*
X159431Y12710D02*
X161430D01*
X160431Y11710D02*
Y13711D01*
X168431Y12710D02*
X170431D01*
X169431Y11710D02*
Y13711D01*
X150430Y12710D02*
X152430D01*
X151431Y11710D02*
Y13711D01*
X87431Y12710D02*
X89431D01*
X88431Y11710D02*
Y13711D01*
X96431Y12710D02*
X98431D01*
X97431Y11710D02*
Y13711D01*
X78431Y12710D02*
X80431D01*
X79431Y11710D02*
Y13711D01*
X114431Y12710D02*
X116431D01*
X115431Y11710D02*
Y13711D01*
X105431Y12710D02*
X107431D01*
X106431Y11710D02*
Y13711D01*
X427082Y344745D02*
X429082D01*
X428082Y343745D02*
Y345745D01*
X436777Y338185D02*
X438777D01*
X437777Y337185D02*
Y339185D01*
X423800Y370798D02*
X425800D01*
X424800Y369798D02*
Y371798D01*
X430300Y364298D02*
X432300D01*
X431301Y363298D02*
Y365298D01*
X266050Y594759D02*
X268050D01*
X267050Y593759D02*
Y595759D01*
X274984Y634908D02*
X276984D01*
X275984Y633908D02*
Y635908D01*
X316500Y508000D02*
X318500D01*
X317500Y507000D02*
Y509000D01*
X237760Y574040D02*
X239760D01*
X238760Y573040D02*
Y575040D01*
X245041Y653440D02*
X247041D01*
X246041Y652440D02*
Y654441D01*
X226059Y614177D02*
X228059D01*
X227059Y613177D02*
Y615177D01*
X254990Y613090D02*
X256990D01*
X255990Y612090D02*
Y614090D01*
X284932Y613564D02*
X286932D01*
X285932Y612564D02*
Y614564D01*
X246059Y672803D02*
X248059D01*
X247059Y671803D02*
Y673803D01*
X226059Y672803D02*
X228059D01*
X227059Y671803D02*
Y673803D01*
X236059Y672803D02*
X238059D01*
X237059Y671803D02*
Y673803D01*
X256059Y672803D02*
X258059D01*
X257059Y671803D02*
Y673803D01*
X251362Y754046D02*
X253362D01*
X252362Y753046D02*
Y755046D01*
X262769Y755835D02*
X264769D01*
X263769Y754835D02*
Y756835D01*
X266059Y672803D02*
X268059D01*
X267059Y671803D02*
Y673803D01*
X276059Y672803D02*
X278059D01*
X277059Y671803D02*
Y673803D01*
X286059Y672803D02*
X288059D01*
X287059Y671803D02*
Y673803D01*
X285583Y755835D02*
X287583D01*
X286583Y754835D02*
Y756835D01*
X274176Y755835D02*
X276176D01*
X275176Y754835D02*
Y756835D01*
X295041Y652803D02*
X297041D01*
X296041Y651803D02*
Y653803D01*
X295627Y672483D02*
X297627D01*
X296627Y671483D02*
Y673483D01*
X295781Y581859D02*
X297781D01*
X296781Y580859D02*
Y582859D01*
X308330Y608330D02*
X310330D01*
X309330Y607330D02*
Y609330D01*
X319040Y689610D02*
X321040D01*
X320040Y688610D02*
Y690610D01*
X355935Y712470D02*
X357935D01*
X356935Y711470D02*
Y713470D01*
X354025Y755835D02*
X356025D01*
X355025Y754835D02*
Y756835D01*
X366030Y712470D02*
X368030D01*
X367030Y711470D02*
Y713470D01*
X365432Y755835D02*
X367432D01*
X366432Y754835D02*
Y756835D01*
X342618Y755835D02*
X344618D01*
X343618Y754835D02*
Y756835D01*
X192040Y581660D02*
X194040D01*
X193040Y580660D02*
Y582660D01*
X211090Y621030D02*
X213090D01*
X212090Y620030D02*
Y622030D01*
X240251Y581472D02*
X242251D01*
X241251Y580472D02*
Y582472D01*
X279430Y565150D02*
X281430D01*
X280430Y564150D02*
Y566150D01*
X307610Y777240D02*
X309610D01*
X308610Y776240D02*
Y778240D01*
X298720Y777240D02*
X300720D01*
X299720Y776240D02*
Y778240D01*
X355935Y702310D02*
X357935D01*
X356935Y701310D02*
Y703310D01*
X366030Y702310D02*
X368030D01*
X367030Y701310D02*
Y703310D01*
X391678Y679973D02*
X393678D01*
X392678Y678973D02*
Y680973D01*
X285614Y641342D02*
X287614D01*
X286614Y640342D02*
Y642342D01*
X284750Y623570D02*
X286750D01*
X285750Y622570D02*
Y624570D01*
X696230Y389890D02*
X698230D01*
X697230Y388890D02*
Y390890D01*
X410726Y429612D02*
X412726D01*
X411726Y428612D02*
Y430612D01*
X390984Y416514D02*
X392985D01*
X391984Y415514D02*
Y417514D01*
X410256Y439495D02*
X412256D01*
X411255Y438495D02*
Y440495D01*
X411485Y448660D02*
X413485D01*
X412486Y447659D02*
Y449660D01*
X417454Y455216D02*
X419454D01*
X418454Y454216D02*
Y456216D01*
X404300Y462310D02*
X406301D01*
X405300Y461310D02*
Y463310D01*
X539867Y525780D02*
X541867D01*
X540867Y524780D02*
Y526780D01*
X874030Y140970D02*
X876030D01*
X875030Y139970D02*
Y141970D01*
X486228Y93505D02*
X488228D01*
X487229Y92505D02*
Y94505D01*
X586018Y91186D02*
X588018D01*
X587018Y90186D02*
Y92186D01*
X561202Y91440D02*
X563202D01*
X562202Y90440D02*
Y92440D01*
X555952Y91440D02*
X557952D01*
X556952Y90440D02*
Y92440D01*
X415642Y318876D02*
X417642D01*
X416642Y317876D02*
Y319876D01*
X420792Y321926D02*
X422792D01*
X421792Y320927D02*
Y322926D01*
X385080Y331470D02*
X387080D01*
X386080Y330470D02*
Y332470D01*
X388890Y335280D02*
X390890D01*
X389890Y334280D02*
Y336280D01*
X591268Y91186D02*
X593268D01*
X592268Y90186D02*
Y92186D01*
X463710Y296752D02*
X465710D01*
X464710Y295752D02*
Y297752D01*
X472710Y283210D02*
X474710D01*
X473710Y282210D02*
Y284210D01*
X791480Y623570D02*
X793480D01*
X792480Y622570D02*
Y624570D01*
X776240Y623570D02*
X778240D01*
X777240Y622570D02*
Y624570D01*
X783860Y623570D02*
X785860D01*
X784860Y622570D02*
Y624570D01*
X791480Y617220D02*
X793480D01*
X792480Y616220D02*
Y618220D01*
X844930Y551070D02*
X846930D01*
X845930Y550070D02*
Y552070D01*
X837200Y201449D02*
X839200D01*
X838200Y200449D02*
Y202449D01*
X837200Y195580D02*
X839200D01*
X838200Y194580D02*
Y196580D01*
X837632Y286881D02*
X839632D01*
X838632Y285881D02*
Y287881D01*
X837632Y292131D02*
X839632D01*
X838632Y291131D02*
Y293131D01*
X839836Y376482D02*
X841835D01*
X840835Y375482D02*
Y377482D01*
X458740Y773430D02*
X460740D01*
X459740Y772430D02*
Y774430D01*
X452390Y773430D02*
X454390D01*
X453390Y772430D02*
Y774430D01*
X524363Y479680D02*
X526363D01*
X525363Y478680D02*
Y480680D01*
X813070Y327660D02*
X815070D01*
X814070Y326660D02*
Y328660D01*
X807707Y293305D02*
X809707D01*
X808707Y292305D02*
Y294305D01*
X794228Y303530D02*
X796228D01*
X795228Y302530D02*
Y304530D01*
X282622Y169768D02*
X284622D01*
X283622Y168768D02*
Y170768D01*
X283232Y163594D02*
X285232D01*
X284232Y162594D02*
Y164594D01*
X316220Y267853D02*
X318220D01*
X317220Y266853D02*
Y268853D01*
X316308Y257523D02*
X318309D01*
X317309Y256523D02*
Y258523D01*
X330681Y314742D02*
X332681D01*
X331681Y313742D02*
Y315742D01*
X296322Y258143D02*
X298322D01*
X297322Y257143D02*
Y259143D01*
X326362Y257426D02*
X328362D01*
X327362Y256426D02*
Y258426D01*
X360950Y114300D02*
X362950D01*
X361950Y113300D02*
Y115300D01*
X301571Y258025D02*
X303571D01*
X302571Y257025D02*
Y259025D01*
X288560Y201930D02*
X290560D01*
X289560Y200930D02*
Y202930D01*
X588881Y569681D02*
X590881D01*
X589881Y568681D02*
Y570681D01*
X721630Y289560D02*
X723630D01*
X722630Y288560D02*
Y290560D01*
X647321Y557595D02*
X649322D01*
X648322Y556595D02*
Y558595D01*
X621705Y518784D02*
X623705D01*
X622705Y517784D02*
Y519784D01*
X608999Y520893D02*
X610999D01*
X609999Y519893D02*
Y521893D01*
X613205Y517751D02*
X615205D01*
X614205Y516751D02*
Y518751D01*
X200906Y296202D02*
X202906D01*
X201906Y295202D02*
Y297202D01*
X187064Y292152D02*
X189064D01*
X188064Y291152D02*
Y293152D01*
X744490Y547829D02*
X746490D01*
X745490Y546829D02*
Y548829D01*
X741933Y552414D02*
X743933D01*
X742933Y551414D02*
Y553414D01*
X200479Y316981D02*
X202479D01*
X201479Y315981D02*
Y317981D01*
X218977Y310590D02*
X220977D01*
X219977Y309590D02*
Y311590D01*
X213328Y86360D02*
X215328D01*
X214328Y85360D02*
Y87360D01*
X753380Y220980D02*
X755380D01*
X754380Y219980D02*
Y221980D01*
X753380Y214630D02*
X755380D01*
X754380Y213630D02*
Y215630D01*
X747030Y214630D02*
X749030D01*
X748030Y213630D02*
Y215630D01*
X740680Y214630D02*
X742680D01*
X741680Y213630D02*
Y215630D01*
X747030Y220980D02*
X749030D01*
X748030Y219980D02*
Y221980D01*
X687060Y220980D02*
X689060D01*
X688060Y219980D02*
Y221980D01*
X680710Y214630D02*
X682710D01*
X681710Y213630D02*
Y215630D01*
X680710Y220980D02*
X682710D01*
X681710Y219980D02*
Y221980D01*
X687060Y214630D02*
X689060D01*
X688060Y213630D02*
Y215630D01*
X693410Y214630D02*
X695410D01*
X694410Y213630D02*
Y215630D01*
X371893Y165256D02*
X373893D01*
X372893Y164256D02*
Y166256D01*
X877840Y213360D02*
X879840D01*
X878840Y212360D02*
Y214360D01*
X883090Y213360D02*
X885090D01*
X884090Y212360D02*
Y214360D01*
X128540Y656590D02*
X130540D01*
X129540Y655590D02*
Y657590D01*
X128540Y699770D02*
X130540D01*
X129540Y698770D02*
Y700770D01*
X128540Y723900D02*
X130540D01*
X129540Y722900D02*
Y724900D01*
X474646Y764158D02*
X476646D01*
X475647Y763158D02*
Y765158D01*
X380569Y550990D02*
X382569D01*
X381569Y549990D02*
Y551990D01*
X490490Y716280D02*
X492490D01*
X491490Y715280D02*
Y717280D01*
X517156Y811842D02*
X519156D01*
X518156Y810842D02*
Y812842D01*
X171740Y752321D02*
X173741D01*
X172740Y751321D02*
Y753321D01*
X787110Y349674D02*
X789110D01*
X788110Y348674D02*
Y350674D01*
X818150Y396240D02*
X820150D01*
X819150Y395240D02*
Y397240D01*
X810910Y593291D02*
X812909D01*
X811909Y592291D02*
Y594291D01*
X824491Y522352D02*
X826491D01*
X825491Y521352D02*
Y523352D01*
X731790Y416560D02*
X733790D01*
X732790Y415560D02*
Y417560D01*
X183479Y437102D02*
X185479D01*
X184479Y436102D02*
Y438102D01*
X198390Y214630D02*
X200390D01*
X199390Y213630D02*
Y215630D01*
X135412Y123058D02*
X137411D01*
X136412Y122058D02*
Y124058D01*
X185690Y256540D02*
X187690D01*
X186690Y255540D02*
Y257540D01*
X568602Y768609D02*
X570602D01*
X569602Y767609D02*
Y769609D01*
X617490Y765810D02*
X619490D01*
X618490Y764810D02*
Y766810D01*
X653818Y767301D02*
X655818D01*
X654818Y766301D02*
Y768301D01*
X627766Y520303D02*
X629766D01*
X628766Y519303D02*
Y521303D01*
X556087Y769323D02*
X558087D01*
X557087Y768323D02*
Y770323D01*
X203916Y276582D02*
X205916D01*
X204916Y275582D02*
Y277582D01*
X481028Y542988D02*
X483028D01*
X482028Y541988D02*
Y543988D01*
X675910Y767080D02*
X677910D01*
X676910Y766080D02*
Y768080D01*
X364760Y631190D02*
X366760D01*
X365760Y630190D02*
Y632190D01*
X354600Y631190D02*
X356600D01*
X355600Y630190D02*
Y632190D01*
X364760Y621030D02*
X366760D01*
X365760Y620030D02*
Y622030D01*
X354600Y621030D02*
X356600D01*
X355600Y620030D02*
Y622030D01*
X837010Y421447D02*
X839010D01*
X838010Y420447D02*
Y422447D01*
X508330Y477523D02*
X510330D01*
X509330Y476523D02*
Y478523D01*
X823580Y425450D02*
X825580D01*
X824580Y424450D02*
Y426450D01*
X817330Y425450D02*
X819330D01*
X818330Y424450D02*
Y426450D01*
X513574Y477766D02*
X515574D01*
X514574Y476766D02*
Y478766D01*
X324120Y114848D02*
X326120D01*
X325120Y113848D02*
Y115848D01*
X286223Y268829D02*
X288223D01*
X287223Y267829D02*
Y269829D01*
X283724Y264160D02*
X285724D01*
X284724Y263160D02*
Y265160D01*
X293528Y280089D02*
X295527D01*
X294527Y279089D02*
Y281089D01*
X267862Y235000D02*
X269862D01*
X268862Y234000D02*
Y236000D01*
X268391Y270871D02*
X270391D01*
X269391Y269871D02*
Y271871D01*
X759730Y259080D02*
X761730D01*
X760730Y258080D02*
Y260080D01*
X754333Y259080D02*
X756332D01*
X755332Y258080D02*
Y260080D01*
X748935Y259080D02*
X750935D01*
X749935Y258080D02*
Y260080D01*
X743538Y259080D02*
X745537D01*
X744538Y258080D02*
Y260080D01*
X738140Y259080D02*
X740140D01*
X739140Y258080D02*
Y260080D01*
X785130Y203200D02*
X787130D01*
X786130Y202200D02*
Y204200D01*
X836852Y519643D02*
X838852D01*
X837852Y518643D02*
Y520643D01*
X251730Y782320D02*
X253730D01*
X252730Y781320D02*
Y783320D01*
X484170Y517194D02*
X486170D01*
X485170Y516194D02*
Y518194D01*
X361015Y653406D02*
X363015D01*
X362015Y652406D02*
Y654406D01*
X508231Y422648D02*
X510231D01*
X509231Y421648D02*
Y423648D01*
X479842Y491009D02*
X481842D01*
X480843Y490009D02*
Y492010D01*
X313070Y357740D02*
X315070D01*
X314070Y356740D02*
Y358740D01*
X451024Y389812D02*
X453024D01*
X452024Y388812D02*
Y390812D01*
X450826Y377669D02*
X452826D01*
X451825Y376669D02*
Y378669D01*
X423570Y423058D02*
X425570D01*
X424570Y422057D02*
Y424058D01*
X431545Y415207D02*
X433545D01*
X432545Y414207D02*
Y416207D01*
X414843Y413685D02*
X416843D01*
X415843Y412685D02*
Y414685D01*
X410480Y416127D02*
X412480D01*
X411480Y415127D02*
Y417127D01*
X370915Y334127D02*
X372915D01*
X371915Y333127D02*
Y335127D01*
X370946Y328827D02*
X372946D01*
X371946Y327827D02*
Y329827D01*
X371125Y323580D02*
X373125D01*
X372125Y322580D02*
Y324580D01*
X592613Y629173D02*
X594613D01*
X593613Y628173D02*
Y630173D01*
X261839Y359410D02*
X263839D01*
X262839Y358410D02*
Y360410D01*
X686070Y119380D02*
X688070D01*
X687070Y118380D02*
Y120380D01*
X632730Y116264D02*
X634730D01*
X633730Y115264D02*
Y117264D01*
X677180Y88900D02*
X679180D01*
X678180Y87900D02*
Y89900D01*
X399940Y125414D02*
X401940D01*
X400940Y124414D02*
Y126414D01*
X349958Y431544D02*
X351959D01*
X350959Y430544D02*
Y432544D01*
X687653Y724769D02*
X689653D01*
X688653Y723769D02*
Y725769D01*
X674640Y731943D02*
X676640D01*
X675640Y730943D02*
Y732943D01*
X674640Y737870D02*
X676640D01*
X675640Y736870D02*
Y738870D01*
X674640Y749723D02*
X676640D01*
X675640Y748723D02*
Y750723D01*
X674640Y743797D02*
X676640D01*
X675640Y742797D02*
Y744797D01*
X385080Y279400D02*
X387080D01*
X386080Y278400D02*
Y280400D01*
X402860Y268445D02*
X404860D01*
X403860Y267445D02*
Y269445D01*
X548910Y463637D02*
X550910D01*
X549911Y462637D02*
Y464637D01*
X552530Y458884D02*
X554530D01*
X553530Y457884D02*
Y459884D01*
X535136Y459219D02*
X537136D01*
X536136Y458219D02*
Y460219D01*
X514300Y448798D02*
X516301D01*
X515300Y447798D02*
Y449798D01*
X482715Y428201D02*
X484715D01*
X483715Y427201D02*
Y429201D01*
X449016Y448424D02*
X451016D01*
X450016Y447424D02*
Y449423D01*
X705076Y498700D02*
X707076D01*
X706076Y497700D02*
Y499700D01*
X725434Y498700D02*
X727434D01*
X726434Y497700D02*
Y499700D01*
X718648Y498700D02*
X720648D01*
X719648Y497700D02*
Y499700D01*
X711862Y498700D02*
X713862D01*
X712862Y497700D02*
Y499700D01*
X698290Y498700D02*
X700290D01*
X699290Y497700D02*
Y499700D01*
X386240Y162996D02*
X388240D01*
X387240Y161996D02*
Y163996D01*
X616293Y751290D02*
X618293D01*
X617293Y750290D02*
Y752290D01*
X610644Y751357D02*
X612644D01*
X611644Y750357D02*
Y752357D01*
X559175Y428832D02*
X561175D01*
X560176Y427832D02*
Y429832D01*
X587303Y442675D02*
X589303D01*
X588303Y441675D02*
Y443675D01*
X602250Y442675D02*
X604250D01*
X603250Y441675D02*
Y443675D01*
X599710Y458470D02*
X601710D01*
X600710Y457470D02*
Y459470D01*
X596819Y465034D02*
X598819D01*
X597819Y464034D02*
Y466034D01*
X658130Y546100D02*
X660130D01*
X659130Y545100D02*
Y547100D01*
X694970Y578967D02*
X696970D01*
X695970Y577967D02*
Y579967D01*
X690350Y519630D02*
X692350D01*
X691350Y518629D02*
Y520630D01*
X665750Y519430D02*
X667750D01*
X666750Y518430D02*
Y520430D01*
X349520Y262663D02*
X351520D01*
X350520Y261663D02*
Y263663D01*
X343170Y262663D02*
X345170D01*
X344170Y261663D02*
Y263663D01*
X346980Y277506D02*
X348980D01*
X347980Y276506D02*
Y278506D01*
X396456Y261425D02*
X398456D01*
X397456Y260425D02*
Y262425D01*
X404631Y260720D02*
X406631D01*
X405631Y259720D02*
Y261720D01*
X139970Y559348D02*
X141970D01*
X140970Y558348D02*
Y560348D01*
X236886Y288398D02*
X238886D01*
X237886Y287398D02*
Y289398D01*
X250236Y289092D02*
X252236D01*
X251236Y288092D02*
Y290092D01*
X251912Y271099D02*
X253912D01*
X252912Y270099D02*
Y272099D01*
X250236Y300908D02*
X252236D01*
X251236Y299908D02*
Y301908D01*
X262162Y271671D02*
X264162D01*
X263162Y270671D02*
Y272671D01*
X272176Y280583D02*
X274176D01*
X273176Y279583D02*
Y281583D01*
X512609Y682150D02*
X514609D01*
X513610Y681150D02*
Y683150D01*
X514244Y616908D02*
X516244D01*
X515244Y615908D02*
Y617908D01*
X514244Y623258D02*
X516244D01*
X515244Y622258D02*
Y624258D01*
X504128Y603378D02*
X506128D01*
X505128Y602379D02*
Y604379D01*
X510336Y603086D02*
X512336D01*
X511335Y602086D02*
Y604086D01*
X513661Y757879D02*
X515661D01*
X514661Y756879D02*
Y758879D01*
X268471Y399590D02*
X270471D01*
X269471Y398590D02*
Y400590D01*
X333010Y383540D02*
X335010D01*
X334010Y382540D02*
Y384540D01*
X326660Y388620D02*
X328660D01*
X327660Y387620D02*
Y389620D01*
X301649Y396240D02*
X303649D01*
X302649Y395240D02*
Y397240D01*
X303800Y436880D02*
X305800D01*
X304800Y435880D02*
Y437880D01*
X344497Y352218D02*
X346497D01*
X345497Y351218D02*
Y353218D01*
X241914Y402182D02*
X243913D01*
X242913Y401182D02*
Y403182D01*
X241914Y395339D02*
X243913D01*
X242913Y394339D02*
Y396339D01*
X380324Y299063D02*
X382324D01*
X381324Y298063D02*
Y300063D01*
X455383Y147966D02*
X457383D01*
X456383Y146966D02*
Y148966D01*
X454930Y242570D02*
X456930D01*
X455930Y241570D02*
Y243570D01*
X460010Y153670D02*
X462010D01*
X461010Y152670D02*
Y154670D01*
X448021Y235000D02*
X450021D01*
X449021Y234000D02*
Y236000D01*
X459226Y247271D02*
X461226D01*
X460226Y246271D02*
Y248271D01*
X298940Y280875D02*
X300940D01*
X299940Y279875D02*
Y281875D01*
X341900Y277756D02*
X343900D01*
X342900Y276756D02*
Y278756D01*
X241053Y306432D02*
X243053D01*
X242053Y305432D02*
Y307432D01*
X317392Y293853D02*
X319392D01*
X318392Y292853D02*
Y294853D01*
X312798Y298616D02*
X314798D01*
X313798Y297616D02*
Y299616D01*
X299418Y268118D02*
X301418D01*
X300418Y267118D02*
Y269118D01*
X526403Y362386D02*
X528403D01*
X527403Y361386D02*
Y363386D01*
X298956Y358138D02*
X300956D01*
X299956Y357138D02*
Y359138D01*
X311420Y199390D02*
X313420D01*
X312420Y198390D02*
Y200390D01*
X514800Y357798D02*
X516800D01*
X515800Y356798D02*
Y358798D01*
X628050Y232048D02*
X630051D01*
X629050Y231048D02*
Y233048D01*
X628050Y240048D02*
X630051D01*
X629050Y239048D02*
Y241048D01*
X514800Y364298D02*
X516800D01*
X515800Y363298D02*
Y365298D01*
X500800Y415942D02*
X502800D01*
X501800Y414942D02*
Y416942D01*
X388933Y687776D02*
X390933D01*
X389933Y686776D02*
Y688776D01*
X225984Y379474D02*
X227984D01*
X226984Y378474D02*
Y380474D01*
X587304Y496982D02*
X589304D01*
X588304Y495982D02*
Y497982D01*
X587645Y489924D02*
X589645D01*
X588645Y488924D02*
Y490924D01*
X589936Y485190D02*
X591936D01*
X590936Y484190D02*
Y486190D01*
X588280Y480060D02*
X590280D01*
X589280Y479060D02*
Y481060D01*
X594367Y489053D02*
X596367D01*
X595367Y488053D02*
Y490053D01*
X598335Y492490D02*
X600335D01*
X599335Y491490D02*
Y493490D01*
X564150Y496570D02*
X566150D01*
X565150Y495570D02*
Y497570D01*
X564150Y516915D02*
X566150D01*
X565150Y515915D02*
Y517915D01*
X667429Y418017D02*
X669429D01*
X668429Y417017D02*
Y419017D01*
X266560Y372697D02*
X268560D01*
X267560Y371697D02*
Y373697D01*
X262810Y378292D02*
X264810D01*
X263810Y377291D02*
Y379291D01*
X430300Y448661D02*
X432300D01*
X431301Y447661D02*
Y449661D01*
X429390Y457571D02*
X431390D01*
X430390Y456571D02*
Y458571D01*
X320310Y344170D02*
X322310D01*
X321310Y343170D02*
Y345170D01*
X330200Y353662D02*
X332200D01*
X331200Y352662D02*
Y354662D01*
X286020Y356870D02*
X288020D01*
X287020Y355870D02*
Y357870D01*
X280770Y356870D02*
X282770D01*
X281770Y355870D02*
Y357870D01*
X371109Y318330D02*
X373109D01*
X372109Y317330D02*
Y319330D01*
X371783Y307717D02*
X373783D01*
X372783Y306717D02*
Y308717D01*
X371772Y312979D02*
X373772D01*
X372772Y311979D02*
Y313979D01*
X270625Y333349D02*
X272625D01*
X271625Y332349D02*
Y334348D01*
X265589Y341836D02*
X267589D01*
X266589Y340836D02*
Y342836D01*
X269552Y348791D02*
X271552D01*
X270552Y347791D02*
Y349791D01*
X260817Y327281D02*
X262817D01*
X261817Y326281D02*
Y328281D01*
X403766Y520226D02*
X405766D01*
X404766Y519226D02*
Y521226D01*
X397100Y520020D02*
X399100D01*
X398100Y519020D02*
Y521020D01*
X407340Y527439D02*
X409340D01*
X408340Y526438D02*
Y528438D01*
X401735Y515385D02*
X403735D01*
X402735Y514385D02*
Y516385D01*
X450738Y530122D02*
X452738D01*
X451738Y529122D02*
Y531122D01*
X465344Y530122D02*
X467344D01*
X466344Y529122D02*
Y531122D01*
X484838Y539178D02*
X486838D01*
X485838Y538178D02*
Y540178D01*
X456849Y530122D02*
X458849D01*
X457849Y529122D02*
Y531122D01*
X444770Y521970D02*
X446770D01*
X445770Y520970D02*
Y522970D01*
X411205Y518497D02*
X413205D01*
X412205Y517497D02*
Y519497D01*
X415497Y521905D02*
X417497D01*
X416497Y520905D02*
Y522905D01*
X485550Y455798D02*
X487551D01*
X486550Y454798D02*
Y456798D01*
X479113Y473950D02*
X481113D01*
X480113Y472949D02*
Y474949D01*
X496910Y477534D02*
X498910D01*
X497910Y476534D02*
Y478534D01*
X502251Y477470D02*
X504251D01*
X503251Y476470D02*
Y478470D01*
X521674Y420260D02*
X523675D01*
X522674Y419260D02*
Y421260D01*
X501800Y422661D02*
X503801D01*
X502800Y421661D02*
Y423661D01*
X489036Y422707D02*
X491036D01*
X490037Y421707D02*
Y423707D01*
X488938Y416298D02*
X490938D01*
X489938Y415298D02*
Y417298D01*
X488696Y403048D02*
X490696D01*
X489696Y402048D02*
Y404048D01*
X482342Y416393D02*
X484342D01*
X483342Y415393D02*
Y417393D01*
X488804Y429402D02*
X490804D01*
X489804Y428402D02*
Y430402D01*
X488800Y435798D02*
X490800D01*
X489800Y434798D02*
Y436798D01*
X494924Y429298D02*
X496924D01*
X495924Y428298D02*
Y430298D01*
X643625Y456897D02*
X645625D01*
X644625Y455897D02*
Y457897D01*
X627650Y454660D02*
X629650D01*
X628650Y453660D02*
Y455660D01*
X360200Y529460D02*
X362200D01*
X361200Y528460D02*
Y530460D01*
X369851Y524750D02*
X371851D01*
X370851Y523750D02*
Y525750D01*
X364760Y508000D02*
X366760D01*
X365760Y507000D02*
Y509000D01*
X367300Y302260D02*
X369300D01*
X368300Y301260D02*
Y303260D01*
X461417Y286247D02*
X463416D01*
X462416Y285247D02*
Y287247D01*
X458740Y256540D02*
X460740D01*
X459740Y255540D02*
Y257540D01*
X463490Y261878D02*
X465490D01*
X464490Y260878D02*
Y262878D01*
X388477Y261142D02*
X390477D01*
X389477Y260142D02*
Y262142D01*
X464464Y490362D02*
X466464D01*
X465463Y489362D02*
Y491362D01*
X464490Y485085D02*
X466490D01*
X465490Y484085D02*
Y486085D01*
X476948Y517105D02*
X478948D01*
X477948Y516105D02*
Y518105D01*
X519086Y479706D02*
X521086D01*
X520086Y478706D02*
Y480706D01*
X494300Y516890D02*
X496300D01*
X495300Y515890D02*
Y517890D01*
X515064Y519810D02*
X517064D01*
X516064Y518810D02*
Y520810D01*
X523686Y519356D02*
X525686D01*
X524686Y518356D02*
Y520356D01*
X552126Y519439D02*
X554126D01*
X553126Y518439D02*
Y520439D01*
X347384Y194864D02*
X349384D01*
X348384Y193864D02*
Y195864D01*
X316500Y778510D02*
X318500D01*
X317500Y777510D02*
Y779510D01*
X520594Y616908D02*
X522594D01*
X521594Y615908D02*
Y617908D01*
X520594Y623258D02*
X522594D01*
X521594Y622258D02*
Y624258D01*
X159020Y650240D02*
X161020D01*
X160020Y649240D02*
Y651240D01*
X159020Y656590D02*
X161020D01*
X160020Y655590D02*
Y657590D01*
X160386Y664700D02*
X162386D01*
X161386Y663700D02*
Y665700D01*
X622490Y724243D02*
X624490D01*
X623490Y723243D02*
Y725243D01*
X597170Y657860D02*
X599170D01*
X598170Y656860D02*
Y658860D01*
X585680Y659300D02*
X587680D01*
X586680Y658300D02*
Y660300D01*
X585680Y654050D02*
X587680D01*
X586680Y653050D02*
Y655050D01*
X573040Y684150D02*
X575040D01*
X574040Y683150D02*
Y685150D01*
X573040Y699770D02*
X575040D01*
X574040Y698770D02*
Y700770D01*
X467759Y276795D02*
X469759D01*
X468759Y275795D02*
Y277795D01*
X340846Y532190D02*
X342846D01*
X341846Y531190D02*
Y533190D01*
X388890Y657860D02*
X390890D01*
X389890Y656860D02*
Y658860D01*
X372380Y660400D02*
X374380D01*
X373380Y659400D02*
Y661400D01*
X376190Y665480D02*
X378190D01*
X377190Y664480D02*
Y666480D01*
X261788Y352308D02*
X263788D01*
X262788Y351308D02*
Y353308D01*
X203095Y406400D02*
X205095D01*
X204095Y405400D02*
Y407400D01*
X248865Y386647D02*
X250865D01*
X249865Y385647D02*
Y387647D01*
X317196Y407340D02*
X319196D01*
X318196Y406340D02*
Y408340D01*
X594835Y409261D02*
X596835D01*
X595835Y408261D02*
Y410261D01*
X321710Y411854D02*
X323710D01*
X322710Y410854D02*
Y412854D01*
X344747Y344118D02*
X346747D01*
X345747Y343118D02*
Y345118D01*
X341997Y473230D02*
X343997D01*
X342997Y472230D02*
Y474230D01*
X341997Y486116D02*
X343997D01*
X342997Y485116D02*
Y487116D01*
X427130Y296752D02*
X429130D01*
X428130Y295752D02*
Y297752D01*
X431601Y322283D02*
X433601D01*
X432601Y321283D02*
Y323283D01*
X434886Y181610D02*
X436886D01*
X435886Y180610D02*
Y182610D01*
X260801Y332281D02*
X262801D01*
X261801Y331281D02*
Y333281D01*
X253765Y336186D02*
X255765D01*
X254765Y335186D02*
Y337186D01*
X238210Y332255D02*
X240210D01*
X239210Y331255D02*
Y333255D01*
X246015Y323498D02*
X248015D01*
X247015Y322497D02*
Y324497D01*
X263953Y293624D02*
X265953D01*
X264953Y292624D02*
Y294624D01*
X291884Y294863D02*
X293884D01*
X292884Y293863D02*
Y295863D01*
X254936Y309499D02*
X256936D01*
X255936Y308499D02*
Y310499D01*
X289805Y508831D02*
X291805D01*
X290805Y507831D02*
Y509831D01*
X275230Y502760D02*
X277230D01*
X276230Y501760D02*
Y503760D01*
X225300Y603250D02*
X227300D01*
X226300Y602250D02*
Y604250D01*
X311420Y490087D02*
X313420D01*
X312420Y489087D02*
Y491087D01*
X295909Y622780D02*
X297909D01*
X296909Y621780D02*
Y623780D01*
X289767Y565530D02*
X291766D01*
X290767Y564530D02*
Y566530D01*
X270552Y581660D02*
X272552D01*
X271552Y580660D02*
Y582660D01*
X244953Y492412D02*
X246954D01*
X245954Y491412D02*
Y493412D01*
X239843Y496487D02*
X241843D01*
X240843Y495487D02*
Y497487D01*
X196735Y544474D02*
X198734D01*
X197735Y543474D02*
Y545474D01*
X201960Y543967D02*
X203960D01*
X202960Y542967D02*
Y544967D01*
X317505Y630925D02*
X319505D01*
X318505Y629925D02*
Y631925D01*
X294910Y595630D02*
X296910D01*
X295910Y594630D02*
Y596630D01*
X228210Y475628D02*
X230210D01*
X229210Y474628D02*
Y476628D01*
X321962Y486536D02*
X323962D01*
X322962Y485536D02*
Y487536D01*
X331740Y477520D02*
X333740D01*
X332740Y476520D02*
Y478520D01*
X332600Y482699D02*
X334600D01*
X333600Y481699D02*
Y483699D01*
X307610Y594360D02*
X309610D01*
X308610Y593360D02*
Y595360D01*
X221250Y618490D02*
X223250D01*
X222250Y617490D02*
Y619490D01*
X336820Y643890D02*
X338820D01*
X337820Y642890D02*
Y644890D01*
X340713Y640368D02*
X342713D01*
X341713Y639367D02*
Y641367D01*
X324120Y635000D02*
X326120D01*
X325120Y634000D02*
Y636000D01*
X265966Y613334D02*
X267966D01*
X266966Y612334D02*
Y614334D01*
X245380Y601980D02*
X247380D01*
X246380Y600980D02*
Y602980D01*
X226870Y634137D02*
X228870D01*
X227870Y633137D02*
Y635137D01*
X238521Y355809D02*
X240520D01*
X239520Y354809D02*
Y356809D01*
X233950Y344170D02*
X235950D01*
X234950Y343170D02*
Y345170D01*
X381945Y352012D02*
X383945D01*
X382945Y351012D02*
Y353012D01*
X270256Y376650D02*
X272256D01*
X271256Y375650D02*
Y377650D01*
X220450Y338152D02*
X222451D01*
X221451Y337152D02*
Y339152D01*
X150130Y294640D02*
X152130D01*
X151130Y293640D02*
Y295640D01*
X236490Y270720D02*
X238490D01*
X237490Y269720D02*
Y271720D01*
X126407Y224579D02*
X128407D01*
X127407Y223579D02*
Y225579D01*
X132350Y213360D02*
X134350D01*
X133350Y212360D02*
Y214360D01*
X198220Y235000D02*
X200220D01*
X199220Y234000D02*
Y236000D01*
X203470Y235000D02*
X205470D01*
X204470Y234000D02*
Y236000D01*
X820690Y609600D02*
X822690D01*
X821690Y608600D02*
Y610600D01*
X815440Y609600D02*
X817440D01*
X816440Y608600D02*
Y610600D01*
X835829Y609892D02*
X837829D01*
X836829Y608892D02*
Y610892D01*
X830535Y609804D02*
X832535D01*
X831535Y608804D02*
Y610804D01*
X461345Y758190D02*
X463345D01*
X462345Y757190D02*
Y759190D01*
X467182Y341648D02*
X469182D01*
X468182Y340648D02*
Y342648D01*
X443310Y383793D02*
X445310D01*
X444310Y382793D02*
Y384793D01*
X558120Y671652D02*
X560120D01*
X559120Y670652D02*
Y672652D01*
X543830Y766528D02*
X545830D01*
X544830Y765528D02*
Y767528D01*
X567960Y679070D02*
X569960D01*
X568960Y678070D02*
Y680070D01*
X566075Y712926D02*
X568075D01*
X567075Y711926D02*
Y713926D01*
X641325Y679070D02*
X643325D01*
X642325Y678070D02*
Y680070D01*
X688660Y556887D02*
X690660D01*
X689660Y555887D02*
Y557887D01*
X845903Y522459D02*
X847903D01*
X846903Y521459D02*
Y523459D01*
X845839Y533400D02*
X847839D01*
X846839Y532400D02*
Y534400D01*
X789602Y758190D02*
X791602D01*
X790602Y757190D02*
Y759190D01*
X371658Y290458D02*
X373658D01*
X372658Y289458D02*
Y291458D01*
X371658Y296164D02*
X373658D01*
X372658Y295163D02*
Y297164D01*
X646812Y518138D02*
X648812D01*
X647812Y517138D02*
Y519138D01*
X655598Y489340D02*
X657598D01*
X656598Y488340D02*
Y490340D01*
X637857Y518129D02*
X639857D01*
X638857Y517129D02*
Y519129D01*
X626590Y657183D02*
X628590D01*
X627590Y656183D02*
Y658183D01*
X668510Y505435D02*
X670510D01*
X669510Y504435D02*
Y506435D01*
X667701Y500248D02*
X669701D01*
X668701Y499248D02*
Y501248D01*
X384038Y263945D02*
X386038D01*
X385038Y262945D02*
Y264945D01*
X467706Y251633D02*
X469706D01*
X468706Y250633D02*
Y252633D01*
X642061Y489000D02*
X644061D01*
X643061Y488000D02*
Y490000D01*
X645477Y492986D02*
X647477D01*
X646477Y491986D02*
Y493986D01*
X629419Y489899D02*
X631419D01*
X630419Y488899D02*
Y490899D01*
X634949Y489899D02*
X636949D01*
X635949Y488899D02*
Y490899D01*
X617490Y488950D02*
X619490D01*
X618490Y487950D02*
Y489950D01*
X736870Y532130D02*
X738870D01*
X737870Y531130D02*
Y533130D01*
X532422Y538921D02*
X534422D01*
X533422Y537921D02*
Y539921D01*
X544151Y429612D02*
X546151D01*
X545151Y428612D02*
Y430612D01*
X591466Y751191D02*
X593466D01*
X592466Y750191D02*
Y752191D01*
X606711Y732033D02*
X608711D01*
X607711Y731033D02*
Y733033D01*
X630465Y751565D02*
X632465D01*
X631465Y750565D02*
Y752565D01*
X624521Y751984D02*
X626521D01*
X625521Y750984D02*
Y752984D01*
X686070Y826770D02*
X688070D01*
X687070Y825770D02*
Y827770D01*
X686328Y797061D02*
X688328D01*
X687328Y796061D02*
Y798061D01*
X752988Y741680D02*
X754988D01*
X753988Y740680D02*
Y742680D01*
X724170Y839535D02*
X726170D01*
X725170Y838535D02*
Y840535D01*
X678022Y698700D02*
X680022D01*
X679022Y697700D02*
Y699700D01*
X611238Y791172D02*
X613238D01*
X612238Y790172D02*
Y792172D01*
X655590Y803910D02*
X657590D01*
X656590Y802910D02*
Y804910D01*
X345387Y720544D02*
X347387D01*
X346387Y719544D02*
Y721544D01*
X380000Y524750D02*
X382000D01*
X381000Y523750D02*
Y525750D01*
X584600Y726910D02*
X586600D01*
X585600Y725910D02*
Y727910D01*
X631460Y125670D02*
X633460D01*
X632460Y124670D02*
Y126670D01*
X634667Y121514D02*
X636667D01*
X635667Y120514D02*
Y122514D01*
X463705Y93520D02*
X465705D01*
X464705Y92520D02*
Y94520D01*
X469104Y93520D02*
X471104D01*
X470104Y92520D02*
Y94520D01*
X363490Y163830D02*
X365490D01*
X364490Y162830D02*
Y164830D01*
X375075Y170882D02*
X377075D01*
X376074Y169881D02*
Y171882D01*
X393432Y213537D02*
X395432D01*
X394432Y212537D02*
Y214537D01*
X327930Y163830D02*
X329930D01*
X328930Y162830D02*
Y164830D01*
X256219Y348870D02*
X258219D01*
X257219Y347869D02*
Y349869D01*
X453671Y555783D02*
X455671D01*
X454671Y554783D02*
Y556783D01*
X137476Y447812D02*
X139476D01*
X138476Y446812D02*
Y448812D01*
X490731Y538944D02*
X492731D01*
X491731Y537944D02*
Y539944D01*
X519700Y538944D02*
X521700D01*
X520700Y537944D02*
Y539944D01*
X503190Y539750D02*
X505190D01*
X504190Y538750D02*
Y540750D01*
X526149Y538944D02*
X528149D01*
X527149Y537944D02*
Y539944D01*
X471440Y523240D02*
X473440D01*
X472440Y522240D02*
Y524240D01*
X663000Y573040D02*
X665000D01*
X664000Y572040D02*
Y574040D01*
X670830Y573040D02*
X672830D01*
X671830Y572040D02*
Y574040D01*
X745189Y423241D02*
X747189D01*
X746189Y422241D02*
Y424241D01*
X752110Y427990D02*
X754110D01*
X753110Y426990D02*
Y428990D01*
X844820Y542290D02*
X846820D01*
X845820Y541290D02*
Y543290D01*
X588350Y766528D02*
X590350D01*
X589350Y765528D02*
Y767528D01*
X330244Y421068D02*
X332244D01*
X331244Y420068D02*
Y422068D01*
X327976Y416334D02*
X329976D01*
X328976Y415334D02*
Y417334D01*
X352060Y842250D02*
X354060D01*
X353060Y841250D02*
Y843250D01*
X366030Y670560D02*
X368030D01*
X367030Y669560D02*
Y671560D01*
X380000Y530000D02*
X382000D01*
X381000Y529000D02*
Y531000D01*
X445343Y514647D02*
X447343D01*
X446343Y513647D02*
Y515647D01*
X416107Y530122D02*
X418107D01*
X417107Y529122D02*
Y531122D01*
X426617Y521680D02*
X428617D01*
X427617Y520680D02*
Y522680D01*
X346275Y779230D02*
X348275D01*
X347275Y778230D02*
Y780230D01*
X639040Y656368D02*
X641040D01*
X640040Y655368D02*
Y657368D01*
X639040Y650618D02*
X641040D01*
X640040Y649618D02*
Y651618D01*
X639164Y644992D02*
X641164D01*
X640164Y643992D02*
Y645992D01*
X416344Y579833D02*
X418344D01*
X417345Y578833D02*
Y580833D01*
X579682Y570130D02*
X581682D01*
X580682Y569130D02*
Y571130D01*
X453660Y570230D02*
X455660D01*
X454660Y569230D02*
Y571230D01*
X652172Y672426D02*
X654172D01*
X653172Y671426D02*
Y673426D01*
X649268Y632460D02*
X651268D01*
X650268Y631460D02*
Y633460D01*
X644018Y632460D02*
X646018D01*
X645018Y631460D02*
Y633460D01*
X355870Y666750D02*
X357870D01*
X356870Y665750D02*
Y667750D01*
X343170Y591820D02*
X345170D01*
X344170Y590820D02*
Y592820D01*
X346550Y612205D02*
X348550D01*
X347550Y611205D02*
Y613205D01*
X356634Y596394D02*
X358634D01*
X357634Y595394D02*
Y597394D01*
X447671Y739000D02*
X449671D01*
X448671Y738000D02*
Y740000D01*
X341704Y457935D02*
X343704D01*
X342705Y456935D02*
Y458935D01*
X567960Y704850D02*
X569960D01*
X568960Y703850D02*
Y705850D01*
X521409Y700117D02*
X523409D01*
X522409Y699118D02*
Y701117D01*
X515059Y700117D02*
X517059D01*
X516059Y699118D02*
Y701117D01*
X515059Y693767D02*
X517059D01*
X516059Y692767D02*
Y694768D01*
X521409Y693767D02*
X523409D01*
X522409Y692767D02*
Y694768D01*
X527662Y606510D02*
X529662D01*
X528662Y605510D02*
Y607510D01*
X531785Y603196D02*
X533785D01*
X532785Y602196D02*
Y604196D01*
X603520Y629920D02*
X605520D01*
X604520Y628920D02*
Y630920D01*
X612354Y631721D02*
X614354D01*
X613354Y630721D02*
Y632721D01*
X626260Y632089D02*
X628260D01*
X627260Y631089D02*
Y633089D01*
X647337Y712368D02*
X649337D01*
X648337Y711368D02*
Y713369D01*
X641520Y704850D02*
X643520D01*
X642520Y703850D02*
Y705850D01*
X688610Y84650D02*
X690610D01*
X689610Y83650D02*
Y85650D01*
X693690Y93485D02*
X695690D01*
X694690Y92485D02*
Y94485D01*
X683534Y97735D02*
X685534D01*
X684534Y96735D02*
Y98735D01*
X532111Y92364D02*
X534111D01*
X533111Y91364D02*
Y93364D01*
X780364Y301230D02*
X782364D01*
X781364Y300230D02*
Y302230D01*
X751675Y303090D02*
X753675D01*
X752675Y302090D02*
Y304090D01*
X733060Y334010D02*
X735060D01*
X734060Y333010D02*
Y335010D01*
X733060Y325175D02*
X735060D01*
X734060Y324175D02*
Y326175D01*
X733060Y316341D02*
X735060D01*
X734060Y315340D02*
Y317341D01*
X740680Y316285D02*
X742680D01*
X741680Y315285D02*
Y317285D01*
X740680Y325120D02*
X742680D01*
X741680Y324120D02*
Y326120D01*
X740680Y333955D02*
X742680D01*
X741680Y332955D02*
Y334955D01*
X701310Y723284D02*
X703310D01*
X702310Y722284D02*
Y724284D01*
X332403Y346144D02*
X334403D01*
X333403Y345144D02*
Y347144D01*
X410987Y90933D02*
X412987D01*
X411987Y89933D02*
Y91933D01*
X402860Y95518D02*
X404860D01*
X403860Y94517D02*
Y96517D01*
X285583Y191617D02*
X287583D01*
X286583Y190617D02*
Y192617D01*
X713231Y45847D02*
X715231D01*
X714231Y44847D02*
Y46847D01*
X874030Y96520D02*
X876030D01*
X875030Y95520D02*
Y97520D01*
X295685Y299483D02*
X297685D01*
X296685Y298483D02*
Y300483D01*
X245838Y255607D02*
X247838D01*
X246838Y254607D02*
Y256607D01*
X223790Y261620D02*
X225790D01*
X224790Y260620D02*
Y262620D01*
X302685Y299560D02*
X304685D01*
X303685Y298560D02*
Y300560D01*
X762650Y774065D02*
X764650D01*
X763650Y773065D02*
Y775065D01*
X757190Y774255D02*
X759190D01*
X758190Y773255D02*
Y775255D01*
X712570Y755650D02*
X714570D01*
X713570Y754650D02*
Y756650D01*
X717820Y755650D02*
X719820D01*
X718820Y754650D02*
Y756650D01*
X701310Y730909D02*
X703310D01*
X702310Y729909D02*
Y731909D01*
X724170Y758190D02*
X726170D01*
X725170Y757190D02*
Y759190D01*
X729609Y765218D02*
X731609D01*
X730609Y764218D02*
Y766218D01*
X734877Y765210D02*
X736877D01*
X735877Y764210D02*
Y766210D01*
X760460Y207242D02*
X762460D01*
X761460Y206242D02*
Y208242D01*
X755210Y207242D02*
X757210D01*
X756210Y206242D02*
Y208242D01*
X742659Y695089D02*
X744659D01*
X743659Y694089D02*
Y696089D01*
X738320Y229380D02*
X740320D01*
X739320Y228380D02*
Y230380D01*
X476055Y410033D02*
X478055D01*
X477055Y409033D02*
Y411033D01*
X468837Y395614D02*
X470836D01*
X469837Y394614D02*
Y396614D01*
X466050Y368609D02*
X468050D01*
X467051Y367609D02*
Y369609D01*
X453325Y363764D02*
X455325D01*
X454325Y362764D02*
Y364764D01*
X709862Y647350D02*
X711862D01*
X710862Y646350D02*
Y648351D01*
X591574Y728118D02*
X593574D01*
X592574Y727118D02*
Y729118D01*
X693690Y673100D02*
X695690D01*
X694690Y672100D02*
Y674100D01*
X702580Y646430D02*
X704580D01*
X703580Y645430D02*
Y647430D01*
X545100Y574040D02*
X547100D01*
X546100Y573040D02*
Y575040D01*
X454207Y576403D02*
X456207D01*
X455207Y575402D02*
Y577402D01*
X696564Y412672D02*
X698564D01*
X697564Y411672D02*
Y413672D01*
X462800Y390298D02*
X464800D01*
X463800Y389298D02*
Y391298D01*
X444008Y397051D02*
X446008D01*
X445008Y396051D02*
Y398051D01*
X443357Y390051D02*
X445357D01*
X444357Y389051D02*
Y391051D01*
X683530Y662940D02*
X685530D01*
X684530Y661940D02*
Y663940D01*
X693690Y662940D02*
X695690D01*
X694690Y661940D02*
Y663940D01*
X683530Y673100D02*
X685530D01*
X684530Y672100D02*
Y674100D01*
X552720Y485140D02*
X554720D01*
X553720Y484140D02*
Y486140D01*
X545000Y563000D02*
X547000D01*
X546000Y562000D02*
Y564000D01*
X522033Y400180D02*
X524033D01*
X523033Y399180D02*
Y401180D01*
X379475Y114611D02*
X381475D01*
X380475Y113611D02*
Y115611D01*
X480952Y93520D02*
X482952D01*
X481952Y92520D02*
Y94520D01*
X307610Y140970D02*
X309610D01*
X308610Y139970D02*
Y141970D01*
X336820Y511810D02*
X338820D01*
X337820Y510810D02*
Y512810D01*
X294910Y458470D02*
X296910D01*
X295910Y457470D02*
Y459470D01*
X261662Y452233D02*
X263662D01*
X262662Y451233D02*
Y453233D01*
X336820Y520700D02*
X338820D01*
X337820Y519700D02*
Y521700D01*
X308555Y448940D02*
X310555D01*
X309555Y447940D02*
Y449940D01*
X367005Y210842D02*
X369005D01*
X368005Y209842D02*
Y211842D01*
X368717Y215805D02*
X370717D01*
X369717Y214805D02*
Y216805D01*
X208241Y254960D02*
X210240D01*
X209240Y253960D02*
Y255961D01*
X213800Y255270D02*
X215800D01*
X214800Y254270D02*
Y256270D01*
X186960Y238576D02*
X188960D01*
X187960Y237576D02*
Y239576D01*
X208846Y147320D02*
X210846D01*
X209846Y146320D02*
Y148320D01*
X179340Y120650D02*
X181340D01*
X180340Y119650D02*
Y121650D01*
X237760Y102870D02*
X239760D01*
X238760Y101870D02*
Y103870D01*
X419180Y811104D02*
X421180D01*
X420181Y810104D02*
Y812104D01*
X448580Y664210D02*
X450580D01*
X449580Y663210D02*
Y665210D01*
X466643Y813505D02*
X468643D01*
X467643Y812505D02*
Y814505D01*
X413020Y811530D02*
X415020D01*
X414020Y810530D02*
Y812530D01*
X412676Y676305D02*
X414676D01*
X413676Y675305D02*
Y677306D01*
X438420Y806450D02*
X440420D01*
X439420Y805450D02*
Y807450D01*
X399348Y821052D02*
X401348D01*
X400348Y820052D02*
Y822052D01*
X150130Y325120D02*
X152130D01*
X151130Y324120D02*
Y326120D01*
X517160Y91440D02*
X519160D01*
X518160Y90440D02*
Y92440D01*
X510810Y91440D02*
X512810D01*
X511810Y90440D02*
Y92440D01*
X824322Y352946D02*
X826322D01*
X825322Y351946D02*
Y353946D01*
X377246Y387741D02*
X379246D01*
X378246Y386741D02*
Y388741D01*
X688704Y313667D02*
X690704D01*
X689704Y312667D02*
Y314667D01*
X684800Y309792D02*
X686800D01*
X685800Y308792D02*
Y310792D01*
X680542Y300866D02*
X682542D01*
X681542Y299866D02*
Y301866D01*
X689880Y326390D02*
X691880D01*
X690880Y325390D02*
Y327390D01*
X637770Y737492D02*
X639770D01*
X638770Y736492D02*
Y738492D01*
X637770Y731742D02*
X639770D01*
X638770Y730742D02*
Y732742D01*
X637770Y743242D02*
X639770D01*
X638770Y742242D02*
Y744242D01*
X660670Y787500D02*
X662670D01*
X661670Y786500D02*
Y788500D01*
X132350Y345440D02*
X134350D01*
X133350Y344440D02*
Y346440D01*
X567960Y699770D02*
X569960D01*
X568960Y698770D02*
Y700770D01*
X567960Y684150D02*
X569960D01*
X568960Y683150D02*
Y685150D01*
X636440Y684150D02*
X638440D01*
X637440Y683150D02*
Y685150D01*
X641520Y684150D02*
X643520D01*
X642520Y683150D02*
Y685150D01*
X641520Y699770D02*
X643520D01*
X642520Y698770D02*
Y700770D01*
X636440Y699770D02*
X638440D01*
X637440Y698770D02*
Y700770D01*
X467630Y758190D02*
X469630D01*
X468630Y757190D02*
Y759190D01*
X534700Y743797D02*
X536700D01*
X535700Y742797D02*
Y744797D01*
X534700Y737870D02*
X536700D01*
X535700Y736870D02*
Y738870D01*
X534700Y731943D02*
X536700D01*
X535700Y730943D02*
Y732943D01*
X670830Y563880D02*
X672830D01*
X671830Y562880D02*
Y564880D01*
X194580Y165165D02*
X196580D01*
X195580Y164165D02*
Y166165D01*
X199725Y151130D02*
X201725D01*
X200725Y150130D02*
Y152130D01*
X615087Y569930D02*
X617087D01*
X616087Y568930D02*
Y570930D01*
X567390Y632460D02*
X569390D01*
X568390Y631460D02*
Y633460D01*
X562140Y632460D02*
X564140D01*
X563140Y631460D02*
Y633460D01*
X558792Y408998D02*
X560792D01*
X559792Y407998D02*
Y409998D01*
X565109Y413061D02*
X567109D01*
X566109Y412061D02*
Y414061D01*
X317862Y308383D02*
X319862D01*
X318862Y307383D02*
Y309383D01*
X330631Y328903D02*
X332631D01*
X331631Y327903D02*
Y329903D01*
X359680Y140970D02*
X361680D01*
X360680Y139970D02*
Y141970D01*
X291685Y329560D02*
X293685D01*
X292685Y328560D02*
Y330560D01*
X237203Y435504D02*
X239203D01*
X238203Y434504D02*
Y436504D01*
X232085Y434337D02*
X234085D01*
X233085Y433337D02*
Y435337D01*
X473980Y648970D02*
X475980D01*
X474980Y647970D02*
Y649970D01*
X571440Y646138D02*
X573440D01*
X572440Y645138D02*
Y647138D01*
X562434Y622134D02*
X564434D01*
X563434Y621134D02*
Y623134D01*
X466672Y516510D02*
X468672D01*
X467672Y515510D02*
Y517510D01*
X496590Y530910D02*
X498590D01*
X497590Y529910D02*
Y531910D01*
X510570Y528410D02*
X512570D01*
X511570Y527410D02*
Y529410D01*
X429763Y514117D02*
X431763D01*
X430763Y513117D02*
Y515117D01*
X759730Y835660D02*
X761730D01*
X760730Y834660D02*
Y836660D01*
X658130Y809347D02*
X660130D01*
X659130Y808347D02*
Y810347D01*
X268240Y457200D02*
X270240D01*
X269240Y456200D02*
Y458200D01*
X213630Y78740D02*
X215630D01*
X214630Y77740D02*
Y79740D01*
X228922Y73664D02*
X230922D01*
X229922Y72664D02*
Y74664D01*
X226330Y69099D02*
X228330D01*
X227330Y68099D02*
Y70099D01*
X225958Y63640D02*
X227958D01*
X226958Y62640D02*
Y64640D01*
X234946Y73397D02*
X236946D01*
X235946Y72397D02*
Y74397D01*
X571440Y657638D02*
X573440D01*
X572440Y656638D02*
Y658638D01*
X571440Y651888D02*
X573440D01*
X572440Y650888D02*
Y652888D01*
X698296Y492760D02*
X700296D01*
X699296Y491760D02*
Y493760D01*
X595559Y417003D02*
X597559D01*
X596559Y416003D02*
Y418003D01*
X725440Y434340D02*
X727440D01*
X726440Y433340D02*
Y435340D01*
X532400Y773430D02*
X534400D01*
X533400Y772430D02*
Y774430D01*
X724170Y556260D02*
X726170D01*
X725170Y555260D02*
Y557260D01*
X496233Y549440D02*
X498233D01*
X497233Y548439D02*
Y550439D01*
X440740Y586751D02*
X442740D01*
X441740Y585751D02*
Y587751D01*
X453986Y589841D02*
X455986D01*
X454986Y588841D02*
Y590841D01*
X423504Y455262D02*
X425504D01*
X424504Y454263D02*
Y456263D01*
X424140Y442298D02*
X426140D01*
X425140Y441298D02*
Y443298D01*
X416985Y442122D02*
X418985D01*
X417985Y441122D02*
Y443122D01*
X449800Y416298D02*
X451800D01*
X450800Y415298D02*
Y417298D01*
X456200Y416560D02*
X458200D01*
X457200Y415560D02*
Y417560D01*
X410060Y471170D02*
X412060D01*
X411060Y470170D02*
Y472170D01*
X551450Y553720D02*
X553450D01*
X552450Y552720D02*
Y554720D01*
X783860Y712470D02*
X785860D01*
X784860Y711470D02*
Y713470D01*
X788875Y299688D02*
X790875D01*
X789875Y298688D02*
Y300688D01*
X534700Y749723D02*
X536700D01*
X535700Y748723D02*
Y750723D01*
X594170Y779979D02*
X596170D01*
X595170Y778979D02*
Y780979D01*
X769890Y648970D02*
X771890D01*
X770890Y647970D02*
Y649970D01*
X775140Y648970D02*
X777140D01*
X776140Y647970D02*
Y649970D01*
X231180Y813940D02*
X236180D01*
X233680Y811440D02*
Y816440D01*
X355935Y578321D02*
X357935D01*
X356935Y577321D02*
Y579320D01*
X501768Y344840D02*
X503768D01*
X502768Y343840D02*
Y345840D01*
X485387Y339933D02*
X487387D01*
X486387Y338933D02*
Y340933D01*
X508301Y351298D02*
X510300D01*
X509300Y350298D02*
Y352298D01*
X514800Y345056D02*
X516800D01*
X515800Y344056D02*
Y346056D01*
X514800Y351298D02*
X516800D01*
X515800Y350298D02*
Y352298D01*
X494693Y351454D02*
X496693D01*
X495693Y350454D02*
Y352454D01*
X501713Y351232D02*
X503713D01*
X502713Y350232D02*
Y352232D01*
X346780Y217696D02*
X348780D01*
X347780Y216696D02*
Y218696D01*
X347976Y535940D02*
X349976D01*
X348975Y534940D02*
Y536940D01*
X347976Y527699D02*
X349976D01*
X348975Y526699D02*
Y528699D01*
X258080Y424180D02*
X260080D01*
X259080Y423180D02*
Y425180D01*
X415732Y570103D02*
X417732D01*
X416732Y569103D02*
Y571103D01*
X369110Y565498D02*
X371110D01*
X370110Y564498D02*
Y566498D01*
X373065Y559153D02*
X375065D01*
X374065Y558153D02*
Y560153D01*
X362024Y573480D02*
X364024D01*
X363024Y572480D02*
Y574480D01*
X351851Y554538D02*
X353851D01*
X352850Y553538D02*
Y555538D01*
X223650Y191014D02*
X225650D01*
X224650Y190014D02*
Y192014D01*
X212549Y185641D02*
X214550D01*
X213549Y184641D02*
Y186641D01*
X711868Y492760D02*
X713868D01*
X712868Y491760D02*
Y493760D01*
X718654Y492760D02*
X720654D01*
X719654Y491760D02*
Y493760D01*
X725440Y492760D02*
X727440D01*
X726440Y491760D02*
Y493760D01*
X705082Y492760D02*
X707082D01*
X706082Y491760D02*
Y493760D01*
X206010Y652780D02*
X208010D01*
X207010Y651780D02*
Y653780D01*
X165370Y613410D02*
X167370D01*
X166370Y612410D02*
Y614410D01*
X170461Y638113D02*
X172461D01*
X171461Y637113D02*
Y639113D01*
X170450Y627380D02*
X172450D01*
X171450Y626380D02*
Y628380D01*
X170211Y632869D02*
X172211D01*
X171211Y631869D02*
Y633869D01*
X165214Y592200D02*
X167214D01*
X166214Y591200D02*
Y593200D01*
X170450Y591820D02*
X172450D01*
X171450Y590820D02*
Y592820D01*
X835790Y256881D02*
X837790D01*
X836790Y255881D02*
Y257881D01*
X835790Y262131D02*
X837790D01*
X836790Y261131D02*
Y263131D01*
X212219Y54976D02*
X214219D01*
X213219Y53976D02*
Y55976D01*
X156730Y675640D02*
X158730D01*
X157730Y674640D02*
Y676640D01*
X156730Y688340D02*
X158730D01*
X157730Y687340D02*
Y689340D01*
X166640Y701040D02*
X168640D01*
X167640Y700040D02*
Y702040D01*
X212338Y60547D02*
X214338D01*
X213338Y59547D02*
Y61547D01*
X868546Y184362D02*
X870546D01*
X869546Y183362D02*
Y185362D01*
X868546Y194343D02*
X870546D01*
X869546Y193343D02*
Y195343D01*
X868546Y214306D02*
X870546D01*
X869546Y213306D02*
Y215306D01*
X868546Y204325D02*
X870546D01*
X869546Y203325D02*
Y205325D01*
X808639Y274941D02*
X810639D01*
X809639Y273941D02*
Y275941D01*
X809337Y280144D02*
X811337D01*
X810337Y279144D02*
Y281144D01*
X269065Y428601D02*
X271064D01*
X270065Y427601D02*
Y429601D01*
X877840Y290830D02*
X879840D01*
X878840Y289830D02*
Y291830D01*
X877840Y284480D02*
X879840D01*
X878840Y283480D02*
Y285480D01*
X809260Y288290D02*
X811260D01*
X810260Y287290D02*
Y289290D01*
X245380Y214630D02*
X247380D01*
X246380Y213630D02*
Y215630D01*
X785130Y579120D02*
X787130D01*
X786130Y578120D02*
Y580120D01*
X514797Y422802D02*
X516797D01*
X515797Y421802D02*
Y423802D01*
X446621Y344724D02*
X448621D01*
X447621Y343724D02*
Y345724D01*
X456040Y403732D02*
X458041D01*
X457040Y402732D02*
Y404732D01*
X456200Y396240D02*
X458200D01*
X457200Y395240D02*
Y397240D01*
X462940Y409701D02*
X464940D01*
X463940Y408701D02*
Y410701D01*
X587302Y417381D02*
X589302D01*
X588302Y416381D02*
Y418381D01*
X522901Y439172D02*
X524901D01*
X523901Y438172D02*
Y440172D01*
X521301Y449310D02*
X523301D01*
X522300Y448310D02*
Y450310D01*
X507300Y448443D02*
X509300D01*
X508301Y447443D02*
Y449443D01*
X501676Y448525D02*
X503676D01*
X502676Y447525D02*
Y449525D01*
X501920Y441960D02*
X503920D01*
X502920Y440960D02*
Y442960D01*
X488412Y442521D02*
X490412D01*
X489412Y441521D02*
Y443521D01*
X541402Y477408D02*
X543402D01*
X542402Y476408D02*
Y478408D01*
X515028Y442036D02*
X517028D01*
X516028Y441036D02*
Y443036D01*
X417300Y436310D02*
X419300D01*
X418301Y435310D02*
Y437310D01*
X475800Y390298D02*
X477800D01*
X476800Y389298D02*
Y391298D01*
X475800Y383798D02*
X477800D01*
X476800Y382798D02*
Y384798D01*
X475862Y377052D02*
X477862D01*
X476862Y376052D02*
Y378052D01*
X482300Y370798D02*
X484300D01*
X483301Y369798D02*
Y371798D01*
X447310Y478790D02*
X449310D01*
X448310Y477790D02*
Y479790D01*
X447576Y456479D02*
X449576D01*
X448576Y455479D02*
Y457479D01*
X479800Y437387D02*
X481800D01*
X480801Y436387D02*
Y438387D01*
X799100Y604520D02*
X801100D01*
X800100Y603520D02*
Y605520D01*
X791480Y604520D02*
X793480D01*
X792480Y603520D02*
Y605520D01*
X799100Y610870D02*
X801100D01*
X800100Y609870D02*
Y611870D01*
X791480Y610870D02*
X793480D01*
X792480Y609870D02*
Y611870D01*
X799100Y617220D02*
X801100D01*
X800100Y616220D02*
Y618220D01*
X799100Y623570D02*
X801100D01*
X800100Y622570D02*
Y624570D01*
X394479Y389074D02*
X396479D01*
X395479Y388074D02*
Y390074D01*
X451468Y435915D02*
X453468D01*
X452468Y434915D02*
Y436915D01*
X528027Y461798D02*
X530027D01*
X529027Y460798D02*
Y462798D01*
X462822Y383735D02*
X464822D01*
X463822Y382735D02*
Y384735D01*
X426503Y386941D02*
X428503D01*
X427503Y385942D02*
Y387942D01*
X504789Y455981D02*
X506789D01*
X505789Y454981D02*
Y456981D01*
X280940Y779780D02*
X282940D01*
X281940Y778780D02*
Y780780D01*
X269510Y779780D02*
X271510D01*
X270510Y778780D02*
Y780780D01*
X335550Y779230D02*
X337550D01*
X336550Y778230D02*
Y780230D01*
X291493Y779780D02*
X293493D01*
X292493Y778780D02*
Y780780D01*
X347169Y211254D02*
X349169D01*
X348168Y210254D02*
Y212254D01*
X359828Y211290D02*
X361828D01*
X360829Y210290D02*
Y212290D01*
X310508Y315737D02*
X312508D01*
X311508Y314737D02*
Y316737D01*
X296683Y314560D02*
X298683D01*
X297683Y313560D02*
Y315560D01*
X296685Y309560D02*
X298685D01*
X297685Y308560D02*
Y310560D01*
X296685Y304560D02*
X298685D01*
X297685Y303560D02*
Y305560D01*
X301685Y314560D02*
X303685D01*
X302685Y313560D02*
Y315560D01*
X301685Y309560D02*
X303685D01*
X302685Y308560D02*
Y310560D01*
X301685Y304560D02*
X303685D01*
X302685Y303560D02*
Y305560D01*
X654051Y240048D02*
X656050D01*
X655051Y239048D02*
Y241048D01*
X515312Y429298D02*
X517312D01*
X516312Y428298D02*
Y430298D01*
X469376Y409738D02*
X471376D01*
X470376Y408738D02*
Y410738D01*
X494880Y461809D02*
X496880D01*
X495880Y460809D02*
Y462809D01*
X495051Y455436D02*
X497051D01*
X496050Y454436D02*
Y456436D01*
X284990Y683512D02*
X286990D01*
X285990Y682512D02*
Y684512D01*
X528590Y326390D02*
X530590D01*
X529590Y325390D02*
Y327390D01*
X443419Y435728D02*
X445419D01*
X444419Y434728D02*
Y436727D01*
X515169Y435672D02*
X517169D01*
X516169Y434672D02*
Y436672D01*
X436800Y377810D02*
X438801D01*
X437800Y376810D02*
Y378810D01*
X434682Y400016D02*
X436682D01*
X435682Y399016D02*
Y401016D01*
X426622Y392750D02*
X428622D01*
X427622Y391750D02*
Y393750D01*
X423800Y377298D02*
X425800D01*
X424800Y376298D02*
Y378298D01*
X417218Y351352D02*
X419218D01*
X418218Y350352D02*
Y352352D01*
X404741Y364146D02*
X406741D01*
X405741Y363146D02*
Y365146D01*
X410827Y351464D02*
X412827D01*
X411827Y350463D02*
Y352463D01*
X417300Y376787D02*
X419300D01*
X418301Y375787D02*
Y377787D01*
X443500Y364490D02*
X445500D01*
X444500Y363490D02*
Y365490D01*
X436898Y344398D02*
X438898D01*
X437898Y343398D02*
Y345398D01*
X430800Y352547D02*
X432800D01*
X431800Y351547D02*
Y353547D01*
X443245Y350851D02*
X445245D01*
X444245Y349851D02*
Y351851D01*
X429789Y422798D02*
X431789D01*
X430789Y421798D02*
Y423798D01*
X450507Y396953D02*
X452507D01*
X451507Y395953D02*
Y397953D01*
X301685Y324560D02*
X303685D01*
X302685Y323560D02*
Y325560D01*
X311585Y324945D02*
X313585D01*
X312585Y323945D02*
Y325945D01*
X436800Y364298D02*
X438800D01*
X437800Y363298D02*
Y365298D01*
X507620Y442163D02*
X509620D01*
X508620Y441163D02*
Y443163D01*
X578050Y260048D02*
X580051D01*
X579050Y259048D02*
Y261048D01*
X654156Y260018D02*
X656156D01*
X655156Y259018D02*
Y261018D01*
X588050Y216048D02*
X590051D01*
X589050Y215048D02*
Y217048D01*
X502300Y386873D02*
X504300D01*
X503300Y385873D02*
Y387873D01*
X505051Y327798D02*
X507050D01*
X506050Y326798D02*
Y328798D01*
X578050Y276048D02*
X580051D01*
X579050Y275048D02*
Y277048D01*
X501977Y357498D02*
X503977D01*
X502977Y356498D02*
Y358498D01*
X488801Y370798D02*
X490801D01*
X489800Y369798D02*
Y371798D01*
X524551Y380802D02*
X526550D01*
X525550Y379802D02*
Y381802D01*
X482300Y383798D02*
X484300D01*
X483301Y382798D02*
Y384798D01*
X508301Y357798D02*
X510300D01*
X509300Y356798D02*
Y358798D01*
X495300Y364298D02*
X497300D01*
X496301Y363298D02*
Y365298D01*
X588050Y232048D02*
X590051D01*
X589050Y231048D02*
Y233048D01*
X636050Y240048D02*
X638050D01*
X637051Y239048D02*
Y241048D01*
X542952Y297991D02*
X544952D01*
X543952Y296991D02*
Y298991D01*
X640051Y158048D02*
X642050D01*
X641050Y157048D02*
Y159048D01*
X654051Y180048D02*
X656050D01*
X655051Y179048D02*
Y181048D01*
X644051Y192048D02*
X646050D01*
X645051Y191048D02*
Y193048D01*
X578050Y164048D02*
X580051D01*
X579050Y163048D02*
Y165048D01*
X654051Y220048D02*
X656050D01*
X655051Y219048D02*
Y221048D01*
X628050Y208048D02*
X630051D01*
X629050Y207048D02*
Y209048D01*
X654051Y196048D02*
X656050D01*
X655051Y195048D02*
Y197048D01*
X475572Y364070D02*
X477572D01*
X476572Y363070D02*
Y365070D01*
X527800Y338298D02*
X529800D01*
X528801Y337298D02*
Y339298D01*
X578050Y204048D02*
X580051D01*
X579050Y203048D02*
Y205048D01*
X578050Y180048D02*
X580051D01*
X579050Y179048D02*
Y181048D01*
X588050Y184048D02*
X590051D01*
X589050Y183048D02*
Y185048D01*
X588050Y176048D02*
X590051D01*
X589050Y175048D02*
Y177048D01*
X654333Y275596D02*
X656333D01*
X655333Y274596D02*
Y276596D01*
X436800Y435798D02*
X438800D01*
X437800Y434798D02*
Y436798D01*
X430300Y442298D02*
X432300D01*
X431301Y441298D02*
Y443298D01*
X407118Y380298D02*
X409118D01*
X408118Y379298D02*
Y381298D01*
X409282Y361978D02*
X411282D01*
X410282Y360979D02*
Y362979D01*
X443301Y429298D02*
X445300D01*
X444300Y428298D02*
Y430298D01*
X430300Y357798D02*
X432300D01*
X431301Y356798D02*
Y358798D01*
X423800Y357798D02*
X425800D01*
X424800Y356798D02*
Y358798D01*
X410407Y399993D02*
X412407D01*
X411407Y398993D02*
Y400993D01*
X404576Y338751D02*
X406576D01*
X405575Y337751D02*
Y339751D01*
X471190Y358024D02*
X473190D01*
X472190Y357024D02*
Y359024D01*
X571440Y731742D02*
X573440D01*
X572440Y730742D02*
Y732742D01*
X571440Y737492D02*
X573440D01*
X572440Y736492D02*
Y738492D01*
X571440Y743242D02*
X573440D01*
X572440Y742242D02*
Y744242D01*
X596050Y240048D02*
X598050D01*
X597050Y239048D02*
Y241048D01*
X644051Y248048D02*
X646050D01*
X645050Y247048D02*
Y249048D01*
X578050Y220048D02*
X580051D01*
X579050Y219048D02*
Y221048D01*
X533759Y341183D02*
X535759D01*
X534759Y340183D02*
Y342183D01*
X604050Y232048D02*
X606050D01*
X605050Y231048D02*
Y233048D01*
X588050Y248048D02*
X590050D01*
X589050Y247048D02*
Y249048D01*
X521050Y351548D02*
X523050D01*
X522051Y350548D02*
Y352548D01*
X644051Y232048D02*
X646050D01*
X645050Y231048D02*
Y233048D01*
X604050Y240048D02*
X606050D01*
X605050Y239048D02*
Y241048D01*
X483072Y364804D02*
X485072D01*
X484072Y363804D02*
Y365804D01*
X595800Y255798D02*
X597800D01*
X596800Y254798D02*
Y256798D01*
X520050Y386873D02*
X522050D01*
X521050Y385873D02*
Y387873D01*
X644050Y256048D02*
X646050D01*
X645050Y255048D02*
Y257048D01*
X488775Y351261D02*
X490775D01*
X489775Y350261D02*
Y352261D01*
X596050Y248048D02*
X598050D01*
X597051Y247048D02*
Y249048D01*
X514800Y370798D02*
X516800D01*
X515800Y369798D02*
Y371798D01*
X628051Y248048D02*
X630051D01*
X629051Y247048D02*
Y249048D01*
X482300Y396798D02*
X484300D01*
X483301Y395798D02*
Y397798D01*
X654051Y295798D02*
X656050D01*
X655051Y294798D02*
Y296798D01*
X527496Y351679D02*
X529496D01*
X528496Y350680D02*
Y352679D01*
X596050Y288048D02*
X598050D01*
X597050Y287048D02*
Y289048D01*
X636050Y256048D02*
X638050D01*
X637050Y255048D02*
Y257048D01*
X508074Y377484D02*
X510074D01*
X509074Y376484D02*
Y378484D01*
X651551Y280048D02*
X653550D01*
X652551Y279048D02*
Y281048D01*
X482300Y390298D02*
X484300D01*
X483301Y389298D02*
Y391298D01*
X521301Y364298D02*
X523301D01*
X522300Y363298D02*
Y365298D01*
X636050Y248048D02*
X638050D01*
X637051Y247048D02*
Y249048D01*
X596050Y280048D02*
X598050D01*
X597050Y279048D02*
Y281048D01*
X654051Y289798D02*
X656050D01*
X655051Y288798D02*
Y290798D01*
X527496Y344631D02*
X529496D01*
X528496Y343631D02*
Y345631D01*
X588311Y280048D02*
X590311D01*
X589311Y279048D02*
Y281048D01*
X644050Y272048D02*
X646050D01*
X645050Y271048D02*
Y273048D01*
X495403Y383764D02*
X497403D01*
X496403Y382764D02*
Y384764D01*
X588050Y272048D02*
X590051D01*
X589050Y271048D02*
Y273048D01*
X495300Y377298D02*
X497300D01*
X496301Y376298D02*
Y378298D01*
X644050Y264048D02*
X646050D01*
X645050Y263048D02*
Y265048D01*
X588050Y264048D02*
X590050D01*
X589050Y263048D02*
Y265048D01*
X596050Y272048D02*
X598050D01*
X597050Y271048D02*
Y273048D01*
X636050Y264048D02*
X638050D01*
X637050Y263048D02*
Y265048D01*
X501573Y377234D02*
X503573D01*
X502574Y376234D02*
Y378234D01*
X596050Y264048D02*
X598050D01*
X597050Y263048D02*
Y265048D01*
X701310Y715659D02*
X703310D01*
X702310Y714659D02*
Y716659D01*
X730583Y658307D02*
X732583D01*
X731583Y657307D02*
Y659307D01*
X754532Y658270D02*
X756532D01*
X755532Y657271D02*
Y659270D01*
X730415Y682810D02*
X732415D01*
X731415Y681809D02*
Y683810D01*
X754708Y682997D02*
X756708D01*
X755708Y681997D02*
Y683997D01*
X758558Y735455D02*
X760558D01*
X759558Y734455D02*
Y736455D01*
X764128Y741680D02*
X766128D01*
X765128Y740680D02*
Y742680D01*
X859060Y696340D02*
X861060D01*
X860060Y695340D02*
Y697340D01*
X859060Y676035D02*
X861060D01*
X860060Y675035D02*
Y677035D01*
X859060Y686187D02*
X861060D01*
X860060Y685187D02*
Y687187D01*
X859060Y665882D02*
X861060D01*
X860060Y664882D02*
Y666882D01*
X860060Y184362D02*
X862060D01*
X861060Y183362D02*
Y185362D01*
X752110Y694690D02*
X754110D01*
X753110Y693690D02*
Y695690D01*
X717003Y705348D02*
X719003D01*
X718003Y704348D02*
Y706348D01*
M02*
