G04*
G04 #@! TF.GenerationSoftware,Altium Limited,Altium Designer,24.1.2 (44)*
G04*
G04 Layer_Color=128*
%FSLAX44Y44*%
%MOMM*%
G71*
G04*
G04 #@! TF.SameCoordinates,27C4CC1B-1F39-4CC3-9493-EFA3B80F4B77*
G04*
G04*
G04 #@! TF.FilePolarity,Positive*
G04*
G01*
G75*
G04:AMPARAMS|DCode=18|XSize=0.375mm|YSize=0.4mm|CornerRadius=0.1188mm|HoleSize=0mm|Usage=FLASHONLY|Rotation=180.000|XOffset=0mm|YOffset=0mm|HoleType=Round|Shape=RoundedRectangle|*
%AMROUNDEDRECTD18*
21,1,0.3750,0.1625,0,0,180.0*
21,1,0.1375,0.4000,0,0,180.0*
1,1,0.2375,-0.0688,0.0813*
1,1,0.2375,0.0688,0.0813*
1,1,0.2375,0.0688,-0.0813*
1,1,0.2375,-0.0688,-0.0813*
%
%ADD18ROUNDEDRECTD18*%
G04:AMPARAMS|DCode=19|XSize=0.375mm|YSize=0.4mm|CornerRadius=0.1188mm|HoleSize=0mm|Usage=FLASHONLY|Rotation=270.000|XOffset=0mm|YOffset=0mm|HoleType=Round|Shape=RoundedRectangle|*
%AMROUNDEDRECTD19*
21,1,0.3750,0.1625,0,0,270.0*
21,1,0.1375,0.4000,0,0,270.0*
1,1,0.2375,-0.0813,-0.0688*
1,1,0.2375,-0.0813,0.0688*
1,1,0.2375,0.0813,0.0688*
1,1,0.2375,0.0813,-0.0688*
%
%ADD19ROUNDEDRECTD19*%
G04:AMPARAMS|DCode=20|XSize=0.65mm|YSize=0.7mm|CornerRadius=0.1875mm|HoleSize=0mm|Usage=FLASHONLY|Rotation=0.000|XOffset=0mm|YOffset=0mm|HoleType=Round|Shape=RoundedRectangle|*
%AMROUNDEDRECTD20*
21,1,0.6500,0.3250,0,0,0.0*
21,1,0.2750,0.7000,0,0,0.0*
1,1,0.3750,0.1375,-0.1625*
1,1,0.3750,-0.1375,-0.1625*
1,1,0.3750,-0.1375,0.1625*
1,1,0.3750,0.1375,0.1625*
%
%ADD20ROUNDEDRECTD20*%
G04:AMPARAMS|DCode=22|XSize=0.65mm|YSize=0.7mm|CornerRadius=0.1875mm|HoleSize=0mm|Usage=FLASHONLY|Rotation=270.000|XOffset=0mm|YOffset=0mm|HoleType=Round|Shape=RoundedRectangle|*
%AMROUNDEDRECTD22*
21,1,0.6500,0.3250,0,0,270.0*
21,1,0.2750,0.7000,0,0,270.0*
1,1,0.3750,-0.1625,-0.1375*
1,1,0.3750,-0.1625,0.1375*
1,1,0.3750,0.1625,0.1375*
1,1,0.3750,0.1625,-0.1375*
%
%ADD22ROUNDEDRECTD22*%
%ADD25R,1.9542X1.3954*%
%ADD37R,2.2000X3.1000*%
%ADD38R,0.9000X1.7000*%
%ADD43R,1.0500X2.2500*%
%ADD44R,3.3500X2.2500*%
%ADD47R,0.6000X1.1000*%
%ADD48R,0.4500X1.1000*%
%ADD133C,0.4064*%
%ADD137R,0.6604X1.0414*%
G04:AMPARAMS|DCode=144|XSize=0.35mm|YSize=0.8mm|CornerRadius=0.0875mm|HoleSize=0mm|Usage=FLASHONLY|Rotation=90.000|XOffset=0mm|YOffset=0mm|HoleType=Round|Shape=RoundedRectangle|*
%AMROUNDEDRECTD144*
21,1,0.3500,0.6250,0,0,90.0*
21,1,0.1750,0.8000,0,0,90.0*
1,1,0.1750,0.3125,0.0875*
1,1,0.1750,0.3125,-0.0875*
1,1,0.1750,-0.3125,-0.0875*
1,1,0.1750,-0.3125,0.0875*
%
%ADD144ROUNDEDRECTD144*%
G04:AMPARAMS|DCode=145|XSize=0.35mm|YSize=0.8mm|CornerRadius=0.0875mm|HoleSize=0mm|Usage=FLASHONLY|Rotation=0.000|XOffset=0mm|YOffset=0mm|HoleType=Round|Shape=RoundedRectangle|*
%AMROUNDEDRECTD145*
21,1,0.3500,0.6250,0,0,0.0*
21,1,0.1750,0.8000,0,0,0.0*
1,1,0.1750,0.0875,-0.3125*
1,1,0.1750,-0.0875,-0.3125*
1,1,0.1750,-0.0875,0.3125*
1,1,0.1750,0.0875,0.3125*
%
%ADD145ROUNDEDRECTD145*%
%ADD148R,0.8500X0.7500*%
%ADD154R,4.9000X2.9500*%
%ADD156R,0.8636X0.7112*%
%ADD170C,0.3500*%
%ADD177R,3.8000X3.8000*%
%ADD178R,0.9000X0.6000*%
%ADD202R,1.1000X0.7000*%
%ADD203R,1.9000X1.3500*%
%ADD204R,0.7000X1.1000*%
%ADD205R,1.3500X1.9000*%
%ADD206R,0.7604X1.1414*%
%ADD207R,1.3954X1.9542*%
G04:AMPARAMS|DCode=208|XSize=0.4mm|YSize=0.8mm|CornerRadius=0.125mm|HoleSize=0mm|Usage=FLASHONLY|Rotation=90.000|XOffset=0mm|YOffset=0mm|HoleType=Round|Shape=RoundedRectangle|*
%AMROUNDEDRECTD208*
21,1,0.4000,0.5500,0,0,90.0*
21,1,0.1500,0.8000,0,0,90.0*
1,1,0.2500,0.2750,0.0750*
1,1,0.2500,0.2750,-0.0750*
1,1,0.2500,-0.2750,-0.0750*
1,1,0.2500,-0.2750,0.0750*
%
%ADD208ROUNDEDRECTD208*%
G04:AMPARAMS|DCode=209|XSize=0.4mm|YSize=0.8mm|CornerRadius=0.125mm|HoleSize=0mm|Usage=FLASHONLY|Rotation=180.000|XOffset=0mm|YOffset=0mm|HoleType=Round|Shape=RoundedRectangle|*
%AMROUNDEDRECTD209*
21,1,0.4000,0.5500,0,0,180.0*
21,1,0.1500,0.8000,0,0,180.0*
1,1,0.2500,-0.0750,0.2750*
1,1,0.2500,0.0750,0.2750*
1,1,0.2500,0.0750,-0.2750*
1,1,0.2500,-0.0750,-0.2750*
%
%ADD209ROUNDEDRECTD209*%
%ADD210R,2.1000X2.1000*%
%ADD211R,1.0000X2.5000*%
G04:AMPARAMS|DCode=212|XSize=1mm|YSize=0.9mm|CornerRadius=0.25mm|HoleSize=0mm|Usage=FLASHONLY|Rotation=0.000|XOffset=0mm|YOffset=0mm|HoleType=Round|Shape=RoundedRectangle|*
%AMROUNDEDRECTD212*
21,1,1.0000,0.4000,0,0,0.0*
21,1,0.5000,0.9000,0,0,0.0*
1,1,0.5000,0.2500,-0.2000*
1,1,0.5000,-0.2500,-0.2000*
1,1,0.5000,-0.2500,0.2000*
1,1,0.5000,0.2500,0.2000*
%
%ADD212ROUNDEDRECTD212*%
%ADD213C,0.5900*%
%ADD214R,0.8000X1.7500*%
%ADD215R,3.6000X3.0500*%
G04:AMPARAMS|DCode=216|XSize=1.75mm|YSize=2.65mm|CornerRadius=0.2975mm|HoleSize=0mm|Usage=FLASHONLY|Rotation=90.000|XOffset=0mm|YOffset=0mm|HoleType=Round|Shape=RoundedRectangle|*
%AMROUNDEDRECTD216*
21,1,1.7500,2.0550,0,0,90.0*
21,1,1.1550,2.6500,0,0,90.0*
1,1,0.5950,1.0275,0.5775*
1,1,0.5950,1.0275,-0.5775*
1,1,0.5950,-1.0275,-0.5775*
1,1,0.5950,-1.0275,0.5775*
%
%ADD216ROUNDEDRECTD216*%
G04:AMPARAMS|DCode=217|XSize=1.05mm|YSize=0.85mm|CornerRadius=0.2375mm|HoleSize=0mm|Usage=FLASHONLY|Rotation=270.000|XOffset=0mm|YOffset=0mm|HoleType=Round|Shape=RoundedRectangle|*
%AMROUNDEDRECTD217*
21,1,1.0500,0.3750,0,0,270.0*
21,1,0.5750,0.8500,0,0,270.0*
1,1,0.4750,-0.1875,-0.2875*
1,1,0.4750,-0.1875,0.2875*
1,1,0.4750,0.1875,0.2875*
1,1,0.4750,0.1875,-0.2875*
%
%ADD217ROUNDEDRECTD217*%
G04:AMPARAMS|DCode=218|XSize=1.65mm|YSize=0.7mm|CornerRadius=0.08mm|HoleSize=0mm|Usage=FLASHONLY|Rotation=90.000|XOffset=0mm|YOffset=0mm|HoleType=Round|Shape=RoundedRectangle|*
%AMROUNDEDRECTD218*
21,1,1.6500,0.5400,0,0,90.0*
21,1,1.4900,0.7000,0,0,90.0*
1,1,0.1600,0.2700,0.7450*
1,1,0.1600,0.2700,-0.7450*
1,1,0.1600,-0.2700,-0.7450*
1,1,0.1600,-0.2700,0.7450*
%
%ADD218ROUNDEDRECTD218*%
%ADD219R,1.1414X0.7604*%
%ADD220R,0.7500X0.3500*%
%ADD221R,0.4000X2.5000*%
%ADD222R,0.7500X0.4000*%
%ADD223R,0.3500X0.7500*%
%ADD224R,1.3000X1.3000*%
G04:AMPARAMS|DCode=225|XSize=0.36mm|YSize=0.93mm|CornerRadius=0.0591mm|HoleSize=0mm|Usage=FLASHONLY|Rotation=90.000|XOffset=0mm|YOffset=0mm|HoleType=Round|Shape=RoundedRectangle|*
%AMROUNDEDRECTD225*
21,1,0.3600,0.8118,0,0,90.0*
21,1,0.2418,0.9300,0,0,90.0*
1,1,0.1182,0.4059,0.1209*
1,1,0.1182,0.4059,-0.1209*
1,1,0.1182,-0.4059,-0.1209*
1,1,0.1182,-0.4059,0.1209*
%
%ADD225ROUNDEDRECTD225*%
G04:AMPARAMS|DCode=226|XSize=0.93mm|YSize=0.36mm|CornerRadius=0.0591mm|HoleSize=0mm|Usage=FLASHONLY|Rotation=90.000|XOffset=0mm|YOffset=0mm|HoleType=Round|Shape=RoundedRectangle|*
%AMROUNDEDRECTD226*
21,1,0.9300,0.2418,0,0,90.0*
21,1,0.8118,0.3600,0,0,90.0*
1,1,0.1182,0.1209,0.4059*
1,1,0.1182,0.1209,-0.4059*
1,1,0.1182,-0.1209,-0.4059*
1,1,0.1182,-0.1209,0.4059*
%
%ADD226ROUNDEDRECTD226*%
%ADD227R,1.3000X0.9000*%
%ADD228R,0.8000X1.5000*%
G36*
X463970Y732371D02*
X457961D01*
Y738370D01*
X463970D01*
Y732371D01*
D02*
G37*
G36*
X471670Y732371D02*
X465671D01*
Y738370D01*
X471670D01*
Y732371D01*
D02*
G37*
G36*
X463970Y724670D02*
X457970D01*
Y730670D01*
X463970D01*
Y724670D01*
D02*
G37*
G36*
X471670Y724665D02*
X465671D01*
Y730670D01*
X471670D01*
Y724665D01*
D02*
G37*
G36*
X835755Y581498D02*
X835806Y581493D01*
X835807Y581493D01*
X835808Y581492D01*
X835852Y581479D01*
X835900Y581464D01*
X835901Y581464D01*
X835902Y581464D01*
X835947Y581439D01*
X835987Y581418D01*
X835988Y581417D01*
X835989Y581417D01*
X836025Y581387D01*
X836063Y581355D01*
X836064Y581354D01*
X836065Y581354D01*
X840779Y576604D01*
X840808Y576567D01*
X840839Y576531D01*
X840839Y576529D01*
X840841Y576527D01*
X840863Y576485D01*
X840885Y576444D01*
X840886Y576442D01*
X840887Y576441D01*
X840901Y576394D01*
X840914Y576350D01*
X840914Y576348D01*
X840915Y576346D01*
X840920Y576298D01*
X840924Y576252D01*
X840924Y576250D01*
X840924Y576248D01*
X840919Y576200D01*
X840915Y576154D01*
X840915Y576152D01*
X840914Y576150D01*
X840900Y576103D01*
X840887Y576059D01*
X840886Y576058D01*
X840885Y576056D01*
X840862Y576013D01*
X840841Y575973D01*
X840839Y575971D01*
X840839Y575969D01*
X840808Y575933D01*
X840779Y575896D01*
X836065Y571146D01*
X836064Y571146D01*
X836063Y571145D01*
X836025Y571113D01*
X835989Y571083D01*
X835988Y571083D01*
X835987Y571082D01*
X835946Y571060D01*
X835902Y571037D01*
X835901Y571036D01*
X835900Y571036D01*
X835854Y571022D01*
X835808Y571008D01*
X835807Y571007D01*
X835806Y571007D01*
X835758Y571003D01*
X835710Y570998D01*
X835709Y570998D01*
X835708Y570998D01*
X829068D01*
D01*
X829068D01*
X828970Y571007D01*
X828559Y571089D01*
X828465Y571118D01*
X828465Y571118D01*
X828078Y571278D01*
X827991Y571324D01*
X827991Y571324D01*
X827643Y571557D01*
X827643Y571557D01*
X827601Y571591D01*
X827567Y571619D01*
X827567Y571619D01*
X827271Y571915D01*
X827209Y571991D01*
X826976Y572339D01*
X826976Y572339D01*
X826930Y572426D01*
X826769Y572813D01*
X826758Y572850D01*
X826741Y572907D01*
X826659Y573318D01*
X826649Y573416D01*
Y573416D01*
D01*
Y573625D01*
Y578875D01*
Y579084D01*
D01*
Y579084D01*
X826659Y579182D01*
X826741Y579593D01*
X826769Y579687D01*
X826769Y579687D01*
X826930Y580074D01*
X826976Y580161D01*
X826976Y580161D01*
X827208Y580509D01*
X827209Y580509D01*
X827243Y580551D01*
X827271Y580585D01*
X827271Y580585D01*
X827567Y580881D01*
X827643Y580943D01*
X827991Y581176D01*
X827991Y581176D01*
X828078Y581222D01*
X828465Y581382D01*
X828502Y581394D01*
X828559Y581411D01*
X828970Y581493D01*
X829068Y581502D01*
X829068D01*
D01*
X835708D01*
X835709Y581502D01*
X835710Y581502D01*
X835755Y581498D01*
D02*
G37*
G36*
Y562448D02*
X835806Y562443D01*
X835807Y562443D01*
X835808Y562442D01*
X835852Y562429D01*
X835900Y562414D01*
X835901Y562414D01*
X835902Y562413D01*
X835947Y562389D01*
X835987Y562368D01*
X835988Y562367D01*
X835989Y562367D01*
X836025Y562337D01*
X836063Y562305D01*
X836064Y562304D01*
X836065Y562304D01*
X840779Y557554D01*
X840808Y557517D01*
X840839Y557481D01*
X840839Y557479D01*
X840841Y557477D01*
X840863Y557435D01*
X840885Y557394D01*
X840886Y557392D01*
X840887Y557391D01*
X840901Y557344D01*
X840914Y557300D01*
X840914Y557298D01*
X840915Y557296D01*
X840920Y557248D01*
X840924Y557202D01*
X840924Y557200D01*
X840924Y557198D01*
X840919Y557150D01*
X840915Y557104D01*
X840915Y557102D01*
X840914Y557100D01*
X840900Y557053D01*
X840887Y557010D01*
X840886Y557008D01*
X840885Y557006D01*
X840862Y556964D01*
X840841Y556922D01*
X840839Y556921D01*
X840839Y556919D01*
X840808Y556883D01*
X840779Y556846D01*
X836065Y552096D01*
X836064Y552096D01*
X836063Y552095D01*
X836025Y552063D01*
X835989Y552033D01*
X835988Y552033D01*
X835987Y552032D01*
X835946Y552010D01*
X835902Y551987D01*
X835901Y551986D01*
X835900Y551986D01*
X835854Y551972D01*
X835808Y551958D01*
X835807Y551958D01*
X835806Y551957D01*
X835758Y551953D01*
X835710Y551948D01*
X835709Y551948D01*
X835708Y551948D01*
X829068D01*
D01*
X829068D01*
X828970Y551957D01*
X828559Y552039D01*
X828465Y552068D01*
X828465Y552068D01*
X828078Y552228D01*
X827991Y552274D01*
X827991Y552274D01*
X827643Y552507D01*
X827643Y552507D01*
X827601Y552541D01*
X827567Y552569D01*
X827567Y552569D01*
X827271Y552865D01*
X827209Y552941D01*
X826976Y553289D01*
X826976Y553289D01*
X826930Y553376D01*
X826769Y553763D01*
X826758Y553800D01*
X826741Y553857D01*
X826659Y554268D01*
X826649Y554366D01*
Y554366D01*
D01*
Y554575D01*
Y559825D01*
Y560034D01*
D01*
Y560034D01*
X826659Y560132D01*
X826741Y560543D01*
X826769Y560637D01*
X826769Y560637D01*
X826930Y561024D01*
X826976Y561111D01*
X826976Y561111D01*
X827208Y561459D01*
X827209Y561459D01*
X827243Y561501D01*
X827271Y561535D01*
X827271Y561535D01*
X827567Y561831D01*
X827643Y561893D01*
X827991Y562126D01*
X827991Y562126D01*
X828078Y562172D01*
X828465Y562332D01*
X828502Y562344D01*
X828559Y562361D01*
X828970Y562443D01*
X829068Y562452D01*
X829068D01*
D01*
X835708D01*
X835709Y562452D01*
X835710Y562452D01*
X835755Y562448D01*
D02*
G37*
G36*
X773794Y278950D02*
X742794D01*
Y304950D01*
X773794D01*
Y278950D01*
D02*
G37*
D18*
X426510Y560616D02*
D03*
X421260D02*
D03*
X578620Y598803D02*
D03*
X583870D02*
D03*
X527399Y332851D02*
D03*
X532649D02*
D03*
X507892Y331537D02*
D03*
X513142D02*
D03*
X507892Y325242D02*
D03*
X513142D02*
D03*
X507892Y318947D02*
D03*
X513142D02*
D03*
X507892Y312652D02*
D03*
X513142D02*
D03*
X647721Y599487D02*
D03*
X652971D02*
D03*
X432885Y560616D02*
D03*
X438135D02*
D03*
X462530Y560616D02*
D03*
X457280D02*
D03*
X528405Y480060D02*
D03*
X523155D02*
D03*
X528405Y486410D02*
D03*
X523155D02*
D03*
X558885Y476250D02*
D03*
X553635D02*
D03*
X558885Y457200D02*
D03*
X553635D02*
D03*
X528405Y438150D02*
D03*
X523155D02*
D03*
X528405Y450850D02*
D03*
X523155D02*
D03*
X312335Y435610D02*
D03*
X317585D02*
D03*
X312335Y467360D02*
D03*
X317585D02*
D03*
X312335Y480060D02*
D03*
X317585D02*
D03*
Y486410D02*
D03*
X312335D02*
D03*
Y528320D02*
D03*
X317585D02*
D03*
X488865Y760730D02*
D03*
X494115D02*
D03*
X488865Y767080D02*
D03*
X494115D02*
D03*
X312335Y461010D02*
D03*
X317585D02*
D03*
Y521970D02*
D03*
X312335D02*
D03*
Y502920D02*
D03*
X317585D02*
D03*
X312335Y509270D02*
D03*
X317585D02*
D03*
X312335Y448310D02*
D03*
X317585D02*
D03*
X312335Y441960D02*
D03*
X317585D02*
D03*
X312335Y515620D02*
D03*
X317585D02*
D03*
X312335Y454660D02*
D03*
X317585D02*
D03*
X558885Y463550D02*
D03*
X553635D02*
D03*
X558885Y469900D02*
D03*
X553635D02*
D03*
X317585Y496570D02*
D03*
X312335D02*
D03*
D19*
X588295Y661781D02*
D03*
Y667031D02*
D03*
X594562Y661748D02*
D03*
Y666998D02*
D03*
X595630Y758360D02*
D03*
Y753110D02*
D03*
X601596Y758417D02*
D03*
Y753167D02*
D03*
X625556Y758275D02*
D03*
Y753025D02*
D03*
X631405D02*
D03*
Y758275D02*
D03*
X391160Y538480D02*
D03*
Y543730D02*
D03*
X385046Y543645D02*
D03*
Y538395D02*
D03*
X378930D02*
D03*
Y543645D02*
D03*
X367030Y538395D02*
D03*
Y543645D02*
D03*
X372930Y538395D02*
D03*
Y543645D02*
D03*
X360927Y538376D02*
D03*
Y543626D02*
D03*
X354737Y538430D02*
D03*
Y543680D02*
D03*
X347980Y538395D02*
D03*
Y543645D02*
D03*
X397510D02*
D03*
Y538395D02*
D03*
X403860Y543645D02*
D03*
Y538395D02*
D03*
X410210Y543645D02*
D03*
Y538395D02*
D03*
X397510Y555075D02*
D03*
Y549825D02*
D03*
X410210Y555075D02*
D03*
Y549825D02*
D03*
X476760Y543645D02*
D03*
Y538395D02*
D03*
X483870Y543645D02*
D03*
Y538395D02*
D03*
X411480Y326475D02*
D03*
Y321225D02*
D03*
X417830Y326475D02*
D03*
Y321225D02*
D03*
X424180D02*
D03*
Y326475D02*
D03*
X430530Y321225D02*
D03*
Y326475D02*
D03*
X405130D02*
D03*
Y321225D02*
D03*
X392430Y326475D02*
D03*
Y321225D02*
D03*
X398780D02*
D03*
Y326475D02*
D03*
X386080Y321225D02*
D03*
Y326475D02*
D03*
X379730D02*
D03*
Y321225D02*
D03*
X373380Y326475D02*
D03*
Y321225D02*
D03*
X367030Y326475D02*
D03*
Y321225D02*
D03*
X354330Y326475D02*
D03*
Y321225D02*
D03*
X360680Y326475D02*
D03*
Y321225D02*
D03*
X347980Y326475D02*
D03*
Y321225D02*
D03*
X330200D02*
D03*
Y326475D02*
D03*
X336550D02*
D03*
Y321225D02*
D03*
X473202Y767165D02*
D03*
Y761915D02*
D03*
X466852Y767165D02*
D03*
Y761915D02*
D03*
D20*
X399360Y793750D02*
D03*
X408360D02*
D03*
X428570Y603250D02*
D03*
X437570D02*
D03*
X428570Y613410D02*
D03*
X437570D02*
D03*
X428570Y623570D02*
D03*
X437570D02*
D03*
X501070Y603250D02*
D03*
X492070D02*
D03*
X501070Y613410D02*
D03*
X492070D02*
D03*
X500683Y623627D02*
D03*
X491683D02*
D03*
X500683Y633787D02*
D03*
X491683D02*
D03*
X654740Y591820D02*
D03*
X645740D02*
D03*
X670135Y802640D02*
D03*
X661135D02*
D03*
X639990D02*
D03*
X630990D02*
D03*
X595161D02*
D03*
X586161D02*
D03*
X564673D02*
D03*
X555673D02*
D03*
X591387Y566676D02*
D03*
X582387D02*
D03*
X610437D02*
D03*
X601437D02*
D03*
X629485Y566676D02*
D03*
X620485D02*
D03*
X629392Y554230D02*
D03*
X620392D02*
D03*
X429260Y529835D02*
D03*
X438260D02*
D03*
X458530D02*
D03*
X449530D02*
D03*
X261040Y500380D02*
D03*
X252040D02*
D03*
X261040Y511125D02*
D03*
X252040D02*
D03*
X198810Y281255D02*
D03*
X189810D02*
D03*
X198810Y270510D02*
D03*
X189810D02*
D03*
X139010Y287020D02*
D03*
X148010D02*
D03*
X139010Y276860D02*
D03*
X148010D02*
D03*
X139010Y265652D02*
D03*
X148010D02*
D03*
X139010Y254000D02*
D03*
X148010D02*
D03*
X139010Y187960D02*
D03*
X148010D02*
D03*
X139010Y176530D02*
D03*
X148010D02*
D03*
X139010Y165100D02*
D03*
X148010D02*
D03*
X182300Y151130D02*
D03*
X173300D02*
D03*
X182300Y161290D02*
D03*
X173300D02*
D03*
X313110Y101600D02*
D03*
X304110D02*
D03*
X334590D02*
D03*
X343590D02*
D03*
X456620Y82550D02*
D03*
X447620D02*
D03*
X482020D02*
D03*
X473020D02*
D03*
X758733Y246815D02*
D03*
X749733D02*
D03*
X731953D02*
D03*
X740953D02*
D03*
X857830Y375920D02*
D03*
X866830D02*
D03*
X725545Y735774D02*
D03*
X734545D02*
D03*
X790538Y725535D02*
D03*
X781538D02*
D03*
X501073Y726085D02*
D03*
X492073D02*
D03*
X426820Y736245D02*
D03*
X435820D02*
D03*
X426820Y726085D02*
D03*
X435820D02*
D03*
X399360Y748030D02*
D03*
X408360D02*
D03*
X278710Y756920D02*
D03*
X287710D02*
D03*
X148010Y558800D02*
D03*
X139010D02*
D03*
Y581660D02*
D03*
X148010D02*
D03*
X139010Y593090D02*
D03*
X148010D02*
D03*
Y610870D02*
D03*
X139010D02*
D03*
X148010Y621313D02*
D03*
X139010D02*
D03*
X148010Y635000D02*
D03*
X139010D02*
D03*
X148010Y645160D02*
D03*
X139010D02*
D03*
X148010Y661670D02*
D03*
X139010D02*
D03*
X148010Y671830D02*
D03*
X139010D02*
D03*
X790538Y695055D02*
D03*
X781538D02*
D03*
X725545Y725614D02*
D03*
X734545D02*
D03*
X725548Y705294D02*
D03*
X734548D02*
D03*
X725542Y715454D02*
D03*
X734541D02*
D03*
X725658Y695055D02*
D03*
X734658D02*
D03*
X795600Y758190D02*
D03*
X804600D02*
D03*
X790541Y705215D02*
D03*
X781541D02*
D03*
X795600Y768350D02*
D03*
X804600D02*
D03*
X795600Y748030D02*
D03*
X804600D02*
D03*
D22*
X426720Y798140D02*
D03*
Y807140D02*
D03*
X438785D02*
D03*
Y798140D02*
D03*
X450850Y807140D02*
D03*
Y798140D02*
D03*
X500588Y326888D02*
D03*
Y317888D02*
D03*
X612287Y660220D02*
D03*
Y669220D02*
D03*
X602381Y660220D02*
D03*
Y669220D02*
D03*
X628106Y660220D02*
D03*
Y669220D02*
D03*
X610870Y760150D02*
D03*
Y751150D02*
D03*
X657753Y716608D02*
D03*
Y725608D02*
D03*
X657753Y703256D02*
D03*
Y694256D02*
D03*
X641350Y556150D02*
D03*
Y565150D02*
D03*
X651510Y556050D02*
D03*
Y565050D02*
D03*
X237490Y452702D02*
D03*
Y461702D02*
D03*
X250190Y461700D02*
D03*
Y452700D02*
D03*
X262890Y452698D02*
D03*
Y461698D02*
D03*
X175260Y222832D02*
D03*
Y231832D02*
D03*
X187960Y231830D02*
D03*
Y222830D02*
D03*
X200660Y222828D02*
D03*
Y231828D02*
D03*
X568960Y100910D02*
D03*
Y109910D02*
D03*
X583926Y100910D02*
D03*
Y109910D02*
D03*
X598891Y100910D02*
D03*
Y109910D02*
D03*
X613856Y100910D02*
D03*
Y109910D02*
D03*
X447040Y695270D02*
D03*
Y704270D02*
D03*
X457200Y695270D02*
D03*
Y704270D02*
D03*
X347622Y778108D02*
D03*
Y787108D02*
D03*
X336554Y777820D02*
D03*
Y786820D02*
D03*
X325487Y777820D02*
D03*
Y786820D02*
D03*
X314419Y777681D02*
D03*
Y786681D02*
D03*
X303351Y786820D02*
D03*
Y777820D02*
D03*
X292283Y777748D02*
D03*
Y786748D02*
D03*
X281215Y777692D02*
D03*
Y786692D02*
D03*
X270148Y777820D02*
D03*
Y786820D02*
D03*
X259080D02*
D03*
Y777820D02*
D03*
X569615Y703256D02*
D03*
Y694256D02*
D03*
X569615Y716608D02*
D03*
Y725608D02*
D03*
D25*
X899730Y605318D02*
D03*
Y711418D02*
D03*
D37*
X489512Y857248D02*
D03*
X401012D02*
D03*
D38*
X426512Y828248D02*
D03*
X464012D02*
D03*
X451512D02*
D03*
X439012D02*
D03*
D43*
X735330Y618490D02*
D03*
X758330D02*
D03*
X781330D02*
D03*
D44*
X758330Y560490D02*
D03*
D47*
X550407Y587236D02*
D03*
X562407D02*
D03*
X550407Y617236D02*
D03*
X562407D02*
D03*
X665977Y587236D02*
D03*
X677977D02*
D03*
X665977Y617236D02*
D03*
X677977D02*
D03*
D48*
X556407Y587236D02*
D03*
Y617236D02*
D03*
X671977Y587236D02*
D03*
Y617236D02*
D03*
D133*
X606780Y316620D02*
D03*
X542780D02*
D03*
X606780Y308620D02*
D03*
X542780D02*
D03*
X606780Y300620D02*
D03*
X542780D02*
D03*
X606780Y292620D02*
D03*
X542780D02*
D03*
X606780Y284620D02*
D03*
X542780D02*
D03*
X606780Y276620D02*
D03*
X542780D02*
D03*
X598780Y268620D02*
D03*
X550780D02*
D03*
X606780Y260620D02*
D03*
X598780D02*
D03*
X550780D02*
D03*
X542780D02*
D03*
X606780Y252620D02*
D03*
X550780D02*
D03*
X606780Y244620D02*
D03*
X598780D02*
D03*
X590780D02*
D03*
X542780D02*
D03*
X606780Y236620D02*
D03*
X542780D02*
D03*
X606780Y228620D02*
D03*
X598780D02*
D03*
X550780D02*
D03*
X542780D02*
D03*
X606780Y220620D02*
D03*
X598780D02*
D03*
X550780D02*
D03*
X542780D02*
D03*
X606780Y212620D02*
D03*
X542780D02*
D03*
X606780Y204620D02*
D03*
X558780D02*
D03*
X550780D02*
D03*
X542780D02*
D03*
X606780Y196620D02*
D03*
X598780D02*
D03*
X542780D02*
D03*
X558780Y292620D02*
D03*
X590780Y300620D02*
D03*
X558780D02*
D03*
X550780Y292620D02*
D03*
X598780Y300620D02*
D03*
X550780D02*
D03*
X598780Y308620D02*
D03*
X550780D02*
D03*
X598780Y316620D02*
D03*
X558780Y308620D02*
D03*
X590780Y276620D02*
D03*
Y308620D02*
D03*
Y292620D02*
D03*
X558780Y316620D02*
D03*
X590780D02*
D03*
Y284620D02*
D03*
X550780D02*
D03*
X598780Y292620D02*
D03*
X558780Y284620D02*
D03*
Y268620D02*
D03*
X590780D02*
D03*
Y260620D02*
D03*
X606780Y268620D02*
D03*
X550780Y276620D02*
D03*
X558780Y228620D02*
D03*
X590780Y236620D02*
D03*
X550780D02*
D03*
X598780D02*
D03*
X558780Y252620D02*
D03*
X598780D02*
D03*
X550780Y244620D02*
D03*
X590780Y252620D02*
D03*
Y220620D02*
D03*
X558780Y212620D02*
D03*
X598780D02*
D03*
X550780D02*
D03*
X590780Y196620D02*
D03*
X550780D02*
D03*
X598780Y204620D02*
D03*
X558780Y196620D02*
D03*
X590780Y228620D02*
D03*
X558780Y220620D02*
D03*
Y244620D02*
D03*
Y236620D02*
D03*
X590780Y204620D02*
D03*
Y212620D02*
D03*
X542780Y268620D02*
D03*
X558780Y260620D02*
D03*
X550780Y316620D02*
D03*
X542780Y252620D02*
D03*
X598780Y284620D02*
D03*
X558780Y276620D02*
D03*
X598780D02*
D03*
D137*
X316150Y82166D02*
D03*
X331150D02*
D03*
X301150D02*
D03*
X286150D02*
D03*
X361150D02*
D03*
X346150D02*
D03*
X628850D02*
D03*
X643850D02*
D03*
X598850D02*
D03*
X613850D02*
D03*
X568850D02*
D03*
X583850D02*
D03*
D144*
X634267Y598666D02*
D03*
X594267Y592166D02*
D03*
X634267D02*
D03*
X594267Y598666D02*
D03*
X634267Y605166D02*
D03*
Y611666D02*
D03*
X594267Y605166D02*
D03*
Y611666D02*
D03*
D145*
X611017Y581916D02*
D03*
X617517D02*
D03*
X604517D02*
D03*
X624017D02*
D03*
Y621916D02*
D03*
X617517D02*
D03*
X604517D02*
D03*
X611017D02*
D03*
D148*
X466476Y550817D02*
D03*
X452976Y540317D02*
D03*
X466476D02*
D03*
X452976Y550817D02*
D03*
D154*
X758294Y291950D02*
D03*
D156*
X843788Y355979D02*
D03*
X880872D02*
D03*
X739556Y758190D02*
D03*
X776640D02*
D03*
X340614Y756920D02*
D03*
X303530D02*
D03*
D170*
X457280Y445620D02*
D03*
X470280D02*
D03*
X359780Y367620D02*
D03*
X372780D02*
D03*
X379280D02*
D03*
X385780D02*
D03*
X392280D02*
D03*
X398780D02*
D03*
X405280D02*
D03*
X424780D02*
D03*
X437780D02*
D03*
X444280D02*
D03*
X463780D02*
D03*
X489780D02*
D03*
X359780Y374120D02*
D03*
X366280D02*
D03*
X372780D02*
D03*
X379280D02*
D03*
X398780D02*
D03*
X411780D02*
D03*
X483280D02*
D03*
X359780Y380620D02*
D03*
X366280D02*
D03*
X379280D02*
D03*
X385780D02*
D03*
X398780D02*
D03*
X405280D02*
D03*
X424780D02*
D03*
X444280D02*
D03*
X463780D02*
D03*
X359780Y387120D02*
D03*
X366280D02*
D03*
X372780D02*
D03*
X398780D02*
D03*
X411780D02*
D03*
X437780D02*
D03*
X359780Y393620D02*
D03*
X372780D02*
D03*
X385780D02*
D03*
X392280D02*
D03*
X398780D02*
D03*
X450780D02*
D03*
X457280D02*
D03*
X463780D02*
D03*
X476780D02*
D03*
X489780D02*
D03*
X359780Y400120D02*
D03*
X366280D02*
D03*
X385780D02*
D03*
X392280D02*
D03*
X398780D02*
D03*
X411780D02*
D03*
X437780D02*
D03*
X450780D02*
D03*
X457280D02*
D03*
X463780D02*
D03*
X359780Y406620D02*
D03*
X366280D02*
D03*
X385780D02*
D03*
X398780D02*
D03*
X424780D02*
D03*
X431280D02*
D03*
X450780D02*
D03*
X463780D02*
D03*
X359780Y413120D02*
D03*
X372780D02*
D03*
X405280D02*
D03*
X411780D02*
D03*
X424780D02*
D03*
X444280D02*
D03*
X476780D02*
D03*
X489780D02*
D03*
X359780Y419620D02*
D03*
X366280D02*
D03*
X379280D02*
D03*
X392280D02*
D03*
X398780D02*
D03*
X411780D02*
D03*
X418280D02*
D03*
X424780D02*
D03*
X437780D02*
D03*
X457280D02*
D03*
X470280D02*
D03*
X398780Y426120D02*
D03*
X405280D02*
D03*
X418280D02*
D03*
X431280D02*
D03*
X359780Y432620D02*
D03*
X372780D02*
D03*
X398780D02*
D03*
X405280D02*
D03*
X424780D02*
D03*
X450780D02*
D03*
X476780D02*
D03*
X489780D02*
D03*
X418280Y439120D02*
D03*
X431280D02*
D03*
X437780D02*
D03*
X444280D02*
D03*
X359780Y445620D02*
D03*
X366280D02*
D03*
X379280D02*
D03*
X392280D02*
D03*
X398780D02*
D03*
X405280D02*
D03*
X411780D02*
D03*
X437780D02*
D03*
X444280D02*
D03*
X483280D02*
D03*
X489780D02*
D03*
X359780Y452120D02*
D03*
X372780D02*
D03*
X379280D02*
D03*
X385780D02*
D03*
X398780D02*
D03*
X405280D02*
D03*
X418280D02*
D03*
X437780D02*
D03*
X444280D02*
D03*
X450780D02*
D03*
X457280D02*
D03*
X470280D02*
D03*
X476780D02*
D03*
X489780D02*
D03*
X366280Y458620D02*
D03*
X372780D02*
D03*
X379280D02*
D03*
X385780D02*
D03*
X398780D02*
D03*
X418280D02*
D03*
X424780D02*
D03*
X437780D02*
D03*
X450780D02*
D03*
X463780D02*
D03*
X470280D02*
D03*
X476780D02*
D03*
X372780Y465120D02*
D03*
X385780D02*
D03*
X392280D02*
D03*
X398780D02*
D03*
X411780D02*
D03*
X437780D02*
D03*
X444280D02*
D03*
X450780D02*
D03*
X457280D02*
D03*
X476780D02*
D03*
X359780Y471620D02*
D03*
X372780D02*
D03*
X385780D02*
D03*
X392280D02*
D03*
X398780D02*
D03*
X450780D02*
D03*
X457280D02*
D03*
X463780D02*
D03*
X476780D02*
D03*
X489780D02*
D03*
X359780Y478120D02*
D03*
X366280D02*
D03*
X372780D02*
D03*
X411780D02*
D03*
X437780D02*
D03*
X444280D02*
D03*
X457280D02*
D03*
X463780D02*
D03*
X483280D02*
D03*
X359780Y484620D02*
D03*
X372780D02*
D03*
X379280D02*
D03*
X385780D02*
D03*
X444280D02*
D03*
X450780D02*
D03*
X457280D02*
D03*
X463780D02*
D03*
X470280D02*
D03*
X476780D02*
D03*
X366280Y491120D02*
D03*
X457280D02*
D03*
X483280D02*
D03*
X489780D02*
D03*
X359780Y497620D02*
D03*
X372780D02*
D03*
X379280D02*
D03*
X385780D02*
D03*
X405280D02*
D03*
X424780D02*
D03*
X470280D02*
D03*
X483280D02*
D03*
X489780D02*
D03*
X424780Y426120D02*
D03*
Y439120D02*
D03*
X457280Y380620D02*
D03*
Y413120D02*
D03*
X463780Y387120D02*
D03*
X457280D02*
D03*
Y406620D02*
D03*
X470280Y380620D02*
D03*
X450780Y413120D02*
D03*
X483280Y380620D02*
D03*
X444280Y432620D02*
D03*
X470280Y387120D02*
D03*
X476780Y400120D02*
D03*
X437780Y426120D02*
D03*
X463780Y413120D02*
D03*
X483280Y387120D02*
D03*
X437780Y432620D02*
D03*
X470280Y406620D02*
D03*
X444280Y387120D02*
D03*
X470280Y413120D02*
D03*
X444280Y406620D02*
D03*
Y400120D02*
D03*
X470280D02*
D03*
Y393620D02*
D03*
X476780Y387120D02*
D03*
X450780D02*
D03*
X483280Y419620D02*
D03*
X450780Y426120D02*
D03*
X476780Y406620D02*
D03*
X444280Y426120D02*
D03*
X483280Y400120D02*
D03*
X444280Y419620D02*
D03*
X489780Y400120D02*
D03*
X450780Y419620D02*
D03*
Y374120D02*
D03*
X470280Y367620D02*
D03*
X437780Y374120D02*
D03*
X476780D02*
D03*
X450780Y367620D02*
D03*
X476780D02*
D03*
X450780Y380620D02*
D03*
X476780D02*
D03*
X489780Y419620D02*
D03*
X470280Y374120D02*
D03*
X483280Y406620D02*
D03*
X489780D02*
D03*
X457280Y367620D02*
D03*
Y374120D02*
D03*
X489780Y380620D02*
D03*
X444280Y393620D02*
D03*
X489780Y387120D02*
D03*
Y374120D02*
D03*
X431280Y419620D02*
D03*
X450780Y439120D02*
D03*
X457280Y497620D02*
D03*
X379280Y387120D02*
D03*
X405280Y419620D02*
D03*
X379280Y413120D02*
D03*
X372780Y406620D02*
D03*
X385780Y413120D02*
D03*
X379280Y406620D02*
D03*
X372780Y400120D02*
D03*
X431280Y452120D02*
D03*
X372780Y491120D02*
D03*
X366280Y465120D02*
D03*
X483280Y367620D02*
D03*
X470280Y471620D02*
D03*
X476780Y478120D02*
D03*
X379280Y393620D02*
D03*
X385780Y387120D02*
D03*
X405280Y406620D02*
D03*
X379280Y400120D02*
D03*
X392280Y413120D02*
D03*
Y387120D02*
D03*
X405280Y400120D02*
D03*
X398780Y413120D02*
D03*
X411780Y406620D02*
D03*
X405280Y393620D02*
D03*
X418280Y406620D02*
D03*
Y413120D02*
D03*
X405280Y387120D02*
D03*
X437780Y406620D02*
D03*
X392280Y380620D02*
D03*
X372780D02*
D03*
X431280Y413120D02*
D03*
X366280Y367620D02*
D03*
X437780Y413120D02*
D03*
X359780Y491120D02*
D03*
X405280Y439120D02*
D03*
X411780Y432620D02*
D03*
X398780Y439120D02*
D03*
X359780Y465120D02*
D03*
Y458620D02*
D03*
X411780Y439120D02*
D03*
X366280Y484620D02*
D03*
X398780Y478120D02*
D03*
X405280Y484620D02*
D03*
Y478120D02*
D03*
X398780Y491120D02*
D03*
X411780Y497620D02*
D03*
X398780D02*
D03*
X424780Y484620D02*
D03*
X450780Y478120D02*
D03*
X444280Y458620D02*
D03*
X483280Y484620D02*
D03*
X489780D02*
D03*
X463780Y452120D02*
D03*
X489780Y478120D02*
D03*
X450780Y445620D02*
D03*
X470280Y478120D02*
D03*
Y465120D02*
D03*
X476780Y497620D02*
D03*
X463780Y465120D02*
D03*
X476780Y491120D02*
D03*
X457280Y458620D02*
D03*
X398780Y484620D02*
D03*
X392280Y478120D02*
D03*
Y491120D02*
D03*
X385780Y478120D02*
D03*
X392280Y497620D02*
D03*
Y484620D02*
D03*
X411780Y458620D02*
D03*
X379280Y491120D02*
D03*
X431280Y458620D02*
D03*
X366280Y497620D02*
D03*
X405280Y458620D02*
D03*
Y465120D02*
D03*
X392280Y458620D02*
D03*
X424780Y452120D02*
D03*
X379280Y478120D02*
D03*
X424780Y445620D02*
D03*
X379280Y471620D02*
D03*
X411780Y452120D02*
D03*
X392280D02*
D03*
X379280Y465120D02*
D03*
X418280Y445620D02*
D03*
X411780Y367620D02*
D03*
X392280Y374120D02*
D03*
X431280Y445620D02*
D03*
X463780Y497620D02*
D03*
X411780Y426120D02*
D03*
X392280Y406620D02*
D03*
X411780Y491120D02*
D03*
X405280Y471620D02*
D03*
X470280Y491120D02*
D03*
X489780Y465120D02*
D03*
X483280D02*
D03*
X444280Y471620D02*
D03*
Y497620D02*
D03*
X450780Y491120D02*
D03*
X437780Y497620D02*
D03*
X450780D02*
D03*
X437780Y491120D02*
D03*
X489780Y458620D02*
D03*
X483280D02*
D03*
D177*
X613558Y709930D02*
D03*
D178*
X475820Y627760D02*
D03*
X453820Y603760D02*
D03*
Y619760D02*
D03*
Y635760D02*
D03*
Y627760D02*
D03*
X475820Y611760D02*
D03*
Y603760D02*
D03*
Y619760D02*
D03*
X453820Y611760D02*
D03*
X475820Y635760D02*
D03*
D202*
X848090Y297006D02*
D03*
Y267006D02*
D03*
Y282006D02*
D03*
Y252006D02*
D03*
Y237006D02*
D03*
Y222006D02*
D03*
Y207006D02*
D03*
Y192006D02*
D03*
D203*
X899990Y165956D02*
D03*
Y323056D02*
D03*
D204*
X329457Y818136D02*
D03*
X284457D02*
D03*
X299457D02*
D03*
X314457D02*
D03*
D205*
X258407Y870036D02*
D03*
X355507D02*
D03*
D206*
X613058Y817804D02*
D03*
X673058D02*
D03*
X658058D02*
D03*
X598058D02*
D03*
X583058D02*
D03*
X643058D02*
D03*
X628058D02*
D03*
X568058D02*
D03*
X553058D02*
D03*
D207*
X696108Y869704D02*
D03*
X530008D02*
D03*
X384150Y30266D02*
D03*
X263150D02*
D03*
X666850D02*
D03*
X545850D02*
D03*
D208*
X588557Y712432D02*
D03*
Y707432D02*
D03*
X638557D02*
D03*
Y712432D02*
D03*
Y722432D02*
D03*
Y697432D02*
D03*
X588557D02*
D03*
Y722432D02*
D03*
X638557Y727432D02*
D03*
Y692432D02*
D03*
X588557D02*
D03*
Y727432D02*
D03*
X638557Y717432D02*
D03*
Y702432D02*
D03*
X588557D02*
D03*
Y717432D02*
D03*
D209*
X631057Y684932D02*
D03*
X606057Y734932D02*
D03*
X611057D02*
D03*
X616057Y684932D02*
D03*
X621057Y734932D02*
D03*
X616057D02*
D03*
X596057Y684932D02*
D03*
X606057D02*
D03*
X601057D02*
D03*
X631057Y734932D02*
D03*
X596057D02*
D03*
X626057Y684932D02*
D03*
X601057Y734932D02*
D03*
X621057Y684932D02*
D03*
X611057D02*
D03*
X626057Y734932D02*
D03*
D210*
X614267Y601916D02*
D03*
D211*
X676897Y661182D02*
D03*
X656897D02*
D03*
X551557Y661182D02*
D03*
X571557D02*
D03*
X551557Y758682D02*
D03*
X571557D02*
D03*
X676897Y758682D02*
D03*
X656897D02*
D03*
D212*
X552597Y700406D02*
D03*
Y684406D02*
D03*
X552597Y719966D02*
D03*
Y735966D02*
D03*
X675787Y700406D02*
D03*
Y684406D02*
D03*
X675787Y719966D02*
D03*
Y735966D02*
D03*
D213*
X224000Y262730D02*
D03*
Y252730D02*
D03*
Y182730D02*
D03*
Y172730D02*
D03*
X234000Y262730D02*
D03*
Y172730D02*
D03*
X254000Y252730D02*
D03*
Y242730D02*
D03*
Y232730D02*
D03*
Y222730D02*
D03*
Y212730D02*
D03*
Y202730D02*
D03*
Y192730D02*
D03*
Y182730D02*
D03*
X264000Y252730D02*
D03*
Y242730D02*
D03*
Y222730D02*
D03*
Y212730D02*
D03*
Y202730D02*
D03*
Y192730D02*
D03*
Y182730D02*
D03*
X274000Y252730D02*
D03*
Y242730D02*
D03*
Y232730D02*
D03*
Y222730D02*
D03*
Y212730D02*
D03*
Y202730D02*
D03*
Y192730D02*
D03*
Y182730D02*
D03*
X284000Y252730D02*
D03*
Y242730D02*
D03*
Y232730D02*
D03*
Y222730D02*
D03*
Y212730D02*
D03*
Y202730D02*
D03*
Y192730D02*
D03*
Y182730D02*
D03*
X294000Y252730D02*
D03*
Y242730D02*
D03*
Y232730D02*
D03*
Y222730D02*
D03*
Y212730D02*
D03*
Y202730D02*
D03*
Y192730D02*
D03*
Y182730D02*
D03*
X304000Y252730D02*
D03*
Y242730D02*
D03*
Y232730D02*
D03*
Y222730D02*
D03*
Y212730D02*
D03*
Y202730D02*
D03*
Y192730D02*
D03*
Y182730D02*
D03*
X314000Y232730D02*
D03*
Y212730D02*
D03*
Y202730D02*
D03*
X324000Y252730D02*
D03*
Y242730D02*
D03*
Y232730D02*
D03*
Y222730D02*
D03*
Y212730D02*
D03*
Y202730D02*
D03*
Y192730D02*
D03*
Y182730D02*
D03*
X334000Y252730D02*
D03*
Y242730D02*
D03*
Y232730D02*
D03*
Y212730D02*
D03*
Y202730D02*
D03*
Y192730D02*
D03*
Y182730D02*
D03*
X344000Y232730D02*
D03*
Y222730D02*
D03*
Y212730D02*
D03*
Y202730D02*
D03*
X354000Y252730D02*
D03*
Y242730D02*
D03*
Y232730D02*
D03*
Y202730D02*
D03*
Y192730D02*
D03*
Y182730D02*
D03*
X374000Y262730D02*
D03*
Y172730D02*
D03*
X384000Y262730D02*
D03*
Y252730D02*
D03*
Y182730D02*
D03*
Y172730D02*
D03*
X264000Y232730D02*
D03*
X354000Y212730D02*
D03*
Y222730D02*
D03*
X314000Y252730D02*
D03*
X344000D02*
D03*
X314000Y242730D02*
D03*
X344000D02*
D03*
Y192730D02*
D03*
X314000D02*
D03*
X344000Y182730D02*
D03*
X314000D02*
D03*
Y222730D02*
D03*
X334000D02*
D03*
X203680Y705640D02*
D03*
Y695640D02*
D03*
Y625640D02*
D03*
Y615640D02*
D03*
X213680Y705640D02*
D03*
Y615640D02*
D03*
X233680Y695640D02*
D03*
Y685640D02*
D03*
Y675640D02*
D03*
Y665640D02*
D03*
Y655640D02*
D03*
Y645640D02*
D03*
Y635640D02*
D03*
Y625640D02*
D03*
X243680Y695640D02*
D03*
Y685640D02*
D03*
Y665640D02*
D03*
Y655640D02*
D03*
Y645640D02*
D03*
Y635640D02*
D03*
Y625640D02*
D03*
X253680Y695640D02*
D03*
Y685640D02*
D03*
Y675640D02*
D03*
Y665640D02*
D03*
Y655640D02*
D03*
Y645640D02*
D03*
Y635640D02*
D03*
Y625640D02*
D03*
X263680Y695640D02*
D03*
Y685640D02*
D03*
Y675640D02*
D03*
Y665640D02*
D03*
Y655640D02*
D03*
Y645640D02*
D03*
Y635640D02*
D03*
Y625640D02*
D03*
X273680Y695640D02*
D03*
Y685640D02*
D03*
Y675640D02*
D03*
Y665640D02*
D03*
Y655640D02*
D03*
Y645640D02*
D03*
Y635640D02*
D03*
Y625640D02*
D03*
X283680Y695640D02*
D03*
Y685640D02*
D03*
Y675640D02*
D03*
Y665640D02*
D03*
Y655640D02*
D03*
Y645640D02*
D03*
Y635640D02*
D03*
Y625640D02*
D03*
X293680Y675640D02*
D03*
Y665640D02*
D03*
Y655640D02*
D03*
Y645640D02*
D03*
Y635640D02*
D03*
Y625640D02*
D03*
X303680Y695640D02*
D03*
Y685640D02*
D03*
Y675640D02*
D03*
Y665640D02*
D03*
Y655640D02*
D03*
Y645640D02*
D03*
Y635640D02*
D03*
Y625640D02*
D03*
X313680Y695640D02*
D03*
Y685640D02*
D03*
Y675640D02*
D03*
Y655640D02*
D03*
Y645640D02*
D03*
Y635640D02*
D03*
Y625640D02*
D03*
X323680Y675640D02*
D03*
Y665640D02*
D03*
Y655640D02*
D03*
Y645640D02*
D03*
Y635640D02*
D03*
Y625640D02*
D03*
X333680Y695640D02*
D03*
Y685640D02*
D03*
Y675640D02*
D03*
Y645640D02*
D03*
Y635640D02*
D03*
Y625640D02*
D03*
X353680Y705640D02*
D03*
Y615640D02*
D03*
X363680Y705640D02*
D03*
Y695640D02*
D03*
Y625640D02*
D03*
Y615640D02*
D03*
X243680Y675640D02*
D03*
X333680Y655640D02*
D03*
Y665640D02*
D03*
X293680Y695640D02*
D03*
X323680D02*
D03*
X293680Y685640D02*
D03*
X323680D02*
D03*
X313680Y665640D02*
D03*
D214*
X245730Y351370D02*
D03*
X283830Y423370D02*
D03*
X271130Y351370D02*
D03*
X245730Y423370D02*
D03*
X283830Y351370D02*
D03*
X258430Y423370D02*
D03*
X271130D02*
D03*
X258430Y351370D02*
D03*
D215*
X756530Y123365D02*
D03*
Y177865D02*
D03*
D216*
X736858Y219195D02*
D03*
X777858D02*
D03*
X736977Y669734D02*
D03*
X777977D02*
D03*
D217*
X769843Y246815D02*
D03*
X784343D02*
D03*
D218*
X764644Y318950D02*
D03*
X751944D02*
D03*
X739244D02*
D03*
X751944Y264950D02*
D03*
X764644D02*
D03*
X777344Y318950D02*
D03*
Y264950D02*
D03*
X739244D02*
D03*
D219*
X847830Y658368D02*
D03*
Y643368D02*
D03*
Y628368D02*
D03*
Y673368D02*
D03*
Y688368D02*
D03*
D220*
X767186Y717702D02*
D03*
X748686D02*
D03*
X748716Y713211D02*
D03*
X767186D02*
D03*
D221*
X760445Y715444D02*
D03*
X755445Y715454D02*
D03*
D222*
X748686Y722454D02*
D03*
X767186Y708454D02*
D03*
Y722454D02*
D03*
X748715Y708455D02*
D03*
D223*
X750686Y724204D02*
D03*
X765185Y706704D02*
D03*
X765185Y724204D02*
D03*
X750715Y706704D02*
D03*
D224*
X464820Y731520D02*
D03*
D225*
X479520Y724020D02*
D03*
X450120Y739020D02*
D03*
Y734020D02*
D03*
X479520Y729020D02*
D03*
X450120D02*
D03*
Y724020D02*
D03*
X479520Y734020D02*
D03*
Y739020D02*
D03*
D226*
X462320Y746220D02*
D03*
X457320D02*
D03*
Y716820D02*
D03*
X472320D02*
D03*
X462320D02*
D03*
X467320D02*
D03*
Y746220D02*
D03*
X472320D02*
D03*
D227*
X429260Y54610D02*
D03*
X499260D02*
D03*
D228*
X421760Y545797D02*
D03*
X436760D02*
D03*
M02*
