G04*
G04 #@! TF.GenerationSoftware,Altium Limited,Altium Designer,25.8.1 (18)*
G04*
G04 Layer_Physical_Order=6*
G04 Layer_Color=16711833*
%FSLAX44Y44*%
%MOMM*%
G71*
G04*
G04 #@! TF.SameCoordinates,EEECB36F-272B-4E0E-BA20-7EB395198431*
G04*
G04*
G04 #@! TF.FilePolarity,Positive*
G04*
G01*
G75*
%ADD11C,0.2000*%
%ADD12C,0.3000*%
%ADD13C,0.1000*%
%ADD15C,0.1500*%
%ADD17C,0.1250*%
%ADD146C,0.1600*%
%ADD150C,0.3000*%
%ADD152C,7.0000*%
%ADD153C,1.5300*%
%ADD154C,0.7600*%
%ADD155C,1.6500*%
%ADD157C,1.1900*%
%ADD158R,1.5300X1.5300*%
%ADD159C,0.4000*%
%ADD160C,1.0000*%
%ADD161C,4.4000*%
%ADD162C,0.1200*%
D11*
X361950Y114300D02*
X373232Y103018D01*
X325120Y114848D02*
X340200Y99768D01*
X678180Y88900D02*
Y89258D01*
X667671Y99768D02*
X678180Y89258D01*
X672224Y103018D02*
X685858Y89383D01*
X400940Y117494D02*
Y125414D01*
Y117494D02*
X407944Y110490D01*
X373232Y103018D02*
X672224D01*
X388818Y106267D02*
X676002D01*
X407944Y110490D02*
X677790D01*
X340200Y99768D02*
X667671D01*
X677790Y110490D02*
X694690Y93590D01*
X715075Y849630D02*
X725170Y839535D01*
X685858Y88402D02*
Y89383D01*
Y88402D02*
X689610Y84650D01*
X694690Y93485D02*
Y93590D01*
X676002Y106267D02*
X684534Y97735D01*
X380475Y114611D02*
X388818Y106267D01*
X269240Y849630D02*
X715075D01*
X233680Y813940D02*
Y814070D01*
X269240Y849630D01*
D12*
X296944Y163594D02*
X332964Y199614D01*
X284232Y163594D02*
X296944D01*
X786130Y190597D02*
Y203200D01*
X332964Y199614D02*
X378577D01*
X435356Y142835D02*
X474980D01*
X685800D02*
X738368D01*
X474980D02*
X685800D01*
X378577Y199614D02*
X435356Y142835D01*
X738368D02*
X786130Y190597D01*
X691250Y519530D02*
X691350Y519630D01*
X666850Y519530D02*
X691250D01*
X666750Y519430D02*
X666850Y519530D01*
X515848Y582180D02*
X692107D01*
X695320Y578967D01*
X695970D01*
X503898Y570230D02*
X515848Y582180D01*
X454660Y570230D02*
X503898D01*
D13*
X464433Y296752D02*
X464710D01*
X459345Y301840D02*
X464433Y296752D01*
X321653Y273756D02*
X380730D01*
X322316Y269116D02*
X322815Y269615D01*
X326435D01*
X318566Y270669D02*
X321653Y273756D01*
X318566Y270010D02*
Y270669D01*
X317220Y268664D02*
X318566Y270010D01*
X317220Y267853D02*
Y268664D01*
X326435Y269615D02*
X327162Y270343D01*
X317416Y257523D02*
X321968Y252971D01*
X317309Y257523D02*
X317416D01*
X327162Y270343D02*
X375062D01*
X321968Y252971D02*
X397245D01*
X175260Y300990D02*
X251154D01*
X550726Y451396D02*
X557708D01*
X548640Y453390D02*
X548732D01*
X550726Y451396D01*
X544830Y413960D02*
X559702Y428832D01*
X560176D01*
X600083Y458470D02*
X600373D01*
X595769Y454155D02*
X600083Y458470D01*
X594708Y454155D02*
X595769D01*
X593958Y454905D02*
X594708Y454155D01*
X593958Y454905D02*
Y462476D01*
X593208Y463226D02*
X593958Y462476D01*
X589708Y463226D02*
X593208D01*
X588958Y462476D02*
X589708Y463226D01*
X588958Y449720D02*
Y462476D01*
X588208Y448970D02*
X588958Y449720D01*
X584708Y448970D02*
X588208D01*
X583958Y449720D02*
X584708Y448970D01*
X583958Y449720D02*
Y465784D01*
X583208Y466534D02*
X583958Y465784D01*
X579708Y466534D02*
X583208D01*
X578958Y465784D02*
X579708Y466534D01*
X578958Y449720D02*
Y465784D01*
X578208Y448970D02*
X578958Y449720D01*
X574708Y448970D02*
X578208D01*
X573958Y449720D02*
X574708Y448970D01*
X573958Y449720D02*
Y465784D01*
X573208Y466534D02*
X573958Y465784D01*
X569708Y466534D02*
X573208D01*
X568958Y465784D02*
X569708Y466534D01*
X568958Y449720D02*
Y465784D01*
X568208Y448970D02*
X568958Y449720D01*
X564708Y448970D02*
X568208D01*
X563958Y449720D02*
X564708Y448970D01*
X563958Y449720D02*
Y465784D01*
X563208Y466534D02*
X563958Y465784D01*
X559708Y466534D02*
X563208D01*
X558958Y465784D02*
X559708Y466534D01*
X558958Y452146D02*
Y465784D01*
X558208Y451396D02*
X558958Y452146D01*
X557708Y451396D02*
X558208D01*
X600373Y458470D02*
X600710D01*
X636523Y468837D02*
Y489325D01*
X614406Y446720D02*
X636523Y468837D01*
X562580Y446720D02*
X614406D01*
X545472Y429612D02*
X562580Y446720D01*
X537995Y407125D02*
X544830Y413960D01*
X487664Y407125D02*
X537995D01*
X545151Y429612D02*
X545472D01*
X346340Y281256D02*
X378437D01*
X404994Y260720D02*
X405631D01*
X378437Y281256D02*
X397456Y262237D01*
Y261425D02*
Y262237D01*
X397245Y252971D02*
X404994Y260720D01*
X251154Y300990D02*
X251236Y300908D01*
X300321Y281256D02*
X346340D01*
X299940Y280875D02*
X300321Y281256D01*
X380730Y273756D02*
X389384Y265102D01*
X472303Y391764D02*
X487664Y407125D01*
X427528Y453002D02*
X436492D01*
X438150Y454660D02*
Y476250D01*
X421640Y447114D02*
X427528Y453002D01*
X436492D02*
X438150Y454660D01*
X421640Y439649D02*
Y447114D01*
X403673Y347618D02*
X425864Y325426D01*
X389890Y347618D02*
X403673D01*
X346340D02*
X389890D01*
X344298D02*
X346340D01*
X337350Y340670D02*
X344298Y347618D01*
X278673Y340670D02*
X337350D01*
X271364Y347980D02*
X278673Y340670D01*
X270552Y348791D02*
X271364Y347980D01*
X338326Y336696D02*
X345747Y344118D01*
X294872Y336696D02*
X338326D01*
X288024Y329849D02*
X294872Y336696D01*
X264317Y329849D02*
X288024D01*
X261885Y332281D02*
X264317Y329849D01*
X261801Y332281D02*
X261885D01*
X370851Y525154D02*
X379618Y533921D01*
X468114D01*
X477948Y524087D01*
X370851Y524750D02*
Y525154D01*
X389384Y261234D02*
X389477Y261142D01*
X389384Y261234D02*
Y265102D01*
X465437Y490335D02*
X465463Y490362D01*
X443345Y490335D02*
X465437D01*
X477948Y517105D02*
Y524087D01*
X377190Y359512D02*
X377292D01*
X379730Y361950D01*
X389890D01*
X442977Y301840D02*
X459345D01*
X425864Y318953D02*
X442977Y301840D01*
X425864Y318953D02*
Y322580D01*
Y325426D01*
X151130Y325120D02*
X175260Y300990D01*
X381010Y264395D02*
X384588D01*
X385038Y263945D01*
X635949Y489899D02*
X636523Y489325D01*
X375062Y270343D02*
X381010Y264395D01*
X438150Y476250D02*
Y485140D01*
X443345Y490335D01*
X418301Y436310D02*
X421640Y439649D01*
X389890Y361950D02*
X394799D01*
X415272Y382423D01*
X450385Y382490D02*
X454858D01*
X448100Y380205D02*
X450385Y382490D01*
X441393Y380205D02*
X448100D01*
X457200Y384832D02*
Y396240D01*
X472303Y381611D02*
Y391764D01*
Y381611D02*
X476862Y377052D01*
X454858Y382490D02*
X457200Y384832D01*
X439175Y382423D02*
X441393Y380205D01*
X415272Y382423D02*
X439175D01*
D15*
X719699Y748679D02*
X731391D01*
X748523Y765810D01*
X718820Y749557D02*
X719699Y748679D01*
X717677Y745929D02*
X732531D01*
X749662Y763060D01*
X715445Y748161D02*
X717677Y745929D01*
X718820Y749557D02*
Y755650D01*
X713570Y750036D02*
X715445Y748161D01*
X713570Y750036D02*
Y755650D01*
X715445Y748161D02*
Y748161D01*
X763440Y768441D02*
Y773855D01*
X763650Y774065D01*
X758190Y767080D02*
Y774255D01*
X758059Y763060D02*
X763440Y768441D01*
X749662Y763060D02*
X758059D01*
X756920Y765810D02*
X758190Y767080D01*
X748523Y765810D02*
X756920D01*
D17*
X838632Y286881D02*
X839158Y287407D01*
X842402D02*
X842876Y287881D01*
X845281Y292131D02*
X848917Y288495D01*
X839158Y287407D02*
X842402D01*
X838632Y292131D02*
X845281D01*
X842876Y287881D02*
X844934D01*
X628422Y557595D02*
X648322D01*
X659299Y503876D02*
X721678Y441497D01*
X657953Y500626D02*
X720332Y438247D01*
X568793Y492695D02*
X580205Y504107D01*
X570139Y489445D02*
X581551Y500857D01*
X611564Y511376D02*
X710766D01*
X579169Y506607D02*
X609262D01*
X611604Y517018D02*
X611811Y517225D01*
X704395Y513876D02*
X742933Y552414D01*
X608458Y503876D02*
X659299D01*
X609262Y506607D02*
X609493Y506376D01*
X608227Y504107D02*
X608458Y503876D01*
X607112Y500626D02*
X657953D01*
X581551Y500857D02*
X606881D01*
X710766Y511376D02*
X731520Y532130D01*
X609493Y506376D02*
X662514D01*
X666808Y508876D02*
X669510Y506174D01*
X611811Y517225D02*
X613679D01*
X569995Y508040D02*
X576062Y514107D01*
X610529Y508876D02*
X666808D01*
X577098Y511607D02*
X611333D01*
X575545Y520660D02*
X609766D01*
X612600Y513876D02*
X704395D01*
X662514Y506376D02*
X668642Y500248D01*
X613679Y517225D02*
X614205Y517751D01*
X609766Y520660D02*
X609999Y520893D01*
X612369Y514107D02*
X612600Y513876D01*
X576062Y514107D02*
X612369D01*
X575438Y517018D02*
X611604D01*
X606881Y500857D02*
X607112Y500626D01*
X571031Y505540D02*
X577098Y511607D01*
X573102Y500540D02*
X579169Y506607D01*
X610298Y509107D02*
X610529Y508876D01*
X578134Y509107D02*
X610298D01*
X611333Y511607D02*
X611564Y511376D01*
X580205Y504107D02*
X608227D01*
X572067Y503040D02*
X578134Y509107D01*
X568960Y510540D02*
X575438Y517018D01*
X742933Y552414D02*
Y552414D01*
X133350Y345440D02*
X229671D01*
X721678Y441497D02*
X792090D01*
X811509D01*
X509330Y477523D02*
Y485096D01*
X516929Y492695D02*
X568793D01*
X509330Y485096D02*
X516929Y492695D01*
X811509Y441497D02*
X814927Y438079D01*
X821671Y428359D02*
Y431335D01*
X814927Y438079D02*
X821671Y431335D01*
Y428359D02*
X824580Y425450D01*
X792090Y438247D02*
X797965D01*
X798753Y437459D01*
Y428394D02*
Y437459D01*
Y428394D02*
X799540Y427607D01*
X803215D01*
X804003Y428394D01*
Y437459D01*
X804790Y438247D01*
X810163D01*
X812629Y435781D01*
X720332Y438247D02*
X792090D01*
X513769Y479316D02*
Y484938D01*
X514574Y477766D02*
Y478510D01*
X513769Y479316D02*
X514574Y478510D01*
X513769Y484938D02*
X518275Y489445D01*
X570139D01*
X812629Y435781D02*
X818330Y430080D01*
Y425450D02*
Y430080D01*
X581660Y617220D02*
X593090Y628650D01*
X632833Y724769D02*
X688653D01*
X544830Y467913D02*
X545826Y468909D01*
X536136Y459219D02*
X544830Y467913D01*
X440656Y320239D02*
Y320322D01*
X443355Y316657D02*
Y317541D01*
Y316657D02*
X446344Y313667D01*
X440656Y320239D02*
X443355Y317541D01*
X657481Y497309D02*
X720449Y434340D01*
X588631Y497309D02*
X657481D01*
X612830Y438840D02*
X615318Y441329D01*
Y442442D01*
X615318Y442442D02*
X615318Y442442D01*
X615318Y442442D02*
Y443556D01*
X617917Y446155D01*
X619031D01*
X623917Y441268D01*
X625031D01*
X627630Y443867D01*
Y444980D01*
X623857Y448753D02*
X627630Y444980D01*
X623857Y448753D02*
Y449867D01*
X624299Y450309D01*
X612790Y438800D02*
X612830Y438840D01*
X624299Y450309D02*
X628650Y454660D01*
X559819Y438800D02*
X612790D01*
X544830Y420148D02*
X557390Y432707D01*
X620538D02*
X644625Y456795D01*
X557390Y432707D02*
X620538D01*
X544830Y423811D02*
X559819Y438800D01*
X532519Y411500D02*
X544830Y423811D01*
X582496Y472804D02*
X586082D01*
X581708Y473592D02*
X582496Y472804D01*
X581708Y473592D02*
Y482729D01*
X580921Y483516D02*
X581708Y482729D01*
X577246Y483516D02*
X580921D01*
X576458Y482729D02*
X577246Y483516D01*
X576458Y472196D02*
Y482729D01*
X575671Y471409D02*
X576458Y472196D01*
X571996Y471409D02*
X575671D01*
X571208Y472196D02*
X571996Y471409D01*
X571208Y472196D02*
Y483742D01*
X570421Y484530D02*
X571208Y483742D01*
X566746Y484530D02*
X570421D01*
X565958Y483742D02*
X566746Y484530D01*
X565958Y473592D02*
Y483742D01*
X565171Y472804D02*
X565958Y473592D01*
X564546Y472804D02*
X565171D01*
X547005D02*
X564546D01*
X586082D02*
X602345D01*
X614361Y484821D02*
X615170Y485630D01*
X614361Y483708D02*
Y484821D01*
Y483708D02*
X620757Y477312D01*
Y476198D02*
Y477312D01*
X618159Y473600D02*
X620757Y476198D01*
X617045Y473600D02*
X618159D01*
X602042Y488603D02*
X617045Y473600D01*
X600928Y488603D02*
X602042D01*
X598329Y486004D02*
X600928Y488603D01*
X598329Y484891D02*
Y486004D01*
Y484891D02*
X605823Y477397D01*
Y476283D02*
Y477397D01*
X605381Y475841D02*
X605823Y476283D01*
X615170Y485630D02*
X618490Y488950D01*
X602345Y472804D02*
X605381Y475841D01*
X545826Y468909D02*
X617004D01*
X630039Y481944D01*
X542402Y477408D02*
X547005Y472804D01*
X501115Y411500D02*
X532519D01*
X490037Y422579D02*
X501115Y411500D01*
X533932Y409250D02*
X544830Y420148D01*
X496986Y409250D02*
X533932D01*
X644625Y456795D02*
Y456897D01*
X552932Y553458D02*
X685487D01*
X552668Y553194D02*
X552932Y553458D01*
X685487D02*
X688916Y556887D01*
X731520Y532130D02*
X737870D01*
X513610Y682150D02*
X522130D01*
X510265Y609636D02*
X517266Y602635D01*
X511370Y613435D02*
X518296Y606510D01*
X528662D01*
X260505Y403465D02*
X320676D01*
X329045Y411833D01*
X239520Y382481D02*
X260505Y403465D01*
X296482Y390073D02*
X302649Y396240D01*
X301289Y388620D02*
X327660D01*
X279219Y366550D02*
X301289Y388620D01*
X242913Y395339D02*
X256679Y409104D01*
X407917Y299063D02*
X408854Y298126D01*
X381324Y299063D02*
X407917D01*
X321284Y226318D02*
X474980D01*
X286583Y191617D02*
X321284Y226318D01*
X474980D02*
X685800D01*
X489938Y416298D02*
X496986Y409250D01*
X490037Y422579D02*
Y422707D01*
X588304Y496982D02*
X588631Y497309D01*
X567924Y513040D02*
X575545Y520660D01*
X453694Y508040D02*
X569995D01*
X448230Y505540D02*
X571031D01*
X441840Y503040D02*
X572067D01*
X379570Y500540D02*
X573102D01*
X378460Y496570D02*
X565150D01*
X457200Y510540D02*
X568960D01*
X499150Y513040D02*
X567924D01*
X381000Y524750D02*
X405549D01*
X398235Y514622D02*
X398860Y515247D01*
X402597D02*
X402735Y515385D01*
X406371Y524101D02*
X408100Y522372D01*
X406197Y524101D02*
X406371D01*
X359360Y514622D02*
X398235D01*
X398860Y515247D02*
X402597D01*
X408340Y527439D02*
X408744Y527035D01*
X395470Y530000D02*
X396783Y531314D01*
X405549Y524750D02*
X406197Y524101D01*
X408744Y527035D02*
X414714D01*
X396783Y531314D02*
X410557D01*
X408100Y522372D02*
X416031D01*
X410557Y531314D02*
X411748Y530122D01*
X417107D01*
X338700Y493962D02*
X359360Y514622D01*
X381000Y530000D02*
X395470D01*
X414714Y527035D02*
X415502Y526247D01*
X361200Y529460D02*
X373036Y541296D01*
X375882Y538796D02*
X470133D01*
X347744Y543796D02*
X472204D01*
X373036Y541296D02*
X471169D01*
X345247Y546293D02*
X347744Y543796D01*
X348779Y546296D02*
X473240D01*
X364476Y527391D02*
X375882Y538796D01*
X366976Y526355D02*
X376917Y536296D01*
X469098D01*
X346282Y548793D02*
X348779Y546296D01*
X415502Y526247D02*
X469033D01*
X469098Y536296D02*
X483359Y522035D01*
X470133Y538796D02*
X484394Y524535D01*
X471169Y541296D02*
X485430Y527035D01*
X472204Y543796D02*
X485090Y530910D01*
X473240Y546296D02*
X484467Y535069D01*
X445770Y521970D02*
X457200Y510540D01*
X416031Y522372D02*
X416497Y521905D01*
X366030Y508000D02*
X368635Y505395D01*
X369635D02*
X378460Y496570D01*
X368635Y505395D02*
X369635D01*
X430763Y514117D02*
X441840Y503040D01*
X447087Y514647D02*
X453694Y508040D01*
X368235Y511875D02*
X379570Y500540D01*
X432090Y521680D02*
X448230Y505540D01*
X495300Y516890D02*
X499150Y513040D01*
X480113Y470067D02*
Y473950D01*
Y470067D02*
X480731Y469449D01*
Y467313D02*
Y469449D01*
X492370Y464243D02*
X501945Y473819D01*
X528429D02*
X539750Y485140D01*
X501945Y473819D02*
X528429D01*
X483801Y464243D02*
X492370D01*
X480731Y467313D02*
X483801Y464243D01*
X366976Y526221D02*
Y526355D01*
X364476Y527256D02*
Y527391D01*
X342997Y494723D02*
X360149Y511875D01*
X365760Y508000D02*
X366030D01*
X360149Y511875D02*
X368235D01*
X408854Y298126D02*
X409913Y298126D01*
X736258Y226318D02*
X739320Y229380D01*
X685800Y226318D02*
X736258D01*
X519507Y524535D02*
X524686Y519356D01*
X500452Y519810D02*
X516064D01*
X484394Y524535D02*
X519507D01*
X498227Y522035D02*
X500452Y519810D01*
X483359Y522035D02*
X498227D01*
X156145Y580455D02*
X188251Y548349D01*
X160020Y580204D02*
Y650240D01*
X157730Y675118D02*
Y675640D01*
X156145Y673533D02*
X157730Y675118D01*
X156145Y580455D02*
Y673533D01*
X624220Y724243D02*
X627037Y721426D01*
X623490Y724243D02*
X624220D01*
X627037Y721426D02*
X652717D01*
X592574Y728118D02*
X629483D01*
X274550Y424115D02*
X328197D01*
X270065Y428601D02*
X274550Y424115D01*
X328197D02*
X331244Y421068D01*
X256679Y409104D02*
X316089D01*
X253380Y390073D02*
X296482D01*
X249954Y386647D02*
X253380Y390073D01*
X316089Y409104D02*
X317852Y407340D01*
X318196D01*
X249865Y386647D02*
X249954D01*
X239520Y355809D02*
Y382481D01*
X260208Y366550D02*
X279219D01*
X160020Y580204D02*
X189375Y550849D01*
X266801D02*
X268857Y548793D01*
X189375Y550849D02*
X266801D01*
X267777Y546293D02*
X345247D01*
X188251Y548349D02*
X265721D01*
X268857Y548793D02*
X346282D01*
X265721Y548349D02*
X267777Y546293D01*
X144328Y441960D02*
X326730D01*
X342705Y457935D01*
X138476Y447812D02*
X144328Y441960D01*
X322366Y411854D02*
X322710D01*
X320603Y413618D02*
X322366Y411854D01*
X204095Y406400D02*
X211313Y413618D01*
X320603D01*
X294473Y454005D02*
X323772D01*
X342997Y473230D01*
Y486116D02*
Y494723D01*
X447961Y292877D02*
X468745D01*
X417288Y302522D02*
X438316D01*
X447961Y292877D01*
X412892Y298126D02*
X417288Y302522D01*
X409913Y298126D02*
X412892D01*
X468745Y292877D02*
X485660Y309792D01*
X446344Y313667D02*
X689704D01*
X293533Y496385D02*
X293611Y496462D01*
X337218D01*
X245954Y492412D02*
X249926Y496385D01*
X241527Y496487D02*
X243925Y498885D01*
X240843Y496487D02*
X241527D01*
X290122Y498962D02*
X336182D01*
X249926Y496385D02*
X293533D01*
X243925Y498885D02*
X290045D01*
X290122Y498962D01*
X297019Y492760D02*
X298221Y493962D01*
X239408Y475628D02*
X256540Y492760D01*
X297019D01*
X298221Y493962D02*
X338700D01*
X337218Y496462D02*
X366976Y526221D01*
X336182Y498962D02*
X364476Y527256D01*
X229210Y475628D02*
X239408D01*
X342131Y639950D02*
X523370D01*
X546100Y617220D01*
X370876Y609636D02*
X510265D01*
X357634Y596394D02*
X370876Y609636D01*
X341713Y640368D02*
X342131Y639950D01*
X233481Y349250D02*
X242907D01*
X779905Y168435D02*
X822842Y211373D01*
Y261502D01*
X842459Y276860D02*
X845667Y280067D01*
Y287149D01*
X848917Y278721D02*
Y288495D01*
X844934Y287881D02*
X845667Y287149D01*
X843806Y273610D02*
X848917Y278721D01*
X822842Y261502D02*
X838200Y276860D01*
X826092Y210026D02*
Y260156D01*
X839546Y273610D01*
X781251Y165185D02*
X826092Y210026D01*
X845260Y221062D02*
Y257688D01*
X842010Y222409D02*
Y256342D01*
X441544Y720544D02*
X579234D01*
X439755Y718755D02*
X441544Y720544D01*
X579234D02*
X585600Y726910D01*
X436545Y718755D02*
X439755D01*
X532257Y535069D02*
X540867Y526459D01*
Y525780D02*
Y526459D01*
X474980Y334850D02*
X476800Y333029D01*
X468182Y341648D02*
X474980Y334850D01*
X476800Y322580D02*
Y333029D01*
Y320242D02*
Y322580D01*
X434756Y720544D02*
X436545Y718755D01*
X346387Y720544D02*
X434756D01*
X446485Y806450D02*
X491618D01*
X441930Y811005D02*
X446485Y806450D01*
X420279Y811005D02*
X441930D01*
X414020Y811530D02*
X419045Y816555D01*
X463960D01*
X467010Y813505D01*
X491618Y806450D02*
X497280Y812113D01*
X420181Y811104D02*
X420279Y811005D01*
X353060Y842250D02*
X716975D01*
X723565Y835660D01*
X760730D01*
X688916Y556887D02*
X689660D01*
X479360Y317682D02*
X682172D01*
X476800Y320242D02*
X479360Y317682D01*
X720449Y434340D02*
X726440D01*
X616087Y569930D02*
X628422Y557595D01*
X669510Y505435D02*
Y506174D01*
X630039Y489519D02*
X630419Y489899D01*
X630039Y481944D02*
Y489519D01*
X678726Y698996D02*
X679022Y698700D01*
X652717Y721426D02*
X675147Y698996D01*
X678726D01*
X782287Y162685D02*
X842010Y222409D01*
X777825Y153627D02*
Y153826D01*
X783434Y159435D01*
X783633D01*
X768825Y157554D02*
X779706Y168435D01*
X768825Y157355D02*
Y157554D01*
X779706Y168435D02*
X779905D01*
X742145Y130675D02*
X768825Y157355D01*
X782088Y162685D02*
X782287D01*
X745873Y121675D02*
X777825Y153627D01*
X774575Y154973D02*
Y155172D01*
X743491Y127425D02*
X772075Y156009D01*
Y156208D02*
X781052Y165185D01*
X744526Y124925D02*
X774575Y154973D01*
Y155172D02*
X782088Y162685D01*
X783633Y159435D02*
X845260Y221062D01*
X772075Y156009D02*
Y156208D01*
X781052Y165185D02*
X781251D01*
X484467Y535069D02*
X532257D01*
X472040Y523240D02*
X472440D01*
X469033Y526247D02*
X472040Y523240D01*
X328976Y416334D02*
X329045Y416265D01*
Y411833D02*
Y416265D01*
X446343Y514647D02*
X447087D01*
X427617Y521680D02*
X432090D01*
X365243Y613435D02*
X511370D01*
X344170Y592362D02*
X365243Y613435D01*
X344170Y591820D02*
Y592362D01*
X474980Y648970D02*
X518160D01*
X544996Y622134D01*
X557271Y717291D02*
X649893D01*
X522130Y682150D02*
X557271Y717291D01*
X530302Y602670D02*
X532259D01*
X532785Y603196D01*
X530267Y602635D02*
X530302Y602670D01*
X517266Y602635D02*
X530267D01*
X649893Y717291D02*
X668474Y698710D01*
X629483Y728118D02*
X632833Y724769D01*
X668474Y649376D02*
Y698710D01*
Y649376D02*
X671420Y646430D01*
X246112Y95518D02*
X403860D01*
X238760Y102870D02*
X246112Y95518D01*
X234326Y60824D02*
X684491D01*
X236707Y66574D02*
X682110D01*
X238053Y69824D02*
X680763D01*
X235672Y64074D02*
X683145D01*
X745342Y121675D02*
X745873D01*
X683145Y64074D02*
X743996Y124925D01*
X742961Y127425D02*
X743491D01*
X680763Y69824D02*
X741614Y130675D01*
X682110Y66574D02*
X742961Y127425D01*
X741614Y130675D02*
X742145D01*
X684491Y60824D02*
X745342Y121675D01*
X743996Y124925D02*
X744526D01*
X710862Y647350D02*
X711121Y647092D01*
X757853D01*
X784860Y674099D02*
Y712470D01*
X757853Y647092D02*
X784860Y674099D01*
X671420Y646430D02*
X703580D01*
X539750Y485140D02*
X553720D01*
X230405Y64744D02*
X234326Y60824D01*
X262662Y452233D02*
X292701D01*
X467010Y813505D02*
X467643D01*
X292701Y452233D02*
X294473Y454005D01*
X485660Y309792D02*
X685800D01*
X682172Y317682D02*
X690880Y326390D01*
X229671Y345440D02*
X233481Y349250D01*
X242907D02*
X260208Y366550D01*
X544996Y622134D02*
X563434D01*
X546100Y617220D02*
X581660D01*
X499195Y527035D02*
X500206Y528046D01*
X485430Y527035D02*
X499195D01*
X485090Y530910D02*
X497590D01*
X511206Y528046D02*
X511570Y528410D01*
X500206Y528046D02*
X511206D01*
X227330Y69099D02*
X228074D01*
X229922Y73359D02*
X236707Y66574D01*
X228074Y69099D02*
X229179Y67994D01*
X229922Y73359D02*
Y73664D01*
X229179Y67994D02*
X231751D01*
X228806Y64744D02*
X230405D01*
X236472Y71405D02*
X238053Y69824D01*
X235946Y73397D02*
X236472Y72871D01*
X231751Y67994D02*
X235672Y64074D01*
X227702Y63640D02*
X228806Y64744D01*
X236472Y71405D02*
Y72871D01*
X226958Y63640D02*
X227702D01*
X838200Y276860D02*
X842459D01*
X836790Y262131D02*
X840817D01*
X837316Y257407D02*
X839261D01*
X840817Y262131D02*
X845260Y257688D01*
X836790Y256881D02*
X837316Y257407D01*
X839546Y273610D02*
X843806D01*
X839261Y257407D02*
X839585Y257732D01*
X840620D02*
X842010Y256342D01*
X839585Y257732D02*
X840620D01*
D146*
X795228Y187740D02*
Y303530D01*
X195006Y273949D02*
Y289302D01*
X201906Y296202D01*
X201479Y316981D02*
X201849D01*
X208240Y310590D02*
X219977D01*
X201849Y316981D02*
X208240Y310590D01*
X883920Y213190D02*
X884090Y213360D01*
X878753Y213273D02*
X878840Y213360D01*
X878753Y184063D02*
Y213273D01*
X883920Y185200D02*
Y213190D01*
X269850Y269466D02*
X290754Y248562D01*
X269391Y270871D02*
X269850Y270411D01*
Y269466D02*
Y270411D01*
X290754Y248562D02*
X355733D01*
X268984Y235122D02*
X355830D01*
X268862Y235000D02*
X268984Y235122D01*
X812817Y544678D02*
X837852Y519643D01*
X772072Y544678D02*
X812817D01*
X262570Y359141D02*
X262839Y359410D01*
X256582Y359141D02*
X262570D01*
X350309Y431544D02*
X350959D01*
X347824Y434030D02*
X350309Y431544D01*
X332149Y434030D02*
X347824D01*
X403860Y268445D02*
X415150Y279736D01*
X387240Y162626D02*
Y162996D01*
Y162626D02*
X424196Y125670D01*
X721120Y540780D02*
X740170Y559830D01*
X490460Y543800D02*
X574323D01*
X577343Y540780D01*
X721120D01*
X609574Y550783D02*
X719693D01*
X608231Y549440D02*
X609574Y550783D01*
X497233Y549440D02*
X608231D01*
X719693Y550783D02*
X725170Y556260D01*
X127407Y224579D02*
Y309281D01*
X156581Y338455D02*
X221147D01*
X127407Y309281D02*
X156581Y338455D01*
X355830Y235122D02*
X358690Y237981D01*
Y245604D01*
X355733Y248562D02*
X358690Y245604D01*
X252912Y270721D02*
Y271099D01*
X237886Y288398D02*
X237995Y288508D01*
X243086D01*
X247965Y283629D01*
X248860Y266670D02*
X252912Y270721D01*
X195006Y273949D02*
X202285Y266670D01*
X248860D01*
X304800Y436880D02*
X309930Y431750D01*
X424196Y125670D02*
X632460D01*
X195586Y230950D02*
X482828D01*
X187960Y238576D02*
X195586Y230950D01*
X346340Y284675D02*
X430850D01*
X264929D02*
X346340D01*
X263882Y283629D02*
X264929Y284675D01*
X257440Y283629D02*
X263882D01*
X247965D02*
X257440D01*
X308678Y627620D02*
X324093Y612205D01*
X249856Y627620D02*
X308678D01*
X249066Y626830D02*
X249856Y627620D01*
X180346Y626830D02*
X249066D01*
X179165Y629680D02*
X247886D01*
X249131Y630925D01*
X318505D01*
X485838Y539178D02*
X490460Y543800D01*
X457216Y287324D02*
X458017Y286524D01*
X462139D02*
X462416Y286247D01*
X433500Y287324D02*
X457216D01*
X458017Y286524D02*
X462139D01*
X482828Y230950D02*
X486550Y234672D01*
Y263473D01*
X473228Y276795D02*
X486550Y263473D01*
X468759Y276795D02*
X473228D01*
X348384Y194864D02*
X371245D01*
X432759Y133350D01*
X160020Y656590D02*
X196850D01*
X766150Y158662D02*
X795228Y187740D01*
X756920Y559830D02*
X772072Y544678D01*
X462616Y279736D02*
X474980Y292100D01*
X488622Y305742D01*
X415150Y279736D02*
X462616D01*
X488622Y305742D02*
X687477D01*
X430850Y284675D02*
X433500Y287324D01*
X329870Y431750D02*
X332149Y434030D01*
X309930Y431750D02*
X329870D01*
X290811Y313360D02*
X292217Y311954D01*
X282824Y313292D02*
X286043D01*
X292217Y310368D02*
Y311954D01*
X286111Y313360D02*
X290811D01*
X286043Y313292D02*
X286111Y313360D01*
X292217Y310368D02*
X292676Y309909D01*
X596155Y409261D02*
X599565Y412672D01*
X595835Y409261D02*
X596155D01*
X599565Y412672D02*
X697564D01*
X740170Y559830D02*
X756920D01*
X215169Y322510D02*
Y325984D01*
X221440Y332255D01*
X224130Y313549D02*
X257440D01*
X258353D01*
X221440Y332255D02*
X239210D01*
X215169Y322510D02*
X224130Y313549D01*
X258353D02*
X258610Y313292D01*
X210510Y649280D02*
X293836D01*
X207010Y652780D02*
X210510Y649280D01*
X207010Y646430D02*
X291896D01*
X303351Y634975D02*
X325095D01*
X291896Y646430D02*
X303351Y634975D01*
X196850Y656590D02*
X207010Y646430D01*
X298717Y573480D02*
X363024D01*
X290767Y565530D02*
X298717Y573480D01*
X325095Y634975D02*
X325120Y635000D01*
X299226Y643890D02*
X337820D01*
X293836Y649280D02*
X299226Y643890D01*
X166926Y613410D02*
X180346Y626830D01*
X176865Y627380D02*
X179165Y629680D01*
X171450Y627380D02*
X176865D01*
X324093Y612205D02*
X347550D01*
X234950Y344170D02*
X241610D01*
X256582Y359141D01*
X221147Y338455D02*
X221451Y338152D01*
X258610Y313292D02*
X260244D01*
X261234Y312302D01*
Y305545D02*
Y312302D01*
Y305545D02*
X262224Y304555D01*
X266844D01*
X267834Y305545D01*
Y315491D01*
X268824Y316481D01*
X273444D01*
X274434Y315491D01*
Y302556D02*
Y315491D01*
Y302556D02*
X275424Y301566D01*
X280044D01*
X281034Y302556D01*
Y312302D01*
X282024Y313292D01*
X282824D01*
X741037Y133350D02*
X766150Y158463D01*
X780500Y152519D02*
Y152718D01*
X785921Y153910D02*
X797871Y165860D01*
X783350Y151538D02*
X785723Y153910D01*
X784741Y156760D02*
X796691Y168710D01*
X784542Y156760D02*
X784741D01*
X742429Y110418D02*
X783350Y151339D01*
X766150Y158463D02*
Y158662D01*
X783350Y151339D02*
Y151538D01*
X785723Y153910D02*
X785921D01*
X741410Y113429D02*
X780500Y152519D01*
Y152718D02*
X784542Y156760D01*
X432759Y133350D02*
X741037D01*
X782423Y307140D02*
X789875Y299688D01*
X687477Y305742D02*
X688875Y307140D01*
X782423D01*
X213219Y54976D02*
X686457D01*
X226721Y58149D02*
X685599D01*
X740880Y113429D02*
X741410D01*
X741899Y110418D02*
X742429D01*
X685599Y58149D02*
X740880Y113429D01*
X686457Y54976D02*
X741899Y110418D01*
X797871Y165860D02*
X864581D01*
X796691Y168710D02*
X863400D01*
X224323Y60547D02*
X226721Y58149D01*
X213338Y60547D02*
X224323D01*
X166370Y613410D02*
X166926D01*
X864581Y165860D02*
X883920Y185200D01*
X863400Y168710D02*
X878753Y184063D01*
D150*
X727560Y630370D02*
D03*
Y604370D02*
D03*
Y617370D02*
D03*
Y591370D02*
D03*
X740560D02*
D03*
Y617370D02*
D03*
Y604370D02*
D03*
Y630370D02*
D03*
D152*
X169000Y826700D02*
D03*
X757200Y386000D02*
D03*
Y46000D02*
D03*
X167200D02*
D03*
X816400Y484100D02*
D03*
Y826700D02*
D03*
X169000Y484100D02*
D03*
X167200Y386000D02*
D03*
D153*
X61100Y723000D02*
D03*
X35700D02*
D03*
X61100Y519800D02*
D03*
X35700Y494400D02*
D03*
Y519800D02*
D03*
X61100Y494400D02*
D03*
X86500Y672200D02*
D03*
X111900Y646800D02*
D03*
X86500Y697600D02*
D03*
X111900D02*
D03*
X86500Y291200D02*
D03*
X111900Y672200D02*
D03*
Y621400D02*
D03*
X86500Y596000D02*
D03*
X111900D02*
D03*
Y316600D02*
D03*
Y291200D02*
D03*
Y265800D02*
D03*
Y240400D02*
D03*
X86500Y189600D02*
D03*
X111900Y443600D02*
D03*
Y469000D02*
D03*
Y392800D02*
D03*
Y418200D02*
D03*
Y164200D02*
D03*
X86500Y316600D02*
D03*
X111900Y342000D02*
D03*
X86500D02*
D03*
X111900Y367400D02*
D03*
X86500D02*
D03*
Y392800D02*
D03*
Y443600D02*
D03*
Y418200D02*
D03*
Y469000D02*
D03*
X111900Y494400D02*
D03*
X86500D02*
D03*
X111900Y519800D02*
D03*
X86500D02*
D03*
X111900Y545200D02*
D03*
X86500D02*
D03*
X111900Y570600D02*
D03*
X86500D02*
D03*
Y621400D02*
D03*
Y646800D02*
D03*
X111900Y723000D02*
D03*
X86500D02*
D03*
X111900Y748400D02*
D03*
X86500D02*
D03*
X111900Y773800D02*
D03*
X86500D02*
D03*
Y138800D02*
D03*
Y164200D02*
D03*
X111900Y189600D02*
D03*
Y215000D02*
D03*
X86500D02*
D03*
Y265800D02*
D03*
Y240400D02*
D03*
X35700D02*
D03*
Y291200D02*
D03*
Y265800D02*
D03*
X61100D02*
D03*
Y240400D02*
D03*
X35700Y215000D02*
D03*
X61100D02*
D03*
X35700Y189600D02*
D03*
X61100D02*
D03*
X35700Y164200D02*
D03*
X61100D02*
D03*
X35700Y138800D02*
D03*
Y773800D02*
D03*
X61100D02*
D03*
X35700Y748400D02*
D03*
X61100D02*
D03*
X35700Y672200D02*
D03*
X61100D02*
D03*
X35700Y646800D02*
D03*
X61100D02*
D03*
Y621400D02*
D03*
X35700D02*
D03*
Y570600D02*
D03*
Y596000D02*
D03*
X61100D02*
D03*
Y570600D02*
D03*
X35700Y545200D02*
D03*
X61100D02*
D03*
X35700Y392800D02*
D03*
X61100D02*
D03*
X35700Y367400D02*
D03*
X61100D02*
D03*
X35700Y342000D02*
D03*
X61100D02*
D03*
X35700Y316600D02*
D03*
X61100D02*
D03*
Y291200D02*
D03*
Y469000D02*
D03*
X35700D02*
D03*
X61100Y443600D02*
D03*
X35700D02*
D03*
Y697600D02*
D03*
X61100D02*
D03*
X35700Y418200D02*
D03*
X61100D02*
D03*
D154*
X166150Y742100D02*
D03*
Y582100D02*
D03*
D155*
X825540Y744220D02*
D03*
Y769620D02*
D03*
D157*
X194200Y111000D02*
D03*
Y201000D02*
D03*
D158*
X111900Y138800D02*
D03*
X61100D02*
D03*
D159*
X875030Y140970D02*
D03*
X487229Y93505D02*
D03*
X587018Y91186D02*
D03*
X562202Y91440D02*
D03*
X556952D02*
D03*
X416642Y318876D02*
D03*
X421792Y321926D02*
D03*
X386080Y331470D02*
D03*
X389890Y335280D02*
D03*
X592268Y91186D02*
D03*
X464710Y296752D02*
D03*
X473710Y283210D02*
D03*
X792480Y623570D02*
D03*
X777240D02*
D03*
X784860D02*
D03*
X792480Y617220D02*
D03*
X61431Y12710D02*
D03*
X70431D02*
D03*
X34431D02*
D03*
X52431D02*
D03*
X43431D02*
D03*
X106431D02*
D03*
X115431D02*
D03*
X79431D02*
D03*
X97431D02*
D03*
X88431D02*
D03*
X25484Y13685D02*
D03*
X10170Y34065D02*
D03*
X17654Y18123D02*
D03*
X12229Y25304D02*
D03*
X151431Y12710D02*
D03*
X124431D02*
D03*
X142431D02*
D03*
X133431D02*
D03*
X187430D02*
D03*
X196430D02*
D03*
X160431D02*
D03*
X178431D02*
D03*
X169431D02*
D03*
X201502Y20145D02*
D03*
X208221Y26133D02*
D03*
X216873Y28611D02*
D03*
X10170Y70065D02*
D03*
Y97065D02*
D03*
Y79065D02*
D03*
Y88065D02*
D03*
Y52065D02*
D03*
Y43065D02*
D03*
Y61065D02*
D03*
X178274Y258242D02*
D03*
X214426Y276966D02*
D03*
X243873Y28710D02*
D03*
X225873D02*
D03*
X234873D02*
D03*
X279873D02*
D03*
X252873D02*
D03*
X270873D02*
D03*
X261873D02*
D03*
X288873D02*
D03*
X297873D02*
D03*
X315872D02*
D03*
X324873D02*
D03*
X306873D02*
D03*
X269753Y320281D02*
D03*
X270916Y297560D02*
D03*
X254493Y374058D02*
D03*
X240490Y388930D02*
D03*
X297869Y294477D02*
D03*
X302685Y319560D02*
D03*
X292685Y324560D02*
D03*
X312629Y293755D02*
D03*
X313862Y308383D02*
D03*
X322923Y329122D02*
D03*
X307688Y332022D02*
D03*
X333872Y28710D02*
D03*
X351872D02*
D03*
X342872D02*
D03*
X360872D02*
D03*
X369872D02*
D03*
X378872D02*
D03*
X414872D02*
D03*
X387872D02*
D03*
X405872D02*
D03*
X396872D02*
D03*
X397720Y337443D02*
D03*
X423872Y28710D02*
D03*
X422413Y91941D02*
D03*
X432872Y28710D02*
D03*
X441872D02*
D03*
X428331Y288725D02*
D03*
X428050Y331298D02*
D03*
X447040Y261620D02*
D03*
X468872Y28710D02*
D03*
X477872D02*
D03*
X450872D02*
D03*
X459872D02*
D03*
X452120Y257810D02*
D03*
X468570Y331298D02*
D03*
X444300Y357920D02*
D03*
X455156Y351015D02*
D03*
X477210Y351298D02*
D03*
X398401Y360603D02*
D03*
X395672Y380260D02*
D03*
X417953Y387450D02*
D03*
X424800Y364298D02*
D03*
X431301Y377298D02*
D03*
X405300Y415787D02*
D03*
X444106Y370502D02*
D03*
X463864Y377234D02*
D03*
X483862Y377484D02*
D03*
X444300Y416298D02*
D03*
Y422798D02*
D03*
X465437Y403236D02*
D03*
X469921Y403888D02*
D03*
X484034Y421641D02*
D03*
X231787Y581418D02*
D03*
X255385Y604815D02*
D03*
X246041Y621020D02*
D03*
X225780Y653610D02*
D03*
X235863Y653999D02*
D03*
X265863D02*
D03*
X266700Y635000D02*
D03*
X276863Y613910D02*
D03*
X335818Y541527D02*
D03*
X335816Y553187D02*
D03*
X305830Y582308D02*
D03*
X309880Y600710D02*
D03*
X340559Y580743D02*
D03*
X275590Y642380D02*
D03*
X267237D02*
D03*
X305785Y652483D02*
D03*
X285863Y653999D02*
D03*
X10171Y819627D02*
D03*
Y846627D02*
D03*
Y828627D02*
D03*
Y837627D02*
D03*
X215900Y779780D02*
D03*
X10171Y864627D02*
D03*
Y855627D02*
D03*
X237237Y662981D02*
D03*
X247237D02*
D03*
X10375Y873625D02*
D03*
X13495Y882066D02*
D03*
X19710Y888577D02*
D03*
X28030Y892007D02*
D03*
X127023Y892366D02*
D03*
X163023D02*
D03*
X172023D02*
D03*
X136023D02*
D03*
X154023D02*
D03*
X145023D02*
D03*
X64023D02*
D03*
X73023D02*
D03*
X37023D02*
D03*
X55023D02*
D03*
X46023D02*
D03*
X109023D02*
D03*
X118023D02*
D03*
X82023D02*
D03*
X100023D02*
D03*
X91023D02*
D03*
X210990Y877618D02*
D03*
X219902Y876364D02*
D03*
X228902Y876364D02*
D03*
X237902Y876364D02*
D03*
X246902Y876364D02*
D03*
X181023Y892366D02*
D03*
X190023D02*
D03*
X198744Y890143D02*
D03*
X203387Y882433D02*
D03*
X287237Y662981D02*
D03*
X267237D02*
D03*
X296356Y662621D02*
D03*
X260350Y795020D02*
D03*
X272094Y695804D02*
D03*
X292415Y696268D02*
D03*
X261620Y736600D02*
D03*
X297990Y755835D02*
D03*
X309397D02*
D03*
X332211D02*
D03*
X342637Y703580D02*
D03*
X320804Y755835D02*
D03*
X330780Y802257D02*
D03*
X330949Y808730D02*
D03*
X255902Y876364D02*
D03*
X264902Y876364D02*
D03*
X273902Y876364D02*
D03*
X282902Y876364D02*
D03*
X291902Y876364D02*
D03*
X300902Y876365D02*
D03*
X309902Y876365D02*
D03*
X318902Y876365D02*
D03*
X327902Y876365D02*
D03*
X336902Y876365D02*
D03*
X401457Y439277D02*
D03*
X398470Y464820D02*
D03*
X424556Y436043D02*
D03*
X437800Y448661D02*
D03*
X350520Y567398D02*
D03*
Y561340D02*
D03*
X397202Y595687D02*
D03*
X417891Y559919D02*
D03*
X428216Y469786D02*
D03*
X420573Y597767D02*
D03*
X444300Y442298D02*
D03*
X469107Y432010D02*
D03*
X480801Y449798D02*
D03*
X453737Y453822D02*
D03*
X448000Y471170D02*
D03*
X469719Y467700D02*
D03*
X342637Y698500D02*
D03*
X386080Y675640D02*
D03*
X379730Y725740D02*
D03*
X349250Y740410D02*
D03*
X380722Y731798D02*
D03*
X359410Y793750D02*
D03*
X387350Y732790D02*
D03*
X396948Y829038D02*
D03*
X345902Y876365D02*
D03*
X354902Y876365D02*
D03*
X363902Y876365D02*
D03*
X372902Y876365D02*
D03*
X381902Y876365D02*
D03*
X390902Y876365D02*
D03*
X399902Y876365D02*
D03*
X408902Y876366D02*
D03*
X438150Y722630D02*
D03*
X419100Y789940D02*
D03*
X444392Y774219D02*
D03*
X454270Y812680D02*
D03*
X417902Y876366D02*
D03*
X453902D02*
D03*
X462902D02*
D03*
X426902D02*
D03*
X444902D02*
D03*
X435902D02*
D03*
X471902D02*
D03*
X474980Y861060D02*
D03*
X480902Y876366D02*
D03*
X486872Y28710D02*
D03*
X504872D02*
D03*
X495872D02*
D03*
X513872Y28711D02*
D03*
X522872Y28711D02*
D03*
X531872Y28711D02*
D03*
X540872Y28711D02*
D03*
X549872Y28711D02*
D03*
X558872Y28711D02*
D03*
X567872Y28711D02*
D03*
X576872Y28711D02*
D03*
X579050Y188048D02*
D03*
Y196048D02*
D03*
Y172048D02*
D03*
Y212048D02*
D03*
X579321Y267947D02*
D03*
X585872Y28711D02*
D03*
X594872Y28711D02*
D03*
X603872Y28711D02*
D03*
X612872Y28712D02*
D03*
X605050Y168048D02*
D03*
X621872Y28712D02*
D03*
X630872Y28712D02*
D03*
X639872Y28712D02*
D03*
X637051Y192048D02*
D03*
X589050Y200048D02*
D03*
X589080Y256100D02*
D03*
X637050Y200048D02*
D03*
X637050Y216048D02*
D03*
X597050Y232048D02*
D03*
X637050Y232048D02*
D03*
X486475Y326798D02*
D03*
X495696Y358726D02*
D03*
X506332Y340721D02*
D03*
X508767Y369984D02*
D03*
X489800Y377298D02*
D03*
X502920Y370840D02*
D03*
X496753Y400360D02*
D03*
X528626Y331687D02*
D03*
X543123Y341452D02*
D03*
X540550Y361048D02*
D03*
X544175Y279622D02*
D03*
X579050Y284048D02*
D03*
X516040Y387048D02*
D03*
X519298Y415292D02*
D03*
X539050Y380802D02*
D03*
X536041Y399991D02*
D03*
X535918Y420677D02*
D03*
X648872Y28712D02*
D03*
X657872Y28712D02*
D03*
X666872Y28712D02*
D03*
X675872Y28712D02*
D03*
X684872Y28712D02*
D03*
X693872Y28712D02*
D03*
X649051Y158048D02*
D03*
X655051Y172048D02*
D03*
X702872Y28712D02*
D03*
X711872Y28712D02*
D03*
X821685Y12710D02*
D03*
X830685D02*
D03*
X794685D02*
D03*
X812685D02*
D03*
X803685D02*
D03*
X866685D02*
D03*
X875685D02*
D03*
X839685D02*
D03*
X857685D02*
D03*
X848685D02*
D03*
X740685D02*
D03*
X720652Y26738D02*
D03*
X731693Y13090D02*
D03*
X727720Y21165D02*
D03*
X776685Y12710D02*
D03*
X785685D02*
D03*
X749685D02*
D03*
X767685D02*
D03*
X758685D02*
D03*
X884685D02*
D03*
X893685D02*
D03*
X902669Y13241D02*
D03*
X910898Y16887D02*
D03*
X916874Y23616D02*
D03*
X919681Y32167D02*
D03*
X919829Y41166D02*
D03*
Y68166D02*
D03*
Y50166D02*
D03*
Y59166D02*
D03*
Y122166D02*
D03*
X906356Y142856D02*
D03*
X919829Y131166D02*
D03*
X912304Y136102D02*
D03*
X919829Y86166D02*
D03*
Y77166D02*
D03*
Y113166D02*
D03*
Y95166D02*
D03*
Y104166D02*
D03*
X903829Y169519D02*
D03*
X903919Y151520D02*
D03*
X903829Y160519D02*
D03*
Y196519D02*
D03*
Y178519D02*
D03*
Y187519D02*
D03*
X655051Y252048D02*
D03*
Y212048D02*
D03*
Y204048D02*
D03*
X655086Y268061D02*
D03*
X655333Y284500D02*
D03*
X711959Y391931D02*
D03*
X903829Y214519D02*
D03*
Y205519D02*
D03*
Y241519D02*
D03*
Y223519D02*
D03*
Y232519D02*
D03*
Y268519D02*
D03*
Y259519D02*
D03*
Y250519D02*
D03*
X903829Y331519D02*
D03*
Y313519D02*
D03*
Y277519D02*
D03*
Y304519D02*
D03*
Y286519D02*
D03*
Y295519D02*
D03*
Y349519D02*
D03*
Y358519D02*
D03*
Y367519D02*
D03*
Y394519D02*
D03*
Y376519D02*
D03*
Y385519D02*
D03*
X903829Y403519D02*
D03*
Y412519D02*
D03*
X496373Y422734D02*
D03*
X495800Y442307D02*
D03*
X503524Y428644D02*
D03*
X508620Y429298D02*
D03*
X487474Y561713D02*
D03*
X505940Y466904D02*
D03*
X491838Y473710D02*
D03*
X537056Y439189D02*
D03*
X599490Y590550D02*
D03*
X634468Y521011D02*
D03*
X613410Y590550D02*
D03*
X572670Y692377D02*
D03*
X567935D02*
D03*
X507722Y789470D02*
D03*
X489902Y876366D02*
D03*
X498902D02*
D03*
X503287Y802045D02*
D03*
X516902Y876366D02*
D03*
X507902D02*
D03*
X567257Y795118D02*
D03*
X579902Y876366D02*
D03*
X525902D02*
D03*
X543902D02*
D03*
X534902D02*
D03*
X552902D02*
D03*
X570902D02*
D03*
X561902D02*
D03*
X587307Y632509D02*
D03*
X599490Y601980D02*
D03*
Y596900D02*
D03*
Y607060D02*
D03*
X593739Y703960D02*
D03*
Y679960D02*
D03*
Y691960D02*
D03*
X605739Y679960D02*
D03*
X605740Y691958D02*
D03*
X613410Y596900D02*
D03*
Y607060D02*
D03*
Y601980D02*
D03*
X620800Y631664D02*
D03*
X617739Y703960D02*
D03*
Y691960D02*
D03*
Y679960D02*
D03*
X643545Y692377D02*
D03*
X638810D02*
D03*
X605740Y703960D02*
D03*
X598995Y750808D02*
D03*
X588901Y876366D02*
D03*
X598170Y828040D02*
D03*
X597901Y876366D02*
D03*
X611088Y783399D02*
D03*
X606902Y876366D02*
D03*
X613127Y809895D02*
D03*
X615901Y876366D02*
D03*
X624902D02*
D03*
X642901D02*
D03*
X633901D02*
D03*
X786648Y536006D02*
D03*
X788670Y657860D02*
D03*
X903829Y439519D02*
D03*
Y430519D02*
D03*
Y511519D02*
D03*
X793133Y556991D02*
D03*
Y551093D02*
D03*
X793081Y568785D02*
D03*
Y562888D02*
D03*
X903829Y493519D02*
D03*
Y484519D02*
D03*
Y448519D02*
D03*
Y421519D02*
D03*
Y475519D02*
D03*
Y457519D02*
D03*
Y466519D02*
D03*
Y502519D02*
D03*
X903829Y538519D02*
D03*
Y520519D02*
D03*
Y529519D02*
D03*
Y565519D02*
D03*
Y547519D02*
D03*
Y556519D02*
D03*
X829310Y631190D02*
D03*
X838318Y630771D02*
D03*
X798830Y674370D02*
D03*
Y665480D02*
D03*
Y683260D02*
D03*
X829422Y645698D02*
D03*
X838318Y645771D02*
D03*
X903829Y619519D02*
D03*
Y583519D02*
D03*
Y574519D02*
D03*
Y610518D02*
D03*
Y592519D02*
D03*
Y601519D02*
D03*
Y628518D02*
D03*
X903829Y691518D02*
D03*
Y655518D02*
D03*
Y637519D02*
D03*
Y646518D02*
D03*
Y682518D02*
D03*
Y664518D02*
D03*
Y673518D02*
D03*
X711426Y707241D02*
D03*
X716280Y697230D02*
D03*
X675640Y795020D02*
D03*
X736600Y783590D02*
D03*
Y797560D02*
D03*
Y803910D02*
D03*
Y791210D02*
D03*
X657860Y831850D02*
D03*
X696901Y876366D02*
D03*
X705901Y876366D02*
D03*
X717550Y833120D02*
D03*
X651901Y876366D02*
D03*
X660901D02*
D03*
X687901D02*
D03*
X669901D02*
D03*
X678901D02*
D03*
X714897Y876650D02*
D03*
X723279Y879928D02*
D03*
X748030Y842010D02*
D03*
X729410Y886516D02*
D03*
X763250Y892366D02*
D03*
X736250D02*
D03*
X754250D02*
D03*
X745250D02*
D03*
X786130Y718820D02*
D03*
X800100Y697230D02*
D03*
X788011Y770750D02*
D03*
X807720Y721360D02*
D03*
X810078Y707572D02*
D03*
X903829Y700518D02*
D03*
Y727518D02*
D03*
Y709518D02*
D03*
Y718518D02*
D03*
Y745518D02*
D03*
Y736518D02*
D03*
Y754518D02*
D03*
X904767Y763469D02*
D03*
X909184Y771311D02*
D03*
X775970Y795020D02*
D03*
X880250Y892366D02*
D03*
X889250D02*
D03*
X853250D02*
D03*
X871250D02*
D03*
X862250D02*
D03*
X799250D02*
D03*
X808250D02*
D03*
X772250D02*
D03*
X790250D02*
D03*
X781250D02*
D03*
X835250D02*
D03*
X844250D02*
D03*
X817250D02*
D03*
X826250D02*
D03*
X898250Y892388D02*
D03*
X916575Y776447D02*
D03*
X919829Y829837D02*
D03*
Y856837D02*
D03*
Y838837D02*
D03*
Y847837D02*
D03*
Y793837D02*
D03*
Y784837D02*
D03*
Y820837D02*
D03*
Y802837D02*
D03*
Y811837D02*
D03*
X909253Y889212D02*
D03*
X915867Y883108D02*
D03*
X919829Y865837D02*
D03*
X919391Y874827D02*
D03*
X303331Y431480D02*
D03*
X271425Y394717D02*
D03*
X251236Y294637D02*
D03*
X447201Y330626D02*
D03*
X528813Y467772D02*
D03*
X312932Y523381D02*
D03*
X450979Y403340D02*
D03*
X425129Y430057D02*
D03*
X424623Y413850D02*
D03*
X398331Y400818D02*
D03*
X193142Y312375D02*
D03*
X549910Y478790D02*
D03*
X539610Y469298D02*
D03*
X675640Y424180D02*
D03*
X707390Y412750D02*
D03*
Y419100D02*
D03*
X723014Y283215D02*
D03*
X603200Y569517D02*
D03*
X903829Y322519D02*
D03*
Y340519D02*
D03*
X845930Y551070D02*
D03*
X838200Y201449D02*
D03*
X838200Y195580D02*
D03*
X838632Y286881D02*
D03*
Y292131D02*
D03*
X840835Y376482D02*
D03*
X459740Y773430D02*
D03*
X453390D02*
D03*
X525363Y479680D02*
D03*
X814070Y327660D02*
D03*
X808707Y293305D02*
D03*
X795228Y303530D02*
D03*
X283622Y169768D02*
D03*
X284232Y163594D02*
D03*
X317220Y267853D02*
D03*
X322316Y269116D02*
D03*
X317309Y257523D02*
D03*
X334500Y306915D02*
D03*
X331681Y314742D02*
D03*
X297322Y258143D02*
D03*
X327362Y257426D02*
D03*
X287685Y308560D02*
D03*
X361950Y114300D02*
D03*
X317554Y275549D02*
D03*
X302571Y258025D02*
D03*
X305957Y267967D02*
D03*
X311205Y268109D02*
D03*
X289560Y201930D02*
D03*
X589881Y569681D02*
D03*
X722630Y289560D02*
D03*
X648322Y557595D02*
D03*
X622705Y518784D02*
D03*
X609999Y520893D02*
D03*
X614205Y517751D02*
D03*
X834130Y113360D02*
D03*
X201906Y296202D02*
D03*
X188064Y292152D02*
D03*
X745490Y547829D02*
D03*
X742933Y552414D02*
D03*
X201479Y316981D02*
D03*
X219977Y310590D02*
D03*
X214328Y86360D02*
D03*
X754380Y220980D02*
D03*
Y214630D02*
D03*
X748030D02*
D03*
X741680D02*
D03*
X748030Y220980D02*
D03*
X688060D02*
D03*
X681710Y214630D02*
D03*
Y220980D02*
D03*
X688060Y214630D02*
D03*
X694410D02*
D03*
X372893Y165256D02*
D03*
X787400Y149860D02*
D03*
X878840Y213360D02*
D03*
X884090D02*
D03*
X129540Y656590D02*
D03*
Y699770D02*
D03*
Y723900D02*
D03*
X475647Y764158D02*
D03*
X381569Y550990D02*
D03*
X355600Y626110D02*
D03*
X360680D02*
D03*
X491490Y716280D02*
D03*
X518156Y811842D02*
D03*
X172740Y752321D02*
D03*
X788110Y349674D02*
D03*
X819150Y396240D02*
D03*
X811909Y593291D02*
D03*
X825491Y522352D02*
D03*
X732790Y416560D02*
D03*
X184479Y437102D02*
D03*
X199390Y214630D02*
D03*
X136412Y123058D02*
D03*
X186690Y256540D02*
D03*
X365760Y626110D02*
D03*
X569602Y768609D02*
D03*
X618490Y765810D02*
D03*
X654818Y767301D02*
D03*
X628766Y520303D02*
D03*
X487275Y796750D02*
D03*
X557087Y769323D02*
D03*
X204916Y276582D02*
D03*
X482028Y542988D02*
D03*
X676910Y767080D02*
D03*
X365760Y631190D02*
D03*
X360680D02*
D03*
X355600D02*
D03*
X365760Y621030D02*
D03*
X360680D02*
D03*
X355600D02*
D03*
X838010Y421447D02*
D03*
X509330Y477523D02*
D03*
X824580Y425450D02*
D03*
X818330Y425450D02*
D03*
X514574Y477766D02*
D03*
X325120Y114848D02*
D03*
X287223Y268829D02*
D03*
X284724Y264160D02*
D03*
X294527Y280089D02*
D03*
X268862Y235000D02*
D03*
X269391Y270871D02*
D03*
X760730Y259080D02*
D03*
X755332D02*
D03*
X749935D02*
D03*
X744538D02*
D03*
X739140D02*
D03*
X786130Y203200D02*
D03*
X837852Y519643D02*
D03*
X252730Y782320D02*
D03*
X485170Y517194D02*
D03*
X362015Y653406D02*
D03*
X509231Y422648D02*
D03*
X480843Y491009D02*
D03*
X314070Y357740D02*
D03*
X452024Y389812D02*
D03*
X451825Y377669D02*
D03*
X428082Y344745D02*
D03*
X424570Y423058D02*
D03*
X432545Y415207D02*
D03*
X415843Y413685D02*
D03*
X411480Y416127D02*
D03*
X371915Y334127D02*
D03*
X371946Y328827D02*
D03*
X372125Y323580D02*
D03*
X593613Y629173D02*
D03*
X262839Y359410D02*
D03*
X687070Y119380D02*
D03*
X633730Y116264D02*
D03*
X678180Y88900D02*
D03*
X400940Y125414D02*
D03*
X350959Y431544D02*
D03*
X688653Y724769D02*
D03*
X675640Y731943D02*
D03*
Y737870D02*
D03*
Y749723D02*
D03*
Y743797D02*
D03*
X386080Y279400D02*
D03*
X403860Y268445D02*
D03*
X549911Y463637D02*
D03*
X553530Y458884D02*
D03*
X536136Y459219D02*
D03*
X548640Y453390D02*
D03*
X547060Y442377D02*
D03*
X515300Y448798D02*
D03*
X483715Y428201D02*
D03*
X450016Y448424D02*
D03*
X706076Y498700D02*
D03*
X726434D02*
D03*
X719648D02*
D03*
X712862D02*
D03*
X699290D02*
D03*
X387240Y162996D02*
D03*
X617293Y751290D02*
D03*
X611644Y751357D02*
D03*
X418454Y455216D02*
D03*
X443674Y324309D02*
D03*
X440656Y320322D02*
D03*
X560176Y428832D02*
D03*
X588303Y442675D02*
D03*
X603250D02*
D03*
X600710Y458470D02*
D03*
X597819Y465034D02*
D03*
X659130Y546100D02*
D03*
X695970Y578967D02*
D03*
X691350Y519630D02*
D03*
X666750Y519430D02*
D03*
X362723Y261042D02*
D03*
X350520Y262663D02*
D03*
X344170D02*
D03*
X347980Y277506D02*
D03*
X397456Y261425D02*
D03*
X405631Y260720D02*
D03*
X140970Y559348D02*
D03*
X237886Y288398D02*
D03*
X251236Y289092D02*
D03*
X252912Y271099D02*
D03*
X251236Y300908D02*
D03*
X263162Y271671D02*
D03*
X273176Y280583D02*
D03*
X513610Y682150D02*
D03*
X515244Y616908D02*
D03*
Y623258D02*
D03*
X505128Y603378D02*
D03*
X511335Y603086D02*
D03*
X514661Y757879D02*
D03*
X269471Y399590D02*
D03*
X334010Y383540D02*
D03*
X327660Y388620D02*
D03*
X302649Y396240D02*
D03*
X304800Y436880D02*
D03*
X345497Y352218D02*
D03*
X242913Y402182D02*
D03*
Y395339D02*
D03*
X381324Y299063D02*
D03*
X456383Y147966D02*
D03*
X455930Y242570D02*
D03*
X461010Y153670D02*
D03*
X449021Y235000D02*
D03*
X460226Y247271D02*
D03*
X299940Y280875D02*
D03*
X342900Y277756D02*
D03*
X242053Y306432D02*
D03*
X318392Y293853D02*
D03*
X313798Y298616D02*
D03*
X300418Y268118D02*
D03*
X527403Y362386D02*
D03*
X299956Y358138D02*
D03*
X312420Y199390D02*
D03*
X515800Y357798D02*
D03*
X629050Y232048D02*
D03*
Y240048D02*
D03*
X515800Y364298D02*
D03*
X501800Y415942D02*
D03*
X392678Y679973D02*
D03*
X389933Y687776D02*
D03*
X367030Y702310D02*
D03*
Y707390D02*
D03*
X361950Y702310D02*
D03*
Y707390D02*
D03*
X356935D02*
D03*
Y702310D02*
D03*
X226984Y379474D02*
D03*
X588304Y496982D02*
D03*
X588645Y489924D02*
D03*
X590936Y485190D02*
D03*
X589280Y480060D02*
D03*
X595367Y489053D02*
D03*
X599335Y492490D02*
D03*
X565150Y496570D02*
D03*
Y516915D02*
D03*
X668429Y418017D02*
D03*
X285750Y623570D02*
D03*
X267560Y372697D02*
D03*
X263810Y378292D02*
D03*
X431301Y448661D02*
D03*
X430390Y457571D02*
D03*
X321310Y344170D02*
D03*
X331200Y353662D02*
D03*
X287020Y356870D02*
D03*
X281770D02*
D03*
X372109Y318330D02*
D03*
X372783Y307717D02*
D03*
X372772Y312979D02*
D03*
X271625Y333349D02*
D03*
X266589Y341836D02*
D03*
X270552Y348791D02*
D03*
X261817Y327281D02*
D03*
X404766Y520226D02*
D03*
X398100Y520020D02*
D03*
X408340Y527439D02*
D03*
X402735Y515385D02*
D03*
X451738Y530122D02*
D03*
X466344D02*
D03*
X485838Y539178D02*
D03*
X457849Y530122D02*
D03*
X445770Y521970D02*
D03*
X412205Y518497D02*
D03*
X416497Y521905D02*
D03*
X486550Y455798D02*
D03*
X480113Y473950D02*
D03*
X497910Y477534D02*
D03*
X503251Y477470D02*
D03*
X412486Y448660D02*
D03*
X405300Y462310D02*
D03*
X522674Y420260D02*
D03*
X502800Y422661D02*
D03*
X490037Y422707D02*
D03*
X489938Y416298D02*
D03*
X489696Y403048D02*
D03*
X483342Y416393D02*
D03*
X489804Y429402D02*
D03*
X489800Y435798D02*
D03*
X495924Y429298D02*
D03*
X644625Y456897D02*
D03*
X628650Y454660D02*
D03*
X361200Y529460D02*
D03*
X370851Y524750D02*
D03*
X365760Y508000D02*
D03*
X368300Y302260D02*
D03*
X462416Y286247D02*
D03*
X459740Y256540D02*
D03*
X464490Y261878D02*
D03*
X389477Y261142D02*
D03*
X465463Y490362D02*
D03*
X465490Y485085D02*
D03*
X477948Y517105D02*
D03*
X520086Y479706D02*
D03*
X495300Y516890D02*
D03*
X516064Y519810D02*
D03*
X524686Y519356D02*
D03*
X553126Y519439D02*
D03*
X348384Y194864D02*
D03*
X299720Y777240D02*
D03*
X308610D02*
D03*
X317500Y778510D02*
D03*
X521594Y616908D02*
D03*
Y623258D02*
D03*
X160020Y650240D02*
D03*
Y656590D02*
D03*
X161386Y664700D02*
D03*
X623490Y724243D02*
D03*
X598170Y657860D02*
D03*
X586680Y659300D02*
D03*
Y654050D02*
D03*
X574040Y684150D02*
D03*
Y699770D02*
D03*
X477210Y344798D02*
D03*
X468759Y276795D02*
D03*
X341846Y532190D02*
D03*
X389890Y657860D02*
D03*
X373380Y660400D02*
D03*
X377190Y665480D02*
D03*
X262788Y352308D02*
D03*
X292676Y309909D02*
D03*
X204095Y406400D02*
D03*
X249865Y386647D02*
D03*
X318196Y407340D02*
D03*
X595835Y409261D02*
D03*
X322710Y411854D02*
D03*
X377190Y359512D02*
D03*
X345747Y344118D02*
D03*
X342997Y473230D02*
D03*
Y486116D02*
D03*
X428130Y296752D02*
D03*
X432601Y322283D02*
D03*
X435886Y181610D02*
D03*
X261801Y332281D02*
D03*
X254765Y336186D02*
D03*
X239210Y332255D02*
D03*
X247015Y323498D02*
D03*
X264953Y293624D02*
D03*
X292884Y294863D02*
D03*
X255936Y309499D02*
D03*
X290805Y508831D02*
D03*
X276230Y502760D02*
D03*
X226300Y603250D02*
D03*
X312420Y490087D02*
D03*
X296909Y622780D02*
D03*
X290767Y565530D02*
D03*
X280430Y565150D02*
D03*
X271552Y581660D02*
D03*
X252173Y581173D02*
D03*
X241251Y581472D02*
D03*
X245954Y492412D02*
D03*
X240843Y496487D02*
D03*
X197735Y544474D02*
D03*
X202960Y543967D02*
D03*
X212090Y621030D02*
D03*
X318505Y630925D02*
D03*
X295910Y595630D02*
D03*
X193040Y581660D02*
D03*
X343618Y755835D02*
D03*
X366432D02*
D03*
X367030Y712470D02*
D03*
X361950D02*
D03*
X355025Y755835D02*
D03*
X356935Y712470D02*
D03*
X320040Y689610D02*
D03*
X309330Y608330D02*
D03*
X296781Y581859D02*
D03*
X296627Y672483D02*
D03*
X296041Y652803D02*
D03*
X275176Y755835D02*
D03*
X286583D02*
D03*
X287059Y672803D02*
D03*
X277059D02*
D03*
X267059D02*
D03*
X263769Y755835D02*
D03*
X252362Y754046D02*
D03*
X257059Y672803D02*
D03*
X237059D02*
D03*
X227059D02*
D03*
X247059D02*
D03*
X246041Y653330D02*
D03*
X285932Y613564D02*
D03*
X255990Y613090D02*
D03*
X227059Y614177D02*
D03*
X317500Y508000D02*
D03*
X229210Y475628D02*
D03*
X322962Y486536D02*
D03*
X332740Y477520D02*
D03*
X333600Y482699D02*
D03*
X308610Y594360D02*
D03*
X222250Y618490D02*
D03*
X337820Y643890D02*
D03*
X341713Y640368D02*
D03*
X325120Y635000D02*
D03*
X267025Y594710D02*
D03*
X266966Y613334D02*
D03*
X246380Y601980D02*
D03*
X227870Y634137D02*
D03*
X633190Y807946D02*
D03*
X239520Y355809D02*
D03*
X234950Y344170D02*
D03*
X382945Y352012D02*
D03*
X271256Y376650D02*
D03*
X221451Y338152D02*
D03*
X151130Y294640D02*
D03*
X237490Y270720D02*
D03*
X127407Y224579D02*
D03*
X133350Y213360D02*
D03*
X199220Y235000D02*
D03*
X204470D02*
D03*
X292650Y319545D02*
D03*
X821690Y609600D02*
D03*
X816440D02*
D03*
X836829Y609892D02*
D03*
X831535Y609804D02*
D03*
X462345Y758190D02*
D03*
X540867Y525780D02*
D03*
X468182Y341648D02*
D03*
X444310Y383793D02*
D03*
X559120Y671652D02*
D03*
X544830Y766528D02*
D03*
X568960Y679070D02*
D03*
X567075Y712926D02*
D03*
X642325Y679070D02*
D03*
X689660Y556887D02*
D03*
X846903Y522459D02*
D03*
X846839Y533400D02*
D03*
X790602Y758190D02*
D03*
X372658Y290458D02*
D03*
Y296164D02*
D03*
X647812Y518138D02*
D03*
X656598Y489340D02*
D03*
X638857Y518129D02*
D03*
X627590Y657183D02*
D03*
X669510Y505435D02*
D03*
X668701Y500248D02*
D03*
X385038Y263945D02*
D03*
X468706Y251633D02*
D03*
X676473Y558882D02*
D03*
X643061Y489000D02*
D03*
X646477Y492986D02*
D03*
X630419Y489899D02*
D03*
X635949D02*
D03*
X618490Y488950D02*
D03*
X737870Y532130D02*
D03*
X533422Y538921D02*
D03*
X545151Y429612D02*
D03*
X592466Y751191D02*
D03*
X607711Y732033D02*
D03*
X631465Y751565D02*
D03*
X625521Y751984D02*
D03*
X687070Y826770D02*
D03*
X687328Y797061D02*
D03*
X753988Y741680D02*
D03*
X725170Y839535D02*
D03*
X679022Y698700D02*
D03*
X612238Y791172D02*
D03*
X656590Y803910D02*
D03*
X688340Y701867D02*
D03*
X346387Y720544D02*
D03*
X381000Y524750D02*
D03*
X585600Y726910D02*
D03*
X632460Y125670D02*
D03*
X635667Y121514D02*
D03*
X729617Y137400D02*
D03*
X464705Y93520D02*
D03*
X470104D02*
D03*
X364490Y163830D02*
D03*
X376074Y170882D02*
D03*
X394432Y213537D02*
D03*
X328930Y163830D02*
D03*
X257219Y348870D02*
D03*
X454671Y555783D02*
D03*
X138476Y447812D02*
D03*
X491731Y538944D02*
D03*
X520700D02*
D03*
X504190Y539750D02*
D03*
X527149Y538944D02*
D03*
X472440Y523240D02*
D03*
X666750Y574040D02*
D03*
X661670Y568960D02*
D03*
Y574040D02*
D03*
X671830D02*
D03*
X666750Y568960D02*
D03*
X661670Y563880D02*
D03*
X746189Y423241D02*
D03*
X753110Y427990D02*
D03*
X845820Y542290D02*
D03*
X473326Y770315D02*
D03*
X589350Y766528D02*
D03*
X331244Y421068D02*
D03*
X328976Y416334D02*
D03*
X353060Y842250D02*
D03*
X367030Y670560D02*
D03*
X381000Y530000D02*
D03*
X446343Y514647D02*
D03*
X417107Y530122D02*
D03*
X427617Y521680D02*
D03*
X347275Y779230D02*
D03*
X640040Y656368D02*
D03*
Y650618D02*
D03*
X640164Y644992D02*
D03*
X417345Y579833D02*
D03*
X580682Y570130D02*
D03*
X454660Y570230D02*
D03*
X653172Y672426D02*
D03*
X650268Y632460D02*
D03*
X645018D02*
D03*
X356870Y666750D02*
D03*
X344170Y591820D02*
D03*
X347550Y612205D02*
D03*
X357634Y596394D02*
D03*
X448671Y739000D02*
D03*
X342705Y457935D02*
D03*
X568960Y704850D02*
D03*
X522409Y700117D02*
D03*
X516059D02*
D03*
Y693767D02*
D03*
X522409D02*
D03*
X528662Y606510D02*
D03*
X532785Y603196D02*
D03*
X604520Y629920D02*
D03*
X613354Y631721D02*
D03*
X627260Y632089D02*
D03*
X648337Y712368D02*
D03*
X642520Y704850D02*
D03*
X689610Y84650D02*
D03*
X694690Y93485D02*
D03*
X684534Y97735D02*
D03*
X533111Y92364D02*
D03*
X781364Y301230D02*
D03*
X752675Y303090D02*
D03*
X734060Y334010D02*
D03*
Y325175D02*
D03*
Y316341D02*
D03*
X741680Y316285D02*
D03*
Y325120D02*
D03*
Y333955D02*
D03*
X702310Y725826D02*
D03*
Y720742D02*
D03*
X333403Y346144D02*
D03*
X411987Y90933D02*
D03*
X403860Y95518D02*
D03*
X736109Y98533D02*
D03*
X286583Y191617D02*
D03*
X714231Y45847D02*
D03*
X875030Y96520D02*
D03*
X786548Y101451D02*
D03*
X792798Y96201D02*
D03*
X296685Y299483D02*
D03*
X246838Y255607D02*
D03*
X224790Y261620D02*
D03*
X308685Y299509D02*
D03*
X303685Y299560D02*
D03*
X763650Y774065D02*
D03*
X758190Y774255D02*
D03*
X713570Y755650D02*
D03*
X718820D02*
D03*
X702310Y730909D02*
D03*
X725170Y758190D02*
D03*
X730609Y765218D02*
D03*
X735877Y765210D02*
D03*
X761460Y207242D02*
D03*
X756210D02*
D03*
X743659Y695089D02*
D03*
X739320Y229380D02*
D03*
X477055Y410033D02*
D03*
X469837Y395614D02*
D03*
X467051Y368609D02*
D03*
X454325Y363764D02*
D03*
X676771Y569016D02*
D03*
X676473Y563880D02*
D03*
X710862Y647350D02*
D03*
X592574Y728118D02*
D03*
X694690Y673100D02*
D03*
X703580Y646430D02*
D03*
X676910Y574040D02*
D03*
X539750D02*
D03*
X546100D02*
D03*
Y568960D02*
D03*
X539750D02*
D03*
X455207Y576403D02*
D03*
X697564Y412672D02*
D03*
X463800Y390298D02*
D03*
X445008Y397051D02*
D03*
X444357Y390051D02*
D03*
X679450Y662940D02*
D03*
X684530D02*
D03*
X689610D02*
D03*
X694690D02*
D03*
X679450Y668020D02*
D03*
X684530D02*
D03*
X689610D02*
D03*
X694690D02*
D03*
X689610Y673100D02*
D03*
X684530D02*
D03*
X679450D02*
D03*
X553720Y485140D02*
D03*
X539750Y558800D02*
D03*
X546100D02*
D03*
Y563880D02*
D03*
X539750D02*
D03*
X523033Y400180D02*
D03*
X380475Y114611D02*
D03*
X481952Y93520D02*
D03*
X308610Y140970D02*
D03*
X337820Y511810D02*
D03*
X295910Y458470D02*
D03*
X262662Y452233D02*
D03*
X337820Y520700D02*
D03*
X309555Y448940D02*
D03*
X368005Y210842D02*
D03*
X369717Y215805D02*
D03*
X209240Y254960D02*
D03*
X214800Y255270D02*
D03*
X187960Y238576D02*
D03*
X209846Y147320D02*
D03*
X180340Y120650D02*
D03*
X238760Y102870D02*
D03*
X420181Y811104D02*
D03*
X497280Y812113D02*
D03*
X449580Y664210D02*
D03*
X467643Y813505D02*
D03*
X414020Y811530D02*
D03*
X413676Y676305D02*
D03*
X439420Y806450D02*
D03*
X400348Y821052D02*
D03*
X427618Y834762D02*
D03*
X151130Y325120D02*
D03*
X518160Y91440D02*
D03*
X511810D02*
D03*
X825322Y352946D02*
D03*
X378246Y387741D02*
D03*
X689704Y313667D02*
D03*
X685800Y309792D02*
D03*
X681542Y300866D02*
D03*
X690880Y326390D02*
D03*
X638770Y737492D02*
D03*
Y731742D02*
D03*
Y743242D02*
D03*
X661670Y787500D02*
D03*
X133350Y345440D02*
D03*
X518160Y671830D02*
D03*
Y666750D02*
D03*
X523240Y671830D02*
D03*
Y666750D02*
D03*
X528320Y671830D02*
D03*
X523240Y661670D02*
D03*
X518160D02*
D03*
X533400D02*
D03*
Y666750D02*
D03*
Y671830D02*
D03*
X528320Y661670D02*
D03*
Y666750D02*
D03*
X568960Y699770D02*
D03*
Y684150D02*
D03*
X637440D02*
D03*
X642520D02*
D03*
Y699770D02*
D03*
X637440D02*
D03*
X468630Y758190D02*
D03*
X535700Y743797D02*
D03*
Y737870D02*
D03*
Y731943D02*
D03*
X671830Y568960D02*
D03*
Y563880D02*
D03*
Y558800D02*
D03*
X661670D02*
D03*
X666750Y563880D02*
D03*
Y558800D02*
D03*
X195580Y165165D02*
D03*
X200725Y151130D02*
D03*
X696229Y397241D02*
D03*
X616087Y569930D02*
D03*
X568390Y632460D02*
D03*
X563140D02*
D03*
X559792Y408998D02*
D03*
X566109Y413061D02*
D03*
X318862Y308383D02*
D03*
X331631Y328903D02*
D03*
X360680Y140970D02*
D03*
X292685Y329560D02*
D03*
X238203Y435504D02*
D03*
X233085Y434337D02*
D03*
X474980Y648970D02*
D03*
X572440Y646138D02*
D03*
X563434Y622134D02*
D03*
X467672Y516510D02*
D03*
X497590Y530910D02*
D03*
X511570Y528410D02*
D03*
X430763Y514117D02*
D03*
X760730Y835660D02*
D03*
X659130Y809347D02*
D03*
X269240Y457200D02*
D03*
X214630Y78740D02*
D03*
X229922Y73664D02*
D03*
X227330Y69099D02*
D03*
X226958Y63640D02*
D03*
X235946Y73397D02*
D03*
X572440Y657638D02*
D03*
Y651888D02*
D03*
X699296Y492760D02*
D03*
X596559Y417003D02*
D03*
X726440Y434340D02*
D03*
X533400Y773430D02*
D03*
X725170Y556260D02*
D03*
X497233Y549440D02*
D03*
X390792Y437876D02*
D03*
X441740Y586751D02*
D03*
X454986Y589841D02*
D03*
X424504Y455262D02*
D03*
X425140Y442298D02*
D03*
X417985Y442122D02*
D03*
X411726Y429612D02*
D03*
X450800Y416298D02*
D03*
X457200Y416560D02*
D03*
X411060Y471170D02*
D03*
X552450Y553720D02*
D03*
X784860Y712470D02*
D03*
X789875Y299688D02*
D03*
X535700Y749723D02*
D03*
X595170Y779979D02*
D03*
X770890Y648970D02*
D03*
X776140D02*
D03*
X356935Y578321D02*
D03*
X502768Y344840D02*
D03*
X486387Y339933D02*
D03*
X509300Y351298D02*
D03*
X515800Y345056D02*
D03*
Y351298D02*
D03*
X495693Y351454D02*
D03*
X502713Y351232D02*
D03*
X347780Y217696D02*
D03*
X348975Y535940D02*
D03*
Y527699D02*
D03*
X259080Y424180D02*
D03*
X416732Y570103D02*
D03*
X370110Y565498D02*
D03*
X374065Y559153D02*
D03*
X363024Y573480D02*
D03*
X352850Y554538D02*
D03*
X224650Y191014D02*
D03*
X213549Y185641D02*
D03*
X712868Y492760D02*
D03*
X719654D02*
D03*
X726440D02*
D03*
X706082D02*
D03*
X207010Y652780D02*
D03*
X166370Y613410D02*
D03*
X171461Y638113D02*
D03*
X171450Y627380D02*
D03*
X171211Y632869D02*
D03*
X166214Y592200D02*
D03*
X171450Y591820D02*
D03*
X836790Y256881D02*
D03*
Y262131D02*
D03*
X213219Y54976D02*
D03*
X157730Y675640D02*
D03*
Y688340D02*
D03*
X167640Y701040D02*
D03*
X213338Y60547D02*
D03*
X868546Y184362D02*
D03*
Y191848D02*
D03*
Y214306D02*
D03*
Y206820D02*
D03*
X809639Y274941D02*
D03*
X810337Y280144D02*
D03*
X270065Y428601D02*
D03*
X878840Y290830D02*
D03*
Y284480D02*
D03*
X810260Y288290D02*
D03*
X246380Y214630D02*
D03*
X786130Y579120D02*
D03*
X515797Y422802D02*
D03*
X447621Y344724D02*
D03*
X457040Y403732D02*
D03*
X457200Y396240D02*
D03*
X463940Y409701D02*
D03*
X588302Y417381D02*
D03*
X411300Y439810D02*
D03*
X396584Y442180D02*
D03*
X391984Y416599D02*
D03*
X523901Y439172D02*
D03*
X522300Y449310D02*
D03*
X508301Y448443D02*
D03*
X502676Y448525D02*
D03*
X502920Y441960D02*
D03*
X489412Y442521D02*
D03*
X542402Y477408D02*
D03*
X516028Y442036D02*
D03*
X418301Y436310D02*
D03*
X476800Y390298D02*
D03*
Y383798D02*
D03*
X476862Y377052D02*
D03*
X483301Y370798D02*
D03*
X467118Y455510D02*
D03*
X448310Y478790D02*
D03*
X448576Y456479D02*
D03*
X480801Y437387D02*
D03*
X800100Y604520D02*
D03*
X792480D02*
D03*
X800100Y610870D02*
D03*
X792480D02*
D03*
X800100Y617220D02*
D03*
Y623570D02*
D03*
X395479Y389074D02*
D03*
X452468Y435915D02*
D03*
X529027Y461798D02*
D03*
X463822Y383735D02*
D03*
X427503Y386941D02*
D03*
X505789Y455981D02*
D03*
X281940Y779780D02*
D03*
X270510D02*
D03*
X336550Y779230D02*
D03*
X292493Y779780D02*
D03*
X348168Y211254D02*
D03*
X360829Y211290D02*
D03*
X311508Y315737D02*
D03*
X297683Y314560D02*
D03*
X297685Y309560D02*
D03*
Y304560D02*
D03*
X302685Y314560D02*
D03*
Y309560D02*
D03*
Y304560D02*
D03*
X655051Y240048D02*
D03*
X516312Y429298D02*
D03*
X470376Y409738D02*
D03*
X495880Y461809D02*
D03*
X496050Y455436D02*
D03*
X285990Y683512D02*
D03*
X529590Y326390D02*
D03*
X444419Y435728D02*
D03*
X516169Y435672D02*
D03*
X437800Y377810D02*
D03*
X435682Y400016D02*
D03*
X427622Y392750D02*
D03*
X424800Y377298D02*
D03*
Y370798D02*
D03*
X418218Y351352D02*
D03*
X405741Y364146D02*
D03*
X411827Y351464D02*
D03*
X418301Y376787D02*
D03*
X444500Y364490D02*
D03*
X437898Y344398D02*
D03*
X437777Y338185D02*
D03*
X431800Y352547D02*
D03*
X444245Y350851D02*
D03*
X430789Y422798D02*
D03*
X451507Y396953D02*
D03*
X287685Y289560D02*
D03*
X297670Y319569D02*
D03*
X308862Y308383D02*
D03*
X302685Y324560D02*
D03*
X312585Y324945D02*
D03*
X431301Y364298D02*
D03*
X437800D02*
D03*
X508620Y442163D02*
D03*
X579050Y260048D02*
D03*
X655156Y260018D02*
D03*
X589050Y216048D02*
D03*
X503300Y386873D02*
D03*
X506050Y327798D02*
D03*
X579050Y276048D02*
D03*
X502977Y357498D02*
D03*
X489800Y370798D02*
D03*
X525550Y380802D02*
D03*
X483301Y383798D02*
D03*
X509300Y357798D02*
D03*
X496301Y364298D02*
D03*
X589050Y232048D02*
D03*
X637051Y240048D02*
D03*
X543952Y297991D02*
D03*
X641050Y158048D02*
D03*
X655051Y180048D02*
D03*
X645051Y192048D02*
D03*
X579050Y164048D02*
D03*
X655051Y220048D02*
D03*
X629050Y208048D02*
D03*
X655051Y196048D02*
D03*
X476572Y364070D02*
D03*
X528801Y338298D02*
D03*
X579050Y204048D02*
D03*
Y180048D02*
D03*
X589050Y184048D02*
D03*
Y176048D02*
D03*
X655333Y275596D02*
D03*
X437800Y435798D02*
D03*
X431301Y442298D02*
D03*
X408118Y380298D02*
D03*
X410282Y361978D02*
D03*
X444300Y429298D02*
D03*
X431301Y357798D02*
D03*
X424800D02*
D03*
X411407Y399993D02*
D03*
X405575Y338751D02*
D03*
X472190Y358024D02*
D03*
X572440Y731742D02*
D03*
Y737492D02*
D03*
Y743242D02*
D03*
X597050Y240048D02*
D03*
X645050Y248048D02*
D03*
X579050Y220048D02*
D03*
X534759Y341183D02*
D03*
X605050Y232048D02*
D03*
X589050Y248048D02*
D03*
X522051Y351548D02*
D03*
X645050Y232048D02*
D03*
X605050Y240048D02*
D03*
X484072Y364804D02*
D03*
X596800Y255798D02*
D03*
X521050Y386873D02*
D03*
X645050Y256048D02*
D03*
X489775Y351261D02*
D03*
X597051Y248048D02*
D03*
X515800Y370798D02*
D03*
X629051Y248048D02*
D03*
X483301Y396798D02*
D03*
X655051Y295798D02*
D03*
X528496Y351679D02*
D03*
X597050Y288048D02*
D03*
X637050Y256048D02*
D03*
X509074Y377484D02*
D03*
X652551Y280048D02*
D03*
X483301Y390298D02*
D03*
X522300Y364298D02*
D03*
X637051Y248048D02*
D03*
X597050Y280048D02*
D03*
X655051Y289798D02*
D03*
X528496Y344631D02*
D03*
X589311Y280048D02*
D03*
X645050Y272048D02*
D03*
X496403Y383764D02*
D03*
X589050Y272048D02*
D03*
X496301Y377298D02*
D03*
X645050Y264048D02*
D03*
X589050Y264048D02*
D03*
X597050Y272048D02*
D03*
X637050Y264048D02*
D03*
X502574Y377234D02*
D03*
X597050Y264048D02*
D03*
X702310Y715659D02*
D03*
X731583Y658307D02*
D03*
X755532Y658270D02*
D03*
X731415Y682810D02*
D03*
X755708Y682997D02*
D03*
X759558Y735455D02*
D03*
X765128Y741680D02*
D03*
X861060Y688340D02*
D03*
Y673368D02*
D03*
Y680854D02*
D03*
X868546Y688340D02*
D03*
Y673368D02*
D03*
Y680854D02*
D03*
X861060Y695826D02*
D03*
X868546D02*
D03*
X861060Y665882D02*
D03*
X868546D02*
D03*
X861060Y214306D02*
D03*
Y206820D02*
D03*
Y191848D02*
D03*
Y184362D02*
D03*
X753110Y694690D02*
D03*
X718003Y705348D02*
D03*
D160*
X233680Y813940D02*
D03*
D161*
X893000Y50000D02*
D03*
Y850000D02*
D03*
X35700Y824600D02*
D03*
Y88000D02*
D03*
D162*
X276230Y502760D02*
X328770D01*
X337820Y511810D01*
M02*
