M48
;Layer_Color=0
;FILE_FORMAT=4:3
METRIC,TZ
;TYPE=PLATED
T01F00S00C0.200
T02F00S00C0.900
T03F00S00C1.100
T04F00S00C3.180
T05F00S00C4.400
;TYPE=NON_PLATED
T06F00S00C0.760
T07F00S00C1.190
%
T01
X1765Y1558
X2100Y2100
X1223Y2276
X1017Y3153
X1017Y4053
Y4953
Y5853
Y6753
Y7653
Y8552
Y9453
X2100Y12100
X4600
X7100
X9600
X12100
X10850Y9600
X8350
X9600Y7100
X12100
X10850Y4600
X8350
X5850
X3350
X3443Y1017
X4343
X5243
X6143
X7043
X7943
X8843
X9743
X10643
X11543
X12443
X13343
X14243
X12100Y2100
X9600
X7100
X4600
X2548Y1114
X7100Y7100
X16374Y11090
Y12090
X17100Y12100
X16383Y13081
Y14081
X19685
Y13081
X19600Y12100
X21663Y10839
X21823Y10012
X21058Y10230
X21288Y9403
X20850Y4600
X20822Y2359
X21687Y2607
X22587Y2617
X23487
X24387
X25287
X26187
X27087
X27987
X28887
X29787
X30687
X31587
X32487
X33387
X34287
X35187
X36087
X36987
X37887
X38787
X39687
X40587
X41487
X42387
X43287
X44187
X45087
X45987
X46887
X47787
X48687
X49587
X50487
X51387Y2617
X52287Y2617
X53187Y2617
X52064Y5109
X51248Y5121
X46682Y5109
X45903Y5121
X41337Y5109
X40521Y5121
X40850Y4600
X38350
X35954Y5109
X35138Y5121
X33123Y7355
X29370Y7209
X29718Y5121
X30572Y5109
X25152Y5109
X23350Y4600
X20150Y1761
X19643Y1017
X18743
X17843
X16943
X16043
X15143
X26260Y11109
X25400Y12065
X27100Y12100
X27432Y14224
X28344Y14236
X29600Y12100
X29376Y10187
X35850Y9600
X38220Y9779
X38707Y10336
X39600Y12100
X42100
X44600
X47100
X49600
X52100
X48260Y7366
X44773Y9636
X43350Y9600
X40850
X34600Y12100
X54600
X57971Y12044
X58734
X59496
X60259
X60708Y9407
X59193Y9407
X57715Y9407
X56218
X56631Y5121
X57447Y5109
X57687Y2617
X56787Y2617
X55887Y2617
X54987Y2617
X54087Y2617
X58587Y2617
X59487Y2617
X60387Y2617
X61287Y2617
X62187Y2617
X63087Y2617
X63987Y2617
X64887Y2617
X65787Y2617
X66687Y2617
X67587Y2617
X68487Y2617
X69387Y2617
X70287Y2617
X71187Y2617
X72065Y2420
X72772Y1862
X73169Y1055
X74069Y1017
X74969
X75869
X76769
X77669
X78569
X79469
X80369
X81269
X82169
X83069
X83969
X84869
X85769
X86669
X87569
X88469
X89369
X90267Y1070
X91090Y1435
X91687Y2108
X91968Y2963
X91983Y3863
Y4763
Y5663
Y6563
Y7463
Y8363
Y9263
Y10163
Y11063
Y11963
Y12863
X91230Y13356
X90636Y14032
X89600Y12100
X90850Y9600
X88350
X84600Y12100
X80391Y11430
Y13589
X77204Y10187
X76171
X75137
X74104Y10186
X72009Y10795
X71628Y12065
X72390Y12573
X70739Y11430
X65850Y9600
X65151Y9144
Y8255
X63350Y9600
X62869Y5110
X62013Y5121
X67435Y5122
X70850Y4600
X80850
X83350
X85850
X87100Y2100
X84600
X82100
X79600
Y7100
X82100
X84600
X85850Y14600
X83350
X80850
X79600Y17100
X80850Y19600
X83350
X86106Y19185
Y18436
X86855
Y19185
Y20682
X86106
Y21431
X86855
X86360Y23749
X85852Y24384
X86360Y25146
X85852Y25908
X87122
Y24511
X88350Y24600
X90383Y24798
Y25698
Y26598
X90383Y27498
Y28398
Y29298
Y30198
Y31098
Y31998
Y32898
Y33798
Y34698
Y35598
Y36498
Y37398
Y38298
Y39198
X90383Y40098
Y40998
Y41898
Y42798
Y43698
Y44598
Y45498
Y46398
Y47298
Y48198
Y49098
Y49998
Y50898
X90383Y51798
Y52698
Y53598
X89600Y52100
X88350Y49600
X89600Y47100
X88350Y44600
X89600Y42100
X88350Y39600
X89600Y37100
X88350Y34600
X85725Y35636
X84455Y37592
X83350Y39600
Y44600
X84600Y52100
X73350Y49600
Y44600
Y34600
X74316Y33401
X75205
X76454
X77343
X79600Y32100
X82100
X84600
X83350Y34600
X83264Y29083
Y27940
Y26670
Y25213
X83693Y22860
X89600Y22100
X90383Y22098
Y22998
Y23898
Y21198
Y20298
Y19398
Y18498
Y17598
Y16698
Y15798
X90392Y14898
X87100Y17100
X84600
X74676Y14986
X71120Y17145
Y18161
Y19304
X72619Y20650
X73558Y20625
Y23214
X72619Y23189
X72964Y25881
X70850Y24600
X69600Y27100
X68350Y29600
X69600Y32100
X68350Y34600
Y39600
X66929Y40259
X65434Y41863
X64917Y42267
X63904Y46236
X64600Y47100
X61722Y48387
Y49276
Y50165
X60419Y52322
X59515Y51618
X57277Y51308
X55880Y50546
Y49657
X55867Y48929
X55868Y48223
X56464Y47570
Y47045
X56524Y46253
Y45728
X58411Y47643
X58402Y48280
X58258Y48983
X57229Y48971
X63881Y52324
X61378Y32837
Y32237
Y31662
X61028Y31262
X61378Y30862
X61278Y30062
Y29262
Y28462
X61226Y27262
X60278Y28062
X59478Y28062
X58678
X58666Y27241
Y26441
X59478Y26462
Y27262
X59478Y28862
X60278Y28862
X60278Y29662
X60278Y30462
X59478Y29662
X60278Y26462
X61251Y25262
Y24462
Y23662
Y22862
X60278Y22462
Y21662
X61251Y21233
Y20449
X60715Y19173
X59857Y19187
X59478Y23262
Y24862
X58678Y24062
X56278Y26462
Y27262
X55478Y27262
X55478Y26462
X54678
X54678Y28062
X55478Y28062
X55453Y28837
X54718Y28864
X54678Y29662
X55478Y29662
X55478Y30462
X54678
X54710Y31267
X55478Y31262
Y32062
X54651Y24835
X54678Y23262
X54678Y21662
X54678Y20862
X56278Y20062
X68350Y19600
X69600Y22100
Y17100
X67100
X68350Y14600
X63477Y27281
X73879Y28545
X75179
X76479
X77779
Y29845
X76479
X75179
X73879
X77100Y27100
X80850Y29600
X88350
X89600Y27100
X53678Y25262
Y24462
Y23662
Y22862
Y22062
X53690Y21277
X53678Y20462
Y19662
Y29262
Y30062
X53650Y30879
X53630Y31668
X50258Y31211
X50464Y34196
X50121Y37292
X49353Y37287
X48653Y37087
X48665Y36437
X48651Y35833
X48628Y37750
X48610Y38452
X47978Y38412
X47353Y38387
X47334Y37759
X46703Y38387
X46065Y38387
X46053Y39037
X46703
X47353Y39037
Y39687
Y40311
X46703
X46053Y40337
X46034Y40973
X45403Y40987
X44753Y40987
X44129Y40990
X44103Y40337
X44753Y40337
X44158Y39691
X43431Y39684
X43430Y38417
X44753Y38360
X44461Y37687
X45359Y37742
X46094Y37712
X46419Y37325
X46406Y36037
X44464Y36387
X43737
X42451Y36347
X42443Y37692
X41181Y38243
X40203Y38387
Y39037
X39553Y39687
X38903
X38253
Y39037
X38903
X38578Y37687
X37625Y37737
X36923Y37755
X36953Y38387
X36909Y39343
X36949Y40329
X37600
X37663Y41079
X38253Y40987
X38903
X39553
X40203
Y40337
X40813Y40333
X41178Y39637
X42478Y40137
X42170Y40992
X42153Y42287
X42803
X44103
X44095Y41655
X43453Y41637
X44103Y42937
X44758Y43579
X45492Y43339
X46836Y43305
X48040Y43303
X49413Y43285
X49514Y45132
X48153Y45212
X47348Y44357
X46253Y44562
X46111Y45608
X45403Y45537
Y46139
X44753Y46187
X44103
Y45537
X43453Y45537
X43463Y44878
X42803Y44887
X42153
Y44237
X42154Y43625
X42775Y43599
X41456Y43590
X40853Y42912
Y42287
Y41637
X41503
X38862Y42042
X38608Y42799
X39503Y43236
X38872Y44537
X37603
X37074Y44533
X36903Y45209
X35603
X34544Y44577
X35603Y43239
X36903
X37488Y42042
X36875Y41332
X35554Y41319
X36303Y40387
X35626Y39339
X35959Y36367
X38578Y36387
X40307Y36342
X40342Y37711
X39553Y37737
X37315Y33924
X37524Y31129
X38561Y31478
X38581Y30755
X39243Y30734
Y29464
X40513Y30607
X39878Y31496
X43008Y31326
X43471Y33892
X42395Y33856
X41783Y28956
X40007Y27686
X40472Y27063
X39560Y23756
X39600Y22100
X38005Y23112
X37338Y22606
X37050Y21791
X36175Y20479
X35900Y19773
Y18773
X33924Y18796
Y17773
X33786Y16017
X32702Y16831
X31962Y17846
X32026Y18861
X30861Y19773
X28900
Y20773
Y21773
X29863Y21761
X30881
X31897Y22741
X31900Y23773
X31900Y24773
Y25773
X30998Y25918
X28938Y25773
Y26789
X29600Y27100
X28938Y27940
X28900Y24773
Y23773
Y22773
X26900Y22773
X26900Y23773
X25900
X26900Y24773
X26900Y21773
X26900Y20773
Y19773
Y18773
Y17773
X28900
Y18773
X29600Y17100
X30861Y17773
X32892Y20720
X33881Y20755
X33900Y22773
X34900Y22773
X33960Y23820
Y25766
X35886Y25745
X35907Y24757
X36750Y26230
X36111Y28921
X33669Y29391
X33020Y29853
Y28194
X32913Y22708
X29958Y23776
X21336Y23622
X21590Y22225
X20587Y21780
X19405Y23733
X16637Y23114
Y22225
X15850Y19600
X16319Y18796
X16321Y17947
X16302Y17323
X16383Y16129
Y15113
X15850Y14600
X19050Y15099
Y16129
X22211Y19848
X20647Y27601
X18215
X15533Y27912
Y28437
X15511Y26263
Y25738
X17526Y31369
X21347Y31330
X18350Y34600
X15850
X14600Y42100
X19600
X18350Y44600
X22860Y45066
X23350Y44600
X22860Y46143
Y47117
X24438Y50588
X26870
X30607Y50927
X30226Y51562
Y52832
X32258Y52197
X34798Y51816
X37340Y51614
X39062Y51555
X38417Y50751
X38576Y50262
X38616Y48941
X38903Y48137
X38253
Y47487
X38903
Y46837
X38892Y46207
X39542
X40203Y46187
Y46837
Y47487
X40202Y48120
X39553Y48137
X40165Y48777
X41255Y48693
X41211Y48171
X41189Y46887
X40851Y45533
X40213
X40203Y44887
X40853
X42478Y46237
X43778Y46887
X44808Y46869
X44726Y47495
X45435Y48128
X45432Y48787
X46736Y48768
X46743Y48145
X47353Y47487
Y46837
X46703
X46093Y47430
X48093Y47187
X49353Y47162
X49303Y49437
X48653
X51092Y49911
X51634Y49279
X51562Y48006
X53380Y48009
X53340Y48641
X53339Y50455
X52832Y44450
X53594Y43840
X51562Y43824
X51689Y45085
X47361Y46193
X47401Y41956
X47902
X48391Y41390
X49628Y41303
X49788Y39375
X48394Y39393
X47979Y39703
X45403Y39687
Y39046
X45412Y41632
X46103Y41956
X46664Y41013
X44092Y44235
X43778Y48187
X42478Y50187
X40535Y50205
X36303Y49437
X35693Y49474
X35603Y47152
X36903
X37603Y46837
X38266Y46149
X34311Y48341
X32250Y48641
X30607Y49657
X30353Y47124
X29817Y46765
X30395Y46101
X30480Y44831
X30631Y44201
X29337Y45466
X28350Y44600
X27813Y45066
X26798Y44806
X27559Y46609
X29038Y47428
X29464Y48006
X30099Y41656
X29591Y40640
X28401Y41019
X27686Y40132
X28448Y39243
X27119Y38218
X25058Y38588
X24003Y38608
X24538Y36324
X25864Y36833
X29600Y37100
X32100
X32385Y35687
Y33528
X29303Y33952
X27178Y33020
X27100Y32100
X24600Y40977
X25285Y43491
X32100Y42100
X33020Y42291
X21390Y51605
X21821Y52195
X21971Y53721
X14600Y52100
X46230Y52130
X47533Y51346
X40767Y17526
X39600Y17100
X38350Y19600
X13350Y24600
X9600Y22100
X7100
X4600
Y27100
X7100
X4600Y32100
X13350Y34600
Y44600
Y14600
X9600Y17100
X7100
X4600
X12579Y60897
X12839Y62823
X12941Y64152
X13350Y79600
X10850
X8350
X5850
X7100Y82100
X9600
X12100
X13350Y84600
X10850
X8350
X9600Y87100
X10002Y88983
X9102
X8202
X7302
X6402
X5502
X4602
X3702
X2803Y88947
X1971Y88604
X1350Y87953
X1037Y87108
X1017Y86209
Y85309
Y84409
Y83509
Y82609
Y81709
X2100Y87100
X4600
X7100
X12100
X11802Y88983
X12702
X13602
X10902
X14502
X15402
X16302
X17202
X18102
X19002
X19874Y88760
X20339Y87989
X21099Y87508
X21990Y87382
X22890Y87382
X23790Y87382
X24690Y87382
X25590Y87382
X26490Y87382
X27390Y87382
X28290Y87382
X29190Y87382
X30090Y87382
X30990Y87382
X31890Y87382
X32790Y87382
X33690Y87382
X34590Y87382
X35490Y87382
X36390Y87383
X37290Y87383
X38190Y87383
X39090Y87383
X39990Y87383
X40890Y87383
X41790Y87383
X42690
X43590
X44490
X45390
X46290
X47190
X48090
X48990
X49890
X50790
X51690
X52590
X53490
X53350Y84600
X50850
Y79600
X48350
X46932Y79822
X46939Y79197
X46737Y77564
X47262
X48117Y76662
Y76137
X48350Y74600
X49709Y73901
Y73376
X49911Y71755
X52100Y72100
X53772Y73584
X53467Y74193
X53830Y74824
X53470Y75324
X53830Y75855
X52578Y77216
X48260Y81534
X46364Y81384
X45104Y81395
X43888Y81385
X41658Y79373
X39116Y79375
X39600Y77100
X39040Y74828
X37338Y75692
X37100Y72100
X34600
X32100
X31928Y70057
X33373Y70642
X33875Y69039
X33872Y67205
X31868Y67064
Y68064
X29868
X29868Y69064
Y70064
X28966Y70209
X26906Y70064
X26868Y69064
Y68064
Y67064
Y66064
X27831Y66052
X26868Y65064
Y64064
X26868Y63064
Y62064
X24868
Y63064
Y64064
Y65064
X24868Y66064
X24868Y67064
X24868Y68064
X23868
X24868Y69064
X22481Y69699
X21456
X20575Y67646
Y66774
X22100Y67100
X20850Y64600
X17018Y65151
X16270Y65174
X15995Y66191
X16002Y67183
X17100Y67100
X15850Y69600
X17100Y72100
X19600
X22100
X24600
X27100
X29600
X29868Y67014
X31831Y66052
X31849Y65046
X30860Y65011
X29994Y63152
X29930Y62137
X29845Y59690
X28915Y59720
X28350Y59600
X26312Y59741
X25380
X23350Y59600
Y54600
X20320Y55372
X19058Y54750
X18350Y54600
X19496Y54103
X15850Y54600
X16002Y55880
X16302Y59799
X16827Y59807
X17653Y59944
X17018Y60833
X15479Y60421
X15869Y62147
X14600Y72100
Y77100
X18843Y76309
X22100Y77100
X24550Y77529
X23749Y75184
X25930Y79373
X27057Y79478
X28157
X29257
X30357
X31457
X32557
X33657
X34757
X31448Y77074
X30338Y77091
X30850Y84600
X32993Y84253
X35850Y84600
X38350
X42034Y83860
X45850Y84600
X45974Y73660
X46482Y73152
X46959Y73626
X46968Y72610
X45960
X46534Y69553
X48387Y69977
X43847Y70419
X43845Y69498
X42545Y69469
X42672Y67564
X43576Y67571
X46372Y65910
X46609Y61976
X46663Y61152
X46678Y60368
X44552Y60346
X44552Y61384
X44556Y62551
X42844Y63007
X42672Y64008
X42426Y60863
X43999Y59058
X43060Y57404
X43307Y56642
X41492Y56545
X40670Y56292
X40317Y55860
X40373Y55013
X38481Y54864
X37329Y57520
X36935Y58015
X36330Y58016
X36373Y58603
X35761Y58593
X34925Y58039
X33655Y58674
X32269Y58687
X32100Y57100
X30850Y54600
X27100Y57100
X35941Y56680
X34600Y62100
X33868Y63064
Y64064
X34143Y64770
X34961Y66132
X38350Y64600
Y69600
X41656Y72136
X41885Y73076
X41656Y75311
X51907Y66876
X51898Y64467
X51871Y63547
X50629Y62353
X48455Y62586
X49403Y58801
X48667Y57148
X48622Y56526
X46987Y56385
X45847Y56896
X48212Y54955
X49025Y54353
X49562Y54878
X50292Y54356
X53848Y61087
X27926Y68067
X28350Y84600
X25850
X23350
X20850
X19600Y87100
X17100
X14600
X54390Y87383
X55290
X56190
X57090
X57990
X58890
X59790
X60690
X61590
X62490
X63390
X64290
X65190
X66090
X66990
X67890
X68790
X69690
X70590Y87383
X71490Y87411
X72100Y87100
X72328Y87739
X72941Y88398
X73625Y88983
X74525
X75425
X76325
X77225
X78125
X79025
X79925
X80825
X81725
X82625
X83525
X84425
X85325
X86225
X87125
X88025
X88925
X89825Y88985
X90925Y88667
X91587Y88057
X91939Y87229
X91983Y86330
Y85430
Y84530
Y83630
Y82730
Y81830
Y80930
Y80030
Y79130
Y78230
X91657Y77391
X90918Y76877
X90477Y76093
X90383Y75198
Y74298
Y73398
Y72498
Y71598
Y70698
Y69798
Y68898
Y67998
Y67098
X89600Y67100
X90383Y66198
Y65298
Y64398
Y63498
X90383Y62598
Y61698
Y60798
Y59898
Y58998
Y58098
Y57198
X89600Y57100
X90383Y56298
Y55398
Y54498
X88350Y54600
Y59600
X89600Y62100
X88350Y64600
X86233Y64389
Y62865
X83832Y62823
X82931Y62865
X82942Y64316
X83832Y64323
X81818Y64450
X81293Y64456
X79883Y66294
Y67183
Y68072
X80010Y69469
X80850Y69600
X81008Y70503
X81026Y71755
X80264
X79375
X78531Y71771
X80137Y72517
X79677Y73552
X77070Y73545
X75956
X75399Y74168
X76513
X78787Y75791
X78801Y76821
X77166Y77589
Y78114
X77216Y79747
Y80272
X77100Y82100
X74600
X74422Y80260
X74429Y79735
X74422Y78101
X74429Y77576
X72771Y75819
X70850Y74600
X71060Y73091
Y72583
Y72074
Y71566
X71123Y70588
X71800Y70535
X71628Y69469
X70612Y67945
Y67437
Y66929
Y66420
X73158Y65831
X75553Y65827
X75571Y68300
X75277Y69438
X74314Y69509
X73141Y68281
X72504Y62637
Y62128
Y61620
Y61112
X73406Y59182
Y58166
Y57150
X72100Y57100
X68671Y57381
Y58041
X68644Y58702
X68350Y59600
X70850
X71838Y63281
X76600Y63400
X77800
X78867Y65532
X81583Y67740
Y68265
X86106Y68085
X86855
Y67337
Y66588
X86106
Y67337
Y68834
Y69583
X86855
Y68834
X88350Y69600
X87100Y72100
X84600
X85850Y74600
X88350
X89600Y77100
X87100
X84600
X85850Y79600
X88350
X90850
X87100Y82100
X85850Y84600
X84600Y87100
X82100
X79600
X77100
X74600
X75850Y84600
X73350
X70850
X68350
X66395Y82883
X65492Y82879
X61987Y84110
X60896Y84145
X57600Y82888
X56838Y82879
X55850Y84600
X54600Y82100
X54757Y77939
X55293Y77933
X56147Y76653
X53975Y76581
X58065Y76172
Y75597
Y75022
X59612Y74395
X60110Y74782
X60160Y76468
X59563Y76463
X59755Y77851
X59230
X60745Y78425
X62484Y78105
X63505Y77851
X64030
X64018Y76565
X63141Y76454
X62556
X61849Y76073
X61852Y75207
X61563Y74418
X62157Y74405
X62599Y74803
X64781Y74965
Y75565
Y76140
X65906Y78211
X67866Y77724
X68391
X69373Y78277
X68870Y76581
X69018Y75927
X69346Y75411
X69026Y74897
X69378Y74193
X69074Y73584
X66216Y73165
X65766
X65291
X65016Y72243
Y71794
X64551Y71794
X64632Y70997
X65216
X65841
X66466
X65016Y70196
Y69772
X64580Y70173
X65291Y68822
X65766
X66216
X64781Y66965
Y66390
Y65815
Y65215
X62800Y65312
X62670Y64287
X62050
X61430Y64268
X60810
X60071Y64262
X59456Y64155
X58829Y65113
X58065Y65272
Y65847
Y66422
Y67022
X59012Y67712
X57421Y68822
X56946
X56496
X57696Y69743
Y70193
X58146
X58121Y70990
X57496
X56871
X56246
X57696Y71790
Y72215
X58146Y71790
X57421Y73165
X56946
X56496
X60156Y72193
Y70993
Y69793
X61356
X61356Y70993
X62556Y70993
Y72193
X61356
X62556Y69793
X63519Y67585
X61223Y65317
X60233
X58532Y62244
X58007Y62247
X57100Y62100
X57860Y59177
X59130Y57431
X59310Y55827
X58270Y55818
X61044Y55848
X60579Y55118
X62039Y54603
X62939
X64135Y54795
X65151Y54785
X64115Y57247
X64579Y58442
X65459Y58429
X66563Y57404
X67223
X67798Y57412
X64831Y62247
X64306Y62244
X62195Y60912
X61427Y60192
X60686Y59471
X60706Y60960
X56312Y57412
X55651Y57404
X54991
X53993Y57381
Y58041
Y58702
X53975Y56388
Y66167
X57270Y78211
X61321Y79945
X70850Y79600
X72100Y82100
X69600
X75856Y59860
X77200Y59800
X78130Y59944
X78127Y59085
X80296Y56499
X80667Y56128
X80399Y55489
X80771Y55118
T02
X3570Y13880
X6110
X8650
X11190
Y16420
X8650
X6110
X3570
Y18960
X6110
Y21500
X3570
Y24040
X6110
Y26580
Y29120
Y31660
X3570
Y34200
X6110
Y36740
X3570
Y39280
X6110
Y41820
Y44360
Y46900
Y49440
X3570
Y51980
X6110
X8650
Y49440
Y46900
Y44360
Y41820
Y39280
Y36740
Y34200
Y31660
X11190
Y34200
Y36740
Y39280
Y41820
Y44360
Y46900
Y49440
Y51980
X3570Y46900
Y44360
Y41820
Y29120
Y26580
X8650
Y24040
Y21500
X11190
Y18960
X8650
X11190Y24040
Y26580
Y29120
X8650
Y54520
X6110
X3570
Y57060
X6110
Y59600
X3570
Y62140
X6110
Y64680
X3570
Y67220
X6110
Y69760
Y72300
X3570
Y74840
X6110
Y77380
X3570
X8650
Y74840
Y72300
X11190
Y74840
Y77380
Y69760
Y67220
Y64680
X8650
Y62140
Y59600
Y57060
X11190
Y54520
Y59600
Y62140
X8650Y67220
Y69760
X3570
T03
X69469Y34925
Y37465
Y40005
Y42545
Y45085
Y47625
Y50165
Y52705
X82554Y74422
Y76962
T04
X3570Y8800
X89300Y5000
X3570Y82460
X89300Y85000
T05
X16720Y4600
X75720
Y38600
X81640Y48410
X16900
X16720Y38600
X16900Y82670
X81640
T06
X16615Y58210
Y74210
T07
X19420Y11100
Y20100
M30
