G04*
G04 #@! TF.GenerationSoftware,Altium Limited,Altium Designer,24.1.2 (44)*
G04*
G04 Layer_Color=255*
%FSLAX44Y44*%
%MOMM*%
G71*
G04*
G04 #@! TF.SameCoordinates,27C4CC1B-1F39-4CC3-9493-EFA3B80F4B77*
G04*
G04*
G04 #@! TF.FilePolarity,Positive*
G04*
G01*
G75*
%ADD24R,1.0414X0.6604*%
%ADD32R,0.4572X1.3716*%
%ADD33R,1.4224X1.5494*%
%ADD34R,1.6510X1.2954*%
%ADD35R,1.8034X1.9050*%
%ADD36R,0.9906X1.9050*%
G04:AMPARAMS|DCode=41|XSize=1.97mm|YSize=0.6mm|CornerRadius=0.075mm|HoleSize=0mm|Usage=FLASHONLY|Rotation=270.000|XOffset=0mm|YOffset=0mm|HoleType=Round|Shape=RoundedRectangle|*
%AMROUNDEDRECTD41*
21,1,1.9700,0.4500,0,0,270.0*
21,1,1.8200,0.6000,0,0,270.0*
1,1,0.1500,-0.2250,-0.9100*
1,1,0.1500,-0.2250,0.9100*
1,1,0.1500,0.2250,0.9100*
1,1,0.1500,0.2250,-0.9100*
%
%ADD41ROUNDEDRECTD41*%
%ADD46R,1.3335X0.4318*%
%ADD50R,1.1049X0.4572*%
%ADD51R,0.6096X1.3208*%
%ADD71R,1.7526X2.9464*%
G04:AMPARAMS|DCode=87|XSize=0.275mm|YSize=0.3mm|CornerRadius=0.0688mm|HoleSize=0mm|Usage=FLASHONLY|Rotation=180.000|XOffset=0mm|YOffset=0mm|HoleType=Round|Shape=RoundedRectangle|*
%AMROUNDEDRECTD87*
21,1,0.2750,0.1625,0,0,180.0*
21,1,0.1375,0.3000,0,0,180.0*
1,1,0.1375,-0.0688,0.0813*
1,1,0.1375,0.0688,0.0813*
1,1,0.1375,0.0688,-0.0813*
1,1,0.1375,-0.0688,-0.0813*
%
%ADD87ROUNDEDRECTD87*%
G04:AMPARAMS|DCode=88|XSize=0.275mm|YSize=0.3mm|CornerRadius=0.0688mm|HoleSize=0mm|Usage=FLASHONLY|Rotation=270.000|XOffset=0mm|YOffset=0mm|HoleType=Round|Shape=RoundedRectangle|*
%AMROUNDEDRECTD88*
21,1,0.2750,0.1625,0,0,270.0*
21,1,0.1375,0.3000,0,0,270.0*
1,1,0.1375,-0.0813,-0.0688*
1,1,0.1375,-0.0813,0.0688*
1,1,0.1375,0.0813,0.0688*
1,1,0.1375,0.0813,-0.0688*
%
%ADD88ROUNDEDRECTD88*%
G04:AMPARAMS|DCode=89|XSize=0.55mm|YSize=0.6mm|CornerRadius=0.1375mm|HoleSize=0mm|Usage=FLASHONLY|Rotation=0.000|XOffset=0mm|YOffset=0mm|HoleType=Round|Shape=RoundedRectangle|*
%AMROUNDEDRECTD89*
21,1,0.5500,0.3250,0,0,0.0*
21,1,0.2750,0.6000,0,0,0.0*
1,1,0.2750,0.1375,-0.1625*
1,1,0.2750,-0.1375,-0.1625*
1,1,0.2750,-0.1375,0.1625*
1,1,0.2750,0.1375,0.1625*
%
%ADD89ROUNDEDRECTD89*%
G04:AMPARAMS|DCode=90|XSize=0.65mm|YSize=0.6mm|CornerRadius=0.15mm|HoleSize=0mm|Usage=FLASHONLY|Rotation=180.000|XOffset=0mm|YOffset=0mm|HoleType=Round|Shape=RoundedRectangle|*
%AMROUNDEDRECTD90*
21,1,0.6500,0.3000,0,0,180.0*
21,1,0.3500,0.6000,0,0,180.0*
1,1,0.3000,-0.1750,0.1500*
1,1,0.3000,0.1750,0.1500*
1,1,0.3000,0.1750,-0.1500*
1,1,0.3000,-0.1750,-0.1500*
%
%ADD90ROUNDEDRECTD90*%
G04:AMPARAMS|DCode=91|XSize=0.55mm|YSize=0.6mm|CornerRadius=0.1375mm|HoleSize=0mm|Usage=FLASHONLY|Rotation=270.000|XOffset=0mm|YOffset=0mm|HoleType=Round|Shape=RoundedRectangle|*
%AMROUNDEDRECTD91*
21,1,0.5500,0.3250,0,0,270.0*
21,1,0.2750,0.6000,0,0,270.0*
1,1,0.2750,-0.1625,-0.1375*
1,1,0.2750,-0.1625,0.1375*
1,1,0.2750,0.1625,0.1375*
1,1,0.2750,0.1625,-0.1375*
%
%ADD91ROUNDEDRECTD91*%
G04:AMPARAMS|DCode=92|XSize=1.45mm|YSize=0.59mm|CornerRadius=0.0738mm|HoleSize=0mm|Usage=FLASHONLY|Rotation=0.000|XOffset=0mm|YOffset=0mm|HoleType=Round|Shape=RoundedRectangle|*
%AMROUNDEDRECTD92*
21,1,1.4500,0.4425,0,0,0.0*
21,1,1.3025,0.5900,0,0,0.0*
1,1,0.1475,0.6513,-0.2213*
1,1,0.1475,-0.6513,-0.2213*
1,1,0.1475,-0.6513,0.2213*
1,1,0.1475,0.6513,0.2213*
%
%ADD92ROUNDEDRECTD92*%
%ADD93R,1.8542X1.2954*%
%ADD94R,2.9210X0.5588*%
%ADD95R,1.0414X2.3876*%
%ADD96R,1.0414X1.1938*%
%ADD97R,1.0414X1.0922*%
%ADD98R,0.5080X0.9906*%
%ADD99R,0.7112X0.7874*%
%ADD100R,2.1000X3.0000*%
%ADD101R,0.8000X1.6000*%
%ADD102R,2.1100X1.1200*%
%ADD103R,1.2600X0.6100*%
G04:AMPARAMS|DCode=104|XSize=1.2mm|YSize=1.3mm|CornerRadius=0.246mm|HoleSize=0mm|Usage=FLASHONLY|Rotation=0.000|XOffset=0mm|YOffset=0mm|HoleType=Round|Shape=RoundedRectangle|*
%AMROUNDEDRECTD104*
21,1,1.2000,0.8080,0,0,0.0*
21,1,0.7080,1.3000,0,0,0.0*
1,1,0.4920,0.3540,-0.4040*
1,1,0.4920,-0.3540,-0.4040*
1,1,0.4920,-0.3540,0.4040*
1,1,0.4920,0.3540,0.4040*
%
%ADD104ROUNDEDRECTD104*%
%ADD105R,0.9500X2.1500*%
%ADD106R,3.2500X2.1500*%
G04:AMPARAMS|DCode=107|XSize=2.7mm|YSize=1.3mm|CornerRadius=0.247mm|HoleSize=0mm|Usage=FLASHONLY|Rotation=90.000|XOffset=0mm|YOffset=0mm|HoleType=Round|Shape=RoundedRectangle|*
%AMROUNDEDRECTD107*
21,1,2.7000,0.8060,0,0,90.0*
21,1,2.2060,1.3000,0,0,90.0*
1,1,0.4940,0.4030,1.1030*
1,1,0.4940,0.4030,-1.1030*
1,1,0.4940,-0.4030,-1.1030*
1,1,0.4940,-0.4030,1.1030*
%
%ADD107ROUNDEDRECTD107*%
%ADD108R,0.5000X1.0000*%
%ADD109R,0.3500X1.0000*%
G04:AMPARAMS|DCode=110|XSize=1.21mm|YSize=0.59mm|CornerRadius=0.1475mm|HoleSize=0mm|Usage=FLASHONLY|Rotation=0.000|XOffset=0mm|YOffset=0mm|HoleType=Round|Shape=RoundedRectangle|*
%AMROUNDEDRECTD110*
21,1,1.2100,0.2950,0,0,0.0*
21,1,0.9150,0.5900,0,0,0.0*
1,1,0.2950,0.4575,-0.1475*
1,1,0.2950,-0.4575,-0.1475*
1,1,0.2950,-0.4575,0.1475*
1,1,0.2950,0.4575,0.1475*
%
%ADD110ROUNDEDRECTD110*%
%ADD117R,1.6000X1.6000*%
%ADD118C,1.6000*%
%ADD119C,0.3000*%
%ADD120C,0.7600*%
%ADD121C,1.5300*%
%ADD122R,1.5300X1.5300*%
%ADD123C,1.1900*%
%ADD124C,7.0000*%
%ADD125C,6.0000*%
%ADD126R,1.6500X1.6500*%
%ADD127C,1.6500*%
G36*
G01X454945Y637210D02*
G01X461376D01*
G01X466090Y632460D01*
G01X461376Y627710D01*
G01X454945D01*
G02X452820Y629835I0J2125D01*
G01Y635085D01*
G02X454945Y637210I2125J0D01*
D02*
G37*
G36*
G01X468595Y632483D02*
G01X463868Y637210D01*
G01X474565Y637210D01*
G02X476690Y635085I0J-2125D01*
G01Y629835D01*
G02X474565Y627710I-2125J0D01*
G01X463822D01*
G01X468595Y632483D01*
D02*
G37*
G36*
G01X728445Y722972D02*
G01X733172Y718245D01*
G01X722475Y718245D01*
G02X720350Y720370I0J2125D01*
G01Y725620D01*
G02X722475Y727745I2125J0D01*
G01X733218D01*
G01X728445Y722972D01*
D02*
G37*
G36*
G01X742095Y718245D02*
G01X735664D01*
G01X730950Y722995D01*
G01X735664Y727745D01*
G01X742095D01*
G02X744220Y725620I0J-2125D01*
G01Y720370D01*
G02X742095Y718245I-2125J0D01*
D02*
G37*
D24*
X847830Y229348D02*
D03*
Y244348D02*
D03*
Y259348D02*
D03*
Y199348D02*
D03*
Y184348D02*
D03*
Y214348D02*
D03*
Y304348D02*
D03*
Y289348D02*
D03*
Y274348D02*
D03*
X847830Y620868D02*
D03*
Y635868D02*
D03*
Y650868D02*
D03*
Y665868D02*
D03*
Y680868D02*
D03*
Y695868D02*
D03*
D32*
X458320Y835766D02*
D03*
X451820D02*
D03*
X471320D02*
D03*
X464820D02*
D03*
X477820D02*
D03*
D33*
X489695Y836616D02*
D03*
X439945D02*
D03*
D34*
X498570Y862366D02*
D03*
X431070D02*
D03*
D35*
X476320D02*
D03*
D36*
X449326D02*
D03*
D41*
X200660Y299020D02*
D03*
X187960D02*
D03*
X200660Y249620D02*
D03*
X187960D02*
D03*
X213360Y299020D02*
D03*
X175260D02*
D03*
Y249620D02*
D03*
X213360D02*
D03*
X262890Y528890D02*
D03*
X250190D02*
D03*
X275590D02*
D03*
X237490D02*
D03*
Y479490D02*
D03*
X275590D02*
D03*
X262890D02*
D03*
X250190D02*
D03*
D46*
X595059Y476504D02*
D03*
X639381Y509016D02*
D03*
X595059Y483006D02*
D03*
Y509016D02*
D03*
Y489509D02*
D03*
X639381Y476504D02*
D03*
X595059Y496011D02*
D03*
Y502514D02*
D03*
X639381Y496011D02*
D03*
Y502514D02*
D03*
Y489509D02*
D03*
Y483006D02*
D03*
D50*
X425768Y784250D02*
D03*
Y793750D02*
D03*
X399733D02*
D03*
Y784250D02*
D03*
X425768Y803250D02*
D03*
X399733D02*
D03*
X425768Y738530D02*
D03*
Y748030D02*
D03*
X399733D02*
D03*
X425768Y757530D02*
D03*
X399733D02*
D03*
Y738530D02*
D03*
D51*
X310592Y323596D02*
D03*
X301092Y343900D02*
D03*
X291592Y323596D02*
D03*
D71*
X617220Y492760D02*
D03*
D87*
X451603Y403485D02*
D03*
X456853D02*
D03*
X471433Y445327D02*
D03*
X466183D02*
D03*
X445473Y457273D02*
D03*
X450723D02*
D03*
X463433Y461577D02*
D03*
X458183D02*
D03*
X458874Y432505D02*
D03*
X464124D02*
D03*
X469933Y419827D02*
D03*
X464683D02*
D03*
X449433Y414077D02*
D03*
X444183D02*
D03*
X408933Y412578D02*
D03*
X414183D02*
D03*
X398183Y390578D02*
D03*
X392933D02*
D03*
X399457Y429327D02*
D03*
X404707D02*
D03*
X393183Y468577D02*
D03*
X398433D02*
D03*
X398433Y474577D02*
D03*
X393183D02*
D03*
X395183Y457578D02*
D03*
X389933D02*
D03*
X402659Y444819D02*
D03*
X407909D02*
D03*
X380017Y445478D02*
D03*
X385267D02*
D03*
X384679Y420081D02*
D03*
X379429D02*
D03*
X365008Y413580D02*
D03*
X359758D02*
D03*
X360183Y432827D02*
D03*
X365433D02*
D03*
X360183Y452327D02*
D03*
X365433D02*
D03*
X365183Y471468D02*
D03*
X359933D02*
D03*
X357433Y499094D02*
D03*
X362683D02*
D03*
X458312Y478683D02*
D03*
X463562D02*
D03*
X492683Y498577D02*
D03*
X487433D02*
D03*
X489683Y474077D02*
D03*
X484433D02*
D03*
X490933Y451828D02*
D03*
X485683D02*
D03*
X489933Y432827D02*
D03*
X484683D02*
D03*
X492183Y413327D02*
D03*
X486933D02*
D03*
X493683Y393828D02*
D03*
X488433D02*
D03*
X497510Y377763D02*
D03*
X492260D02*
D03*
X360255Y387664D02*
D03*
X365505D02*
D03*
X365397Y393618D02*
D03*
X360147D02*
D03*
X557183Y204827D02*
D03*
X551933D02*
D03*
X605183Y196577D02*
D03*
X599933D02*
D03*
X592587Y241389D02*
D03*
X597836D02*
D03*
X622808Y272827D02*
D03*
X617558D02*
D03*
X612553Y280828D02*
D03*
X607303D02*
D03*
X553183Y260828D02*
D03*
X547933D02*
D03*
X528405Y438150D02*
D03*
X523155D02*
D03*
Y450850D02*
D03*
X528405D02*
D03*
Y457200D02*
D03*
X523155D02*
D03*
X528405Y463550D02*
D03*
X523155D02*
D03*
X528405Y469900D02*
D03*
X523155D02*
D03*
X528405Y480060D02*
D03*
X523155D02*
D03*
X528405Y486410D02*
D03*
X523155D02*
D03*
X528405Y492760D02*
D03*
X523155D02*
D03*
X528405Y499110D02*
D03*
X523155D02*
D03*
X312335Y471170D02*
D03*
X317585D02*
D03*
X312335Y477520D02*
D03*
X317585D02*
D03*
X312335Y483870D02*
D03*
X317585D02*
D03*
X312335Y490220D02*
D03*
X317585D02*
D03*
D88*
X441058Y450952D02*
D03*
Y445703D02*
D03*
X433626Y387952D02*
D03*
Y393202D02*
D03*
X449808Y396168D02*
D03*
Y390918D02*
D03*
X460937Y394312D02*
D03*
Y399562D02*
D03*
X468980Y394453D02*
D03*
Y399702D02*
D03*
X395808Y406203D02*
D03*
Y400953D02*
D03*
X402308Y394202D02*
D03*
Y399453D02*
D03*
X411741Y387309D02*
D03*
Y392559D02*
D03*
X378808Y396452D02*
D03*
Y391203D02*
D03*
X389121Y405801D02*
D03*
Y400551D02*
D03*
X404808Y417202D02*
D03*
Y422453D02*
D03*
X427808Y432202D02*
D03*
Y426953D02*
D03*
X421308D02*
D03*
Y432202D02*
D03*
X382558Y465452D02*
D03*
Y470703D02*
D03*
X386058Y498952D02*
D03*
Y493703D02*
D03*
X412058Y478203D02*
D03*
Y472952D02*
D03*
X411558Y497202D02*
D03*
Y491953D02*
D03*
X437829Y477697D02*
D03*
Y472447D02*
D03*
X443567Y480685D02*
D03*
Y475435D02*
D03*
X481860Y365137D02*
D03*
Y370387D02*
D03*
X482040Y359557D02*
D03*
Y354307D02*
D03*
X464137Y364221D02*
D03*
Y369471D02*
D03*
X444308Y373203D02*
D03*
Y367953D02*
D03*
X423885Y367453D02*
D03*
Y372702D02*
D03*
X402785D02*
D03*
Y367453D02*
D03*
X385742D02*
D03*
Y372702D02*
D03*
X376151Y367453D02*
D03*
Y372703D02*
D03*
X546558Y226952D02*
D03*
Y221702D02*
D03*
X541148Y229703D02*
D03*
Y234953D02*
D03*
X546558Y242952D02*
D03*
Y237703D02*
D03*
X532849Y245750D02*
D03*
Y251000D02*
D03*
X531388Y219219D02*
D03*
Y213969D02*
D03*
Y203570D02*
D03*
Y198320D02*
D03*
X617558Y206140D02*
D03*
Y211390D02*
D03*
X617558Y229819D02*
D03*
Y235069D02*
D03*
X617610Y251154D02*
D03*
Y245904D02*
D03*
X607837Y218382D02*
D03*
Y223632D02*
D03*
X617558Y314953D02*
D03*
Y309702D02*
D03*
Y293703D02*
D03*
Y298953D02*
D03*
X591419Y265756D02*
D03*
Y271006D02*
D03*
X532558Y315452D02*
D03*
Y310203D02*
D03*
Y299452D02*
D03*
Y294202D02*
D03*
X424180Y321140D02*
D03*
Y326390D02*
D03*
X417830D02*
D03*
Y321140D02*
D03*
X405130Y326475D02*
D03*
Y321225D02*
D03*
X398780Y326475D02*
D03*
Y321225D02*
D03*
X386080D02*
D03*
Y326475D02*
D03*
X379730D02*
D03*
Y321225D02*
D03*
X373380Y326475D02*
D03*
Y321225D02*
D03*
X372110Y543645D02*
D03*
Y538395D02*
D03*
X384810Y543645D02*
D03*
Y538395D02*
D03*
X477520Y543645D02*
D03*
Y538395D02*
D03*
X464820Y543645D02*
D03*
Y538395D02*
D03*
X471170Y543645D02*
D03*
Y538395D02*
D03*
X458030Y543510D02*
D03*
Y538260D02*
D03*
X426720Y543645D02*
D03*
Y538395D02*
D03*
X410210Y543645D02*
D03*
Y538395D02*
D03*
X420370Y543645D02*
D03*
Y538395D02*
D03*
X403860Y543645D02*
D03*
Y538395D02*
D03*
X397510Y543730D02*
D03*
Y538480D02*
D03*
X391160Y543645D02*
D03*
Y538395D02*
D03*
X378460Y543645D02*
D03*
Y538395D02*
D03*
X365760Y543645D02*
D03*
Y538395D02*
D03*
X353060Y543645D02*
D03*
Y538395D02*
D03*
X359410Y543645D02*
D03*
Y538395D02*
D03*
D89*
X448558Y450078D02*
D03*
X457558D02*
D03*
X504880Y649630D02*
D03*
X495880D02*
D03*
X504880Y659130D02*
D03*
X495880D02*
D03*
Y668630D02*
D03*
X504880D02*
D03*
X435610D02*
D03*
X426610D02*
D03*
Y659130D02*
D03*
X435610D02*
D03*
X426610Y649580D02*
D03*
X435610D02*
D03*
X355426Y487891D02*
D03*
X364426D02*
D03*
X495046D02*
D03*
X486046D02*
D03*
X491808Y465327D02*
D03*
X482808D02*
D03*
X501355Y366707D02*
D03*
X492355D02*
D03*
X200601Y227077D02*
D03*
X209601D02*
D03*
X187960D02*
D03*
X178960D02*
D03*
X274442Y242890D02*
D03*
X283442D02*
D03*
X283409Y273050D02*
D03*
X274409D02*
D03*
X283409Y262890D02*
D03*
X274409D02*
D03*
X274442Y252572D02*
D03*
X283442D02*
D03*
X305256Y252730D02*
D03*
X314256D02*
D03*
X305256Y242730D02*
D03*
X314256D02*
D03*
X324741Y201023D02*
D03*
X333741D02*
D03*
X348670Y170180D02*
D03*
X339670D02*
D03*
X318190D02*
D03*
X309190D02*
D03*
X319350Y160020D02*
D03*
X328350D02*
D03*
X283442Y160340D02*
D03*
X274442D02*
D03*
Y170458D02*
D03*
X283442D02*
D03*
X274442Y202250D02*
D03*
X283442D02*
D03*
X274442Y222570D02*
D03*
X283442D02*
D03*
X313690Y207730D02*
D03*
X304690D02*
D03*
X319066Y217700D02*
D03*
X328066D02*
D03*
X363126Y222730D02*
D03*
X354126D02*
D03*
X363131Y212730D02*
D03*
X354131D02*
D03*
X354128Y242480D02*
D03*
X345128D02*
D03*
X354194Y252572D02*
D03*
X345194D02*
D03*
X598056Y185454D02*
D03*
X607056D02*
D03*
X821790Y654405D02*
D03*
X830790D02*
D03*
X821790Y664565D02*
D03*
X830790D02*
D03*
X821790Y684885D02*
D03*
X830790D02*
D03*
X821790Y674725D02*
D03*
X830790D02*
D03*
X567671Y482589D02*
D03*
X576670D02*
D03*
X567790Y496925D02*
D03*
X576790D02*
D03*
X567790Y505815D02*
D03*
X576790D02*
D03*
X633590Y462280D02*
D03*
X624590D02*
D03*
X601290D02*
D03*
X610290D02*
D03*
X612720Y523240D02*
D03*
X621720D02*
D03*
X727652Y702150D02*
D03*
X736652D02*
D03*
X568349Y802640D02*
D03*
X577349D02*
D03*
X568349Y812646D02*
D03*
X577349D02*
D03*
X608910Y808990D02*
D03*
X617910D02*
D03*
X654884Y802640D02*
D03*
X663884D02*
D03*
X654884Y812646D02*
D03*
X663884D02*
D03*
X762690Y773430D02*
D03*
X753690D02*
D03*
X762690Y783590D02*
D03*
X753690D02*
D03*
X762690Y795020D02*
D03*
X753690D02*
D03*
X762690Y805180D02*
D03*
X753690D02*
D03*
X681664Y749300D02*
D03*
X672664D02*
D03*
X681664Y759206D02*
D03*
X672664D02*
D03*
X545972Y749300D02*
D03*
X554972D02*
D03*
X545972Y759090D02*
D03*
X554972D02*
D03*
X342811Y655640D02*
D03*
X333811D02*
D03*
X342806Y665640D02*
D03*
X333806D02*
D03*
X284936Y685640D02*
D03*
X293936D02*
D03*
X284936Y695640D02*
D03*
X293936D02*
D03*
X333874Y695482D02*
D03*
X324874D02*
D03*
X333808Y685390D02*
D03*
X324808D02*
D03*
X304423Y665181D02*
D03*
X313423D02*
D03*
X313421Y643933D02*
D03*
X304421D02*
D03*
X297870Y603250D02*
D03*
X288870D02*
D03*
X263122D02*
D03*
X254122D02*
D03*
X263122Y613368D02*
D03*
X254122D02*
D03*
X263122Y645160D02*
D03*
X254122D02*
D03*
X263122Y665480D02*
D03*
X254122D02*
D03*
X263122Y685800D02*
D03*
X254122D02*
D03*
X263122Y695482D02*
D03*
X254122D02*
D03*
X271831Y456947D02*
D03*
X262831D02*
D03*
X241190D02*
D03*
X250190D02*
D03*
X343851Y51036D02*
D03*
X334851D02*
D03*
X397678D02*
D03*
X388678D02*
D03*
X451505D02*
D03*
X442505D02*
D03*
X666812D02*
D03*
X657812D02*
D03*
X612982Y51036D02*
D03*
X603982D02*
D03*
X559155D02*
D03*
X550155D02*
D03*
X505328D02*
D03*
X496328D02*
D03*
X290021D02*
D03*
X281021D02*
D03*
D90*
X420760Y51155D02*
D03*
X431260D02*
D03*
X323610D02*
D03*
X313110D02*
D03*
X377435D02*
D03*
X366935D02*
D03*
X636061D02*
D03*
X646561D02*
D03*
X581861Y51155D02*
D03*
X592360D02*
D03*
X528035D02*
D03*
X538535D02*
D03*
X474210D02*
D03*
X484710D02*
D03*
X258910D02*
D03*
X269410D02*
D03*
D91*
X636270Y659710D02*
D03*
Y668710D02*
D03*
X624205Y659713D02*
D03*
Y668713D02*
D03*
X612140Y668710D02*
D03*
Y659710D02*
D03*
X600075Y668713D02*
D03*
Y659713D02*
D03*
X588010Y659712D02*
D03*
Y668712D02*
D03*
X362883Y370683D02*
D03*
Y379683D02*
D03*
X250494Y370150D02*
D03*
Y379150D02*
D03*
X240030Y370150D02*
D03*
Y379150D02*
D03*
X245872Y418664D02*
D03*
Y427664D02*
D03*
X294378Y243230D02*
D03*
Y252230D02*
D03*
X313690Y183230D02*
D03*
Y192230D02*
D03*
X329435Y187730D02*
D03*
Y178730D02*
D03*
X351385Y192230D02*
D03*
Y183230D02*
D03*
X554308Y229328D02*
D03*
Y220327D02*
D03*
X613856Y100910D02*
D03*
Y109910D02*
D03*
X598891Y100913D02*
D03*
Y109913D02*
D03*
X583926Y100910D02*
D03*
Y109910D02*
D03*
X568960Y100910D02*
D03*
Y109910D02*
D03*
X657803Y486713D02*
D03*
Y477713D02*
D03*
Y499303D02*
D03*
Y508303D02*
D03*
X331065Y626140D02*
D03*
Y635140D02*
D03*
X293370Y635140D02*
D03*
Y626140D02*
D03*
X274058Y686140D02*
D03*
Y695140D02*
D03*
X224790Y689867D02*
D03*
Y680867D02*
D03*
X214538Y689867D02*
D03*
Y680867D02*
D03*
X278232Y339518D02*
D03*
Y330518D02*
D03*
X323952Y320358D02*
D03*
Y329358D02*
D03*
Y340678D02*
D03*
Y349678D02*
D03*
X447808Y536605D02*
D03*
Y545605D02*
D03*
D92*
X453270Y668630D02*
D03*
Y659130D02*
D03*
X476370Y668630D02*
D03*
Y659130D02*
D03*
Y649630D02*
D03*
X453270D02*
D03*
D93*
X899730Y327398D02*
D03*
Y161298D02*
D03*
X899730Y718868D02*
D03*
Y597868D02*
D03*
D94*
X285620Y729907D02*
D03*
X327520D02*
D03*
D95*
X359320Y774207D02*
D03*
D96*
X359320Y742357D02*
D03*
X252820Y736657D02*
D03*
D97*
Y762757D02*
D03*
D98*
X325570Y802257D02*
D03*
X303570D02*
D03*
X314570D02*
D03*
X336570D02*
D03*
X347570D02*
D03*
X292570D02*
D03*
X270570D02*
D03*
X281570D02*
D03*
D99*
X252970Y775457D02*
D03*
D100*
X645077Y857250D02*
D03*
X581577D02*
D03*
D101*
X607077Y828250D02*
D03*
X619577D02*
D03*
D102*
X188370Y572100D02*
D03*
Y592100D02*
D03*
X143930D02*
D03*
Y612100D02*
D03*
X188370D02*
D03*
X143930Y632100D02*
D03*
Y672100D02*
D03*
X188370D02*
D03*
X143930Y692100D02*
D03*
X188370D02*
D03*
X143930Y712100D02*
D03*
X188370D02*
D03*
X143930Y732100D02*
D03*
X188370D02*
D03*
X143930Y752100D02*
D03*
X188370D02*
D03*
Y632100D02*
D03*
X143930Y652100D02*
D03*
X188370D02*
D03*
X143930Y572100D02*
D03*
D103*
X148300Y121000D02*
D03*
X240100D02*
D03*
Y111000D02*
D03*
Y151000D02*
D03*
X148300Y111000D02*
D03*
X240100Y161000D02*
D03*
Y171000D02*
D03*
Y181000D02*
D03*
X148300Y191000D02*
D03*
X240100D02*
D03*
X148300Y201000D02*
D03*
X240100D02*
D03*
X148300Y141000D02*
D03*
Y131000D02*
D03*
X240100Y141000D02*
D03*
Y131000D02*
D03*
X148300Y151000D02*
D03*
Y161000D02*
D03*
Y171000D02*
D03*
Y181000D02*
D03*
D104*
X749190Y320042D02*
D03*
X767190D02*
D03*
Y255272D02*
D03*
X749190D02*
D03*
X792082Y114298D02*
D03*
X774082D02*
D03*
X792082Y135888D02*
D03*
X774082D02*
D03*
X749330Y581439D02*
D03*
X767330D02*
D03*
X749330Y618702D02*
D03*
X767330D02*
D03*
D105*
X736460Y167850D02*
D03*
X759460D02*
D03*
X782460D02*
D03*
D106*
X759460Y225850D02*
D03*
D107*
X720109Y125730D02*
D03*
X748109D02*
D03*
X768877Y672274D02*
D03*
X796877D02*
D03*
X796797Y715444D02*
D03*
X768797D02*
D03*
X746077Y672274D02*
D03*
X718077D02*
D03*
D108*
X550407Y587236D02*
D03*
X562407D02*
D03*
X550407Y617236D02*
D03*
X562407D02*
D03*
X665977Y587236D02*
D03*
X677977D02*
D03*
X665977Y617236D02*
D03*
X677977D02*
D03*
D109*
X556407Y587236D02*
D03*
Y617236D02*
D03*
X671977Y587236D02*
D03*
Y617236D02*
D03*
D110*
X668732Y772609D02*
D03*
X693831D02*
D03*
Y791609D02*
D03*
X668732D02*
D03*
Y782109D02*
D03*
X563022D02*
D03*
Y772609D02*
D03*
X537922D02*
D03*
X563022Y791609D02*
D03*
X537922D02*
D03*
X582372Y782109D02*
D03*
Y791609D02*
D03*
X607472D02*
D03*
Y772609D02*
D03*
X582372D02*
D03*
X650228Y782109D02*
D03*
Y772609D02*
D03*
X625128D02*
D03*
X650228Y791609D02*
D03*
X625128D02*
D03*
D117*
X694690Y527050D02*
D03*
D118*
Y501650D02*
D03*
Y476250D02*
D03*
Y400050D02*
D03*
Y425450D02*
D03*
Y450850D02*
D03*
Y374650D02*
D03*
Y349250D02*
D03*
D119*
X777794Y298450D02*
D03*
X738794D02*
D03*
Y285450D02*
D03*
X751794Y298450D02*
D03*
Y285450D02*
D03*
X777794D02*
D03*
X764794Y298450D02*
D03*
Y285450D02*
D03*
D120*
X166150Y582100D02*
D03*
Y742100D02*
D03*
D121*
X61100Y291200D02*
D03*
Y316600D02*
D03*
X35700D02*
D03*
X61100Y342000D02*
D03*
X35700D02*
D03*
X61100Y367400D02*
D03*
X35700D02*
D03*
X61100Y392800D02*
D03*
X35700D02*
D03*
X61100Y494400D02*
D03*
X35700D02*
D03*
X61100Y519800D02*
D03*
X35700D02*
D03*
X61100Y545200D02*
D03*
X35700D02*
D03*
X61100Y570600D02*
D03*
Y596000D02*
D03*
X35700D02*
D03*
Y570600D02*
D03*
Y621400D02*
D03*
X61100D02*
D03*
Y646800D02*
D03*
X35700D02*
D03*
X61100Y672200D02*
D03*
X35700D02*
D03*
X61100Y723000D02*
D03*
X35700D02*
D03*
X61100Y748400D02*
D03*
X35700D02*
D03*
X61100Y773800D02*
D03*
X35700D02*
D03*
Y138800D02*
D03*
X61100Y164200D02*
D03*
X35700D02*
D03*
X61100Y189600D02*
D03*
X35700D02*
D03*
X61100Y215000D02*
D03*
X35700D02*
D03*
X61100Y240400D02*
D03*
Y265800D02*
D03*
X35700D02*
D03*
Y291200D02*
D03*
Y240400D02*
D03*
X61100Y469000D02*
D03*
X35700D02*
D03*
X61100Y443600D02*
D03*
X35700D02*
D03*
Y697600D02*
D03*
X61100D02*
D03*
X35700Y418200D02*
D03*
X61100D02*
D03*
X86500Y316600D02*
D03*
X111900Y342000D02*
D03*
X86500D02*
D03*
X111900Y367400D02*
D03*
X86500D02*
D03*
Y392800D02*
D03*
Y443600D02*
D03*
Y418200D02*
D03*
Y469000D02*
D03*
X111900Y494400D02*
D03*
X86500D02*
D03*
X111900Y519800D02*
D03*
X86500D02*
D03*
X111900Y545200D02*
D03*
X86500D02*
D03*
X111900Y570600D02*
D03*
X86500D02*
D03*
Y621400D02*
D03*
X111900Y646800D02*
D03*
X86500D02*
D03*
X111900Y723000D02*
D03*
X86500D02*
D03*
X111900Y748400D02*
D03*
X86500D02*
D03*
X111900Y773800D02*
D03*
X86500D02*
D03*
Y138800D02*
D03*
Y164200D02*
D03*
X111900Y189600D02*
D03*
Y215000D02*
D03*
X86500D02*
D03*
Y265800D02*
D03*
Y240400D02*
D03*
X111900Y164200D02*
D03*
Y418200D02*
D03*
Y392800D02*
D03*
Y469000D02*
D03*
Y443600D02*
D03*
X86500Y189600D02*
D03*
X111900Y240400D02*
D03*
Y265800D02*
D03*
Y291200D02*
D03*
Y316600D02*
D03*
Y596000D02*
D03*
X86500D02*
D03*
X111900Y621400D02*
D03*
Y672200D02*
D03*
X86500D02*
D03*
Y291200D02*
D03*
X111900Y697600D02*
D03*
X86500D02*
D03*
D122*
X61100Y138800D02*
D03*
X111900D02*
D03*
D123*
X194200Y111000D02*
D03*
Y201000D02*
D03*
D124*
X167200Y46000D02*
D03*
X757200D02*
D03*
Y386000D02*
D03*
X167200D02*
D03*
X816400Y484100D02*
D03*
X169000Y826700D02*
D03*
Y484100D02*
D03*
X816400Y826700D02*
D03*
D125*
X35700Y88000D02*
D03*
Y824600D02*
D03*
X893000Y850000D02*
D03*
Y50000D02*
D03*
D126*
X825540Y769620D02*
D03*
D127*
Y744220D02*
D03*
M02*
