G04*
G04 #@! TF.GenerationSoftware,Altium Limited,Altium Designer,25.8.1 (18)*
G04*
G04 Layer_Color=8421504*
%FSLAX44Y44*%
%MOMM*%
G71*
G04*
G04 #@! TF.SameCoordinates,8BE68668-71DF-44FA-A386-526FED81259D*
G04*
G04*
G04 #@! TF.FilePolarity,Positive*
G04*
G01*
G75*
G04:AMPARAMS|DCode=19|XSize=0.55mm|YSize=0.6mm|CornerRadius=0.1375mm|HoleSize=0mm|Usage=FLASHONLY|Rotation=180.000|XOffset=0mm|YOffset=0mm|HoleType=Round|Shape=RoundedRectangle|*
%AMROUNDEDRECTD19*
21,1,0.5500,0.3250,0,0,180.0*
21,1,0.2750,0.6000,0,0,180.0*
1,1,0.2750,-0.1375,0.1625*
1,1,0.2750,0.1375,0.1625*
1,1,0.2750,0.1375,-0.1625*
1,1,0.2750,-0.1375,-0.1625*
%
%ADD19ROUNDEDRECTD19*%
%ADD20R,1.0000X0.6000*%
G04:AMPARAMS|DCode=21|XSize=0.275mm|YSize=0.3mm|CornerRadius=0.0688mm|HoleSize=0mm|Usage=FLASHONLY|Rotation=180.000|XOffset=0mm|YOffset=0mm|HoleType=Round|Shape=RoundedRectangle|*
%AMROUNDEDRECTD21*
21,1,0.2750,0.1625,0,0,180.0*
21,1,0.1375,0.3000,0,0,180.0*
1,1,0.1375,-0.0688,0.0813*
1,1,0.1375,0.0688,0.0813*
1,1,0.1375,0.0688,-0.0813*
1,1,0.1375,-0.0688,-0.0813*
%
%ADD21ROUNDEDRECTD21*%
G04:AMPARAMS|DCode=22|XSize=1.2mm|YSize=1.3mm|CornerRadius=0.246mm|HoleSize=0mm|Usage=FLASHONLY|Rotation=270.000|XOffset=0mm|YOffset=0mm|HoleType=Round|Shape=RoundedRectangle|*
%AMROUNDEDRECTD22*
21,1,1.2000,0.8080,0,0,270.0*
21,1,0.7080,1.3000,0,0,270.0*
1,1,0.4920,-0.4040,-0.3540*
1,1,0.4920,-0.4040,0.3540*
1,1,0.4920,0.4040,0.3540*
1,1,0.4920,0.4040,-0.3540*
%
%ADD22ROUNDEDRECTD22*%
%ADD23R,1.8542X1.2954*%
G04:AMPARAMS|DCode=24|XSize=2.7mm|YSize=1.3mm|CornerRadius=0.247mm|HoleSize=0mm|Usage=FLASHONLY|Rotation=270.000|XOffset=0mm|YOffset=0mm|HoleType=Round|Shape=RoundedRectangle|*
%AMROUNDEDRECTD24*
21,1,2.7000,0.8060,0,0,270.0*
21,1,2.2060,1.3000,0,0,270.0*
1,1,0.4940,-0.4030,-1.1030*
1,1,0.4940,-0.4030,1.1030*
1,1,0.4940,0.4030,1.1030*
1,1,0.4940,0.4030,-1.1030*
%
%ADD24ROUNDEDRECTD24*%
G04:AMPARAMS|DCode=25|XSize=0.35mm|YSize=0.8mm|CornerRadius=0.0875mm|HoleSize=0mm|Usage=FLASHONLY|Rotation=0.000|XOffset=0mm|YOffset=0mm|HoleType=Round|Shape=RoundedRectangle|*
%AMROUNDEDRECTD25*
21,1,0.3500,0.6250,0,0,0.0*
21,1,0.1750,0.8000,0,0,0.0*
1,1,0.1750,0.0875,-0.3125*
1,1,0.1750,-0.0875,-0.3125*
1,1,0.1750,-0.0875,0.3125*
1,1,0.1750,0.0875,0.3125*
%
%ADD25ROUNDEDRECTD25*%
%ADD26R,2.1000X3.0000*%
%ADD27R,2.1000X2.1000*%
%ADD28R,1.0414X0.6604*%
%ADD29R,1.7526X2.9464*%
%ADD30R,1.3335X0.4318*%
G04:AMPARAMS|DCode=31|XSize=2.7mm|YSize=1.3mm|CornerRadius=0.247mm|HoleSize=0mm|Usage=FLASHONLY|Rotation=0.000|XOffset=0mm|YOffset=0mm|HoleType=Round|Shape=RoundedRectangle|*
%AMROUNDEDRECTD31*
21,1,2.7000,0.8060,0,0,0.0*
21,1,2.2060,1.3000,0,0,0.0*
1,1,0.4940,1.1030,-0.4030*
1,1,0.4940,-1.1030,-0.4030*
1,1,0.4940,-1.1030,0.4030*
1,1,0.4940,1.1030,0.4030*
%
%ADD31ROUNDEDRECTD31*%
%ADD32R,0.7400X2.0000*%
G04:AMPARAMS|DCode=33|XSize=0.55mm|YSize=0.6mm|CornerRadius=0.1375mm|HoleSize=0mm|Usage=FLASHONLY|Rotation=90.000|XOffset=0mm|YOffset=0mm|HoleType=Round|Shape=RoundedRectangle|*
%AMROUNDEDRECTD33*
21,1,0.5500,0.3250,0,0,90.0*
21,1,0.2750,0.6000,0,0,90.0*
1,1,0.2750,0.1625,0.1375*
1,1,0.2750,0.1625,-0.1375*
1,1,0.2750,-0.1625,-0.1375*
1,1,0.2750,-0.1625,0.1375*
%
%ADD33ROUNDEDRECTD33*%
%ADD34R,0.8000X0.5000*%
%ADD35R,0.8000X1.6000*%
%ADD36R,1.2500X1.8000*%
%ADD37R,0.6096X1.3208*%
G04:AMPARAMS|DCode=38|XSize=0.275mm|YSize=0.3mm|CornerRadius=0.0688mm|HoleSize=0mm|Usage=FLASHONLY|Rotation=90.000|XOffset=0mm|YOffset=0mm|HoleType=Round|Shape=RoundedRectangle|*
%AMROUNDEDRECTD38*
21,1,0.2750,0.1625,0,0,90.0*
21,1,0.1375,0.3000,0,0,90.0*
1,1,0.1375,0.0813,0.0688*
1,1,0.1375,0.0813,-0.0688*
1,1,0.1375,-0.0813,-0.0688*
1,1,0.1375,-0.0813,0.0688*
%
%ADD38ROUNDEDRECTD38*%
%ADD39R,0.6750X0.2500*%
%ADD40R,1.2954X1.6510*%
%ADD41R,1.9050X1.8034*%
%ADD42R,1.9050X0.9906*%
%ADD43R,1.5494X1.4224*%
G04:AMPARAMS|DCode=44|XSize=1.47mm|YSize=0.28mm|CornerRadius=0.035mm|HoleSize=0mm|Usage=FLASHONLY|Rotation=90.000|XOffset=0mm|YOffset=0mm|HoleType=Round|Shape=RoundedRectangle|*
%AMROUNDEDRECTD44*
21,1,1.4700,0.2100,0,0,90.0*
21,1,1.4000,0.2800,0,0,90.0*
1,1,0.0700,0.1050,0.7000*
1,1,0.0700,0.1050,-0.7000*
1,1,0.0700,-0.1050,-0.7000*
1,1,0.0700,-0.1050,0.7000*
%
%ADD44ROUNDEDRECTD44*%
%ADD45R,1.3716X0.4572*%
%ADD46R,0.9500X2.1500*%
G04:AMPARAMS|DCode=47|XSize=1.45mm|YSize=0.59mm|CornerRadius=0.0738mm|HoleSize=0mm|Usage=FLASHONLY|Rotation=180.000|XOffset=0mm|YOffset=0mm|HoleType=Round|Shape=RoundedRectangle|*
%AMROUNDEDRECTD47*
21,1,1.4500,0.4425,0,0,180.0*
21,1,1.3025,0.5900,0,0,180.0*
1,1,0.1475,-0.6513,0.2213*
1,1,0.1475,0.6513,0.2213*
1,1,0.1475,0.6513,-0.2213*
1,1,0.1475,-0.6513,-0.2213*
%
%ADD47ROUNDEDRECTD47*%
G04:AMPARAMS|DCode=48|XSize=0.95mm|YSize=0.75mm|CornerRadius=0.1875mm|HoleSize=0mm|Usage=FLASHONLY|Rotation=90.000|XOffset=0mm|YOffset=0mm|HoleType=Round|Shape=RoundedRectangle|*
%AMROUNDEDRECTD48*
21,1,0.9500,0.3750,0,0,90.0*
21,1,0.5750,0.7500,0,0,90.0*
1,1,0.3750,0.1875,0.2875*
1,1,0.3750,0.1875,-0.2875*
1,1,0.3750,-0.1875,-0.2875*
1,1,0.3750,-0.1875,0.2875*
%
%ADD48ROUNDEDRECTD48*%
%ADD49R,1.2954X1.8542*%
%ADD50R,0.6604X1.0414*%
G04:AMPARAMS|DCode=51|XSize=1.64mm|YSize=0.59mm|CornerRadius=0.1475mm|HoleSize=0mm|Usage=FLASHONLY|Rotation=0.000|XOffset=0mm|YOffset=0mm|HoleType=Round|Shape=RoundedRectangle|*
%AMROUNDEDRECTD51*
21,1,1.6400,0.2950,0,0,0.0*
21,1,1.3450,0.5900,0,0,0.0*
1,1,0.2950,0.6725,-0.1475*
1,1,0.2950,-0.6725,-0.1475*
1,1,0.2950,-0.6725,0.1475*
1,1,0.2950,0.6725,0.1475*
%
%ADD51ROUNDEDRECTD51*%
%ADD52R,1.0414X2.3876*%
%ADD53R,1.0414X1.1938*%
%ADD54R,1.1049X0.4572*%
%ADD55R,0.2500X0.5750*%
%ADD56R,0.5080X0.9906*%
%ADD57R,1.0414X1.0922*%
%ADD58R,2.1100X1.1200*%
G04:AMPARAMS|DCode=59|XSize=1.57mm|YSize=0.41mm|CornerRadius=0.0513mm|HoleSize=0mm|Usage=FLASHONLY|Rotation=0.000|XOffset=0mm|YOffset=0mm|HoleType=Round|Shape=RoundedRectangle|*
%AMROUNDEDRECTD59*
21,1,1.5700,0.3075,0,0,0.0*
21,1,1.4675,0.4100,0,0,0.0*
1,1,0.1025,0.7338,-0.1538*
1,1,0.1025,-0.7338,-0.1538*
1,1,0.1025,-0.7338,0.1538*
1,1,0.1025,0.7338,0.1538*
%
%ADD59ROUNDEDRECTD59*%
%ADD60R,1.4732X0.5588*%
%ADD61R,1.2700X3.4300*%
G04:AMPARAMS|DCode=62|XSize=1.97mm|YSize=0.6mm|CornerRadius=0.075mm|HoleSize=0mm|Usage=FLASHONLY|Rotation=180.000|XOffset=0mm|YOffset=0mm|HoleType=Round|Shape=RoundedRectangle|*
%AMROUNDEDRECTD62*
21,1,1.9700,0.4500,0,0,180.0*
21,1,1.8200,0.6000,0,0,180.0*
1,1,0.1500,-0.9100,0.2250*
1,1,0.1500,0.9100,0.2250*
1,1,0.1500,0.9100,-0.2250*
1,1,0.1500,-0.9100,-0.2250*
%
%ADD62ROUNDEDRECTD62*%
%ADD63R,1.2600X0.6100*%
%ADD64R,3.2500X2.1500*%
G04:AMPARAMS|DCode=65|XSize=0.95mm|YSize=0.85mm|CornerRadius=0.2125mm|HoleSize=0mm|Usage=FLASHONLY|Rotation=270.000|XOffset=0mm|YOffset=0mm|HoleType=Round|Shape=RoundedRectangle|*
%AMROUNDEDRECTD65*
21,1,0.9500,0.4250,0,0,270.0*
21,1,0.5250,0.8500,0,0,270.0*
1,1,0.4250,-0.2125,-0.2625*
1,1,0.4250,-0.2125,0.2625*
1,1,0.4250,0.2125,0.2625*
1,1,0.4250,0.2125,-0.2625*
%
%ADD65ROUNDEDRECTD65*%
%ADD66R,0.8636X0.7112*%
%ADD67R,0.6000X1.0000*%
%ADD68R,2.9210X0.5588*%
%ADD69R,0.7112X0.7874*%
%ADD70R,1.2192X0.9652*%
%ADD71R,0.5000X1.0000*%
%ADD72R,0.3500X1.0000*%
G04:AMPARAMS|DCode=73|XSize=0.35mm|YSize=0.8mm|CornerRadius=0.0875mm|HoleSize=0mm|Usage=FLASHONLY|Rotation=270.000|XOffset=0mm|YOffset=0mm|HoleType=Round|Shape=RoundedRectangle|*
%AMROUNDEDRECTD73*
21,1,0.3500,0.6250,0,0,270.0*
21,1,0.1750,0.8000,0,0,270.0*
1,1,0.1750,-0.3125,-0.0875*
1,1,0.1750,-0.3125,0.0875*
1,1,0.1750,0.3125,0.0875*
1,1,0.1750,0.3125,-0.0875*
%
%ADD73ROUNDEDRECTD73*%
%ADD74R,1.0000X0.3500*%
%ADD75R,1.0000X0.5000*%
G36*
X198920Y746500D02*
X177820D01*
Y757700D01*
X198920D01*
Y746500D01*
D02*
G37*
G36*
X154480D02*
X133380D01*
Y757700D01*
X154480D01*
Y746500D01*
D02*
G37*
G36*
X198920Y726500D02*
X177820D01*
Y737700D01*
X198920D01*
Y726500D01*
D02*
G37*
G36*
X154480D02*
X133380D01*
Y737700D01*
X154480D01*
Y726500D01*
D02*
G37*
G36*
X742715Y727663D02*
X743101Y727503D01*
X743449Y727270D01*
X743745Y726974D01*
X743978Y726626D01*
X744138Y726239D01*
X744220Y725829D01*
Y725620D01*
Y720370D01*
Y720160D01*
X744138Y719750D01*
X743978Y719363D01*
X743745Y719015D01*
X743449Y718719D01*
X743101Y718486D01*
X742715Y718326D01*
X742304Y718245D01*
X735664D01*
X730950Y722995D01*
X735664Y727745D01*
X742304D01*
X742715Y727663D01*
D02*
G37*
G36*
X198920Y706500D02*
X177820D01*
Y717700D01*
X198920D01*
Y706500D01*
D02*
G37*
G36*
X154480D02*
X133380D01*
Y717700D01*
X154480D01*
Y706500D01*
D02*
G37*
G36*
X198920Y686500D02*
X177820D01*
Y697700D01*
X198920D01*
Y686500D01*
D02*
G37*
G36*
X154480D02*
X133380D01*
Y697700D01*
X154480D01*
Y686500D01*
D02*
G37*
G36*
X198920Y666500D02*
X177820D01*
Y677700D01*
X198920D01*
Y666500D01*
D02*
G37*
G36*
X154480D02*
X133380D01*
Y677700D01*
X154480D01*
Y666500D01*
D02*
G37*
G36*
X588010Y669290D02*
X583296Y664540D01*
X576656D01*
X576245Y664622D01*
X575858Y664782D01*
X575510Y665014D01*
X575214Y665310D01*
X574982Y665658D01*
X574822Y666045D01*
X574740Y666456D01*
Y666665D01*
Y666665D01*
Y671915D01*
Y672124D01*
X574822Y672535D01*
X574982Y672922D01*
X575214Y673270D01*
X575510Y673566D01*
X575858Y673798D01*
X576245Y673958D01*
X576656Y674040D01*
X583296D01*
X588010Y669290D01*
D02*
G37*
G36*
X198920Y646500D02*
X177820D01*
Y657700D01*
X198920D01*
Y646500D01*
D02*
G37*
G36*
X154480D02*
X133380D01*
Y657700D01*
X154480D01*
Y646500D01*
D02*
G37*
G36*
X198920Y626500D02*
X177820D01*
Y637700D01*
X198920D01*
Y626500D01*
D02*
G37*
G36*
X154480D02*
X133380D01*
Y637700D01*
X154480D01*
Y626500D01*
D02*
G37*
G36*
X198920Y606500D02*
X177820D01*
Y617700D01*
X198920D01*
Y606500D01*
D02*
G37*
G36*
X154480D02*
X133380D01*
Y617700D01*
X154480D01*
Y606500D01*
D02*
G37*
G36*
X198920Y586500D02*
X177820D01*
Y597700D01*
X198920D01*
Y586500D01*
D02*
G37*
G36*
X154480D02*
X133380D01*
Y597700D01*
X154480D01*
Y586500D01*
D02*
G37*
G36*
X198920Y566500D02*
X177820D01*
Y577700D01*
X198920D01*
Y566500D01*
D02*
G37*
G36*
X154480D02*
X133380D01*
Y577700D01*
X154480D01*
Y566500D01*
D02*
G37*
G36*
X800645Y560562D02*
X785119D01*
Y573294D01*
X800645D01*
Y560562D01*
D02*
G37*
G36*
X272541Y564605D02*
X272928Y564445D01*
X273276Y564212D01*
X273572Y563916D01*
X273805Y563568D01*
X273965Y563181D01*
X274046Y562771D01*
Y562561D01*
Y557312D01*
Y557102D01*
X273965Y556692D01*
X273805Y556305D01*
X273572Y555957D01*
X273276Y555661D01*
X272928Y555428D01*
X272541Y555268D01*
X272131Y555187D01*
X265490D01*
X260777Y559936D01*
X265490Y564687D01*
X272131D01*
X272541Y564605D01*
D02*
G37*
G36*
X800645Y545830D02*
X785119D01*
Y558562D01*
X800645D01*
Y545830D01*
D02*
G37*
G36*
X640080Y548610D02*
X635366Y543860D01*
X628726D01*
X628315Y543942D01*
X627929Y544102D01*
X627580Y544334D01*
X627284Y544630D01*
X627052Y544978D01*
X626892Y545365D01*
X626810Y545776D01*
Y545985D01*
Y545985D01*
Y551235D01*
Y551444D01*
X626892Y551855D01*
X627052Y552242D01*
X627284Y552590D01*
X627580Y552886D01*
X627929Y553118D01*
X628315Y553278D01*
X628726Y553360D01*
X635366D01*
X640080Y548610D01*
D02*
G37*
G36*
X677405Y451234D02*
X677791Y451074D01*
X678139Y450841D01*
X678435Y450545D01*
X678668Y450197D01*
X678828Y449810D01*
X678910Y449400D01*
Y449190D01*
Y443941D01*
Y443731D01*
X678828Y443321D01*
X678668Y442934D01*
X678435Y442586D01*
X678139Y442290D01*
X677791Y442057D01*
X677405Y441897D01*
X676994Y441815D01*
X670354D01*
X665640Y446566D01*
X670354Y451315D01*
X676994D01*
X677405Y451234D01*
D02*
G37*
G36*
X223306Y366885D02*
X218592Y362135D01*
X211952D01*
X211541Y362217D01*
X211154Y362377D01*
X210806Y362609D01*
X210511Y362906D01*
X210278Y363254D01*
X210118Y363640D01*
X210036Y364051D01*
Y364260D01*
Y364260D01*
Y369510D01*
Y369719D01*
X210118Y370130D01*
X210278Y370517D01*
X210511Y370865D01*
X210806Y371161D01*
X211154Y371393D01*
X211541Y371553D01*
X211952Y371635D01*
X218592D01*
X223306Y366885D01*
D02*
G37*
G36*
X729185Y323438D02*
X729572Y323278D01*
X729920Y323046D01*
X730216Y322750D01*
X730448Y322402D01*
X730608Y322015D01*
X730690Y321604D01*
Y321395D01*
Y316145D01*
Y315936D01*
X730608Y315525D01*
X730448Y315138D01*
X730216Y314790D01*
X729920Y314494D01*
X729572Y314262D01*
X729185Y314102D01*
X728774Y314020D01*
X722134D01*
X717420Y318770D01*
X722134Y323520D01*
X728774D01*
X729185Y323438D01*
D02*
G37*
G36*
X405317Y235325D02*
X405703Y235165D01*
X406051Y234932D01*
X406347Y234636D01*
X406580Y234288D01*
X406740Y233902D01*
X406822Y233491D01*
Y233282D01*
Y228032D01*
Y227822D01*
X406740Y227412D01*
X406580Y227025D01*
X406347Y226677D01*
X406051Y226381D01*
X405703Y226149D01*
X405317Y225989D01*
X404906Y225907D01*
X398265D01*
X393552Y230657D01*
X398265Y235407D01*
X404906D01*
X405317Y235325D01*
D02*
G37*
G36*
X373273Y235113D02*
X373660Y234953D01*
X374008Y234720D01*
X374304Y234424D01*
X374537Y234076D01*
X374697Y233689D01*
X374778Y233279D01*
Y233069D01*
Y227819D01*
Y227610D01*
X374697Y227200D01*
X374537Y226813D01*
X374304Y226465D01*
X374008Y226169D01*
X373660Y225936D01*
X373273Y225776D01*
X372863Y225694D01*
X366222D01*
X361508Y230444D01*
X366222Y235194D01*
X372863D01*
X373273Y235113D01*
D02*
G37*
G36*
X440674Y234826D02*
X441060Y234666D01*
X441408Y234433D01*
X441704Y234137D01*
X441937Y233789D01*
X442097Y233403D01*
X442179Y232992D01*
Y232783D01*
Y227533D01*
Y227323D01*
X442097Y226913D01*
X441937Y226526D01*
X441704Y226178D01*
X441408Y225882D01*
X441060Y225650D01*
X440674Y225489D01*
X440263Y225408D01*
X433623D01*
X428909Y230158D01*
X433623Y234908D01*
X440263D01*
X440674Y234826D01*
D02*
G37*
D19*
X346446Y287653D02*
D03*
X297284Y349250D02*
D03*
X286062Y275375D02*
D03*
X346358Y411759D02*
D03*
X337358D02*
D03*
X747813Y826851D02*
D03*
X717293D02*
D03*
X769334Y805684D02*
D03*
X769414Y795101D02*
D03*
X648390Y807720D02*
D03*
X648390Y796290D02*
D03*
X822380Y588010D02*
D03*
X798124Y528579D02*
D03*
X852750Y447040D02*
D03*
X727652Y702150D02*
D03*
X746244Y558240D02*
D03*
X661670Y652780D02*
D03*
Y642620D02*
D03*
X746533Y541579D02*
D03*
X694836Y445829D02*
D03*
X684753Y432082D02*
D03*
X578187Y796290D02*
D03*
X502920Y796750D02*
D03*
X499010Y728980D02*
D03*
X501070Y706120D02*
D03*
X499800Y640540D02*
D03*
X498535Y607377D02*
D03*
X684752Y412767D02*
D03*
X717550Y332740D02*
D03*
X649478Y151995D02*
D03*
X604353Y176267D02*
D03*
X535720Y414468D02*
D03*
X514903Y414397D02*
D03*
X543626Y334933D02*
D03*
X472330Y796750D02*
D03*
X460430Y797210D02*
D03*
X449370Y728980D02*
D03*
X471750Y706120D02*
D03*
X460430D02*
D03*
X478350Y607377D02*
D03*
X450845Y640540D02*
D03*
X438840Y728980D02*
D03*
X439530Y640540D02*
D03*
X425571Y597767D02*
D03*
Y578548D02*
D03*
X425573Y568938D02*
D03*
X395910Y452568D02*
D03*
X305630Y645530D02*
D03*
X302675Y588960D02*
D03*
X252031Y589160D02*
D03*
X232440Y588960D02*
D03*
X397466Y331905D02*
D03*
X349250Y305318D02*
D03*
X355445Y287653D02*
D03*
X325810Y349250D02*
D03*
X335437Y287653D02*
D03*
X323550Y337394D02*
D03*
X306284Y349250D02*
D03*
X277095Y342551D02*
D03*
X212984Y379474D02*
D03*
X176372Y342440D02*
D03*
X271994Y291393D02*
D03*
X277062Y275375D02*
D03*
X152545Y281250D02*
D03*
X245000Y574040D02*
D03*
X254000D02*
D03*
X261031Y589160D02*
D03*
X272767Y588960D02*
D03*
X212670Y633730D02*
D03*
X296630Y645530D02*
D03*
X262200Y628817D02*
D03*
X262200Y619760D02*
D03*
X293675Y588960D02*
D03*
X280780Y574040D02*
D03*
X282575Y599294D02*
D03*
X241440Y588960D02*
D03*
X212670Y596900D02*
D03*
Y609600D02*
D03*
X824332Y674635D02*
D03*
X833332D02*
D03*
X816380Y194978D02*
D03*
X854130Y96520D02*
D03*
X578188Y773430D02*
D03*
Y807720D02*
D03*
Y784860D02*
D03*
X587187Y796290D02*
D03*
X675752Y412767D02*
D03*
X489535Y607377D02*
D03*
X469350D02*
D03*
X456620D02*
D03*
X425575Y607377D02*
D03*
X769600Y528579D02*
D03*
X755533Y541579D02*
D03*
X746509Y569518D02*
D03*
X813380Y588010D02*
D03*
X648388Y773430D02*
D03*
Y784860D02*
D03*
X492070Y706120D02*
D03*
X480750D02*
D03*
X425575Y588157D02*
D03*
Y559328D02*
D03*
Y549718D02*
D03*
X481330Y796750D02*
D03*
X493920D02*
D03*
X816462Y204616D02*
D03*
X366465Y413212D02*
D03*
X357465D02*
D03*
X152542Y439966D02*
D03*
X143542D02*
D03*
Y429322D02*
D03*
X152542D02*
D03*
X366465Y347148D02*
D03*
X357465D02*
D03*
X221984Y379474D02*
D03*
X316810Y349250D02*
D03*
X670670Y642620D02*
D03*
Y632460D02*
D03*
X661670D02*
D03*
X670670Y652780D02*
D03*
X429840Y728980D02*
D03*
X469690D02*
D03*
X478690D02*
D03*
X490010D02*
D03*
X458370D02*
D03*
X431110Y706120D02*
D03*
X440110D02*
D03*
X451430Y797210D02*
D03*
X430530D02*
D03*
X439530D02*
D03*
X292389Y231266D02*
D03*
X301389D02*
D03*
X332360Y231266D02*
D03*
X341360D02*
D03*
X314550Y337394D02*
D03*
X280994Y291393D02*
D03*
X340247Y337430D02*
D03*
X349247D02*
D03*
X348938Y327660D02*
D03*
X339938D02*
D03*
X348935Y317500D02*
D03*
X339935D02*
D03*
X340250Y305318D02*
D03*
X326437Y287653D02*
D03*
X286095Y342551D02*
D03*
X434575Y549718D02*
D03*
Y559328D02*
D03*
X434573Y568938D02*
D03*
X434575Y588157D02*
D03*
X434571Y597767D02*
D03*
Y578548D02*
D03*
X221670Y609600D02*
D03*
Y596900D02*
D03*
X291575Y599294D02*
D03*
X281767Y588960D02*
D03*
X271780Y574040D02*
D03*
X271200Y619760D02*
D03*
X271200Y628817D02*
D03*
X430530Y640540D02*
D03*
X459845Y640540D02*
D03*
X469895D02*
D03*
X478895D02*
D03*
X490800Y640540D02*
D03*
X451430Y706120D02*
D03*
X639390Y796290D02*
D03*
X639388Y784860D02*
D03*
X639390Y807720D02*
D03*
X639388Y773430D02*
D03*
X695774Y826851D02*
D03*
X704774D02*
D03*
X726293Y826851D02*
D03*
X738814D02*
D03*
X769333Y826851D02*
D03*
X760333D02*
D03*
X769333Y816267D02*
D03*
X760333D02*
D03*
X760334Y805684D02*
D03*
X760414Y795101D02*
D03*
X736652Y702150D02*
D03*
X833330Y684885D02*
D03*
X824330D02*
D03*
X833330Y664565D02*
D03*
X824330D02*
D03*
X833330Y654405D02*
D03*
X824330D02*
D03*
X861750Y447040D02*
D03*
X805716Y327660D02*
D03*
X796716D02*
D03*
X726550Y332740D02*
D03*
X845130Y96520D02*
D03*
X825462Y204616D02*
D03*
X825380Y194978D02*
D03*
X640478Y151995D02*
D03*
X595353Y176267D02*
D03*
X755509Y569518D02*
D03*
X755244Y558240D02*
D03*
X789124Y528579D02*
D03*
X778600D02*
D03*
X526721Y414468D02*
D03*
X505903Y414397D02*
D03*
X404911Y452568D02*
D03*
X434575Y607377D02*
D03*
X447620Y607377D02*
D03*
X581080Y494528D02*
D03*
X572080D02*
D03*
X581080Y485047D02*
D03*
X572080D02*
D03*
Y428167D02*
D03*
X581080D02*
D03*
X572080Y504007D02*
D03*
X581080D02*
D03*
Y475567D02*
D03*
X572080D02*
D03*
X581080Y466087D02*
D03*
X572080D02*
D03*
X581080Y456607D02*
D03*
X572080D02*
D03*
X581080Y447127D02*
D03*
X572080D02*
D03*
X572083Y437647D02*
D03*
X581083D02*
D03*
X572080Y418016D02*
D03*
X581080D02*
D03*
Y407670D02*
D03*
X572080D02*
D03*
X600924Y424180D02*
D03*
X591924D02*
D03*
X620736Y423554D02*
D03*
X611736D02*
D03*
X620736Y434340D02*
D03*
X611736D02*
D03*
X675753Y432082D02*
D03*
X685836Y445829D02*
D03*
X620736Y412767D02*
D03*
X611736D02*
D03*
X534626Y334933D02*
D03*
X406466Y331905D02*
D03*
X357465Y403775D02*
D03*
X366465D02*
D03*
Y356586D02*
D03*
X357465D02*
D03*
X366465Y366023D02*
D03*
X357465D02*
D03*
X366465Y488715D02*
D03*
X357465D02*
D03*
X366465Y460401D02*
D03*
X357465D02*
D03*
Y450964D02*
D03*
X366465D02*
D03*
X357465Y469839D02*
D03*
X366465D02*
D03*
X357465Y479277D02*
D03*
X366465D02*
D03*
Y432088D02*
D03*
X357465D02*
D03*
X366465Y422650D02*
D03*
X357465D02*
D03*
Y441526D02*
D03*
X366465D02*
D03*
X357465Y394337D02*
D03*
X366465D02*
D03*
Y375461D02*
D03*
X357465D02*
D03*
Y384899D02*
D03*
X366465D02*
D03*
X377765Y342556D02*
D03*
X386765D02*
D03*
X234538Y379474D02*
D03*
X243538D02*
D03*
X146850Y342440D02*
D03*
X155850D02*
D03*
X167372Y342440D02*
D03*
X143545Y281250D02*
D03*
Y272572D02*
D03*
X152545D02*
D03*
X143545Y261353D02*
D03*
X152545D02*
D03*
X143545Y250135D02*
D03*
X152545D02*
D03*
X143525Y238916D02*
D03*
X152525D02*
D03*
X221670Y633730D02*
D03*
X587188Y784860D02*
D03*
Y807720D02*
D03*
Y773430D02*
D03*
X669180Y96520D02*
D03*
X678180D02*
D03*
X763960D02*
D03*
X754960D02*
D03*
D20*
X783150Y130055D02*
D03*
X842230Y118110D02*
D03*
X755650Y120555D02*
D03*
X668090Y121920D02*
D03*
X695590Y131420D02*
D03*
Y112420D02*
D03*
X668090D02*
D03*
Y131420D02*
D03*
X869730Y127610D02*
D03*
Y108610D02*
D03*
X842230D02*
D03*
Y127610D02*
D03*
X783150Y111055D02*
D03*
X755650D02*
D03*
Y130055D02*
D03*
D21*
X344085Y296387D02*
D03*
X297560Y334560D02*
D03*
X287911Y283172D02*
D03*
X424799Y388869D02*
D03*
X419549D02*
D03*
X428084Y382326D02*
D03*
X422834D02*
D03*
X532735Y440821D02*
D03*
X496054Y446247D02*
D03*
X655319Y247850D02*
D03*
X638057Y207967D02*
D03*
X647792Y162532D02*
D03*
X638422Y187932D02*
D03*
X532160Y422534D02*
D03*
X531954Y400048D02*
D03*
X537114Y361921D02*
D03*
X538345Y344880D02*
D03*
X512113Y387019D02*
D03*
X535034Y380863D02*
D03*
X498746Y371725D02*
D03*
X595792Y228250D02*
D03*
X599089Y168185D02*
D03*
X441429Y449818D02*
D03*
X475772Y432464D02*
D03*
X440413Y442300D02*
D03*
X428675Y435798D02*
D03*
X426360Y448192D02*
D03*
X405980Y443977D02*
D03*
X396063Y460171D02*
D03*
X444925Y412397D02*
D03*
X459545Y372395D02*
D03*
X440446Y359407D02*
D03*
X426772Y412502D02*
D03*
X403156Y420838D02*
D03*
X402029Y400048D02*
D03*
X399590Y380756D02*
D03*
X401802Y358471D02*
D03*
X399231Y342266D02*
D03*
X349335Y296387D02*
D03*
X330030Y296387D02*
D03*
X302810Y334560D02*
D03*
X316835Y313226D02*
D03*
X287009Y334560D02*
D03*
X276005Y305858D02*
D03*
X276005Y300196D02*
D03*
X312980Y288592D02*
D03*
X300952Y290043D02*
D03*
X282661Y283172D02*
D03*
X411230Y443977D02*
D03*
X322085Y313226D02*
D03*
X281255Y305858D02*
D03*
X281255Y300196D02*
D03*
X446679Y449818D02*
D03*
X324780Y296387D02*
D03*
X318230Y288592D02*
D03*
X295702Y290043D02*
D03*
X292259Y334560D02*
D03*
X650070Y247850D02*
D03*
X643671Y187932D02*
D03*
X642542Y162532D02*
D03*
X593839Y168185D02*
D03*
X632807Y207967D02*
D03*
X590541Y228250D02*
D03*
X435163Y442300D02*
D03*
X433926Y435798D02*
D03*
X421110Y448192D02*
D03*
X401313Y460171D02*
D03*
X526910Y422534D02*
D03*
X481022Y432464D02*
D03*
X527485Y440821D02*
D03*
X490804Y446247D02*
D03*
X493496Y371725D02*
D03*
X533096Y344880D02*
D03*
X531864Y361921D02*
D03*
X529784Y380863D02*
D03*
X526703Y400048D02*
D03*
X506862Y387019D02*
D03*
X454295Y372395D02*
D03*
X435196Y359407D02*
D03*
X432022Y412502D02*
D03*
X408406Y420838D02*
D03*
X450175Y412397D02*
D03*
X407279Y400048D02*
D03*
X404840Y380756D02*
D03*
X407052Y358471D02*
D03*
X404482Y342266D02*
D03*
D22*
X801370Y110380D02*
D03*
X725170Y524700D02*
D03*
X715012Y128380D02*
D03*
X801370D02*
D03*
X886462Y128380D02*
D03*
X737868Y110380D02*
D03*
X822958D02*
D03*
X646428Y112920D02*
D03*
X822958Y128380D02*
D03*
X725170Y506700D02*
D03*
X737868Y128380D02*
D03*
X715012Y110380D02*
D03*
X886462Y110380D02*
D03*
X646428Y130920D02*
D03*
D23*
X899730Y718868D02*
D03*
Y597868D02*
D03*
X899730Y327398D02*
D03*
Y161298D02*
D03*
D24*
X796797Y715444D02*
D03*
X796877Y672274D02*
D03*
X718077D02*
D03*
X781080Y325120D02*
D03*
Y284480D02*
D03*
X704790Y284480D02*
D03*
X732790D02*
D03*
X753080Y284480D02*
D03*
X746077Y672274D02*
D03*
X768797Y715444D02*
D03*
X768877Y672274D02*
D03*
X753080Y325120D02*
D03*
D25*
X723637Y813531D02*
D03*
Y773531D02*
D03*
X717137D02*
D03*
Y813531D02*
D03*
X736637D02*
D03*
Y773531D02*
D03*
X730137D02*
D03*
Y813531D02*
D03*
D26*
X645077Y857250D02*
D03*
X581577D02*
D03*
D27*
X726887Y793531D02*
D03*
D28*
X847830Y620868D02*
D03*
X847830Y259348D02*
D03*
Y229348D02*
D03*
Y244348D02*
D03*
X847830Y695868D02*
D03*
Y680868D02*
D03*
Y665868D02*
D03*
Y650868D02*
D03*
Y635868D02*
D03*
X847830Y199348D02*
D03*
Y184348D02*
D03*
Y214348D02*
D03*
Y304348D02*
D03*
Y289348D02*
D03*
Y274348D02*
D03*
D29*
X792882Y559562D02*
D03*
D30*
X770720Y543306D02*
D03*
X815043D02*
D03*
X770720Y562813D02*
D03*
Y569316D02*
D03*
X815043Y562813D02*
D03*
Y569316D02*
D03*
Y556311D02*
D03*
Y549808D02*
D03*
X770720Y575818D02*
D03*
Y556311D02*
D03*
Y549808D02*
D03*
X815043Y575818D02*
D03*
D31*
X697230Y535970D02*
D03*
Y507970D02*
D03*
D32*
X669290Y474980D02*
D03*
X681990D02*
D03*
X605790D02*
D03*
X618490D02*
D03*
X656590D02*
D03*
X643890D02*
D03*
X631190D02*
D03*
X694690D02*
D03*
D33*
X656462Y526358D02*
D03*
X634826Y526357D02*
D03*
X615372Y638504D02*
D03*
X582987Y638506D02*
D03*
X505460Y781260D02*
D03*
X505403Y691957D02*
D03*
X622616Y526357D02*
D03*
X525092Y577092D02*
D03*
Y587252D02*
D03*
X576896Y517321D02*
D03*
X522331Y469768D02*
D03*
X806940Y340484D02*
D03*
X797270Y340485D02*
D03*
X419560Y781155D02*
D03*
X420830Y692260D02*
D03*
X403965Y594751D02*
D03*
Y584290D02*
D03*
X403965Y555823D02*
D03*
X401361Y500056D02*
D03*
X292820Y689980D02*
D03*
X271230Y688710D02*
D03*
X302725Y657800D02*
D03*
X278403Y658120D02*
D03*
X312420Y560650D02*
D03*
X291115Y618507D02*
D03*
X254380Y658120D02*
D03*
X242020Y636530D02*
D03*
X230598Y658120D02*
D03*
X241295Y616904D02*
D03*
X419536Y329880D02*
D03*
X416560Y252938D02*
D03*
X426390Y104155D02*
D03*
X404982Y252937D02*
D03*
X372959Y253075D02*
D03*
X277532Y330988D02*
D03*
X267982Y302338D02*
D03*
X234735Y324560D02*
D03*
X234735Y295678D02*
D03*
X391881Y500053D02*
D03*
Y509053D02*
D03*
X413381Y500053D02*
D03*
Y509053D02*
D03*
X401361Y509056D02*
D03*
X272385Y599257D02*
D03*
Y608257D02*
D03*
X230598Y667120D02*
D03*
X254380D02*
D03*
X278403D02*
D03*
X302725Y666800D02*
D03*
X241295Y607904D02*
D03*
X242020Y645530D02*
D03*
X302654Y610546D02*
D03*
X261530Y608257D02*
D03*
X309892Y621346D02*
D03*
X291115Y609507D02*
D03*
X282062Y645386D02*
D03*
Y636386D02*
D03*
X129185Y106580D02*
D03*
X117755D02*
D03*
X622616Y535357D02*
D03*
X797270Y349485D02*
D03*
X403965Y603751D02*
D03*
X234735Y304678D02*
D03*
X234735Y315560D02*
D03*
X806940Y349483D02*
D03*
X816610Y349487D02*
D03*
X441702Y113152D02*
D03*
Y104152D02*
D03*
X490745Y587691D02*
D03*
Y578691D02*
D03*
X419560Y772155D02*
D03*
Y761415D02*
D03*
Y752415D02*
D03*
X505460Y751143D02*
D03*
Y760143D02*
D03*
X505460Y772260D02*
D03*
X525092Y568092D02*
D03*
Y596252D02*
D03*
X426390Y113155D02*
D03*
X411078Y104152D02*
D03*
Y113152D02*
D03*
X395767Y104152D02*
D03*
Y113152D02*
D03*
X416560Y243938D02*
D03*
X404982Y243937D02*
D03*
X436880Y252938D02*
D03*
Y243938D02*
D03*
X426720D02*
D03*
Y252938D02*
D03*
X362799Y253075D02*
D03*
Y244075D02*
D03*
X394822Y243937D02*
D03*
Y252937D02*
D03*
X384662D02*
D03*
Y243937D02*
D03*
X372959Y244075D02*
D03*
X352639D02*
D03*
Y253075D02*
D03*
X342505Y252940D02*
D03*
Y243940D02*
D03*
X332410Y252940D02*
D03*
Y243940D02*
D03*
X322315Y252940D02*
D03*
Y243940D02*
D03*
X312220Y252940D02*
D03*
Y243940D02*
D03*
X302125Y252940D02*
D03*
Y243940D02*
D03*
X292030Y252940D02*
D03*
Y243940D02*
D03*
X281936Y252940D02*
D03*
Y243940D02*
D03*
X271841Y252940D02*
D03*
Y243940D02*
D03*
X267982Y311338D02*
D03*
X277532Y321988D02*
D03*
X403965Y575290D02*
D03*
X312420Y569650D02*
D03*
X309892Y630346D02*
D03*
X261530Y599257D02*
D03*
X302654Y601546D02*
D03*
X292820Y680980D02*
D03*
X271230Y679710D02*
D03*
X420830Y671360D02*
D03*
Y662360D02*
D03*
Y683260D02*
D03*
X505403Y662527D02*
D03*
Y671527D02*
D03*
Y682957D02*
D03*
X626167Y647507D02*
D03*
Y638507D02*
D03*
X615372Y647504D02*
D03*
X604577Y638507D02*
D03*
Y647507D02*
D03*
X593782Y638507D02*
D03*
Y647507D02*
D03*
X582987Y647506D02*
D03*
X695272Y804755D02*
D03*
Y813755D02*
D03*
Y784853D02*
D03*
Y793853D02*
D03*
X830076Y574808D02*
D03*
Y565808D02*
D03*
X830076Y546277D02*
D03*
Y555277D02*
D03*
X816610Y340487D02*
D03*
X666750Y526360D02*
D03*
Y535360D02*
D03*
X656462Y535358D02*
D03*
X645356Y535357D02*
D03*
Y526357D02*
D03*
X634826Y535357D02*
D03*
X576896Y526321D02*
D03*
Y545891D02*
D03*
Y536891D02*
D03*
X465050Y312876D02*
D03*
Y303876D02*
D03*
X455503Y312876D02*
D03*
Y303876D02*
D03*
X445955Y312873D02*
D03*
Y303873D02*
D03*
X436407Y312876D02*
D03*
Y303876D02*
D03*
X426859Y312876D02*
D03*
Y303876D02*
D03*
X417311Y312876D02*
D03*
Y303876D02*
D03*
X407763Y312876D02*
D03*
Y303876D02*
D03*
X388667Y312876D02*
D03*
Y303876D02*
D03*
X398215Y312876D02*
D03*
Y303876D02*
D03*
X522331Y460768D02*
D03*
X403965Y564823D02*
D03*
X372921Y509053D02*
D03*
Y500053D02*
D03*
X382401Y509053D02*
D03*
Y500053D02*
D03*
X422861Y509053D02*
D03*
Y500053D02*
D03*
X432341Y509053D02*
D03*
Y500053D02*
D03*
X441821Y509053D02*
D03*
Y500053D02*
D03*
X451301Y509053D02*
D03*
Y500053D02*
D03*
X460781Y509053D02*
D03*
Y500053D02*
D03*
X470261D02*
D03*
Y509053D02*
D03*
X479740D02*
D03*
Y500053D02*
D03*
X489220D02*
D03*
Y509053D02*
D03*
X498700D02*
D03*
Y500053D02*
D03*
X508180Y509053D02*
D03*
Y500053D02*
D03*
X517660Y509053D02*
D03*
Y500053D02*
D03*
X527140Y509053D02*
D03*
Y500053D02*
D03*
X536620Y509053D02*
D03*
Y500053D02*
D03*
X546100Y509053D02*
D03*
Y500053D02*
D03*
X419536Y338880D02*
D03*
X144348Y317221D02*
D03*
Y326221D02*
D03*
Y305280D02*
D03*
Y296280D02*
D03*
X117755Y97580D02*
D03*
X129185D02*
D03*
D34*
X625440Y772146D02*
D03*
X603440Y796146D02*
D03*
Y788146D02*
D03*
X625440Y780146D02*
D03*
X603440Y804146D02*
D03*
Y772146D02*
D03*
Y780146D02*
D03*
X625440Y796146D02*
D03*
Y804146D02*
D03*
Y788146D02*
D03*
D35*
X607077Y828250D02*
D03*
X619577D02*
D03*
D36*
X538290Y872830D02*
D03*
X381190D02*
D03*
D37*
X599756Y518675D02*
D03*
X609256Y538979D02*
D03*
X590256D02*
D03*
D38*
X532716Y467764D02*
D03*
X509324Y433173D02*
D03*
X491614Y469042D02*
D03*
X505928Y464801D02*
D03*
X491614Y451741D02*
D03*
X485774Y464986D02*
D03*
X503083Y433178D02*
D03*
X496033Y438721D02*
D03*
X480050Y446173D02*
D03*
X659277Y282854D02*
D03*
Y266681D02*
D03*
X661716Y245448D02*
D03*
X651282Y213419D02*
D03*
X651282Y202707D02*
D03*
X633689Y233185D02*
D03*
X651282Y173452D02*
D03*
X509133Y366307D02*
D03*
X496499Y418759D02*
D03*
X479400Y421658D02*
D03*
X489910Y381984D02*
D03*
X502793Y366307D02*
D03*
X491842Y358635D02*
D03*
X589017Y205343D02*
D03*
X589017Y194910D02*
D03*
X575165Y282706D02*
D03*
X524441Y332308D02*
D03*
X506138Y336801D02*
D03*
X524558Y326961D02*
D03*
X486472Y330883D02*
D03*
X575165Y266687D02*
D03*
X575165Y197457D02*
D03*
Y211965D02*
D03*
X575165Y186688D02*
D03*
Y170810D02*
D03*
X447873Y466120D02*
D03*
X467051Y464801D02*
D03*
X454020Y445237D02*
D03*
X428093Y464981D02*
D03*
X473434Y421658D02*
D03*
X473780Y402773D02*
D03*
X439964Y423430D02*
D03*
X463952Y399763D02*
D03*
X460360Y378131D02*
D03*
X447551Y374893D02*
D03*
X437855Y373425D02*
D03*
X431046Y373423D02*
D03*
X420253Y363596D02*
D03*
X476576Y355117D02*
D03*
X454226Y354754D02*
D03*
X447551Y335173D02*
D03*
X428077Y335319D02*
D03*
X331908Y340423D02*
D03*
X317057Y319627D02*
D03*
X308167D02*
D03*
X285750Y325205D02*
D03*
X308167Y324877D02*
D03*
X317057D02*
D03*
X480050Y440923D02*
D03*
X509324Y438423D02*
D03*
X491614Y456991D02*
D03*
X331908Y335173D02*
D03*
X285750Y319955D02*
D03*
X431046Y368173D02*
D03*
X420253Y358346D02*
D03*
X437855Y368175D02*
D03*
X575165Y181438D02*
D03*
X659277Y261432D02*
D03*
Y277604D02*
D03*
X661716Y240198D02*
D03*
X633689Y238435D02*
D03*
X651282Y218669D02*
D03*
X651282Y197457D02*
D03*
X651282Y178702D02*
D03*
X575165Y165560D02*
D03*
X589017Y189660D02*
D03*
X589017Y210592D02*
D03*
X575165Y202707D02*
D03*
Y217215D02*
D03*
X575165Y261437D02*
D03*
Y277456D02*
D03*
X509133Y361057D02*
D03*
X496499Y413509D02*
D03*
X479400Y416408D02*
D03*
X473434D02*
D03*
X454020Y439987D02*
D03*
X428093Y459731D02*
D03*
X447873Y460870D02*
D03*
X467051Y459551D02*
D03*
X496033Y433471D02*
D03*
X503083Y438428D02*
D03*
X485774Y459736D02*
D03*
X491614Y463792D02*
D03*
X505928Y459551D02*
D03*
X532716Y462514D02*
D03*
X476576Y360367D02*
D03*
X524441Y337558D02*
D03*
X524558Y321711D02*
D03*
X506138Y331552D02*
D03*
X486472Y336133D02*
D03*
X491842Y363885D02*
D03*
X502793Y361057D02*
D03*
X489910Y387234D02*
D03*
X473780Y397523D02*
D03*
X463952Y394513D02*
D03*
X460360Y383381D02*
D03*
X447551Y380143D02*
D03*
X454226Y360004D02*
D03*
X447551Y340423D02*
D03*
X428077Y340569D02*
D03*
X439964Y428680D02*
D03*
D39*
X479611Y575336D02*
D03*
X479601Y590336D02*
D03*
Y585336D02*
D03*
Y580337D02*
D03*
X479611Y570337D02*
D03*
X479601Y565336D02*
D03*
Y560336D02*
D03*
Y555337D02*
D03*
Y550336D02*
D03*
X448361D02*
D03*
Y555337D02*
D03*
Y560336D02*
D03*
Y565336D02*
D03*
Y570337D02*
D03*
Y575336D02*
D03*
Y580337D02*
D03*
Y585336D02*
D03*
Y590336D02*
D03*
Y595337D02*
D03*
X479601D02*
D03*
D40*
X876300Y423386D02*
D03*
Y355886D02*
D03*
D41*
Y378136D02*
D03*
D42*
Y405130D02*
D03*
D43*
X850550Y414511D02*
D03*
Y364761D02*
D03*
D44*
X804200Y410210D02*
D03*
X824200Y367210D02*
D03*
X804200D02*
D03*
X809200D02*
D03*
X814200D02*
D03*
X819200D02*
D03*
X824200Y410210D02*
D03*
X819200D02*
D03*
X814200D02*
D03*
X809200D02*
D03*
D45*
X849700Y402636D02*
D03*
Y376636D02*
D03*
Y396136D02*
D03*
Y389636D02*
D03*
Y383136D02*
D03*
D46*
X729120Y236010D02*
D03*
X798970D02*
D03*
X775970D02*
D03*
X752970D02*
D03*
X683120D02*
D03*
X706120D02*
D03*
D47*
X658176Y423443D02*
D03*
Y413943D02*
D03*
Y432943D02*
D03*
X635076D02*
D03*
Y423443D02*
D03*
Y413943D02*
D03*
D48*
X736970Y173990D02*
D03*
X667120D02*
D03*
X751470D02*
D03*
X681620D02*
D03*
D49*
X620127Y30270D02*
D03*
X454027D02*
D03*
X418787D02*
D03*
X252687D02*
D03*
D50*
X537077Y82170D02*
D03*
X335737D02*
D03*
X597077D02*
D03*
X582077D02*
D03*
X567077D02*
D03*
X552077D02*
D03*
X522077D02*
D03*
X507077D02*
D03*
X492077D02*
D03*
X477077D02*
D03*
X395737D02*
D03*
X380737D02*
D03*
X365737D02*
D03*
X350737D02*
D03*
X320737D02*
D03*
X305737D02*
D03*
X290737D02*
D03*
X275737D02*
D03*
D51*
X435930Y742950D02*
D03*
X436177Y653996D02*
D03*
X488630Y781050D02*
D03*
X488877Y692095D02*
D03*
Y679396D02*
D03*
Y666695D02*
D03*
Y653996D02*
D03*
X436177Y666695D02*
D03*
Y679396D02*
D03*
Y692095D02*
D03*
X435930Y781050D02*
D03*
Y768350D02*
D03*
Y755650D02*
D03*
X488630Y742950D02*
D03*
Y755650D02*
D03*
Y768350D02*
D03*
D52*
X359320Y774207D02*
D03*
D53*
X359320Y742357D02*
D03*
X252820Y736657D02*
D03*
D54*
X353060Y685800D02*
D03*
X375602D02*
D03*
X401637D02*
D03*
X327025D02*
D03*
X353060Y676300D02*
D03*
Y695300D02*
D03*
X327025D02*
D03*
Y676300D02*
D03*
X375602D02*
D03*
Y695300D02*
D03*
X401637Y676300D02*
D03*
Y695300D02*
D03*
D55*
X471481Y595956D02*
D03*
X466481D02*
D03*
X471481Y549706D02*
D03*
X466481D02*
D03*
X461481D02*
D03*
X456481D02*
D03*
Y595956D02*
D03*
X461481D02*
D03*
D56*
X325570Y802257D02*
D03*
X303570D02*
D03*
X314570D02*
D03*
X292570D02*
D03*
X336570D02*
D03*
X347570D02*
D03*
X270570D02*
D03*
X281570D02*
D03*
D57*
X252820Y762757D02*
D03*
D58*
X188370Y672100D02*
D03*
X143930Y632100D02*
D03*
X188370Y592100D02*
D03*
Y612100D02*
D03*
Y752100D02*
D03*
X143930D02*
D03*
X188370Y732100D02*
D03*
X143930D02*
D03*
X188370Y712100D02*
D03*
X143930D02*
D03*
X188370Y692100D02*
D03*
X143930D02*
D03*
Y672100D02*
D03*
X188370Y652100D02*
D03*
X143930D02*
D03*
X188370Y632100D02*
D03*
X143930Y612100D02*
D03*
Y592100D02*
D03*
X188370Y572100D02*
D03*
X143930D02*
D03*
D59*
X328821Y559165D02*
D03*
Y565665D02*
D03*
X386221Y604665D02*
D03*
X328821D02*
D03*
Y598165D02*
D03*
Y591665D02*
D03*
Y585165D02*
D03*
Y578665D02*
D03*
Y572165D02*
D03*
X386221Y559165D02*
D03*
Y565665D02*
D03*
Y572165D02*
D03*
Y578665D02*
D03*
Y585165D02*
D03*
Y591665D02*
D03*
Y598165D02*
D03*
D60*
X291846Y434340D02*
D03*
Y396240D02*
D03*
Y408940D02*
D03*
Y421640D02*
D03*
X218694Y434340D02*
D03*
Y421640D02*
D03*
Y408940D02*
D03*
Y396240D02*
D03*
D61*
X424399Y142912D02*
D03*
X449799Y172112D02*
D03*
X475199Y142912D02*
D03*
X348199Y172112D02*
D03*
X373599Y142912D02*
D03*
X398999Y172112D02*
D03*
X322799Y142912D02*
D03*
X297399Y172112D02*
D03*
D62*
X214630Y304340D02*
D03*
Y317040D02*
D03*
X165230Y304340D02*
D03*
Y317040D02*
D03*
Y329740D02*
D03*
Y291640D02*
D03*
X214630Y329740D02*
D03*
Y291640D02*
D03*
D63*
X240100Y111000D02*
D03*
Y121000D02*
D03*
X148300D02*
D03*
Y111000D02*
D03*
X240100Y141000D02*
D03*
Y131000D02*
D03*
X148300Y141000D02*
D03*
Y131000D02*
D03*
Y181000D02*
D03*
Y171000D02*
D03*
Y161000D02*
D03*
Y151000D02*
D03*
X240100D02*
D03*
Y161000D02*
D03*
Y171000D02*
D03*
Y181000D02*
D03*
X148300Y191000D02*
D03*
X240100D02*
D03*
X148300Y201000D02*
D03*
X240100D02*
D03*
D64*
X775970Y178010D02*
D03*
X706120D02*
D03*
D65*
X866860Y144326D02*
D03*
X850860D02*
D03*
X889905Y447366D02*
D03*
X874405D02*
D03*
D66*
X796798Y311150D02*
D03*
X833882D02*
D03*
D67*
X422240Y820930D02*
D03*
X452240D02*
D03*
X482240D02*
D03*
X512240D02*
D03*
X407240D02*
D03*
X437240D02*
D03*
X467240D02*
D03*
X497240D02*
D03*
D68*
X327520Y729907D02*
D03*
X285620D02*
D03*
D69*
X252970Y775457D02*
D03*
D70*
X507921Y574848D02*
D03*
Y590088D02*
D03*
D71*
X541370Y703340D02*
D03*
X553370D02*
D03*
X541370Y673340D02*
D03*
X553370D02*
D03*
X659368D02*
D03*
X671368D02*
D03*
X659368Y703340D02*
D03*
X671368D02*
D03*
D72*
X547370D02*
D03*
Y673340D02*
D03*
X665368D02*
D03*
Y703340D02*
D03*
D73*
X706887Y783781D02*
D03*
Y790281D02*
D03*
Y803281D02*
D03*
X746887D02*
D03*
X706887Y796781D02*
D03*
X746887Y790281D02*
D03*
Y783781D02*
D03*
Y796781D02*
D03*
D74*
X759460Y640080D02*
D03*
X789460D02*
D03*
D75*
Y646080D02*
D03*
Y634080D02*
D03*
X759460D02*
D03*
Y646080D02*
D03*
M02*
